<?xml version="1.0" standalone="no"?>
<!DOCTYPE svg PUBLIC "-//W3C//DTD SVG 1.1//EN" "http://www.w3.org/Graphics/SVG/1.1/DTD/svg11.dtd" >
<svg>
<metadata>
Created by FontForge 20090914 at Fri Jun 24 12:09:27 2016
 By www-data
&#194;&#169; 2013 Microsoft Corporation. All Rights Reserved.
</metadata>
<defs>
<font id="SitkaBanner-Bold" horiz-adv-x="0" >
  <font-face 
    font-family="Sitka Banner"
    font-weight="700"
    font-stretch="normal"
    units-per-em="2250"
    panose-1="2 0 8 5 2 0 0 2 0 4"
    ascent="1703"
    descent="-547"
    x-height="968.998"
    cap-height="1378"
    bbox="-1037 -668 2856.01 2303"
    underline-thickness="50"
    underline-position="-50"
    unicode-range="U+000D-U+FB04"
  />
<missing-glyph horiz-adv-x="1024" 
d="M128 0v1586h768v-1586h-768zM256 128h512v1330h-512v-1330z" />
    <glyph glyph-name="uniFB00" unicode="ff" horiz-adv-x="1406" 
d="M41 59l101.001 32c13.333 4 24.166 10.833 32.499 20.5s12.5 21.834 12.5 36.501v707h-181l27 108h155c0 90.667 11.833 171 35.5 241s56.334 129 98.001 177s90.834 84.333 147.501 109s118.334 37 185.001 37c12 0 26.667 -0.833008 44 -2.5
s35.333 -4.33398 54 -8.00098s37 -8 55 -13s33 -10.833 45 -17.5l-45 -193h-29c-17.333 9.33301 -36.5 19 -57.5 29s-42.5 19 -64.5 27s-43.333 14.667 -64 20s-39.334 8 -56.001 8c-17.333 0 -31.333 -3.83301 -42 -11.5s-18.334 -21.167 -23.001 -40.5
c-8 -34 -13 -80.333 -15 -139s-3.33301 -133 -4 -223h271l-32 -108h-236v-707c0 -15.333 4.16699 -27.833 12.5 -37.5s19.166 -16.167 32.499 -19.5l119 -32v-59h-578v59zM744.001 59l101.001 32c13.333 4 24.166 10.833 32.499 20.5s12.5 21.834 12.5 36.501v707h-181
l27 108h155c0 90.667 11.833 171 35.5 241s56.334 129 98.001 177s90.834 84.333 147.501 109s118.334 37 185.001 37c12 0 26.667 -0.833008 44 -2.5s35.333 -4.33398 54 -8.00098s37 -8 55 -13s33 -10.833 45 -17.5l-45 -193h-29c-17.333 9.33301 -36.5 19 -57.5 29
s-42.5 19 -64.5 27s-43.333 14.667 -64 20s-39.334 8 -56.001 8c-17.333 0 -31.333 -3.83301 -42 -11.5s-18.334 -21.167 -23.001 -40.5c-8 -34 -13 -80.333 -15 -139s-3.33301 -133 -4 -223h271l-32 -108h-236v-707c0 -15.333 4.16699 -27.833 12.5 -37.5
s19.166 -16.167 32.499 -19.5l119 -32v-59h-578v59z" />
    <glyph glyph-name="uniFB01" unicode="fi" horiz-adv-x="1320" 
d="M1013 1189c-23.333 0 -45.333 4 -66 12s-38.5 18.833 -53.5 32.5s-26.833 29.834 -35.5 48.501s-13 39 -13 61c0 20.667 4.33301 40.334 13 59.001s20.5 34.834 35.5 48.501s32.833 24.5 53.5 32.5s42.667 12 66 12c24 0 46.333 -4 67 -12s38.667 -18.833 54 -32.5
s27.5 -29.834 36.5 -48.501s13.5 -38.334 13.5 -59.001c0 -22 -4.5 -42.333 -13.5 -61s-21.167 -34.834 -36.5 -48.501s-33.333 -24.5 -54 -32.5s-43 -12 -67 -12zM41 59l101.001 32c13.333 4 24.166 10.833 32.499 20.5s12.5 21.834 12.5 36.501v707h-181l27 108h155
c0 90.667 11.833 171 35.5 241s56.334 129 98.001 177s90.834 84.333 147.501 109s118.334 37 185.001 37c12 0 26.667 -0.833008 44 -2.5s35.333 -4.33398 54 -8.00098s37 -8 55 -13s33 -10.833 45 -17.5l-45 -193h-29c-17.333 9.33301 -36.5 19 -57.5 29
s-42.5 19 -64.5 27s-43.333 14.667 -64 20s-39.334 8 -56.001 8c-17.333 0 -31.333 -3.83301 -42 -11.5s-18.334 -21.167 -23.001 -40.5c-8 -34 -13 -80.333 -15 -139s-3.33301 -133 -4 -223h271l-32 -108h-236v-707c0 -15.333 4.16699 -27.833 12.5 -37.5
s19.166 -16.167 32.499 -19.5l119 -32v-59h-578v59zM742.001 59l103.002 31.998c13.333 4 24.166 10.833 32.499 20.5s12.5 21.834 12.5 36.501v610c0 17.333 -4.5 31.833 -13.5 43.5s-25.167 21.834 -48.5 30.501l-82 30v48l412 79v-841
c0 -15.333 4.16699 -27.5 12.5 -36.5s19.166 -15.833 32.499 -20.5l94 -32v-59h-555v59z" />
    <glyph glyph-name="uniFB02" unicode="fl" horiz-adv-x="1321" 
d="M746 59l98.002 32.002c30 10.667 45 29.667 45 57v1124c0 17.333 -4.33301 32.166 -13 44.499s-24.667 22.166 -48 29.499l-8 2l-13 -55h-29c-17.333 9.33301 -36.5 19 -57.5 29s-42.5 19 -64.5 27s-43.333 14.667 -64 20s-39.334 8 -56.001 8
c-17.333 0 -31.333 -3.83301 -42 -11.5s-18.334 -21.167 -23.001 -40.5c-8 -34 -13 -80.333 -15 -139s-3.33301 -133 -4 -223h271l-32 -108h-236v-707c0 -15.333 4.16699 -27.833 12.5 -37.5s19.166 -16.167 32.499 -19.5l119 -32v-59h-578v59l101 32
c13.333 4 24.166 10.833 32.499 20.5s12.5 21.834 12.5 36.501v707h-181l27 108h155c0 90.667 11.833 171 35.5 241s56.334 129 98.001 177s90.834 84.333 147.501 109s118.334 37 185.001 37c12 0 26.667 -0.833008 44 -2.5s35.333 -4.33398 54 -8.00098s37 -8 55 -13
s33 -10.833 45 -17.5l-10 -40l315 65v-1363c0 -15.333 4.16699 -27.333 12.5 -36s19.166 -15.667 32.499 -21l86 -32v-59h-542v59z" />
    <glyph glyph-name="uniFB03" unicode="ffi" horiz-adv-x="2023" 
d="M41 59l101.001 32c13.333 4 24.166 10.833 32.499 20.5s12.5 21.834 12.5 36.501v707h-181l27 108h155c0 90.667 11.833 171 35.5 241s56.334 129 98.001 177s90.834 84.333 147.501 109s118.334 37 185.001 37c12 0 26.667 -0.833008 44 -2.5
s35.333 -4.33398 54 -8.00098s37 -8 55 -13s33 -10.833 45 -17.5l-45 -193h-29c-17.333 9.33301 -36.5 19 -57.5 29s-42.5 19 -64.5 27s-43.333 14.667 -64 20s-39.334 8 -56.001 8c-17.333 0 -31.333 -3.83301 -42 -11.5s-18.334 -21.167 -23.001 -40.5
c-8 -34 -13 -80.333 -15 -139s-3.33301 -133 -4 -223h271l-32 -108h-236v-707c0 -15.333 4.16699 -27.833 12.5 -37.5s19.166 -16.167 32.499 -19.5l119 -32v-59h-578v59zM744.001 59l101.001 32c13.333 4 24.166 10.833 32.499 20.5s12.5 21.834 12.5 36.501v707h-181
l27 108h155c0 90.667 11.833 171 35.5 241s56.334 129 98.001 177s90.834 84.333 147.501 109s118.334 37 185.001 37c12 0 26.667 -0.833008 44 -2.5s35.333 -4.33398 54 -8.00098s37 -8 55 -13s33 -10.833 45 -17.5l-45 -193h-29c-17.333 9.33301 -36.5 19 -57.5 29
s-42.5 19 -64.5 27s-43.333 14.667 -64 20s-39.334 8 -56.001 8c-17.333 0 -31.333 -3.83301 -42 -11.5s-18.334 -21.167 -23.001 -40.5c-8 -34 -13 -80.333 -15 -139s-3.33301 -133 -4 -223h271l-32 -108h-236v-707c0 -15.333 4.16699 -27.833 12.5 -37.5
s19.166 -16.167 32.499 -19.5l119 -32v-59h-578v59zM1716 1186c-23.333 0 -45 4.16699 -65 12.5s-37.333 19.666 -52 33.999s-26.334 31.333 -35.001 51s-13 40.834 -13 63.501c0 22 4.33301 42.667 13 62s20.334 36.166 35.001 50.499s32 25.666 52 33.999
s41.667 12.5 65 12.5s45.166 -4.16699 65.499 -12.5s38.166 -19.666 53.499 -33.999s27.333 -31.166 36 -50.499s13 -40 13 -62c0 -22.667 -4.33301 -43.834 -13 -63.501s-20.667 -36.667 -36 -51s-33.166 -25.666 -53.499 -33.999s-42.166 -12.5 -65.499 -12.5zM1445 59
l103.002 31.998c13.333 4 24.166 10.833 32.499 20.5s12.5 21.834 12.5 36.501v610c0 17.333 -4.5 31.833 -13.5 43.5s-25.167 21.834 -48.5 30.501l-82 30v48l412 79v-841c0 -15.333 4.16699 -27.5 12.5 -36.5s19.166 -15.833 32.499 -20.5l94 -32v-59h-555v59z" />
    <glyph glyph-name="uniFB04" unicode="ffl" horiz-adv-x="2024" 
d="M41 59l101.001 32c13.333 4 24.166 10.833 32.499 20.5s12.5 21.834 12.5 36.501v707h-181l27 108h155c0 90.667 11.833 171 35.5 241s56.334 129 98.001 177s90.834 84.333 147.501 109s118.334 37 185.001 37c12 0 26.667 -0.833008 44 -2.5
s35.333 -4.33398 54 -8.00098s37 -8 55 -13s33 -10.833 45 -17.5l-45 -193h-29c-17.333 9.33301 -36.5 19 -57.5 29s-42.5 19 -64.5 27s-43.333 14.667 -64 20s-39.334 8 -56.001 8c-17.333 0 -31.333 -3.83301 -42 -11.5s-18.334 -21.167 -23.001 -40.5
c-8 -34 -13 -80.333 -15 -139s-3.33301 -133 -4 -223h271l-32 -108h-236v-707c0 -15.333 4.16699 -27.833 12.5 -37.5s19.166 -16.167 32.499 -19.5l119 -32v-59h-578v59zM1449 59l98.002 32.002c30 10.667 45 29.667 45 57v1124c0 17.333 -4.33301 32.166 -13 44.499
s-24.667 22.166 -48 29.499l-8 2l-13 -55h-29c-17.333 9.33301 -36.5 19 -57.5 29s-42.5 19 -64.5 27s-43.333 14.667 -64 20s-39.334 8 -56.001 8c-17.333 0 -31.333 -3.83301 -42 -11.5s-18.334 -21.167 -23.001 -40.5c-8 -34 -13 -80.333 -15 -139s-3.33301 -133 -4 -223
h271l-32 -108h-236v-707c0 -15.333 4.16699 -27.833 12.5 -37.5s19.166 -16.167 32.499 -19.5l119 -32v-59h-578v59l101 32c13.333 4 24.166 10.833 32.499 20.5s12.5 21.834 12.5 36.501v707h-181l27 108h155c0 90.667 11.833 171 35.5 241s56.334 129 98.001 177
s90.834 84.333 147.501 109s118.334 37 185.001 37c12 0 26.667 -0.833008 44 -2.5s35.333 -4.33398 54 -8.00098s37 -8 55 -13s33 -10.833 45 -17.5l-10 -40l315 65v-1363c0 -15.333 4.16699 -27.333 12.5 -36s19.166 -15.667 32.499 -21l86 -32v-59h-542v59z" />
    <glyph glyph-name="f_b.liga" unicode="fb" horiz-adv-x="1839" 
d="M1262 -27c-31.333 0 -63.498 1.16992 -96.498 3.50293s-67 6.66602 -102 12.999s-71 15.333 -108 27s-74.5 26.834 -112.5 45.501v1210c0 12 -2 22.667 -6 32s-11.333 17.666 -22 24.999l-8 -36h-29c-17.333 9.33301 -36.5 19 -57.5 29s-42.5 19 -64.5 27
s-43.333 14.667 -64 20s-39.334 8 -56.001 8c-17.333 0 -31.333 -3.83301 -42 -11.5s-18.334 -21.167 -23.001 -40.5c-8 -34 -13 -80.333 -15 -139s-3.33301 -133 -4 -223h271l-32 -108h-236v-707c0 -15.333 4.16699 -27.833 12.5 -37.5s19.166 -16.167 32.499 -19.5
l119 -32v-59h-578v59l101 32c13.333 4 24.166 10.833 32.499 20.5s12.5 21.834 12.5 36.501v707h-181l27 108h155c0 90.667 11.833 171 35.5 241s56.334 129 98.001 177s90.834 84.333 147.501 109s118.334 37 185.001 37c12 0 26.667 -0.833008 44 -2.5
s35.333 -4.33398 54 -8.00098s37 -8 55 -13s33 -10.833 45 -17.5l-7 -30l266 55v-682c26.667 38.667 54.5 69.167 83.5 91.5s57 39.166 84 50.499s52.5 18.5 76.5 21.5s44.333 4.5 61 4.5c58.667 0 111.167 -11.667 157.5 -35s85.666 -56 117.999 -98s57 -92.167 74 -150.5
s25.5 -122.166 25.5 -191.499c0 -76.667 -12 -148.334 -36 -215.001s-58.833 -124.834 -104.5 -174.501s-101.167 -88.667 -166.5 -117s-139.333 -42.5 -222 -42.5zM1268 75.0029c42.667 0 79.3311 10.335 109.998 31.002s55.667 48.5 75 83.5s33.666 75.167 42.999 120.5
s14 92.666 14 141.999c0 57.333 -4.33301 109.5 -13 156.5s-22.167 87.167 -40.5 120.5s-42.166 59 -71.499 77s-64.333 27 -105 27c-12.667 0 -26.667 -0.5 -42 -1.5s-30.666 -3.83301 -45.999 -8.5s-30.166 -12.167 -44.499 -22.5s-26.5 -24.5 -36.5 -42.5v-606
c6.66699 -8.66699 16 -17.5 28 -26.5s25.167 -17.333 39.5 -25s29.333 -13.834 45 -18.501s30.5 -7 44.5 -7z" />
    <glyph glyph-name="f_f_b.liga" unicode="ffb" horiz-adv-x="2542" 
d="M41 59l101.001 32c13.333 4 24.166 10.833 32.499 20.5s12.5 21.834 12.5 36.501v707h-181l27 108h155c0 90.667 11.833 171 35.5 241s56.334 129 98.001 177s90.834 84.333 147.501 109s118.334 37 185.001 37c12 0 26.667 -0.833008 44 -2.5
s35.333 -4.33398 54 -8.00098s37 -8 55 -13s33 -10.833 45 -17.5l-45 -193h-29c-17.333 9.33301 -36.5 19 -57.5 29s-42.5 19 -64.5 27s-43.333 14.667 -64 20s-39.334 8 -56.001 8c-17.333 0 -31.333 -3.83301 -42 -11.5s-18.334 -21.167 -23.001 -40.5
c-8 -34 -13 -80.333 -15 -139s-3.33301 -133 -4 -223h271l-32 -108h-236v-707c0 -15.333 4.16699 -27.833 12.5 -37.5s19.166 -16.167 32.499 -19.5l119 -32v-59h-578v59zM1965 -27c-31.333 0 -63.498 1.16992 -96.498 3.50293s-67 6.66602 -102 12.999s-71 15.333 -108 27
s-74.5 26.834 -112.5 45.501v1210c0 12 -2 22.667 -6 32s-11.333 17.666 -22 24.999l-8 -36h-29c-17.333 9.33301 -36.5 19 -57.5 29s-42.5 19 -64.5 27s-43.333 14.667 -64 20s-39.334 8 -56.001 8c-17.333 0 -31.333 -3.83301 -42 -11.5s-18.334 -21.167 -23.001 -40.5
c-8 -34 -13 -80.333 -15 -139s-3.33301 -133 -4 -223h271l-32 -108h-236v-707c0 -15.333 4.16699 -27.833 12.5 -37.5s19.166 -16.167 32.499 -19.5l119 -32v-59h-578v59l101 32c13.333 4 24.166 10.833 32.499 20.5s12.5 21.834 12.5 36.501v707h-181l27 108h155
c0 90.667 11.833 171 35.5 241s56.334 129 98.001 177s90.834 84.333 147.501 109s118.334 37 185.001 37c12 0 26.667 -0.833008 44 -2.5s35.333 -4.33398 54 -8.00098s37 -8 55 -13s33 -10.833 45 -17.5l-7 -30l266 55v-682c26.667 38.667 54.5 69.167 83.5 91.5
s57 39.166 84 50.499s52.5 18.5 76.5 21.5s44.333 4.5 61 4.5c58.667 0 111.167 -11.667 157.5 -35s85.666 -56 117.999 -98s57 -92.167 74 -150.5s25.5 -122.166 25.5 -191.499c0 -76.667 -12 -148.334 -36 -215.001s-58.833 -124.834 -104.5 -174.501
s-101.167 -88.667 -166.5 -117s-139.333 -42.5 -222 -42.5zM1971 75.0029c42.667 0 79.3301 10.335 109.997 31.002s55.667 48.5 75 83.5s33.666 75.167 43 120.5c9.33301 45.333 14 92.666 14 141.999c0 57.333 -4.33301 109.5 -13 156.5s-22.167 87.167 -40.5 120.5
s-42.166 59 -71.499 77s-64.333 27 -105 27c-12.667 0 -26.667 -0.5 -42 -1.5s-30.666 -3.83301 -45.999 -8.5s-30.166 -12.167 -44.499 -22.5s-26.5 -24.5 -36.5 -42.5v-606c6.66699 -8.66699 16 -17.5 28 -26.5s25.167 -17.333 39.5 -25s29.333 -13.834 45 -18.501
s30.5 -7 44.5 -7z" />
    <glyph glyph-name="f_h.liga" unicode="fh" horiz-adv-x="1905" 
d="M726 59l98.002 32.0029c13.333 4.66699 24.166 11.5 32.499 20.5s12.5 20.833 12.5 35.5v1125c0 16 -3.83301 29.833 -11.5 41.5s-20.834 21.167 -39.501 28.5l-11 -49h-29c-17.333 9.33301 -36.5 19 -57.5 29s-42.5 19 -64.5 27s-43.333 14.667 -64 20
s-39.334 8 -56.001 8c-17.333 0 -31.333 -3.83301 -42 -11.5s-18.334 -21.167 -23.001 -40.5c-8 -34 -13 -80.333 -15 -139s-3.33301 -133 -4 -223h271l-32 -108h-236v-707c0 -15.333 4.16699 -27.833 12.5 -37.5s19.166 -16.167 32.499 -19.5l119 -32v-59h-578v59l101 32
c13.333 4 24.166 10.833 32.499 20.5s12.5 21.834 12.5 36.501v707h-181l27 108h155c0 90.667 11.833 171 35.5 241s56.334 129 98.001 177s90.834 84.333 147.501 109s118.334 37 185.001 37c12 0 26.667 -0.833008 44 -2.5s35.333 -4.33398 54 -8.00098s37 -8 55 -13
s33 -10.833 45 -17.5l-9 -36l294 61v-684c28 37.333 55 67.166 81 89.499s51.5 39.5 76.5 51.5s49.667 19.833 74 23.5s49.166 5.5 74.499 5.5c42.667 0 82.834 -6.5 120.501 -19.5s70.5 -33.333 98.5 -61s50 -63.334 66 -107.001s24 -95.834 24 -156.501v-501
c0 -16.667 4.5 -29.834 13.5 -39.501s19.5 -16.834 31.5 -21.501l86 -32v-59h-533v59l91 32c11.333 4 21.333 11 30 21s13 23.333 13 40v410c0 44.667 -2 83.834 -6 117.501s-11.833 61.834 -23.5 84.501s-28.5 39.834 -50.5 51.501s-51 17.5 -87 17.5
c-15.333 0 -31.166 -0.833008 -47.499 -2.5s-32.5 -5.16699 -48.5 -10.5s-31.167 -13.333 -45.5 -24s-27.166 -25.334 -38.499 -44.001v-604c0 -15.333 4.16699 -27.333 12.5 -36s19.166 -15.667 32.499 -21l76 -32v-59h-532v59z" />
    <glyph glyph-name="f_f_h.liga" unicode="ffh" horiz-adv-x="2608" 
d="M41 59l101.001 32c13.333 4 24.166 10.833 32.499 20.5s12.5 21.834 12.5 36.501v707h-181l27 108h155c0 90.667 11.833 171 35.5 241s56.334 129 98.001 177s90.834 84.333 147.501 109s118.334 37 185.001 37c12 0 26.667 -0.833008 44 -2.5
s35.333 -4.33398 54 -8.00098s37 -8 55 -13s33 -10.833 45 -17.5l-45 -193h-29c-17.333 9.33301 -36.5 19 -57.5 29s-42.5 19 -64.5 27s-43.333 14.667 -64 20s-39.334 8 -56.001 8c-17.333 0 -31.333 -3.83301 -42 -11.5s-18.334 -21.167 -23.001 -40.5
c-8 -34 -13 -80.333 -15 -139s-3.33301 -133 -4 -223h271l-32 -108h-236v-707c0 -15.333 4.16699 -27.833 12.5 -37.5s19.166 -16.167 32.499 -19.5l119 -32v-59h-578v59zM1429 59l98.002 32.0029c13.333 4.66699 24.166 11.5 32.499 20.5s12.5 20.833 12.5 35.5v1125
c0 16 -3.83301 29.833 -11.5 41.5s-20.834 21.167 -39.501 28.5l-11 -49h-29c-17.333 9.33301 -36.5 19 -57.5 29s-42.5 19 -64.5 27s-43.333 14.667 -64 20s-39.334 8 -56.001 8c-17.333 0 -31.333 -3.83301 -42 -11.5s-18.334 -21.167 -23.001 -40.5
c-8 -34 -13 -80.333 -15 -139s-3.33301 -133 -4 -223h271l-32 -108h-236v-707c0 -15.333 4.16699 -27.833 12.5 -37.5s19.166 -16.167 32.499 -19.5l119 -32v-59h-578v59l101 32c13.333 4 24.166 10.833 32.499 20.5s12.5 21.834 12.5 36.501v707h-181l27 108h155
c0 90.667 11.833 171 35.5 241s56.334 129 98.001 177s90.834 84.333 147.501 109s118.334 37 185.001 37c12 0 26.667 -0.833008 44 -2.5s35.333 -4.33398 54 -8.00098s37 -8 55 -13s33 -10.833 45 -17.5l-9 -36l294 61v-684c28 37.333 55 67.166 81 89.499
s51.5 39.5 76.5 51.5s49.667 19.833 74 23.5s49.166 5.5 74.5 5.5c42.667 0 82.834 -6.5 120.5 -19.5c37.667 -13 70.5 -33.333 98.5 -61s50 -63.334 66 -107.001s24 -95.834 24 -156.501v-501c0 -16.667 4.5 -29.834 13.5 -39.501s19.5 -16.834 31.5 -21.501l86 -32v-59
h-533v59l91 32c11.333 4 21.333 11 30 21s13 23.333 13 40v410c0 44.667 -2 83.834 -6 117.501s-11.833 61.834 -23.5 84.501s-28.5 39.834 -50.5 51.501s-51 17.5 -87 17.5c-15.333 0 -31.166 -0.833008 -47.499 -2.5s-32.5 -5.16699 -48.5 -10.5
s-31.167 -13.333 -45.5 -24s-27.166 -25.334 -38.499 -44.001v-604c0 -15.333 4.16699 -27.333 12.5 -36s19.166 -15.667 32.499 -21l76 -32v-59h-532v59z" />
    <glyph glyph-name="f_j.liga" unicode="fj" horiz-adv-x="1303" 
d="M41 59l101.001 32c13.333 4 24.166 10.833 32.499 20.5s12.5 21.834 12.5 36.501v707h-181l27 108h155c0 90.667 11.833 171 35.5 241s56.334 129 98.001 177s90.834 84.333 147.501 109s118.334 37 185.001 37c12 0 26.667 -0.833008 44 -2.5
s35.333 -4.33398 54 -8.00098s37 -8 55 -13s33 -10.833 45 -17.5l-45 -193h-29c-17.333 9.33301 -36.5 19 -57.5 29s-42.5 19 -64.5 27s-43.333 14.667 -64 20s-39.334 8 -56.001 8c-17.333 0 -31.333 -3.83301 -42 -11.5s-18.334 -21.167 -23.001 -40.5
c-8 -34 -13 -80.333 -15 -139s-3.33301 -133 -4 -223h271l-32 -108h-236v-707c0 -15.333 4.16699 -27.833 12.5 -37.5s19.166 -16.167 32.499 -19.5l119 -32v-59h-578v59zM1008 1186c-23.333 0 -45 4.16699 -65 12.5s-37.333 19.666 -52 33.999s-26.334 31.333 -35.001 51
s-13 40.834 -13 63.501c0 22 4.33301 42.667 13 62s20.334 36.166 35.001 50.499s32 25.666 52 33.999s41.667 12.5 65 12.5s45.166 -4.16699 65.499 -12.5s38.166 -19.666 53.499 -33.999s27.333 -31.166 36 -50.499s13 -40 13 -62c0 -22.667 -4.33301 -43.834 -13 -63.501
s-20.667 -36.667 -36 -51s-33.166 -25.666 -53.499 -33.999s-42.166 -12.5 -65.499 -12.5zM694.001 -453c-12 0 -26.668 0.833008 -44.001 2.5s-35.333 4.33398 -54 8.00098s-37 8 -55 13s-33 10.833 -45 17.5l45 193h29c16.667 -9.33301 35.667 -19 57 -29s43 -19 65 -27
s43.5 -14.667 64.5 -20s39.5 -8 55.5 -8c17.333 0 31.333 3.83301 42 11.5s18.334 21.167 23.001 40.5c4 16.667 7.16699 37 9.5 61s4.33301 51.167 6 81.5s2.66699 63.833 3 100.5s0.5 76.334 0.5 119.001v647c0 19.333 -4.66699 34.666 -14 45.999
s-25.333 20.666 -48 27.999l-96 30v48l426 79v-884c0 -87.333 -12 -165.5 -36 -234.5s-57 -127.5 -99 -175.5s-91.667 -84.667 -149 -110s-119.333 -38 -186 -38z" />
    <glyph glyph-name="f_f_j.liga" unicode="ffj" horiz-adv-x="2006" 
d="M41 59l101.001 32c13.333 4 24.166 10.833 32.499 20.5s12.5 21.834 12.5 36.501v707h-181l27 108h155c0 90.667 11.833 171 35.5 241s56.334 129 98.001 177s90.834 84.333 147.501 109s118.334 37 185.001 37c12 0 26.667 -0.833008 44 -2.5
s35.333 -4.33398 54 -8.00098s37 -8 55 -13s33 -10.833 45 -17.5l-45 -193h-29c-17.333 9.33301 -36.5 19 -57.5 29s-42.5 19 -64.5 27s-43.333 14.667 -64 20s-39.334 8 -56.001 8c-17.333 0 -31.333 -3.83301 -42 -11.5s-18.334 -21.167 -23.001 -40.5
c-8 -34 -13 -80.333 -15 -139s-3.33301 -133 -4 -223h271l-32 -108h-236v-707c0 -15.333 4.16699 -27.833 12.5 -37.5s19.166 -16.167 32.499 -19.5l119 -32v-59h-578v59zM744.001 59l101.001 32c13.333 4 24.166 10.833 32.499 20.5s12.5 21.834 12.5 36.501v707h-181
l27 108h155c0 90.667 11.833 171 35.5 241s56.334 129 98.001 177s90.834 84.333 147.501 109s118.334 37 185.001 37c12 0 26.667 -0.833008 44 -2.5s35.333 -4.33398 54 -8.00098s37 -8 55 -13s33 -10.833 45 -17.5l-45 -193h-29c-17.333 9.33301 -36.5 19 -57.5 29
s-42.5 19 -64.5 27s-43.333 14.667 -64 20s-39.334 8 -56.001 8c-17.333 0 -31.333 -3.83301 -42 -11.5s-18.334 -21.167 -23.001 -40.5c-8 -34 -13 -80.333 -15 -139s-3.33301 -133 -4 -223h271l-32 -108h-236v-707c0 -15.333 4.16699 -27.833 12.5 -37.5
s19.166 -16.167 32.499 -19.5l119 -32v-59h-578v59zM1711 1186c-23.333 0 -45 4.16699 -65 12.5s-37.333 19.666 -52 33.999s-26.334 31.333 -35.001 51s-13 40.834 -13 63.501c0 22 4.33301 42.667 13 62s20.334 36.166 35.001 50.499s32 25.666 52 33.999
s41.667 12.5 65 12.5s45.166 -4.16699 65.499 -12.5s38.166 -19.666 53.499 -33.999s27.333 -31.166 36 -50.499s13 -40 13 -62c0 -22.667 -4.33301 -43.834 -13 -63.501s-20.667 -36.667 -36 -51s-33.166 -25.666 -53.499 -33.999s-42.166 -12.5 -65.499 -12.5zM1397 -453
c-12 0 -26.668 0.833008 -44.001 2.5s-35.333 4.33398 -54 8.00098s-37 8 -55 13s-33 10.833 -45 17.5l45 193h29c16.667 -9.33301 35.667 -19 57 -29s43 -19 65 -27s43.5 -14.667 64.5 -20s39.5 -8 55.5 -8c17.333 0 31.333 3.83301 42 11.5s18.334 21.167 23.001 40.5
c4 16.667 7.16699 37 9.5 61s4.33301 51.167 6 81.5s2.66699 63.833 3 100.5s0.5 76.334 0.5 119.001v647c0 19.333 -4.66699 34.666 -14 45.999s-25.333 20.666 -48 27.999l-96 30v48l426 79v-884c0 -87.333 -12 -165.5 -36 -234.5s-57 -127.5 -99 -175.5
s-91.667 -84.667 -149 -110s-119.333 -38 -186 -38z" />
    <glyph glyph-name="f_k.liga" unicode="fk" horiz-adv-x="1823" 
d="M726 59l98 31.998c30 10.667 45 29.667 45 57v1132c0 16 -3.83301 28 -11.5 36s-20.834 15.667 -39.501 23l-11 -46h-29c-17.333 9.33301 -36.5 19 -57.5 29s-42.5 19 -64.5 27s-43.333 14.667 -64 20s-39.334 8 -56.001 8c-17.333 0 -31.333 -3.83301 -42 -11.5
s-18.334 -21.167 -23.001 -40.5c-8 -34 -13 -80.333 -15 -139s-3.33301 -133 -4 -223h271l-32 -108h-236v-707c0 -15.333 4.16699 -27.833 12.5 -37.5s19.166 -16.167 32.499 -19.5l119 -32v-59h-578v59l101 32c13.333 4 24.166 10.833 32.499 20.5s12.5 21.834 12.5 36.501
v707h-181l27 108h155c0 90.667 11.833 171 35.5 241s56.334 129 98.001 177s90.834 84.333 147.501 109s118.334 37 185.001 37c12 0 26.667 -0.833008 44 -2.5s35.333 -4.33398 54 -8.00098s37 -8 55 -13s33 -10.833 45 -17.5l-9 -36l294 61v-1024l362 379l-116 44v59h410
v-59l-108 -34c-14 -4.66699 -28.167 -12.167 -42.5 -22.5s-26.166 -19.833 -35.499 -28.5l-203 -190l323 -503c8 -12 18.333 -22.167 31 -30.5s27.334 -15.166 44.001 -20.499l68 -22v-59h-498v59l84 32l-231 382l-88 -64v-261c0 -15.333 4 -27.166 12 -35.499
s19 -15.5 33 -21.5l76 -32v-59h-532v59z" />
    <glyph glyph-name="f_f_k.liga" unicode="ffk" horiz-adv-x="2526" 
d="M41 59l101.001 32c13.333 4 24.166 10.833 32.499 20.5s12.5 21.834 12.5 36.501v707h-181l27 108h155c0 90.667 11.833 171 35.5 241s56.334 129 98.001 177s90.834 84.333 147.501 109s118.334 37 185.001 37c12 0 26.667 -0.833008 44 -2.5
s35.333 -4.33398 54 -8.00098s37 -8 55 -13s33 -10.833 45 -17.5l-45 -193h-29c-17.333 9.33301 -36.5 19 -57.5 29s-42.5 19 -64.5 27s-43.333 14.667 -64 20s-39.334 8 -56.001 8c-17.333 0 -31.333 -3.83301 -42 -11.5s-18.334 -21.167 -23.001 -40.5
c-8 -34 -13 -80.333 -15 -139s-3.33301 -133 -4 -223h271l-32 -108h-236v-707c0 -15.333 4.16699 -27.833 12.5 -37.5s19.166 -16.167 32.499 -19.5l119 -32v-59h-578v59zM1429 59l98.001 31.998c30 10.667 45 29.667 45 57v1132c0 16 -3.83301 28 -11.5 36
s-20.834 15.667 -39.501 23l-11 -46h-29c-17.333 9.33301 -36.5 19 -57.5 29s-42.5 19 -64.5 27s-43.333 14.667 -64 20s-39.334 8 -56.001 8c-17.333 0 -31.333 -3.83301 -42 -11.5s-18.334 -21.167 -23.001 -40.5c-8 -34 -13 -80.333 -15 -139s-3.33301 -133 -4 -223h271
l-32 -108h-236v-707c0 -15.333 4.16699 -27.833 12.5 -37.5s19.166 -16.167 32.499 -19.5l119 -32v-59h-578v59l101 32c13.333 4 24.166 10.833 32.499 20.5s12.5 21.834 12.5 36.501v707h-181l27 108h155c0 90.667 11.833 171 35.5 241s56.334 129 98.001 177
s90.834 84.333 147.501 109s118.334 37 185.001 37c12 0 26.667 -0.833008 44 -2.5s35.333 -4.33398 54 -8.00098s37 -8 55 -13s33 -10.833 45 -17.5l-9 -36l294 61v-1024l362 379l-116 44v59h410v-59l-108 -34c-14 -4.66699 -28.167 -12.167 -42.5 -22.5
s-26.166 -19.833 -35.5 -28.5l-203 -190l323 -503c8 -12 18.333 -22.167 31 -30.5s27.334 -15.166 44.001 -20.499l68 -22v-59h-498v59l84 32l-231 382l-88 -64v-261c0 -15.333 4 -27.166 12 -35.499s19 -15.5 33 -21.5l76 -32v-59h-532v59z" />
    <glyph glyph-name=".notdef" horiz-adv-x="1024" 
d="M128 0v1586h768v-1586h-768zM256 128h512v1330h-512v-1330z" />
    <glyph glyph-name="glyph1" 
 />
    <glyph glyph-name="glyph1" 
 />
    <glyph glyph-name="uni000D" unicode="&#xd;" 
 />
    <glyph glyph-name="space" unicode=" " horiz-adv-x="512" 
 />
    <glyph glyph-name="space" unicode="&#xa0;" horiz-adv-x="512" 
 />
    <glyph glyph-name="exclam" unicode="!" horiz-adv-x="739" 
d="M197 1354v24h341v-24l-119 -913h-103zM368 -23c-24 0 -46.333 4.5 -67 13.5s-38.667 21.167 -54 36.5s-27.333 33.166 -36 53.499s-13 41.833 -13 64.5c0 23.333 4.33301 45.166 13 65.499s20.667 38.166 36 53.499s33.333 27.333 54 36s43 13 67 13
c22.667 0 44.167 -4.33301 64.5 -13s38.166 -20.667 53.499 -36s27.333 -33.166 36 -53.499s13 -42.166 13 -65.499s-4.33301 -45.166 -13 -65.499s-20.667 -38 -36 -53s-33.166 -27 -53.499 -36s-41.833 -13.5 -64.5 -13.5z" />
    <glyph glyph-name="quotedbl" unicode="&#x22;" horiz-adv-x="955" 
d="M527 1437v28h305v-27l-109 -601h-86zM123 1437v28h305v-27l-109 -601h-86z" />
    <glyph glyph-name="numbersign" unicode="#" horiz-adv-x="1354" 
d="M369 346h-183v152h228l61 213h-230v152h273l94 324h121l-93 -324h225l93 324h120l-92 -324h183v-152h-228l-60 -213h229v-152h-274l-96 -332h-120l96 332h-227l-94 -332h-122zM762 496l63 217h-232l-63 -217h232z" />
    <glyph glyph-name="dollar" unicode="$" horiz-adv-x="1195" 
d="M585 -12c-7.33301 -0.666992 -14.6729 -1.00293 -22.0059 -1.00293h-22c-49.333 0 -95 3.33301 -137 10s-80.167 15 -114.5 25s-65.166 21 -92.499 33s-51.333 23.333 -72 34l42 206h35c11.333 -9.33301 26.333 -20.166 45 -32.499s39.334 -25.166 62.001 -38.499
s46.5 -26.666 71.5 -39.999s49.833 -25.166 74.5 -35.499s48.167 -18.833 70.5 -25.5s42.166 -10.334 59.499 -11.001v308c-30 6 -58.333 12 -85 18s-51.667 12 -75 18c-42 11.333 -79.333 26.333 -112 45s-60.167 40 -82.5 64s-39.333 50.333 -51 79
s-17.5 58.334 -17.5 89.001c0 40.667 10.5 78.167 31.5 112.5s50.167 64.666 87.5 90.999s81.833 48.166 133.5 65.499s108.5 29 170.5 35v144h99v-139c44.667 -0.666992 87 -5 127 -13s76.333 -17.333 109 -28s61.5 -21.5 86.5 -32.5s45.167 -20.167 60.5 -27.5l-42 -206
h-34c-14 11.333 -33.667 26 -59 44s-52.5 36.167 -81.5 54.5s-58.167 35 -87.5 50s-55.666 25.167 -78.999 30.5v-284l31.5 -6c10.333 -2 20.833 -4.16699 31.5 -6.5s22 -4.66602 34 -6.99902l38 -7.5c52.667 -10 97.334 -23.167 134.001 -39.5s66.334 -35.5 89.001 -57.5
s39.167 -46.667 49.5 -74s15.5 -57.333 15.5 -90c0 -47.333 -11.333 -89.833 -34 -127.5s-53.167 -70.5 -91.5 -98.5s-83.166 -51.667 -134.499 -71s-105.666 -34.333 -162.999 -45v-251h-99v239zM584.993 910.997c-48 -6 -86.001 -18.167 -114.001 -36.5
s-42 -45.166 -42 -80.499c0 -22 3.83301 -41 11.5 -57s18.334 -29.667 32.001 -41s30 -20.833 49 -28.5s40.167 -13.834 63.5 -18.501v262zM683.992 120.997c30 4 54.832 10.668 74.499 20.001s35.5 20.5 47.5 33.5s20.5 27.333 25.5 43s7.5 32.5 7.5 50.5
c0 20 -3.66699 37.167 -11 51.5s-17.666 26.666 -30.999 36.999s-29.5 19 -48.5 26s-40.5 13.167 -64.5 18.5v-280z" />
    <glyph glyph-name="percent" unicode="%" horiz-adv-x="2056" 
d="M459 479c-64.667 0 -121.331 11.333 -169.998 34s-89.334 55 -122.001 97s-57.167 92.5 -73.5 151.5s-24.5 125.167 -24.5 198.5c0 67.333 8 130.666 24 189.999s40.167 111.166 72.5 155.499s73 79.333 122 105s106.167 38.5 171.5 38.5
c69.333 0 128.666 -13.167 177.999 -39.5s89.833 -61.666 121.5 -105.999s54.834 -96.166 69.501 -155.499s22 -122 22 -188c0 -80.667 -9.5 -151 -28.5 -211s-45.833 -110 -80.5 -150s-75.834 -70 -123.501 -90s-100.5 -30 -158.5 -30zM459.003 562
c57.333 0 99.667 31.999 127 95.999s41 164.667 41 302c0 62.667 -3 119.167 -9 169.5s-15.833 93 -29.5 128s-31 61.833 -52 80.5s-46.5 28 -76.5 28s-55.667 -9.16699 -77 -27.5s-38.833 -44.833 -52.5 -79.5s-23.5 -77.167 -29.5 -127.5s-9 -107.5 -9 -171.5
c0 -62 3 -117.5 9 -166.5s15.5 -90.667 28.5 -125s30.167 -60.666 51.5 -78.999s47.333 -27.5 78 -27.5zM1404 1440h133l-872 -1540h-134zM1596 -117.001c-64.667 0 -121.331 11.333 -169.998 34s-89.334 55 -122.001 97s-57.167 92.5 -73.5 151.5
s-24.5 125.167 -24.5 198.5c0 67.333 8 130.666 24 189.999s40.167 111.166 72.5 155.499s73 79.333 122 105s106.167 38.5 171.5 38.5c69.333 0 128.666 -13.167 177.999 -39.5s89.833 -61.666 121.5 -105.999s54.834 -96.166 69.501 -155.499s22 -122 22 -188
c0 -80.667 -9.5 -151 -28.5 -211s-45.833 -110 -80.5 -150s-75.834 -70 -123.501 -90s-100.5 -30 -158.5 -30zM1596.01 -34.001c57.333 0 99.667 31.999 127 95.999s41 164.667 41 302c0 62.667 -3 119.167 -9 169.5s-15.833 93 -29.5 128s-31 61.833 -52 80.5
s-46.5 28 -76.5 28s-55.667 -9.16699 -77 -27.5s-38.833 -44.833 -52.5 -79.5s-23.5 -77.167 -29.5 -127.5s-9 -107.5 -9 -171.5c0 -62 3 -117.5 9 -166.5s15.5 -90.667 28.5 -125s30.167 -60.666 51.5 -78.999s47.333 -27.5 78 -27.5z" />
    <glyph glyph-name="ampersand" unicode="&#x26;" horiz-adv-x="1509" 
d="M479 -31c-55.333 0 -108.165 8.66895 -158.498 26.002s-94.5 42 -132.5 74s-68.167 70.833 -90.5 116.5s-33.5 97.167 -33.5 154.5c0 22 2.66699 45.5 8 70.5s12.666 49.833 21.999 74.5s20.333 48.334 33 71.001s26.667 43 42 61l209 131
c-42 40 -75.667 74.833 -101 104.5s-44.833 57 -58.5 82s-22.5 49.333 -26.5 73s-6 49.167 -6 76.5c0 48 12.833 92 38.5 132s59.5 74.167 101.5 102.5s89.833 50.5 143.5 66.5s108.5 24 164.5 24c62 0 118 -7 168 -21s92.5 -33.5 127.5 -58.5s62 -55.167 81 -90.5
s28.5 -74 28.5 -116c0 -48.667 -8.16699 -93 -24.5 -133s-37.166 -75.333 -62.499 -106l-248 -130l341 -338c15.333 23.333 29.5 48.166 42.5 74.499s24.333 51.833 34 76.5s17.667 47.5 24 68.5s10.5 37.5 12.5 49.5l-181 52v61h516v-61l-119 -35
c-13.333 -4 -24.666 -12.833 -33.999 -26.5s-17.333 -26.834 -24 -39.501c-16 -32 -31.833 -60.833 -47.5 -86.5s-31.5 -49.834 -47.5 -72.501s-32.333 -44.667 -49 -66l-52 -68l160 -159c6.66699 -6.66699 14.667 -14 24 -22s19 -15.833 29 -23.5s20 -14.5 30 -20.5
s18.667 -10.333 26 -13l136 -44v-61h-293c-30.667 0 -55.834 1.66699 -75.501 5s-37.5 9.5 -53.5 18.5s-32.333 21.333 -49 37s-37.334 36.167 -62.001 61.5l-50 51c-36.667 -36 -73.334 -66.833 -110.001 -92.5s-74 -46.667 -112 -63s-77 -28.5 -117 -36.5
s-81.333 -12 -124 -12zM633.001 828.002c33.333 20 60.333 41.3311 81 63.998s36.5 46.5 47.5 71.5s18.333 51 22 78s5.5 54.833 5.5 83.5c0 28 -3.66699 53.167 -11 75.5s-17.833 41.333 -31.5 57s-30.167 27.5 -49.5 35.5s-41 12 -65 12
c-23.333 0 -45.333 -4.83301 -66 -14.5s-38.834 -22.667 -54.501 -39s-28.167 -35.666 -37.5 -57.999s-14 -46.166 -14 -71.499s2.83301 -49.166 8.5 -71.499s15.334 -45 29.001 -68s31.5 -46.833 53.5 -71.5s49.333 -52.334 82 -83.001zM571.001 145
c32.667 0 62 1.50195 88 4.50195s50.5 8.33301 73.5 16s45.5 18 67.5 31s45.333 29.167 70 48.5l-427 435c-22 -17.333 -39.5 -36.833 -52.5 -58.5s-22.667 -44.834 -29 -69.501s-10.5 -50.834 -12.5 -78.501s-3 -56.167 -3 -85.5c0 -28.667 5 -57.5 15 -86.5
s24.667 -55 44 -78s42.833 -41.833 70.5 -56.5s59.5 -22 95.5 -22z" />
    <glyph glyph-name="quotesingle" unicode="'" horiz-adv-x="550" 
d="M123 1437v28h305v-27l-109 -601h-86z" />
    <glyph glyph-name="parenleft" unicode="(" horiz-adv-x="831" 
d="M769 -340c-100 12 -190 40.501 -270 85.501s-148.333 105.667 -205 182s-100.167 167.666 -130.5 273.999s-45.5 226.833 -45.5 361.5c0 134 14.833 254.5 44.5 361.5s72.5 199.333 128.5 277s124.333 139.834 205 186.501s171.667 77 273 91v-95
c-68 -14 -126.167 -43.167 -174.5 -87.5s-88 -101.833 -119 -172.5s-53.667 -153.5 -68 -248.5s-21.5 -199.833 -21.5 -314.5c0 -114 7.5 -217.833 22.5 -311.5s38.167 -175.334 69.5 -245.001s71 -126 119 -169s105.333 -70.833 172 -83.5v-92z" />
    <glyph glyph-name="parenright" unicode=")" horiz-adv-x="831" 
d="M61 -248c66.667 12.667 124 40.499 172 83.499s87.667 99.333 119 169s54.5 151.334 69.5 245.001s22.5 197.5 22.5 311.5c0 114.667 -7.16699 219.5 -21.5 314.5s-37 177.833 -68 248.5s-70.667 128.167 -119 172.5s-106.5 73.5 -174.5 87.5v95
c101.333 -14 192.333 -44.333 273 -91s149 -108.834 205 -186.501s98.833 -170 128.5 -277s44.5 -227.5 44.5 -361.5c0 -134.667 -15.167 -255.167 -45.5 -361.5s-73.833 -197.666 -130.5 -273.999s-125 -137 -205 -182s-170 -73.5 -270 -85.5v92z" />
    <glyph glyph-name="asterisk" unicode="*" horiz-adv-x="968" 
d="M203 871l9 9l195 197l-4 12l-273 41l-13 4l54 168l13 -4l247 -126l9 7l-45 274v12h176v-12l-43 -274l9 -7l247 126l13 6l54 -169l-13 -3l-273 -43l-3 -12l197 -195l8 -11l-143 -102l-8 9l-126 248h-11l-125 -248l-8 -10z" />
    <glyph glyph-name="plus" unicode="+" horiz-adv-x="1354" 
d="M603 478h-414v147h414v413h149v-413h414v-147h-414v-414h-149v414z" />
    <glyph glyph-name="comma" unicode="," horiz-adv-x="568" 
d="M75 -297c36 25.333 66.8291 50.6689 92.4961 76.002s47.334 50 65.001 74s31.5 47.333 41.5 70s17 44 21 64c-36 14 -65.667 27.333 -89 40s-41.833 26 -55.5 40s-23.334 29.333 -29.001 46s-8.5 36 -8.5 58c0 14.667 3.33301 30.334 10 47.001
s16.334 32.167 29.001 46.5s28.5 26.166 47.5 35.499s40.5 14 64.5 14c34.667 0 64.334 -5.83301 89.001 -17.5s44.834 -28 60.501 -49s27.167 -45.833 34.5 -74.5s11 -60 11 -94c0 -32.667 -5.16699 -64.334 -15.5 -95.001s-24.166 -59.667 -41.499 -87
s-37.333 -53.333 -60 -78s-46.667 -47.834 -72 -69.501s-50.833 -41.667 -76.5 -60s-50.167 -34.833 -73.5 -49.5z" />
    <glyph glyph-name="hyphen" unicode="-" horiz-adv-x="705" 
d="M78 627h553v-183h-553v183z" />
    <glyph glyph-name="hyphen" unicode="&#x2010;" horiz-adv-x="705" 
d="M78 627h553v-183h-553v183z" />
    <glyph glyph-name="hyphen" unicode="&#xad;" horiz-adv-x="705" 
d="M78 627h553v-183h-553v183z" />
    <glyph glyph-name="period" unicode="." horiz-adv-x="568" 
d="M285 -23c-23.333 0 -45.333 4.5 -66 13.5s-38.667 21.167 -54 36.5s-27.5 33.166 -36.5 53.499s-13.5 41.833 -13.5 64.5c0 23.333 4.5 45.166 13.5 65.499s21.167 38.166 36.5 53.499s33.333 27.333 54 36s42.667 13 66 13c22.667 0 44.334 -4.33301 65.001 -13
s38.5 -20.667 53.5 -36s27 -33.166 36 -53.499s13.5 -42.166 13.5 -65.499s-4.5 -45.166 -13.5 -65.499s-21 -38 -36 -53s-32.833 -27 -53.5 -36s-42.334 -13.5 -65.001 -13.5z" />
    <glyph glyph-name="slash" unicode="/" horiz-adv-x="912" 
d="M663 1491h156l-678 -1905h-149z" />
    <glyph glyph-name="zero" unicode="0" horiz-adv-x="1208" 
d="M598 -29c-80.667 0 -153.829 12.498 -219.496 37.498s-121.834 60.5 -168.501 106.5s-82.667 101.333 -108 166s-38 136.667 -38 216c0 73.333 12.5 142.166 37.5 206.499s61 120.333 108 168s104.167 85.334 171.5 113.001s143.666 41.5 228.999 41.5
c91.333 0 170.5 -14.667 237.5 -44s122.5 -68.166 166.5 -116.499s76.667 -104.166 98 -167.499s32 -129 32 -197c0 -72.667 -12.333 -141.167 -37 -205.5s-60.334 -120.5 -107.001 -168.5s-103.834 -86 -171.501 -114s-144.5 -42 -230.5 -42zM613.005 75.998
c46.667 0 85.166 13.0029 115.499 39.0029s54.333 59 72 99s30 83.667 37 131s10.5 92.666 10.5 135.999c0 52.667 -4.5 105.167 -13.5 157.5s-23.5 99.5 -43.5 141.5s-46 76 -78 102s-71 39 -117 39c-30.667 0 -57.834 -6 -81.501 -18s-44.167 -28.167 -61.5 -48.5
s-31.833 -43.833 -43.5 -70.5s-21.167 -55 -28.5 -85s-12.5 -60.667 -15.5 -92s-4.5 -61.333 -4.5 -90c0 -31.333 1.66699 -63.833 5 -97.5s8.83301 -66.834 16.5 -99.501s17.834 -63.834 30.501 -93.501s28.334 -55.667 47.001 -78s40.667 -40 66 -53
s54.333 -19.5 87 -19.5z" />
    <glyph glyph-name="one" unicode="1" horiz-adv-x="834" 
d="M104 59l170 37c14 3.33301 24.667 10 32 20s11 22.333 11 37v552l2 135v0l-252 -58v59l367 179h165c-1.33301 -21.333 -2.5 -45.5 -3.5 -72.5s-1.83301 -54.833 -2.5 -83.5s-1.16699 -57.167 -1.5 -85.5s-0.5 -53.833 -0.5 -76.5v-549
c0 -15.333 3.83301 -27.833 11.5 -37.5s18.167 -16.167 31.5 -19.5l158 -37v-59h-688v59z" />
    <glyph glyph-name="two" unicode="2" horiz-adv-x="1142" 
d="M108 136l254.501 185.498c71 53 129.333 101.667 175 146s79.167 87.333 100.5 129s32 86.5 32 134.5c0 24.667 -2.83301 48.334 -8.5 71.001s-14.5 42.667 -26.5 60s-26.833 31.333 -44.5 42s-38.5 16 -62.5 16c-22 0 -43.833 -2.66699 -65.5 -8
s-42.834 -12.833 -63.501 -22.5s-41.167 -20.834 -61.5 -33.501s-40.333 -26.334 -60 -41.001s-39 -30 -58 -46l-55.5 -47h-36l-42 200c18 10 41.667 22.167 71 36.5s62.833 28 100.5 41s78.834 24.167 123.501 33.5s91.667 14 141 14c55.333 0 109.5 -5.5 162.5 -16.5
s100 -28.167 141 -51.5s74 -53.166 99 -89.499s37.5 -79.5 37.5 -129.5c0 -44 -6 -84 -18 -120s-29.833 -69.333 -53.5 -100s-52.834 -59.167 -87.501 -85.5s-74.5 -52.166 -119.5 -77.499s-95.167 -50.666 -150.5 -75.999l-180 -81v0l147 2h369
c22.667 0 39.5 5.66699 50.5 17s19.167 24 24.5 38l41 108h68l-26 -385h-919v136z" />
    <glyph glyph-name="three" unicode="3" horiz-adv-x="1124" 
d="M464 -402c-51.333 0 -98.6699 3.33496 -142.003 10.002s-82.833 15 -118.5 25s-67.334 21 -95.001 33s-51.834 23.333 -72.501 34l42 206h36c10.667 -8 25.334 -18.167 44.001 -30.5s39.334 -25.166 62.001 -38.499s47 -26.666 73 -39.999s51.667 -25.333 77 -36
s49.666 -19.334 72.999 -26.001s44 -10 62 -10c42.667 0 79.334 6 110.001 18s55.667 30 75 54s33.666 53.833 42.999 89.5s14 77.5 14 125.5c0 38 -5.5 73.167 -16.5 105.5s-28.5 60.5 -52.5 84.5s-55.167 42.667 -93.5 56s-84.833 20 -139.5 20h-127v142h102
c88.667 0 157.334 21.167 206.001 63.5s73 109.166 73 200.499c0 31.333 -2.66699 60.166 -8 86.499s-14.166 49 -26.499 68s-28.5 33.833 -48.5 44.5s-44.667 16 -74 16c-27.333 0 -57.666 -6.83301 -90.999 -20.5s-66.5 -30.167 -99.5 -49.5s-64 -39.166 -93 -59.499
l-71.5 -50.5h-36l-42 206l61 28c25.333 11.333 55 22.5 89 33.5s71.833 20.333 113.5 28s86.5 11.5 134.5 11.5c66 0 128.333 -6.83301 187 -20.5s110 -33.834 154 -60.501s78.833 -59.334 104.5 -98.001s38.5 -83 38.5 -133c0 -31.333 -5.5 -64.166 -16.5 -98.499
s-30.333 -67.5 -58 -99.5s-65.5 -61.833 -113.5 -89.5s-109 -50.5 -183 -68.5v0c38 -2 74.833 -6.5 110.5 -13.5s69 -16.833 100 -29.5s59.167 -28.334 84.5 -47.001s47.166 -40.5 65.499 -65.5s32.5 -53.167 42.5 -84.5s15 -66 15 -104c0 -41.333 -7 -80.333 -21 -117
s-33.667 -70.5 -59 -101.5s-55.666 -58.667 -90.999 -83s-74.166 -45 -116.499 -62s-87.833 -30 -136.5 -39s-98.667 -13.5 -150 -13.5z" />
    <glyph glyph-name="four" unicode="4" horiz-adv-x="1182" 
d="M484 -314l108 37c14.667 5.33301 25.5 12.5 32.5 21.5s10.5 20.833 10.5 35.5v234h-596v149l686 853h182v-854h229v-148h-229v-234c0 -15.333 3.66699 -27.333 11 -36s18 -15.667 32 -21l96 -37v-59h-562v59zM303 162h332v393l2 168v0l-453 -564v0z" />
    <glyph glyph-name="five" unicode="5" horiz-adv-x="1071" 
d="M437 -402c-56.667 0 -106.833 3.83496 -150.5 11.502s-82.167 17 -115.5 28s-61.833 22.167 -85.5 33.5l-60.5 29l40 206h36c15.333 -12.667 37.166 -29.334 65.499 -50.001s59.666 -40.834 93.999 -60.501s70 -36.667 107 -51s72.5 -21.5 106.5 -21.5
c40 0 75 6.33301 105 19s55 31.334 75 56.001s35 55 45 91s15 77.333 15 124c0 54.667 -9 101.667 -27 141s-43.167 71.666 -75.5 96.999s-70.833 44 -115.5 56s-93.334 18 -146.001 18c-19.333 0 -38.166 -1.16699 -56.499 -3.5s-35.666 -5.5 -51.999 -9.5
s-31.833 -8.5 -46.5 -13.5s-27.334 -9.83301 -38.001 -14.5l-37 9l72 700h745v-226h-650l-30 -293c18.667 6.66699 38 12.167 58 16.5s39.667 7.66602 59 9.99902s37.666 3.83301 54.999 4.5s33 1 47 1c64.667 0 128.334 -8.16699 191.001 -24.5s118.334 -42 167.001 -77
s88 -79.667 118 -134s45 -119.833 45 -196.5c0 -69.333 -14.5 -133.166 -43.5 -191.499s-68.667 -108.5 -119 -150.5s-109.666 -74.833 -177.999 -98.5s-141.5 -35.5 -219.5 -35.5z" />
    <glyph glyph-name="six" unicode="6" horiz-adv-x="1155" 
d="M583 -29c-82 0 -154.5 14.6719 -217.5 44.0049s-115.667 70.666 -158 123.999s-74.5 117.833 -96.5 193.5s-33 159.5 -33 251.5c0 79.333 6.16699 152.166 18.5 218.499s30.166 126.666 53.499 180.999s51.5 103.166 84.5 146.499s70.167 82 111.5 116
c26 22 53.833 42.333 83.5 61s61.167 34.834 94.5 48.501s68.333 24.334 105 32.001s75 11.5 115 11.5c36.667 0 69.334 -1.66699 98.001 -5s54.5 -7.83301 77.5 -13.5s43.667 -11.667 62 -18l51.5 -18.5l-42 -206h-36l-61 34c-24 13.333 -50.833 26.166 -80.5 38.499
s-61.167 22.833 -94.5 31.5s-67.666 13 -102.999 13c-30 0 -56 -6.66699 -78 -20s-41.333 -30.666 -58 -51.999c-8.66699 -11.333 -17.667 -26.333 -27 -45s-18.833 -43.834 -28.5 -75.501s-18.834 -70.667 -27.501 -117s-17 -102.833 -25 -169.5
c-0.666992 -4 -1.5 -10 -2.5 -18l-3 -25c-1 -8.66699 -1.83301 -17.167 -2.5 -25.5s-1.33398 -14.5 -2.00098 -18.5v0c28.667 38.667 57.834 70 87.501 94s59 42.667 88 56s57.5 22.166 85.5 26.499s55 6.5 81 6.5c50 0 98.5 -10 145.5 -30s88.5 -48.5 124.5 -85.5
s64.833 -81.833 86.5 -134.5s32.5 -111.334 32.5 -176.001c0 -66 -13.167 -127.833 -39.5 -185.5s-62.5 -108 -108.5 -151s-100 -76.833 -162 -101.5s-128.667 -37 -200 -37zM599 76.0049c33.333 0 62.8301 7.16699 88.4971 21.5s47.167 35.333 64.5 63
s30.5 61.834 39.5 102.501s13.5 87 13.5 139c0 104 -19 181.833 -57 233.5s-93 77.5 -165 77.5c-16.667 0 -34.5 -1.5 -53.5 -4.5s-38.167 -8.16699 -57.5 -15.5s-38.166 -17.333 -56.499 -30s-35.166 -29 -50.499 -49c-1.33301 -17.333 -2.33301 -36.333 -3 -57
s-1 -41.334 -1 -62.001c0 -70.667 6.66699 -132.167 20 -184.5s31 -95.833 53 -130.5s47.333 -60.667 76 -78s58.334 -26 89.001 -26z" />
    <glyph glyph-name="seven" unicode="7" horiz-adv-x="1040" 
d="M851 772l-117.999 -3h-468c-16.667 0 -30.834 -4.5 -42.501 -13.5s-20.167 -22.833 -25.5 -41.5l-51 -180h-63v459h952v-113l-623 -1294h-209z" />
    <glyph glyph-name="eight" unicode="8" horiz-adv-x="1229" 
d="M595 -31c-78.667 0 -149.003 9.3291 -211.003 27.9961s-114.5 44.167 -157.5 76.5s-75.833 70 -98.5 113s-34 89.167 -34 138.5c0 42 7.33301 80.333 22 115s35.834 66 63.501 94s61.334 52.833 101.001 74.5s84.5 40.834 134.5 57.501
c-44.667 22.667 -83.667 46.5 -117 71.5s-61.166 51.667 -83.499 80s-39 58.5 -50 90.5s-16.5 67 -16.5 105c0 52.667 12 102.5 36 149.5s57.667 88.167 101 123.5s94.833 63.333 154.5 84s125.167 31 196.5 31c68.667 0 131 -8.33301 187 -25s103.667 -39.667 143 -69
s69.666 -63.833 90.999 -103.5s32 -82.5 32 -128.5c0 -37.333 -5.33301 -71.5 -16 -102.5s-27 -59.833 -49 -86.5s-49.333 -51 -82 -73s-71 -42 -115 -60c50.667 -20 95.334 -42.167 134.001 -66.5s70.667 -51.5 96 -81.5s44.5 -63.167 57.5 -99.5
s19.5 -76.166 19.5 -119.499c0 -55.333 -13 -108.166 -39 -158.499s-62.667 -94.666 -110 -132.999s-104 -68.833 -170 -91.5s-139.333 -34 -220 -34zM748.997 785.996c11.333 18 21.002 35.8311 29.002 53.498s14.667 36.834 20 57.501s9.16602 43.834 11.499 69.501
s3.5 55.834 3.5 90.501c0 32.667 -4 63.5 -12 92.5s-20 54.333 -36 76s-36 38.834 -60 51.501s-52.333 19 -85 19c-29.333 0 -56 -5.16699 -80 -15.5s-44.5 -24.833 -61.5 -43.5s-30.333 -41.334 -40 -68.001s-14.5 -56.334 -14.5 -89.001c0 -34.667 5.66699 -65 17 -91
s29.666 -50 54.999 -72s58.833 -43.333 100.5 -64s92.5 -43 152.5 -67zM615.999 73.9941c38 0 71.835 6 101.502 18s55 28.833 76 50.5s37 47.667 48 78s16.5 64.166 16.5 101.499c0 38 -7.16699 71 -21.5 99s-36.5 53.5 -66.5 76.5s-68 45.167 -114 66.5
s-100.333 44.333 -163 69c-38.667 -36.667 -68.334 -77.5 -89.001 -122.5s-31 -97.833 -31 -158.5c0 -42 5.66699 -80 17 -114s27.666 -63.167 48.999 -87.5s46.833 -43.166 76.5 -56.499s63.167 -20 100.5 -20z" />
    <glyph glyph-name="nine" unicode="9" horiz-adv-x="1155" 
d="M409 -402c-37.333 0 -70.334 1.66895 -99.001 5.00195s-54.334 7.83301 -77.001 13.5s-43.167 11.667 -61.5 18l-51.5 18.5l42 206h36l61 -34c24 -13.333 50.833 -26.166 80.5 -38.499s61.167 -22.833 94.5 -31.5s67.666 -13 102.999 -13c30 0 56 6.66699 78 20
s41.333 30.666 58 51.999c8.66699 11.333 17.834 26.333 27.501 45s19.5 44 29.5 76s19.667 72 29 120s18 106.667 26 176c0 3.33301 0.5 8.5 1.5 15.5s1.83301 14.5 2.5 22.5s1.5 15.667 2.5 23s1.5 12.666 1.5 15.999v0c-28.667 -39.333 -57.667 -71 -87 -95
s-58.666 -42.5 -87.999 -55.5s-58 -21.667 -86 -26s-55 -6.5 -81 -6.5c-50 0 -98.333 10 -145 30s-88 48.5 -124 85.5s-64.667 81.667 -86 134s-32 111.166 -32 176.499c0 66 13.167 127.833 39.5 185.5s62.5 108 108.5 151s100 76.833 162 101.5s128.667 37 200 37
c82 0 154.333 -14.667 217 -44s115.167 -70.666 157.5 -123.999s74.333 -117.833 96 -193.5s32.5 -159.5 32.5 -251.5c0 -80 -6.5 -153 -19.5 -219s-31.167 -126.167 -54.5 -180.5s-51.666 -103.166 -84.999 -146.499s-70.333 -82 -111 -116
c-26 -22 -53.833 -42.333 -83.5 -61s-61.167 -34.834 -94.5 -48.501s-68.333 -24.334 -105 -32.001s-75 -11.5 -115 -11.5zM571.999 284.002c16.667 0 34.501 1.49902 53.501 4.49902s38.167 8.16699 57.5 15.5s38.166 17.333 56.499 30s35.166 29 50.499 49
c0.666992 8.66699 1.33398 17.834 2.00098 27.501s1.16699 19.5 1.5 29.5s0.5 20.333 0.5 31v31c0 70.667 -6.5 132.167 -19.5 184.5s-30.5 95.833 -52.5 130.5s-47.167 60.667 -75.5 78s-57.833 26 -88.5 26c-66.667 0 -117.667 -28 -153 -84s-53 -136.667 -53 -242
c0 -104 18.667 -181.833 56 -233.5s92 -77.5 164 -77.5z" />
    <glyph glyph-name="colon" unicode=":" horiz-adv-x="662" 
d="M329 637c-23.333 0 -45.166 4.33301 -65.499 13s-38.166 20.667 -53.499 36s-27.333 33.333 -36 54s-13 43 -13 67c0 22.667 4.33301 44.167 13 64.5s20.667 38 36 53s33.166 26.833 53.499 35.5s42.166 13 65.499 13s45.333 -4.33301 66 -13s38.667 -20.5 54 -35.5
s27.5 -32.667 36.5 -53s13.5 -41.833 13.5 -64.5c0 -24 -4.5 -46.333 -13.5 -67s-21.167 -38.667 -36.5 -54s-33.333 -27.333 -54 -36s-42.667 -13 -66 -13zM329 -23c-23.333 0 -45.166 4.5 -65.499 13.5s-38.166 21 -53.499 36s-27.333 32.667 -36 53
s-13 42.166 -13 65.499c0 24 4.33301 46.167 13 66.5s20.667 38 36 53s33.166 26.833 53.499 35.5s42.166 13 65.499 13s45.333 -4.33301 66 -13s38.667 -20.5 54 -35.5s27.5 -32.667 36.5 -53s13.5 -42.5 13.5 -66.5c0 -22.667 -4.5 -44.167 -13.5 -64.5
s-21.167 -38.166 -36.5 -53.499s-33.333 -27.5 -54 -36.5s-42.667 -13.5 -66 -13.5z" />
    <glyph glyph-name="semicolon" unicode=";" horiz-adv-x="662" 
d="M329 637c-23.333 0 -45.166 4.33301 -65.499 13s-38.166 20.667 -53.499 36s-27.333 33.333 -36 54s-13 43 -13 67c0 22.667 4.33301 44.167 13 64.5s20.667 38 36 53s33.166 26.833 53.499 35.5s42.166 13 65.499 13s45.333 -4.33301 66 -13s38.667 -20.5 54 -35.5
s27.5 -32.667 36.5 -53s13.5 -41.833 13.5 -64.5c0 -24 -4.5 -46.333 -13.5 -67s-21.167 -38.667 -36.5 -54s-33.333 -27.333 -54 -36s-42.667 -13 -66 -13zM123 -297c36 25.333 66.8291 50.6689 92.4961 76.002s47.334 50 65.001 74s31.5 47.333 41.5 70s17 44 21 64
c-36 14 -65.667 27.333 -89 40s-41.833 26 -55.5 40s-23.334 29.333 -29.001 46s-8.5 36 -8.5 58c0 14.667 3.33301 30.334 10 47.001s16.334 32.167 29.001 46.5s28.5 26.166 47.5 35.499s40.5 14 64.5 14c34.667 0 64.334 -5.83301 89.001 -17.5s44.834 -28 60.501 -49
s27.167 -45.833 34.5 -74.5s11 -60 11 -94c0 -32.667 -5.16699 -64.334 -15.5 -95.001s-24.166 -59.667 -41.499 -87s-37.333 -53.333 -60 -78s-46.667 -47.834 -72 -69.501s-50.833 -41.667 -76.5 -60s-50.167 -34.833 -73.5 -49.5z" />
    <glyph glyph-name="less" unicode="&#x3c;" horiz-adv-x="1354" 
d="M236 477v147l875 456v-172l-700 -356l700 -358v-172z" />
    <glyph glyph-name="equal" unicode="=" horiz-adv-x="1354" 
d="M207 812h940v-147h-940v147zM207 437h940v-147h-940v147z" />
    <glyph glyph-name="greater" unicode="&#x3e;" horiz-adv-x="1354" 
d="M243 194l701 358l-701 356v172l875 -456v-147l-875 -455v172z" />
    <glyph glyph-name="question" unicode="?" horiz-adv-x="1065" 
d="M362 739c26 0.666992 52.1719 3.33301 78.5049 8s51.666 12.167 75.999 22.5s47.166 23.666 68.499 39.999s39.833 36.166 55.5 59.499s28 50.5 37 81.5s13.5 66.5 13.5 106.5c0 39.333 -2.33301 74.333 -7 105s-13 56.334 -25 77.001s-28.333 36.334 -49 47.001
s-47 16 -79 16c-30.667 0 -61.667 -6.16699 -93 -18.5s-62.333 -27.833 -93 -46.5s-60.334 -38.834 -89.001 -60.501l-81 -60.5h-26l-36 203l62 29.5c24.667 11.667 53 22.834 85 33.501s67.167 19.834 105.5 27.501s79.166 11.5 122.499 11.5
c68.667 0 132.167 -8.33301 190.5 -25s108.666 -41.334 150.999 -74.001s75.5 -73 99.5 -121s36 -103.333 36 -166c0 -59.333 -11.667 -113.5 -35 -162.5s-55 -91.5 -95 -127.5s-87 -65 -141 -87s-111.667 -35.333 -173 -40l-51 -199h-108v320zM428.005 -23.001
c-24 0 -46.333 4.5 -67 13.5s-38.667 21.167 -54 36.5s-27.333 33.166 -36 53.499s-13 41.833 -13 64.5c0 23.333 4.33301 45.166 13 65.499s20.667 38.166 36 53.499s33.333 27.333 54 36s43 13 67 13c22.667 0 44.167 -4.33301 64.5 -13s38.166 -20.667 53.499 -36
s27.333 -33.166 36 -53.499s13 -42.166 13 -65.499s-4.33301 -45.166 -13 -65.499s-20.667 -38 -36 -53s-33.166 -27 -53.499 -36s-41.833 -13.5 -64.5 -13.5z" />
    <glyph glyph-name="at" unicode="@" horiz-adv-x="1984" 
d="M936 -389c-110.667 0 -212.5 19.1689 -305.5 57.502s-173.167 92.166 -240.5 161.499s-119.833 152.333 -157.5 249s-56.5 203.667 -56.5 321c0 96 11.167 186.333 33.5 271s53.833 162.667 94.5 234s89.667 135.333 147 192s120.833 104.667 190.5 144
s144.667 69.5 225 90.5s164.166 31.5 251.499 31.5c104 0 199 -15.5 285 -46.5s159.667 -75.667 221 -134s108.833 -129.833 142.5 -214.5s50.5 -181 50.5 -289c0 -64 -6.16699 -122.667 -18.5 -176s-29 -102.333 -50 -147s-45.5 -84.667 -73.5 -120s-58 -67 -90 -95
c-22 -19.333 -45.167 -36 -69.5 -50s-49 -25.667 -74 -35s-49.667 -16.166 -74 -20.499s-47.166 -6.5 -68.499 -6.5c-35.333 0 -65 6.16699 -89 18.5s-43.5 27.166 -58.5 44.499s-25.833 35.166 -32.5 53.499s-10.334 33.5 -11.001 45.5h-9
c-17.333 -31.333 -36.666 -57.333 -57.999 -78s-42.666 -37.167 -63.999 -49.5s-42.166 -21 -62.499 -26s-37.833 -7.5 -52.5 -7.5c-45.333 0 -85.833 8.33301 -121.5 25s-65.834 40.167 -90.501 70.5s-43.5 66.333 -56.5 108s-19.5 87.5 -19.5 137.5
c0 76 11.667 148.667 35 218s56.166 130.333 98.499 183s92.833 94.667 151.5 126s123.667 47 195 47c20 0 38.833 -2.33301 56.5 -7s33.667 -11.334 48 -20.001s27.5 -19.167 39.5 -31.5s22.667 -25.833 32 -40.5l40 93h213l-131 -555c-7.33301 -32 -12 -61.667 -14 -89
s-3 -50 -3 -68c0 -6 1.16699 -12.333 3.5 -19s6.33301 -12.834 12 -18.501s12.834 -10.5 21.501 -14.5s19.334 -6 32.001 -6c46.667 0 87.167 12.833 121.5 38.5s62.5 59.834 84.5 102.501s38.333 91.667 49 147s16 113 16 173c0 113.333 -15.333 210.5 -46 291.5
s-73.334 147.333 -128.001 199s-120 89.5 -196 113.5s-159.333 36 -250 36c-61.333 0 -121.5 -9.16699 -180.5 -27.5s-114.833 -44.666 -167.5 -78.999s-101.167 -76 -145.5 -125s-82.5 -104.167 -114.5 -165.5s-57 -128.166 -75 -200.499s-27 -149.166 -27 -230.499
c0 -126.667 17 -236.5 51 -329.5s80.167 -170 138.5 -231s126.333 -106.333 204 -136s160.5 -44.5 248.5 -44.5c50 0 101.833 4 155.5 12s107.167 20.833 160.5 38.5s105.166 40.667 155.499 69s97.166 63.166 140.499 104.499l53 -82
c-42 -36.667 -88.833 -69.334 -140.5 -98.001s-107.667 -53 -168 -73s-124.666 -35.167 -192.999 -45.5s-139.833 -15.5 -214.5 -15.5zM965 191.002c14 0 26.502 1.16797 37.502 3.50098s21.5 6 31.5 11s19.667 11.667 29 20s19.333 18.833 30 31.5l122 531
c-21.333 9.33301 -43.833 16.166 -67.5 20.499s-43.834 6.5 -60.501 6.5c-32.667 0 -61.667 -6.33301 -87 -19s-47.833 -29.667 -67.5 -51s-36.334 -45.833 -50.001 -73.5s-24.667 -56.667 -33 -87s-14.5 -61 -18.5 -92s-6 -60.167 -6 -87.5c0 -30 2.16699 -58 6.5 -84
s11.833 -48.667 22.5 -68s25 -34.5 43 -45.5s40.667 -16.5 68 -16.5z" />
    <glyph glyph-name="A" unicode="A" horiz-adv-x="1287" 
d="M-73 61l91.999 35.001c28.667 11.333 48.334 31 59.001 59l397 1014l121 230h121l490 -1244c5.33301 -13.333 13.5 -25.333 24.5 -36s22.5 -18.334 34.5 -23.001l92 -35v-61h-602v61l174 43l-150 381h-443l-145 -377l170 -47v-61h-435v61zM736.999 595.001l-131 332
l-51 135v0l-174 -467h356z" />
    <glyph glyph-name="B" unicode="B" horiz-adv-x="1290" 
d="M37 61l126.998 37c14.667 4 26.167 11.167 34.5 21.5s12.5 22.833 12.5 37.5v1064c0 15.333 -4.16699 28.166 -12.5 38.499s-19.833 17.5 -34.5 21.5l-127 36v61h587c106 0 192.667 -8.5 260 -25.5s120.5 -39.667 159.5 -68s65.833 -60.833 80.5 -97.5
s22 -74.667 22 -114c0 -43.333 -7.5 -83.333 -22.5 -120s-36.167 -69.5 -63.5 -98.5s-60.666 -54 -99.999 -75s-83.333 -37.833 -132 -50.5v0c61.333 -4 117 -14.333 167 -31s92.833 -39.167 128.5 -67.5s63.334 -62.166 83.001 -101.499s29.5 -83.333 29.5 -132
c0 -52.667 -8 -99 -24 -139s-37.833 -74.667 -65.5 -104s-60.334 -53.833 -98.001 -73.5s-78.167 -35.5 -121.5 -47.5s-88.666 -20.5 -135.999 -25.5s-94.333 -7.5 -141 -7.5h-613v61zM565.998 760c52 0 95.665 5.33301 130.998 16s63.833 26.167 85.5 46.5
s37.334 45 47.001 74s14.5 62.167 14.5 99.5c0 96.667 -21.167 166.5 -63.5 209.5s-106.166 64.5 -191.499 64.5h-94v-510h71zM665.996 109c86.667 0 151.668 20 195.001 60s65 105.667 65 197c0 53.333 -6 98.5 -18 135.5s-30.5 67 -55.5 90s-56.833 39.667 -95.5 50
s-84.334 15.5 -137.001 15.5h-125v-548h171z" />
    <glyph glyph-name="C" unicode="C" horiz-adv-x="1220" 
d="M703 -29c-100.667 0 -191.667 16.4961 -273 49.4961s-150.666 80.333 -207.999 142s-101.5 136.667 -132.5 225s-46.5 187.833 -46.5 298.5c0 71.333 7.66699 138.666 23 201.999s37.166 121.833 65.499 175.5s62.333 101.667 102 144s84 78.333 133 108
s102 52.334 159 68.001s116.833 23.5 179.5 23.5c32.667 0 69.667 -2.33301 111 -7s82.833 -10.667 124.5 -18s81.334 -15.666 119.001 -24.999s69.167 -18.666 94.5 -27.999v-337h-67l-74 175c-5.33301 11.333 -11.333 20 -18 26s-14.334 11.667 -23.001 17
c-41.333 23.333 -84 41.5 -128 54.5s-90.333 19.5 -139 19.5c-53.333 0 -101.833 -12.333 -145.5 -37s-81 -61 -112 -109s-55 -107.167 -72 -177.5s-25.5 -151.166 -25.5 -242.499c0 -94.667 9.5 -178.667 28.5 -252s47.5 -135.166 85.5 -185.499s85.167 -88.5 141.5 -114.5
s121.5 -39 195.5 -39c48.667 0 91.5 5.5 128.5 16.5s70 24.667 99 41s54.667 34.333 77 54l62.5 55.5h43v-109c-26.667 -23.333 -58.667 -47.5 -96 -72.5s-78.333 -48 -123 -69s-91.5 -38.333 -140.5 -52s-98.5 -20.5 -148.5 -20.5z" />
    <glyph glyph-name="D" unicode="D" horiz-adv-x="1426" 
d="M37 61l127 36.999c14.667 4 26.167 11.167 34.5 21.5s12.5 22.833 12.5 37.5v1064c0 15.333 -4.16699 28.166 -12.5 38.499s-19.833 17.5 -34.5 21.5l-127 36v61h643c46 0 95.5 -4.33301 148.5 -13s105.5 -23.167 157.5 -43.5s102 -47.5 150 -81.5
s90.167 -76.667 126.5 -128s65.5 -112 87.5 -182s33 -151 33 -243c0 -117.333 -18.5 -219.166 -55.5 -305.499s-87.5 -157.666 -151.5 -213.999s-139 -98.333 -225 -126s-177.667 -41.5 -275 -41.5h-639v61zM683 108.999c66.667 0 124.501 12.165 173.501 36.498
s89.833 59.833 122.5 106.5s57 103.834 73 171.501s24 144.834 24 231.501c0 94.667 -10.667 180 -32 256s-51.333 140.5 -90 193.5s-85.334 93.833 -140.001 122.5s-115 43 -181 43h-138v-1161h188z" />
    <glyph glyph-name="E" unicode="E" horiz-adv-x="1270" 
d="M37 61l127 37.001c13.333 4 24.5 11.167 33.5 21.5s13.5 22.833 13.5 37.5v1064c0 15.333 -4.5 28.166 -13.5 38.499s-20.167 17.5 -33.5 21.5l-127 36v61h1106v-358h-70l-81 213c-4 10 -8.83301 18.333 -14.5 25s-14.5 10 -26.5 10h-456v-495h290c13.333 0 23 3 29 9
s10.667 13.667 14 23l67 164h63v-503h-63l-67 162c-4 10 -8.83301 18.333 -14.5 25s-15.167 10 -28.5 10h-290v-552h542c12 0 21 3.16699 27 9.5s10.667 14.833 14 25.5l77 241h70v-387h-1188v61z" />
    <glyph glyph-name="F" unicode="F" horiz-adv-x="1159" 
d="M37 61l127 36.998c12.667 3.33301 23.667 10.333 33 21s14 23.334 14 38.001v1064c0 15.333 -4.5 28.333 -13.5 39s-20.167 17.667 -33.5 21l-127 36v61h1108v-356h-68l-81 211c-3.33301 9.33301 -8 17.5 -14 24.5s-15 10.5 -27 10.5h-460v-510h300
c13.333 0 23 3.16699 29 9.5s10.667 14.166 14 23.499l67 170h61v-515h-61l-67 168c-4 10.667 -8.83301 19.167 -14.5 25.5s-15.167 9.5 -28.5 9.5h-300v-492c0 -15.333 4.5 -28.166 13.5 -38.499s20.5 -17.166 34.5 -20.499l143 -37v-61h-649v61z" />
    <glyph glyph-name="G" unicode="G" horiz-adv-x="1431" 
d="M713 -31c-91.333 0 -177.667 16.1621 -259 48.4951s-152.5 79.333 -213.5 141s-109.167 136.834 -144.5 225.501s-53 189.334 -53 302.001c0 106.667 17.667 204.334 53 293.001s84 164.667 146 228s135.5 112.5 220.5 147.5s177.5 52.5 277.5 52.5
c58.667 0 112.5 -2.16699 161.5 -6.5s93.833 -10.166 134.5 -17.499s77.834 -15.5 111.501 -24.5s64.5 -18.167 92.5 -27.5v-339h-69l-71 179c-4 10 -9.83301 18 -17.5 24s-16.167 11.667 -25.5 17c-21.333 12 -45.833 22.5 -73.5 31.5s-56.334 16.5 -86.001 22.5
s-59.667 10.5 -90 13.5s-58.833 4.5 -85.5 4.5c-47.333 0 -93.166 -11.833 -137.499 -35.5s-84 -59.334 -119 -107.001s-63 -107 -84 -178s-31.5 -153.833 -31.5 -248.5c0 -90 8.16699 -173.333 24.5 -250s40.333 -142.667 72 -198s71 -98.666 118 -129.999
s101.167 -47 162.5 -47c26.667 0 52.5 2.5 77.5 7.5s48 11 69 18s39.667 14.5 56 22.5s29.166 15 38.499 21v302c0 15.333 -4 27.833 -12 37.5s-19.667 16.834 -35 21.501l-139 37v61h642v-61l-127 -37c-14.667 -4 -26.167 -11.167 -34.5 -21.5s-12.5 -22.833 -12.5 -37.5
v-154v-139c0 -38.667 0.666992 -70.667 2 -96c-34 -14 -72.167 -27.167 -114.5 -39.5s-87 -23.333 -134 -33s-95.167 -17.167 -144.5 -22.5s-98 -8 -146 -8z" />
    <glyph glyph-name="H" unicode="H" horiz-adv-x="1557" 
d="M37 61l127 37.0029c13.333 4 24.5 11.167 33.5 21.5s13.5 22.833 13.5 37.5v1064c0 15.333 -4.5 28.166 -13.5 38.499s-20.167 17.5 -33.5 21.5l-127 36v61h632v-61l-126 -36c-13.333 -4 -24.666 -11.333 -33.999 -22s-14 -23.334 -14 -38.001v-448h566v448
c0 15.333 -4.5 28.166 -13.5 38.499s-20.167 17.5 -33.5 21.5l-127 36v61h632v-61l-127 -36c-13.333 -3.33301 -24.5 -10.5 -33.5 -21.5s-13.5 -23.833 -13.5 -38.5v-1064c0 -15.333 4.5 -28 13.5 -38s20.167 -17 33.5 -21l127 -37v-61h-632v61l127 37
c13.333 4 24.5 11.167 33.5 21.5s13.5 22.833 13.5 37.5v504h-566v-504c0 -15.333 4.66699 -28 14 -38s20.666 -17 33.999 -21l126 -37v-61h-632v61z" />
    <glyph glyph-name="I" unicode="I" horiz-adv-x="707" 
d="M37 61l127.001 37c14.667 4 26.167 11.167 34.5 21.5s12.5 22.833 12.5 37.5v1064c0 15.333 -4.66699 28.333 -14 39s-20.333 17.667 -33 21l-127 36v61h632v-61l-126 -36c-12.667 -3.33301 -23.834 -10.5 -33.501 -21.5s-14.5 -23.833 -14.5 -38.5v-1064
c0 -15.333 4.5 -28 13.5 -38s20.5 -17 34.5 -21l126 -37v-61h-632v61z" />
    <glyph glyph-name="J" unicode="J" horiz-adv-x="698" 
d="M7 -399c-12 0 -26.834 1 -44.501 3s-36.167 4.83301 -55.5 8.5s-38.166 8.16699 -56.499 13.5s-34.5 11.666 -48.5 18.999l47 223h35c18 -11.333 38 -23.166 60 -35.499s44.5 -23.5 67.5 -33.5s45.833 -18.333 68.5 -25s43.667 -10 63 -10c15.333 0 28 3.66699 38 11
s17 19.666 21 36.999c4 16.667 7.16699 36.834 9.5 60.501s4.33301 50.834 6 81.501s2.66699 64.667 3 102s0.5 78 0.5 122v1043c0 15.333 -4.5 28.333 -13.5 39s-20.167 17.667 -33.5 21l-139 36v61h645v-61l-127 -36c-13.333 -4 -24.5 -11.333 -33.5 -22
s-13.5 -23.334 -13.5 -38.001v-1049c0 -90 -13.333 -170.333 -40 -241s-62.834 -130.5 -108.501 -179.5s-98.667 -86.333 -159 -112s-124.166 -38.5 -191.499 -38.5z" />
    <glyph glyph-name="K" unicode="K" horiz-adv-x="1408" 
d="M37 61l126.998 37c14 4 25.333 11.167 34 21.5s13 22.833 13 37.5v1064c0 15.333 -4.5 28.166 -13.5 38.499s-20.167 17.5 -33.5 21.5l-127 36v61h632v-61l-126 -36c-12.667 -3.33301 -23.834 -10.5 -33.501 -21.5s-14.5 -23.833 -14.5 -38.5v-544l535 584l-130 56v61
h469v-61l-137 -56c-17.333 -7.33301 -33.666 -16.5 -48.999 -27.5s-31.333 -25.167 -48 -42.5l-368 -375l475 -640c6.66699 -9.33301 13.834 -18.5 21.501 -27.5s15.5 -17.167 23.5 -24.5s16.333 -13.833 25 -19.5s17.667 -9.83398 27 -12.501l104 -31v-61h-626v61l149 39
l-390 532l-81 -87v-388c0 -15.333 4.83301 -28.166 14.5 -38.499s20.834 -17.166 33.501 -20.499l124 -37v-61h-630v61z" />
    <glyph glyph-name="L" unicode="L" horiz-adv-x="1169" 
d="M37 61l126.998 37.001c14.667 4 26.167 11.167 34.5 21.5s12.5 22.833 12.5 37.5v1064c0 15.333 -4.5 28.333 -13.5 39s-20.167 17.667 -33.5 21l-127 36v61h639v-61l-133 -36c-14 -4 -25.5 -11.333 -34.5 -22s-13.5 -23.334 -13.5 -38.001v-1110h480
c6.66699 0 12.334 1.83301 17.001 5.5s8.83398 8.16699 12.501 13.5s6.5 11 8.5 17s3.66699 11.667 5 17l86 264h67v-428h-1134v61z" />
    <glyph glyph-name="M" unicode="M" horiz-adv-x="1800" 
d="M37 61l127 42.999c13.333 4.66699 24.5 12.167 33.5 22.5s13.5 22.5 13.5 36.5v1058c0 15.333 -4.66699 28.333 -14 39s-20.333 17.667 -33 21l-127 36v61h512l281 -779l70 -204v0l355 983h508v-61l-127 -36c-14 -4 -25.333 -11.333 -34 -22s-13 -23.334 -13 -38.001
v-1064c0 -15.333 4.33301 -28 13 -38s20 -17 34 -21l127 -37v-61h-633v61l127 37c14 4 25.333 11.167 34 21.5s13 22.833 13 37.5v1018v0l-61 -184l-276 -762l-104 -229h-105l-358 990l-63 188v0v-1015c0 -15.333 4.33301 -27.666 13 -36.999s20 -16.666 34 -21.999l127 -43
v-61h-474v61z" />
    <glyph glyph-name="N" unicode="N" horiz-adv-x="1487" 
d="M453 931l-106 154.006v0v-922c0 -14.667 4 -26.834 12 -36.501s19.667 -17.167 35 -22.5l127 -43v-61h-484v61l127 43c13.333 4.66699 24.5 12.167 33.5 22.5s13.5 22.5 13.5 36.5v1054c0 15.333 -4.66699 28.166 -14 38.499s-20.333 17.166 -33 20.499l-137 41v61h438
l601 -864l94 -137v0v838c0 15.333 -4 27.666 -12 36.999s-19.667 16.666 -35 21.999l-127 43v61h485v-61l-127 -43c-14 -5.33301 -25.5 -12.833 -34.5 -22.5s-13.5 -21.834 -13.5 -36.501v-986l-30 -239h-158z" />
    <glyph glyph-name="O" unicode="O" horiz-adv-x="1429" 
d="M713 -31c-107.333 0 -202.667 17.8311 -286 53.498s-153.5 85.334 -210.5 149.001s-100.167 139.667 -129.5 228s-44 185.166 -44 290.499c0 100 15.167 193.667 45.5 281s74.333 163.5 132 228.5s128.167 116.167 211.5 153.5s177.666 56 282.999 56
c114.667 0 214 -19.167 298 -57.5s153.5 -90.166 208.5 -155.499s96 -141.5 123 -228.5s40.5 -179.5 40.5 -277.5c0 -58 -5.66699 -116 -17 -174s-28.666 -113.667 -51.999 -167s-53 -103.166 -89 -149.499s-79 -86.5 -129 -120.5s-107 -60.833 -171 -80.5
s-135.333 -29.5 -214 -29.5zM728.999 75.998c58.667 0 109.999 14.999 153.999 44.999s80.5 71.167 109.5 123.5s50.667 114 65 185s21.5 147.5 21.5 229.5c0 94.667 -7.5 181.334 -22.5 260.001s-38.167 146.334 -69.5 203.001s-70.833 100.834 -118.5 132.501
s-104.5 47.5 -170.5 47.5c-62.667 0 -116 -16 -160 -48s-80 -74.833 -108 -128.5s-48.333 -115.334 -61 -185.001s-19 -142.167 -19 -217.5c0 -92.667 7.33301 -178.5 22 -257.5s37.334 -147.333 68.001 -205s70 -102.834 118 -135.501s105 -49 171 -49z" />
    <glyph glyph-name="P" unicode="P" horiz-adv-x="1188" 
d="M37 61l127.001 37c14.667 4 26.167 11.167 34.5 21.5s12.5 22.833 12.5 37.5v1064c0 15.333 -4.16699 28.166 -12.5 38.499s-19.833 17.5 -34.5 21.5l-127 36v61h593c72 0 140 -7 204 -21s120 -36 168 -66s86 -68.5 114 -115.5s42 -103.5 42 -169.5
c0 -70 -11.833 -133 -35.5 -189s-56.167 -103.667 -97.5 -143s-89.833 -69.5 -145.5 -90.5s-115.834 -31.5 -180.501 -31.5c-14.667 0 -31 2 -49 6s-36.167 9.16699 -54.5 15.5s-36.166 13.666 -53.499 21.999s-33 16.833 -47 25.5v-464
c0 -15.333 4.66699 -28.166 14 -38.499s20.666 -17.166 33.999 -20.499l143 -37v-61h-649v61zM636.001 670c31.333 0 58.501 5.33398 81.501 16.001s42.5 24.667 58.5 42s29.167 36.666 39.5 57.999s18.5 42.666 24.5 63.999s10 41.666 12 60.999s3 35.333 3 48
c0 40.667 -4.16699 79.834 -12.5 117.501s-22.5 70.834 -42.5 99.501s-46.833 51.5 -80.5 68.5s-75.834 25.5 -126.501 25.5h-98v-584c8 -2.66699 17.667 -5 29 -7s23.333 -3.66699 36 -5s25.5 -2.33301 38.5 -3s25.5 -1 37.5 -1z" />
    <glyph glyph-name="Q" unicode="Q" horiz-adv-x="1435" 
d="M1062 -410c-30 0 -55.665 2.33203 -76.998 6.99902s-40.333 12 -57 22s-32 22.833 -46 38.5s-29 34.834 -45 57.501l-55 77l-60 84l-67 95c-98.667 6 -186 28 -262 66s-140 88.5 -192 151.5s-91.333 137.167 -118 222.5s-40 178.333 -40 279
c0 100 15.167 193.667 45.5 281s74.333 163.5 132 228.5s128.167 116.167 211.5 153.5s177.666 56 282.999 56c114.667 0 214 -19.167 298 -57.5s153.5 -90.166 208.5 -155.499s96 -141.5 123 -228.5s40.5 -179.5 40.5 -277.5c0 -70 -8.33301 -139.667 -25 -209
s-42.334 -134.333 -77.001 -195s-79 -114.834 -133 -162.501s-118.333 -84.5 -193 -110.5l187 -245c13.333 -18 29.5 -34.833 48.5 -50.5s37.167 -26.167 54.5 -31.5l128 -35v-61h-313zM729.002 75.999c58.667 0 109.999 14.999 153.999 44.999s80.5 71.167 109.5 123.5
s50.667 114 65 185s21.5 147.5 21.5 229.5c0 94.667 -7.5 181.334 -22.5 260.001s-38.167 146.334 -69.5 203.001s-70.833 100.834 -118.5 132.501s-104.5 47.5 -170.5 47.5c-62.667 0 -116 -16 -160 -48s-80 -74.833 -108 -128.5s-48.333 -115.334 -61 -185.001
s-19 -142.167 -19 -217.5c0 -92.667 7.33301 -178.5 22 -257.5s37.334 -147.333 68.001 -205s70 -102.834 118 -135.501s105 -49 171 -49z" />
    <glyph glyph-name="R" unicode="R" horiz-adv-x="1354" 
d="M37 61l127.003 36.998c13.333 4 24.5 11.167 33.5 21.5s13.5 22.833 13.5 37.5v1064c0 15.333 -4.66699 28.333 -14 39s-20.333 17.667 -33 21l-127 36v61h602c72 0 135.333 -4.66699 190 -14s101.834 -22.166 141.501 -38.499s72.5 -35.333 98.5 -57
s46.667 -45.167 62 -70.5s26.166 -51.833 32.499 -79.5s9.5 -55.167 9.5 -82.5c0 -56.667 -10 -105.667 -30 -147s-44.833 -76.5 -74.5 -105.5s-61.834 -52.5 -96.501 -70.5s-66.334 -31.667 -95.001 -41l334 -494c5.33301 -8 12.166 -16.333 20.499 -25
s17.333 -16.834 27 -24.501s19.5 -14.5 29.5 -20.5s19.333 -10 28 -12l129 -35v-61h-320c-30 0 -55 2.16699 -75 6.5s-37.5 11.333 -52.5 21s-28.667 22.5 -41 38.5s-25.833 35.667 -40.5 59l-289 455l-132 36v-459c0 -15.333 3.83301 -28.166 11.5 -38.499
s18.167 -17.166 31.5 -20.499l148 -37v-61h-649v61zM628.003 702.998c40.667 0 76 8.16797 106 24.501s55 38 75 65s34.833 57.833 44.5 92.5s14.5 70 14.5 106c0 97.333 -22.333 168.166 -67 212.499s-107.667 66.5 -189 66.5h-117v-557c6 -1.33301 14.833 -2.5 26.5 -3.5
s24.167 -2 37.5 -3s26.333 -1.83301 39 -2.5s22.667 -1 30 -1z" />
    <glyph glyph-name="S" unicode="S" horiz-adv-x="1159" 
d="M537 -31c-40 0 -79.667 2.33594 -119 7.00293s-77.833 11 -115.5 19s-74.834 17.167 -111.501 27.5s-72.667 21.166 -108 32.499l-24 390h67l89 -199c2 -4 4.83301 -8.5 8.5 -13.5s7.66699 -10 12 -15s8.66602 -9.5 12.999 -13.5s8.16602 -7 11.499 -9
c24 -16 50.833 -30.167 80.5 -42.5s59.5 -22.833 89.5 -31.5s58.5 -15.334 85.5 -20.001s50.167 -7 69.5 -7c38 0 72 6.16699 102 18.5s55.5 29 76.5 50s37.167 45.5 48.5 73.5s17 57.667 17 89c0 26 -3.5 49.5 -10.5 70.5s-17.833 40.167 -32.5 57.5s-32.834 33 -54.501 47
s-47.5 27 -77.5 39c-25.333 10 -50.5 18.667 -75.5 26l-75 21.5c-25 7 -49.833 14.333 -74.5 22s-49.334 16.5 -74.001 26.5c-40.667 16.667 -76.667 37.667 -108 63s-57.5 53.833 -78.5 85.5s-37 65.834 -48 102.501s-16.5 75 -16.5 115c0 38 5.83301 74.5 17.5 109.5
s28.167 67.5 49.5 97.5s46.833 57.5 76.5 82.5s62.834 46.167 99.501 63.5s76.167 30.833 118.5 40.5s86.5 14.5 132.5 14.5c40.667 0 80.834 -1.66699 120.501 -5s77.834 -8 114.501 -14s71.5 -13 104.5 -21s63.5 -16.667 91.5 -26v-360h-67l-79 185
c-4 9.33301 -10.333 18.166 -19 26.499s-16.667 15.166 -24 20.499c-16 12 -35.5 22.333 -58.5 31s-46.667 15.834 -71 21.501s-48 9.83398 -71 12.501s-42.167 4 -57.5 4c-33.333 0 -63.5 -5.33301 -90.5 -16s-49.833 -25 -68.5 -43s-33 -38.5 -43 -61.5
s-15 -46.5 -15 -70.5c0 -26 3 -50.333 9 -73s16 -43.5 30 -62.5s32.167 -36 54.5 -51s50.166 -28.5 83.499 -40.5c24 -8.66699 47.833 -16.5 71.5 -23.5l71.5 -21c24 -7 48.5 -14.667 73.5 -23s51.167 -18.166 78.5 -29.499c32.667 -13.333 64.834 -30.833 96.501 -52.5
s59.834 -47.667 84.501 -78s44.667 -65.333 60 -105s23 -83.834 23 -132.501c0 -52.667 -10.667 -104.834 -32 -156.501s-54.833 -97.834 -100.5 -138.501s-104.167 -73.667 -175.5 -99s-156.666 -38 -255.999 -38z" />
    <glyph glyph-name="T" unicode="T" horiz-adv-x="1307" 
d="M316 60l147 36.9971c14.667 3.33301 26.167 10.333 34.5 21s12.5 23.334 12.5 38.001v1112h-293c-13.333 0 -23 -3.33301 -29 -10s-10.667 -15 -14 -25l-82 -221h-67v366h1257v-366h-67l-82 221c-3.33301 10 -7.83301 18.333 -13.5 25s-14.834 10 -27.501 10h-298v-1112
c0 -15.333 4.83301 -28.166 14.5 -38.499s20.834 -17.166 33.501 -20.499l147 -37v-60h-673v60z" />
    <glyph glyph-name="U" unicode="U" horiz-adv-x="1448" 
d="M728 -31c-89.333 0 -168 11.166 -236 33.499s-124.833 52.333 -170.5 90s-80.167 80.834 -103.5 129.501s-35 99 -35 151v848c0 15.333 -4.66699 28.333 -14 39s-20.666 17.667 -33.999 21l-127 36v61h633v-61l-127 -36c-13.333 -4 -24.5 -11.333 -33.5 -22
s-13.5 -23.334 -13.5 -38.001v-756c0 -22.667 1.66699 -47 5 -73s9.33301 -52 18 -78s20.667 -50.833 36 -74.5s35 -44.5 59 -62.5s53 -32.5 87 -43.5s74 -16.5 120 -16.5s86.667 5.5 122 16.5s65.833 25.667 91.5 44s47.167 39.5 64.5 63.5s31.166 48.833 41.499 74.5
s17.666 51.334 21.999 77.001s6.5 49.5 6.5 71.5v751c0 15.333 -4.83301 28 -14.5 38s-20.5 17 -32.5 21l-127 43v61h474v-61l-127 -43c-12.667 -4 -23.667 -11.167 -33 -21.5s-14 -22.833 -14 -37.5v-801c0 -54 -8.33301 -102.5 -25 -145.5s-39 -81 -67 -114
s-60.333 -61.167 -97 -84.5s-75 -42.5 -115 -57.5s-80.167 -26 -120.5 -33s-78.166 -10.5 -113.499 -10.5z" />
    <glyph glyph-name="V" unicode="V" horiz-adv-x="1320" 
d="M88 1223c-5.33301 12.667 -12.834 24.501 -22.501 35.501s-21.834 19.167 -36.501 24.5l-98 34v61h611v-61l-172 -43l326 -819l54 -143v0l357 948l-166 57v61h442v-61l-96 -44c-13.333 -6 -25.166 -14.333 -35.499 -25s-18.166 -22.334 -23.499 -35.001l-396 -1006
l-114 -227h-136z" />
    <glyph glyph-name="W" unicode="W" horiz-adv-x="1940" 
d="M90 1225c-4 13.333 -11.333 24.998 -22 34.998s-23 17.667 -37 23l-86 34v61h597v-61l-172 -43l258 -836l23 -76v0l239 769l104 247h129l286 -936l27 -89v0l290 907l-165 57v61h434v-61l-91 -44c-11.333 -5.33301 -23 -13.666 -35 -24.999s-20.333 -23.666 -25 -36.999
l-324 -978l-103 -247h-153l-254 833l-39 133v0l-226 -719l-104 -247h-170z" />
    <glyph glyph-name="X" unicode="X" horiz-adv-x="1314" 
d="M-17 61l92 43c17.333 8 33 18.333 47 31s25.667 25.334 35 38.001l371 479l-371 571c-7.33301 11.333 -17.333 23.166 -30 35.499s-24.667 20.5 -36 24.5l-96 34v61h622v-61l-171 -43l209 -327l70 -116v0l311 429l-158 57v61h439v-61l-89 -42
c-15.333 -7.33301 -30.5 -17.666 -45.5 -30.999s-27.167 -26.333 -36.5 -39l-357 -466l380 -584c7.33301 -11.333 17 -22.833 29 -34.5s24 -19.834 36 -24.501l96 -35v-61h-622v61l172 43l-218 341l-69 116v0l-324 -443l153 -57v-61h-439v61z" />
    <glyph glyph-name="Y" unicode="Y" horiz-adv-x="1272" 
d="M301 61l146.999 36.9971c13.333 3.33301 24.5 10.333 33.5 21s13.5 23.334 13.5 38.001v408l-372 658c-7.33301 12.667 -15.666 24.5 -24.999 35.5s-21.333 19.167 -36 24.5l-98 34v61h609v-61l-170 -43l254 -451l69 -122v0l327 559l-159 57v61h427v-61l-97 -44
c-12 -5.33301 -23.5 -13.5 -34.5 -24.5s-20.167 -22.833 -27.5 -35.5l-383 -639v-417c0 -15.333 4.33301 -28.166 13 -38.499s20 -17.166 34 -20.499l148 -37v-61h-673v61z" />
    <glyph glyph-name="Z" unicode="Z" horiz-adv-x="1198" 
d="M-2 82l746.999 1091l70 95v0h-549c-13.333 0 -23 -3.33301 -29 -10s-10.667 -15 -14 -25l-82 -221h-67v366h1085v-76l-751 -1097l-69 -94v0h640c12.667 0 21.834 3.16699 27.501 9.5s10.167 14.833 13.5 25.5l82 241h69v-387h-1173v82z" />
    <glyph glyph-name="bracketleft" unicode="[" horiz-adv-x="914" 
d="M226 1479h625v-101h-370v-1615h370v-103h-625v1819z" />
    <glyph glyph-name="backslash" unicode="\" horiz-adv-x="912" 
d="M93 1491h156l671 -1905h-149z" />
    <glyph glyph-name="bracketright" unicode="]" horiz-adv-x="914" 
d="M63 -237h380v1615h-380v101h635v-1819h-635v103z" />
    <glyph glyph-name="asciicircum" unicode="^" horiz-adv-x="1354" 
d="M618 1399h121l415 -662h-181l-293 488l-298 -488h-181z" />
    <glyph glyph-name="underscore" unicode="_" horiz-adv-x="1042" 
d="M-4 -154h1050v-115h-1050v115z" />
    <glyph glyph-name="grave" unicode="`" horiz-adv-x="1024" 
d="M656 1074l-125.499 77.001l-88.5 53.5l-64 39c-18 11 -35 22.167 -51 33.5c-29.333 20.667 -50.333 40 -63 58s-19 39.667 -19 65c0 11.333 2.5 22.166 7.5 32.499s12.167 19.5 21.5 27.5s20.5 14.333 33.5 19s27.5 7 43.5 7c14.667 0 28.5 -1 41.5 -3
s25.833 -6 38.5 -12s25.167 -14.5 37.5 -25.5s25.166 -25.5 38.499 -43.5l35 -48l39.5 -56.5l53 -77l74.5 -108.5z" />
    <glyph glyph-name="a" unicode="a" horiz-adv-x="1038" 
d="M306 -20c-39.333 0 -75.002 7.33691 -107.002 22.0039s-59.5 34.167 -82.5 58.5s-40.667 52.5 -53 84.5s-18.5 65.333 -18.5 100c0 40.667 7 77.167 21 109.5s32.833 60.833 56.5 85.5s51 45.834 82 63.501s63.333 32 97 43s67.334 19.167 101.001 24.5s65.5 8 95.5 8
c6 0 14.5 -0.333008 25.5 -1s22.5 -1.5 34.5 -2.5s23.5 -1.83301 34.5 -2.5s19.833 -1 26.5 -1l1 145c0 32 -1.83301 58.333 -5.5 79s-10.167 36.667 -19.5 48s-21.666 19.166 -36.999 23.499s-34.666 6.5 -57.999 6.5c-26.667 0 -54.667 -5.83301 -84 -17.5
s-58.333 -25.834 -87 -42.501s-55.834 -34.167 -81.501 -52.5l-66.5 -46.5h-32l-41 195c22.667 10.667 47.834 21.167 75.501 31.5s57.5 19.666 89.5 27.999s66 15 102 20s73.333 7.5 112 7.5c46.667 0 94 -5.16699 142 -15.5s91.167 -27.833 129.5 -52.5
s69.5 -57.334 93.5 -98.001s35.667 -91 35 -151l-6 -496c0 -10 1.66699 -18.833 5 -26.5s8.5 -14.334 15.5 -20.001s15.667 -10 26 -13s22.5 -4.5 36.5 -4.5c6.66699 0 18.167 1.33301 34.5 4s31.833 5.66699 46.5 9h20v-70c-9.33301 -7.33301 -23 -15.666 -41 -24.999
s-38.333 -18.333 -61 -27s-46.5 -16 -71.5 -22s-48.833 -9 -71.5 -9c-29.333 0 -56.333 2.66699 -81 8s-46.167 14.166 -64.5 26.499s-32.666 29 -42.999 50s-15.5 47.167 -15.5 78.5v0c-24.667 -37.333 -50.667 -66.833 -78 -88.5s-54.833 -38 -82.5 -49
s-54.334 -18 -80.001 -21s-48.834 -4.5 -69.501 -4.5zM458.998 131.004c14 0 28.168 1.17188 42.501 3.50488s28.5 6.66602 42.5 12.999s27.167 14.666 39.5 24.999s23.5 23.5 33.5 39.5l2 285c-45.333 0 -86.333 -3.83301 -123 -11.5s-67.834 -19.834 -93.501 -36.501
s-45.5 -37.834 -59.5 -63.501s-21 -56.5 -21 -92.5c0 -31.333 4.16699 -57.333 12.5 -78s19 -37.334 32 -50.001s27.667 -21.5 44 -26.5s32.5 -7.5 48.5 -7.5z" />
    <glyph glyph-name="b" unicode="b" horiz-adv-x="1136" 
d="M559 -27c-31.333 0 -63.499 1.16895 -96.499 3.50195s-67 6.66602 -102 12.999s-71 15.333 -108 27s-74.5 26.834 -112.5 45.501v1210c0 17.333 -4.33301 32 -13 44s-25 22 -49 30l-92 30v48l422 87v-609v-73c26.667 38.667 54.5 69.167 83.5 91.5s57 39.166 84 50.499
s52.5 18.5 76.5 21.5s44.333 4.5 61 4.5c58.667 0 111.167 -11.667 157.5 -35s85.666 -56 117.999 -98s57 -92.167 74 -150.5s25.5 -122.166 25.5 -191.499c0 -76.667 -12 -148.334 -36 -215.001s-58.833 -124.834 -104.5 -174.501s-101.167 -88.667 -166.5 -117
s-139.333 -42.5 -222 -42.5zM565.001 75.002c42.667 0 79.3311 10.335 109.998 31.002s55.667 48.5 75 83.5s33.666 75.167 42.999 120.5s14 92.666 14 141.999c0 57.333 -4.33301 109.5 -13 156.5s-22.167 87.167 -40.5 120.5s-42.166 59 -71.499 77s-64.333 27 -105 27
c-12.667 0 -26.667 -0.5 -42 -1.5s-30.666 -3.83301 -45.999 -8.5s-30.166 -12.167 -44.499 -22.5s-26.5 -24.5 -36.5 -42.5v-606c6.66699 -8.66699 16 -17.5 28 -26.5s25.167 -17.333 39.5 -25s29.333 -13.834 45 -18.501s30.5 -7 44.5 -7z" />
    <glyph glyph-name="c" unicode="c" horiz-adv-x="892" 
d="M482 -22c-70.667 0 -133.001 12.832 -187.001 38.499s-99.333 60.334 -136 104.001s-64.334 94.167 -83.001 151.5s-28 118 -28 182c0 47.333 4.83301 93.5 14.5 138.5s24.5 87.333 44.5 127s44.833 76.334 74.5 110.001s64.667 62.5 105 86.5s85.833 42.833 136.5 56.5
s106.667 20.5 168 20.5c35.333 0 67.333 -2.66699 96 -8s54.334 -11.833 77.001 -19.5s42.667 -15.834 60 -24.501s32 -16.334 44 -23.001l-41 -198h-34c-24 18 -49.667 35.667 -77 53s-54.833 33 -82.5 47s-54.834 25.167 -81.501 33.5s-51.334 12.5 -74.001 12.5
c-15.333 0 -29.5 -4.83301 -42.5 -14.5s-27.833 -25.5 -44.5 -47.5c-8 -10 -15.667 -23.833 -23 -41.5s-14 -38.5 -20 -62.5s-10.833 -51 -14.5 -81s-5.5 -62.667 -5.5 -98c0 -62 5.33301 -117 16 -165s27.834 -88.5 51.501 -121.5s54 -58.167 91 -75.5
s81.833 -26 134.5 -26c26.667 0 51.834 3.16699 75.501 9.5s45.5 14.333 65.5 24s38.167 19.667 54.5 30l43.5 27.5h23v-77c-21.333 -19.333 -46.166 -39 -74.499 -59s-59.5 -38.167 -93.5 -54.5s-70.667 -29.666 -110 -39.999s-80.333 -15.5 -123 -15.5z" />
    <glyph glyph-name="d" unicode="d" horiz-adv-x="1160" 
d="M423 -20c-58.667 0 -111.167 11.8379 -157.5 35.5049s-85.666 56.5 -117.999 98.5s-57 91.667 -74 149s-25.5 120 -25.5 188c0 75.333 10.167 146.166 30.5 212.499s49.666 124.166 87.999 173.499s85.333 88.333 141 117s119.167 43 190.5 43
c28.667 0 54.5 -2.66699 77.5 -8s43.667 -12.5 62 -21.5s35 -19.333 50 -31s28.5 -23.5 40.5 -35.5v43v328c0 17.333 -4 32.166 -12 44.499s-24.333 22.166 -49 29.499l-104 30v48l433 87v-1297c0 -17.333 4 -32 12 -44s24.667 -21.667 50 -29l92 -26v-48l-395 -87h-20v165
v0c-28.667 -39.333 -58 -70 -88 -92s-58.667 -38.333 -86 -49s-53 -17.334 -77 -20.001s-44.333 -4 -61 -4zM559 146.005c12.667 0 26.668 0.499023 42.001 1.49902s30.666 3.83301 45.999 8.5s30.166 11.667 44.499 21s26.5 22.333 36.5 39v612
c-10 7.33301 -22 13.833 -36 19.5s-28.5 10.334 -43.5 14.001s-30 6.5 -45 8.5s-28.833 3 -41.5 3c-40 0 -74.5 -9.16699 -103.5 -27.5s-53.167 -43.333 -72.5 -75s-33.666 -68.834 -42.999 -111.501s-14 -88 -14 -136c0 -57.333 4.33301 -109.166 13 -155.499
s22.167 -86 40.5 -119s42 -58.333 71 -76s64.167 -26.5 105.5 -26.5z" />
    <glyph glyph-name="e" unicode="e" horiz-adv-x="1001" 
d="M535 -22c-72 0 -137.831 10.835 -197.498 32.502s-111 53.834 -154 96.501s-76.333 95.167 -100 157.5s-35.5 134.5 -35.5 216.5c0 68 11.333 133.167 34 195.5s55.334 117.166 98.001 164.499s94.834 85.166 156.501 113.499s131.5 42.5 209.5 42.5
c66 0 124.5 -11 175.5 -33s93.667 -50.667 128 -86s60.5 -75.833 78.5 -121.5s27 -91.834 27 -138.501c0 -6 -0.166992 -14 -0.5 -24s-0.833008 -20 -1.5 -30s-1.33398 -19.5 -2.00098 -28.5s-1.33398 -15.833 -2.00098 -20.5h-621
c0.666992 -125.333 26.5 -220.666 77.5 -285.999s130.5 -98 238.5 -98c35.333 0 67.5 3.33301 96.5 10s55.167 14.667 78.5 24s44.166 19.5 62.499 30.5l48.5 28.5h23v-77c-22 -19.333 -48 -38.833 -78 -58.5s-62.833 -37.834 -98.5 -54.501s-73.834 -30.167 -114.501 -40.5
s-83 -15.5 -127 -15.5zM681.002 599.002c0 42 -2.16699 81.168 -6.5 117.501s-12.333 67.833 -24 94.5s-27.5 47.667 -47.5 63s-45.333 23 -76 23s-57.667 -6.83301 -81 -20.5s-43 -33.334 -59 -59.001s-28.5 -57 -37.5 -94s-14.5 -78.5 -16.5 -124.5h348z" />
    <glyph glyph-name="f" unicode="f" horiz-adv-x="703" 
d="M41 59l101.001 32c13.333 4 24.166 10.833 32.499 20.5s12.5 21.834 12.5 36.501v707h-181l27 108h155c0 90.667 11.833 171 35.5 241s56.334 129 98.001 177s90.834 84.333 147.501 109s118.334 37 185.001 37c12 0 26.667 -0.833008 44 -2.5
s35.333 -4.33398 54 -8.00098s37 -8 55 -13s33 -10.833 45 -17.5l-45 -193h-29c-17.333 9.33301 -36.5 19 -57.5 29s-42.5 19 -64.5 27s-43.333 14.667 -64 20s-39.334 8 -56.001 8c-17.333 0 -31.333 -3.83301 -42 -11.5s-18.334 -21.167 -23.001 -40.5
c-8 -34 -13 -80.333 -15 -139s-3.33301 -133 -4 -223h271l-32 -108h-236v-707c0 -15.333 4.16699 -27.833 12.5 -37.5s19.166 -16.167 32.499 -19.5l119 -32v-59h-578v59z" />
    <glyph glyph-name="g" unicode="g" horiz-adv-x="1099" 
d="M491 -471c-68 0 -130.168 5.33691 -186.501 16.0039s-104.833 26.5 -145.5 47.5s-72.334 46.833 -95.001 77.5s-34 66.334 -34 107.001c0 31.333 4.5 58.333 13.5 81s23.5 42.167 43.5 58.5s46.167 30.5 78.5 42.5s71.833 23 118.5 33v0
c-19.333 4.66699 -40.666 12.167 -63.999 22.5s-45.166 23.666 -65.499 39.999s-37.333 35.666 -51 57.999s-20.5 47.833 -20.5 76.5c0 28 6.5 51.833 19.5 71.5s30 36.667 51 51s44.667 26.333 71 36s52.833 18.167 79.5 25.5v0c-28 14.667 -54.667 31 -80 49
s-47.333 38.667 -66 62s-33.5 50.166 -44.5 80.499s-16.5 65.166 -16.5 104.499c0 42.667 11 83.834 33 123.501s52.5 74.667 91.5 105s85.5 54.5 139.5 72.5s113 27 177 27c30 0 63.167 -2.5 99.5 -7.5s70.5 -11.833 102.5 -20.5h369l-25 -135l-262 54v0
c23.333 -16 42.333 -34.167 57 -54.5s26.167 -40.666 34.5 -60.999s14 -40 17 -59s4.5 -35.167 4.5 -48.5c0 -48 -9.16699 -92.167 -27.5 -132.5s-45.333 -75.333 -81 -105s-79.667 -52.834 -132 -69.501s-112.166 -25 -179.499 -25c-28 0 -55.667 1.83301 -83 5.5
s-51 8.16699 -71 13.5c-6 -4 -11.5 -8.5 -16.5 -13.5s-9.33301 -10.833 -13 -17.5s-6.66699 -14.334 -9 -23.001s-3.5 -18.334 -3.5 -29.001c0 -16 2.66699 -29.333 8 -40s12.5 -19.167 21.5 -25.5s19.167 -10.833 30.5 -13.5s23.333 -4 36 -4h280
c68.667 0 126 -8.83301 172 -26.5s83 -40.167 111 -67.5s48 -57.333 60 -90s18 -63.667 18 -93c0 -56.667 -14.667 -108.334 -44 -155.001s-69.5 -86.667 -120.5 -120s-110.833 -59.166 -179.5 -77.499s-142.334 -27.5 -221.001 -27.5zM523.999 419.004
c27.333 0 49.8359 7.00098 67.5029 21.001s31.667 32.667 42 56s17.5 50.166 21.5 80.499s6 62.166 6 95.499c0 34 -2.66699 65.667 -8 95s-13.833 54.5 -25.5 75.5s-26.334 37.5 -44.001 49.5s-38.834 18 -63.501 18c-28 0 -51.167 -6.5 -69.5 -19.5
s-32.833 -30.5 -43.5 -52.5s-18.167 -47.5 -22.5 -76.5s-6.5 -59.5 -6.5 -91.5c0 -35.333 2.5 -68.166 7.5 -98.499s13.333 -56.833 25 -79.5s26.667 -40.5 45 -53.5s41.166 -19.5 68.499 -19.5zM541.002 -368.995c32.667 0 65.332 4.33203 97.999 12.999s62 21.5 88 38.5
s47 38 63 63s24 54.167 24 87.5c0 18.667 -3 36.334 -9 53.001s-15.5 31.167 -28.5 43.5s-29.833 22 -50.5 29s-45.667 10.5 -75 10.5h-315c-8 -11.333 -16.333 -29 -25 -53s-13 -55 -13 -93c0 -35.333 8.33301 -65.333 25 -90s37.334 -44.5 62.001 -59.5
s51 -25.833 79 -32.5s53.667 -10 77 -10z" />
    <glyph glyph-name="h" unicode="h" horiz-adv-x="1202" 
d="M23 59l98 32.0059c13.333 4.66699 24.166 11.5 32.499 20.5s12.5 20.833 12.5 35.5v1125c0 17.333 -4.66699 32.166 -14 44.499s-25 22.166 -47 29.499l-92 30v48l421 87v-632v-52c28 37.333 55 67.166 81 89.499s51.5 39.5 76.5 51.5s49.667 19.833 74 23.5
s49.166 5.5 74.499 5.5c42.667 0 82.834 -6.5 120.501 -19.5s70.5 -33.333 98.5 -61s50 -63.334 66 -107.001s24 -95.834 24 -156.501v-501c0 -16.667 4.5 -29.834 13.5 -39.501s19.5 -16.834 31.5 -21.501l86 -32v-59h-533v59l91 32c11.333 4 21.333 11 30 21
s13 23.333 13 40v410c0 44.667 -2 83.834 -6 117.501s-11.833 61.834 -23.5 84.501s-28.5 39.834 -50.5 51.501s-51 17.5 -87 17.5c-15.333 0 -31.166 -0.666992 -47.499 -2s-32.5 -4.83301 -48.5 -10.5s-31.167 -13.834 -45.5 -24.501s-27.166 -25.334 -38.499 -44.001
v-604c0 -15.333 4.16699 -27.333 12.5 -36s19.166 -15.667 32.499 -21l76 -32v-59h-532v59z" />
    <glyph glyph-name="i" unicode="i" horiz-adv-x="617" 
d="M310 1186c-23.333 0 -45 4.16699 -65 12.5s-37.333 19.666 -52 33.999s-26.334 31.333 -35.001 51s-13 40.834 -13 63.501c0 22 4.33301 42.667 13 62s20.334 36.166 35.001 50.499s32 25.666 52 33.999s41.667 12.5 65 12.5s45.166 -4.16699 65.499 -12.5
s38.166 -19.666 53.499 -33.999s27.333 -31.166 36 -50.499s13 -40 13 -62c0 -22.667 -4.33301 -43.834 -13 -63.501s-20.667 -36.667 -36 -51s-33.166 -25.666 -53.499 -33.999s-42.166 -12.5 -65.499 -12.5zM39 59l103.002 31.998c13.333 4 24.166 10.833 32.499 20.5
s12.5 21.834 12.5 36.501v610c0 17.333 -4.5 31.833 -13.5 43.5s-25.167 21.834 -48.5 30.501l-82 30v48l412 79v-841c0 -15.333 4.16699 -27.5 12.5 -36.5s19.166 -15.833 32.499 -20.5l94 -32v-59h-555v59z" />
    <glyph glyph-name="j" unicode="j" horiz-adv-x="600" 
d="M305 1186c-23.333 0 -45 4.16699 -65 12.5s-37.333 19.666 -52 33.999s-26.334 31.333 -35.001 51s-13 40.834 -13 63.501c0 22 4.33301 42.667 13 62s20.334 36.166 35.001 50.499s32 25.666 52 33.999s41.667 12.5 65 12.5s45.166 -4.16699 65.499 -12.5
s38.166 -19.666 53.499 -33.999s27.333 -31.166 36 -50.499s13 -40 13 -62c0 -22.667 -4.33301 -43.834 -13 -63.501s-20.667 -36.667 -36 -51s-33.166 -25.666 -53.499 -33.999s-42.166 -12.5 -65.499 -12.5zM-9 -453c-12 0 -26.668 0.833008 -44.001 2.5
s-35.333 4.33398 -54 8.00098s-37 8 -55 13s-33 10.833 -45 17.5l45 193h29c16.667 -9.33301 35.667 -19 57 -29s43 -19 65 -27s43.5 -14.667 64.5 -20s39.5 -8 55.5 -8c17.333 0 31.333 3.83301 42 11.5s18.334 21.167 23.001 40.5c4 16.667 7.16699 37 9.5 61
s4.33301 51.167 6 81.5s2.66699 63.833 3 100.5s0.5 76.334 0.5 119.001v647c0 19.333 -4.66699 34.666 -14 45.999s-25.333 20.666 -48 27.999l-96 30v48l426 79v-884c0 -87.333 -12 -165.5 -36 -234.5s-57 -127.5 -99 -175.5s-91.667 -84.667 -149 -110
s-119.333 -38 -186 -38z" />
    <glyph glyph-name="k" unicode="k" horiz-adv-x="1120" 
d="M23 59l97.999 31.998c15.333 5.33301 26.666 12.833 33.999 22.5s11 21.167 11 34.5v1132c0 17.333 -4.5 30 -13.5 38s-24.833 16.333 -47.5 25l-92 33v48l421 87v-1024l362 379l-116 44v59h410v-59l-108 -34c-14 -4.66699 -28.167 -12.167 -42.5 -22.5
s-26.166 -19.833 -35.499 -28.5l-203 -190l323 -503c8 -12 18.333 -22.167 31 -30.5s27.334 -15.166 44.001 -20.499l68 -22v-59h-498v59l84 32l-231 382l-88 -64v-261c0 -15.333 4 -27.166 12 -35.499s19 -15.5 33 -21.5l76 -32v-59h-532v59z" />
    <glyph glyph-name="l" unicode="l" horiz-adv-x="600" 
d="M25 59l98.002 32.0029c15.333 5.33301 26.666 12.666 33.999 21.999s11 21 11 35v1124c0 17.333 -4.33301 32.166 -13 44.499s-24.667 22.166 -48 29.499l-92 30v48l421 87v-1363c0 -15.333 4.16699 -27.333 12.5 -36s19.166 -15.667 32.499 -21l86 -32v-59h-542v59z" />
    <glyph glyph-name="m" unicode="m" horiz-adv-x="1809" 
d="M45 57l99.001 31.9961c13.333 4 23.833 11.167 31.5 21.5s11.5 22.833 11.5 37.5v610c0 17.333 -4.5 31.666 -13.5 42.999s-24.5 21 -46.5 29l-82 30v48l405 81v-162v0c26 36 51.833 65.167 77.5 87.5s51.334 39.666 77.001 51.999s51 20.5 76 24.5s49.5 6 73.5 6
c32 0 62.667 -3.5 92 -10.5s56 -18.167 80 -33.5s45.167 -34.833 63.5 -58.5s32.5 -52.167 42.5 -85.5c31.333 44.667 61.333 79.5 90 104.5s56.5 43.667 83.5 56s53 20 78 23s49.167 4.5 72.5 4.5c42 0 81.167 -6.5 117.5 -19.5s68 -33.333 95 -61
s48.167 -63.334 63.5 -107.001s23 -95.834 23 -156.501v-507c0 -14.667 4 -26.167 12 -34.5s19 -15.166 33 -20.499l86 -32v-59h-531v57l89 32c13.333 4.66699 23.833 12 31.5 22s11.5 22.333 11.5 37v414c0 44.667 -1.83301 83.834 -5.5 117.501s-11 61.834 -22 84.501
s-26.667 39.834 -47 51.501s-47.5 17.5 -81.5 17.5c-14 0 -29 -0.666992 -45 -2s-31.833 -4.83301 -47.5 -10.5s-30.834 -14 -45.501 -25s-27.334 -26.167 -38.001 -45.5v-604c0 -15.333 4.33301 -27 13 -35s19.334 -14.667 32.001 -20l76 -32v-59h-521v57l89 32
c13.333 4.66699 23.833 11.667 31.5 21s11.5 21.333 11.5 36v416c0 44.667 -1.83301 83.834 -5.5 117.501s-11 61.834 -22 84.501s-27 39.834 -48 51.501s-48.5 17.5 -82.5 17.5c-15.333 0 -30.833 -0.666992 -46.5 -2s-31.167 -4.66602 -46.5 -9.99902s-30 -13.5 -44 -24.5
s-26.333 -25.833 -37 -44.5v-604c0 -15.333 4.16699 -27.333 12.5 -36s19.166 -15.667 32.499 -21l76 -32v-59h-531v57z" />
    <glyph glyph-name="n" unicode="n" horiz-adv-x="1224" 
d="M43 59l99 31.999c12.667 4 23.334 10.833 32.001 20.5s13 21.834 13 36.501v610c0 17.333 -4.83301 32 -14.5 44s-25.5 22 -47.5 30l-82 30v48l407 79v-162v0c26 36.667 52.167 66.167 78.5 88.5s52.5 39.5 78.5 51.5s51.833 20 77.5 24s51.167 6 76.5 6
c43.333 0 83.833 -6.5 121.5 -19.5s70.334 -33.333 98.001 -61s49.334 -63.334 65.001 -107.001s23.5 -95.834 23.5 -156.501v-501c0 -16.667 4.5 -29.834 13.5 -39.501s19.5 -16.834 31.5 -21.501l86 -32v-59h-532v59l90 32c11.333 4 21.333 11 30 21s13 23.333 13 40v410
c0 44.667 -1.83301 83.834 -5.5 117.501s-11.334 61.834 -23.001 84.501s-28.334 39.834 -50.001 51.501s-50.5 17.5 -86.5 17.5c-15.333 0 -31.333 -0.666992 -48 -2s-32.834 -4.66602 -48.501 -9.99902s-30.834 -13.5 -45.501 -24.5s-27.667 -25.833 -39 -44.5v-604
c0 -15.333 4.33301 -27.333 13 -36s19.334 -15.667 32.001 -21l76 -32v-59h-533v59z" />
    <glyph glyph-name="o" unicode="o" horiz-adv-x="1092" 
d="M540 -27c-76.667 0 -145.332 11.999 -205.999 35.999s-112.167 58.333 -154.5 103s-74.833 98.334 -97.5 161.001s-34 132.667 -34 210c0 71.333 11.167 138.166 33.5 200.499s55 116.833 98 163.5s95.667 83.334 158 110.001s133.833 40 214.5 40
c86 0 160 -14.167 222 -42.5s113 -66 153 -113s69.5 -101.333 88.5 -163s28.5 -125.5 28.5 -191.5c0 -70.667 -11 -137.167 -33 -199.5s-54.5 -116.833 -97.5 -163.5s-95.833 -83.5 -158.5 -110.5s-134.334 -40.5 -215.001 -40.5zM553.002 73.999
c42.667 0 77.333 12.667 104 38s47.334 57.333 62.001 96s24.5 81.167 29.5 127.5s7.5 90.5 7.5 132.5c0 52 -3.5 103.5 -10.5 154.5s-18.833 96.833 -35.5 137.5s-38.834 73.667 -66.501 99s-62.5 38 -104.5 38s-76.167 -12.5 -102.5 -37.5s-46.833 -56.833 -61.5 -95.5
s-24.667 -81 -30 -127s-8 -90 -8 -132c0 -46.667 2.83301 -95.334 8.5 -146.001s16.5 -97.167 32.5 -139.5s38 -77.166 66 -104.499s64.333 -41 109 -41z" />
    <glyph glyph-name="p" unicode="p" horiz-adv-x="1171" 
d="M29 -412l100.003 31.998c15.333 5.33301 26.666 12.666 33.999 21.999s11 21 11 35v1081c0 17.333 -4.16699 31.833 -12.5 43.5s-24.5 21.834 -48.5 30.501l-82 30v48l405 79v-160v0c30 41.333 60 73.333 90 96s58.667 39.334 86 50.001s52.666 17 75.999 19
s43.333 3 60 3c59.333 0 112.166 -11.833 158.499 -35.5s85.5 -56.5 117.5 -98.5s56.333 -91.667 73 -149s25 -120 25 -188c0 -75.333 -10.167 -146 -30.5 -212s-49.666 -123.667 -87.999 -173s-85.333 -88.166 -141 -116.499s-118.834 -42.5 -189.501 -42.5
c-28 0 -53.5 2.66699 -76.5 8s-43.833 12.5 -62.5 21.5s-35.667 19.333 -51 31s-29 23.5 -41 35.5v-39v-362c0 -15.333 4 -27.833 12 -37.5s19 -16.167 33 -19.5l128 -32v-59h-586v59zM609.003 104.998c40.667 0 75.666 9.33398 104.999 28.001s53.333 44 72 76
s32.5 69.167 41.5 111.5s13.5 87.5 13.5 135.5c0 56 -4.16699 107.167 -12.5 153.5s-21.666 86 -39.999 119s-42 58.667 -71 77s-64.167 27.5 -105.5 27.5c-12 0 -25.667 -0.5 -41 -1.5s-31 -4 -47 -9s-31.167 -12.5 -45.5 -22.5s-26.5 -24.333 -36.5 -43v-607
c8 -7.33301 19.167 -13.833 33.5 -19.5s29.5 -10.334 45.5 -14.001s31.833 -6.5 47.5 -8.5s29.167 -3 40.5 -3z" />
    <glyph glyph-name="q" unicode="q" horiz-adv-x="1136" 
d="M552 -412l131 32.001c15.333 3.33301 26.666 9.83301 33.999 19.5s11 22.167 11 37.5v417v49c-27.333 -39.333 -55.5 -69.833 -84.5 -91.5s-57 -37.667 -84 -48s-52.333 -16.5 -76 -18.5s-43.834 -3 -60.501 -3c-58.667 0 -111.167 11.5 -157.5 34.5
s-85.666 55.333 -117.999 97s-57 91.167 -74 148.5s-25.5 120.333 -25.5 189c0 74.667 12.167 145.167 36.5 211.5s59.5 124.166 105.5 173.499s101.833 88.5 167.5 117.5s139.834 43.5 222.501 43.5c30.667 0 62.5 -1.16699 95.5 -3.5s66.833 -6.66602 101.5 -12.999
s70.334 -15 107.001 -26s74 -25.5 112 -43.5v-1234c0 -14.667 4.16699 -26.834 12.5 -36.501s19.166 -16.5 32.499 -20.5l101 -32v-59h-590v59zM559 146.001c12 0 25.668 0.334961 41.001 1.00195s30.833 3.16699 46.5 7.5s30.667 11 45 20s26.5 21.833 36.5 38.5v607
c-8.66699 9.33301 -19.5 17.666 -32.5 24.999s-26.833 13.666 -41.5 18.999s-29.334 9.33301 -44.001 12s-28 4 -40 4c-40.667 0 -76 -9.66699 -106 -29s-55 -45.333 -75 -78s-35 -70.834 -45 -114.501s-15 -89.5 -15 -137.5c0 -57.333 4.16699 -109.166 12.5 -155.499
s21.833 -85.833 40.5 -118.5s42.5 -57.667 71.5 -75s64.167 -26 105.5 -26z" />
    <glyph glyph-name="r" unicode="r" horiz-adv-x="915" 
d="M41 59l101.001 32c12.667 4 23.334 10.833 32.001 20.5s13 21.834 13 36.501v608c0 8.66699 -1 16.834 -3 24.501s-5.5 14.667 -10.5 21s-11.333 12 -19 17s-17.5 9.5 -29.5 13.5l-92 30v48l411 79v-219v0l49.5 77.5c17.667 27 37.834 51.5 60.501 73.5
s48.5 40.167 77.5 54.5s62.5 21.5 100.5 21.5c19.333 0 36.166 -0.833008 50.499 -2.5s27.5 -3.83398 39.5 -6.50098s23.333 -5.83398 34 -9.50098l33 -11.5v-298h-81l-42 75c-3.33301 6 -8.83301 11.5 -16.5 16.5s-16.334 9.5 -26.001 13.5s-20 7.16699 -31 9.5
s-21.5 3.5 -31.5 3.5c-19.333 0 -38 -1.16699 -56 -3.5s-35.5 -6.83301 -52.5 -13.5s-33.5 -16 -49.5 -28s-32 -28 -48 -48v-546c0 -15.333 4.16699 -27.833 12.5 -37.5s19.166 -16.167 32.499 -19.5l119 -32v-59h-578v59z" />
    <glyph glyph-name="s" unicode="s" horiz-adv-x="915" 
d="M418 -29c-40 0 -76.4971 2.16895 -109.497 6.50195s-63.5 9.83301 -91.5 16.5s-54 13.834 -78 21.501l-70 21.5v285h81l38 -111c2.66699 -8 6.83398 -15.5 12.501 -22.5s12 -13.333 19 -19s14.167 -10.834 21.5 -15.501s14.333 -8.66699 21 -12
c11.333 -6 25.666 -12.5 42.999 -19.5s36 -13.333 56 -19s40.167 -10.5 60.5 -14.5s39.5 -6 57.5 -6c20.667 0 39.834 2.33301 57.501 7s33 12.667 46 24s23.167 26.166 30.5 44.499s11 41.166 11 68.499c0 22.667 -5.33301 41.5 -16 56.5s-24.667 27.833 -42 38.5
s-36.833 19.5 -58.5 26.5s-43.167 13.5 -64.5 19.5c-33.333 9.33301 -62 17.666 -86 24.999l-74 23c-31.333 10 -59.333 23.167 -84 39.5s-45.667 36 -63 59s-30.5 49.5 -39.5 79.5s-13.5 63 -13.5 99c0 44.667 10.833 85.834 32.5 123.501s51.5 70 89.5 97
s82.5 48 133.5 63s105.833 22.5 164.5 22.5c36 0 67.5 -1 94.5 -3s52 -4.83301 75 -8.5s44.833 -7.83398 65.5 -12.501l66 -15l16 -285h-85l-44 108c-5.33301 14 -14 26.5 -26 37.5s-25 20.167 -39 27.5c-11.333 6 -23.833 11.5 -37.5 16.5s-28.167 9.5 -43.5 13.5
s-30.833 7.16699 -46.5 9.5s-31.167 3.5 -46.5 3.5c-12 0 -25.333 -2.33301 -40 -7s-28.334 -12 -41.001 -22s-23.334 -23.167 -32.001 -39.5s-13 -36.166 -13 -59.499c0 -24 4.16699 -44.167 12.5 -60.5s19.333 -30 33 -41s29 -19.833 46 -26.5s34.167 -12.667 51.5 -18
l81.5 -26.5l64.5 -20.5c36 -11.333 69.333 -24.5 100 -39.5s57.167 -32.833 79.5 -53.5s39.666 -45 51.999 -73s18.5 -61 18.5 -99c0 -58 -12.5 -108 -37.5 -150s-58.333 -76.667 -100 -104s-89.334 -47.5 -143.001 -60.5s-109.167 -19.5 -166.5 -19.5z" />
    <glyph glyph-name="t" unicode="t" horiz-adv-x="736" 
d="M448 -19c-42 0 -80.999 4.5 -116.999 13.5s-67.167 22.333 -93.5 40s-46.833 39 -61.5 64s-22 53.5 -22 85.5v671h-156v63c26 6 49.5 12.667 70.5 20s39.167 17 54.5 29s27.5 27.5 36.5 46.5s14.5 43.167 16.5 72.5l7 123l239 37v-283h340l-32 -108h-308v-620
c0 -20 6.66699 -37.5 20 -52.5s29.5 -27.5 48.5 -37.5s39 -17.5 60 -22.5s39.5 -7.5 55.5 -7.5c10.667 0 21.5 0.666992 32.5 2s21.667 2.83301 32 4.5s20 3.66699 29 6l24.5 6.5h23v-67c-10.667 -6 -25.834 -13.833 -45.501 -23.5s-42.5 -19.167 -68.5 -28.5
s-54.667 -17.333 -86 -24s-64.333 -10 -99 -10z" />
    <glyph glyph-name="u" unicode="u" horiz-adv-x="1194" 
d="M458 -20c-43.333 0 -83.6689 6.50195 -121.002 19.502s-69.5 33.333 -96.5 61s-48.167 63.167 -63.5 106.5s-23 95.666 -23 156.999v434c0 17.333 -5.16699 32.166 -15.5 44.499s-25.833 22.166 -46.5 29.499l-82 30v48l412 79v-574c0 -44 1.66699 -82.833 5 -116.5
s10.5 -61.834 21.5 -84.501s27.167 -39.667 48.5 -51s50 -17 86 -17c16.667 0 33.334 0.833008 50.001 2.5s32.834 5.16699 48.501 10.5s30.5 13.333 44.5 24s26.667 24.667 38 42v533c0 17.333 -5.16699 31 -15.5 41s-25.5 18.333 -45.5 25l-94 30v48l423 87v-775
c0 -17.333 4.5 -32.166 13.5 -44.499s25.167 -21.833 48.5 -28.5l92 -26v-48l-397 -87h-21v170v0c-25.333 -37.333 -51 -67.166 -77 -89.499s-52.167 -39.5 -78.5 -51.5s-52.5 -19.833 -78.5 -23.5s-51.333 -5.5 -76 -5.5z" />
    <glyph glyph-name="v" unicode="v" horiz-adv-x="1047" 
d="M112 819c-3.33301 7.33301 -6.83496 13.832 -10.502 19.499s-8.16699 10.667 -13.5 15s-12.166 8.83301 -20.499 13.5s-18.833 9.66699 -31.5 15l-68 28v59h547v-59l-144 -38l189 -468l51 -125v0l219 587l-141 44v59h388v-59l-68 -34
c-19.333 -9.33301 -34.666 -18.166 -45.999 -26.499s-20.333 -20.5 -27 -36.5l-253 -609l-109 -211h-109z" />
    <glyph glyph-name="w" unicode="w" horiz-adv-x="1612" 
d="M119 821c-5.33301 15.333 -14.499 27.501 -27.499 36.501s-28.833 17.167 -47.5 24.5l-67 28v59h544v-59l-143 -38l153 -462l41 -131v0l157 458l97 232h129l192 -560l41 -130v1l198 586l-141 44v59h388v-59l-67 -34c-18.667 -9.33301 -34.334 -18.333 -47.001 -27
s-22 -21.334 -28 -38.001l-227 -607l-102 -211h-131l-181 530l-40 154v0l-159 -473l-105 -211h-131z" />
    <glyph glyph-name="x" unicode="x" horiz-adv-x="1059" 
d="M-8 59l77.998 31.9971c19.333 8 35.5 16.5 48.5 25.5s23.5 18.167 31.5 27.5l257 316l-255 369c-7.33301 10.667 -17 20.334 -29 29.001s-27.667 16.667 -47 24l-74 28v59h543v-59l-121 -38l114 -192l56 -85v0l198 273l-117 42v59h382v-59l-78 -32
c-19.333 -8 -35.666 -17 -48.999 -27s-23.666 -18.667 -30.999 -26l-249 -299l270 -386c8 -11.333 18 -21.166 30 -29.499s27.333 -16.166 46 -23.499l71 -28v-59h-542v59l123 38l-128 209l-54 84v0l-209 -289l117 -42v-59h-382v59z" />
    <glyph glyph-name="y" unicode="y" horiz-adv-x="1039" 
d="M234 -471c-25.333 0 -48.5049 1.33789 -69.5049 4.00488s-40 6 -57 10s-32.167 8.5 -45.5 13.5s-24.666 10.167 -33.999 15.5l48 207h26c6.66699 -4.66699 14.834 -9.16699 24.501 -13.5s20 -8.5 31 -12.5s22.5 -7.83301 34.5 -11.5s23.5 -6.66699 34.5 -9
s21.167 -4.33301 30.5 -6s17 -2.5 23 -2.5c6.66699 0 14.167 0.333008 22.5 1s16.666 1.66699 24.999 3s16.166 3.16602 23.499 5.49902s13.666 5.5 18.999 9.5c18.667 12.667 33.334 25 44.001 37s20.5 26.667 29.5 44s18.333 39.166 28 65.499l38.5 101.5l-102 139
l-300 696c-5.33301 13.333 -14.166 24.166 -26.499 32.499s-27.5 16.166 -45.5 23.499l-68 28v59h537v-59l-134 -38l207 -511l41 -97v0l211 602l-132 44v59h379v-59l-70 -34c-17.333 -8.66699 -32.166 -16.834 -44.499 -24.501s-21.166 -18.167 -26.499 -31.5l-376 -1004
c-23.333 -62.667 -47.666 -112.834 -72.999 -150.501s-51.666 -66.667 -78.999 -87s-55.5 -33.666 -84.5 -39.999s-58.833 -9.5 -89.5 -9.5z" />
    <glyph glyph-name="z" unicode="z" horiz-adv-x="938" 
d="M35 69l472.999 703l71 92v0h-284c-23.333 0 -41.166 -4.83301 -53.499 -14.5s-20.833 -20.5 -25.5 -32.5l-60 -157h-80v309h825v-55l-482 -717l-70 -92v0h336c17.333 0 33.5 4.33301 48.5 13s24.833 20 29.5 34l59 177h81v-329h-868v69z" />
    <glyph glyph-name="braceleft" unicode="{" horiz-adv-x="970" 
d="M907 -340c-45.333 0 -89.999 2.66602 -133.999 7.99902s-86 14.166 -126 26.499s-77 28 -111 47s-63.5 42.333 -88.5 70s-44.5 59.834 -58.5 96.501s-21 78.334 -21 125.001v236c0 46 -7.16699 84.333 -21.5 115s-34.833 55.667 -61.5 75s-58.667 33.833 -96 43.5
s-79 16.167 -125 19.5v96c46 4 87.833 10.667 125.5 20s69.667 23.5 96 42.5s46.666 43.833 60.999 74.5s21.5 69.334 21.5 116.001v237c0 45.333 7 86 21 122s33.5 67.833 58.5 95.5s54.5 51.167 88.5 70.5s71 35.166 111 47.499s82 21.333 126 27s88.667 8.5 134 8.5v-93
c-30 -2 -61.5 -6.33301 -94.5 -13s-63.167 -18.5 -90.5 -35.5s-49.833 -40.333 -67.5 -70s-26.5 -68.5 -26.5 -116.5v-189c0 -68 -7.66699 -124.167 -23 -168.5s-36.666 -80.333 -63.999 -108s-60.166 -49 -98.499 -64s-80.5 -27.167 -126.5 -36.5v-30
c46 -9.33301 88.167 -21.333 126.5 -36s71.166 -36 98.499 -64s48.666 -64.167 63.999 -108.5s23 -100.5 23 -168.5v-188c0 -48 8.83301 -86.833 26.5 -116.5s40.167 -53 67.5 -70s57.5 -29 90.5 -36s64.5 -11.5 94.5 -13.5v-94z" />
    <glyph glyph-name="bar" unicode="|" horiz-adv-x="912" 
d="M383 1492h145v-1906h-145v1906z" />
    <glyph glyph-name="braceright" unicode="}" horiz-adv-x="970" 
d="M63 -246c30 2 61.501 6.50098 94.501 13.501s63.167 19 90.5 36s49.833 40.333 67.5 70s26.5 68.5 26.5 116.5v188c0 68 7.66699 124.167 23 168.5s36.666 80.5 63.999 108.5s60.166 49.333 98.499 64s80.5 26.667 126.5 36v30c-46 9.33301 -88.167 21.5 -126.5 36.5
s-71.166 36.333 -98.499 64s-48.666 63.667 -63.999 108s-23 100.5 -23 168.5v189c0 48 -8.83301 86.833 -26.5 116.5s-40.167 53 -67.5 70s-57.5 28.833 -90.5 35.5s-64.5 11 -94.5 13v93c45.333 0 90 -2.83301 134 -8.5s86 -14.667 126 -27s77 -28.166 111 -47.499
s63.5 -42.833 88.5 -70.5s44.5 -59.5 58.5 -95.5s21 -76.667 21 -122v-237c0 -46.667 7.16699 -85.334 21.5 -116.001s34.666 -55.5 60.999 -74.5s58.333 -33.167 96 -42.5s79.5 -16 125.5 -20v-96c-46 -3.33301 -87.667 -9.83301 -125 -19.5s-69.333 -24.167 -96 -43.5
s-47.167 -44.333 -61.5 -75s-21.5 -69 -21.5 -115v-236c0 -46.667 -7 -88.334 -21 -125.001s-33.5 -68.834 -58.5 -96.501s-54.5 -51 -88.5 -70s-71 -34.667 -111 -47s-82 -21.166 -126 -26.499s-88.667 -8 -134 -8v94z" />
    <glyph glyph-name="asciitilde" unicode="~" horiz-adv-x="1354" 
d="M151 402c8.66699 22 19.1631 44.6699 31.4961 68.0029s26.5 46.333 42.5 69s33.833 44 53.5 64s40.834 37.667 63.501 53s46.667 27.5 72 36.5s52.333 13.5 81 13.5c32 0 61.5 -3.5 88.5 -10.5s52.333 -15.667 76 -26s46.167 -21.666 67.5 -33.999
s42.333 -23.666 63 -33.999s41.334 -19 62.001 -26s42.334 -10.5 65.001 -10.5c22 0 41.333 4.33301 58 13s32 21 46 37s27.667 35.167 41 57.5s27.333 47.166 42 74.499l102 -40c-9.33301 -22 -20.5 -44.833 -33.5 -68.5s-27.5 -46.834 -43.5 -69.501
s-33.833 -44.167 -53.5 -64.5s-40.667 -38 -63 -53s-46.166 -27 -71.499 -36s-52 -13.5 -80 -13.5c-32 0 -61.5 3.5 -88.5 10.5s-52.5 15.667 -76.5 26s-46.667 21.666 -68 33.999s-42.333 23.666 -63 33.999s-41.5 19 -62.5 26s-42.833 10.5 -65.5 10.5
c-22 0 -41.333 -4.33301 -58 -13s-32 -20.834 -46 -36.501s-27.5 -34.667 -40.5 -57s-26.5 -46.833 -40.5 -73.5z" />
    <glyph glyph-name="exclamdown" unicode="&#xa1;" horiz-adv-x="739" 
d="M368 637c-24 0 -46.333 4.33496 -67 13.002s-38.667 20.667 -54 36s-27.333 33.166 -36 53.499s-13 42.166 -13 65.499c0 22.667 4.33301 44.167 13 64.5s20.667 38.166 36 53.499s33.333 27.5 54 36.5s43 13.5 67 13.5c22.667 0 44.167 -4.5 64.5 -13.5
s38.166 -21 53.499 -36s27.333 -32.833 36 -53.5s13 -42.334 13 -65.001c0 -23.333 -4.33301 -45.166 -13 -65.499s-20.667 -38.166 -36 -53.499s-33.166 -27.333 -53.499 -36s-41.833 -13 -64.5 -13zM197 -411.998l119 913h103l119 -913v-24h-341v24z" />
    <glyph glyph-name="cent" unicode="&#xa2;" horiz-adv-x="1230" 
d="M659 -1l-5.00391 0.00195312c-73.333 0 -139.5 13.333 -198.5 40s-109.167 62.167 -150.5 106.5s-73.166 95.666 -95.499 153.999s-33.5 119.166 -33.5 182.499c0 38 4.16699 76.333 12.5 115s21 76.167 38 112.5s38.667 71 65 104s57.333 62.833 93 89.5
s76.334 49.334 122.001 68.001s96.5 32 152.5 40v249h99v-241h9h9c39.333 0 74.333 -3 105 -9s57.834 -13 81.501 -21s44.167 -16.167 61.5 -24.5l44 -20.5l-36 -180h-34c-17.333 10.667 -34.833 22.167 -52.5 34.5s-36.167 24.5 -55.5 36.5s-39.833 23 -61.5 33
s-45.167 17.667 -70.5 23v-744c4 0 8 -0.166992 12 -0.5l12 -1c4 -0.333008 8.16699 -0.5 12.5 -0.5h12.5c28.667 0 55.834 4.16699 81.501 12.5s49.167 18.5 70.5 30.5s40.833 24.667 58.5 38l45.5 34h23v-46v-50c-16 -14 -35 -28.833 -57 -44.5
s-46.833 -30.834 -74.5 -45.501s-58 -28 -91 -40s-68.167 -21 -105.5 -27v-258h-99v250zM658.996 895.002c-11.333 -2 -22.3301 -5 -32.9971 -9s-20.834 -8.83301 -30.501 -14.5s-18.834 -11.667 -27.501 -18s-16.334 -12.833 -23.001 -19.5c-10 -10 -20.5 -24 -31.5 -42
s-21.333 -39.333 -31 -64s-17.667 -52.334 -24 -83.001s-9.5 -63.667 -9.5 -99c0 -47.333 3.83301 -91.166 11.5 -131.499s20 -76.833 37 -109.5s38.833 -60.667 65.5 -84s58.667 -41.333 96 -54v728z" />
    <glyph glyph-name="sterling" unicode="&#xa3;" horiz-adv-x="1264" 
d="M129 116c36 17.333 64.8389 36.498 86.5059 57.498s38 43.833 49 68.5s18.167 51.5 21.5 80.5s5 60.5 5 94.5v85h-145l23 93h122v136c0 43.333 12 84.166 36 122.499s58.333 71.833 103 100.5s99.167 51.334 163.5 68.001s136.833 25 217.5 25
c34 0 65.667 -2.16699 95 -6.5s56.5 -9.5 81.5 -15.5s47.833 -12.667 68.5 -20l55 -20l-49 -215h-36l-60 44c-22.667 16.667 -47.5 32.334 -74.5 47.001s-56 27.167 -87 37.5s-63.833 15.5 -98.5 15.5c-16.667 0 -35.334 -4 -56.001 -12s-37.334 -21.667 -50.001 -41
c-7.33301 -11.333 -13.333 -22.833 -18 -34.5s-8.33398 -23.834 -11.001 -36.501s-4.33398 -26.167 -5.00098 -40.5s-1 -30.5 -1 -48.5v-106h367l-21 -93h-346v-42c0 -26 -3.83301 -50.167 -11.5 -72.5s-19 -43.166 -34 -62.499s-33.833 -37.666 -56.5 -54.999
s-49 -34 -79 -50v0l135 2h463c21.333 0 36.666 4.33301 45.999 13s17.666 22.667 24.999 42l44 123h63l-27 -400h-1004v116z" />
    <glyph glyph-name="currency" unicode="&#xa4;" horiz-adv-x="1186" 
d="M155 1249l162 -161c79.333 57.333 171 86 275 86c108.667 0 201 -29 277 -87l163 162l83 -82l-163 -163c59.333 -81.333 89 -173 89 -275c0 -101.333 -30 -193.333 -90 -276l164 -163l-83 -83l-164 164c-83.333 -57.333 -175.333 -86 -276 -86
c-106 0 -197.333 28.333 -274 85l-163 -163l-83 83l162 161c-59.333 79.333 -89 172 -89 278c0 107.333 29.333 199.333 88 276l-161 162zM269 729c0 -49.333 7.83203 -94.6689 23.499 -136.002s37.834 -77 66.501 -107s62.667 -53.5 102 -70.5s83 -25.5 131 -25.5
c50.667 0 96.167 9.33301 136.5 28s74.5 43.667 102.5 75s49.333 67.333 64 108s22 83.334 22 128.001c0 48.667 -8 93.834 -24 135.501s-38.333 77.667 -67 108s-63 54 -103 71s-83.667 25.5 -131 25.5c-51.333 0 -97 -9.33301 -137 -28s-73.667 -43.667 -101 -75
s-48.333 -67.5 -63 -108.5s-22 -83.833 -22 -128.5z" />
    <glyph glyph-name="yen" unicode="&#xa5;" horiz-adv-x="1327" 
d="M336 61l136.999 36.9971c14.667 4 26.167 11.167 34.5 21.5s12.5 22.833 12.5 37.5v136h-380v93h380v18l-48 70h-332v93h273l-229 319c-6 8.66699 -14.333 16.834 -25 24.501s-22.667 13.167 -36 16.5l-82 24v65h573v-65l-159 -38l218 -322l56 -106v0l295 426l-132 40v65
h384v-65l-76 -24c-13.333 -4 -25.166 -9.5 -35.499 -16.5s-19.166 -15.167 -26.499 -24.5l-232 -319h267v-93h-330l-54 -68v-20h384v-93h-384v-136c0 -15.333 4.66699 -28.166 14 -38.499s20.666 -17.166 33.999 -20.499l138 -37v-61h-639v61z" />
    <glyph glyph-name="brokenbar" unicode="&#xa6;" horiz-adv-x="912" 
d="M383 1492h145v-800h-145v800zM383 386h145v-800h-145v800z" />
    <glyph glyph-name="section" unicode="&#xa7;" horiz-adv-x="1285" 
d="M578 -321c-42.667 0 -82.334 2.00098 -119.001 6.00098s-70.167 9 -100.5 15s-57.333 12.833 -81 20.5s-44.167 15.167 -61.5 22.5l44 210h34c11.333 -7.33301 27.5 -18.666 48.5 -33.999s46.333 -30.5 76 -45.5s63.167 -28.167 100.5 -39.5s78.333 -17 123 -17
c24.667 0 46.167 4.16699 64.5 12.5s33.5 19.666 45.5 33.999s20.833 30.833 26.5 49.5s8.5 38.334 8.5 59.001c0 28 -7.33301 52.333 -22 73s-34.834 39.667 -60.501 57s-56.167 33.833 -91.5 49.5l-115 50.5c-63.333 27.333 -115.833 55.333 -157.5 84
s-75 57.834 -100 87.501s-42.667 59.834 -53 90.501s-15.5 62 -15.5 94c0 32.667 5 61.834 15 87.501s23.667 51.834 41 78.501l183 90c-29.333 17.333 -54.5 35.833 -75.5 55.5s-38.333 40.167 -52 61.5s-23.667 43.5 -30 66.5s-9.5 46.5 -9.5 70.5
c0 35.333 6.83301 68.166 20.5 98.499s32.167 57.833 55.5 82.5s50.5 46.334 81.5 65.001s63.667 34.334 98 47.001s69.333 22.167 105 28.5s70.167 9.5 103.5 9.5c42.667 0 82.334 -2 119.001 -6s70 -9.16699 100 -15.5s57 -13.333 81 -21s44.667 -14.834 62 -21.501
l-44 -210h-34c-11.333 7.33301 -27.5 18.666 -48.5 33.999s-46.333 30.5 -76 45.5s-63.167 28.167 -100.5 39.5s-78.333 17 -123 17c-25.333 0 -47 -4.16699 -65 -12.5s-33 -19.666 -45 -33.999s-20.833 -30.833 -26.5 -49.5s-8.5 -38.334 -8.5 -59.001
c0 -28 7.33301 -52.333 22 -73s34.834 -39.667 60.501 -57s56.167 -33.833 91.5 -49.5l115 -50.5c62.667 -27.333 115 -55.333 157 -84s75.5 -57.834 100.5 -87.501s42.667 -59.834 53 -90.501s15.5 -62 15.5 -94c0 -32.667 -5 -61.834 -15 -87.501
s-23.667 -51.834 -41 -78.501l-183 -90c29.333 -17.333 54.5 -35.666 75.5 -54.999s38.333 -39.833 52 -61.5s23.667 -44 30 -67s9.5 -46.5 9.5 -70.5c0 -36 -6.83301 -69 -20.5 -99s-32.167 -57.333 -55.5 -82s-50.5 -46.334 -81.5 -65.001s-63.667 -34.334 -98 -47.001
s-69.333 -22.167 -105 -28.5s-70.167 -9.5 -103.5 -9.5zM811 302.001c10 12 18.667 25.165 26 39.498s13.333 28.5 18 42.5s8.16699 27.5 10.5 40.5s3.5 24.5 3.5 34.5c0 30.667 -7.83301 58.834 -23.5 84.501s-37.5 49.834 -65.5 72.501s-61.333 44 -100 64
s-81 39.667 -127 59c-11.333 4.66699 -23.5 10.167 -36.5 16.5l-41.5 20.5c-10 -12 -18.667 -25.167 -26 -39.5s-13.333 -28.5 -18 -42.5s-8.16699 -27.5 -10.5 -40.5s-3.5 -24.5 -3.5 -34.5c0 -30 7.83301 -58 23.5 -84s37.5 -50.333 65.5 -73s61.333 -44.167 100 -64.5
s81 -39.833 127 -58.5c11.333 -4.66699 23.5 -10.167 36.5 -16.5z" />
    <glyph glyph-name="dieresis" unicode="&#xa8;" horiz-adv-x="1024" 
d="M734 1122c-18.667 0 -36 3.5 -52 10.5s-30 16.5 -42 28.5s-21.5 26.167 -28.5 42.5s-10.5 33.833 -10.5 52.5s3.5 36.167 10.5 52.5s16.5 30.5 28.5 42.5s26 21.5 42 28.5s33.333 10.5 52 10.5s36.334 -3.5 53.001 -10.5s31.334 -16.5 44.001 -28.5
s22.5 -26.167 29.5 -42.5s10.5 -33.833 10.5 -52.5s-3.5 -36.167 -10.5 -52.5s-16.833 -30.5 -29.5 -42.5s-27.334 -21.5 -44.001 -28.5s-34.334 -10.5 -53.001 -10.5zM286 1122c-18.667 0 -36 3.5 -52 10.5s-30 16.5 -42 28.5s-21.5 26.167 -28.5 42.5
s-10.5 33.833 -10.5 52.5s3.5 36.167 10.5 52.5s16.5 30.5 28.5 42.5s26 21.5 42 28.5s33.333 10.5 52 10.5s36.334 -3.5 53.001 -10.5s31.334 -16.5 44.001 -28.5s22.5 -26.167 29.5 -42.5s10.5 -33.833 10.5 -52.5s-3.5 -36.167 -10.5 -52.5s-16.833 -30.5 -29.5 -42.5
s-27.334 -21.5 -44.001 -28.5s-34.334 -10.5 -53.001 -10.5z" />
    <glyph glyph-name="copyright" unicode="&#xa9;" horiz-adv-x="1815" 
d="M921 -176c-72.667 0 -142.667 9.49902 -210 28.499s-130.166 45.667 -188.499 80s-111.666 75.5 -159.999 123.5s-89.666 101.167 -123.999 159.5s-61 121 -80 188s-28.5 136.833 -28.5 209.5c0 72 9.5 141.333 28.5 208s45.667 129.167 80 187.5
s75.666 111.5 123.999 159.5s101.666 89 159.999 123s121.166 60.5 188.499 79.5s137.333 28.5 210 28.5c71.333 0 140.5 -9.5 207.5 -28.5s129.5 -45.5 187.5 -79.5s111 -75 159 -123s89.167 -101.167 123.5 -159.5s61 -120.833 80 -187.5s28.5 -136 28.5 -208
s-9.5 -141.667 -28.5 -209s-45.667 -130.166 -80 -188.499s-75.5 -111.5 -123.5 -159.5s-101 -89.167 -159 -123.5s-120.5 -61 -187.5 -80s-136.167 -28.5 -207.5 -28.5zM921 -81.001c63.333 0 124.166 8.16699 182.499 24.5s112.5 39.5 162.5 69.5s95.5 66.167 136.5 108.5
s76 89.166 105 140.499s51.333 106.666 67 165.999s23.5 121 23.5 185c0 63.333 -7.83301 124.333 -23.5 183s-38 113.5 -67 164.5s-64 97.333 -105 139s-86.5 77.5 -136.5 107.5s-104.167 53.167 -162.5 69.5s-119.166 24.5 -182.499 24.5
c-64 0 -125.333 -8.16699 -184 -24.5s-113.167 -39.5 -163.5 -69.5s-96 -65.833 -137 -107.5s-76 -88 -105 -139s-51.5 -105.833 -67.5 -164.5s-24 -119.667 -24 -183c0 -64 8 -125.667 24 -185s38.5 -114.666 67.5 -165.999s64 -98.166 105 -140.499
s86.667 -78.5 137 -108.5s104.833 -53.167 163.5 -69.5s120 -24.5 184 -24.5zM950 162.999c-67.333 0 -128.501 10.1709 -183.501 30.5039s-102.167 49.666 -141.5 87.999s-69.833 85 -91.5 140s-32.5 117.5 -32.5 187.5c0 67.333 11.167 128.666 33.5 183.999
s53.5 102.666 93.5 141.999s87.667 69.833 143 91.5s115.666 32.5 180.999 32.5c23.333 0 48.833 -2 76.5 -6s55.5 -8.66699 83.5 -14s55.167 -11.166 81.5 -17.499l70.5 -16.5v-246h-106l-26 130c-0.666992 3.33301 -3 7.16602 -7 11.499s-7.66699 7.16602 -11 8.49902
c-26.667 12.667 -52 23 -76 31s-52.667 12 -86 12c-41.333 0 -78 -7.16699 -110 -21.5s-59 -35 -81 -62s-38.833 -60 -50.5 -99s-17.5 -83.5 -17.5 -133.5c0 -54 5.83301 -102.5 17.5 -145.5s29.834 -79.5 54.501 -109.5s55.667 -53 93 -69s81.666 -24 132.999 -24
c27.333 0 53 4.33301 77 13s45.833 19 65.5 31s37.334 24.333 53.001 37s29.167 23 40.5 31h54v-103c-19.333 -15.333 -41.333 -30.833 -66 -46.5s-51.167 -30 -79.5 -43s-58.166 -23.667 -89.499 -32s-63.333 -12.5 -96 -12.5z" />
    <glyph glyph-name="ordfeminine" unicode="&#xaa;" horiz-adv-x="1014" 
d="M331 651c-30 0 -57.3398 5.16895 -82.0068 15.502s-45.834 24.5 -63.501 42.5s-31.334 38.667 -41.001 62s-14.5 48 -14.5 74c0 30 5.66699 57 17 81s26.333 45.5 45 64.5s40.167 35.167 64.5 48.5s49.5 24.5 75.5 33.5s52 15.5 78 19.5s50 6 72 6
c4 0 9.83301 -0.333008 17.5 -1s15.834 -1.33398 24.501 -2.00098l26 -2c8.66699 -0.666992 16 -1 22 -1l1 95c0 22 -1.83301 40 -5.5 54s-9.66699 25.167 -18 33.5s-18.833 14.166 -31.5 17.499s-27.667 5 -45 5c-23.333 0 -46.666 -4.33301 -69.999 -13
s-45.5 -19.167 -66.5 -31.5s-40.333 -25.166 -58 -38.499l-45.5 -34h-26l-30 151c18 8.66699 37.667 17.167 59 25.5s44 15.666 68 21.999s49.5 11.333 76.5 15s55.5 5.5 85.5 5.5c36.667 0 73.834 -4 111.501 -12s71.834 -21 102.501 -39s55.667 -41.833 75 -71.5
s28.666 -66.5 27.999 -110.5l-5 -360c0 -12.667 5 -22.167 15 -28.5s24 -9.5 42 -9.5c2.66699 0 6.83398 0.5 12.501 1.5s11.834 2.16699 18.501 3.5l20 4c6.66699 1.33301 12.334 2.66602 17.001 3.99902h17v-67c-8 -5.33301 -20 -11.666 -36 -18.999
s-33.167 -14.333 -51.5 -21s-36.833 -12.167 -55.5 -16.5s-35 -6.5 -49 -6.5c-19.333 0 -38 1.83301 -56 5.5s-34.333 9.83398 -49 18.501s-26.667 20 -36 34s-14.666 31 -15.999 51h-6c-18 -21.333 -36.333 -38.833 -55 -52.5s-37.667 -24.834 -57 -33.501
s-39.166 -14.667 -59.499 -18s-41.166 -5 -62.499 -5zM444.993 766.002c10.667 0 21.832 1.33398 33.499 4.00098s23.167 7 34.5 13s21.833 13.5 31.5 22.5s18.167 19.833 25.5 32.5l2 193c-32.667 0 -62.667 -3.33301 -90 -10s-50.666 -16.5 -69.999 -29.5
s-34.5 -29.5 -45.5 -49.5s-16.5 -43.333 -16.5 -70c0 -20.667 3 -37.834 9 -51.501s13.667 -24.5 23 -32.5s19.5 -13.667 30.5 -17s21.833 -5 32.5 -5z" />
    <glyph glyph-name="guillemotleft" unicode="&#xab;" horiz-adv-x="1258" 
d="M611 492v89l349 349h125l-226 -393l226 -397h-125zM202 492v89l350 349h124l-226 -393l226 -397h-124z" />
    <glyph glyph-name="logicalnot" unicode="&#xac;" horiz-adv-x="1354" 
d="M994 507h-805v146h958v-581h-153v435z" />
    <glyph glyph-name="registered" unicode="&#xae;" horiz-adv-x="1837" 
d="M920 -176c-72 0 -141.668 9.49707 -209.001 28.4971s-130.166 45.667 -188.499 80s-111.666 75.5 -159.999 123.5s-89.666 101.333 -123.999 160s-61 121.5 -80 188.5s-28.5 136.833 -28.5 209.5c0 71.333 9.5 140.333 28.5 207s45.667 129.167 80 187.5
s75.666 111.5 123.999 159.5s101.666 89 159.999 123s121 60.5 188 79.5s136.833 28.5 209.5 28.5c72 0 141.5 -9.5 208.5 -28.5s129.5 -45.5 187.5 -79.5s111.167 -75 159.5 -123s89.5 -101.167 123.5 -159.5s60.5 -120.833 79.5 -187.5s28.5 -135.667 28.5 -207
c0 -72 -9.5 -141.667 -28.5 -209s-45.5 -130.166 -79.5 -188.499s-75.167 -111.666 -123.5 -159.999s-101.5 -89.666 -159.5 -123.999s-120.5 -61 -187.5 -80s-136.5 -28.5 -208.5 -28.5zM920.999 -80.0029c63.333 0 124 8.16699 182 24.5s112.167 39.5 162.5 69.5
s96 66 137 108s76 88.667 105 140s51.5 106.666 67.5 165.999s24 121 24 185c0 63.333 -8 124.333 -24 183s-38.5 113.5 -67.5 164.5s-64 97.5 -105 139.5s-86.667 78 -137 108s-104.5 53.167 -162.5 69.5s-118.667 24.5 -182 24.5c-64 0 -125.167 -8.16699 -183.5 -24.5
s-112.666 -39.5 -162.999 -69.5s-96.166 -66 -137.499 -108s-76.5 -88.5 -105.5 -139.5s-51.5 -105.833 -67.5 -164.5s-24 -119.667 -24 -183c0 -64 8 -125.667 24 -185s38.5 -114.666 67.5 -165.999s64.167 -98 105.5 -140s87.166 -78 137.499 -108
s104.666 -53.167 162.999 -69.5s119.5 -24.5 183.5 -24.5zM539.999 259.997l106.006 34.0029c4 1.33301 7 3.16602 9 5.49902s3 5.16602 3 8.49902v623c0 4 -1.33301 6.66699 -4 8l-8 4l-106 35v62h382c70.667 0 128 -6.66699 172 -20s78.167 -30.5 102.5 -51.5
s40.666 -44.667 48.999 -71s12.5 -52.5 12.5 -78.5c0 -32 -5.5 -61 -16.5 -87s-25.5 -48.667 -43.5 -68s-38 -35.5 -60 -48.5s-44 -22.833 -66 -29.5l213 -263c3.33301 -4.66699 8.66602 -10.5 15.999 -17.5s14.666 -11.833 21.999 -14.5l104 -31v-61h-174
c-22.667 0 -40.334 1 -53.001 3s-23.334 6 -32.001 12s-16.834 14 -24.501 24l-29.5 39l-206 269l-88 20v-258c0 -4.66699 1.33301 -7.83398 4 -9.50098s5.66699 -3.16699 9 -4.5l107 -34v-61h-400v61zM909.005 643c30 0 55.832 4.33496 77.499 13.002
s39.5 20.167 53.5 34.5s24.333 30.666 31 48.999s10 37.166 10 56.499c0 52.667 -15.167 91.167 -45.5 115.5s-76.833 36.5 -139.5 36.5h-76v-300c12.667 -1.33301 27.834 -2.5 45.501 -3.5s32.167 -1.5 43.5 -1.5z" />
    <glyph glyph-name="degree" unicode="&#xb0;" horiz-adv-x="910" 
d="M454 818c-50 0 -95.3291 8 -135.996 24s-75.334 38.333 -104.001 67s-50.834 63 -66.501 103s-23.5 83.667 -23.5 131c0 49.333 8.16699 94 24.5 134s39.166 74 68.499 102s64.166 49.5 104.499 64.5s84.5 22.5 132.5 22.5c50 0 95.333 -7.66699 136 -23
s75.5 -37.166 104.5 -65.499s51.5 -62.333 67.5 -102s24 -83.834 24 -132.501c0 -48 -8 -92 -24 -132s-38.5 -74.167 -67.5 -102.5s-63.833 -50.5 -104.5 -66.5s-86 -24 -136 -24zM456.004 923c22.667 0 43.166 5.16699 61.499 15.5s33.833 25 46.5 44s22.5 41.667 29.5 68
s10.5 55.166 10.5 86.499c0 32.667 -2.83301 62.834 -8.5 90.501s-14.667 51.5 -27 71.5s-28 35.5 -47 46.5s-41.833 16.5 -68.5 16.5c-27.333 0 -50.333 -5.83301 -69 -17.5s-33.667 -27.334 -45 -47.001s-19.666 -42.667 -24.999 -69s-8 -54.166 -8 -83.499
c0 -30.667 2.5 -59.5 7.5 -86.5s13.333 -50.5 25 -70.5s27 -35.833 46 -47.5s42.833 -17.5 71.5 -17.5z" />
    <glyph glyph-name="plusminus" unicode="&#xb1;" horiz-adv-x="1354" 
d="M194 166h409v367h-409v146h409v414h149v-414h408v-146h-408v-367h408v-147h-966v147z" />
    <glyph glyph-name="uni00B2" unicode="&#xb2;" horiz-adv-x="808" 
d="M59 874c64 54.667 122.002 106.834 174.002 156.501s96.167 98.5 132.5 146.5s64.333 95.5 84 142.5s29.5 95.5 29.5 145.5c0 26 -1.66699 49.667 -5 71s-9 39.5 -17 54.5s-19 26.667 -33 35s-31.667 12.5 -53 12.5c-22 0 -43.667 -4.33301 -65 -13
s-42.166 -19.5 -62.499 -32.5s-40.166 -27.667 -59.499 -44l-57 -46.5h-23l-29 159c12 7.33301 27.833 15.833 47.5 25.5s42.167 19 67.5 28s53 16.5 83 22.5s61.667 9 95 9c47.333 0 91.666 -5.66699 132.999 -17s77.166 -28 107.499 -50s54.166 -49 71.499 -81
s26 -68.667 26 -110c0 -34 -5 -66.333 -15 -97s-24.333 -60.667 -43 -90s-41.167 -58.333 -67.5 -87s-55.666 -57.5 -87.999 -86.5s-67.333 -58.667 -105 -89l-118.5 -94.5v0l80 3h258c15.333 0 26.666 3.66699 33.999 11s12.666 15.666 15.999 24.999l32 93h54l-19 -280
h-665v78z" />
    <glyph glyph-name="uni00B3" unicode="&#xb3;" horiz-adv-x="810" 
d="M347 777c-36.667 0 -70.332 2.33301 -100.999 7s-58.667 10.5 -84 17.5s-47.833 14.667 -67.5 23s-36.834 16.166 -51.501 23.499l29 159h35c10.667 -8.66699 26.834 -20.167 48.501 -34.5s45.167 -28.333 70.5 -42s50.833 -25.5 76.5 -35.5s47.834 -15 66.501 -15
c29.333 0 54.5 3.5 75.5 10.5s38.167 18 51.5 33s23 34.333 29 58s9 52.167 9 85.5c0 26.667 -3.83301 50.5 -11.5 71.5s-20 38.833 -37 53.5s-38.833 25.834 -65.5 33.501s-59.334 11.5 -98.001 11.5h-89v116h72c30.667 0 58.167 2 82.5 6s45 11.667 62 23
s29.833 27 38.5 47s13 46 13 78c0 22 -2 41.5 -6 58.5s-10.333 31.333 -19 43s-20 20.5 -34 26.5s-31 9 -51 9c-18.667 0 -39.167 -4.83301 -61.5 -14.5s-44.5 -21.167 -66.5 -34.5s-42.667 -27.166 -62 -41.499l-48 -35.5h-32l-30 158l43 19.5
c18 8.33301 39.167 16.166 63.5 23.499s51.5 13.833 81.5 19.5s62 8.5 96 8.5c46.667 0 91 -4.83301 133 -14.5s78.667 -23.834 110 -42.501s56.166 -41.667 74.499 -69s27.5 -58.333 27.5 -93c0 -25.333 -3.83301 -48.833 -11.5 -70.5s-21.167 -41.5 -40.5 -59.5
s-45.833 -34.5 -79.5 -49.5s-76.5 -28.833 -128.5 -41.5v-3c40.667 -1.33301 79 -6.83301 115 -16.5s67.167 -24 93.5 -43s47.166 -43 62.499 -72s23 -63.5 23 -103.5c0 -45.333 -10.833 -86.166 -32.5 -122.499s-51.167 -67 -88.5 -92s-80.666 -44.167 -129.999 -57.5
s-101.333 -20 -156 -20z" />
    <glyph glyph-name="acute" unicode="&#xb4;" horiz-adv-x="1024" 
d="M315 1112l74.502 108.501l53 77l39.5 56.5l35 48c13.333 18 26.166 32.5 38.499 43.5s24.666 19.5 36.999 25.5s25 10 38 12s27.167 3 42.5 3c16 0 30.5 -2.33301 43.5 -7s24.167 -11 33.5 -19s16.5 -17.167 21.5 -27.5s7.5 -21.166 7.5 -32.499
c0 -12.667 -1.66699 -24.334 -5 -35.001s-8.33301 -20.834 -15 -30.501s-15.167 -19.167 -25.5 -28.5s-22.5 -19 -36.5 -29c-16 -11.333 -33 -22.5 -51 -33.5l-64 -39l-88.5 -53.5l-125.5 -77z" />
    <glyph glyph-name="paragraph" unicode="&#xb6;" horiz-adv-x="1355" 
d="M667 602l-66.001 -0.000976562c-90.667 0 -166.167 11.667 -226.5 35s-108.5 53.5 -144.5 90.5s-61.5 78.167 -76.5 123.5s-22.5 90.333 -22.5 135c0 28 3.16699 57 9.5 87s16.166 59.5 29.499 88.5s30.5 56.667 51.5 83s46.333 49.333 76 69
s63.834 35.334 102.501 47.001s82.334 17.5 131.001 17.5h697v-61l-126 -36c-16 -4.66699 -28 -12 -36 -22s-12 -22.667 -12 -38v-1543h-106v1610h-174v-1610h-107v924z" />
    <glyph glyph-name="periodcentered" unicode="&#xb7;" horiz-adv-x="588" 
d="M295 380c-23.333 0 -45.333 4.5 -66 13.5s-38.667 21.167 -54 36.5s-27.5 33.166 -36.5 53.499s-13.5 41.833 -13.5 64.5c0 23.333 4.5 45.166 13.5 65.499s21.167 38.166 36.5 53.499s33.333 27.333 54 36s42.667 13 66 13c22.667 0 44.334 -4.33301 65.001 -13
s38.5 -20.667 53.5 -36s27 -33.166 36 -53.499s13.5 -42.166 13.5 -65.499s-4.5 -45.166 -13.5 -65.499s-21 -38 -36 -53s-32.833 -27 -53.5 -36s-42.334 -13.5 -65.001 -13.5z" />
    <glyph glyph-name="periodcentered" unicode="&#x2219;" horiz-adv-x="588" 
d="M295 380c-23.333 0 -45.333 4.5 -66 13.5s-38.667 21.167 -54 36.5s-27.5 33.166 -36.5 53.499s-13.5 41.833 -13.5 64.5c0 23.333 4.5 45.166 13.5 65.499s21.167 38.166 36.5 53.499s33.333 27.333 54 36s42.667 13 66 13c22.667 0 44.334 -4.33301 65.001 -13
s38.5 -20.667 53.5 -36s27 -33.166 36 -53.499s13.5 -42.166 13.5 -65.499s-4.5 -45.166 -13.5 -65.499s-21 -38 -36 -53s-32.833 -27 -53.5 -36s-42.334 -13.5 -65.001 -13.5z" />
    <glyph glyph-name="cedilla" unicode="&#xb8;" horiz-adv-x="1024" 
d="M531 -446c-34 0 -66.8311 5.33203 -98.498 15.999s-61.5 23.667 -89.5 39v91h23c8 -5.33301 17.667 -11.166 29 -17.499s23.833 -12.166 37.5 -17.499s28 -9.83301 43 -13.5s30.5 -5.5 46.5 -5.5c30 0 53.167 8 69.5 24s24.5 36 24.5 60
c0 29.333 -11.167 48.833 -33.5 58.5s-58.5 14.5 -108.5 14.5v207h92v-102c26.667 0 52.5 -2.5 77.5 -7.5s47.167 -13.5 66.5 -25.5s34.833 -27.833 46.5 -47.5s17.5 -43.834 17.5 -72.501c0 -32 -5.83301 -60.5 -17.5 -85.5s-28.334 -46 -50.001 -63
s-47.334 -30 -77.001 -39s-62.5 -13.5 -98.5 -13.5z" />
    <glyph glyph-name="uni00B9" unicode="&#xb9;" horiz-adv-x="644" 
d="M85 863l119.002 18c9.33301 1.33301 16.666 5.83301 21.999 13.5s8 16.5 8 26.5v577l4 95h-3l-176 -51v72l257 125h141c-0.666992 -14.667 -1.33398 -31.5 -2.00098 -50.5s-1.16699 -38.5 -1.5 -58.5l-1 -60c-0.333008 -20 -0.5 -38 -0.5 -54v-595
c0 -11.333 2.5 -20.333 7.5 -27s12.5 -11 22.5 -13l111 -18v-67h-508v67z" />
    <glyph glyph-name="ordmasculine" unicode="&#xba;" horiz-adv-x="1038" 
d="M515 645c-60 0 -113.835 8.83301 -161.502 26.5s-88.167 43 -121.5 76s-59 72.5 -77 118.5s-27 97.667 -27 155c0 52.667 8.83301 102 26.5 148s43.334 86 77.001 120s75 60.833 124 80.5s104.833 29.5 167.5 29.5c66.667 0 124.334 -10.5 173.001 -31.5
s88.834 -48.833 120.501 -83.5s55.167 -74.667 70.5 -120s23 -92.333 23 -141c0 -52 -8.83301 -100.833 -26.5 -146.5s-43.334 -85.667 -77.001 -120s-75 -61.5 -124 -81.5s-104.833 -30 -167.5 -30zM524.998 727c32 0 58.1631 9.16602 78.4961 27.499s36.333 41.5 48 69.5
s19.5 58.667 23.5 92s6 64.666 6 93.999c0 36 -2.83301 72.333 -8.5 109s-15 69.834 -28 99.501s-30.167 53.667 -51.5 72s-48 27.5 -80 27.5s-58.167 -9.16699 -78.5 -27.5s-36.166 -41.5 -47.499 -69.5s-19.166 -58.5 -23.499 -91.5s-6.5 -64.167 -6.5 -93.5
c0 -32.667 2.33301 -67.167 7 -103.5s13.334 -69.666 26.001 -99.999s29.834 -55.5 51.501 -75.5s49.5 -30 83.5 -30z" />
    <glyph glyph-name="guillemotright" unicode="&#xbb;" horiz-adv-x="1258" 
d="M808 537l-226 393h124l350 -349v-89l-350 -352h-124zM399 537l-226 393h125l349 -349v-89l-349 -352h-125z" />
    <glyph glyph-name="onequarter" unicode="&#xbc;" horiz-adv-x="1729" 
d="M1229 1440h133l-872 -1540h-134zM1238 -47l75 26c10.667 3.33301 18.5 8.33301 23.5 15s7.5 15 7.5 25v149h-418v109l481 597h148v-597h160v-109h-160v-149c0 -11.333 2.5 -19.833 7.5 -25.5s12.5 -10.5 22.5 -14.5l67 -26v-51h-414v51zM1111 277h233v275l5 117h-4
l-317 -392v-7zM85 565l119.002 18c9.33301 1.33301 16.666 5.83301 21.999 13.5s8 16.5 8 26.5v577l4 95h-3l-176 -51v72l257 125h141c-0.666992 -14.667 -1.33398 -31.5 -2.00098 -50.5s-1.16699 -38.5 -1.5 -58.5l-1 -60c-0.333008 -20 -0.5 -38 -0.5 -54v-595
c0 -11.333 2.5 -20.333 7.5 -27s12.5 -11 22.5 -13l111 -18v-67h-508v67z" />
    <glyph glyph-name="onehalf" unicode="&#xbd;" horiz-adv-x="1735" 
d="M1229 1440h133l-872 -1540h-134zM1082 -20c64 54.667 122.002 106.834 174.002 156.501s96.167 98.5 132.5 146.5s64.333 95.5 84 142.5s29.5 95.5 29.5 145.5c0 26 -1.66699 49.667 -5 71s-9 39.5 -17 54.5s-19 26.667 -33 35s-31.667 12.5 -53 12.5
c-22 0 -43.667 -4.33301 -65 -13s-42.166 -19.5 -62.499 -32.5s-40.166 -27.667 -59.499 -44l-57 -46.5h-23l-29 159c12 7.33301 27.833 15.833 47.5 25.5s42.167 19 67.5 28s53 16.5 83 22.5s61.667 9 95 9c47.333 0 91.666 -5.66699 132.999 -17s77.166 -28 107.499 -50
s54.166 -49 71.499 -81s26 -68.667 26 -110c0 -34 -5 -66.333 -15 -97s-24.333 -60.667 -43 -90s-41.167 -58.333 -67.5 -87s-55.666 -57.5 -87.999 -86.5s-67.333 -58.667 -105 -89l-118.5 -94.5v0l80 3h258c15.333 0 26.666 3.66699 33.999 11
s12.666 15.666 15.999 24.999l32 93h54l-19 -280h-665v78zM85.002 565l119.002 18c9.33301 1.33301 16.666 5.83301 21.999 13.5s8 16.5 8 26.5v577l4 95h-3l-176 -51v72l257 125h141c-0.666992 -14.667 -1.33398 -31.5 -2.00098 -50.5s-1.16699 -38.5 -1.5 -58.5l-1 -60
c-0.333008 -20 -0.5 -38 -0.5 -54v-595c0 -11.333 2.5 -20.333 7.5 -27s12.5 -11 22.5 -13l111 -18v-67h-508v67z" />
    <glyph glyph-name="threequarters" unicode="&#xbe;" horiz-adv-x="1888" 
d="M1397 -47l75 26c10.667 3.33301 18.5 8.33301 23.5 15s7.5 15 7.5 25v149h-418v109l481 597h148v-597h160v-109h-160v-149c0 -11.333 2.5 -19.833 7.5 -25.5s12.5 -10.5 22.5 -14.5l67 -26v-51h-414v51zM1270 277h233v275l5 117h-4l-317 -392v-7zM1349 1440h133
l-872 -1540h-134zM347 479c-36.667 0 -70.332 2.33301 -100.999 7s-58.667 10.5 -84 17.5s-47.833 14.667 -67.5 23s-36.834 16.166 -51.501 23.499l29 159h35c10.667 -8.66699 26.834 -20.167 48.501 -34.5s45.167 -28.333 70.5 -42s50.833 -25.5 76.5 -35.5
s47.834 -15 66.501 -15c29.333 0 54.5 3.5 75.5 10.5s38.167 18 51.5 33s23 34.333 29 58s9 52.167 9 85.5c0 26.667 -3.83301 50.5 -11.5 71.5s-20 38.833 -37 53.5s-38.833 25.834 -65.5 33.501s-59.334 11.5 -98.001 11.5h-89v116h72c30.667 0 58.167 2 82.5 6
s45 11.667 62 23s29.833 27 38.5 47s13 46 13 78c0 22 -2 41.5 -6 58.5s-10.333 31.333 -19 43s-20 20.5 -34 26.5s-31 9 -51 9c-18.667 0 -39.167 -4.83301 -61.5 -14.5s-44.5 -21.167 -66.5 -34.5s-42.667 -27.166 -62 -41.499l-48 -35.5h-32l-30 158l43 19.5
c18 8.33301 39.167 16.166 63.5 23.499s51.5 13.833 81.5 19.5s62 8.5 96 8.5c46.667 0 91 -4.83301 133 -14.5s78.667 -23.834 110 -42.501s56.166 -41.667 74.499 -69s27.5 -58.333 27.5 -93c0 -25.333 -3.83301 -48.833 -11.5 -70.5s-21.167 -41.5 -40.5 -59.5
s-45.833 -34.5 -79.5 -49.5s-76.5 -28.833 -128.5 -41.5v-3c40.667 -1.33301 79 -6.83301 115 -16.5s67.167 -24 93.5 -43s47.166 -43 62.499 -72s23 -63.5 23 -103.5c0 -45.333 -10.833 -86.166 -32.5 -122.499s-51.167 -67 -88.5 -92s-80.666 -44.167 -129.999 -57.5
s-101.333 -20 -156 -20z" />
    <glyph glyph-name="questiondown" unicode="&#xbf;" horiz-adv-x="1065" 
d="M638 640c-23.333 0 -45 4.33105 -65 12.998s-37.667 20.667 -53 36s-27.333 33.166 -36 53.499s-13 42.166 -13 65.499c0 22.667 4.33301 44.334 13 65.001s20.667 38.5 36 53.5s33 27 53 36s41.667 13.5 65 13.5c24 0 46.333 -4.5 67 -13.5s38.667 -21.167 54 -36.5
s27.333 -33.166 36 -53.499s13 -41.833 13 -64.5c0 -23.333 -4.33301 -45.166 -13 -65.499s-20.667 -38.166 -36 -53.499s-33.333 -27.333 -54 -36s-43 -13 -67 -13zM578 -464.002c-68.667 0 -132.172 8.33398 -190.505 25.001s-108.666 41.334 -150.999 74.001
s-75.5 73 -99.5 121s-36 103.333 -36 166c0 59.333 11.667 115 35 167s55 97.667 95 137s87 71.333 141 96s111.667 39.667 173 45l51 169h108v-318c-26 -0.666992 -52.167 -3.33398 -78.5 -8.00098s-51.666 -12.167 -75.999 -22.5s-47.166 -23.666 -68.499 -39.999
s-39.833 -36.166 -55.5 -59.499s-28 -50.5 -37 -81.5s-13.5 -66.5 -13.5 -106.5c0 -39.333 2.33301 -74.333 7 -105s13 -56.334 25 -77.001s28.333 -36.334 49 -47.001s47 -16 79 -16c30.667 0 61.667 6.16699 93 18.5s62.333 27.833 93 46.5s60.334 38.834 89.001 60.501
l81 60.5h26l36 -203l-62 -29.5c-24.667 -11.667 -53 -22.834 -85 -33.501s-67.167 -19.834 -105.5 -27.501s-79.166 -11.5 -122.499 -11.5z" />
    <glyph glyph-name="Agrave" unicode="&#xc0;" horiz-adv-x="1287" 
d="M-73 61l91.999 35.001c28.667 11.333 48.334 31 59.001 59l397 1014l121 230h121l490 -1244c5.33301 -13.333 13.5 -25.333 24.5 -36s22.5 -18.334 34.5 -23.001l92 -35v-61h-602v61l174 43l-150 381h-443l-145 -377l170 -47v-61h-435v61zM736.999 595.001l-131 332
l-51 135v0l-174 -467h356zM785.999 1486l-125.499 77.001l-88.5 53.5l-64 39c-18 11 -35 22.167 -51 33.5c-29.333 20.667 -50.333 40 -63 58s-19 39.667 -19 65c0 11.333 2.5 22.166 7.5 32.499s12.167 19.5 21.5 27.5s20.5 14.333 33.5 19s27.5 7 43.5 7
c14.667 0 28.5 -1 41.5 -3s25.833 -6 38.5 -12s25.167 -14.5 37.5 -25.5s25.166 -25.5 38.499 -43.5l35 -48l39.5 -56.5l53 -77l74.5 -108.5z" />
    <glyph glyph-name="Aacute" unicode="&#xc1;" horiz-adv-x="1287" 
d="M-73 61l91.999 35.001c28.667 11.333 48.334 31 59.001 59l397 1014l121 230h121l490 -1244c5.33301 -13.333 13.5 -25.333 24.5 -36s22.5 -18.334 34.5 -23.001l92 -35v-61h-602v61l174 43l-150 381h-443l-145 -377l170 -47v-61h-435v61zM736.999 595.001l-131 332
l-51 135v0l-174 -467h356zM444.999 1524l74.502 108.501l53 77l39.5 56.5l35 48c13.333 18 26.166 32.5 38.499 43.5s24.666 19.5 36.999 25.5s25 10 38 12s27.167 3 42.5 3c16 0 30.5 -2.33301 43.5 -7s24.167 -11 33.5 -19s16.5 -17.167 21.5 -27.5
s7.5 -21.166 7.5 -32.499c0 -12.667 -1.66699 -24.334 -5 -35.001s-8.33301 -20.834 -15 -30.501s-15.167 -19.167 -25.5 -28.5s-22.5 -19 -36.5 -29c-16 -11.333 -33 -22.5 -51 -33.5l-64 -39l-88.5 -53.5l-125.5 -77z" />
    <glyph glyph-name="Acircumflex" unicode="&#xc2;" horiz-adv-x="1287" 
d="M-73 61l91.999 35.001c28.667 11.333 48.334 31 59.001 59l397 1014l121 230h121l490 -1244c5.33301 -13.333 13.5 -25.333 24.5 -36s22.5 -18.334 34.5 -23.001l92 -35v-61h-602v61l174 43l-150 381h-443l-145 -377l170 -47v-61h-435v61zM736.999 595.001l-131 332
l-51 135v0l-174 -467h356zM305.999 1518l194.001 289c17.333 26.667 37.666 46.667 60.999 60s50 20 80 20s56.833 -6.66699 80.5 -20s44.167 -33.333 61.5 -60l195 -288l-52 -35l-284 232l-285 -234z" />
    <glyph glyph-name="Atilde" unicode="&#xc3;" horiz-adv-x="1287" 
d="M-73 61l91.999 35.001c28.667 11.333 48.334 31 59.001 59l397 1014l121 230h121l490 -1244c5.33301 -13.333 13.5 -25.333 24.5 -36s22.5 -18.334 34.5 -23.001l92 -35v-61h-602v61l174 43l-150 381h-443l-145 -377l170 -47v-61h-435v61zM736.999 595.001l-131 332
l-51 135v0l-174 -467h356zM282.999 1545c6.66699 40 17.5039 76.834 32.5039 110.501s33.167 62.834 54.5 87.501s45.666 43.834 72.999 57.501s56.666 20.5 87.999 20.5c21.333 0 44.666 -3.83301 69.999 -11.5s53.333 -19.834 84 -36.501
c32 -17.333 58.5 -29.333 79.5 -36s37.167 -10 48.5 -10c36.667 0 63.667 9.5 81 28.5s30.333 45.5 39 79.5h74c-6 -39.333 -16.167 -75.833 -30.5 -109.5s-32 -62.834 -53 -87.501s-45 -43.834 -72 -57.501s-56.167 -20.5 -87.5 -20.5c-11.333 0 -22 0.666992 -32 2
s-20.833 3.83301 -32.5 7.5s-24.5 8.66699 -38.5 15s-30.333 14.833 -49 25.5c-30 16.667 -56.167 28.667 -78.5 36s-39.5 11 -51.5 11c-37.333 0 -65.333 -10 -84 -30s-32.334 -47.333 -41.001 -82h-74z" />
    <glyph glyph-name="Adieresis" unicode="&#xc4;" horiz-adv-x="1287" 
d="M-73 61l91.999 35.001c28.667 11.333 48.334 31 59.001 59l397 1014l121 230h121l490 -1244c5.33301 -13.333 13.5 -25.333 24.5 -36s22.5 -18.334 34.5 -23.001l92 -35v-61h-602v61l174 43l-150 381h-443l-145 -377l170 -47v-61h-435v61zM736.999 595.001l-131 332
l-51 135v0l-174 -467h356zM863.999 1534c-18.667 0 -36 3.5 -52 10.5s-30 16.5 -42 28.5s-21.5 26.167 -28.5 42.5s-10.5 33.833 -10.5 52.5s3.5 36.167 10.5 52.5s16.5 30.5 28.5 42.5s26 21.5 42 28.5s33.333 10.5 52 10.5s36.334 -3.5 53.001 -10.5
s31.334 -16.5 44.001 -28.5s22.5 -26.167 29.5 -42.5s10.5 -33.833 10.5 -52.5s-3.5 -36.167 -10.5 -52.5s-16.833 -30.5 -29.5 -42.5s-27.334 -21.5 -44.001 -28.5s-34.334 -10.5 -53.001 -10.5zM415.999 1534c-18.667 0 -36 3.5 -52 10.5s-30 16.5 -42 28.5
s-21.5 26.167 -28.5 42.5s-10.5 33.833 -10.5 52.5s3.5 36.167 10.5 52.5s16.5 30.5 28.5 42.5s26 21.5 42 28.5s33.333 10.5 52 10.5s36.334 -3.5 53.001 -10.5s31.334 -16.5 44.001 -28.5s22.5 -26.167 29.5 -42.5s10.5 -33.833 10.5 -52.5s-3.5 -36.167 -10.5 -52.5
s-16.833 -30.5 -29.5 -42.5s-27.334 -21.5 -44.001 -28.5s-34.334 -10.5 -53.001 -10.5z" />
    <glyph glyph-name="Aring" unicode="&#xc5;" horiz-adv-x="1287" 
d="M-73 61l91.999 35.001c28.667 11.333 48.334 31 59.001 59l397 1014l121 230h121l490 -1244c5.33301 -13.333 13.5 -25.333 24.5 -36s22.5 -18.334 34.5 -23.001l92 -35v-61h-602v61l174 43l-150 381h-443l-145 -377l170 -47v-61h-435v61zM736.999 595.001l-131 332
l-51 135v0l-174 -467h356zM638.999 1481c-32 0 -61.6699 4.33398 -89.0029 13.001s-51 21.667 -71 39s-35.667 38.833 -47 64.5s-17 55.167 -17 88.5s6.16699 63 18.5 89s29.333 47.833 51 65.5s46.834 31.167 75.501 40.5s59.334 14 92.001 14
c31.333 0 60.333 -4.5 87 -13.5s49.834 -22 69.501 -39s35 -38.333 46 -64s16.5 -54.834 16.5 -87.501c0 -34 -6.33301 -64 -19 -90s-29.5 -47.833 -50.5 -65.5s-45.667 -31.167 -74 -40.5s-57.833 -14 -88.5 -14zM651.996 1542c32 0 55.333 12.335 70 37.002s22 57 22 97
c0 22 -2.5 42.667 -7.5 62s-12 36.166 -21 50.499s-20 25.5 -33 33.5s-27.5 12 -43.5 12c-32 0 -55.833 -12 -71.5 -36s-23.5 -57.333 -23.5 -100c0 -23.333 2.5 -44.5 7.5 -63.5s12.333 -35.333 22 -49s21.167 -24.334 34.5 -32.001s28 -11.5 44 -11.5z" />
    <glyph glyph-name="AE" unicode="&#xc6;" horiz-adv-x="2034" 
d="M-75 61l93.001 35.0039c14.667 5.33301 28.667 13.166 42 23.499s24.333 22.166 33 35.499l645 1021c7.33301 12 13.333 23.5 18 34.5s7 22.167 7 33.5c0 8.66699 -5.83301 16.167 -17.5 22.5s-24.167 11.166 -37.5 14.499l-127 36v61h1326v-358h-70l-81 213
c-4 10 -8.83301 18.333 -14.5 25s-14.5 10 -26.5 10h-458v-535h292c13.333 0 23 3 29 9s10.667 13.667 14 23l67 164h63v-503h-63l-67 192c-2 4.66699 -4 7.66699 -6 9s-4.66699 1.66602 -8 0.999023s-7.33301 -1.66699 -12 -3s-10.334 -2 -17.001 -2h-292v-512h544
c12 0 21 3.16699 27 9.5s10.667 14.833 14 25.5l77 241h70v-387h-1190v61l127 37c13.333 4 24.5 11.167 33.5 21.5s13.5 22.833 13.5 37.5v466h-444l-323 -515l160 -47v-61h-441v61zM973.001 733.004v539h-37l-338 -539h375z" />
    <glyph glyph-name="Ccedilla" unicode="&#xc7;" horiz-adv-x="1220" 
d="M681 -446c-34 0 -66.8311 5.33008 -98.498 15.9971s-61.5 23.667 -89.5 39v91h23c8 -5.33301 17.667 -11.166 29 -17.499s23.833 -12.166 37.5 -17.499s28 -9.83301 43 -13.5s30.5 -5.5 46.5 -5.5c30 0 53.167 8 69.5 24s24.5 36 24.5 60
c0 29.333 -11.167 48.833 -33.5 58.5s-58.5 14.5 -108.5 14.5v172c-89.333 8.66699 -169.666 31.167 -240.999 67.5s-132.333 85 -183 146s-89.5 133.333 -116.5 217s-40.5 177.167 -40.5 280.5c0 71.333 7.66699 138.666 23 201.999s37.166 121.833 65.499 175.5
s62.333 101.667 102 144s84 78.333 133 108s102 52.334 159 68.001s116.833 23.5 179.5 23.5c32.667 0 69.667 -2.33301 111 -7s82.833 -10.667 124.5 -18s81.334 -15.666 119.001 -24.999s69.167 -18.666 94.5 -27.999v-337h-67l-74 175c-5.33301 11.333 -11.333 20 -18 26
s-14.334 11.667 -23.001 17c-41.333 23.333 -84 41.5 -128 54.5s-90.333 19.5 -139 19.5c-53.333 0 -101.833 -12.333 -145.5 -37s-81 -61 -112 -109s-55 -107.167 -72 -177.5s-25.5 -151.166 -25.5 -242.499c0 -94.667 9.5 -178.667 28.5 -252s47.5 -135.166 85.5 -185.499
s85.167 -88.5 141.5 -114.5s121.5 -39 195.5 -39c48.667 0 91.5 5.5 128.5 16.5s70 24.667 99 41s54.667 34.333 77 54l62.5 55.5h43v-109c-26 -22.667 -57.333 -46.334 -94 -71.001s-76.5 -47.334 -119.5 -68.001s-88.5 -38 -136.5 -52s-96.333 -21.667 -145 -23v-63
c26.667 0 52.5 -2.5 77.5 -7.5s47.167 -13.5 66.5 -25.5s34.833 -27.833 46.5 -47.5s17.5 -43.834 17.5 -72.501c0 -32 -5.83301 -60.5 -17.5 -85.5s-28.334 -46 -50.001 -63s-47.334 -30 -77.001 -39s-62.5 -13.5 -98.5 -13.5z" />
    <glyph glyph-name="Egrave" unicode="&#xc8;" horiz-adv-x="1270" 
d="M37 61l127 37.001c13.333 4 24.5 11.167 33.5 21.5s13.5 22.833 13.5 37.5v1064c0 15.333 -4.5 28.166 -13.5 38.499s-20.167 17.5 -33.5 21.5l-127 36v61h1106v-358h-70l-81 213c-4 10 -8.83301 18.333 -14.5 25s-14.5 10 -26.5 10h-456v-495h290c13.333 0 23 3 29 9
s10.667 13.667 14 23l67 164h63v-503h-63l-67 162c-4 10 -8.83301 18.333 -14.5 25s-15.167 10 -28.5 10h-290v-552h542c12 0 21 3.16699 27 9.5s10.667 14.833 14 25.5l77 241h70v-387h-1188v61zM778 1486l-125.499 77.001l-88.5 53.5l-64 39c-18 11 -35 22.167 -51 33.5
c-29.333 20.667 -50.333 40 -63 58s-19 39.667 -19 65c0 11.333 2.5 22.166 7.5 32.499s12.167 19.5 21.5 27.5s20.5 14.333 33.5 19s27.5 7 43.5 7c14.667 0 28.5 -1 41.5 -3s25.833 -6 38.5 -12s25.167 -14.5 37.5 -25.5s25.166 -25.5 38.499 -43.5l35 -48l39.5 -56.5
l53 -77l74.5 -108.5z" />
    <glyph glyph-name="Eacute" unicode="&#xc9;" horiz-adv-x="1270" 
d="M37 61l127 37.001c13.333 4 24.5 11.167 33.5 21.5s13.5 22.833 13.5 37.5v1064c0 15.333 -4.5 28.166 -13.5 38.499s-20.167 17.5 -33.5 21.5l-127 36v61h1106v-358h-70l-81 213c-4 10 -8.83301 18.333 -14.5 25s-14.5 10 -26.5 10h-456v-495h290c13.333 0 23 3 29 9
s10.667 13.667 14 23l67 164h63v-503h-63l-67 162c-4 10 -8.83301 18.333 -14.5 25s-15.167 10 -28.5 10h-290v-552h542c12 0 21 3.16699 27 9.5s10.667 14.833 14 25.5l77 241h70v-387h-1188v61zM464 1524l74.502 108.501l53 77l39.5 56.5l35 48
c13.333 18 26.166 32.5 38.499 43.5s24.666 19.5 36.999 25.5s25 10 38 12s27.167 3 42.5 3c16 0 30.5 -2.33301 43.5 -7s24.167 -11 33.5 -19s16.5 -17.167 21.5 -27.5s7.5 -21.166 7.5 -32.499c0 -12.667 -1.66699 -24.334 -5 -35.001s-8.33301 -20.834 -15 -30.501
s-15.167 -19.167 -25.5 -28.5s-22.5 -19 -36.5 -29c-16 -11.333 -33 -22.5 -51 -33.5l-64 -39l-88.5 -53.5l-125.5 -77z" />
    <glyph glyph-name="Ecircumflex" unicode="&#xca;" horiz-adv-x="1270" 
d="M37 61l127 37.001c13.333 4 24.5 11.167 33.5 21.5s13.5 22.833 13.5 37.5v1064c0 15.333 -4.5 28.166 -13.5 38.499s-20.167 17.5 -33.5 21.5l-127 36v61h1106v-358h-70l-81 213c-4 10 -8.83301 18.333 -14.5 25s-14.5 10 -26.5 10h-456v-495h290c13.333 0 23 3 29 9
s10.667 13.667 14 23l67 164h63v-503h-63l-67 162c-4 10 -8.83301 18.333 -14.5 25s-15.167 10 -28.5 10h-290v-552h542c12 0 21 3.16699 27 9.5s10.667 14.833 14 25.5l77 241h70v-387h-1188v61zM308 1518l194.001 289c17.333 26.667 37.666 46.667 60.999 60s50 20 80 20
s56.833 -6.66699 80.5 -20s44.167 -33.333 61.5 -60l195 -288l-52 -35l-284 232l-285 -234z" />
    <glyph glyph-name="Edieresis" unicode="&#xcb;" horiz-adv-x="1270" 
d="M37 61l127 37.001c13.333 4 24.5 11.167 33.5 21.5s13.5 22.833 13.5 37.5v1064c0 15.333 -4.5 28.166 -13.5 38.499s-20.167 17.5 -33.5 21.5l-127 36v61h1106v-358h-70l-81 213c-4 10 -8.83301 18.333 -14.5 25s-14.5 10 -26.5 10h-456v-495h290c13.333 0 23 3 29 9
s10.667 13.667 14 23l67 164h63v-503h-63l-67 162c-4 10 -8.83301 18.333 -14.5 25s-15.167 10 -28.5 10h-290v-552h542c12 0 21 3.16699 27 9.5s10.667 14.833 14 25.5l77 241h70v-387h-1188v61zM866 1534c-18.667 0 -36 3.5 -52 10.5s-30 16.5 -42 28.5
s-21.5 26.167 -28.5 42.5s-10.5 33.833 -10.5 52.5s3.5 36.167 10.5 52.5s16.5 30.5 28.5 42.5s26 21.5 42 28.5s33.333 10.5 52 10.5s36.334 -3.5 53.001 -10.5s31.334 -16.5 44.001 -28.5s22.5 -26.167 29.5 -42.5s10.5 -33.833 10.5 -52.5s-3.5 -36.167 -10.5 -52.5
s-16.833 -30.5 -29.5 -42.5s-27.334 -21.5 -44.001 -28.5s-34.334 -10.5 -53.001 -10.5zM418 1534c-18.667 0 -36 3.5 -52 10.5s-30 16.5 -42 28.5s-21.5 26.167 -28.5 42.5s-10.5 33.833 -10.5 52.5s3.5 36.167 10.5 52.5s16.5 30.5 28.5 42.5s26 21.5 42 28.5
s33.333 10.5 52 10.5s36.334 -3.5 53.001 -10.5s31.334 -16.5 44.001 -28.5s22.5 -26.167 29.5 -42.5s10.5 -33.833 10.5 -52.5s-3.5 -36.167 -10.5 -52.5s-16.833 -30.5 -29.5 -42.5s-27.334 -21.5 -44.001 -28.5s-34.334 -10.5 -53.001 -10.5z" />
    <glyph glyph-name="Igrave" unicode="&#xcc;" horiz-adv-x="707" 
d="M37 61l127.001 37c14.667 4 26.167 11.167 34.5 21.5s12.5 22.833 12.5 37.5v1064c0 15.333 -4.66699 28.333 -14 39s-20.333 17.667 -33 21l-127 36v61h632v-61l-126 -36c-12.667 -3.33301 -23.834 -10.5 -33.501 -21.5s-14.5 -23.833 -14.5 -38.5v-1064
c0 -15.333 4.5 -28 13.5 -38s20.5 -17 34.5 -21l126 -37v-61h-632v61zM517.001 1486l-125.499 77.001l-88.5 53.5l-64 39c-18 11 -35 22.167 -51 33.5c-29.333 20.667 -50.333 40 -63 58s-19 39.667 -19 65c0 11.333 2.5 22.166 7.5 32.499s12.167 19.5 21.5 27.5
s20.5 14.333 33.5 19s27.5 7 43.5 7c14.667 0 28.5 -1 41.5 -3s25.833 -6 38.5 -12s25.167 -14.5 37.5 -25.5s25.166 -25.5 38.499 -43.5l35 -48l39.5 -56.5l53 -77l74.5 -108.5z" />
    <glyph glyph-name="Iacute" unicode="&#xcd;" horiz-adv-x="707" 
d="M37 61l127.001 37c14.667 4 26.167 11.167 34.5 21.5s12.5 22.833 12.5 37.5v1064c0 15.333 -4.66699 28.333 -14 39s-20.333 17.667 -33 21l-127 36v61h632v-61l-126 -36c-12.667 -3.33301 -23.834 -10.5 -33.501 -21.5s-14.5 -23.833 -14.5 -38.5v-1064
c0 -15.333 4.5 -28 13.5 -38s20.5 -17 34.5 -21l126 -37v-61h-632v61zM141.001 1524l74.502 108.501l53 77l39.5 56.5l35 48c13.333 18 26.166 32.5 38.499 43.5s24.666 19.5 36.999 25.5s25 10 38 12s27.167 3 42.5 3c16 0 30.5 -2.33301 43.5 -7s24.167 -11 33.5 -19
s16.5 -17.167 21.5 -27.5s7.5 -21.166 7.5 -32.499c0 -12.667 -1.66699 -24.334 -5 -35.001s-8.33301 -20.834 -15 -30.501s-15.167 -19.167 -25.5 -28.5s-22.5 -19 -36.5 -29c-16 -11.333 -33 -22.5 -51 -33.5l-64 -39l-88.5 -53.5l-125.5 -77z" />
    <glyph glyph-name="Icircumflex" unicode="&#xce;" horiz-adv-x="707" 
d="M37 61l127.001 37c14.667 4 26.167 11.167 34.5 21.5s12.5 22.833 12.5 37.5v1064c0 15.333 -4.66699 28.333 -14 39s-20.333 17.667 -33 21l-127 36v61h632v-61l-126 -36c-12.667 -3.33301 -23.834 -10.5 -33.501 -21.5s-14.5 -23.833 -14.5 -38.5v-1064
c0 -15.333 4.5 -28 13.5 -38s20.5 -17 34.5 -21l126 -37v-61h-632v61zM17.001 1518l194.001 289c17.333 26.667 37.666 46.667 60.999 60s50 20 80 20s56.833 -6.66699 80.5 -20s44.167 -33.333 61.5 -60l195 -288l-52 -35l-284 232l-285 -234z" />
    <glyph glyph-name="Idieresis" unicode="&#xcf;" horiz-adv-x="707" 
d="M37 61l127.001 37c14.667 4 26.167 11.167 34.5 21.5s12.5 22.833 12.5 37.5v1064c0 15.333 -4.66699 28.333 -14 39s-20.333 17.667 -33 21l-127 36v61h632v-61l-126 -36c-12.667 -3.33301 -23.834 -10.5 -33.501 -21.5s-14.5 -23.833 -14.5 -38.5v-1064
c0 -15.333 4.5 -28 13.5 -38s20.5 -17 34.5 -21l126 -37v-61h-632v61zM575.001 1534c-18.667 0 -36 3.5 -52 10.5s-30 16.5 -42 28.5s-21.5 26.167 -28.5 42.5s-10.5 33.833 -10.5 52.5s3.5 36.167 10.5 52.5s16.5 30.5 28.5 42.5s26 21.5 42 28.5s33.333 10.5 52 10.5
s36.334 -3.5 53.001 -10.5s31.334 -16.5 44.001 -28.5s22.5 -26.167 29.5 -42.5s10.5 -33.833 10.5 -52.5s-3.5 -36.167 -10.5 -52.5s-16.833 -30.5 -29.5 -42.5s-27.334 -21.5 -44.001 -28.5s-34.334 -10.5 -53.001 -10.5zM127.001 1534c-18.667 0 -36 3.5 -52 10.5
s-30 16.5 -42 28.5s-21.5 26.167 -28.5 42.5s-10.5 33.833 -10.5 52.5s3.5 36.167 10.5 52.5s16.5 30.5 28.5 42.5s26 21.5 42 28.5s33.333 10.5 52 10.5s36.334 -3.5 53.001 -10.5s31.334 -16.5 44.001 -28.5s22.5 -26.167 29.5 -42.5s10.5 -33.833 10.5 -52.5
s-3.5 -36.167 -10.5 -52.5s-16.833 -30.5 -29.5 -42.5s-27.334 -21.5 -44.001 -28.5s-34.334 -10.5 -53.001 -10.5z" />
    <glyph glyph-name="Eth" unicode="&#xd0;" horiz-adv-x="1426" 
d="M683 109c66.667 0 124.501 12.165 173.501 36.498s89.833 59.833 122.5 106.5s57 103.834 73 171.501s24 144.834 24 231.501c0 94.667 -10.667 180 -32 256s-51.333 140.5 -90 193.5s-85.334 93.833 -140.001 122.5s-115 43 -181 43h-138v-497h326v-112h-326v-552h188z
M37.001 60.998l126.997 36.999c14.667 4 26.167 11.167 34.5 21.5s12.5 22.833 12.5 37.5v504h-164v112h164v448c0 15.333 -4.16699 28.166 -12.5 38.499s-19.833 17.5 -34.5 21.5l-127 36v61h644c46.667 0 96.334 -4.33301 149.001 -13s105 -23.167 157 -43.5
s101.833 -47.5 149.5 -81.5s89.834 -76.667 126.501 -128s65.834 -112 87.501 -182s32.5 -151 32.5 -243c0 -117.333 -18.5 -219.166 -55.5 -305.499s-87.5 -157.666 -151.5 -213.999s-138.833 -98.333 -224.5 -126s-177.167 -41.5 -274.5 -41.5h-640v61z" />
    <glyph glyph-name="Ntilde" unicode="&#xd1;" horiz-adv-x="1487" 
d="M453 931l-106 154.006v0v-922c0 -14.667 4 -26.834 12 -36.501s19.667 -17.167 35 -22.5l127 -43v-61h-484v61l127 43c13.333 4.66699 24.5 12.167 33.5 22.5s13.5 22.5 13.5 36.5v1054c0 15.333 -4.66699 28.166 -14 38.499s-20.333 17.166 -33 20.499l-137 41v61h438
l601 -864l94 -137v0v838c0 15.333 -4 27.666 -12 36.999s-19.667 16.666 -35 21.999l-127 43v61h485v-61l-127 -43c-14 -5.33301 -25.5 -12.833 -34.5 -22.5s-13.5 -21.834 -13.5 -36.501v-986l-30 -239h-158zM419 1545.01c6.66699 40 17.5039 76.834 32.5039 110.501
s33.167 62.834 54.5 87.501s45.666 43.834 72.999 57.501s56.666 20.5 87.999 20.5c21.333 0 44.666 -3.83301 69.999 -11.5s53.333 -19.834 84 -36.501c32 -17.333 58.5 -29.333 79.5 -36s37.167 -10 48.5 -10c36.667 0 63.667 9.5 81 28.5s30.333 45.5 39 79.5h74
c-6 -39.333 -16.167 -75.833 -30.5 -109.5s-32 -62.834 -53 -87.501s-45 -43.834 -72 -57.501s-56.167 -20.5 -87.5 -20.5c-11.333 0 -22 0.666992 -32 2s-20.833 3.83301 -32.5 7.5s-24.5 8.66699 -38.5 15s-30.333 14.833 -49 25.5c-30 16.667 -56.167 28.667 -78.5 36
s-39.5 11 -51.5 11c-37.333 0 -65.333 -10 -84 -30s-32.334 -47.333 -41.001 -82h-74z" />
    <glyph glyph-name="Ograve" unicode="&#xd2;" horiz-adv-x="1429" 
d="M713 -31c-107.333 0 -202.667 17.8311 -286 53.498s-153.5 85.334 -210.5 149.001s-100.167 139.667 -129.5 228s-44 185.166 -44 290.499c0 100 15.167 193.667 45.5 281s74.333 163.5 132 228.5s128.167 116.167 211.5 153.5s177.666 56 282.999 56
c114.667 0 214 -19.167 298 -57.5s153.5 -90.166 208.5 -155.499s96 -141.5 123 -228.5s40.5 -179.5 40.5 -277.5c0 -58 -5.66699 -116 -17 -174s-28.666 -113.667 -51.999 -167s-53 -103.166 -89 -149.499s-79 -86.5 -129 -120.5s-107 -60.833 -171 -80.5
s-135.333 -29.5 -214 -29.5zM728.999 75.998c58.667 0 109.999 14.999 153.999 44.999s80.5 71.167 109.5 123.5s50.667 114 65 185s21.5 147.5 21.5 229.5c0 94.667 -7.5 181.334 -22.5 260.001s-38.167 146.334 -69.5 203.001s-70.833 100.834 -118.5 132.501
s-104.5 47.5 -170.5 47.5c-62.667 0 -116 -16 -160 -48s-80 -74.833 -108 -128.5s-48.333 -115.334 -61 -185.001s-19 -142.167 -19 -217.5c0 -92.667 7.33301 -178.5 22 -257.5s37.334 -147.333 68.001 -205s70 -102.834 118 -135.501s105 -49 171 -49zM855.998 1486
l-125.499 77.001l-88.5 53.5l-64 39c-18 11 -35 22.167 -51 33.5c-29.333 20.667 -50.333 40 -63 58s-19 39.667 -19 65c0 11.333 2.5 22.166 7.5 32.499s12.167 19.5 21.5 27.5s20.5 14.333 33.5 19s27.5 7 43.5 7c14.667 0 28.5 -1 41.5 -3s25.833 -6 38.5 -12
s25.167 -14.5 37.5 -25.5s25.166 -25.5 38.499 -43.5l35 -48l39.5 -56.5l53 -77l74.5 -108.5z" />
    <glyph glyph-name="Oacute" unicode="&#xd3;" horiz-adv-x="1429" 
d="M713 -31c-107.333 0 -202.667 17.8311 -286 53.498s-153.5 85.334 -210.5 149.001s-100.167 139.667 -129.5 228s-44 185.166 -44 290.499c0 100 15.167 193.667 45.5 281s74.333 163.5 132 228.5s128.167 116.167 211.5 153.5s177.666 56 282.999 56
c114.667 0 214 -19.167 298 -57.5s153.5 -90.166 208.5 -155.499s96 -141.5 123 -228.5s40.5 -179.5 40.5 -277.5c0 -58 -5.66699 -116 -17 -174s-28.666 -113.667 -51.999 -167s-53 -103.166 -89 -149.499s-79 -86.5 -129 -120.5s-107 -60.833 -171 -80.5
s-135.333 -29.5 -214 -29.5zM728.999 75.998c58.667 0 109.999 14.999 153.999 44.999s80.5 71.167 109.5 123.5s50.667 114 65 185s21.5 147.5 21.5 229.5c0 94.667 -7.5 181.334 -22.5 260.001s-38.167 146.334 -69.5 203.001s-70.833 100.834 -118.5 132.501
s-104.5 47.5 -170.5 47.5c-62.667 0 -116 -16 -160 -48s-80 -74.833 -108 -128.5s-48.333 -115.334 -61 -185.001s-19 -142.167 -19 -217.5c0 -92.667 7.33301 -178.5 22 -257.5s37.334 -147.333 68.001 -205s70 -102.834 118 -135.501s105 -49 171 -49zM514.998 1524
l74.502 108.501l53 77l39.5 56.5l35 48c13.333 18 26.166 32.5 38.499 43.5s24.666 19.5 36.999 25.5s25 10 38 12s27.167 3 42.5 3c16 0 30.5 -2.33301 43.5 -7s24.167 -11 33.5 -19s16.5 -17.167 21.5 -27.5s7.5 -21.166 7.5 -32.499
c0 -12.667 -1.66699 -24.334 -5 -35.001s-8.33301 -20.834 -15 -30.501s-15.167 -19.167 -25.5 -28.5s-22.5 -19 -36.5 -29c-16 -11.333 -33 -22.5 -51 -33.5l-64 -39l-88.5 -53.5l-125.5 -77z" />
    <glyph glyph-name="Ocircumflex" unicode="&#xd4;" horiz-adv-x="1429" 
d="M713 -31c-107.333 0 -202.667 17.8311 -286 53.498s-153.5 85.334 -210.5 149.001s-100.167 139.667 -129.5 228s-44 185.166 -44 290.499c0 100 15.167 193.667 45.5 281s74.333 163.5 132 228.5s128.167 116.167 211.5 153.5s177.666 56 282.999 56
c114.667 0 214 -19.167 298 -57.5s153.5 -90.166 208.5 -155.499s96 -141.5 123 -228.5s40.5 -179.5 40.5 -277.5c0 -58 -5.66699 -116 -17 -174s-28.666 -113.667 -51.999 -167s-53 -103.166 -89 -149.499s-79 -86.5 -129 -120.5s-107 -60.833 -171 -80.5
s-135.333 -29.5 -214 -29.5zM728.999 75.998c58.667 0 109.999 14.999 153.999 44.999s80.5 71.167 109.5 123.5s50.667 114 65 185s21.5 147.5 21.5 229.5c0 94.667 -7.5 181.334 -22.5 260.001s-38.167 146.334 -69.5 203.001s-70.833 100.834 -118.5 132.501
s-104.5 47.5 -170.5 47.5c-62.667 0 -116 -16 -160 -48s-80 -74.833 -108 -128.5s-48.333 -115.334 -61 -185.001s-19 -142.167 -19 -217.5c0 -92.667 7.33301 -178.5 22 -257.5s37.334 -147.333 68.001 -205s70 -102.834 118 -135.501s105 -49 171 -49zM375.998 1518
l194.001 289c17.333 26.667 37.666 46.667 60.999 60s50 20 80 20s56.833 -6.66699 80.5 -20s44.167 -33.333 61.5 -60l195 -288l-52 -35l-284 232l-285 -234z" />
    <glyph glyph-name="Otilde" unicode="&#xd5;" horiz-adv-x="1429" 
d="M713 -31c-107.333 0 -202.667 17.8311 -286 53.498s-153.5 85.334 -210.5 149.001s-100.167 139.667 -129.5 228s-44 185.166 -44 290.499c0 100 15.167 193.667 45.5 281s74.333 163.5 132 228.5s128.167 116.167 211.5 153.5s177.666 56 282.999 56
c114.667 0 214 -19.167 298 -57.5s153.5 -90.166 208.5 -155.499s96 -141.5 123 -228.5s40.5 -179.5 40.5 -277.5c0 -58 -5.66699 -116 -17 -174s-28.666 -113.667 -51.999 -167s-53 -103.166 -89 -149.499s-79 -86.5 -129 -120.5s-107 -60.833 -171 -80.5
s-135.333 -29.5 -214 -29.5zM728.999 75.998c58.667 0 109.999 14.999 153.999 44.999s80.5 71.167 109.5 123.5s50.667 114 65 185s21.5 147.5 21.5 229.5c0 94.667 -7.5 181.334 -22.5 260.001s-38.167 146.334 -69.5 203.001s-70.833 100.834 -118.5 132.501
s-104.5 47.5 -170.5 47.5c-62.667 0 -116 -16 -160 -48s-80 -74.833 -108 -128.5s-48.333 -115.334 -61 -185.001s-19 -142.167 -19 -217.5c0 -92.667 7.33301 -178.5 22 -257.5s37.334 -147.333 68.001 -205s70 -102.834 118 -135.501s105 -49 171 -49zM350.998 1545
c6.66699 40 17.5039 76.834 32.5039 110.501s33.167 62.834 54.5 87.501s45.666 43.834 72.999 57.501s56.666 20.5 87.999 20.5c21.333 0 44.666 -3.83301 69.999 -11.5s53.333 -19.834 84 -36.501c32 -17.333 58.5 -29.333 79.5 -36s37.167 -10 48.5 -10
c36.667 0 63.667 9.5 81 28.5s30.333 45.5 39 79.5h74c-6 -39.333 -16.167 -75.833 -30.5 -109.5s-32 -62.834 -53 -87.501s-45 -43.834 -72 -57.501s-56.167 -20.5 -87.5 -20.5c-11.333 0 -22 0.666992 -32 2s-20.833 3.83301 -32.5 7.5s-24.5 8.66699 -38.5 15
s-30.333 14.833 -49 25.5c-30 16.667 -56.167 28.667 -78.5 36s-39.5 11 -51.5 11c-37.333 0 -65.333 -10 -84 -30s-32.334 -47.333 -41.001 -82h-74z" />
    <glyph glyph-name="Odieresis" unicode="&#xd6;" horiz-adv-x="1429" 
d="M713 -31c-107.333 0 -202.667 17.8311 -286 53.498s-153.5 85.334 -210.5 149.001s-100.167 139.667 -129.5 228s-44 185.166 -44 290.499c0 100 15.167 193.667 45.5 281s74.333 163.5 132 228.5s128.167 116.167 211.5 153.5s177.666 56 282.999 56
c114.667 0 214 -19.167 298 -57.5s153.5 -90.166 208.5 -155.499s96 -141.5 123 -228.5s40.5 -179.5 40.5 -277.5c0 -58 -5.66699 -116 -17 -174s-28.666 -113.667 -51.999 -167s-53 -103.166 -89 -149.499s-79 -86.5 -129 -120.5s-107 -60.833 -171 -80.5
s-135.333 -29.5 -214 -29.5zM728.999 75.998c58.667 0 109.999 14.999 153.999 44.999s80.5 71.167 109.5 123.5s50.667 114 65 185s21.5 147.5 21.5 229.5c0 94.667 -7.5 181.334 -22.5 260.001s-38.167 146.334 -69.5 203.001s-70.833 100.834 -118.5 132.501
s-104.5 47.5 -170.5 47.5c-62.667 0 -116 -16 -160 -48s-80 -74.833 -108 -128.5s-48.333 -115.334 -61 -185.001s-19 -142.167 -19 -217.5c0 -92.667 7.33301 -178.5 22 -257.5s37.334 -147.333 68.001 -205s70 -102.834 118 -135.501s105 -49 171 -49zM932.998 1534
c-18.667 0 -36 3.5 -52 10.5s-30 16.5 -42 28.5s-21.5 26.167 -28.5 42.5s-10.5 33.833 -10.5 52.5s3.5 36.167 10.5 52.5s16.5 30.5 28.5 42.5s26 21.5 42 28.5s33.333 10.5 52 10.5s36.334 -3.5 53.001 -10.5s31.334 -16.5 44.001 -28.5s22.5 -26.167 29.5 -42.5
s10.5 -33.833 10.5 -52.5s-3.5 -36.167 -10.5 -52.5s-16.833 -30.5 -29.5 -42.5s-27.334 -21.5 -44.001 -28.5s-34.334 -10.5 -53.001 -10.5zM484.998 1534c-18.667 0 -36 3.5 -52 10.5s-30 16.5 -42 28.5s-21.5 26.167 -28.5 42.5s-10.5 33.833 -10.5 52.5
s3.5 36.167 10.5 52.5s16.5 30.5 28.5 42.5s26 21.5 42 28.5s33.333 10.5 52 10.5s36.334 -3.5 53.001 -10.5s31.334 -16.5 44.001 -28.5s22.5 -26.167 29.5 -42.5s10.5 -33.833 10.5 -52.5s-3.5 -36.167 -10.5 -52.5s-16.833 -30.5 -29.5 -42.5
s-27.334 -21.5 -44.001 -28.5s-34.334 -10.5 -53.001 -10.5z" />
    <glyph glyph-name="multiply" unicode="&#xd7;" horiz-adv-x="1354" 
d="M227 204l350 348l-350 347l101 106l351 -353l348 352l101 -105l-351 -347l350 -348l-101 -104l-349 351l-349 -352z" />
    <glyph glyph-name="Oslash" unicode="&#xd8;" horiz-adv-x="1429" 
d="M295 104c-82 64.667 -144.5 147.167 -187.5 247.5s-64.5 213.166 -64.5 338.499c0 100 15.167 193.667 45.5 281s74.333 163.5 132 228.5s128.167 116.167 211.5 153.5s177.666 56 282.999 56c68 0 130 -7 186 -21s107.333 -34 154 -60l80 128h110l-112 -180
c42 -33.333 78.667 -71.5 110 -114.5s57.5 -89.667 78.5 -140s36.833 -103.5 47.5 -159.5s16 -113.333 16 -172c0 -58 -5.66699 -116 -17 -174s-28.666 -113.667 -51.999 -167s-53 -103.166 -89 -149.499s-79 -86.5 -129 -120.5s-107 -60.833 -171 -80.5
s-135.333 -29.5 -214 -29.5c-66.667 0 -128.167 7 -184.5 21s-108.5 35 -156.5 63l-99 -160h-110zM959 1173c-32 42 -69.332 74.002 -111.999 96.002s-92.334 33 -149.001 33c-63.333 0 -117.333 -16 -162 -48s-81.334 -74.833 -110.001 -128.5
s-49.667 -115.334 -63 -185.001s-20 -142.167 -20 -217.5c0 -84 5.83301 -162.333 17.5 -235s29.834 -137.334 54.501 -194.001zM729.001 76.002c58.667 0 110.33 15 154.997 45s81.834 71.167 111.501 123.5s52 114 67 185s22.5 147.5 22.5 229.5
c0 85.333 -5.66699 164 -17 236s-29.666 136 -54.999 192l-545 -880c32 -42 69.333 -74.333 112 -97s92.334 -34 149.001 -34z" />
    <glyph glyph-name="Ugrave" unicode="&#xd9;" horiz-adv-x="1448" 
d="M728 -31c-89.333 0 -168 11.166 -236 33.499s-124.833 52.333 -170.5 90s-80.167 80.834 -103.5 129.501s-35 99 -35 151v848c0 15.333 -4.66699 28.333 -14 39s-20.666 17.667 -33.999 21l-127 36v61h633v-61l-127 -36c-13.333 -4 -24.5 -11.333 -33.5 -22
s-13.5 -23.334 -13.5 -38.001v-756c0 -22.667 1.66699 -47 5 -73s9.33301 -52 18 -78s20.667 -50.833 36 -74.5s35 -44.5 59 -62.5s53 -32.5 87 -43.5s74 -16.5 120 -16.5s86.667 5.5 122 16.5s65.833 25.667 91.5 44s47.167 39.5 64.5 63.5s31.166 48.833 41.499 74.5
s17.666 51.334 21.999 77.001s6.5 49.5 6.5 71.5v751c0 15.333 -4.83301 28 -14.5 38s-20.5 17 -32.5 21l-127 43v61h474v-61l-127 -43c-12.667 -4 -23.667 -11.167 -33 -21.5s-14 -22.833 -14 -37.5v-801c0 -54 -8.33301 -102.5 -25 -145.5s-39 -81 -67 -114
s-60.333 -61.167 -97 -84.5s-75 -42.5 -115 -57.5s-80.167 -26 -120.5 -33s-78.166 -10.5 -113.499 -10.5zM897 1486l-125.499 77.001l-88.5 53.5l-64 39c-18 11 -35 22.167 -51 33.5c-29.333 20.667 -50.333 40 -63 58s-19 39.667 -19 65c0 11.333 2.5 22.166 7.5 32.499
s12.167 19.5 21.5 27.5s20.5 14.333 33.5 19s27.5 7 43.5 7c14.667 0 28.5 -1 41.5 -3s25.833 -6 38.5 -12s25.167 -14.5 37.5 -25.5s25.166 -25.5 38.499 -43.5l35 -48l39.5 -56.5l53 -77l74.5 -108.5z" />
    <glyph glyph-name="Uacute" unicode="&#xda;" horiz-adv-x="1448" 
d="M728 -31c-89.333 0 -168 11.166 -236 33.499s-124.833 52.333 -170.5 90s-80.167 80.834 -103.5 129.501s-35 99 -35 151v848c0 15.333 -4.66699 28.333 -14 39s-20.666 17.667 -33.999 21l-127 36v61h633v-61l-127 -36c-13.333 -4 -24.5 -11.333 -33.5 -22
s-13.5 -23.334 -13.5 -38.001v-756c0 -22.667 1.66699 -47 5 -73s9.33301 -52 18 -78s20.667 -50.833 36 -74.5s35 -44.5 59 -62.5s53 -32.5 87 -43.5s74 -16.5 120 -16.5s86.667 5.5 122 16.5s65.833 25.667 91.5 44s47.167 39.5 64.5 63.5s31.166 48.833 41.499 74.5
s17.666 51.334 21.999 77.001s6.5 49.5 6.5 71.5v751c0 15.333 -4.83301 28 -14.5 38s-20.5 17 -32.5 21l-127 43v61h474v-61l-127 -43c-12.667 -4 -23.667 -11.167 -33 -21.5s-14 -22.833 -14 -37.5v-801c0 -54 -8.33301 -102.5 -25 -145.5s-39 -81 -67 -114
s-60.333 -61.167 -97 -84.5s-75 -42.5 -115 -57.5s-80.167 -26 -120.5 -33s-78.166 -10.5 -113.499 -10.5zM546 1524l74.502 108.501l53 77l39.5 56.5l35 48c13.333 18 26.166 32.5 38.499 43.5s24.666 19.5 36.999 25.5s25 10 38 12s27.167 3 42.5 3
c16 0 30.5 -2.33301 43.5 -7s24.167 -11 33.5 -19s16.5 -17.167 21.5 -27.5s7.5 -21.166 7.5 -32.499c0 -12.667 -1.66699 -24.334 -5 -35.001s-8.33301 -20.834 -15 -30.501s-15.167 -19.167 -25.5 -28.5s-22.5 -19 -36.5 -29c-16 -11.333 -33 -22.5 -51 -33.5l-64 -39
l-88.5 -53.5l-125.5 -77z" />
    <glyph glyph-name="Ucircumflex" unicode="&#xdb;" horiz-adv-x="1448" 
d="M728 -31c-89.333 0 -168 11.166 -236 33.499s-124.833 52.333 -170.5 90s-80.167 80.834 -103.5 129.501s-35 99 -35 151v848c0 15.333 -4.66699 28.333 -14 39s-20.666 17.667 -33.999 21l-127 36v61h633v-61l-127 -36c-13.333 -4 -24.5 -11.333 -33.5 -22
s-13.5 -23.334 -13.5 -38.001v-756c0 -22.667 1.66699 -47 5 -73s9.33301 -52 18 -78s20.667 -50.833 36 -74.5s35 -44.5 59 -62.5s53 -32.5 87 -43.5s74 -16.5 120 -16.5s86.667 5.5 122 16.5s65.833 25.667 91.5 44s47.167 39.5 64.5 63.5s31.166 48.833 41.499 74.5
s17.666 51.334 21.999 77.001s6.5 49.5 6.5 71.5v751c0 15.333 -4.83301 28 -14.5 38s-20.5 17 -32.5 21l-127 43v61h474v-61l-127 -43c-12.667 -4 -23.667 -11.167 -33 -21.5s-14 -22.833 -14 -37.5v-801c0 -54 -8.33301 -102.5 -25 -145.5s-39 -81 -67 -114
s-60.333 -61.167 -97 -84.5s-75 -42.5 -115 -57.5s-80.167 -26 -120.5 -33s-78.166 -10.5 -113.499 -10.5zM417 1518l194.001 289c17.333 26.667 37.666 46.667 60.999 60s50 20 80 20s56.833 -6.66699 80.5 -20s44.167 -33.333 61.5 -60l195 -288l-52 -35l-284 232
l-285 -234z" />
    <glyph glyph-name="Udieresis" unicode="&#xdc;" horiz-adv-x="1448" 
d="M728 -31c-89.333 0 -168 11.166 -236 33.499s-124.833 52.333 -170.5 90s-80.167 80.834 -103.5 129.501s-35 99 -35 151v848c0 15.333 -4.66699 28.333 -14 39s-20.666 17.667 -33.999 21l-127 36v61h633v-61l-127 -36c-13.333 -4 -24.5 -11.333 -33.5 -22
s-13.5 -23.334 -13.5 -38.001v-756c0 -22.667 1.66699 -47 5 -73s9.33301 -52 18 -78s20.667 -50.833 36 -74.5s35 -44.5 59 -62.5s53 -32.5 87 -43.5s74 -16.5 120 -16.5s86.667 5.5 122 16.5s65.833 25.667 91.5 44s47.167 39.5 64.5 63.5s31.166 48.833 41.499 74.5
s17.666 51.334 21.999 77.001s6.5 49.5 6.5 71.5v751c0 15.333 -4.83301 28 -14.5 38s-20.5 17 -32.5 21l-127 43v61h474v-61l-127 -43c-12.667 -4 -23.667 -11.167 -33 -21.5s-14 -22.833 -14 -37.5v-801c0 -54 -8.33301 -102.5 -25 -145.5s-39 -81 -67 -114
s-60.333 -61.167 -97 -84.5s-75 -42.5 -115 -57.5s-80.167 -26 -120.5 -33s-78.166 -10.5 -113.499 -10.5zM975 1534c-18.667 0 -36 3.5 -52 10.5s-30 16.5 -42 28.5s-21.5 26.167 -28.5 42.5s-10.5 33.833 -10.5 52.5s3.5 36.167 10.5 52.5s16.5 30.5 28.5 42.5
s26 21.5 42 28.5s33.333 10.5 52 10.5s36.334 -3.5 53.001 -10.5s31.334 -16.5 44.001 -28.5s22.5 -26.167 29.5 -42.5s10.5 -33.833 10.5 -52.5s-3.5 -36.167 -10.5 -52.5s-16.833 -30.5 -29.5 -42.5s-27.334 -21.5 -44.001 -28.5s-34.334 -10.5 -53.001 -10.5zM527 1534
c-18.667 0 -36 3.5 -52 10.5s-30 16.5 -42 28.5s-21.5 26.167 -28.5 42.5s-10.5 33.833 -10.5 52.5s3.5 36.167 10.5 52.5s16.5 30.5 28.5 42.5s26 21.5 42 28.5s33.333 10.5 52 10.5s36.334 -3.5 53.001 -10.5s31.334 -16.5 44.001 -28.5s22.5 -26.167 29.5 -42.5
s10.5 -33.833 10.5 -52.5s-3.5 -36.167 -10.5 -52.5s-16.833 -30.5 -29.5 -42.5s-27.334 -21.5 -44.001 -28.5s-34.334 -10.5 -53.001 -10.5z" />
    <glyph glyph-name="Yacute" unicode="&#xdd;" horiz-adv-x="1272" 
d="M301 61l146.999 36.9971c13.333 3.33301 24.5 10.333 33.5 21s13.5 23.334 13.5 38.001v408l-372 658c-7.33301 12.667 -15.666 24.5 -24.999 35.5s-21.333 19.167 -36 24.5l-98 34v61h609v-61l-170 -43l254 -451l69 -122v0l327 559l-159 57v61h427v-61l-97 -44
c-12 -5.33301 -23.5 -13.5 -34.5 -24.5s-20.167 -22.833 -27.5 -35.5l-383 -639v-417c0 -15.333 4.33301 -28.166 13 -38.499s20 -17.166 34 -20.499l148 -37v-61h-673v61zM487.999 1524l74.502 108.501l53 77l39.5 56.5l35 48c13.333 18 26.166 32.5 38.499 43.5
s24.666 19.5 36.999 25.5s25 10 38 12s27.167 3 42.5 3c16 0 30.5 -2.33301 43.5 -7s24.167 -11 33.5 -19s16.5 -17.167 21.5 -27.5s7.5 -21.166 7.5 -32.499c0 -12.667 -1.66699 -24.334 -5 -35.001s-8.33301 -20.834 -15 -30.501s-15.167 -19.167 -25.5 -28.5
s-22.5 -19 -36.5 -29c-16 -11.333 -33 -22.5 -51 -33.5l-64 -39l-88.5 -53.5l-125.5 -77z" />
    <glyph glyph-name="Thorn" unicode="&#xde;" horiz-adv-x="1188" 
d="M37 61l127.001 37c14.667 4 26.167 11.167 34.5 21.5s12.5 22.833 12.5 37.5v1064c0 15.333 -4.16699 28.166 -12.5 38.499s-19.833 17.5 -34.5 21.5l-127 36v61h632v-61l-127 -37c-14.667 -4 -26.167 -11.167 -34.5 -21.5s-12.5 -22.833 -12.5 -37.5v-98h135
c72 0 140 -7 204 -21s120 -36 168 -66s86 -68.5 114 -115.5s42 -103.5 42 -169.5c0 -70 -11.833 -133 -35.5 -189s-56.167 -103.667 -97.5 -143s-89.833 -69.5 -145.5 -90.5s-115.834 -31.5 -180.501 -31.5c-14.667 0 -31 2 -49 6s-36.167 9.16699 -54.5 15.5
s-36.166 13.666 -53.499 21.999s-33 16.833 -47 25.5v-209c0 -15.333 4.66699 -28.166 14 -38.499s20.666 -17.166 33.999 -20.499l143 -37v-61h-649v61zM636.001 415c31.333 0 58.501 5.33398 81.501 16.001s42.5 24.667 58.5 42s29.167 36.666 39.5 57.999
s18.5 42.666 24.5 63.999s10 41.666 12 60.999s3 35.333 3 48c0 40.667 -4.16699 79.834 -12.5 117.501s-22.5 70.834 -42.5 99.501s-46.833 51.5 -80.5 68.5s-75.834 25.5 -126.501 25.5h-98v-584c8 -2.66699 17.667 -5 29 -7s23.333 -3.66699 36 -5s25.5 -2.33301 38.5 -3
s25.5 -1 37.5 -1z" />
    <glyph glyph-name="germandbls" unicode="&#xdf;" horiz-adv-x="1318" 
d="M856 -27c-36 0 -68.167 1.99414 -96.5 5.99414s-54.5 9.33301 -78.5 16s-47 14 -69 22l-67 24v279h81l36 -105c6 -18 16 -33.167 30 -45.5s27.333 -22.166 40 -29.499l33.5 -19c11.667 -6.66699 23.5 -12.667 35.5 -18s24.333 -9.66602 37 -12.999s25.334 -5 38.001 -5
c20.667 0 40.834 2.66699 60.501 8s37.167 14 52.5 26s27.5 28 36.5 48s13.5 44.667 13.5 74c0 20.667 -4.16699 39 -12.5 55s-20 31 -35 45s-32.833 27.667 -53.5 41l-68 44l-69.5 42l-69.5 40c-23.333 13.333 -43.5 28.166 -60.5 44.499s-31.333 34.5 -43 54.5
s-20.334 41.667 -26.001 65s-8.5 49 -8.5 77c0 28.667 6.66699 55.334 20 80.001s29.666 47.167 48.999 67.5s40 38.333 62 54l59 40.5l40 25c14 8.66699 27.667 17.834 41 27.501s25.666 19.834 36.999 30.501s20.666 22 27.999 34
c-1.33301 55.333 -10.666 101.666 -27.999 138.999s-39.5 67.333 -66.5 90s-57.5 38.834 -91.5 48.501s-68 14.5 -102 14.5c-16 0 -31.333 -2.33301 -46 -7s-28 -10.5 -40 -17.5s-22.5 -14.333 -31.5 -22s-15.5 -14.5 -19.5 -20.5c-12 -16.667 -22.333 -35.834 -31 -57.501
s-15.834 -47.834 -21.501 -78.501s-10 -66.667 -13 -108s-4.5 -89.666 -4.5 -144.999v-944h-414v59l101 32c14 4.66699 25 11.667 33 21s12 21.333 12 36v852c0 61.333 8.33301 117.166 25 167.499s39.5 95 68.5 134s63 72.667 102 101s80.833 51.666 125.5 69.999
s90.834 32 138.501 41s94.834 13.5 141.501 13.5c50.667 0 99.667 -7.5 147 -22.5s89.166 -35.667 125.499 -62s65.333 -57.333 87 -93s32.5 -74.5 32.5 -116.5c0 -20.667 -0.666992 -39.5 -2 -56.5s-3.16602 -32.5 -5.49902 -46.5s-5 -27 -8 -39l-8.5 -33
c-25.333 -11.333 -53.5 -22.166 -84.5 -32.499s-59.167 -23.166 -84.5 -38.499c-38 -23.333 -67 -47.5 -87 -72.5s-30 -50.5 -30 -76.5c0 -22.667 2.66699 -41.667 8 -57s13 -28.666 23 -39.999s22 -21.666 36 -30.999l47 -30c18.667 -12 41 -25.333 67 -40
s57 -33.667 93 -57c53.333 -34 92.833 -72.667 118.5 -116s38.5 -96.666 38.5 -159.999c0 -52.667 -11.5 -99.667 -34.5 -141s-54 -76.333 -93 -105s-84.167 -50.5 -135.5 -65.5s-105 -22.5 -161 -22.5z" />
    <glyph glyph-name="agrave" unicode="&#xe0;" horiz-adv-x="1038" 
d="M306 -20c-39.333 0 -75.002 7.33691 -107.002 22.0039s-59.5 34.167 -82.5 58.5s-40.667 52.5 -53 84.5s-18.5 65.333 -18.5 100c0 40.667 7 77.167 21 109.5s32.833 60.833 56.5 85.5s51 45.834 82 63.501s63.333 32 97 43s67.334 19.167 101.001 24.5s65.5 8 95.5 8
c6 0 14.5 -0.333008 25.5 -1s22.5 -1.5 34.5 -2.5s23.5 -1.83301 34.5 -2.5s19.833 -1 26.5 -1l1 145c0 32 -1.83301 58.333 -5.5 79s-10.167 36.667 -19.5 48s-21.666 19.166 -36.999 23.499s-34.666 6.5 -57.999 6.5c-26.667 0 -54.667 -5.83301 -84 -17.5
s-58.333 -25.834 -87 -42.501s-55.834 -34.167 -81.501 -52.5l-66.5 -46.5h-32l-41 195c22.667 10.667 47.834 21.167 75.501 31.5s57.5 19.666 89.5 27.999s66 15 102 20s73.333 7.5 112 7.5c46.667 0 94 -5.16699 142 -15.5s91.167 -27.833 129.5 -52.5
s69.5 -57.334 93.5 -98.001s35.667 -91 35 -151l-6 -496c0 -10 1.66699 -18.833 5 -26.5s8.5 -14.334 15.5 -20.001s15.667 -10 26 -13s22.5 -4.5 36.5 -4.5c6.66699 0 18.167 1.33301 34.5 4s31.833 5.66699 46.5 9h20v-70c-9.33301 -7.33301 -23 -15.666 -41 -24.999
s-38.333 -18.333 -61 -27s-46.5 -16 -71.5 -22s-48.833 -9 -71.5 -9c-29.333 0 -56.333 2.66699 -81 8s-46.167 14.166 -64.5 26.499s-32.666 29 -42.999 50s-15.5 47.167 -15.5 78.5v0c-24.667 -37.333 -50.667 -66.833 -78 -88.5s-54.833 -38 -82.5 -49
s-54.334 -18 -80.001 -21s-48.834 -4.5 -69.501 -4.5zM458.998 131.004c14 0 28.168 1.17188 42.501 3.50488s28.5 6.66602 42.5 12.999s27.167 14.666 39.5 24.999s23.5 23.5 33.5 39.5l2 285c-45.333 0 -86.333 -3.83301 -123 -11.5s-67.834 -19.834 -93.501 -36.501
s-45.5 -37.834 -59.5 -63.501s-21 -56.5 -21 -92.5c0 -31.333 4.16699 -57.333 12.5 -78s19 -37.334 32 -50.001s27.667 -21.5 44 -26.5s32.5 -7.5 48.5 -7.5zM672.999 1074.01l-125.499 77.001l-88.5 53.5l-64 39c-18 11 -35 22.167 -51 33.5
c-29.333 20.667 -50.333 40 -63 58s-19 39.667 -19 65c0 11.333 2.5 22.166 7.5 32.499s12.167 19.5 21.5 27.5s20.5 14.333 33.5 19s27.5 7 43.5 7c14.667 0 28.5 -1 41.5 -3s25.833 -6 38.5 -12s25.167 -14.5 37.5 -25.5s25.166 -25.5 38.499 -43.5l35 -48l39.5 -56.5
l53 -77l74.5 -108.5z" />
    <glyph glyph-name="aacute" unicode="&#xe1;" horiz-adv-x="1038" 
d="M306 -20c-39.333 0 -75.002 7.33691 -107.002 22.0039s-59.5 34.167 -82.5 58.5s-40.667 52.5 -53 84.5s-18.5 65.333 -18.5 100c0 40.667 7 77.167 21 109.5s32.833 60.833 56.5 85.5s51 45.834 82 63.501s63.333 32 97 43s67.334 19.167 101.001 24.5s65.5 8 95.5 8
c6 0 14.5 -0.333008 25.5 -1s22.5 -1.5 34.5 -2.5s23.5 -1.83301 34.5 -2.5s19.833 -1 26.5 -1l1 145c0 32 -1.83301 58.333 -5.5 79s-10.167 36.667 -19.5 48s-21.666 19.166 -36.999 23.499s-34.666 6.5 -57.999 6.5c-26.667 0 -54.667 -5.83301 -84 -17.5
s-58.333 -25.834 -87 -42.501s-55.834 -34.167 -81.501 -52.5l-66.5 -46.5h-32l-41 195c22.667 10.667 47.834 21.167 75.501 31.5s57.5 19.666 89.5 27.999s66 15 102 20s73.333 7.5 112 7.5c46.667 0 94 -5.16699 142 -15.5s91.167 -27.833 129.5 -52.5
s69.5 -57.334 93.5 -98.001s35.667 -91 35 -151l-6 -496c0 -10 1.66699 -18.833 5 -26.5s8.5 -14.334 15.5 -20.001s15.667 -10 26 -13s22.5 -4.5 36.5 -4.5c6.66699 0 18.167 1.33301 34.5 4s31.833 5.66699 46.5 9h20v-70c-9.33301 -7.33301 -23 -15.666 -41 -24.999
s-38.333 -18.333 -61 -27s-46.5 -16 -71.5 -22s-48.833 -9 -71.5 -9c-29.333 0 -56.333 2.66699 -81 8s-46.167 14.166 -64.5 26.499s-32.666 29 -42.999 50s-15.5 47.167 -15.5 78.5v0c-24.667 -37.333 -50.667 -66.833 -78 -88.5s-54.833 -38 -82.5 -49
s-54.334 -18 -80.001 -21s-48.834 -4.5 -69.501 -4.5zM458.998 131.004c14 0 28.168 1.17188 42.501 3.50488s28.5 6.66602 42.5 12.999s27.167 14.666 39.5 24.999s23.5 23.5 33.5 39.5l2 285c-45.333 0 -86.333 -3.83301 -123 -11.5s-67.834 -19.834 -93.501 -36.501
s-45.5 -37.834 -59.5 -63.501s-21 -56.5 -21 -92.5c0 -31.333 4.16699 -57.333 12.5 -78s19 -37.334 32 -50.001s27.667 -21.5 44 -26.5s32.5 -7.5 48.5 -7.5zM303.999 1112.01l74.502 108.501l53 77l39.5 56.5l35 48c13.333 18 26.166 32.5 38.499 43.5
s24.666 19.5 36.999 25.5s25 10 38 12s27.167 3 42.5 3c16 0 30.5 -2.33301 43.5 -7s24.167 -11 33.5 -19s16.5 -17.167 21.5 -27.5s7.5 -21.166 7.5 -32.499c0 -12.667 -1.66699 -24.334 -5 -35.001s-8.33301 -20.834 -15 -30.501s-15.167 -19.167 -25.5 -28.5
s-22.5 -19 -36.5 -29c-16 -11.333 -33 -22.5 -51 -33.5l-64 -39l-88.5 -53.5l-125.5 -77z" />
    <glyph glyph-name="acircumflex" unicode="&#xe2;" horiz-adv-x="1038" 
d="M306 -20c-39.333 0 -75.002 7.33691 -107.002 22.0039s-59.5 34.167 -82.5 58.5s-40.667 52.5 -53 84.5s-18.5 65.333 -18.5 100c0 40.667 7 77.167 21 109.5s32.833 60.833 56.5 85.5s51 45.834 82 63.501s63.333 32 97 43s67.334 19.167 101.001 24.5s65.5 8 95.5 8
c6 0 14.5 -0.333008 25.5 -1s22.5 -1.5 34.5 -2.5s23.5 -1.83301 34.5 -2.5s19.833 -1 26.5 -1l1 145c0 32 -1.83301 58.333 -5.5 79s-10.167 36.667 -19.5 48s-21.666 19.166 -36.999 23.499s-34.666 6.5 -57.999 6.5c-26.667 0 -54.667 -5.83301 -84 -17.5
s-58.333 -25.834 -87 -42.501s-55.834 -34.167 -81.501 -52.5l-66.5 -46.5h-32l-41 195c22.667 10.667 47.834 21.167 75.501 31.5s57.5 19.666 89.5 27.999s66 15 102 20s73.333 7.5 112 7.5c46.667 0 94 -5.16699 142 -15.5s91.167 -27.833 129.5 -52.5
s69.5 -57.334 93.5 -98.001s35.667 -91 35 -151l-6 -496c0 -10 1.66699 -18.833 5 -26.5s8.5 -14.334 15.5 -20.001s15.667 -10 26 -13s22.5 -4.5 36.5 -4.5c6.66699 0 18.167 1.33301 34.5 4s31.833 5.66699 46.5 9h20v-70c-9.33301 -7.33301 -23 -15.666 -41 -24.999
s-38.333 -18.333 -61 -27s-46.5 -16 -71.5 -22s-48.833 -9 -71.5 -9c-29.333 0 -56.333 2.66699 -81 8s-46.167 14.166 -64.5 26.499s-32.666 29 -42.999 50s-15.5 47.167 -15.5 78.5v0c-24.667 -37.333 -50.667 -66.833 -78 -88.5s-54.833 -38 -82.5 -49
s-54.334 -18 -80.001 -21s-48.834 -4.5 -69.501 -4.5zM458.998 131.004c14 0 28.168 1.17188 42.501 3.50488s28.5 6.66602 42.5 12.999s27.167 14.666 39.5 24.999s23.5 23.5 33.5 39.5l2 285c-45.333 0 -86.333 -3.83301 -123 -11.5s-67.834 -19.834 -93.501 -36.501
s-45.5 -37.834 -59.5 -63.501s-21 -56.5 -21 -92.5c0 -31.333 4.16699 -57.333 12.5 -78s19 -37.334 32 -50.001s27.667 -21.5 44 -26.5s32.5 -7.5 48.5 -7.5zM164.999 1106.01l194.001 289c17.333 26.667 37.666 46.667 60.999 60s50 20 80 20s56.833 -6.66699 80.5 -20
s44.167 -33.333 61.5 -60l195 -288l-52 -35l-284 232l-285 -234z" />
    <glyph glyph-name="atilde" unicode="&#xe3;" horiz-adv-x="1038" 
d="M306 -20c-39.333 0 -75.002 7.33691 -107.002 22.0039s-59.5 34.167 -82.5 58.5s-40.667 52.5 -53 84.5s-18.5 65.333 -18.5 100c0 40.667 7 77.167 21 109.5s32.833 60.833 56.5 85.5s51 45.834 82 63.501s63.333 32 97 43s67.334 19.167 101.001 24.5s65.5 8 95.5 8
c6 0 14.5 -0.333008 25.5 -1s22.5 -1.5 34.5 -2.5s23.5 -1.83301 34.5 -2.5s19.833 -1 26.5 -1l1 145c0 32 -1.83301 58.333 -5.5 79s-10.167 36.667 -19.5 48s-21.666 19.166 -36.999 23.499s-34.666 6.5 -57.999 6.5c-26.667 0 -54.667 -5.83301 -84 -17.5
s-58.333 -25.834 -87 -42.501s-55.834 -34.167 -81.501 -52.5l-66.5 -46.5h-32l-41 195c22.667 10.667 47.834 21.167 75.501 31.5s57.5 19.666 89.5 27.999s66 15 102 20s73.333 7.5 112 7.5c46.667 0 94 -5.16699 142 -15.5s91.167 -27.833 129.5 -52.5
s69.5 -57.334 93.5 -98.001s35.667 -91 35 -151l-6 -496c0 -10 1.66699 -18.833 5 -26.5s8.5 -14.334 15.5 -20.001s15.667 -10 26 -13s22.5 -4.5 36.5 -4.5c6.66699 0 18.167 1.33301 34.5 4s31.833 5.66699 46.5 9h20v-70c-9.33301 -7.33301 -23 -15.666 -41 -24.999
s-38.333 -18.333 -61 -27s-46.5 -16 -71.5 -22s-48.833 -9 -71.5 -9c-29.333 0 -56.333 2.66699 -81 8s-46.167 14.166 -64.5 26.499s-32.666 29 -42.999 50s-15.5 47.167 -15.5 78.5v0c-24.667 -37.333 -50.667 -66.833 -78 -88.5s-54.833 -38 -82.5 -49
s-54.334 -18 -80.001 -21s-48.834 -4.5 -69.501 -4.5zM458.998 131.004c14 0 28.168 1.17188 42.501 3.50488s28.5 6.66602 42.5 12.999s27.167 14.666 39.5 24.999s23.5 23.5 33.5 39.5l2 285c-45.333 0 -86.333 -3.83301 -123 -11.5s-67.834 -19.834 -93.501 -36.501
s-45.5 -37.834 -59.5 -63.501s-21 -56.5 -21 -92.5c0 -31.333 4.16699 -57.333 12.5 -78s19 -37.334 32 -50.001s27.667 -21.5 44 -26.5s32.5 -7.5 48.5 -7.5zM148.999 1127.01c6.66699 40 17.5039 76.834 32.5039 110.501s33.167 62.834 54.5 87.501
s45.666 43.834 72.999 57.501s56.666 20.5 87.999 20.5c21.333 0 44.666 -3.83301 69.999 -11.5s53.333 -19.834 84 -36.501c32 -17.333 58.5 -29.333 79.5 -36s37.167 -10 48.5 -10c36.667 0 63.667 9.5 81 28.5s30.333 45.5 39 79.5h74
c-6 -39.333 -16.167 -75.833 -30.5 -109.5s-32 -62.834 -53 -87.501s-45 -43.834 -72 -57.501s-56.167 -20.5 -87.5 -20.5c-11.333 0 -22 0.666992 -32 2s-20.833 3.83301 -32.5 7.5s-24.5 8.66699 -38.5 15s-30.333 14.833 -49 25.5c-30 16.667 -56.167 28.667 -78.5 36
s-39.5 11 -51.5 11c-37.333 0 -65.333 -10 -84 -30s-32.334 -47.333 -41.001 -82h-74z" />
    <glyph glyph-name="adieresis" unicode="&#xe4;" horiz-adv-x="1038" 
d="M306 -20c-39.333 0 -75.002 7.33691 -107.002 22.0039s-59.5 34.167 -82.5 58.5s-40.667 52.5 -53 84.5s-18.5 65.333 -18.5 100c0 40.667 7 77.167 21 109.5s32.833 60.833 56.5 85.5s51 45.834 82 63.501s63.333 32 97 43s67.334 19.167 101.001 24.5s65.5 8 95.5 8
c6 0 14.5 -0.333008 25.5 -1s22.5 -1.5 34.5 -2.5s23.5 -1.83301 34.5 -2.5s19.833 -1 26.5 -1l1 145c0 32 -1.83301 58.333 -5.5 79s-10.167 36.667 -19.5 48s-21.666 19.166 -36.999 23.499s-34.666 6.5 -57.999 6.5c-26.667 0 -54.667 -5.83301 -84 -17.5
s-58.333 -25.834 -87 -42.501s-55.834 -34.167 -81.501 -52.5l-66.5 -46.5h-32l-41 195c22.667 10.667 47.834 21.167 75.501 31.5s57.5 19.666 89.5 27.999s66 15 102 20s73.333 7.5 112 7.5c46.667 0 94 -5.16699 142 -15.5s91.167 -27.833 129.5 -52.5
s69.5 -57.334 93.5 -98.001s35.667 -91 35 -151l-6 -496c0 -10 1.66699 -18.833 5 -26.5s8.5 -14.334 15.5 -20.001s15.667 -10 26 -13s22.5 -4.5 36.5 -4.5c6.66699 0 18.167 1.33301 34.5 4s31.833 5.66699 46.5 9h20v-70c-9.33301 -7.33301 -23 -15.666 -41 -24.999
s-38.333 -18.333 -61 -27s-46.5 -16 -71.5 -22s-48.833 -9 -71.5 -9c-29.333 0 -56.333 2.66699 -81 8s-46.167 14.166 -64.5 26.499s-32.666 29 -42.999 50s-15.5 47.167 -15.5 78.5v0c-24.667 -37.333 -50.667 -66.833 -78 -88.5s-54.833 -38 -82.5 -49
s-54.334 -18 -80.001 -21s-48.834 -4.5 -69.501 -4.5zM458.998 131.004c14 0 28.168 1.17188 42.501 3.50488s28.5 6.66602 42.5 12.999s27.167 14.666 39.5 24.999s23.5 23.5 33.5 39.5l2 285c-45.333 0 -86.333 -3.83301 -123 -11.5s-67.834 -19.834 -93.501 -36.501
s-45.5 -37.834 -59.5 -63.501s-21 -56.5 -21 -92.5c0 -31.333 4.16699 -57.333 12.5 -78s19 -37.334 32 -50.001s27.667 -21.5 44 -26.5s32.5 -7.5 48.5 -7.5zM727.999 1122.01c-18.667 0 -36 3.5 -52 10.5s-30 16.5 -42 28.5s-21.5 26.167 -28.5 42.5
s-10.5 33.833 -10.5 52.5s3.5 36.167 10.5 52.5s16.5 30.5 28.5 42.5s26 21.5 42 28.5s33.333 10.5 52 10.5s36.334 -3.5 53.001 -10.5s31.334 -16.5 44.001 -28.5s22.5 -26.167 29.5 -42.5s10.5 -33.833 10.5 -52.5s-3.5 -36.167 -10.5 -52.5s-16.833 -30.5 -29.5 -42.5
s-27.334 -21.5 -44.001 -28.5s-34.334 -10.5 -53.001 -10.5zM279.999 1122.01c-18.667 0 -36 3.5 -52 10.5s-30 16.5 -42 28.5s-21.5 26.167 -28.5 42.5s-10.5 33.833 -10.5 52.5s3.5 36.167 10.5 52.5s16.5 30.5 28.5 42.5s26 21.5 42 28.5s33.333 10.5 52 10.5
s36.334 -3.5 53.001 -10.5s31.334 -16.5 44.001 -28.5s22.5 -26.167 29.5 -42.5s10.5 -33.833 10.5 -52.5s-3.5 -36.167 -10.5 -52.5s-16.833 -30.5 -29.5 -42.5s-27.334 -21.5 -44.001 -28.5s-34.334 -10.5 -53.001 -10.5z" />
    <glyph glyph-name="aring" unicode="&#xe5;" horiz-adv-x="1038" 
d="M306 -20c-39.333 0 -75.002 7.33691 -107.002 22.0039s-59.5 34.167 -82.5 58.5s-40.667 52.5 -53 84.5s-18.5 65.333 -18.5 100c0 40.667 7 77.167 21 109.5s32.833 60.833 56.5 85.5s51 45.834 82 63.501s63.333 32 97 43s67.334 19.167 101.001 24.5s65.5 8 95.5 8
c6 0 14.5 -0.333008 25.5 -1s22.5 -1.5 34.5 -2.5s23.5 -1.83301 34.5 -2.5s19.833 -1 26.5 -1l1 145c0 32 -1.83301 58.333 -5.5 79s-10.167 36.667 -19.5 48s-21.666 19.166 -36.999 23.499s-34.666 6.5 -57.999 6.5c-26.667 0 -54.667 -5.83301 -84 -17.5
s-58.333 -25.834 -87 -42.501s-55.834 -34.167 -81.501 -52.5l-66.5 -46.5h-32l-41 195c22.667 10.667 47.834 21.167 75.501 31.5s57.5 19.666 89.5 27.999s66 15 102 20s73.333 7.5 112 7.5c46.667 0 94 -5.16699 142 -15.5s91.167 -27.833 129.5 -52.5
s69.5 -57.334 93.5 -98.001s35.667 -91 35 -151l-6 -496c0 -10 1.66699 -18.833 5 -26.5s8.5 -14.334 15.5 -20.001s15.667 -10 26 -13s22.5 -4.5 36.5 -4.5c6.66699 0 18.167 1.33301 34.5 4s31.833 5.66699 46.5 9h20v-70c-9.33301 -7.33301 -23 -15.666 -41 -24.999
s-38.333 -18.333 -61 -27s-46.5 -16 -71.5 -22s-48.833 -9 -71.5 -9c-29.333 0 -56.333 2.66699 -81 8s-46.167 14.166 -64.5 26.499s-32.666 29 -42.999 50s-15.5 47.167 -15.5 78.5v0c-24.667 -37.333 -50.667 -66.833 -78 -88.5s-54.833 -38 -82.5 -49
s-54.334 -18 -80.001 -21s-48.834 -4.5 -69.501 -4.5zM458.998 131.004c14 0 28.168 1.17188 42.501 3.50488s28.5 6.66602 42.5 12.999s27.167 14.666 39.5 24.999s23.5 23.5 33.5 39.5l2 285c-45.333 0 -86.333 -3.83301 -123 -11.5s-67.834 -19.834 -93.501 -36.501
s-45.5 -37.834 -59.5 -63.501s-21 -56.5 -21 -92.5c0 -31.333 4.16699 -57.333 12.5 -78s19 -37.334 32 -50.001s27.667 -21.5 44 -26.5s32.5 -7.5 48.5 -7.5zM499.999 1069.01c-32 0 -61.6699 4.33398 -89.0029 13.001s-51 21.667 -71 39s-35.667 38.833 -47 64.5
s-17 55.167 -17 88.5s6.16699 63 18.5 89s29.333 47.833 51 65.5s46.834 31.167 75.501 40.5s59.334 14 92.001 14c31.333 0 60.333 -4.5 87 -13.5s49.834 -22 69.501 -39s35 -38.333 46 -64s16.5 -54.834 16.5 -87.501c0 -34 -6.33301 -64 -19 -90
s-29.5 -47.833 -50.5 -65.5s-45.667 -31.167 -74 -40.5s-57.833 -14 -88.5 -14zM512.996 1130.01c32 0 55.333 12.335 70 37.002s22 57 22 97c0 22 -2.5 42.667 -7.5 62s-12 36.166 -21 50.499s-20 25.5 -33 33.5s-27.5 12 -43.5 12c-32 0 -55.833 -12 -71.5 -36
s-23.5 -57.333 -23.5 -100c0 -23.333 2.5 -44.5 7.5 -63.5s12.333 -35.333 22 -49s21.167 -24.334 34.5 -32.001s28 -11.5 44 -11.5z" />
    <glyph glyph-name="ae" unicode="&#xe6;" horiz-adv-x="1550" 
d="M1084 -22c-46 0 -88.6631 4.16992 -127.996 12.5029s-75.5 21 -108.5 38s-63.167 38 -90.5 63s-51.333 54.167 -72 87.5v0c-31.333 -50 -64.333 -88.5 -99 -115.5s-68.5 -46.667 -101.5 -59s-64.167 -19.5 -93.5 -21.5s-54.333 -3 -75 -3
c-40.667 0 -77.667 7.33301 -111 22s-61.833 34.167 -85.5 58.5s-42 52.5 -55 84.5s-19.5 65.333 -19.5 100c0 40.667 7 77.167 21 109.5s32.833 60.833 56.5 85.5s51 45.834 82 63.501s63.333 32 97 43s67.334 19.167 101.001 24.5s65.5 8 95.5 8
c6 0 14.667 -0.333008 26 -1s23 -1.5 35 -2.5s23.667 -1.83301 35 -2.5s20.333 -1 27 -1l1 145c0 32 -2 58.167 -6 78.5s-10.667 36.333 -20 48s-21.833 19.667 -37.5 24s-35.167 6.5 -58.5 6.5c-18 0 -36.5 -2.66699 -55.5 -8s-38.167 -12.5 -57.5 -21.5
s-38.5 -19.167 -57.5 -30.5s-37.5 -23 -55.5 -35l-50.5 -34.5l-42.5 -29.5h-32l-41 195c22.667 10.667 47.834 21.167 75.501 31.5s57.5 19.666 89.5 27.999s66 15 102 20s73.333 7.5 112 7.5c28 0 56 -2.16699 84 -6.5s55.5 -11.166 82.5 -20.499s52.667 -21.333 77 -36
s46.5 -32.334 66.5 -53.001c36 32 78.5 59.333 127.5 82s105.833 34 170.5 34c66 0 124.5 -10.5 175.5 -31.5s93.667 -49 128 -84s60.5 -75.333 78.5 -121s27 -93.167 27 -142.5c0 -6.66699 -0.166992 -15.167 -0.5 -25.5s-0.833008 -20.833 -1.5 -31.5
s-1.33398 -20.334 -2.00098 -29.001s-1.33398 -14.334 -2.00098 -17.001h-620c0.666992 -124.667 26.5 -219.834 77.5 -285.501s130.167 -98.5 237.5 -98.5c35.333 0 67.5 3.33301 96.5 10s55.167 14.667 78.5 24s44.166 19.5 62.499 30.5l48.5 28.5h23v-77
c-22.667 -20 -48.834 -40 -78.501 -60s-62.334 -38 -98.001 -54s-73.834 -29.167 -114.501 -39.5s-83 -15.5 -127 -15.5zM1230 599.003c0 42 -2.16797 81.167 -6.50098 117.5s-12.333 67.833 -24 94.5s-27.5 47.667 -47.5 63s-45.333 23 -76 23
c-61.333 0 -107.666 -26.5 -138.999 -79.5s-49.333 -125.833 -54 -218.5h347zM461.003 131.003c14 0 28.168 1.17188 42.501 3.50488s28.5 6.66602 42.5 12.999s27.167 14.666 39.5 24.999s23.5 23.5 33.5 39.5l2 285c-45.333 0 -86.333 -3.83301 -123 -11.5
s-68 -19.834 -94 -36.501s-46.167 -37.834 -60.5 -63.501s-21.5 -56.5 -21.5 -92.5c0 -31.333 4.16699 -57.333 12.5 -78s19.166 -37.334 32.499 -50.001s28.333 -21.5 45 -26.5s33 -7.5 49 -7.5z" />
    <glyph glyph-name="ccedilla" unicode="&#xe7;" horiz-adv-x="892" 
d="M499 -446c-34 0 -66.832 5.33203 -98.499 15.999s-61.5 23.667 -89.5 39v91h23c8 -5.33301 17.667 -11.166 29 -17.499s23.833 -12.166 37.5 -17.499s28 -9.83301 43 -13.5s30.5 -5.5 46.5 -5.5c30 0 53.167 8 69.5 24s24.5 36 24.5 60
c0 29.333 -11.167 48.833 -33.5 58.5s-58.5 14.5 -108.5 14.5v177c-64 4.66699 -120.667 20.667 -170 48s-90.5 62.333 -123.5 105s-58 91.667 -75 147s-25.5 113.333 -25.5 174c0 47.333 4.83301 93.5 14.5 138.5s24.5 87.333 44.5 127s44.833 76.334 74.5 110.001
s64.667 62.5 105 86.5s85.833 42.833 136.5 56.5s106.667 20.5 168 20.5c35.333 0 67.333 -2.66699 96 -8s54.334 -11.833 77.001 -19.5s42.667 -15.834 60 -24.501s32 -16.334 44 -23.001l-41 -198h-34c-24 18 -49.667 35.667 -77 53s-54.833 33 -82.5 47
s-54.834 25.167 -81.501 33.5s-51.334 12.5 -74.001 12.5c-15.333 0 -29.5 -4.83301 -42.5 -14.5s-27.833 -25.5 -44.5 -47.5c-8 -10 -15.667 -23.833 -23 -41.5s-14 -38.5 -20 -62.5s-10.833 -51 -14.5 -81s-5.5 -62.667 -5.5 -98c0 -62 5.33301 -117 16 -165
s27.834 -88.5 51.501 -121.5s54 -58.167 91 -75.5s81.833 -26 134.5 -26c26.667 0 51.834 3.16699 75.501 9.5s45.5 14.333 65.5 24s38.167 19.667 54.5 30l43.5 27.5h23v-77c-19.333 -17.333 -41.5 -35 -66.5 -53s-52.167 -34.667 -81.5 -50s-60.833 -28.666 -94.5 -39.999
s-69.167 -19 -106.5 -23v-73c26.667 0 52.5 -2.5 77.5 -7.5s47.167 -13.5 66.5 -25.5s34.833 -27.833 46.5 -47.5s17.5 -43.834 17.5 -72.501c0 -32 -5.83301 -60.5 -17.5 -85.5s-28.334 -46 -50.001 -63s-47.334 -30 -77.001 -39s-62.5 -13.5 -98.5 -13.5z" />
    <glyph glyph-name="egrave" unicode="&#xe8;" horiz-adv-x="1001" 
d="M535 -22c-72 0 -137.831 10.835 -197.498 32.502s-111 53.834 -154 96.501s-76.333 95.167 -100 157.5s-35.5 134.5 -35.5 216.5c0 68 11.333 133.167 34 195.5s55.334 117.166 98.001 164.499s94.834 85.166 156.501 113.499s131.5 42.5 209.5 42.5
c66 0 124.5 -11 175.5 -33s93.667 -50.667 128 -86s60.5 -75.833 78.5 -121.5s27 -91.834 27 -138.501c0 -6 -0.166992 -14 -0.5 -24s-0.833008 -20 -1.5 -30s-1.33398 -19.5 -2.00098 -28.5s-1.33398 -15.833 -2.00098 -20.5h-621
c0.666992 -125.333 26.5 -220.666 77.5 -285.999s130.5 -98 238.5 -98c35.333 0 67.5 3.33301 96.5 10s55.167 14.667 78.5 24s44.166 19.5 62.499 30.5l48.5 28.5h23v-77c-22 -19.333 -48 -38.833 -78 -58.5s-62.833 -37.834 -98.5 -54.501s-73.834 -30.167 -114.501 -40.5
s-83 -15.5 -127 -15.5zM681.002 599.002c0 42 -2.16699 81.168 -6.5 117.501s-12.333 67.833 -24 94.5s-27.5 47.667 -47.5 63s-45.333 23 -76 23s-57.667 -6.83301 -81 -20.5s-43 -33.334 -59 -59.001s-28.5 -57 -37.5 -94s-14.5 -78.5 -16.5 -124.5h348zM664.002 1074
l-125.499 77.001l-88.5 53.5l-64 39c-18 11 -35 22.167 -51 33.5c-29.333 20.667 -50.333 40 -63 58s-19 39.667 -19 65c0 11.333 2.5 22.166 7.5 32.499s12.167 19.5 21.5 27.5s20.5 14.333 33.5 19s27.5 7 43.5 7c14.667 0 28.5 -1 41.5 -3s25.833 -6 38.5 -12
s25.167 -14.5 37.5 -25.5s25.166 -25.5 38.499 -43.5l35 -48l39.5 -56.5l53 -77l74.5 -108.5z" />
    <glyph glyph-name="eacute" unicode="&#xe9;" horiz-adv-x="1001" 
d="M535 -22c-72 0 -137.831 10.835 -197.498 32.502s-111 53.834 -154 96.501s-76.333 95.167 -100 157.5s-35.5 134.5 -35.5 216.5c0 68 11.333 133.167 34 195.5s55.334 117.166 98.001 164.499s94.834 85.166 156.501 113.499s131.5 42.5 209.5 42.5
c66 0 124.5 -11 175.5 -33s93.667 -50.667 128 -86s60.5 -75.833 78.5 -121.5s27 -91.834 27 -138.501c0 -6 -0.166992 -14 -0.5 -24s-0.833008 -20 -1.5 -30s-1.33398 -19.5 -2.00098 -28.5s-1.33398 -15.833 -2.00098 -20.5h-621
c0.666992 -125.333 26.5 -220.666 77.5 -285.999s130.5 -98 238.5 -98c35.333 0 67.5 3.33301 96.5 10s55.167 14.667 78.5 24s44.166 19.5 62.499 30.5l48.5 28.5h23v-77c-22 -19.333 -48 -38.833 -78 -58.5s-62.833 -37.834 -98.5 -54.501s-73.834 -30.167 -114.501 -40.5
s-83 -15.5 -127 -15.5zM681.002 599.002c0 42 -2.16699 81.168 -6.5 117.501s-12.333 67.833 -24 94.5s-27.5 47.667 -47.5 63s-45.333 23 -76 23s-57.667 -6.83301 -81 -20.5s-43 -33.334 -59 -59.001s-28.5 -57 -37.5 -94s-14.5 -78.5 -16.5 -124.5h348zM323.002 1112
l74.502 108.501l53 77l39.5 56.5l35 48c13.333 18 26.166 32.5 38.499 43.5s24.666 19.5 36.999 25.5s25 10 38 12s27.167 3 42.5 3c16 0 30.5 -2.33301 43.5 -7s24.167 -11 33.5 -19s16.5 -17.167 21.5 -27.5s7.5 -21.166 7.5 -32.499
c0 -12.667 -1.66699 -24.334 -5 -35.001s-8.33301 -20.834 -15 -30.501s-15.167 -19.167 -25.5 -28.5s-22.5 -19 -36.5 -29c-16 -11.333 -33 -22.5 -51 -33.5l-64 -39l-88.5 -53.5l-125.5 -77z" />
    <glyph glyph-name="ecircumflex" unicode="&#xea;" horiz-adv-x="1001" 
d="M535 -22c-72 0 -137.831 10.835 -197.498 32.502s-111 53.834 -154 96.501s-76.333 95.167 -100 157.5s-35.5 134.5 -35.5 216.5c0 68 11.333 133.167 34 195.5s55.334 117.166 98.001 164.499s94.834 85.166 156.501 113.499s131.5 42.5 209.5 42.5
c66 0 124.5 -11 175.5 -33s93.667 -50.667 128 -86s60.5 -75.833 78.5 -121.5s27 -91.834 27 -138.501c0 -6 -0.166992 -14 -0.5 -24s-0.833008 -20 -1.5 -30s-1.33398 -19.5 -2.00098 -28.5s-1.33398 -15.833 -2.00098 -20.5h-621
c0.666992 -125.333 26.5 -220.666 77.5 -285.999s130.5 -98 238.5 -98c35.333 0 67.5 3.33301 96.5 10s55.167 14.667 78.5 24s44.166 19.5 62.499 30.5l48.5 28.5h23v-77c-22 -19.333 -48 -38.833 -78 -58.5s-62.833 -37.834 -98.5 -54.501s-73.834 -30.167 -114.501 -40.5
s-83 -15.5 -127 -15.5zM681.002 599.002c0 42 -2.16699 81.168 -6.5 117.501s-12.333 67.833 -24 94.5s-27.5 47.667 -47.5 63s-45.333 23 -76 23s-57.667 -6.83301 -81 -20.5s-43 -33.334 -59 -59.001s-28.5 -57 -37.5 -94s-14.5 -78.5 -16.5 -124.5h348zM184.002 1106
l194.001 289c17.333 26.667 37.666 46.667 60.999 60s50 20 80 20s56.833 -6.66699 80.5 -20s44.167 -33.333 61.5 -60l195 -288l-52 -35l-284 232l-285 -234z" />
    <glyph glyph-name="edieresis" unicode="&#xeb;" horiz-adv-x="1001" 
d="M535 -22c-72 0 -137.831 10.835 -197.498 32.502s-111 53.834 -154 96.501s-76.333 95.167 -100 157.5s-35.5 134.5 -35.5 216.5c0 68 11.333 133.167 34 195.5s55.334 117.166 98.001 164.499s94.834 85.166 156.501 113.499s131.5 42.5 209.5 42.5
c66 0 124.5 -11 175.5 -33s93.667 -50.667 128 -86s60.5 -75.833 78.5 -121.5s27 -91.834 27 -138.501c0 -6 -0.166992 -14 -0.5 -24s-0.833008 -20 -1.5 -30s-1.33398 -19.5 -2.00098 -28.5s-1.33398 -15.833 -2.00098 -20.5h-621
c0.666992 -125.333 26.5 -220.666 77.5 -285.999s130.5 -98 238.5 -98c35.333 0 67.5 3.33301 96.5 10s55.167 14.667 78.5 24s44.166 19.5 62.499 30.5l48.5 28.5h23v-77c-22 -19.333 -48 -38.833 -78 -58.5s-62.833 -37.834 -98.5 -54.501s-73.834 -30.167 -114.501 -40.5
s-83 -15.5 -127 -15.5zM681.002 599.002c0 42 -2.16699 81.168 -6.5 117.501s-12.333 67.833 -24 94.5s-27.5 47.667 -47.5 63s-45.333 23 -76 23s-57.667 -6.83301 -81 -20.5s-43 -33.334 -59 -59.001s-28.5 -57 -37.5 -94s-14.5 -78.5 -16.5 -124.5h348zM742.002 1122
c-18.667 0 -36 3.5 -52 10.5s-30 16.5 -42 28.5s-21.5 26.167 -28.5 42.5s-10.5 33.833 -10.5 52.5s3.5 36.167 10.5 52.5s16.5 30.5 28.5 42.5s26 21.5 42 28.5s33.333 10.5 52 10.5s36.334 -3.5 53.001 -10.5s31.334 -16.5 44.001 -28.5s22.5 -26.167 29.5 -42.5
s10.5 -33.833 10.5 -52.5s-3.5 -36.167 -10.5 -52.5s-16.833 -30.5 -29.5 -42.5s-27.334 -21.5 -44.001 -28.5s-34.334 -10.5 -53.001 -10.5zM294.002 1122c-18.667 0 -36 3.5 -52 10.5s-30 16.5 -42 28.5s-21.5 26.167 -28.5 42.5s-10.5 33.833 -10.5 52.5
s3.5 36.167 10.5 52.5s16.5 30.5 28.5 42.5s26 21.5 42 28.5s33.333 10.5 52 10.5s36.334 -3.5 53.001 -10.5s31.334 -16.5 44.001 -28.5s22.5 -26.167 29.5 -42.5s10.5 -33.833 10.5 -52.5s-3.5 -36.167 -10.5 -52.5s-16.833 -30.5 -29.5 -42.5
s-27.334 -21.5 -44.001 -28.5s-34.334 -10.5 -53.001 -10.5z" />
    <glyph glyph-name="igrave" unicode="&#xec;" horiz-adv-x="617" 
d="M39 59l103.002 31.998c13.333 4 24.166 10.833 32.499 20.5s12.5 21.834 12.5 36.501v610c0 17.333 -4.5 31.833 -13.5 43.5s-25.167 21.834 -48.5 30.501l-82 30v48l412 79v-841c0 -15.333 4.16699 -27.5 12.5 -36.5s19.166 -15.833 32.499 -20.5l94 -32v-59h-555v59z
M444.002 1074l-125.499 77.001l-88.5 53.5l-64 39c-18 11 -35 22.167 -51 33.5c-29.333 20.667 -50.333 40 -63 58s-19 39.667 -19 65c0 11.333 2.5 22.166 7.5 32.499s12.167 19.5 21.5 27.5s20.5 14.333 33.5 19s27.5 7 43.5 7c14.667 0 28.5 -1 41.5 -3
s25.833 -6 38.5 -12s25.167 -14.5 37.5 -25.5s25.166 -25.5 38.499 -43.5l35 -48l39.5 -56.5l53 -77l74.5 -108.5z" />
    <glyph glyph-name="iacute" unicode="&#xed;" horiz-adv-x="617" 
d="M39 59l103.002 31.998c13.333 4 24.166 10.833 32.499 20.5s12.5 21.834 12.5 36.501v610c0 17.333 -4.5 31.833 -13.5 43.5s-25.167 21.834 -48.5 30.501l-82 30v48l412 79v-841c0 -15.333 4.16699 -27.5 12.5 -36.5s19.166 -15.833 32.499 -20.5l94 -32v-59h-555v59z
M63.002 1112l74.502 108.501l53 77l39.5 56.5l35 48c13.333 18 26.166 32.5 38.499 43.5s24.666 19.5 36.999 25.5s25 10 38 12s27.167 3 42.5 3c16 0 30.5 -2.33301 43.5 -7s24.167 -11 33.5 -19s16.5 -17.167 21.5 -27.5s7.5 -21.166 7.5 -32.499
c0 -12.667 -1.66699 -24.334 -5 -35.001s-8.33301 -20.834 -15 -30.501s-15.167 -19.167 -25.5 -28.5s-22.5 -19 -36.5 -29c-16 -11.333 -33 -22.5 -51 -33.5l-64 -39l-88.5 -53.5l-125.5 -77z" />
    <glyph glyph-name="icircumflex" unicode="&#xee;" horiz-adv-x="621" 
d="M-25 1106l184.002 289c17.333 28 37.666 48.333 60.999 61s50 19 80 19c59.333 0 106.666 -26.667 141.999 -80l185 -288l-52 -35l-274 232l-275 -234zM41.002 59l103.002 31.998c13.333 4 24.166 10.833 32.499 20.5s12.5 21.834 12.5 36.501v610
c0 17.333 -4.5 31.833 -13.5 43.5s-25.167 21.834 -48.5 30.501l-82 30v48l412 79v-841c0 -15.333 4.16699 -27.5 12.5 -36.5s19.166 -15.833 32.499 -20.5l94 -32v-59h-555v59z" />
    <glyph glyph-name="idieresis" unicode="&#xef;" horiz-adv-x="621" 
d="M512 1122c-18.667 0 -36 3.5 -52 10.5s-30 16.5 -42 28.5s-21.5 26.167 -28.5 42.5s-10.5 33.833 -10.5 52.5s3.5 36.167 10.5 52.5s16.5 30.5 28.5 42.5s26 21.5 42 28.5s33.333 10.5 52 10.5s36.334 -3.5 53.001 -10.5s31.334 -16.5 44.001 -28.5
s22.5 -26.167 29.5 -42.5s10.5 -33.833 10.5 -52.5s-3.5 -36.167 -10.5 -52.5s-16.833 -30.5 -29.5 -42.5s-27.334 -21.5 -44.001 -28.5s-34.334 -10.5 -53.001 -10.5zM84 1122c-18.667 0 -36 3.5 -52 10.5s-30 16.5 -42 28.5s-21.5 26.167 -28.5 42.5
s-10.5 33.833 -10.5 52.5s3.5 36.167 10.5 52.5s16.5 30.5 28.5 42.5s26 21.5 42 28.5s33.333 10.5 52 10.5s36.334 -3.5 53.001 -10.5s31.334 -16.5 44.001 -28.5s22.5 -26.167 29.5 -42.5s10.5 -33.833 10.5 -52.5s-3.5 -36.167 -10.5 -52.5s-16.833 -30.5 -29.5 -42.5
s-27.334 -21.5 -44.001 -28.5s-34.334 -10.5 -53.001 -10.5zM41 59l103.002 31.998c13.333 4 24.166 10.833 32.499 20.5s12.5 21.834 12.5 36.501v610c0 17.333 -4.5 31.833 -13.5 43.5s-25.167 21.834 -48.5 30.501l-82 30v48l412 79v-841
c0 -15.333 4.16699 -27.5 12.5 -36.5s19.166 -15.833 32.499 -20.5l94 -32v-59h-555v59z" />
    <glyph glyph-name="eth" unicode="&#xf0;" horiz-adv-x="1109" 
d="M538 -27c-64.667 0 -126.334 10.665 -185.001 31.998s-110.167 53.5 -154.5 96.5s-79.666 96.333 -105.999 160s-39.5 138.167 -39.5 223.5c0 74.667 12.167 143.167 36.5 205.5s56.833 116 97.5 161s87.667 79.833 141 104.5s109 37 167 37
c30.667 0 58.667 -3.16699 84 -9.5s48 -14.666 68 -24.999s38 -21.833 54 -34.5s30 -25.334 42 -38.001c-4.66699 20.667 -12 44.334 -22 71.001s-22.5 55.334 -37.5 86.001s-33 62.834 -54 96.501s-44.833 67.5 -71.5 101.5l-300 -144v110l232 112
c-22 23.333 -46.5 46 -73.5 68s-55.5 43 -85.5 63v13l115 48c15.333 -8 30.833 -16.667 46.5 -26l47.5 -29l48.5 -31.5c16.333 -11 32.5 -22.5 48.5 -34.5l244 117v-110l-155 -75c20 -18 41.667 -38.833 65 -62.5s46.833 -50.834 70.5 -81.501s46.667 -64.667 69 -102
s42 -78.5 59 -123.5s30.667 -93.833 41 -146.5s15.5 -109.667 15.5 -171c0 -98.667 -10.667 -188.667 -32 -270s-53.333 -151 -96 -209s-95.667 -103 -159 -135s-137 -48 -221 -48zM549 73.998c40 0 74.001 11.667 102.001 35s50.667 57.666 68 102.999
s30 101.166 38 167.499s12 142.5 12 228.5c0 16 -0.5 33.333 -1.5 52s-2.16699 37 -3.5 55s-3 35.167 -5 51.5s-4 30.166 -6 41.499c-10 8.66699 -21.833 16.334 -35.5 23.001s-28 12.334 -43 17.001s-30.5 8.16699 -46.5 10.5s-31.667 3.5 -47 3.5
c-42 0 -78 -9.16699 -108 -27.5s-54.667 -43.666 -74 -75.999s-33.666 -70.833 -42.999 -115.5s-14 -93 -14 -145s3.66699 -103.333 11 -154s19.166 -96 35.499 -136s37.666 -72.333 63.999 -97s58.5 -37 96.5 -37z" />
    <glyph glyph-name="ntilde" unicode="&#xf1;" horiz-adv-x="1224" 
d="M43 59l99 31.999c12.667 4 23.334 10.833 32.001 20.5s13 21.834 13 36.501v610c0 17.333 -4.83301 32 -14.5 44s-25.5 22 -47.5 30l-82 30v48l407 79v-162v0c26 36.667 52.167 66.167 78.5 88.5s52.5 39.5 78.5 51.5s51.833 20 77.5 24s51.167 6 76.5 6
c43.333 0 83.833 -6.5 121.5 -19.5s70.334 -33.333 98.001 -61s49.334 -63.334 65.001 -107.001s23.5 -95.834 23.5 -156.501v-501c0 -16.667 4.5 -29.834 13.5 -39.501s19.5 -16.834 31.5 -21.501l86 -32v-59h-532v59l90 32c11.333 4 21.333 11 30 21s13 23.333 13 40v410
c0 44.667 -1.83301 83.834 -5.5 117.501s-11.334 61.834 -23.001 84.501s-28.334 39.834 -50.001 51.501s-50.5 17.5 -86.5 17.5c-15.333 0 -31.333 -0.666992 -48 -2s-32.834 -4.66602 -48.501 -9.99902s-30.834 -13.5 -45.501 -24.5s-27.667 -25.833 -39 -44.5v-604
c0 -15.333 4.33301 -27.333 13 -36s19.334 -15.667 32.001 -21l76 -32v-59h-533v59zM250 1127c6.66699 40 17.5039 76.834 32.5039 110.501s33.167 62.834 54.5 87.501s45.666 43.834 72.999 57.501s56.666 20.5 87.999 20.5c21.333 0 44.666 -3.83301 69.999 -11.5
s53.333 -19.834 84 -36.501c32 -17.333 58.5 -29.333 79.5 -36s37.167 -10 48.5 -10c36.667 0 63.667 9.5 81 28.5s30.333 45.5 39 79.5h74c-6 -39.333 -16.167 -75.833 -30.5 -109.5s-32 -62.834 -53 -87.501s-45 -43.834 -72 -57.501s-56.167 -20.5 -87.5 -20.5
c-11.333 0 -22 0.666992 -32 2s-20.833 3.83301 -32.5 7.5s-24.5 8.66699 -38.5 15s-30.333 14.833 -49 25.5c-30 16.667 -56.167 28.667 -78.5 36s-39.5 11 -51.5 11c-37.333 0 -65.333 -10 -84 -30s-32.334 -47.333 -41.001 -82h-74z" />
    <glyph glyph-name="ograve" unicode="&#xf2;" horiz-adv-x="1092" 
d="M540 -27c-76.667 0 -145.332 11.999 -205.999 35.999s-112.167 58.333 -154.5 103s-74.833 98.334 -97.5 161.001s-34 132.667 -34 210c0 71.333 11.167 138.166 33.5 200.499s55 116.833 98 163.5s95.667 83.334 158 110.001s133.833 40 214.5 40
c86 0 160 -14.167 222 -42.5s113 -66 153 -113s69.5 -101.333 88.5 -163s28.5 -125.5 28.5 -191.5c0 -70.667 -11 -137.167 -33 -199.5s-54.5 -116.833 -97.5 -163.5s-95.833 -83.5 -158.5 -110.5s-134.334 -40.5 -215.001 -40.5zM553.002 73.999
c42.667 0 77.333 12.667 104 38s47.334 57.333 62.001 96s24.5 81.167 29.5 127.5s7.5 90.5 7.5 132.5c0 52 -3.5 103.5 -10.5 154.5s-18.833 96.833 -35.5 137.5s-38.834 73.667 -66.501 99s-62.5 38 -104.5 38s-76.167 -12.5 -102.5 -37.5s-46.833 -56.833 -61.5 -95.5
s-24.667 -81 -30 -127s-8 -90 -8 -132c0 -46.667 2.83301 -95.334 8.5 -146.001s16.5 -97.167 32.5 -139.5s38 -77.166 66 -104.499s64.333 -41 109 -41zM693.001 1074l-125.499 77.001l-88.5 53.5l-64 39c-18 11 -35 22.167 -51 33.5c-29.333 20.667 -50.333 40 -63 58
s-19 39.667 -19 65c0 11.333 2.5 22.166 7.5 32.499s12.167 19.5 21.5 27.5s20.5 14.333 33.5 19s27.5 7 43.5 7c14.667 0 28.5 -1 41.5 -3s25.833 -6 38.5 -12s25.167 -14.5 37.5 -25.5s25.166 -25.5 38.499 -43.5l35 -48l39.5 -56.5l53 -77l74.5 -108.5z" />
    <glyph glyph-name="oacute" unicode="&#xf3;" horiz-adv-x="1092" 
d="M540 -27c-76.667 0 -145.332 11.999 -205.999 35.999s-112.167 58.333 -154.5 103s-74.833 98.334 -97.5 161.001s-34 132.667 -34 210c0 71.333 11.167 138.166 33.5 200.499s55 116.833 98 163.5s95.667 83.334 158 110.001s133.833 40 214.5 40
c86 0 160 -14.167 222 -42.5s113 -66 153 -113s69.5 -101.333 88.5 -163s28.5 -125.5 28.5 -191.5c0 -70.667 -11 -137.167 -33 -199.5s-54.5 -116.833 -97.5 -163.5s-95.833 -83.5 -158.5 -110.5s-134.334 -40.5 -215.001 -40.5zM553.002 73.999
c42.667 0 77.333 12.667 104 38s47.334 57.333 62.001 96s24.5 81.167 29.5 127.5s7.5 90.5 7.5 132.5c0 52 -3.5 103.5 -10.5 154.5s-18.833 96.833 -35.5 137.5s-38.834 73.667 -66.501 99s-62.5 38 -104.5 38s-76.167 -12.5 -102.5 -37.5s-46.833 -56.833 -61.5 -95.5
s-24.667 -81 -30 -127s-8 -90 -8 -132c0 -46.667 2.83301 -95.334 8.5 -146.001s16.5 -97.167 32.5 -139.5s38 -77.166 66 -104.499s64.333 -41 109 -41zM333.001 1112l74.502 108.501l53 77l39.5 56.5l35 48c13.333 18 26.166 32.5 38.499 43.5s24.666 19.5 36.999 25.5
s25 10 38 12s27.167 3 42.5 3c16 0 30.5 -2.33301 43.5 -7s24.167 -11 33.5 -19s16.5 -17.167 21.5 -27.5s7.5 -21.166 7.5 -32.499c0 -12.667 -1.66699 -24.334 -5 -35.001s-8.33301 -20.834 -15 -30.501s-15.167 -19.167 -25.5 -28.5s-22.5 -19 -36.5 -29
c-16 -11.333 -33 -22.5 -51 -33.5l-64 -39l-88.5 -53.5l-125.5 -77z" />
    <glyph glyph-name="ocircumflex" unicode="&#xf4;" horiz-adv-x="1092" 
d="M540 -27c-76.667 0 -145.332 11.999 -205.999 35.999s-112.167 58.333 -154.5 103s-74.833 98.334 -97.5 161.001s-34 132.667 -34 210c0 71.333 11.167 138.166 33.5 200.499s55 116.833 98 163.5s95.667 83.334 158 110.001s133.833 40 214.5 40
c86 0 160 -14.167 222 -42.5s113 -66 153 -113s69.5 -101.333 88.5 -163s28.5 -125.5 28.5 -191.5c0 -70.667 -11 -137.167 -33 -199.5s-54.5 -116.833 -97.5 -163.5s-95.833 -83.5 -158.5 -110.5s-134.334 -40.5 -215.001 -40.5zM553.002 73.999
c42.667 0 77.333 12.667 104 38s47.334 57.333 62.001 96s24.5 81.167 29.5 127.5s7.5 90.5 7.5 132.5c0 52 -3.5 103.5 -10.5 154.5s-18.833 96.833 -35.5 137.5s-38.834 73.667 -66.501 99s-62.5 38 -104.5 38s-76.167 -12.5 -102.5 -37.5s-46.833 -56.833 -61.5 -95.5
s-24.667 -81 -30 -127s-8 -90 -8 -132c0 -46.667 2.83301 -95.334 8.5 -146.001s16.5 -97.167 32.5 -139.5s38 -77.166 66 -104.499s64.333 -41 109 -41zM207.001 1106l194.001 289c17.333 26.667 37.666 46.667 60.999 60s50 20 80 20s56.833 -6.66699 80.5 -20
s44.167 -33.333 61.5 -60l195 -288l-52 -35l-284 232l-285 -234z" />
    <glyph glyph-name="otilde" unicode="&#xf5;" horiz-adv-x="1092" 
d="M540 -27c-76.667 0 -145.332 11.999 -205.999 35.999s-112.167 58.333 -154.5 103s-74.833 98.334 -97.5 161.001s-34 132.667 -34 210c0 71.333 11.167 138.166 33.5 200.499s55 116.833 98 163.5s95.667 83.334 158 110.001s133.833 40 214.5 40
c86 0 160 -14.167 222 -42.5s113 -66 153 -113s69.5 -101.333 88.5 -163s28.5 -125.5 28.5 -191.5c0 -70.667 -11 -137.167 -33 -199.5s-54.5 -116.833 -97.5 -163.5s-95.833 -83.5 -158.5 -110.5s-134.334 -40.5 -215.001 -40.5zM553.002 73.999
c42.667 0 77.333 12.667 104 38s47.334 57.333 62.001 96s24.5 81.167 29.5 127.5s7.5 90.5 7.5 132.5c0 52 -3.5 103.5 -10.5 154.5s-18.833 96.833 -35.5 137.5s-38.834 73.667 -66.501 99s-62.5 38 -104.5 38s-76.167 -12.5 -102.5 -37.5s-46.833 -56.833 -61.5 -95.5
s-24.667 -81 -30 -127s-8 -90 -8 -132c0 -46.667 2.83301 -95.334 8.5 -146.001s16.5 -97.167 32.5 -139.5s38 -77.166 66 -104.499s64.333 -41 109 -41zM180.001 1127c6.66699 40 17.5039 76.834 32.5039 110.501s33.167 62.834 54.5 87.501s45.666 43.834 72.999 57.501
s56.666 20.5 87.999 20.5c21.333 0 44.666 -3.83301 69.999 -11.5s53.333 -19.834 84 -36.501c32 -17.333 58.5 -29.333 79.5 -36s37.167 -10 48.5 -10c36.667 0 63.667 9.5 81 28.5s30.333 45.5 39 79.5h74c-6 -39.333 -16.167 -75.833 -30.5 -109.5
s-32 -62.834 -53 -87.501s-45 -43.834 -72 -57.501s-56.167 -20.5 -87.5 -20.5c-11.333 0 -22 0.666992 -32 2s-20.833 3.83301 -32.5 7.5s-24.5 8.66699 -38.5 15s-30.333 14.833 -49 25.5c-30 16.667 -56.167 28.667 -78.5 36s-39.5 11 -51.5 11
c-37.333 0 -65.333 -10 -84 -30s-32.334 -47.333 -41.001 -82h-74z" />
    <glyph glyph-name="odieresis" unicode="&#xf6;" horiz-adv-x="1092" 
d="M540 -27c-76.667 0 -145.332 11.999 -205.999 35.999s-112.167 58.333 -154.5 103s-74.833 98.334 -97.5 161.001s-34 132.667 -34 210c0 71.333 11.167 138.166 33.5 200.499s55 116.833 98 163.5s95.667 83.334 158 110.001s133.833 40 214.5 40
c86 0 160 -14.167 222 -42.5s113 -66 153 -113s69.5 -101.333 88.5 -163s28.5 -125.5 28.5 -191.5c0 -70.667 -11 -137.167 -33 -199.5s-54.5 -116.833 -97.5 -163.5s-95.833 -83.5 -158.5 -110.5s-134.334 -40.5 -215.001 -40.5zM553.002 73.999
c42.667 0 77.333 12.667 104 38s47.334 57.333 62.001 96s24.5 81.167 29.5 127.5s7.5 90.5 7.5 132.5c0 52 -3.5 103.5 -10.5 154.5s-18.833 96.833 -35.5 137.5s-38.834 73.667 -66.501 99s-62.5 38 -104.5 38s-76.167 -12.5 -102.5 -37.5s-46.833 -56.833 -61.5 -95.5
s-24.667 -81 -30 -127s-8 -90 -8 -132c0 -46.667 2.83301 -95.334 8.5 -146.001s16.5 -97.167 32.5 -139.5s38 -77.166 66 -104.499s64.333 -41 109 -41zM768.001 1122c-18.667 0 -36 3.5 -52 10.5s-30 16.5 -42 28.5s-21.5 26.167 -28.5 42.5s-10.5 33.833 -10.5 52.5
s3.5 36.167 10.5 52.5s16.5 30.5 28.5 42.5s26 21.5 42 28.5s33.333 10.5 52 10.5s36.334 -3.5 53.001 -10.5s31.334 -16.5 44.001 -28.5s22.5 -26.167 29.5 -42.5s10.5 -33.833 10.5 -52.5s-3.5 -36.167 -10.5 -52.5s-16.833 -30.5 -29.5 -42.5
s-27.334 -21.5 -44.001 -28.5s-34.334 -10.5 -53.001 -10.5zM320.001 1122c-18.667 0 -36 3.5 -52 10.5s-30 16.5 -42 28.5s-21.5 26.167 -28.5 42.5s-10.5 33.833 -10.5 52.5s3.5 36.167 10.5 52.5s16.5 30.5 28.5 42.5s26 21.5 42 28.5s33.333 10.5 52 10.5
s36.334 -3.5 53.001 -10.5s31.334 -16.5 44.001 -28.5s22.5 -26.167 29.5 -42.5s10.5 -33.833 10.5 -52.5s-3.5 -36.167 -10.5 -52.5s-16.833 -30.5 -29.5 -42.5s-27.334 -21.5 -44.001 -28.5s-34.334 -10.5 -53.001 -10.5z" />
    <glyph glyph-name="divide" unicode="&#xf7;" horiz-adv-x="1354" 
d="M678 810c-18.667 0 -36.167 3.5 -52.5 10.5s-30.666 16.667 -42.999 29s-22 26.666 -29 42.999s-10.5 33.833 -10.5 52.5s3.5 36 10.5 52s16.667 30 29 42s26.666 21.333 42.999 28s33.833 10 52.5 10s36.167 -3.33301 52.5 -10s30.666 -16 42.999 -28s22 -26 29 -42
s10.5 -33.333 10.5 -52s-3.5 -36.167 -10.5 -52.5s-16.667 -30.666 -29 -42.999s-26.666 -22 -42.999 -29s-33.833 -10.5 -52.5 -10.5zM189 625h977v-147h-977v147zM678 19c-18.667 0 -36.167 3.33301 -52.5 10s-30.666 16 -42.999 28s-22 26 -29 42s-10.5 33.333 -10.5 52
s3.5 36.334 10.5 53.001s16.667 31 29 43s26.666 21.5 42.999 28.5s33.833 10.5 52.5 10.5s36.167 -3.5 52.5 -10.5s30.666 -16.5 42.999 -28.5s22 -26.333 29 -43s10.5 -34.334 10.5 -53.001s-3.5 -36 -10.5 -52s-16.667 -30 -29 -42s-26.666 -21.333 -42.999 -28
s-33.833 -10 -52.5 -10z" />
    <glyph glyph-name="oslash" unicode="&#xf8;" horiz-adv-x="1092" 
d="M237 67c-60.667 44 -107.334 101.333 -140.001 172s-49 152 -49 244c0 71.333 11.167 138.166 33.5 200.499s55 116.833 98 163.5s95.667 83.334 158 110.001s133.833 40 214.5 40c46 0 88 -4.33301 126 -13s73.333 -21 106 -37l69 111h98l-96 -154
c32 -24 59.833 -51.5 83.5 -82.5s43.334 -64.5 59.001 -100.5s27.334 -73.833 35.001 -113.5s11.5 -79.834 11.5 -120.501c0 -70.667 -11 -137.167 -33 -199.5s-54.5 -116.833 -97.5 -163.5s-95.833 -83.5 -158.5 -110.5s-134.334 -40.5 -215.001 -40.5
c-44 0 -85.333 4.33301 -124 13s-75 21.334 -109 38.001l-81 -130h-97zM694 802c-17.333 30 -38.499 53.333 -63.499 70s-55.5 25 -91.5 25c-42 0 -76.5 -12.5 -103.5 -37.5s-48.333 -56.833 -64 -95.5s-26.334 -81 -32.001 -127s-8.5 -90 -8.5 -132c0 -40 2 -81.667 6 -125
s11.333 -84 22 -122zM553.001 74c28.667 0 53.6699 5.83398 75.0029 17.501s39.666 27.5 54.999 47.5s28.166 43 38.499 69s18.5 53.667 24.5 83s10.167 59.166 12.5 89.499s3.5 59.5 3.5 87.5c0 42 -2.16699 84.333 -6.5 127s-11.833 82 -22.5 118l-336 -544
c17.333 -28.667 38.666 -51.667 63.999 -69s56 -26 92 -26z" />
    <glyph glyph-name="ugrave" unicode="&#xf9;" horiz-adv-x="1194" 
d="M458 -20c-43.333 0 -83.6689 6.50195 -121.002 19.502s-69.5 33.333 -96.5 61s-48.167 63.167 -63.5 106.5s-23 95.666 -23 156.999v434c0 17.333 -5.16699 32.166 -15.5 44.499s-25.833 22.166 -46.5 29.499l-82 30v48l412 79v-574c0 -44 1.66699 -82.833 5 -116.5
s10.5 -61.834 21.5 -84.501s27.167 -39.667 48.5 -51s50 -17 86 -17c16.667 0 33.334 0.833008 50.001 2.5s32.834 5.16699 48.501 10.5s30.5 13.333 44.5 24s26.667 24.667 38 42v533c0 17.333 -5.16699 31 -15.5 41s-25.5 18.333 -45.5 25l-94 30v48l423 87v-775
c0 -17.333 4.5 -32.166 13.5 -44.499s25.167 -21.833 48.5 -28.5l92 -26v-48l-397 -87h-21v170v0c-25.333 -37.333 -51 -67.166 -77 -89.499s-52.167 -39.5 -78.5 -51.5s-52.5 -19.833 -78.5 -23.5s-51.333 -5.5 -76 -5.5zM750.997 1074l-125.499 77.001l-88.5 53.5l-64 39
c-18 11 -35 22.167 -51 33.5c-29.333 20.667 -50.333 40 -63 58s-19 39.667 -19 65c0 11.333 2.5 22.166 7.5 32.499s12.167 19.5 21.5 27.5s20.5 14.333 33.5 19s27.5 7 43.5 7c14.667 0 28.5 -1 41.5 -3s25.833 -6 38.5 -12s25.167 -14.5 37.5 -25.5
s25.166 -25.5 38.499 -43.5l35 -48l39.5 -56.5l53 -77l74.5 -108.5z" />
    <glyph glyph-name="uacute" unicode="&#xfa;" horiz-adv-x="1194" 
d="M458 -20c-43.333 0 -83.6689 6.50195 -121.002 19.502s-69.5 33.333 -96.5 61s-48.167 63.167 -63.5 106.5s-23 95.666 -23 156.999v434c0 17.333 -5.16699 32.166 -15.5 44.499s-25.833 22.166 -46.5 29.499l-82 30v48l412 79v-574c0 -44 1.66699 -82.833 5 -116.5
s10.5 -61.834 21.5 -84.501s27.167 -39.667 48.5 -51s50 -17 86 -17c16.667 0 33.334 0.833008 50.001 2.5s32.834 5.16699 48.501 10.5s30.5 13.333 44.5 24s26.667 24.667 38 42v533c0 17.333 -5.16699 31 -15.5 41s-25.5 18.333 -45.5 25l-94 30v48l423 87v-775
c0 -17.333 4.5 -32.166 13.5 -44.499s25.167 -21.833 48.5 -28.5l92 -26v-48l-397 -87h-21v170v0c-25.333 -37.333 -51 -67.166 -77 -89.499s-52.167 -39.5 -78.5 -51.5s-52.5 -19.833 -78.5 -23.5s-51.333 -5.5 -76 -5.5zM409.997 1112l74.502 108.501l53 77l39.5 56.5
l35 48c13.333 18 26.166 32.5 38.499 43.5s24.666 19.5 36.999 25.5s25 10 38 12s27.167 3 42.5 3c16 0 30.5 -2.33301 43.5 -7s24.167 -11 33.5 -19s16.5 -17.167 21.5 -27.5s7.5 -21.166 7.5 -32.499c0 -12.667 -1.66699 -24.334 -5 -35.001s-8.33301 -20.834 -15 -30.501
s-15.167 -19.167 -25.5 -28.5s-22.5 -19 -36.5 -29c-16 -11.333 -33 -22.5 -51 -33.5l-64 -39l-88.5 -53.5l-125.5 -77z" />
    <glyph glyph-name="ucircumflex" unicode="&#xfb;" horiz-adv-x="1194" 
d="M458 -20c-43.333 0 -83.6689 6.50195 -121.002 19.502s-69.5 33.333 -96.5 61s-48.167 63.167 -63.5 106.5s-23 95.666 -23 156.999v434c0 17.333 -5.16699 32.166 -15.5 44.499s-25.833 22.166 -46.5 29.499l-82 30v48l412 79v-574c0 -44 1.66699 -82.833 5 -116.5
s10.5 -61.834 21.5 -84.501s27.167 -39.667 48.5 -51s50 -17 86 -17c16.667 0 33.334 0.833008 50.001 2.5s32.834 5.16699 48.501 10.5s30.5 13.333 44.5 24s26.667 24.667 38 42v533c0 17.333 -5.16699 31 -15.5 41s-25.5 18.333 -45.5 25l-94 30v48l423 87v-775
c0 -17.333 4.5 -32.166 13.5 -44.499s25.167 -21.833 48.5 -28.5l92 -26v-48l-397 -87h-21v170v0c-25.333 -37.333 -51 -67.166 -77 -89.499s-52.167 -39.5 -78.5 -51.5s-52.5 -19.833 -78.5 -23.5s-51.333 -5.5 -76 -5.5zM265.997 1106l194.001 289
c17.333 26.667 37.666 46.667 60.999 60s50 20 80 20s56.833 -6.66699 80.5 -20s44.167 -33.333 61.5 -60l195 -288l-52 -35l-284 232l-285 -234z" />
    <glyph glyph-name="udieresis" unicode="&#xfc;" horiz-adv-x="1194" 
d="M458 -20c-43.333 0 -83.6689 6.50195 -121.002 19.502s-69.5 33.333 -96.5 61s-48.167 63.167 -63.5 106.5s-23 95.666 -23 156.999v434c0 17.333 -5.16699 32.166 -15.5 44.499s-25.833 22.166 -46.5 29.499l-82 30v48l412 79v-574c0 -44 1.66699 -82.833 5 -116.5
s10.5 -61.834 21.5 -84.501s27.167 -39.667 48.5 -51s50 -17 86 -17c16.667 0 33.334 0.833008 50.001 2.5s32.834 5.16699 48.501 10.5s30.5 13.333 44.5 24s26.667 24.667 38 42v533c0 17.333 -5.16699 31 -15.5 41s-25.5 18.333 -45.5 25l-94 30v48l423 87v-775
c0 -17.333 4.5 -32.166 13.5 -44.499s25.167 -21.833 48.5 -28.5l92 -26v-48l-397 -87h-21v170v0c-25.333 -37.333 -51 -67.166 -77 -89.499s-52.167 -39.5 -78.5 -51.5s-52.5 -19.833 -78.5 -23.5s-51.333 -5.5 -76 -5.5zM813.997 1122c-18.667 0 -36 3.5 -52 10.5
s-30 16.5 -42 28.5s-21.5 26.167 -28.5 42.5s-10.5 33.833 -10.5 52.5s3.5 36.167 10.5 52.5s16.5 30.5 28.5 42.5s26 21.5 42 28.5s33.333 10.5 52 10.5s36.334 -3.5 53.001 -10.5s31.334 -16.5 44.001 -28.5s22.5 -26.167 29.5 -42.5s10.5 -33.833 10.5 -52.5
s-3.5 -36.167 -10.5 -52.5s-16.833 -30.5 -29.5 -42.5s-27.334 -21.5 -44.001 -28.5s-34.334 -10.5 -53.001 -10.5zM365.997 1122c-18.667 0 -36 3.5 -52 10.5s-30 16.5 -42 28.5s-21.5 26.167 -28.5 42.5s-10.5 33.833 -10.5 52.5s3.5 36.167 10.5 52.5
s16.5 30.5 28.5 42.5s26 21.5 42 28.5s33.333 10.5 52 10.5s36.334 -3.5 53.001 -10.5s31.334 -16.5 44.001 -28.5s22.5 -26.167 29.5 -42.5s10.5 -33.833 10.5 -52.5s-3.5 -36.167 -10.5 -52.5s-16.833 -30.5 -29.5 -42.5s-27.334 -21.5 -44.001 -28.5
s-34.334 -10.5 -53.001 -10.5z" />
    <glyph glyph-name="yacute" unicode="&#xfd;" horiz-adv-x="1039" 
d="M234 -471c-25.333 0 -48.5049 1.33789 -69.5049 4.00488s-40 6 -57 10s-32.167 8.5 -45.5 13.5s-24.666 10.167 -33.999 15.5l48 207h26c6.66699 -4.66699 14.834 -9.16699 24.501 -13.5s20 -8.5 31 -12.5s22.5 -7.83301 34.5 -11.5s23.5 -6.66699 34.5 -9
s21.167 -4.33301 30.5 -6s17 -2.5 23 -2.5c6.66699 0 14.167 0.333008 22.5 1s16.666 1.66699 24.999 3s16.166 3.16602 23.499 5.49902s13.666 5.5 18.999 9.5c18.667 12.667 33.334 25 44.001 37s20.5 26.667 29.5 44s18.333 39.166 28 65.499l38.5 101.5l-102 139
l-300 696c-5.33301 13.333 -14.166 24.166 -26.499 32.499s-27.5 16.166 -45.5 23.499l-68 28v59h537v-59l-134 -38l207 -511l41 -97v0l211 602l-132 44v59h379v-59l-70 -34c-17.333 -8.66699 -32.166 -16.834 -44.499 -24.501s-21.166 -18.167 -26.499 -31.5l-376 -1004
c-23.333 -62.667 -47.666 -112.834 -72.999 -150.501s-51.666 -66.667 -78.999 -87s-55.5 -33.666 -84.5 -39.999s-58.833 -9.5 -89.5 -9.5zM341.995 1112l74.502 108.501l53 77l39.5 56.5l35 48c13.333 18 26.166 32.5 38.499 43.5s24.666 19.5 36.999 25.5s25 10 38 12
s27.167 3 42.5 3c16 0 30.5 -2.33301 43.5 -7s24.167 -11 33.5 -19s16.5 -17.167 21.5 -27.5s7.5 -21.166 7.5 -32.499c0 -12.667 -1.66699 -24.334 -5 -35.001s-8.33301 -20.834 -15 -30.501s-15.167 -19.167 -25.5 -28.5s-22.5 -19 -36.5 -29
c-16 -11.333 -33 -22.5 -51 -33.5l-64 -39l-88.5 -53.5l-125.5 -77z" />
    <glyph glyph-name="thorn" unicode="&#xfe;" horiz-adv-x="1138" 
d="M-5 -412l100 32.001c15.333 5.33301 26.666 12.666 33.999 21.999s11 21 11 35v1595c0 17.333 -4.33301 32 -13 44s-25 22 -49 30l-92 30v48l422 87v-602l-6 -80c3.33301 4.66699 6.83301 9.16699 10.5 13.5s7.16699 8.83301 10.5 13.5c26 32.667 52.667 58.5 80 77.5
s53.833 33.167 79.5 42.5s49.834 15.166 72.501 17.499s42.334 3.5 59.001 3.5c59.333 0 112.166 -11.833 158.499 -35.5s85.5 -56.5 117.5 -98.5s56.333 -91.667 73 -149s25 -120 25 -188c0 -75.333 -10.167 -146 -30.5 -212s-49.666 -123.667 -87.999 -173
s-85.333 -88.166 -141 -116.499s-118.834 -42.5 -189.501 -42.5c-28 0 -53.5 2.66699 -76.5 8s-43.833 12.5 -62.5 21.5s-35.667 19.333 -51 31s-29 23.5 -41 35.5v-39v-362c0 -15.333 4 -27.833 12 -37.5s19 -16.167 33 -19.5l128 -32v-59h-586v59zM575 105.001
c40.667 0 75.666 9.33398 104.999 28.001s53.333 44 72 76s32.5 69.167 41.5 111.5s13.5 87.5 13.5 135.5c0 56 -4.16699 107.167 -12.5 153.5s-21.666 86 -39.999 119s-42 58.667 -71 77s-64.167 27.5 -105.5 27.5c-12 0 -25.667 -0.5 -41 -1.5s-31 -4 -47 -9
s-31.167 -12.5 -45.5 -22.5s-26.5 -24.333 -36.5 -43v-607c8 -7.33301 19.167 -13.833 33.5 -19.5s29.5 -10.334 45.5 -14.001s31.833 -6.5 47.5 -8.5s29.167 -3 40.5 -3z" />
    </font>
</defs>
</svg>
