<?xml version="1.0" standalone="no"?>
<!DOCTYPE svg PUBLIC "-//W3C//DTD SVG 1.1//EN" "http://www.w3.org/Graphics/SVG/1.1/DTD/svg11.dtd" >
<svg>
<metadata>
Created by FontForge 20090914 at Fri Jun 24 12:09:57 2016
 By www-data
&#194;&#169; 2013 Microsoft Corporation. All Rights Reserved.
</metadata>
<defs>
<font id="SitkaHeading-BoldItalic" horiz-adv-x="0" >
  <font-face 
    font-family="Sitka Heading"
    font-weight="700"
    font-style="italic"
    font-stretch="normal"
    units-per-em="2250"
    panose-1="2 0 8 5 0 0 0 2 0 4"
    ascent="1703"
    descent="-547"
    x-height="1012"
    cap-height="1400"
    bbox="-1109 -663 3135 2385"
    underline-thickness="102"
    underline-position="-103"
    slope="-12"
    unicode-range="U+0020-U+FB04"
  />
<missing-glyph horiz-adv-x="1024" 
d="M0 1466h1024v-1466h-1024v1466zM83 80h858v1306h-858v-1306z" />
    <glyph glyph-name="uniFB00" unicode="ff" horiz-adv-x="1533" 
d="M-215 -480c-12 0 -25.6631 0.666016 -40.9961 1.99902s-31.5 3.16602 -48.5 5.49902s-34.167 5.5 -51.5 9.5s-34.333 8.33301 -51 13l57 236h41c20 -7.33301 41.833 -14.5 65.5 -21.5s47.334 -13.333 71.001 -19s46.334 -10 68.001 -13s40.5 -4.5 56.5 -4.5
s31.167 2 45.5 6s27.833 12.333 40.5 25c4.66699 4.66699 10.334 16.334 17.001 35.001s13.5 41.167 20.5 67.5s14.167 55.166 21.5 86.499s14 62 20 92l162 823h-171l17 125h183c12.667 44.667 26.167 86 40.5 124s30.666 73.167 48.999 105.5s38.833 62.333 61.5 90
s48.667 53.167 78 76.5c31.333 26 62.166 48.833 92.499 68.5s61.166 36 92.499 49s63.833 22.833 97.5 29.5s69.5 10 107.5 10c12.667 0 26.667 -0.833008 42 -2.5s31.333 -3.66699 48 -6s33.167 -5.16602 49.5 -8.49902s31.5 -7 45.5 -11l-56 -236h-42
c-20.667 8 -42.334 15.167 -65.001 21.5s-45.334 12.166 -68.001 17.499s-44.334 9.5 -65.001 12.5s-39 4.5 -55 4.5c-16.667 0 -32.167 -2 -46.5 -6s-27.5 -12.333 -39.5 -25c-4.66699 -5.33301 -10.5 -18.166 -17.5 -38.499s-14.5 -45.166 -22.5 -74.499
s-15.833 -61.5 -23.5 -96.5s-14.834 -69.833 -21.501 -104.5h263l-20 -125h-269l-157 -803c-13.333 -72 -36.833 -138.167 -70.5 -198.5s-77.5 -114.833 -131.5 -163.5c-33.333 -30 -66.166 -56.167 -98.499 -78.5s-65.5 -41 -99.5 -56s-69.333 -26 -106 -33
s-75.334 -10.5 -116.001 -10.5zM557.004 -480.001c-12 0 -25.6631 0.666016 -40.9961 1.99902s-31.5 3.16602 -48.5 5.49902s-34.167 5.5 -51.5 9.5s-34.333 8.33301 -51 13l57 236h41c20 -7.33301 41.833 -14.5 65.5 -21.5s47.334 -13.333 71.001 -19
s46.334 -10 68.001 -13s40.5 -4.5 56.5 -4.5s31.167 2 45.5 6s27.833 12.333 40.5 25c4.66699 4.66699 10.334 16.334 17.001 35.001s13.5 41.167 20.5 67.5s14.167 55.166 21.5 86.499s14 62 20 92l162 823h-171l17 125h183c12.667 44.667 26.167 86 40.5 124
s30.666 73.167 48.999 105.5s38.833 62.333 61.5 90s48.667 53.167 78 76.5c31.333 26 62.166 48.833 92.499 68.5s61.166 36 92.499 49s63.833 22.833 97.5 29.5s69.5 10 107.5 10c12.667 0 26.667 -0.833008 42 -2.5s31.333 -3.66699 48 -6s33.167 -5.16602 49.5 -8.49902
s31.5 -7 45.5 -11l-56 -236h-42c-20.667 8 -42.334 15.167 -65.001 21.5s-45.334 12.166 -68.001 17.499s-44.334 9.5 -65.001 12.5s-39 4.5 -55 4.5c-16.667 0 -32.167 -2 -46.5 -6s-27.5 -12.333 -39.5 -25c-4.66699 -5.33301 -10.5 -18.166 -17.5 -38.499
s-14.5 -45.166 -22.5 -74.499s-15.833 -61.5 -23.5 -96.5s-14.834 -69.833 -21.501 -104.5h263l-20 -125h-269l-157 -803c-13.333 -72 -36.833 -138.167 -70.5 -198.5s-77.5 -114.833 -131.5 -163.5c-33.333 -30 -66.166 -56.167 -98.499 -78.5s-65.5 -41 -99.5 -56
s-69.333 -26 -106 -33s-75.334 -10.5 -116.001 -10.5z" />
    <glyph glyph-name="uniFB01" unicode="fi" horiz-adv-x="1467" 
d="M-215 -480c-12 0 -25.6689 0.670898 -41.002 2.00391s-31.5 3.16602 -48.5 5.49902s-34.167 5.5 -51.5 9.5s-34.333 8.33301 -51 13l57 236h41c20 -7.33301 41.833 -14.5 65.5 -21.5s47.334 -13.333 71.001 -19s46.334 -10 68.001 -13s40.5 -4.5 56.5 -4.5
s31.167 2 45.5 6s27.833 12.333 40.5 25c4.66699 4.66699 10.334 16.334 17.001 35.001s13.5 41.167 20.5 67.5s14.167 55.166 21.5 86.499s14 62 20 92l162 823h-171l17 125h183c11.333 41.333 23.5 79.666 36.5 114.999s27.5 68.5 43.5 99.5s34 60 54 87
s43.333 52.5 70 76.5c32.667 29.333 64.667 55 96 77s63.166 40.167 95.499 54.5s66.333 25.166 102 32.499s73.834 11 114.501 11c8 0 18 -0.333008 30 -1s24.833 -1.83398 38.5 -3.50098s27.834 -3.83398 42.501 -6.50098s29 -5.66699 43 -9l-56 -236h-42
c-20.667 7.33301 -40.667 13.833 -60 19.5s-38.333 10.667 -57 15s-36.834 7.66602 -54.501 9.99902s-34.5 3.5 -50.5 3.5c-16.667 0 -31 -2 -43 -6s-24 -12.333 -36 -25c-4.66699 -5.33301 -10.5 -18.166 -17.5 -38.499s-14.5 -45.166 -22.5 -74.499
s-15.833 -61.5 -23.5 -96.5s-14.834 -69.833 -21.501 -104.5h256l-20 -125h-262l-157 -803c-13.333 -72 -36.833 -138.167 -70.5 -198.5s-77.5 -114.833 -131.5 -163.5c-33.333 -30 -66.166 -56.167 -98.499 -78.5s-65.5 -41 -99.5 -56s-69.333 -26 -106 -33
s-75.334 -10.5 -116.001 -10.5zM1111 -14.9961c-29.333 0 -56.332 3.99902 -80.999 11.999s-46 19.167 -64 33.5s-32.167 31.5 -42.5 51.5s-15.5 42.333 -15.5 67c0 26 1.83301 50.667 5.5 74s8.16699 46.666 13.5 69.999l110 492c3.33301 16.667 1.66602 30 -5.00098 40
s-18.667 18.333 -36 25l-103 45l-1 61l480 72l-140 -638l-12 -59.5c-4 -20.333 -7.5 -39.333 -10.5 -57s-5.33301 -33.5 -7 -47.5s-2.5 -24.667 -2.5 -32c0 -8 1.33301 -16.667 4 -26s7.5 -18.333 14.5 -27s16.333 -15.667 28 -21s26.5 -8 44.5 -8
c4.66699 0 11.5 0.833008 20.5 2.5s19 3.83398 30 6.50098s22 5.83398 33 9.50098s21.5 7.83398 31.5 12.501h29v-82c-20 -12 -42.333 -22.5 -67 -31.5s-51 -16.833 -79 -23.5s-57.167 -11.834 -87.5 -15.501s-60.5 -5.5 -90.5 -5.5zM1277 1202
c-24 0 -46.5 4.16895 -67.5 12.502s-39.667 20 -56 35s-29.333 32.5 -39 52.5s-14.5 41.667 -14.5 65s4.66699 44.666 14 63.999s22 36.166 38 50.499s34.667 25.5 56 33.5s44.333 12 69 12c26 0 50 -4 72 -12s41.333 -18.833 58 -32.5s29.667 -30 39 -49
s14 -39.833 14 -62.5c0 -24 -5 -46.333 -15 -67s-23.333 -38.5 -40 -53.5s-36.167 -26.833 -58.5 -35.5s-45.5 -13 -69.5 -13z" />
    <glyph glyph-name="uniFB02" unicode="fl" horiz-adv-x="1456" 
d="M1101 -15c-29.333 0 -56.3301 3.99414 -80.9971 11.9941s-46 19.167 -64 33.5s-32.167 31.5 -42.5 51.5s-15.5 42.333 -15.5 67c0 26 1.66699 50.667 5 74s7.66602 46.666 12.999 69.999l221 1000c6.66699 30.667 -6.33301 52.667 -39 66l-57 25l-23 -99h-42
c-40.667 14.667 -79.667 26.334 -117 35.001s-72.333 13 -105 13c-16.667 0 -31 -2 -43 -6s-24 -12.333 -36 -25c-4.66699 -5.33301 -10.5 -18.166 -17.5 -38.499s-14.333 -45.166 -22 -74.499s-15.5 -61.5 -23.5 -96.5s-15.333 -69.833 -22 -104.5h263l-20 -125h-269
l-157 -803c-27.333 -144.667 -94.666 -265.334 -201.999 -362.001c-33.333 -30 -66.333 -56.167 -99 -78.5s-65.834 -40.833 -99.501 -55.5s-68.667 -25.667 -105 -33s-75.166 -11 -116.499 -11c-24.667 0 -54.5 2.66699 -89.5 8s-69.167 12.666 -102.5 21.999l57 236h41
c20 -7.33301 41.833 -14.5 65.5 -21.5s47.334 -13.167 71.001 -18.5s46.334 -9.66602 68.001 -12.999s40.5 -5 56.5 -5s31.167 2 45.5 6s27.833 12.333 40.5 25c4.66699 4.66699 10.334 16.334 17.001 35.001s13.5 41.167 20.5 67.5s14.167 55.166 21.5 86.499s14 62 20 92
l162 823h-171l17 125h183c11.333 40.667 23.333 78.834 36 114.501s27.167 69 43.5 100s34.666 60 54.999 87s43.5 52.5 69.5 76.5c32.667 29.333 64.667 55 96 77s63.166 40.167 95.499 54.5s66.166 25.166 101.499 32.499s73.666 11 114.999 11
c16.667 0 39.5 -1.66699 68.5 -5s57.5 -8.33301 85.5 -15l-12 -50l409 54l-251 -1135c-4 -19.333 -7.83301 -39.166 -11.5 -59.499s-6.83398 -39.333 -9.50098 -57s-4.83398 -33.5 -6.50098 -47.5s-2.5 -24.667 -2.5 -32c0 -8 1.33301 -16.833 4 -26.5s7.5 -18.5 14.5 -26.5
s16.333 -14.833 28 -20.5s26.5 -8.5 44.5 -8.5c4.66699 0 11.5 0.833008 20.5 2.5s19 3.83398 30 6.50098s22 5.83398 33 9.50098s21.167 7.83398 30.5 12.501h30v-82c-19.333 -12 -41.5 -22.667 -66.5 -32s-51.5 -17.166 -79.5 -23.499s-57.167 -11.333 -87.5 -15
s-60.5 -5.5 -90.5 -5.5z" />
    <glyph glyph-name="uniFB03" unicode="ffi" horiz-adv-x="2241" 
d="M-215 -480c-12 0 -25.6631 0.666016 -40.9961 1.99902s-31.5 3.16602 -48.5 5.49902s-34.167 5.5 -51.5 9.5s-34.333 8.33301 -51 13l57 236h41c20 -7.33301 41.833 -14.5 65.5 -21.5s47.334 -13.333 71.001 -19s46.334 -10 68.001 -13s40.5 -4.5 56.5 -4.5
s31.167 2 45.5 6s27.833 12.333 40.5 25c4.66699 4.66699 10.334 16.334 17.001 35.001s13.5 41.167 20.5 67.5s14.167 55.166 21.5 86.499s14 62 20 92l162 823h-171l17 125h183c12.667 44.667 26.167 86 40.5 124s30.666 73.167 48.999 105.5s38.833 62.333 61.5 90
s48.667 53.167 78 76.5c31.333 26 62.166 48.833 92.499 68.5s61.166 36 92.499 49s63.833 22.833 97.5 29.5s69.5 10 107.5 10c12.667 0 26.667 -0.833008 42 -2.5s31.333 -3.66699 48 -6s33.167 -5.16602 49.5 -8.49902s31.5 -7 45.5 -11l-56 -236h-42
c-20.667 8 -42.334 15.167 -65.001 21.5s-45.334 12.166 -68.001 17.499s-44.334 9.5 -65.001 12.5s-39 4.5 -55 4.5c-16.667 0 -32.167 -2 -46.5 -6s-27.5 -12.333 -39.5 -25c-4.66699 -5.33301 -10.5 -18.166 -17.5 -38.499s-14.5 -45.166 -22.5 -74.499
s-15.833 -61.5 -23.5 -96.5s-14.834 -69.833 -21.501 -104.5h263l-20 -125h-269l-157 -803c-13.333 -72 -36.833 -138.167 -70.5 -198.5s-77.5 -114.833 -131.5 -163.5c-33.333 -30 -66.166 -56.167 -98.499 -78.5s-65.5 -41 -99.5 -56s-69.333 -26 -106 -33
s-75.334 -10.5 -116.001 -10.5zM559.004 -480.001c-12 0 -25.6689 0.670898 -41.002 2.00391s-31.5 3.16602 -48.5 5.49902s-34.167 5.5 -51.5 9.5s-34.333 8.33301 -51 13l57 236h41c20 -7.33301 41.833 -14.5 65.5 -21.5s47.334 -13.333 71.001 -19s46.334 -10 68.001 -13
s40.5 -4.5 56.5 -4.5s31.167 2 45.5 6s27.833 12.333 40.5 25c4.66699 4.66699 10.334 16.334 17.001 35.001s13.5 41.167 20.5 67.5s14.167 55.166 21.5 86.499s14 62 20 92l162 823h-171l17 125h183c11.333 41.333 23.5 79.666 36.5 114.999s27.5 68.5 43.5 99.5
s34 60 54 87s43.333 52.5 70 76.5c32.667 29.333 64.667 55 96 77s63.166 40.167 95.499 54.5s66.333 25.166 102 32.499s73.834 11 114.501 11c8 0 18 -0.333008 30 -1s24.833 -1.83398 38.5 -3.50098s27.834 -3.83398 42.501 -6.50098s29 -5.66699 43 -9l-56 -236h-42
c-20.667 7.33301 -40.667 13.833 -60 19.5s-38.333 10.667 -57 15s-36.834 7.66602 -54.501 9.99902s-34.5 3.5 -50.5 3.5c-16.667 0 -31 -2 -43 -6s-24 -12.333 -36 -25c-4.66699 -5.33301 -10.5 -18.166 -17.5 -38.499s-14.5 -45.166 -22.5 -74.499
s-15.833 -61.5 -23.5 -96.5s-14.834 -69.833 -21.501 -104.5h256l-20 -125h-262l-157 -803c-13.333 -72 -36.833 -138.167 -70.5 -198.5s-77.5 -114.833 -131.5 -163.5c-33.333 -30 -66.166 -56.167 -98.499 -78.5s-65.5 -41 -99.5 -56s-69.333 -26 -106 -33
s-75.334 -10.5 -116.001 -10.5zM1885 -14.9971c-29.333 0 -56.332 3.99902 -80.999 11.999s-46 19.167 -64 33.5s-32.167 31.5 -42.5 51.5s-15.5 42.333 -15.5 67c0 26 1.83301 50.667 5.5 74s8.16699 46.666 13.5 69.999l110 492c3.33301 16.667 1.66602 30 -5.00098 40
s-18.667 18.333 -36 25l-103 45l-1 61l480 72l-140 -638l-12 -59.5c-4 -20.333 -7.5 -39.333 -10.5 -57s-5.33301 -33.5 -7 -47.5s-2.5 -24.667 -2.5 -32c0 -8 1.33301 -16.667 4 -26s7.5 -18.333 14.5 -27s16.333 -15.667 28 -21s26.5 -8 44.5 -8
c4.66699 0 11.5 0.833008 20.5 2.5s19 3.83398 30 6.50098s22 5.83398 33 9.50098s21.5 7.83398 31.5 12.501h29v-82c-20 -12 -42.333 -22.5 -67 -31.5s-51 -16.833 -79 -23.5s-57.167 -11.834 -87.5 -15.501s-60.5 -5.5 -90.5 -5.5zM2051 1202
c-24 0 -46.5 4.16895 -67.5 12.502s-39.667 20 -56 35s-29.333 32.5 -39 52.5s-14.5 41.667 -14.5 65s4.66699 44.666 14 63.999s22 36.166 38 50.499s34.667 25.5 56 33.5s44.333 12 69 12c26 0 50 -4 72 -12s41.333 -18.833 58 -32.5s29.667 -30 39 -49
s14 -39.833 14 -62.5c0 -24 -5 -46.333 -15 -67s-23.333 -38.5 -40 -53.5s-36.167 -26.833 -58.5 -35.5s-45.5 -13 -69.5 -13z" />
    <glyph glyph-name="uniFB04" unicode="ffl" horiz-adv-x="2237" 
d="M-215 -480c-12 0 -25.6631 0.666016 -40.9961 1.99902s-31.5 3.16602 -48.5 5.49902s-34.167 5.5 -51.5 9.5s-34.333 8.33301 -51 13l57 236h41c20 -7.33301 41.833 -14.5 65.5 -21.5s47.334 -13.333 71.001 -19s46.334 -10 68.001 -13s40.5 -4.5 56.5 -4.5
s31.167 2 45.5 6s27.833 12.333 40.5 25c4.66699 4.66699 10.334 16.334 17.001 35.001s13.5 41.167 20.5 67.5s14.167 55.166 21.5 86.499s14 62 20 92l162 823h-171l17 125h183c12.667 44.667 26.167 86 40.5 124s30.666 73.167 48.999 105.5s38.833 62.333 61.5 90
s48.667 53.167 78 76.5c31.333 26 62.166 48.833 92.499 68.5s61.166 36 92.499 49s63.833 22.833 97.5 29.5s69.5 10 107.5 10c12.667 0 26.667 -0.833008 42 -2.5s31.333 -3.66699 48 -6s33.167 -5.16602 49.5 -8.49902s31.5 -7 45.5 -11l-56 -236h-42
c-20.667 8 -42.334 15.167 -65.001 21.5s-45.334 12.166 -68.001 17.499s-44.334 9.5 -65.001 12.5s-39 4.5 -55 4.5c-16.667 0 -32.167 -2 -46.5 -6s-27.5 -12.333 -39.5 -25c-4.66699 -5.33301 -10.5 -18.166 -17.5 -38.499s-14.5 -45.166 -22.5 -74.499
s-15.833 -61.5 -23.5 -96.5s-14.834 -69.833 -21.501 -104.5h263l-20 -125h-269l-157 -803c-13.333 -72 -36.833 -138.167 -70.5 -198.5s-77.5 -114.833 -131.5 -163.5c-33.333 -30 -66.166 -56.167 -98.499 -78.5s-65.5 -41 -99.5 -56s-69.333 -26 -106 -33
s-75.334 -10.5 -116.001 -10.5zM1875 -15.001c-29.333 0 -56.3301 3.99414 -80.9971 11.9941s-46 19.167 -64 33.5s-32.167 31.5 -42.5 51.5s-15.5 42.333 -15.5 67c0 26 1.66699 50.667 5 74s7.66602 46.666 12.999 69.999l221 1000c6.66699 30.667 -6.33301 52.667 -39 66
l-57 25l-23 -99h-42c-40.667 14.667 -79.667 26.334 -117 35.001s-72.333 13 -105 13c-16.667 0 -31 -2 -43 -6s-24 -12.333 -36 -25c-4.66699 -5.33301 -10.5 -18.166 -17.5 -38.499s-14.333 -45.166 -22 -74.499s-15.5 -61.5 -23.5 -96.5s-15.333 -69.833 -22 -104.5h263
l-20 -125h-269l-157 -803c-27.333 -144.667 -94.666 -265.334 -201.999 -362.001c-33.333 -30 -66.333 -56.167 -99 -78.5s-65.834 -40.833 -99.501 -55.5s-68.667 -25.667 -105 -33s-75.166 -11 -116.499 -11c-24.667 0 -54.5 2.66699 -89.5 8
s-69.167 12.666 -102.5 21.999l57 236h41c20 -7.33301 41.833 -14.5 65.5 -21.5s47.334 -13.167 71.001 -18.5s46.334 -9.66602 68.001 -12.999s40.5 -5 56.5 -5s31.167 2 45.5 6s27.833 12.333 40.5 25c4.66699 4.66699 10.334 16.334 17.001 35.001s13.5 41.167 20.5 67.5
s14.167 55.166 21.5 86.499s14 62 20 92l162 823h-171l17 125h183c11.333 40.667 23.333 78.834 36 114.501s27.167 69 43.5 100s34.666 60 54.999 87s43.5 52.5 69.5 76.5c32.667 29.333 64.667 55 96 77s63.166 40.167 95.499 54.5s66.166 25.166 101.499 32.499
s73.666 11 114.999 11c16.667 0 39.5 -1.66699 68.5 -5s57.5 -8.33301 85.5 -15l-12 -50l409 54l-251 -1135c-4 -19.333 -7.83301 -39.166 -11.5 -59.499s-6.83398 -39.333 -9.50098 -57s-4.83398 -33.5 -6.50098 -47.5s-2.5 -24.667 -2.5 -32c0 -8 1.33301 -16.833 4 -26.5
s7.5 -18.5 14.5 -26.5s16.333 -14.833 28 -20.5s26.5 -8.5 44.5 -8.5c4.66699 0 11.5 0.833008 20.5 2.5s19 3.83398 30 6.50098s22 5.83398 33 9.50098s21.167 7.83398 30.5 12.501h30v-82c-19.333 -12 -41.5 -22.667 -66.5 -32s-51.5 -17.166 -79.5 -23.499
s-57.167 -11.333 -87.5 -15s-60.5 -5.5 -90.5 -5.5z" />
    <glyph glyph-name="f_b.liga" unicode="fb" horiz-adv-x="2013" 
d="M828 -13c10.667 25.333 22.4961 54.999 35.4961 88.999s25.5 74.333 37.5 121l236 1096c6.66699 30.667 -6.33301 52.667 -39 66l-56 27l-24 -101h-42c-40.667 14.667 -79.667 26.334 -117 35.001s-72.333 13 -105 13c-16.667 0 -31 -2 -43 -6s-24 -12.333 -36 -25
c-4.66699 -5.33301 -10.5 -18.166 -17.5 -38.499s-14.333 -45.166 -22 -74.499s-15.5 -61.5 -23.5 -96.5s-15.333 -69.833 -22 -104.5h263l-20 -125h-269l-157 -803c-27.333 -144.667 -94.666 -265.334 -201.999 -362.001c-33.333 -30 -66.333 -56.167 -99 -78.5
s-65.834 -40.833 -99.501 -55.5s-68.667 -25.667 -105 -33s-75.166 -11 -116.499 -11c-24.667 0 -54.5 2.66699 -89.5 8s-69.167 12.666 -102.5 21.999l57 236h41c20 -7.33301 41.833 -14.5 65.5 -21.5s47.334 -13.167 71.001 -18.5s46.334 -9.66602 68.001 -12.999
s40.5 -5 56.5 -5s31.167 2 45.5 6s27.833 12.333 40.5 25c4.66699 4.66699 10.334 16.334 17.001 35.001s13.5 41.167 20.5 67.5s14.167 55.166 21.5 86.499s14 62 20 92l162 823h-171l17 125h183c11.333 40.667 23.333 78.834 36 114.501s27.167 69 43.5 100
s34.666 60 54.999 87s43.5 52.5 69.5 76.5c32.667 29.333 64.667 55 96 77s63.166 40.167 95.499 54.5s66.166 25.166 101.499 32.499s73.666 11 114.999 11c16.667 0 39.5 -1.66699 68.5 -5s57.5 -8.33301 85.5 -15l-12 -50l409 54l-131 -597
c0 -1.33301 -0.5 -4.16602 -1.5 -8.49902s-2.16699 -9 -3.5 -14s-2.5 -9.66699 -3.5 -14s-1.83301 -6.83301 -2.5 -7.5c34.667 37.333 66.834 66.333 96.501 87s57.334 36 83.001 46s49.667 16.167 72 18.5s43.5 3.5 63.5 3.5c50.667 0 95.834 -9.66699 135.501 -29
s72.834 -46.333 99.501 -81s47 -75.5 61 -122.5s21 -98.5 21 -154.5c0 -55.333 -5.83301 -110.333 -17.5 -165s-28.5 -106.834 -50.5 -156.501s-49 -95.834 -81 -138.501s-68.5 -79.667 -109.5 -111s-86 -55.833 -135 -73.5s-101.5 -26.5 -157.5 -26.5
c-26 0 -50.833 2.83301 -74.5 8.5s-45.5 13 -65.5 22s-38 19.333 -54 31s-29.333 23.167 -40 34.5l-50 -90h-298zM1353 122.999c37.333 0 70.8311 8.16602 100.498 24.499s55.667 38 78 65s41.333 58 57 93s28.334 71 38.001 108s16.667 73.667 21 110s6.5 69.5 6.5 99.5
c0 28 -2.5 56.5 -7.5 85.5s-13.833 55.333 -26.5 79s-30.167 42.834 -52.5 57.501s-50.5 22 -84.5 22s-65.667 -7.16699 -95 -21.5s-54.666 -33.5 -75.999 -57.5l-137 -622c24 -13.333 51.5 -23.833 82.5 -31.5s62.833 -11.5 95.5 -11.5z" />
    <glyph glyph-name="f_f_b.liga" unicode="ffb" horiz-adv-x="2785" 
d="M-215 -480c-12 0 -25.6631 0.666016 -40.9961 1.99902s-31.5 3.16602 -48.5 5.49902s-34.167 5.5 -51.5 9.5s-34.333 8.33301 -51 13l57 236h41c20 -7.33301 41.833 -14.5 65.5 -21.5s47.334 -13.333 71.001 -19s46.334 -10 68.001 -13s40.5 -4.5 56.5 -4.5
s31.167 2 45.5 6s27.833 12.333 40.5 25c4.66699 4.66699 10.334 16.334 17.001 35.001s13.5 41.167 20.5 67.5s14.167 55.166 21.5 86.499s14 62 20 92l162 823h-171l17 125h183c12.667 44.667 26.167 86 40.5 124s30.666 73.167 48.999 105.5s38.833 62.333 61.5 90
s48.667 53.167 78 76.5c31.333 26 62.166 48.833 92.499 68.5s61.166 36 92.499 49s63.833 22.833 97.5 29.5s69.5 10 107.5 10c12.667 0 26.667 -0.833008 42 -2.5s31.333 -3.66699 48 -6s33.167 -5.16602 49.5 -8.49902s31.5 -7 45.5 -11l-56 -236h-42
c-20.667 8 -42.334 15.167 -65.001 21.5s-45.334 12.166 -68.001 17.499s-44.334 9.5 -65.001 12.5s-39 4.5 -55 4.5c-16.667 0 -32.167 -2 -46.5 -6s-27.5 -12.333 -39.5 -25c-4.66699 -5.33301 -10.5 -18.166 -17.5 -38.499s-14.5 -45.166 -22.5 -74.499
s-15.833 -61.5 -23.5 -96.5s-14.834 -69.833 -21.501 -104.5h263l-20 -125h-269l-157 -803c-13.333 -72 -36.833 -138.167 -70.5 -198.5s-77.5 -114.833 -131.5 -163.5c-33.333 -30 -66.166 -56.167 -98.499 -78.5s-65.5 -41 -99.5 -56s-69.333 -26 -106 -33
s-75.334 -10.5 -116.001 -10.5zM1600 -13.001c10.667 25.333 22.5 54.999 35.5 88.999s25.5 74.333 37.5 121l236 1096c6.66699 30.667 -6.33301 52.667 -39 66l-56 27l-24 -101h-42c-40.667 14.667 -79.667 26.334 -117 35.001s-72.333 13 -105 13c-16.667 0 -31 -2 -43 -6
s-24 -12.333 -36 -25c-4.66699 -5.33301 -10.5 -18.166 -17.5 -38.499s-14.333 -45.166 -22 -74.499s-15.5 -61.5 -23.5 -96.5s-15.333 -69.833 -22 -104.5h263l-20 -125h-269l-157 -803c-27.333 -144.667 -94.666 -265.334 -201.999 -362.001
c-33.333 -30 -66.333 -56.167 -99 -78.5s-65.834 -40.833 -99.501 -55.5s-68.667 -25.667 -105 -33s-75.166 -11 -116.499 -11c-24.667 0 -54.5 2.66699 -89.5 8s-69.167 12.666 -102.5 21.999l57 236h41c20 -7.33301 41.833 -14.5 65.5 -21.5s47.334 -13.167 71.001 -18.5
s46.334 -9.66602 68.001 -12.999s40.5 -5 56.5 -5s31.167 2 45.5 6s27.833 12.333 40.5 25c4.66699 4.66699 10.334 16.334 17.001 35.001s13.5 41.167 20.5 67.5s14.167 55.166 21.5 86.499s14 62 20 92l162 823h-171l17 125h183c11.333 40.667 23.333 78.834 36 114.501
s27.167 69 43.5 100s34.666 60 54.999 87s43.5 52.5 69.5 76.5c32.667 29.333 64.667 55 96 77s63.166 40.167 95.499 54.5s66.166 25.166 101.499 32.499s73.666 11 114.999 11c16.667 0 39.5 -1.66699 68.5 -5s57.5 -8.33301 85.5 -15l-12 -50l409 54l-131 -597
c0 -1.33301 -0.5 -4.16602 -1.5 -8.49902s-2.16699 -9 -3.5 -14s-2.5 -9.66699 -3.5 -14s-1.83301 -6.83301 -2.5 -7.5c34.667 37.333 66.834 66.333 96.5 87c29.667 20.667 57.334 36 83 46c25.667 10 49.667 16.167 72 18.5s43.5 3.5 63.5 3.5
c50.667 0 95.834 -9.66699 135.5 -29c39.667 -19.333 72.834 -46.333 99.5 -81c26.667 -34.667 47 -75.5 61 -122.5s21 -98.5 21 -154.5c0 -55.333 -5.83301 -110.333 -17.5 -165s-28.5 -106.834 -50.5 -156.501s-49 -95.834 -81 -138.501s-68.5 -79.667 -109.5 -111
s-86 -55.833 -135 -73.5s-101.5 -26.5 -157.5 -26.5c-26 0 -50.833 2.83301 -74.5 8.5s-45.5 13 -65.5 22s-38 19.333 -54 31s-29.333 23.167 -40 34.5l-50 -90h-298zM2125 122.998c37.333 0 70.833 8.16602 100.5 24.499s55.667 38 78 65s41.333 58 57 93s28.334 71 38 108
c9.66699 37 16.667 73.667 21 110s6.5 69.5 6.5 99.5c0 28 -2.5 56.5 -7.5 85.5s-13.833 55.333 -26.5 79s-30.167 42.834 -52.5 57.501s-50.5 22 -84.5 22s-65.667 -7.16699 -95 -21.5s-54.666 -33.5 -76 -57.5l-137 -622c24 -13.333 51.5 -23.833 82.5 -31.5
s62.833 -11.5 95.5 -11.5z" />
    <glyph glyph-name="f_h.liga" unicode="fh" horiz-adv-x="2042" 
d="M1710 -15c-29.333 0 -56.332 3.99805 -80.999 11.998s-46 19.167 -64 33.5s-32 31.5 -42 51.5s-15 42.333 -15 67c0 26 1.83301 50.833 5.5 74.5s8.16699 46.834 13.5 69.501l73 310c2.66699 10.667 5.16699 22.167 7.5 34.5s4.5 24.666 6.5 36.999
s3.5 24.166 4.5 35.499s1.5 21.666 1.5 30.999c0 16.667 -2.16699 32.5 -6.5 47.5s-11.666 28 -21.999 39s-23.666 19.667 -39.999 26s-36.5 9.5 -60.5 9.5c-14.667 0 -30.334 -1.16699 -47.001 -3.5s-33.5 -6.66602 -50.5 -12.999s-33.667 -15 -50 -26
s-31.5 -24.833 -45.5 -41.5l-130 -585c-2 -16 -3.5 -32.833 -4.5 -50.5s-1.83301 -35.167 -2.5 -52.5s-1 -33.833 -1 -49.5v-41.5h-318l288 1293c3.33301 16 1.66602 29.167 -5.00098 39.5s-18.334 19.166 -35.001 26.499l-13 6l-21 -88h-42c-20 8 -41.5 15.333 -64.5 22
s-45.833 12.5 -68.5 17.5s-44.334 9 -65.001 12s-39 4.5 -55 4.5c-16.667 0 -32.167 -2 -46.5 -6s-27.5 -12.333 -39.5 -25c-4.66699 -5.33301 -10.5 -18.166 -17.5 -38.499s-14.333 -45.166 -22 -74.499s-15.5 -61.5 -23.5 -96.5s-15.333 -69.833 -22 -104.5h263l-20 -125
h-269l-157 -803c-27.333 -144.667 -94.666 -265.334 -201.999 -362.001c-33.333 -30 -66.333 -56.167 -99 -78.5s-65.834 -40.833 -99.501 -55.5s-68.667 -25.667 -105 -33s-75.166 -11 -116.499 -11c-24.667 0 -54.5 2.66699 -89.5 8s-69.167 12.666 -102.5 21.999l57 236
h41c20 -7.33301 41.833 -14.5 65.5 -21.5s47.334 -13.167 71.001 -18.5s46.334 -9.66602 68.001 -12.999s40.5 -5 56.5 -5s31.167 2 45.5 6s27.833 12.333 40.5 25c4.66699 4.66699 10.334 16.334 17.001 35.001s13.5 41.167 20.5 67.5s14.167 55.166 21.5 86.499
s14 62 20 92l162 823h-171l17 125h183c12.667 44.667 26.167 86 40.5 124s30.666 73.333 48.999 106s38.833 62.667 61.5 90s48.667 52.666 78 75.999c31.333 26 62.166 48.833 92.499 68.5s61.166 36 92.499 49s63.833 22.833 97.5 29.5s69.5 10 107.5 10
c12 0 25.833 -0.666992 41.5 -2s31.834 -3.33301 48.501 -6s33.167 -5.66699 49.5 -9s31.5 -7 45.5 -11l-9 -36l361 48l-133 -601l-12 -52c25.333 26.667 50.5 50.334 75.5 71.001s51.5 38.167 79.5 52.5s58 25.166 90 32.499s67.667 11 107 11
c34.667 0 67.167 -4.83301 97.5 -14.5s56.5 -24.167 78.5 -43.5s39.333 -43.666 52 -72.999s19 -63.666 19 -102.999c0 -16.667 -1.33301 -34.5 -4 -53.5s-5.66699 -36.833 -9 -53.5l-72 -303c-4.66699 -19.333 -9 -39 -13 -59s-7.33301 -38.833 -10 -56.5
s-4.83398 -33.5 -6.50098 -47.5s-2.5 -24.667 -2.5 -32c0 -8 1.33301 -17 4 -27s7.5 -19.167 14.5 -27.5s16.333 -15.5 28 -21.5s26.167 -9 43.5 -9c11.333 0 26.333 2.33301 45 7s36.667 10.334 54 17.001h29v-82c-38 -23.333 -84 -41.166 -138 -53.499
s-111 -18.5 -171 -18.5z" />
    <glyph glyph-name="f_f_h.liga" unicode="ffh" horiz-adv-x="2813" 
d="M-215 -480c-12 0 -25.6631 0.666016 -40.9961 1.99902s-31.5 3.16602 -48.5 5.49902s-34.167 5.5 -51.5 9.5s-34.333 8.33301 -51 13l57 236h41c20 -7.33301 41.833 -14.5 65.5 -21.5s47.334 -13.333 71.001 -19s46.334 -10 68.001 -13s40.5 -4.5 56.5 -4.5
s31.167 2 45.5 6s27.833 12.333 40.5 25c4.66699 4.66699 10.334 16.334 17.001 35.001s13.5 41.167 20.5 67.5s14.167 55.166 21.5 86.499s14 62 20 92l162 823h-171l17 125h183c12.667 44.667 26.167 86 40.5 124s30.666 73.167 48.999 105.5s38.833 62.333 61.5 90
s48.667 53.167 78 76.5c31.333 26 62.166 48.833 92.499 68.5s61.166 36 92.499 49s63.833 22.833 97.5 29.5s69.5 10 107.5 10c12.667 0 26.667 -0.833008 42 -2.5s31.333 -3.66699 48 -6s33.167 -5.16602 49.5 -8.49902s31.5 -7 45.5 -11l-56 -236h-42
c-20.667 8 -42.334 15.167 -65.001 21.5s-45.334 12.166 -68.001 17.499s-44.334 9.5 -65.001 12.5s-39 4.5 -55 4.5c-16.667 0 -32.167 -2 -46.5 -6s-27.5 -12.333 -39.5 -25c-4.66699 -5.33301 -10.5 -18.166 -17.5 -38.499s-14.5 -45.166 -22.5 -74.499
s-15.833 -61.5 -23.5 -96.5s-14.834 -69.833 -21.501 -104.5h263l-20 -125h-269l-157 -803c-13.333 -72 -36.833 -138.167 -70.5 -198.5s-77.5 -114.833 -131.5 -163.5c-33.333 -30 -66.166 -56.167 -98.499 -78.5s-65.5 -41 -99.5 -56s-69.333 -26 -106 -33
s-75.334 -10.5 -116.001 -10.5zM2481 -15.001c-29.333 0 -56.3311 3.99805 -80.998 11.998s-46 19.167 -64 33.5s-32 31.5 -42 51.5s-15 42.333 -15 67c0 26 1.83301 50.833 5.5 74.5s8.16699 46.834 13.5 69.501l73 310c2.66699 10.667 5.16699 22.167 7.5 34.5
s4.5 24.666 6.5 36.999s3.5 24.166 4.5 35.499s1.5 21.666 1.5 30.999c0 16.667 -2.16699 32.5 -6.5 47.5s-11.666 28 -22 39c-10.333 11 -23.666 19.667 -40 26c-16.333 6.33301 -36.5 9.5 -60.5 9.5c-14.667 0 -30.334 -1.16699 -47.001 -3.5
s-33.5 -6.66602 -50.5 -12.999s-33.667 -15 -50 -26s-31.5 -24.833 -45.5 -41.5l-130 -585c-2 -16 -3.5 -32.833 -4.5 -50.5s-1.83301 -35.167 -2.5 -52.5s-1 -33.833 -1 -49.5v-41.5h-318l288 1293c3.33301 16 1.66602 29.167 -5.00098 39.5s-18.334 19.166 -35.001 26.499
l-13 6l-21 -88h-42c-20 8 -41.5 15.333 -64.5 22s-45.833 12.5 -68.5 17.5s-44.334 9 -65.001 12s-39 4.5 -55 4.5c-16.667 0 -32.167 -2 -46.5 -6s-27.5 -12.333 -39.5 -25c-4.66699 -5.33301 -10.5 -18.166 -17.5 -38.499s-14.333 -45.166 -22 -74.499
s-15.5 -61.5 -23.5 -96.5s-15.333 -69.833 -22 -104.5h263l-20 -125h-269l-157 -803c-27.333 -144.667 -94.666 -265.334 -201.999 -362.001c-33.333 -30 -66.333 -56.167 -99 -78.5s-65.834 -40.833 -99.501 -55.5s-68.667 -25.667 -105 -33s-75.166 -11 -116.499 -11
c-24.667 0 -54.5 2.66699 -89.5 8s-69.167 12.666 -102.5 21.999l57 236h41c20 -7.33301 41.833 -14.5 65.5 -21.5s47.334 -13.167 71.001 -18.5s46.334 -9.66602 68.001 -12.999s40.5 -5 56.5 -5s31.167 2 45.5 6s27.833 12.333 40.5 25
c4.66699 4.66699 10.334 16.334 17.001 35.001s13.5 41.167 20.5 67.5s14.167 55.166 21.5 86.499s14 62 20 92l162 823h-171l17 125h183c12.667 44.667 26.167 86 40.5 124s30.666 73.333 48.999 106s38.833 62.667 61.5 90s48.667 52.666 78 75.999
c31.333 26 62.166 48.833 92.499 68.5s61.166 36 92.499 49s63.833 22.833 97.5 29.5s69.5 10 107.5 10c12 0 25.833 -0.666992 41.5 -2s31.834 -3.33301 48.501 -6s33.167 -5.66699 49.5 -9s31.5 -7 45.5 -11l-9 -36l361 48l-133 -601l-12 -52
c25.333 26.667 50.5 50.334 75.5 71.001s51.5 38.167 79.5 52.5s58 25.166 90 32.499s67.667 11 107 11c34.667 0 67.167 -4.83301 97.5 -14.5s56.5 -24.167 78.5 -43.5s39.333 -43.666 52 -72.999s19 -63.666 19 -102.999c0 -16.667 -1.33301 -34.5 -4 -53.5
s-5.66699 -36.833 -9 -53.5l-72 -303c-4.66699 -19.333 -9 -39 -13 -59s-7.33301 -38.833 -10 -56.5s-4.83398 -33.5 -6.5 -47.5c-1.66699 -14 -2.5 -24.667 -2.5 -32c0 -8 1.33301 -17 4 -27s7.5 -19.167 14.5 -27.5s16.333 -15.5 28 -21.5s26.167 -9 43.5 -9
c11.333 0 26.333 2.33301 45 7s36.667 10.334 54 17.001h29v-82c-38 -23.333 -84 -41.166 -138 -53.499s-111 -18.5 -171 -18.5z" />
    <glyph glyph-name="f_j.liga" unicode="fj" horiz-adv-x="1466" 
d="M-215 -480c-12 0 -25.6689 0.670898 -41.002 2.00391s-31.5 3.16602 -48.5 5.49902s-34.167 5.5 -51.5 9.5s-34.333 8.33301 -51 13l57 236h41c20 -7.33301 41.833 -14.5 65.5 -21.5s47.334 -13.333 71.001 -19s46.334 -10 68.001 -13s40.5 -4.5 56.5 -4.5
s31.167 2 45.5 6s27.833 12.333 40.5 25c4.66699 4.66699 10.334 16.334 17.001 35.001s13.5 41.167 20.5 67.5s14.167 55.166 21.5 86.499s14 62 20 92l162 823h-171l17 125h183c11.333 41.333 23.5 79.666 36.5 114.999s27.5 68.5 43.5 99.5s34 60 54 87
s43.333 52.5 70 76.5c32.667 29.333 64.667 55 96 77s63.166 40.167 95.499 54.5s66.333 25.166 102 32.499s73.834 11 114.501 11c8 0 18 -0.333008 30 -1s24.833 -1.83398 38.5 -3.50098s27.834 -3.83398 42.501 -6.50098s29 -5.66699 43 -9l-56 -236h-42
c-20.667 7.33301 -40.667 13.833 -60 19.5s-38.333 10.667 -57 15s-36.834 7.66602 -54.501 9.99902s-34.5 3.5 -50.5 3.5c-16.667 0 -31 -2 -43 -6s-24 -12.333 -36 -25c-4.66699 -5.33301 -10.5 -18.166 -17.5 -38.499s-14.5 -45.166 -22.5 -74.499
s-15.833 -61.5 -23.5 -96.5s-14.834 -69.833 -21.501 -104.5h256l-20 -125h-262l-157 -803c-13.333 -72 -36.833 -138.167 -70.5 -198.5s-77.5 -114.833 -131.5 -163.5c-33.333 -30 -66.166 -56.167 -98.499 -78.5s-65.5 -41 -99.5 -56s-69.333 -26 -106 -33
s-75.334 -10.5 -116.001 -10.5zM599.998 -479.996c-12.667 0 -26.6699 0.668945 -42.0029 2.00195s-31.333 3.16602 -48 5.49902s-33.667 5.5 -51 9.5s-34.333 8.33301 -51 13l56 236h42c20 -7.33301 41.833 -14.5 65.5 -21.5s47.334 -13.333 71.001 -19
s46.334 -10 68.001 -13s40.5 -4.5 56.5 -4.5s31 2 45 6s27.333 12.333 40 25c5.33301 4.66699 11.333 16.334 18 35.001s13.667 41.167 21 67.5s14.5 55.166 21.5 86.499s13.5 62 19.5 92l140 745c3.33301 16 1.83301 29.667 -4.5 41s-18.166 19.666 -35.499 24.999l-125 44
l-1 61l499 72l-183 -968c-13.333 -72 -36.833 -138.167 -70.5 -198.5s-77.5 -114.833 -131.5 -163.5c-33.333 -30 -66.166 -56.167 -98.499 -78.5s-65.5 -41 -99.5 -56s-69.333 -26 -106 -33s-75.334 -10.5 -116.001 -10.5zM1277 1202.01c-24 0 -46.5 4.16895 -67.5 12.502
s-39.667 20 -56 35s-29.333 32.5 -39 52.5s-14.5 41.667 -14.5 65s4.66699 44.666 14 63.999s22 36.166 38 50.499s34.667 25.5 56 33.5s44.333 12 69 12c26 0 50 -4 72 -12s41.333 -18.833 58 -32.5s29.667 -30 39 -49s14 -39.833 14 -62.5c0 -24 -5 -46.333 -15 -67
s-23.333 -38.5 -40 -53.5s-36.167 -26.833 -58.5 -35.5s-45.5 -13 -69.5 -13z" />
    <glyph glyph-name="f_f_j.liga" unicode="ffj" horiz-adv-x="2240" 
d="M-215 -480c-12 0 -25.6631 0.666016 -40.9961 1.99902s-31.5 3.16602 -48.5 5.49902s-34.167 5.5 -51.5 9.5s-34.333 8.33301 -51 13l57 236h41c20 -7.33301 41.833 -14.5 65.5 -21.5s47.334 -13.333 71.001 -19s46.334 -10 68.001 -13s40.5 -4.5 56.5 -4.5
s31.167 2 45.5 6s27.833 12.333 40.5 25c4.66699 4.66699 10.334 16.334 17.001 35.001s13.5 41.167 20.5 67.5s14.167 55.166 21.5 86.499s14 62 20 92l162 823h-171l17 125h183c12.667 44.667 26.167 86 40.5 124s30.666 73.167 48.999 105.5s38.833 62.333 61.5 90
s48.667 53.167 78 76.5c31.333 26 62.166 48.833 92.499 68.5s61.166 36 92.499 49s63.833 22.833 97.5 29.5s69.5 10 107.5 10c12.667 0 26.667 -0.833008 42 -2.5s31.333 -3.66699 48 -6s33.167 -5.16602 49.5 -8.49902s31.5 -7 45.5 -11l-56 -236h-42
c-20.667 8 -42.334 15.167 -65.001 21.5s-45.334 12.166 -68.001 17.499s-44.334 9.5 -65.001 12.5s-39 4.5 -55 4.5c-16.667 0 -32.167 -2 -46.5 -6s-27.5 -12.333 -39.5 -25c-4.66699 -5.33301 -10.5 -18.166 -17.5 -38.499s-14.5 -45.166 -22.5 -74.499
s-15.833 -61.5 -23.5 -96.5s-14.834 -69.833 -21.501 -104.5h263l-20 -125h-269l-157 -803c-13.333 -72 -36.833 -138.167 -70.5 -198.5s-77.5 -114.833 -131.5 -163.5c-33.333 -30 -66.166 -56.167 -98.499 -78.5s-65.5 -41 -99.5 -56s-69.333 -26 -106 -33
s-75.334 -10.5 -116.001 -10.5zM559.004 -480.001c-12 0 -25.6689 0.670898 -41.002 2.00391s-31.5 3.16602 -48.5 5.49902s-34.167 5.5 -51.5 9.5s-34.333 8.33301 -51 13l57 236h41c20 -7.33301 41.833 -14.5 65.5 -21.5s47.334 -13.333 71.001 -19s46.334 -10 68.001 -13
s40.5 -4.5 56.5 -4.5s31.167 2 45.5 6s27.833 12.333 40.5 25c4.66699 4.66699 10.334 16.334 17.001 35.001s13.5 41.167 20.5 67.5s14.167 55.166 21.5 86.499s14 62 20 92l162 823h-171l17 125h183c11.333 41.333 23.5 79.666 36.5 114.999s27.5 68.5 43.5 99.5
s34 60 54 87s43.333 52.5 70 76.5c32.667 29.333 64.667 55 96 77s63.166 40.167 95.499 54.5s66.333 25.166 102 32.499s73.834 11 114.501 11c8 0 18 -0.333008 30 -1s24.833 -1.83398 38.5 -3.50098s27.834 -3.83398 42.501 -6.50098s29 -5.66699 43 -9l-56 -236h-42
c-20.667 7.33301 -40.667 13.833 -60 19.5s-38.333 10.667 -57 15s-36.834 7.66602 -54.501 9.99902s-34.5 3.5 -50.5 3.5c-16.667 0 -31 -2 -43 -6s-24 -12.333 -36 -25c-4.66699 -5.33301 -10.5 -18.166 -17.5 -38.499s-14.5 -45.166 -22.5 -74.499
s-15.833 -61.5 -23.5 -96.5s-14.834 -69.833 -21.501 -104.5h256l-20 -125h-262l-157 -803c-13.333 -72 -36.833 -138.167 -70.5 -198.5s-77.5 -114.833 -131.5 -163.5c-33.333 -30 -66.166 -56.167 -98.499 -78.5s-65.5 -41 -99.5 -56s-69.333 -26 -106 -33
s-75.334 -10.5 -116.001 -10.5zM1374 -479.997c-12.667 0 -26.6699 0.668945 -42.0029 2.00195s-31.333 3.16602 -48 5.49902s-33.667 5.5 -51 9.5s-34.333 8.33301 -51 13l56 236h42c20 -7.33301 41.833 -14.5 65.5 -21.5s47.334 -13.333 71.001 -19s46.334 -10 68.001 -13
s40.5 -4.5 56.5 -4.5s31 2 45 6s27.333 12.333 40 25c5.33301 4.66699 11.333 16.334 18 35.001s13.667 41.167 21 67.5s14.5 55.166 21.5 86.499s13.5 62 19.5 92l140 745c3.33301 16 1.83301 29.667 -4.5 41s-18.166 19.666 -35.499 24.999l-125 44l-1 61l499 72
l-183 -968c-13.333 -72 -36.833 -138.167 -70.5 -198.5s-77.5 -114.833 -131.5 -163.5c-33.333 -30 -66.166 -56.167 -98.499 -78.5s-65.5 -41 -99.5 -56s-69.333 -26 -106 -33s-75.334 -10.5 -116.001 -10.5zM2051 1202c-24 0 -46.5 4.16895 -67.5 12.502
s-39.667 20 -56 35s-29.333 32.5 -39 52.5s-14.5 41.667 -14.5 65s4.66699 44.666 14 63.999s22 36.166 38 50.499s34.667 25.5 56 33.5s44.333 12 69 12c26 0 50 -4 72 -12s41.333 -18.833 58 -32.5s29.667 -30 39 -49s14 -39.833 14 -62.5c0 -24 -5 -46.333 -15 -67
s-23.333 -38.5 -40 -53.5s-36.167 -26.833 -58.5 -35.5s-45.5 -13 -69.5 -13z" />
    <glyph glyph-name="f_k.liga" unicode="fk" horiz-adv-x="1969" 
d="M1631 -15c-31.333 0 -58.167 3.33203 -80.5 9.99902s-41.333 16.5 -57 29.5s-29 29 -40 48s-20.833 40.5 -29.5 64.5l-109 318l-112 -93l-35 -168c-2.66699 -16.667 -4.66699 -33.834 -6 -51.501s-2.16602 -35 -2.49902 -52s-0.5 -33.333 -0.5 -49v-41.5h-317l288 1293
c3.33301 16 1.66602 29.167 -5.00098 39.5s-18.334 19.166 -35.001 26.499l-49 23l-23 -97h-42c-40.667 14.667 -79.667 26.334 -117 35.001s-72.333 13 -105 13c-16.667 0 -31 -2 -43 -6s-24 -12.333 -36 -25c-4.66699 -5.33301 -10.5 -18.166 -17.5 -38.499
s-14.333 -45.166 -22 -74.499s-15.5 -61.5 -23.5 -96.5s-15.333 -69.833 -22 -104.5h263l-20 -125h-269l-157 -803c-27.333 -144.667 -94.666 -265.334 -201.999 -362.001c-33.333 -30 -66.333 -56.167 -99 -78.5s-65.834 -40.833 -99.501 -55.5s-68.667 -25.667 -105 -33
s-75.166 -11 -116.499 -11c-24.667 0 -54.5 2.66699 -89.5 8s-69.167 12.666 -102.5 21.999l57 236h41c20 -7.33301 41.833 -14.5 65.5 -21.5s47.334 -13.167 71.001 -18.5s46.334 -9.66602 68.001 -12.999s40.5 -5 56.5 -5s31.167 2 45.5 6s27.833 12.333 40.5 25
c4.66699 4.66699 10.334 16.334 17.001 35.001s13.5 41.167 20.5 67.5s14.167 55.166 21.5 86.499s14 62 20 92l162 823h-171l17 125h183c11.333 40.667 23.333 78.834 36 114.501s27.167 69 43.5 100s34.666 60 54.999 87s43.5 52.5 69.5 76.5
c32.667 29.333 64.667 55 96 77s63.166 40.167 95.499 54.5s66.166 25.166 101.499 32.499s73.666 11 114.999 11c16.667 0 39.5 -1.66699 68.5 -5s57.5 -8.33301 85.5 -15l-12 -49l401 53l-229 -1035l249 274.5c66.667 75.667 120 131.5 160 167.5
c18.667 16.667 35.667 31 51 43s30.666 22 45.999 30s31.333 14 48 18s35.667 6 57 6c18.667 0 38.834 -1.16699 60.501 -3.5s42.834 -5.16602 63.501 -8.49902l-43 -266h-38c-24.667 4.66699 -49.167 8.66699 -73.5 12s-46.166 5 -65.499 5
c-14 0 -29.167 -0.333008 -45.5 -1s-34 -4 -53 -10s-39.167 -15.5 -60.5 -28.5s-43.666 -31.5 -66.999 -55.5l162 -448c4.66699 -12 10.667 -24.667 18 -38s16.166 -25.333 26.499 -36s22.666 -19.5 36.999 -26.5s30.5 -10.5 48.5 -10.5c12.667 0 28.5 2.5 47.5 7.5
s37.833 11.5 56.5 19.5h29v-82c-38.667 -24 -86 -42.333 -142 -55s-114.333 -19 -175 -19z" />
    <glyph glyph-name="f_f_k.liga" unicode="ffk" horiz-adv-x="2741" 
d="M-215 -480c-12 0 -25.6631 0.666016 -40.9961 1.99902s-31.5 3.16602 -48.5 5.49902s-34.167 5.5 -51.5 9.5s-34.333 8.33301 -51 13l57 236h41c20 -7.33301 41.833 -14.5 65.5 -21.5s47.334 -13.333 71.001 -19s46.334 -10 68.001 -13s40.5 -4.5 56.5 -4.5
s31.167 2 45.5 6s27.833 12.333 40.5 25c4.66699 4.66699 10.334 16.334 17.001 35.001s13.5 41.167 20.5 67.5s14.167 55.166 21.5 86.499s14 62 20 92l162 823h-171l17 125h183c12.667 44.667 26.167 86 40.5 124s30.666 73.167 48.999 105.5s38.833 62.333 61.5 90
s48.667 53.167 78 76.5c31.333 26 62.166 48.833 92.499 68.5s61.166 36 92.499 49s63.833 22.833 97.5 29.5s69.5 10 107.5 10c12.667 0 26.667 -0.833008 42 -2.5s31.333 -3.66699 48 -6s33.167 -5.16602 49.5 -8.49902s31.5 -7 45.5 -11l-56 -236h-42
c-20.667 8 -42.334 15.167 -65.001 21.5s-45.334 12.166 -68.001 17.499s-44.334 9.5 -65.001 12.5s-39 4.5 -55 4.5c-16.667 0 -32.167 -2 -46.5 -6s-27.5 -12.333 -39.5 -25c-4.66699 -5.33301 -10.5 -18.166 -17.5 -38.499s-14.5 -45.166 -22.5 -74.499
s-15.833 -61.5 -23.5 -96.5s-14.834 -69.833 -21.501 -104.5h263l-20 -125h-269l-157 -803c-13.333 -72 -36.833 -138.167 -70.5 -198.5s-77.5 -114.833 -131.5 -163.5c-33.333 -30 -66.166 -56.167 -98.499 -78.5s-65.5 -41 -99.5 -56s-69.333 -26 -106 -33
s-75.334 -10.5 -116.001 -10.5zM2403 -15.001c-31.333 0 -58.166 3.33203 -80.499 9.99902s-41.333 16.5 -57 29.5s-29 29 -40 48s-20.833 40.5 -29.5 64.5l-109 318l-112 -93l-35 -168c-2.66699 -16.667 -4.66699 -33.834 -6 -51.501s-2.16602 -35 -2.49902 -52
s-0.5 -33.333 -0.5 -49v-41.5h-317l288 1293c3.33301 16 1.66602 29.167 -5.00098 39.5s-18.334 19.166 -35.001 26.499l-49 23l-23 -97h-42c-40.667 14.667 -79.667 26.334 -117 35.001s-72.333 13 -105 13c-16.667 0 -31 -2 -43 -6s-24 -12.333 -36 -25
c-4.66699 -5.33301 -10.5 -18.166 -17.5 -38.499s-14.333 -45.166 -22 -74.499s-15.5 -61.5 -23.5 -96.5s-15.333 -69.833 -22 -104.5h263l-20 -125h-269l-157 -803c-27.333 -144.667 -94.666 -265.334 -201.999 -362.001c-33.333 -30 -66.333 -56.167 -99 -78.5
s-65.834 -40.833 -99.501 -55.5s-68.667 -25.667 -105 -33s-75.166 -11 -116.499 -11c-24.667 0 -54.5 2.66699 -89.5 8s-69.167 12.666 -102.5 21.999l57 236h41c20 -7.33301 41.833 -14.5 65.5 -21.5s47.334 -13.167 71.001 -18.5s46.334 -9.66602 68.001 -12.999
s40.5 -5 56.5 -5s31.167 2 45.5 6s27.833 12.333 40.5 25c4.66699 4.66699 10.334 16.334 17.001 35.001s13.5 41.167 20.5 67.5s14.167 55.166 21.5 86.499s14 62 20 92l162 823h-171l17 125h183c11.333 40.667 23.333 78.834 36 114.501s27.167 69 43.5 100
s34.666 60 54.999 87s43.5 52.5 69.5 76.5c32.667 29.333 64.667 55 96 77s63.166 40.167 95.499 54.5s66.166 25.166 101.499 32.499s73.666 11 114.999 11c16.667 0 39.5 -1.66699 68.5 -5s57.5 -8.33301 85.5 -15l-12 -49l401 53l-229 -1035l249 274.5
c66.667 75.667 120 131.5 160 167.5c18.667 16.667 35.667 31 51 43s30.666 22 46 30c15.333 8 31.333 14 48 18s35.667 6 57 6c18.667 0 38.834 -1.16699 60.5 -3.5c21.667 -2.33301 42.834 -5.16602 63.5 -8.49902l-43 -266h-38c-24.667 4.66699 -49.167 8.66699 -73.5 12
s-46.166 5 -65.5 5c-14 0 -29.167 -0.333008 -45.5 -1s-34 -4 -53 -10s-39.167 -15.5 -60.5 -28.5s-43.666 -31.5 -67 -55.5l162 -448c4.66699 -12 10.667 -24.667 18 -38s16.166 -25.333 26.5 -36c10.333 -10.667 22.666 -19.5 37 -26.5c14.333 -7 30.5 -10.5 48.5 -10.5
c12.667 0 28.5 2.5 47.5 7.5s37.833 11.5 56.5 19.5h29v-82c-38.667 -24 -86 -42.333 -142 -55s-114.333 -19 -175 -19z" />
    <glyph glyph-name=".notdef" horiz-adv-x="1024" 
d="M0 1466h1024v-1466h-1024v1466zM83 80h858v1306h-858v-1306z" />
    <glyph glyph-name="space" unicode=" " horiz-adv-x="562" 
 />
    <glyph glyph-name="space" unicode="&#xa0;" horiz-adv-x="562" 
 />
    <glyph glyph-name="exclam" unicode="!" horiz-adv-x="790" 
d="M389 1365l8 35h358l-7 -35l-324 -914h-131zM319 -24c-25.333 0 -48.833 4.66992 -70.5 14.0029s-40.5 21.666 -56.5 36.999s-28.667 33.5 -38 54.5s-14 43.5 -14 67.5c0 23.333 4.66699 45.666 14 66.999s22 39.833 38 55.5s34.833 28 56.5 37s45.167 13.5 70.5 13.5
c24.667 0 47.667 -4.5 69 -13.5s40 -21.333 56 -37s28.667 -34.167 38 -55.5s14 -43.666 14 -66.999c0 -24.667 -4.66699 -47.334 -14 -68.001s-22 -38.834 -38 -54.501s-34.667 -28 -56 -37s-44.333 -13.5 -69 -13.5z" />
    <glyph glyph-name="quotedbl" unicode="&#x22;" horiz-adv-x="1063" 
d="M338 1459l8 34h326l-8 -34l-264 -615h-118zM790 1459l7 34h326l-7 -34l-265 -615h-117z" />
    <glyph glyph-name="numbersign" unicode="#" horiz-adv-x="1423" 
d="M392 359h-195v164h254l74 217h-253v164h310l118 340h124l-116 -340h239l117 340h124l-116 -340h195v-164h-254l-73 -217h252v-164h-311l-120 -349h-124l120 349h-241l-118 -349h-126zM817 521l76 221h-246l-76 -221h246z" />
    <glyph glyph-name="dollar" unicode="$" horiz-adv-x="1299" 
d="M551 -13l-19.9961 -0.00585938h-20c-52 0 -99.5 3.33301 -142.5 10s-81.833 15 -116.5 25s-65 20.667 -91 32s-47.667 21.666 -65 30.999l77 228h45c13.333 -12.667 34.166 -28.667 62.499 -48s59.666 -38.5 93.999 -57.5s69.833 -35.667 106.5 -50
s70.334 -22.166 101.001 -23.499l66 312l-83 17.5c-26.667 5.66699 -53.334 12.167 -80.001 19.5c-39.333 11.333 -72.833 25.833 -100.5 43.5s-50.167 37.5 -67.5 59.5s-29.833 45.167 -37.5 69.5s-11.5 48.5 -11.5 72.5c0 61.333 14.667 114.333 44 159
s68.166 82 116.499 112s103.666 53.5 165.999 70.5s126.833 28.5 193.5 34.5l30 139h108l-29 -135c48 -1.33301 92.167 -6.16602 132.5 -14.499s76.333 -17.666 108 -27.999s59 -20.666 82 -30.999l55.5 -25.5l-78 -225h-43l-49.5 40
c-21 16.667 -44.833 33.834 -71.5 51.501s-54.667 34 -84 49s-57.666 25.833 -84.999 32.5l-60 -286c11.333 -2.66699 22.833 -5.16699 34.5 -7.5s23.5 -4.83301 35.5 -7.5s23.833 -5.16699 35.5 -7.5s23.5 -4.83301 35.5 -7.5c50 -10 91.167 -23.667 123.5 -41
s58 -36.666 77 -57.999s32.333 -44.666 40 -69.999s11.5 -51 11.5 -77c0 -36.667 -7.16699 -70.834 -21.5 -102.501s-34 -61 -59 -88s-54.667 -51.333 -89 -73s-71.333 -41 -111 -58s-81.334 -31.667 -125.001 -44s-87.167 -22.166 -130.5 -29.499l-54 -255h-108z
M757.004 958.994c-27.333 -2.66699 -53 -7 -77 -13s-44.833 -14.5 -62.5 -25.5s-31.667 -24.667 -42 -41s-15.833 -35.833 -16.5 -58.5c0 -19.333 3.16699 -36 9.5 -50s15.5 -26.333 27.5 -37s26.833 -19.667 44.5 -27s37.5 -13.333 59.5 -18zM691.004 140.994
c64.667 8.66699 114.332 26.333 148.999 53s52 62.667 52 108c0 18 -2.83301 33.667 -8.5 47s-14.5 25 -26.5 35s-26.667 18.667 -44 26s-37.666 13.333 -60.999 18z" />
    <glyph glyph-name="percent" unicode="%" horiz-adv-x="2259" 
d="M468 587c34.667 0 65.499 11.9971 92.499 35.9971s50.667 55 71 93s37.333 80.5 51 127.5s24.667 93.667 33 140s14.5 89.833 18.5 130.5s6 73.334 6 98.001c0 19.333 -1 40.833 -3 64.5s-7.16699 45.667 -15.5 66s-20.166 37.166 -35.499 50.499s-35.666 20 -60.999 20
c-34.667 0 -65.5 -12 -92.5 -36s-50.667 -55 -71 -93s-37.333 -80.667 -51 -128s-24.834 -94.166 -33.501 -140.499s-15 -89.833 -19 -130.5s-6 -73.334 -6 -98.001c0 -19.333 1 -40.666 3 -63.999s7.16699 -45.166 15.5 -65.499s20 -37.166 35 -50.499s35.833 -20 62.5 -20
zM444.999 491.997c-57.333 0 -106.331 8.66699 -146.998 26s-74.334 41.333 -101.001 72s-46.334 67.334 -59.001 110.001s-19 89.667 -19 141c0 49.333 4.83301 100 14.5 152s24.167 102.667 43.5 152s43.5 96.166 72.5 140.499s63.167 82.833 102.5 115.5
s83.5 58.667 132.5 78s103.167 29 162.5 29c57.333 0 106.666 -8.5 147.999 -25.5s75.166 -40.833 101.499 -71.5s45.833 -67.5 58.5 -110.5s19 -90.167 19 -141.5c0 -50 -4.83301 -101.167 -14.5 -153.5s-24.167 -103.166 -43.5 -152.499s-43.5 -95.833 -72.5 -139.5
s-63.167 -81.834 -102.5 -114.501s-83.666 -58.667 -132.999 -78s-103.666 -29 -162.999 -29zM1705 1475h147l-1254 -1575h-148zM1686 -24.0029c34.667 0 65.499 11.9971 92.499 35.9971s50.667 55 71 93s37.333 80.5 51 127.5s24.667 93.667 33 140s14.5 89.833 18.5 130.5
s6 73.334 6 98.001c0 19.333 -1 40.833 -3 64.5s-7.16699 45.667 -15.5 66s-20.166 37.166 -35.499 50.499s-35.666 20 -60.999 20c-34.667 0 -65.5 -12 -92.5 -36s-50.667 -55 -71 -93s-37.333 -80.667 -51 -128s-24.834 -94.166 -33.501 -140.499s-15 -89.833 -19 -130.5
s-6 -73.334 -6 -98.001c0 -19.333 1 -40.666 3 -63.999s7.16699 -45.166 15.5 -65.499s20 -37.166 35 -50.499s35.833 -20 62.5 -20zM1663 -119.006c-57.333 0 -106.332 8.66699 -146.999 26s-74.334 41.333 -101.001 72s-46.334 67.334 -59.001 110.001s-19 89.667 -19 141
c0 49.333 4.83301 100 14.5 152s24.167 102.667 43.5 152s43.5 96.166 72.5 140.499s63.167 82.833 102.5 115.5s83.5 58.667 132.5 78s103.167 29 162.5 29c57.333 0 106.666 -8.5 147.999 -25.5s75.166 -40.833 101.5 -71.5c26.333 -30.667 45.833 -67.5 58.5 -110.5
s19 -90.167 19 -141.5c0 -50 -4.83301 -101.167 -14.5 -153.5s-24.167 -103.166 -43.5 -152.499s-43.5 -95.833 -72.5 -139.5s-63.167 -81.834 -102.5 -114.501s-83.666 -58.667 -132.999 -78s-103.666 -29 -162.999 -29z" />
    <glyph glyph-name="ampersand" unicode="&#x26;" horiz-adv-x="1552" 
d="M413 -31c-50.667 0 -98.6641 7.16992 -143.997 21.5029s-85 35.5 -119 63.5s-61.167 62.333 -81.5 103s-30.5 87 -30.5 139c0 28.667 3.5 58.5 10.5 89.5s16.667 61.333 29 91s27.333 57.667 45 84s36.834 49.166 57.501 68.499l245 132
c-21.333 23.333 -41.166 46.833 -59.499 70.5s-34.166 47.5 -47.499 71.5s-23.833 48.167 -31.5 72.5s-11.5 49.5 -11.5 75.5c0 42 7 80.333 21 115s33 66 57 94s52 52.833 84 74.5s66.5 39.5 103.5 53.5s75.167 24.833 114.5 32.5s78 11.5 116 11.5
c48 0 95.167 -5.5 141.5 -16.5s87.833 -27.5 124.5 -49.5s66.167 -49.833 88.5 -83.5s33.5 -73.167 33.5 -118.5c0 -22 -2.5 -45.167 -7.5 -69.5s-12.5 -48.333 -22.5 -72s-22.5 -46.334 -37.5 -68.001s-32.5 -41.834 -52.5 -60.501l-277 -130l289 -339
c12.667 14.667 26 31 40 49s27.667 36.5 41 55.5s25.666 38.167 36.999 57.5s21.333 37.666 30 54.999c3.33301 6.66699 6.16602 13.167 8.49902 19.5s4.16602 12.5 5.49902 18.5c-4 4 -9 7.33301 -15 10s-12 5 -18 7l-130 45l17 70h533l-17 -70l-123 -42
c-8 -2 -15.667 -5.5 -23 -10.5s-14.333 -10.667 -21 -17s-13.167 -13 -19.5 -20s-11.833 -13.5 -16.5 -19.5c-38.667 -50 -79.334 -99 -122.001 -147s-87.667 -95.333 -135 -142l132 -150c15.333 -17.333 30.833 -32.666 46.5 -45.999s30.167 -22 43.5 -26l152 -51l-16 -71
h-309c-32 0 -58.167 2.16699 -78.5 6.5s-37.833 11.5 -52.5 21.5s-28.834 23 -42.501 39l-48.5 59l-37 45c-40.667 -32 -80.334 -60.5 -119.001 -85.5s-78 -46.167 -118 -63.5s-81.5 -30.5 -124.5 -39.5s-89.167 -13.5 -138.5 -13.5zM557.003 161.003
c31.333 0 59.5 1.83594 84.5 5.50293s49 9.5 72 17.5s45 17.5 66 28.5s43.167 24.167 66.5 39.5l-358 432c-20.667 -18 -39.667 -37.667 -57 -59s-32.333 -44.833 -45 -70.5s-22.667 -52.834 -30 -81.501s-11 -59.334 -11 -92.001c0 -32 5.16699 -61.5 15.5 -88.5
s24.833 -50.333 43.5 -70s41 -34.834 67 -45.501s54.667 -16 86 -16zM696.003 845.006c29.333 18 55.999 37.667 79.999 59s44.333 45 61 71s29.5 54.167 38.5 84.5s13.5 63.166 13.5 98.499c0 20.667 -2.83301 40.167 -8.5 58.5s-14.167 34.333 -25.5 48
s-25.166 24.5 -41.499 32.5s-35.166 12 -56.499 12c-28.667 0 -54.834 -6 -78.501 -18s-44 -28 -61 -48s-30.167 -42.833 -39.5 -68.5s-14 -52.5 -14 -80.5c0 -22.667 3.5 -44.667 10.5 -66s16.5 -42.166 28.5 -62.499s26 -40.5 42 -60.5s33 -40 51 -60z" />
    <glyph glyph-name="quotesingle" unicode="'" horiz-adv-x="612" 
d="M338 1459l8 34h326l-8 -34l-264 -615h-118z" />
    <glyph glyph-name="parenleft" unicode="(" horiz-adv-x="913" 
d="M627 -345c-90 12 -166.835 37.166 -230.502 75.499s-115.834 86.5 -156.501 144.5s-70.167 124.5 -88.5 199.5s-27.5 154.833 -27.5 239.5c0 95.333 8.5 189 25.5 281s42.667 180 77 264s77 162.333 128 235s110.167 137.167 177.5 193.5s143.333 103.166 228 140.499
s177 62.333 277 75l-25 -112c-58 -11.333 -111.333 -31 -160 -59s-92.834 -62.667 -132.501 -104s-75.167 -87.666 -106.5 -138.999s-58.666 -105.833 -81.999 -163.5s-43.166 -117.334 -59.499 -179.001s-29.666 -123 -39.999 -184s-17.833 -120.667 -22.5 -179
s-7 -113.166 -7 -164.499c0 -30 1.16699 -61.167 3.5 -93.5s6.83301 -64.166 13.5 -95.499s15.834 -61.5 27.501 -90.5s26.834 -55.167 45.501 -78.5s41.167 -43.333 67.5 -60s57.166 -28.667 92.499 -36l-25 -110v0z" />
    <glyph glyph-name="parenright" unicode=")" horiz-adv-x="913" 
d="M-78 -235c78 14 147.331 43.334 207.998 88.001s113.5 99 158.5 163s83 135.333 114 214s56 159 75 241s32.667 163.333 41 244s12.5 154.667 12.5 222c0 30.667 -1.16699 62.167 -3.5 94.5s-6.83301 64 -13.5 95s-15.834 60.667 -27.501 89s-26.667 54.166 -45 77.499
s-40.666 43.5 -66.999 60.5s-57.166 29.5 -92.499 37.5l25 112c90 -13.333 166.833 -39.333 230.5 -78s115.667 -87 156 -145s69.666 -124.5 87.999 -199.5s27.5 -155.167 27.5 -240.5c0 -94.667 -8.5 -188.167 -25.5 -280.5s-42.333 -180.5 -76 -264.5
s-76 -162.333 -127 -235s-110.167 -137 -177.5 -193s-143.166 -102.333 -227.499 -139s-177.166 -61 -278.499 -73z" />
    <glyph glyph-name="asterisk" unicode="*" horiz-adv-x="1066" 
d="M342 821l10 10l212 219l-5 15l-300 49l-14 4l61 190l14 -4l273 -135l12 8l-46 302v14h200v-14l-44 -302l12 -8l273 135l14 6l61 -190l-14 -4l-300 -51l-4 -15l214 -217l9 -12l-162 -116l-9 11l-141 270h-15l-140 -271l-9 -11z" />
    <glyph glyph-name="plus" unicode="+" horiz-adv-x="1423" 
d="M648 491h-441v166h441v441h168v-441h442v-166h-442v-441h-168v441z" />
    <glyph glyph-name="comma" unicode="," horiz-adv-x="629" 
d="M-31 -289c27.333 16.667 54.6699 35.832 82.0029 57.499s53.166 44.5 77.499 68.5s46.166 49.167 65.499 75.5s34.333 52.5 45 78.5c-18 8 -36.167 16.5 -54.5 25.5s-34.833 19.833 -49.5 32.5s-26.667 27.5 -36 44.5s-14 37.5 -14 61.5s4.66699 46.5 14 67.5
s21.833 39.5 37.5 55.5s34 28.667 55 38s43.5 14 67.5 14c30.667 0 57.334 -5.16699 80.001 -15.5s41.5 -24.333 56.5 -42s26.5 -38.5 34.5 -62.5s12 -49.667 12 -77c0 -57.333 -12.833 -110.833 -38.5 -160.5s-58.834 -95.667 -99.501 -138
s-85.834 -80.666 -135.501 -114.999s-98.167 -64.5 -145.5 -90.5z" />
    <glyph glyph-name="hyphen" unicode="-" horiz-adv-x="764" 
d="M118 658h584l-51 -210h-583z" />
    <glyph glyph-name="hyphen" unicode="&#x2010;" horiz-adv-x="764" 
d="M118 658h584l-51 -210h-583z" />
    <glyph glyph-name="hyphen" unicode="&#xad;" horiz-adv-x="764" 
d="M118 658h584l-51 -210h-583z" />
    <glyph glyph-name="period" unicode="." horiz-adv-x="629" 
d="M260 -24c-25.333 0 -48.833 4.83203 -70.5 14.499s-40.5 22.5 -56.5 38.5s-28.833 34.667 -38.5 56s-14.5 44.333 -14.5 69c0 24 4.83301 47 14.5 69s22.5 41 38.5 57s34.833 28.667 56.5 38s45.167 14 70.5 14c24 0 47 -4.66699 69 -14s41 -22 57 -38s28.667 -35 38 -57
s14 -45 14 -69c0 -25.333 -4.66699 -48.666 -14 -69.999s-22 -40 -38 -56s-35 -28.667 -57 -38s-45 -14 -69 -14z" />
    <glyph glyph-name="slash" unicode="/" horiz-adv-x="986" 
d="M902 1511h185l-1118 -1931h-179z" />
    <glyph glyph-name="zero" unicode="0" horiz-adv-x="1252" 
d="M568 95c40.667 0 76.334 10.1641 107.001 30.4971s57.334 47 80.001 80s41.667 70.333 57 112s27.666 83.667 36.999 126s16 83 20 122s6.33301 72.167 7 99.5c0.666992 30 -0.833008 62.667 -4.5 98s-11.834 68.333 -24.501 99s-31.667 56.334 -57 77.001
s-59.666 31 -102.999 31c-40.667 0 -76.5 -10.833 -107.5 -32.5s-58.167 -49.667 -81.5 -84s-42.5 -73.166 -57.5 -116.499s-27.333 -87 -37 -131s-16.334 -86 -20.001 -126s-5.5 -74.333 -5.5 -103c0 -29.333 2.16699 -60.333 6.5 -93s13.333 -63.167 27 -91.5
s33 -51.666 58 -69.999s57.833 -27.5 98.5 -27.5zM547 -28.0029c-71.333 0 -136.169 9.99902 -194.502 29.999s-108.666 48.833 -150.999 86.5s-75.166 83.834 -98.499 138.501s-35 117.334 -35 188.001c0 92 15.5 179 46.5 261s74.5 153.667 130.5 215
s123.667 110.166 203 146.499s167 54.5 263 54.5c72 0 137.5 -10 196.5 -30s109.167 -49 150.5 -87s73.333 -84.833 96 -140.5s34 -119.167 34 -190.5c0 -91.333 -15.667 -177.833 -47 -259.5s-75.166 -153 -131.499 -214s-123.833 -109.333 -202.5 -145
s-165.334 -53.5 -260.001 -53.5z" />
    <glyph glyph-name="one" unicode="1" horiz-adv-x="951" 
d="M66 69l190 48c14.667 3.33301 26.5 9.5 35.5 18.5s15.167 20.833 18.5 35.5l127 571l36 137h-6l-286 -58l17 80l433 185h178l-19.5 -73.5l-21 -83.5l-20.5 -85.5l-18 -77.5l-132 -594c-3.33301 -15.333 -2.5 -27.5 2.5 -36.5s13.5 -15.167 25.5 -18.5l179 -48l-15 -69
h-739z" />
    <glyph glyph-name="two" unicode="2" horiz-adv-x="1186" 
d="M18 157l148.499 85.4971l135.5 78.5l120.5 74.5c37.667 23.667 72.334 47.167 104.001 70.5s60.167 46.833 85.5 70.5s47.166 48 65.499 73s33 51.333 44 79s18.167 57.167 21.5 88.5c2.66699 25.333 2.33398 49.5 -0.999023 72.5s-10 43.333 -20 61
s-23.667 31.667 -41 42s-38.666 15.5 -63.999 15.5c-21.333 0 -43.5 -2.83301 -66.5 -8.5s-46.5 -13.5 -70.5 -23.5s-48.167 -21.333 -72.5 -34s-48.166 -26.167 -71.499 -40.5l-68.5 -44l-62.5 -43.5h-45l19 221l89.5 37.5c33 13.667 68.833 26.5 107.5 38.5
s79.834 22 123.501 30s89.5 12 137.5 12c35.333 0 71 -2.33301 107 -7s70.333 -12.167 103 -22.5s62.834 -23.5 90.501 -39.5s51.167 -35.333 70.5 -58s33.666 -48.834 42.999 -78.501s11.666 -63.167 6.99902 -100.5c-4 -36 -12.167 -69.833 -24.5 -101.5
s-28.333 -61.167 -48 -88.5s-42.667 -53.166 -69 -77.499s-55.333 -47.166 -87 -68.499s-65.834 -42 -102.501 -62s-75 -39.333 -115 -58c-42.667 -20.667 -87 -41 -133 -61l-143 -62l33 -4c19.333 0.666992 39.833 1.83398 61.5 3.50098s42.167 2.83398 61.5 3.50098h84.5
h89h89h84.5c20 0 36.167 5 48.5 15s22.166 21.667 29.499 35l67 119h88l-109 -400h-981z" />
    <glyph glyph-name="three" unicode="3" horiz-adv-x="1163" 
d="M311 -389c-43.333 0 -84.3301 2.66113 -122.997 7.99414s-75.5 12.333 -110.5 21s-68.167 19.167 -99.5 31.5s-60.666 25.833 -87.999 40.5l77 225h47c20.667 -18.667 44.5 -38.834 71.5 -60.501s56 -41.667 87 -60s63.5 -33.666 97.5 -45.999s68 -18.5 102 -18.5
c50.667 0 95.667 9.5 135 28.5s72.5 44.5 99.5 76.5s47.5 68.833 61.5 110.5s21.333 85.167 22 130.5c0 39.333 -7 72.5 -21 99.5s-33.333 48.667 -58 65s-53.834 28 -87.501 35s-69.834 10.5 -108.501 10.5l-134 1l36 161h105c51.333 0 98.166 7 140.499 21
s78.333 34.667 108 62s52.834 61 69.501 101s25 86 25 138c0 22 -2.83301 42.667 -8.5 62s-14.834 36.166 -27.501 50.499s-28.667 25.5 -48 33.5s-42.666 12 -69.999 12c-31.333 0 -65.666 -7 -102.999 -21s-74.333 -30.833 -111 -50.5s-71.5 -40 -104.5 -61l-83.5 -52.5
h-45l19 227c29.333 12.667 59.833 24.834 91.5 36.501s65.334 22.334 101.001 32.001s73.167 17.334 112.5 23.001s81 8.5 125 8.5c34 0 69 -2.16699 105 -6.5s71 -11.333 105 -21s66.333 -22.167 97 -37.5s57.334 -33.666 80.001 -54.999s40.667 -45.833 54 -73.5
s19.666 -59.167 18.999 -94.5c0 -33.333 -5 -65.166 -15 -95.499s-24.5 -58.833 -43.5 -85.5s-41.667 -51.5 -68 -74.5s-55.5 -43.667 -87.5 -62s-66.667 -34.666 -104 -48.999s-76 -26.166 -116 -35.499v-5c46 -2.66699 90.667 -10.167 134 -22.5
s81.666 -30.166 114.999 -53.499s60.166 -53 80.499 -89s30.5 -79.333 30.5 -130c-0.666992 -55.333 -11.167 -106 -31.5 -152s-47.833 -87.333 -82.5 -124s-74.834 -68.334 -120.501 -95.001s-93.834 -49 -144.501 -67s-102.5 -31.333 -155.5 -40s-104.167 -13 -153.5 -13z
" />
    <glyph glyph-name="four" unicode="4" horiz-adv-x="1225" 
d="M353 -298l113.999 43.001c14.667 5.33301 26.334 12 35.001 20s14.667 19 18 33l52 236h-637l36 160l913 889h209l-197 -888h236l-36 -161h-236l-52 -236c-3.33301 -14.667 -2.5 -25.834 2.5 -33.501s13.833 -14.167 26.5 -19.5l101 -43l-15 -68h-585zM147.999 189.001
l128 6h332l88 396l43 172h-6l-583 -568z" />
    <glyph glyph-name="five" unicode="5" horiz-adv-x="1133" 
d="M309 -389c-45.333 0 -86.8301 2.50098 -124.497 7.50098s-73.167 12 -106.5 21s-65 19.5 -95 31.5s-59.667 25.333 -89 40l79 230h46c18.667 -18.667 41.167 -39.167 67.5 -61.5s54.666 -43.166 84.999 -62.499s62.166 -35.333 95.499 -48s66.333 -19 99 -19
c54 0 100.667 10.833 140 32.5s72.166 49.667 98.499 84s45.833 73.166 58.5 116.499s19 87 19 131c0.666992 44 -6.83301 82 -22.5 114s-37.167 58.333 -64.5 79s-59.333 36 -96 46s-75.667 15 -117 15c-20.667 0 -42 -1.5 -64 -4.5s-43.667 -6.83301 -65 -11.5
s-41.833 -9.83398 -61.5 -15.501s-37.167 -11.167 -52.5 -16.5l-46 9l230 729h805l-53 -233h-682l-92 -301c32.667 10.667 67.5 19.334 104.5 26.001s76.167 10 117.5 10c60.667 0 118.667 -7.66699 174 -23s104.333 -38.666 147 -69.999s76.5 -70.833 101.5 -118.5
s37.5 -104.167 37.5 -169.5c0 -58.667 -9 -113.5 -27 -164.5s-42.667 -97.5 -74 -139.5s-68.333 -79.333 -111 -112s-89 -60.334 -139 -83.001s-102.5 -39.834 -157.5 -51.501s-110.167 -17.5 -165.5 -17.5z" />
    <glyph glyph-name="six" unicode="6" horiz-adv-x="1241" 
d="M544 -30c-75.333 0 -141.163 11.8262 -197.496 35.4932s-103.166 56.834 -140.499 99.501s-65.166 93.834 -83.499 153.501s-27.5 125.834 -27.5 198.501c0 78.667 8 157.5 24 236.5s39.833 154.833 71.5 227.5s71.167 140.334 118.5 203.001
s102.666 117.667 165.999 165s132.166 85.166 206.499 113.499s153.166 42.5 236.499 42.5c30 0 58.5 -1.66699 85.5 -5s53.5 -7.83301 79.5 -13.5s51.667 -12.5 77 -20.5l80 -26l-78 -217h-48c-26.667 16.667 -53.334 32.5 -80.001 47.5s-53.834 28.5 -81.501 40.5
s-56.5 21.5 -86.5 28.5s-61.333 10.5 -94 10.5s-61.334 -7.16699 -86.001 -21.5s-48 -33.166 -70 -56.499c-14.667 -16 -28.834 -35.5 -42.501 -58.5s-26.5 -47.833 -38.5 -74.5s-23.167 -54.5 -33.5 -83.5s-19.833 -57.167 -28.5 -84.5s-16.167 -53.166 -22.5 -77.499
s-11.5 -45.166 -15.5 -62.499l-15 -50c26 28.667 53 54.834 81 78.501s57.5 43.834 88.5 60.501s63.833 29.5 98.5 38.5s71.667 13.5 111 13.5c54.667 0 104 -9.66699 148 -29s81.5 -46 112.5 -80s54.833 -74 71.5 -120s25 -95.333 25 -148
c0 -56.667 -7.5 -110.167 -22.5 -160.5s-36.167 -96.5 -63.5 -138.5s-59.833 -79.333 -97.5 -112s-79.167 -60.334 -124.5 -83.001s-93.666 -40.167 -144.999 -52.5s-104.333 -18.5 -159 -18.5zM582.003 93.9932c34 0 64.168 6.33301 90.501 19s49.5 29.334 69.5 50.001
s37 44.667 51 72s25.5 56 34.5 86s15.5 60.333 19.5 91s6 59.667 6 87c0 32.667 -3.66699 63.667 -11 93s-19 54.666 -35 75.999s-36.667 38.5 -62 51.5s-56.333 19.5 -93 19.5c-22 0 -44 -2.66699 -66 -8s-43.5 -12.5 -64.5 -21.5s-41 -19.833 -60 -32.5
s-36.167 -26.334 -51.5 -41.001c-8.66699 -38.667 -15.334 -77.5 -20.001 -116.5s-7 -78.167 -7 -117.5c0 -32 3 -66 9 -102s16.5 -69.167 31.5 -99.5s35.333 -55.666 61 -75.999s58.167 -30.5 97.5 -30.5z" />
    <glyph glyph-name="seven" unicode="7" horiz-adv-x="1106" 
d="M934 820l-23.001 4l-105 -5h-469c-16.667 0 -31.167 -4.33301 -43.5 -13s-23.166 -21.667 -32.499 -39l-97 -193h-83l107 484h1014l-32 -139l-932 -1321h-239z" />
    <glyph glyph-name="eight" unicode="8" horiz-adv-x="1278" 
d="M542 -32c-34.667 0 -70.3311 2.5 -106.998 7.5s-72.5 12.833 -107.5 23.5s-68.167 24.5 -99.5 41.5s-58.666 38 -81.999 63s-41.833 53.833 -55.5 86.5s-20.5 70 -20.5 112c0 56.667 11.167 106.334 33.5 149.001s51.833 80 88.5 112s78.167 59.167 124.5 81.5
s93.5 40.833 141.5 55.5c-30.667 16 -59.167 34.167 -85.5 54.5s-49.333 42.833 -69 67.5s-35 51.834 -46 81.501s-16.5 62.834 -16.5 99.501c0 49.333 8 94.5 24 135.5s38.167 78.167 66.5 111.5s61.166 62.5 98.499 87.5s77.333 45.833 120 62.5s86.5 29.167 131.5 37.5
s89.167 12.5 132.5 12.5c31.333 0 63.666 -2.33301 96.999 -7s65.833 -12.167 97.5 -22.5s61.5 -23.333 89.5 -39s52.667 -34.834 74 -57.501s38.333 -48.834 51 -78.501s19 -63.5 19 -101.5c0 -49.333 -9.16699 -93.666 -27.5 -132.999s-42.5 -74.333 -72.5 -105
s-64.333 -57.167 -103 -79.5s-79.334 -41.5 -122.001 -57.5c36 -14 69.667 -30.833 101 -50.5s58.5 -42.5 81.5 -68.5s41.167 -55.333 54.5 -88s20 -69.334 20 -110.001c0 -54 -9.16699 -103.5 -27.5 -148.5s-43 -85.333 -74 -121s-67.333 -66.834 -109 -93.501
s-86 -49 -133 -67s-95.167 -31.5 -144.5 -40.5s-97.333 -13.5 -144 -13.5zM586.003 92c39.333 0 76.667 6.83398 112 20.501s66.333 33 93 58s48 54.667 64 89s24 71.5 24 111.5c0 35.333 -6.66699 65.666 -20 90.999s-30.833 47.5 -52.5 66.5s-46.5 35.667 -74.5 50
s-56.333 27.5 -85 39.5l-52 21l-50 20c-26 -22 -49.833 -45.5 -71.5 -70.5s-40.334 -51.833 -56.001 -80.5s-27.834 -59.167 -36.501 -91.5s-13 -65.833 -13 -100.5c0 -34 5 -64.833 15 -92.5s24.333 -51.167 43 -70.5s41.334 -34.333 68.001 -45s57.334 -16 92.001 -16z
M830.004 808.001c34.667 46.667 63.334 97.833 86.001 153.5s34 113.5 34 173.5c0 27.333 -3.66699 52.666 -11 75.999s-18.333 43.5 -33 60.5s-32.834 30.167 -54.501 39.5s-47.167 14 -76.5 14c-34 0 -65.667 -6.5 -95 -19.5s-54.666 -30.667 -75.999 -53
s-38.166 -48.666 -50.499 -78.999s-18.5 -62.166 -18.5 -95.499c0 -28 4.16699 -52.833 12.5 -74.5s19.666 -40.834 33.999 -57.501s31.166 -31.5 50.499 -44.5s39.833 -24.833 61.5 -35.5s44.167 -20.667 67.5 -30z" />
    <glyph glyph-name="nine" unicode="9" horiz-adv-x="1242" 
d="M324 -388c-31.333 0 -61.502 1.66895 -90.502 5.00195s-57 8 -84 14s-53 13 -78 21s-49.167 16.333 -72.5 25l78 217h48l72.5 -43c25.667 -14.667 53 -28.334 82 -41.001s59.333 -23.167 91 -31.5s65.167 -12.5 100.5 -12.5c31.333 0 59.166 7.16699 83.499 21.5
s47.833 32.833 70.5 55.5c14.667 15.333 28.667 34.333 42 57s26 47.5 38 74.5s23.333 55 34 84s20.334 57.333 29.001 85s16.334 54 23.001 79l18 65.5l15 50c-29.333 -33.333 -59 -62 -89 -86s-60.667 -43.833 -92 -59.5s-63.333 -27.167 -96 -34.5
s-66.334 -11 -101.001 -11c-53.333 0 -102.166 9.33301 -146.499 28s-82.333 44.834 -114 78.501s-56.167 73.5 -73.5 119.5s-26 96.667 -26 152c0.666992 81.333 16.834 156.666 48.501 225.999s75.167 129.333 130.5 180s120.166 90.167 194.499 118.5
s154.5 42.5 240.5 42.5c77.333 0 144.333 -12.333 201 -37s103.5 -58.834 140.5 -102.501s64.333 -95.5 82 -155.5s26.167 -125.667 25.5 -197c-0.666992 -80 -9.33398 -160.167 -26.001 -240.5s-41.5 -157 -74.5 -230s-73.667 -141 -122 -204
s-104.5 -117.833 -168.5 -164.5c-63.333 -45.333 -131.166 -81.5 -203.499 -108.5s-149.166 -40.5 -230.499 -40.5zM589.998 318.002c22 0 44.335 2.66309 67.002 7.99609s44.334 12.5 65.001 21.5s40.5 19.833 59.5 32.5s36.167 26.334 51.5 41.001
c8.66699 38.667 15.334 77.667 20.001 117s7.33398 78 8.00098 116c0 37.333 -3.5 74.5 -10.5 111.5s-18.5 70.333 -34.5 100s-36.667 53.834 -62 72.501s-56.333 28 -93 28c-31.333 0 -59.833 -5.83301 -85.5 -17.5s-48.5 -27.667 -68.5 -48s-37.167 -44 -51.5 -71
s-26.333 -55.5 -36 -85.5s-16.834 -61 -21.501 -93s-7 -63 -7 -93c-0.666992 -34 2.66602 -65.667 9.99902 -95s19.166 -54.666 35.499 -75.999s37.166 -38.166 62.499 -50.499s55.666 -18.5 90.999 -18.5z" />
    <glyph glyph-name="colon" unicode=":" horiz-adv-x="735" 
d="M288 -24c-24.667 0 -47.834 4.66797 -69.501 14.001s-40.5 21.833 -56.5 37.5s-28.5 34.167 -37.5 55.5s-13.5 44.333 -13.5 69s4.5 47.834 13.5 69.501s21.5 40.5 37.5 56.5s34.833 28.5 56.5 37.5s44.834 13.5 69.501 13.5c24 0 47 -4.5 69 -13.5s41 -21.5 57 -37.5
s28.667 -34.833 38 -56.5s14 -44.834 14 -69.501c0 -24 -4.66699 -46.667 -14 -68s-22 -39.833 -38 -55.5s-35 -28.334 -57 -38.001s-45 -14.5 -69 -14.5zM439 663.001c-24.667 0 -47.667 4.5 -69 13.5s-40 21.5 -56 37.5s-28.667 34.667 -38 56s-14 45 -14 71
c0 24 4.66699 46.667 14 68s22 39.833 38 55.5s34.667 28.167 56 37.5s44.333 14 69 14s48 -4.66699 70 -14s41 -21.833 57 -37.5s28.667 -34.167 38 -55.5s14 -44 14 -68c0 -26 -4.66699 -49.667 -14 -71s-22 -40 -38 -56s-35 -28.5 -57 -37.5s-45.333 -13.5 -70 -13.5z
" />
    <glyph glyph-name="semicolon" unicode=";" horiz-adv-x="735" 
d="M-4 -289c26.667 16.667 53.668 35.832 81.001 57.499s53.166 44.5 77.499 68.5s46.166 49.167 65.499 75.5s34.333 52.5 45 78.5c-18 8 -36.167 16.5 -54.5 25.5s-34.833 19.833 -49.5 32.5s-26.5 27.5 -35.5 44.5s-13.5 37.5 -13.5 61.5s4.5 46.5 13.5 67.5
s21.333 39.5 37 55.5s34 28.667 55 38s43.5 14 67.5 14c30.667 0 57.334 -5.16699 80.001 -15.5s41.667 -24.333 57 -42s26.833 -38.5 34.5 -62.5s11.5 -49.667 11.5 -77c0 -57.333 -12.833 -110.833 -38.5 -160.5s-58.667 -95.667 -99 -138s-85.333 -80.666 -135 -114.999
s-98.5 -64.5 -146.5 -90.5zM439.001 662.998c-24.667 0 -47.667 4.5 -69 13.5s-40 21.5 -56 37.5s-28.667 34.667 -38 56s-14 45 -14 71c0 24 4.66699 46.667 14 68s22 39.833 38 55.5s34.667 28.167 56 37.5s44.333 14 69 14s48 -4.66699 70 -14s41 -21.833 57 -37.5
s28.667 -34.167 38 -55.5s14 -44 14 -68c0 -26 -4.66699 -49.667 -14 -71s-22 -40 -38 -56s-35 -28.5 -57 -37.5s-45.333 -13.5 -70 -13.5z" />
    <glyph glyph-name="less" unicode="&#x3c;" horiz-adv-x="1423" 
d="M256 496v154l944 492v-194l-735 -374l735 -374v-194z" />
    <glyph glyph-name="equal" unicode="=" horiz-adv-x="1423" 
d="M226 459h1011v-166h-1011v166zM226 854h1011v-166h-1011v166z" />
    <glyph glyph-name="greater" unicode="&#x3e;" horiz-adv-x="1423" 
d="M263 200l736 374l-736 374v194l944 -492v-154l-944 -490v194z" />
    <glyph glyph-name="question" unicode="?" horiz-adv-x="1130" 
d="M420 763c38 3.33301 74.833 9.16699 110.5 17.5s69.5 19.666 101.5 33.999s61.667 31.666 89 51.999s50.666 44 69.999 71s34.5 57.667 45.5 92s16.5 72.5 16.5 114.5c0 23.333 -2.83301 44.833 -8.5 64.5s-14.167 36.5 -25.5 50.5s-26.166 25 -44.499 33
s-40.166 12 -65.499 12c-30.667 0 -62.334 -6 -95.001 -18s-65.167 -26.667 -97.5 -44s-63.833 -36 -94.5 -56l-83 -54h-44l17 221c64 26 128.833 47.667 194.5 65s133.167 26 202.5 26c51.333 0 102.5 -5.83301 153.5 -17.5s97 -30.667 138 -57
s74.333 -60.166 100 -101.499s38.5 -91.666 38.5 -150.999c0 -52 -7.83301 -100.5 -23.5 -145.5s-37.167 -86 -64.5 -123s-59.5 -70.167 -96.5 -99.5s-76.833 -55 -119.5 -77s-87.167 -40 -133.5 -54s-92.5 -24.333 -138.5 -31l-54 -156h-136zM407 -23.999
c-25.333 0 -48.6641 4.5 -69.9971 13.5s-40 21.167 -56 36.5s-28.833 33.5 -38.5 54.5s-14.5 43.833 -14.5 68.5c0 24 4.66699 46.667 14 68s22.166 39.833 38.499 55.5s35.166 27.834 56.499 36.501s44.666 13 69.999 13c24 0 46.833 -4.5 68.5 -13.5
s40.5 -21.333 56.5 -37s28.667 -34.167 38 -55.5s14 -43.666 14 -66.999c0 -24.667 -4.66699 -47.334 -14 -68.001s-22 -38.834 -38 -54.501s-34.833 -28 -56.5 -37s-44.5 -13.5 -68.5 -13.5z" />
    <glyph glyph-name="at" unicode="@" horiz-adv-x="2061" 
d="M939 -403c-111.333 0 -212.669 18.4961 -304.002 55.4961s-169.666 88.833 -234.999 155.5s-115.833 146.334 -151.5 239.001s-53.5 194 -53.5 304c0 97.333 11.833 190.666 35.5 279.999s57.334 172.5 101.001 249.5s96.334 147.167 158.001 210.5
s130.5 117.5 206.5 162.5s158.333 79.833 247 104.5s182 37 280 37c101.333 0 194.166 -14.5 278.499 -43.5s157 -71.167 218 -126.5s108.5 -123.666 142.5 -204.999s51 -174 51 -278c0 -58 -5.66699 -115 -17 -171s-28.333 -109.833 -51 -161.5s-51 -100.334 -85 -146.001
s-74 -86.834 -120 -123.501c-42.667 -34.667 -89.5 -62.167 -140.5 -82.5s-104.5 -30.5 -160.5 -30.5c-23.333 0 -46.166 3.66699 -68.499 11s-42.166 17.833 -59.499 31.5s-31.333 30.5 -42 50.5s-16 43 -16 69h-12c-13.333 -22.667 -29 -43.667 -47 -63
s-38 -36.166 -60 -50.499s-45.5 -25.833 -70.5 -34.5s-50.5 -13 -76.5 -13c-47.333 0 -88.5 8.5 -123.5 25.5s-64 40.167 -87 69.5s-40.167 63.5 -51.5 102.5s-17 80.5 -17 124.5c0 49.333 5.66699 98.833 17 148.5s27.666 97.334 48.999 143.001s47.5 88 78.5 127
s66.167 73 105.5 102s82.5 51.833 129.5 68.5s97.5 25 151.5 25c37.333 0 70.5 -7.83301 99.5 -23.5s54.167 -38.5 75.5 -68.5l42 86h222l-164 -568c-7.33301 -24 -13.666 -49.5 -18.999 -76.5s-8 -53.167 -8 -78.5c0 -20 6.16699 -34.833 18.5 -44.5
s27.833 -14.5 46.5 -14.5c41.333 0 77.5 8.66699 108.5 26s57.667 40.333 80 69s41 61.334 56 98.001s27.167 74.334 36.5 113.001s15.666 77.167 18.999 115.5s5 72.833 5 103.5c0 97.333 -13.333 182.833 -40 256.5s-65.5 135.167 -116.5 184.5s-114 86.333 -189 111
s-160.167 37 -255.5 37c-80 0 -154.833 -12.333 -224.5 -37s-133.167 -58.5 -190.5 -101.5s-108.5 -93.667 -153.5 -152s-83 -121.166 -114 -188.499s-54.667 -137.5 -71 -210.5s-24.5 -145.833 -24.5 -218.5c0 -97.333 13 -187.666 39 -270.999
s64.833 -155.666 116.5 -216.999s116.167 -109.333 193.5 -144s167.666 -52 270.999 -52c57.333 0 115.166 4.83301 173.499 14.5s115 24.167 170 43.5s108 43.666 159 72.999s97.833 63.666 140.5 102.999l53 -90c-52 -43.333 -108 -80.5 -168 -111.5
s-122.333 -56.333 -187 -76s-130.667 -34.167 -198 -43.5s-134.666 -14 -201.999 -14zM1003 194.996c31.333 0 57.333 6.33301 78 19s41 29.667 61 51l149 531c-20 8.66699 -41.333 15.334 -64 20.001s-44.667 7 -66 7c-35.333 0 -67 -6.83301 -95 -20.5
s-52.833 -32.334 -74.5 -56.001s-40.167 -50.667 -55.5 -81s-28 -62 -38 -95s-17.333 -66 -22 -99s-7 -63.833 -7 -92.5c0 -23.333 1.83301 -46 5.5 -68s10.667 -41.5 21 -58.5s24 -30.833 41 -41.5s39.167 -16 66.5 -16z" />
    <glyph glyph-name="A" unicode="A" horiz-adv-x="1391" 
d="M-138 71l109 47c11.333 4.66699 22.5 12.5 33.5 23.5s20.167 22.167 27.5 33.5l615 1013l171 233h171l210 -1250c2.66699 -14 8 -26.5 16 -37.5s19 -18.833 33 -23.5l105 -39l-16 -71h-605l15 71l163 54l-60 361h-466l-212 -360l162 -55l-16 -71h-472zM827 614l-57 332
l-20 145h-6l-283 -477h366z" />
    <glyph glyph-name="B" unicode="B" horiz-adv-x="1385" 
d="M-35 71l137.001 45.0029c13.333 4.66699 25.166 11.5 35.499 20.5s17.166 20.833 20.499 35.5l234 1057c3.33301 14.667 2 26.667 -4 36s-15 15.666 -27 18.999l-138 46l15 70h637c90.667 0 165.334 -7.66699 224.001 -23s104.834 -35.5 138.501 -60.5
s57.167 -53.833 70.5 -86.5s20 -66.667 20 -102c0 -50 -9.5 -95.833 -28.5 -137.5s-45.333 -78.667 -79 -111s-73.334 -60 -119.001 -83s-94.5 -41.167 -146.5 -54.5l-1 -3c53.333 -4.66699 102 -14.334 146 -29.001s81.333 -34.334 112 -59.001s54.5 -54 71.5 -88
s25.5 -72.333 25.5 -115c0 -57.333 -8.5 -108 -25.5 -152s-40.5 -82.667 -70.5 -116s-65.333 -61.5 -106 -84.5s-84 -41.5 -130 -55.5s-94 -24.167 -144 -30.5s-99.333 -9.5 -148 -9.5h-736zM643.001 130.003c111.333 0 195.166 26.668 251.499 80.001
s84.5 137.666 84.5 252.999c0 44.667 -9.16699 80 -27.5 106s-41.833 45.5 -70.5 58.5s-60.667 21.333 -96 25s-70.666 5.5 -105.999 5.5h-115l-117 -528h196zM654.001 776.004c53.333 0 101.502 4.99902 144.502 14.999s79.667 27 110 51s53.666 55.833 69.999 95.5
s24.5 88.834 24.5 147.501c0 38 -6.33301 69 -19 93s-29.834 42.833 -51.501 56.5s-47 23 -76 28s-59.833 7.5 -92.5 7.5h-64l-111 -494h65z" />
    <glyph glyph-name="C" unicode="C" horiz-adv-x="1294" 
d="M663 -29c-91.333 0 -172.83 14.0049 -244.497 42.0049s-132.167 68 -181.5 120s-87 114.667 -113 188s-39 155.333 -39 246c0 79.333 8.83301 155.666 26.5 228.999s43.334 142 77.001 206s74.5 122.333 122.5 175s102 97.667 162 135s125.5 66.333 196.5 87
s146.5 31 226.5 31c37.333 0 76.833 -2.66699 118.5 -8s82.667 -12 123 -20s78.166 -16.833 113.499 -26.5s65.666 -18.834 90.999 -27.501l-71 -357l-92 -1l-32 185c-2 10.667 -5.83301 19.5 -11.5 26.5s-12.5 12.5 -20.5 16.5c-17.333 10 -37.333 19.667 -60 29
s-46.834 17.666 -72.501 24.999s-51.5 13.166 -77.5 17.499s-50.333 6.5 -73 6.5c-58 0 -112.667 -18.167 -164 -54.5s-96.333 -86 -135 -149s-69.334 -136.667 -92.001 -221s-34 -174.5 -34 -270.5c0 -71.333 6.83301 -135.333 20.5 -192s35.167 -104.834 64.5 -144.501
s67.5 -70 114.5 -91s103.833 -31.5 170.5 -31.5c38.667 0 77.334 5.83301 116.001 17.5s75.667 26.167 111 43.5s68.5 36 99.5 56s57.833 38.333 80.5 55h54l-29 -128c-32 -24 -67 -48.667 -105 -74s-79.5 -48.5 -124.5 -69.5s-93.833 -38.167 -146.5 -51.5
s-109.334 -20 -170.001 -20z" />
    <glyph glyph-name="D" unicode="D" horiz-adv-x="1514" 
d="M-37 71l138.001 45.002c14 4.66699 26 11.5 36 20.5s16.667 20.833 20 35.5l235 1057c3.33301 14.667 2 26.667 -4 36s-15.333 15.666 -28 18.999l-138 46l16 70h647c42 0 86.333 -3.66699 133 -11s92.667 -19.5 138 -36.5s88.666 -39.333 129.999 -67
s77.5 -62.167 108.5 -103.5s55.833 -89.833 74.5 -145.5s28 -119.834 28 -192.501c0 -94 -10.5 -180 -31.5 -258s-50.5 -148.333 -88.5 -211s-83.167 -117.5 -135.5 -164.5s-109.833 -86 -172.5 -117s-129.5 -54.333 -200.5 -70s-143.833 -23.5 -218.5 -23.5h-702z
M663.001 130.002c52.667 0 102.167 8.16699 148.5 24.5s88.333 39.333 126 69s71 65.5 100 107.5s53.667 88.333 74 139s35.5 105.167 45.5 163.5s15 118.833 15 181.5c0 68 -7.66699 129.833 -23 185.5s-38.333 103.5 -69 143.5s-68.667 71 -114 93s-98 33 -158 33h-109
l-253 -1140h217z" />
    <glyph glyph-name="E" unicode="E" horiz-adv-x="1345" 
d="M-37 71l139 45.002c14 4.66699 25.833 11.5 35.5 20.5s16.167 20.833 19.5 35.5l235 1057c3.33301 14.667 1.83301 26.667 -4.5 36s-15.5 15.666 -27.5 18.999l-140 46l16 70h1151l-83 -374h-95l-26 206c-1.33301 11.333 -4.33301 20.166 -9 26.499s-13 9.5 -25 9.5h-450
l-106 -475h275c14 0 24.667 3 32 9s14 14.333 20 25l98 161h82l-115 -520h-82l-28 160c-1.33301 11.333 -4 20.166 -8 26.499s-13 9.5 -27 9.5h-275l-118 -532h554c11.333 0 21 3.33301 29 10s14.667 15.334 20 26.001l121 233h95l-90 -401h-1229z" />
    <glyph glyph-name="F" unicode="F" horiz-adv-x="1251" 
d="M-35 71l137.998 45.001c12.667 4.66699 24.167 11.5 34.5 20.5s17.166 20.833 20.499 35.5l234 1057c3.33301 14.667 1.83301 26.667 -4.5 36s-15.5 15.666 -27.5 18.999l-137 46l16 70h1151l-82 -373h-94l-26 205c-1.33301 10.667 -4.33301 19.334 -9 26.001
s-13 10 -25 10h-455l-109 -491h288c14 0 24.5 3.16699 31.5 9.5s13.5 14.5 19.5 24.5l99 166h80l-117 -528h-81l-25 164c-1.33301 11.333 -4.16602 20.166 -8.49902 26.499s-13.166 9.5 -26.499 9.5h-288l-106 -477c-3.33301 -14.667 -1.66602 -26.667 5.00098 -36
s16 -16 28 -20l151 -45l-16 -71h-674z" />
    <glyph glyph-name="G" unicode="G" horiz-adv-x="1503" 
d="M653 -31c-81.333 0 -156.667 12.6689 -226 38.002s-129.333 62.666 -180 111.999s-90.334 109.833 -119.001 181.5s-43 153.5 -43 245.5c0 82 9.33301 160.667 28 236s45.167 145.666 79.5 210.999s76.5 125 126.5 179s106.333 100.167 169 138.5
s131.167 67.833 205.5 88.5s153.166 31 236.499 31c57.333 0 111.5 -2.66699 162.5 -8s98.333 -12.166 142 -20.499s83.5 -17.333 119.5 -27s67.333 -18.834 94 -27.501l-75 -356l-94 -1l-27 188c-1.33301 10 -5.16602 18.5 -11.499 25.5s-14.166 12.167 -23.499 15.5
c-20.667 8.66699 -43.167 17.5 -67.5 26.5s-50.5 17.333 -78.5 25s-57.667 13.834 -89 18.501s-64.333 7 -99 7c-64 0 -124.667 -17.667 -182 -53s-107.833 -85.333 -151.5 -150s-78.167 -142.167 -103.5 -232.5s-38 -190.166 -38 -299.499
c0 -63.333 6.83301 -122.833 20.5 -178.5s34.167 -104.334 61.5 -146.001s60.833 -74.667 100.5 -99s85.167 -36.5 136.5 -36.5c25.333 0 48.333 1.83301 69 5.5s39.334 8 56.001 13s31.5 10.667 44.5 17l33.5 16.5l69 316c3.33301 14.667 2.16602 26.5 -3.50098 35.5
s-15.167 15.5 -28.5 19.5l-155 46l16 70h672l-16 -70l-134 -46c-13.333 -4.66699 -25 -11.334 -35 -20.001s-16.667 -20.334 -20 -35.001l-34 -152l-31.5 -146.5c-8.33301 -40.333 -14.5 -73.5 -18.5 -99.5c-38.667 -13.333 -80 -26.333 -124 -39s-90 -23.667 -138 -33
s-96.833 -16.666 -146.5 -21.999s-99.5 -8 -149.5 -8z" />
    <glyph glyph-name="H" unicode="H" horiz-adv-x="1664" 
d="M-35 71l136.998 45.002c12.667 4 24.167 10.667 34.5 20s17.166 21.333 20.499 36l235 1057c3.33301 14.667 1.83301 26.667 -4.5 36s-15.5 15.666 -27.5 18.999l-138 46l16 70h660l-15 -70l-136 -46c-14 -4 -26.167 -10.667 -36.5 -20s-17.166 -21 -20.499 -35l-97 -436
h578l97 436c3.33301 14.667 1.83301 26.667 -4.5 36s-15.5 15.666 -27.5 18.999l-137 46l15 70h661l-16 -70l-136 -46c-14 -4 -26.167 -10.667 -36.5 -20s-17.166 -21 -20.499 -35l-234 -1057c-3.33301 -15.333 -1.83301 -27.5 4.5 -36.5s15.5 -15.5 27.5 -19.5l138 -45
l-17 -71h-660l16 71l137 45c12.667 4.66699 24.334 11.5 35.001 20.5s17.667 20.833 21 35.5l109 491h-578l-109 -491c-3.33301 -15.333 -1.83301 -27.5 4.5 -36.5s15.5 -15.5 27.5 -19.5l137 -45l-16 -71h-660z" />
    <glyph glyph-name="I" unicode="I" horiz-adv-x="795" 
d="M-32 71l140 45.001c14 4.66699 25.833 11.5 35.5 20.5s16.167 20.833 19.5 35.5l235 1057c3.33301 14.667 1.5 26.667 -5.5 36s-15.833 15.666 -26.5 18.999l-141 46l16 70h666l-15 -70l-140 -46c-12.667 -4 -24.334 -10.667 -35.001 -20s-17.667 -21 -21 -35l-235 -1057
c-3.33301 -15.333 -1.66602 -27.5 5.00098 -36.5s16 -15.5 28 -19.5l140 -45l-16 -71h-667z" />
    <glyph glyph-name="J" unicode="J" horiz-adv-x="781" 
d="M-158 -398c-32.667 0 -65.5 3.33301 -98.5 10s-70.5 16.667 -112.5 30l76 246h44l65 -23c22.667 -8 45.167 -15.5 67.5 -22.5s44.166 -12.667 65.499 -17s41 -6.5 59 -6.5c16.667 0 31.834 1.83301 45.501 5.5s26.834 11.834 39.501 24.501
c4.66699 5.33301 10.334 17.333 17.001 36s13.5 41.334 20.5 68.001l22 87.5c7.66699 31.667 14.834 63.167 21.501 94.5l224 1094c3.33301 14.667 1.66602 26.667 -5.00098 36s-15.667 15.666 -27 18.999l-160 46l15 70h680l-16 -70l-133 -46
c-12.667 -4 -24.334 -10.667 -35.001 -20s-17.334 -21 -20.001 -35l-218 -1074c-14 -72 -38.5 -139.167 -73.5 -201.5s-80.5 -118.833 -136.5 -169.5c-34 -30.667 -67.5 -57.334 -100.5 -80.001s-66.833 -41.5 -101.5 -56.5s-70.5 -26.333 -107.5 -34
s-76.167 -11.5 -117.5 -11.5z" />
    <glyph glyph-name="K" unicode="K" horiz-adv-x="1454" 
d="M-35 71l136.001 45.001c13.333 4.66699 25.166 11.5 35.499 20.5s17.166 20.833 20.499 35.5l235 1057c3.33301 14.667 2 26.667 -4 36s-15.333 15.666 -28 18.999l-138 46l16 70h660l-15 -70l-136 -46c-14 -4 -26.167 -10.667 -36.5 -20s-17.166 -21 -20.499 -35
l-115 -512l632 566l-109 47l16 70h490l-17 -70l-144 -45c-13.333 -4 -29.333 -11 -48 -21s-35.667 -21.667 -51 -35l-471 -415l330 -636c6.66699 -12 14.667 -24.667 24 -38s20.333 -22 33 -26l135 -45l-16 -69h-590l16 69l110 45l-280 536l-88 -57l-91 -421
c-3.33301 -15.333 -2 -27.5 4 -36.5s15.333 -15.5 28 -19.5l137 -45l-16 -71h-660z" />
    <glyph glyph-name="L" unicode="L" horiz-adv-x="1238" 
d="M-35 71l137.998 45c13.333 4.66699 25 11.5 35 20.5s16.667 20.833 20 35.5l234 1057c3.33301 14.667 2 26.667 -4 36s-15 15.666 -27 18.999l-138 46l16 70h668l-16 -70l-141 -46c-13.333 -4 -25.166 -10.667 -35.499 -20s-17.166 -21 -20.499 -35l-244 -1097h474
c6 0 11.667 1.5 17 4.5s10.333 6.83301 15 11.5s9 9.83398 13 15.501s7.33301 11.5 10 17.5l137 276h94l-102 -457h-1159z" />
    <glyph glyph-name="M" unicode="M" horiz-adv-x="1943" 
d="M-35 71l138 52.001c14 5.33301 26 12.333 36 21s16.667 20 20 34l233 1051c3.33301 14.667 1.66602 26.667 -5.00098 36s-15.334 15.666 -26.001 18.999l-138 46l16 70h551l115 -794l22 -192h7l574 986h543l-16 -70l-137 -46c-13.333 -4 -25.166 -10.667 -35.499 -20
s-17.166 -21 -20.499 -35l-235 -1057c-3.33301 -15.333 -1.83301 -27.333 4.5 -36s15.5 -15.334 27.5 -20.001l138 -45l-16 -71h-660l16 71l136 45c14 4.66699 26 11.5 36 20.5s16.667 20.833 20 35.5l225 1010h-8l-95 -173l-460 -783l-146 -226h-122l-145 1011l-20 175h-6
l-224 -1008c-3.33301 -15.333 -2 -27.166 4 -35.499s15 -14.833 27 -19.5l137 -52l-16 -71h-510z" />
    <glyph glyph-name="N" unicode="N" horiz-adv-x="1580" 
d="M585 941l-63.0029 145.002h-6l-201 -908c-3.33301 -14.667 -2.16602 -26.334 3.50098 -35.001s14.834 -15.334 27.501 -20.001l137 -52l-16 -71h-517l15 71l138 52c14 5.33301 26 12.333 36 21s16.667 20 20 34l232 1048c3.33301 14.667 1.66602 26.5 -5.00098 35.5
s-15.667 15.5 -27 19.5l-145 49l16 70h457l410 -872l58 -133h6l183 828c3.33301 14.667 2 26.334 -4 35.001s-15.333 15 -28 19l-141 53l16 70h519l-15 -70l-135 -53c-13.333 -4.66699 -25.166 -11.334 -35.499 -20.001s-17.166 -20 -20.499 -34l-221 -997l-82 -236h-163z
" />
    <glyph glyph-name="O" unicode="O" horiz-adv-x="1508" 
d="M697 96c53.333 0 102.17 12.001 146.503 36.001s83.833 56.5 118.5 97.5s65 88.333 91 142s47.5 110.667 64.5 171s29.667 121.666 38 183.999s12.5 122.833 12.5 181.5c0 59.333 -5.5 113.5 -16.5 162.5s-28.333 90.833 -52 125.5s-53.834 61.334 -90.501 80.001
s-80.667 28 -132 28c-54.667 0 -104.167 -12.5 -148.5 -37.5s-83.833 -58.167 -118.5 -99.5s-64.834 -89.166 -90.501 -143.499s-46.834 -111.166 -63.501 -170.499s-29 -119 -37 -179s-12 -116.333 -12 -169c0 -58.667 5.16699 -112.834 15.5 -162.501
s26.833 -92.834 49.5 -129.501s52.5 -65.334 89.5 -86.001s82.167 -31 135.5 -31zM667.004 -30.999c-92.667 0 -174.999 12.667 -246.999 38s-132.833 62 -182.5 110s-87.5 106.5 -113.5 175.5s-39.333 147.167 -40 234.5c-0.666992 75.333 7.33301 150 24 224
s41.167 144.333 73.5 211s72.166 128.667 119.499 186s101.5 106.833 162.5 148.5s128.5 74.5 202.5 98.5s154 36 240 36c95.333 0 179.333 -13.167 252 -39.5s133.5 -63.833 182.5 -112.5s86.167 -107.167 111.5 -175.5s38 -144.5 38 -228.5
c0.666992 -69.333 -6.66602 -140 -21.999 -212s-38.5 -141.667 -69.5 -209s-69.667 -130.5 -116 -189.5s-100 -110.333 -161 -154s-129.333 -78.167 -205 -103.5s-158.834 -38 -249.501 -38z" />
    <glyph glyph-name="P" unicode="P" horiz-adv-x="1286" 
d="M-35 71l135.998 45.001c12.667 4 24.334 10.667 35.001 20s17.667 21.333 21 36l235 1057c3.33301 14.667 1.83301 26.667 -4.5 36s-15.166 15.666 -26.499 18.999l-139 46l16 70h634c68 0 130.5 -7.16699 187.5 -21.5s105.833 -35.833 146.5 -64.5
s72.334 -64.834 95.001 -108.501s34 -94.834 34 -153.501c0 -76 -14 -145.333 -42 -208s-66.167 -116.5 -114.5 -161.5s-104.833 -80 -169.5 -105s-133.334 -37.5 -206.001 -37.5c-20 0 -41 1.83301 -63 5.5s-43.833 8.5 -65.5 14.5s-43 13.167 -64 21.5
s-40.833 17.5 -59.5 27.5l-95 -437c-3.33301 -15.333 -1.83301 -27.666 4.5 -36.999s15.5 -15.666 27.5 -18.999l151 -45l-16 -71h-674zM700.998 680.001c54 0 100.5 10.332 139.5 30.999s71.167 47.667 96.5 81s44 70.833 56 112.5s18 83.5 18 125.5
c0 34.667 -4.5 66.834 -13.5 96.501s-23.667 55 -44 76s-47.333 37.5 -81 49.5s-75.167 18 -124.5 18h-48l-128 -573c20.667 -6 42 -10.333 64 -13s43.667 -4 65 -4z" />
    <glyph glyph-name="Q" unicode="Q" horiz-adv-x="1510" 
d="M940 -438c-30 0 -54.668 2.49805 -74.001 7.49805s-35.666 12.667 -48.999 23s-24.833 23.5 -34.5 39.5s-20.167 35 -31.5 57l-145 283c-82.667 5.33301 -156.334 21.833 -221.001 49.5s-119.167 65.334 -163.5 113.001s-78.166 104.5 -101.499 170.5
s-35.333 140 -36 222c-0.666992 75.333 7.33301 150 24 224s41.167 144.333 73.5 211s72.166 128.667 119.499 186s101.5 106.833 162.5 148.5s128.5 74.5 202.5 98.5s154 36 240 36c95.333 0 179.333 -13.167 252 -39.5s133.5 -63.833 182.5 -112.5
s86.167 -107.167 111.5 -175.5s38 -144.5 38 -228.5c0.666992 -58.667 -4.33301 -118.167 -15 -178.5s-27.167 -119.333 -49.5 -177s-49.833 -113.167 -82.5 -166.5s-70.5 -102.333 -113.5 -147s-91.167 -84.167 -144.5 -118.5s-111.666 -61.166 -174.999 -80.499l145 -264
c4 -6.66699 8.66699 -13.5 14 -20.5s11 -13.667 17 -20s12.5 -11.833 19.5 -16.5s13.833 -7.66699 20.5 -9l165 -44l-16 -71h-335zM696.999 94.998c54 0 103.003 12.3311 147.003 36.998s83.5 57.5 118.5 98.5s65.333 88.5 91 142.5s47 110.667 64 170
s29.667 119.333 38 180s12.5 118.334 12.5 173.001c0 64.667 -5.5 122 -16.5 172s-28.333 92.5 -52 127.5s-53.834 61.833 -90.501 80.5s-80.667 28 -132 28c-54.667 0 -104.167 -12.5 -148.5 -37.5s-83.833 -58.167 -118.5 -99.5s-64.834 -89.166 -90.501 -143.499
s-46.834 -110.833 -63.501 -169.5s-29 -117.5 -37 -176.5s-12 -113.833 -12 -164.5c0 -61.333 5.16699 -117.666 15.5 -168.999s26.833 -95.333 49.5 -132s52.5 -65.334 89.5 -86.001s82.167 -31 135.5 -31z" />
    <glyph glyph-name="R" unicode="R" horiz-adv-x="1457" 
d="M-35 71l137.004 45.0059c12.667 4.66699 24.167 11.5 34.5 20.5s17.166 20.833 20.499 35.5l235 1057c3.33301 14.667 1.83301 26.667 -4.5 36s-15.5 15.666 -27.5 18.999l-138 46l15 70h654c92.667 0 168.834 -9.33301 228.501 -28s106.667 -43.167 141 -73.5
s58 -64.5 71 -102.5s19.5 -76.333 19.5 -115c0 -40.667 -5.66699 -78.334 -17 -113.001s-26.333 -66.5 -45 -95.5s-40.834 -54.833 -66.501 -77.5s-53.167 -42.834 -82.5 -60.501s-60 -32.334 -92 -44.001s-63.667 -20.834 -95 -27.501l258 -481
c7.33301 -14 17.666 -27.667 30.999 -41s26.666 -22 39.999 -26l146 -44l-15 -71h-317c-30 0 -54.333 2.16699 -73 6.5s-34.334 11.333 -47.001 21s-23.667 22.667 -33 39s-20 36.166 -32 59.499l-238 466l-118 35l-99 -455c-3.33301 -15.333 -1.83301 -27.5 4.5 -36.5
s15.5 -15.5 27.5 -19.5l142 -45l-16 -71h-665zM707.004 726.006c53.333 0 99.8301 8.83105 139.497 26.498s72.834 41.667 99.501 72s46.334 65.333 59.001 105s19 81.834 19 126.501c0 36.667 -5.16699 68.5 -15.5 95.5s-26 49.333 -47 67s-47.167 30.667 -78.5 39
s-67.666 12.5 -108.999 12.5h-74l-119 -534c6.66699 -1.33301 15.667 -2.66602 27 -3.99902s23.333 -2.5 36 -3.5s24.667 -1.66699 36 -2s20.333 -0.5 27 -0.5z" />
    <glyph glyph-name="S" unicode="S" horiz-adv-x="1240" 
d="M491 -32c-39.333 0 -80 2.50098 -122 7.50098s-84.167 11.833 -126.5 20.5s-84 18.667 -125 30s-80.5 23 -118.5 35l72 400h93l34 -200c2 -9.33301 5.66699 -18 11 -26s12.666 -15.667 21.999 -23c20.667 -16.667 46.834 -31.667 78.501 -45s63.667 -24.833 96 -34.5
s63.166 -16.834 92.499 -21.501s52.333 -7 69 -7c35.333 0 70.166 4.83301 104.499 14.5s64.666 24.5 90.999 44.5s47.833 44.833 64.5 74.5s25 64.5 25 104.5c0 26.667 -4.66699 50.167 -14 70.5s-22.166 38.5 -38.499 54.5s-35.166 30.333 -56.499 43s-44 24.667 -68 36
l-116 53l-118 54c-35.333 16 -67.5 34.333 -96.5 55s-54 44.334 -75 71.001s-37.333 56.667 -49 90s-17.5 70.666 -17.5 111.999c0 50 8.33301 96 25 138s39.167 79.667 67.5 113s61.5 62.333 99.5 87s78.5 45.334 121.5 62.001s87.333 29.167 133 37.5
s90.834 12.5 135.501 12.5c39.333 0 78.333 -2 117 -6s77.167 -9.5 115.5 -16.5s76.333 -15.333 114 -25l114.5 -30.5l-78 -373h-93l-29 188c-3.33301 17.333 -15 33.333 -35 48c-20 13.333 -42.833 25.166 -68.5 35.499s-51.5 18.666 -77.5 24.999
s-50.333 11.166 -73 14.499s-41 5 -55 5c-32 0 -62.333 -5.83301 -91 -17.5s-53.834 -27.667 -75.501 -48s-38.667 -44.5 -51 -72.5s-18.5 -58.667 -18.5 -92c0 -27.333 5 -51.166 15 -71.499s23.667 -38.333 41 -54s37.333 -29.667 60 -42s46.334 -24.166 71.001 -35.499
l112 -51l113 -52c35.333 -17.333 68 -36.333 98 -57s55.833 -44.167 77.5 -70.5s38.667 -56 51 -89s18.5 -70.5 18.5 -112.5c0 -57.333 -9.83301 -108.5 -29.5 -153.5s-46.167 -84.667 -79.5 -119s-72 -63.5 -116 -87.5s-90.833 -43.667 -140.5 -59
s-100.167 -26.5 -151.5 -33.5s-101.333 -10.5 -150 -10.5z" />
    <glyph glyph-name="T" unicode="T" horiz-adv-x="1345" 
d="M229 70l153.999 45.999c14 4 26 10.5 36 19.5s16.667 20.833 20 35.5l243 1098h-287c-12 0 -21.833 -3.33301 -29.5 -10s-14.5 -15 -20.5 -25l-122 -219h-93l87 385h1274l-87 -385h-92l-23 219c-0.666992 10.667 -3.5 19.167 -8.5 25.5s-13.5 9.5 -25.5 9.5h-275
l-243 -1098c-3.33301 -14.667 -1.66602 -26.667 5.00098 -36s15.667 -15.666 27 -18.999l155 -46l-16 -70h-694z" />
    <glyph glyph-name="U" unicode="U" horiz-adv-x="1530" 
d="M662 -32c-81.333 0 -152.165 9.83691 -212.498 29.5039s-110.833 46 -151.5 79s-71 71.167 -91 114.5s-30 88.666 -30 135.999c0 8 0.5 18 1.5 30s2.33301 24.5 4 37.5s3.5 25.667 5.5 38s4.33301 22.833 7 31.5l169 765c3.33301 14.667 1.83301 26.667 -4.5 36
s-15.5 15.666 -27.5 18.999l-137 46l15 70h660l-14 -70l-137 -46c-12.667 -4 -24.334 -10.333 -35.001 -19s-17.667 -20.667 -21 -36l-161 -735c-2 -8.66699 -3.83301 -18.834 -5.5 -30.501l-5 -35.5c-1.66699 -12 -3 -23.5 -4 -34.5s-1.5 -20.5 -1.5 -28.5
c0 -28.667 3.66699 -57 11 -85s21 -53.333 41 -76s47.167 -41.167 81.5 -55.5s78.166 -21.5 131.499 -21.5c66 0 122.167 11.5 168.5 34.5s84.833 51.833 115.5 86.5s54.5 72.667 71.5 114s29.5 80.666 37.5 117.999l165 743c2.66699 14 1.16699 25.333 -4.5 34
s-14.834 15.334 -27.501 20.001l-136 53l16 70h517l-15 -70l-138 -53c-14 -4.66699 -26.167 -11.334 -36.5 -20.001s-17.166 -20 -20.499 -34l-171 -771c-14 -62.667 -34 -118 -60 -166s-56.333 -90 -91 -126s-72 -66.333 -112 -91s-81.167 -44.5 -123.5 -59.5
s-84.333 -25.667 -126 -32s-81.167 -9.5 -118.5 -9.5z" />
    <glyph glyph-name="V" unicode="V" horiz-adv-x="1398" 
d="M268 1230c-2 13.333 -7.33301 25.333 -16 36s-20 18.667 -34 24l-102 40l15 70h606l-16 -70l-162 -55l137 -826l18 -137h7l566 962l-161 56l17 70h472l-17 -70l-109 -48c-11.333 -5.33301 -22.5 -13 -33.5 -23s-20.167 -21 -27.5 -33l-612 -1015l-165 -231h-174z" />
    <glyph glyph-name="W" unicode="W" horiz-adv-x="2038" 
d="M269 1232c-2 26 -16.333 44.668 -43 56.001l-96 42l15 70h597l-15 -70l-169 -53l66 -796l6 -106h7l393 763l153 253h157l93 -913l10 -109h6l471 896l-155 65l15 70h474l-15 -70l-104 -50c-12 -5.33301 -24.833 -13.333 -38.5 -24s-23.834 -22.334 -30.5 -35.001
l-527 -982l-169 -252h-179l-82 803l-14 158h-6l-363 -709l-171 -252h-183z" />
    <glyph glyph-name="X" unicode="X" horiz-adv-x="1410" 
d="M-87 71l107.001 46.001c17.333 8 33.666 17.667 48.999 29s29 23.333 41 36l487 504l-248 546c-5.33301 10.667 -12.333 21.834 -21 33.501s-18.667 19.5 -30 23.5l-111 41l15 70h610l-15 -70l-153 -53l136 -315l45 -117h3l381 420l-138 65l16 70h477l-15 -70l-103 -47
c-14.667 -6.66699 -30.334 -15.834 -47.001 -27.501s-31 -23.834 -43 -36.501l-469 -493l253 -557c6 -12 13.333 -23.5 22 -34.5s18.334 -18.5 29.001 -22.5l112 -41l-17 -71h-610l17 71l153 52l-143 330l-44 113h-4l-397 -432l136 -63l-17 -71h-481z" />
    <glyph glyph-name="Y" unicode="Y" horiz-adv-x="1354" 
d="M240 70l153 45.999c14 4 26 10.5 36 19.5s16.667 20.833 20 35.5l85 383l-231 676c-4.66699 13.333 -10.667 25.5 -18 36.5s-18 18.833 -32 23.5l-113 40l16 70h610l-15 -70l-155 -54l150 -437l39 -127h6l436 562l-154 56l16 70h468l-16 -70l-117 -48
c-11.333 -4.66699 -22.166 -12.5 -32.499 -23.5s-19.833 -21.833 -28.5 -32.5l-528 -663l-87 -392c-3.33301 -14.667 -1.83301 -26.667 4.5 -36s15.166 -15.666 26.499 -18.999l155 -46l-16 -70h-694z" />
    <glyph glyph-name="Z" unicode="Z" horiz-adv-x="1284" 
d="M-63 103l985 1075l86 84l2 7h-547c-12 0 -22 -3.5 -30 -10.5s-14.667 -15.5 -20 -25.5l-124 -219h-93l86 386h1124l-22 -98l-988 -1079l-85 -84l-2 -7h629c12 0 21.833 3.16699 29.5 9.5s14.5 15.166 20.5 26.499l129 241h94l-91 -409h-1206z" />
    <glyph glyph-name="bracketleft" unicode="[" horiz-adv-x="962" 
d="M443 1503h642l-26 -114h-370l-358 -1618h370l-26 -116h-642z" />
    <glyph glyph-name="backslash" unicode="\" horiz-adv-x="986" 
d="M309 1511h170l315 -1931h-164z" />
    <glyph glyph-name="bracketright" unicode="]" horiz-adv-x="962" 
d="M-70 -229h377l358 1618h-377l26 114h649l-410 -1848h-649z" />
    <glyph glyph-name="asciicircum" unicode="^" horiz-adv-x="1423" 
d="M697 1415h126l449 -715h-204l-307 508l-311 -508h-204z" />
    <glyph glyph-name="underscore" unicode="_" horiz-adv-x="1115" 
d="M-123 -149h1124l-27 -119h-1123z" />
    <glyph glyph-name="grave" unicode="`" horiz-adv-x="1024" 
d="M825 1119l-95 59l-83 51.5l-74.5 47.5c-23.667 15.333 -46.834 31.666 -69.501 48.999c-24 16.667 -43.5 33.667 -58.5 51s-22.5 39.333 -22.5 66c0 14.667 3.16699 28 9.5 40s15 22.333 26 31s23.5 15.334 37.5 20.001s28.667 7 44 7c18 0 33.833 -1.5 47.5 -4.5
s26.334 -7.83301 38.001 -14.5s23 -15.5 34 -26.5s22.5 -24.5 34.5 -40.5l43.5 -64l44.5 -69l48.5 -75.5l55.5 -84.5l-60 -43v0z" />
    <glyph glyph-name="a" unicode="a" horiz-adv-x="1156" 
d="M287 -19c-40 0 -76.3311 6.67188 -108.998 20.0049s-60.334 31.666 -83.001 54.999s-40 51 -52 83s-18 66.667 -18 104c0 48 7.66699 91 23 129s35.833 71.333 61.5 100s55.834 53 90.501 73s71.334 36.167 110.001 48.5s78.334 21.333 119.001 27s80 8.5 118 8.5
c10.667 0 23.334 -0.5 38.001 -1.5s29.667 -2.33301 45 -4l44.5 -5l37.5 -4.5c2 8 4.16699 18.167 6.5 30.5s4.5 25.166 6.5 38.499s3.83301 26.666 5.5 39.999s2.5 25.666 2.5 36.999c0 48 -13 84.5 -39 109.5s-63.333 37.5 -112 37.5c-26 0 -55 -6.16699 -87 -18.5
s-64.333 -27.166 -97 -44.499s-64.167 -35.666 -94.5 -54.999l-76.5 -50h-52l34 226c35.333 12 69.666 22.5 102.999 31.5s67.166 16.667 101.499 23s69.666 11.166 105.999 14.499s74.833 5 115.5 5s83.667 -3.66699 129 -11s87 -20.333 125 -39s69.5 -43.667 94.5 -75
s37.5 -71.333 37.5 -120c0 -12 -0.5 -24.667 -1.5 -38s-2.33301 -26.833 -4 -40.5s-3.66699 -26.834 -6 -39.501s-4.83301 -25 -7.5 -37l-57 -249c-4 -16.667 -7.83301 -33.667 -11.5 -51l-10.5 -51.5c-3.33301 -17 -6 -33.5 -8 -49.5s-3 -30.667 -3 -44
c0 -11.333 2.16699 -21.833 6.5 -31.5s10.5 -18.334 18.5 -26.001s17.667 -13.667 29 -18s24 -6.5 38 -6.5c6.66699 0 14 0.833008 22 2.5s16.333 3.66699 25 6s17.5 5.16602 26.5 8.49902s17.5 6.66602 25.5 9.99902h29v-82c-24 -14 -49 -25.5 -75 -34.5
s-52.167 -16.333 -78.5 -22s-52.5 -9.66699 -78.5 -12s-51 -3.5 -75 -3.5c-28 0 -53.833 3.83301 -77.5 11.5s-44.334 18.334 -62.001 32.001s-32 30.667 -43 51s-17.5 43.5 -19.5 69.5h-5c-26 -30.667 -51.833 -56.667 -77.5 -78s-51.834 -38.666 -78.501 -51.999
s-54.5 -23 -83.5 -29s-59.5 -9 -91.5 -9zM440.002 144.005c36 0 70.167 7.66699 102.5 23s61.166 38.333 86.499 69l64 280c-48.667 0 -95.167 -2.5 -139.5 -7.5s-83.5 -16.167 -117.5 -33.5s-61.167 -41.833 -81.5 -73.5s-30.833 -74.167 -31.5 -127.5
c0 -20 2.5 -38.167 7.5 -54.5s12.5 -30 22.5 -41s22.333 -19.5 37 -25.5s31.334 -9 50.001 -9z" />
    <glyph glyph-name="b" unicode="b" horiz-adv-x="1207" 
d="M21 -13c10.667 25.333 22.5 54.9961 35.5 88.9961s25.5 74.333 37.5 121l236 1096c3.33301 16 1.66602 29.333 -5.00098 40s-18 19.334 -34 26.001l-90 43l-1 62l464 61l-130 -597c-0.666992 -1.33301 -1.66699 -4.16602 -3 -8.49902s-2.5 -8.83301 -3.5 -13.5l-3 -13.5
c-1 -4.33301 -1.83301 -7.16602 -2.5 -8.49902c34.667 37.333 66.834 66.333 96.501 87s57.334 36.167 83.001 46.5s49.667 16.5 72 18.5s43.5 3 63.5 3c51.333 0 96.666 -9.66699 135.999 -29s72.333 -46.166 99 -80.499s47 -75.333 61 -123s21 -99.167 21 -154.5
s-5.83301 -110.333 -17.5 -165s-28.5 -106.834 -50.5 -156.501s-49 -95.667 -81 -138s-68.5 -79.166 -109.5 -110.499s-86 -56 -135 -74s-101.5 -27 -157.5 -27c-26 0 -50.833 2.83301 -74.5 8.5s-45.5 13 -65.5 22s-38 19.333 -54 31s-29.333 23.167 -40 34.5l-50 -90h-298
zM546 122.996c37.333 0 70.832 8.16699 100.499 24.5s55.667 38.166 78 65.499s41.333 58.333 57 93s28.334 70.5 38.001 107.5s16.667 73.667 21 110s6.5 69.5 6.5 99.5c0 28.667 -2.5 57.334 -7.5 86.001s-13.833 54.667 -26.5 78s-30.167 42.5 -52.5 57.5
s-50.5 22.5 -84.5 22.5c-33.333 0 -64.833 -7.16699 -94.5 -21.5s-55.167 -33.5 -76.5 -57.5l-137 -622c24 -13.333 51.5 -23.833 82.5 -31.5s62.833 -11.5 95.5 -11.5z" />
    <glyph glyph-name="c" unicode="c" horiz-adv-x="950" 
d="M483 -21c-64 0 -122.171 10.6719 -174.504 32.0049s-97.333 50.833 -135 88.5s-66.667 82.334 -87 134.001s-30.5 108.167 -30.5 169.5c0 62.667 7.66699 122.667 23 180s37.333 110.5 66 159.5s63.834 93.167 105.501 132.5s89.167 72.666 142.5 99.999
c40.667 20.667 83.167 36.5 127.5 47.5s89.5 16.5 135.5 16.5c28.667 0 57.334 -2.16699 86.001 -6.5s56 -10.333 82 -18s50.5 -16.5 73.5 -26.5s43.167 -21 60.5 -33l-51 -208h-43c-24 16 -49.5 32.167 -76.5 48.5s-54.5 31.166 -82.5 44.499s-56.5 24.166 -85.5 32.499
s-58.167 12.5 -87.5 12.5c-5.33301 0 -11.166 -1.5 -17.499 -4.5s-12.5 -6.83301 -18.5 -11.5s-11.667 -9.66699 -17 -15s-9.66602 -10 -12.999 -14c-19.333 -22.667 -35.833 -49.834 -49.5 -81.501s-24.667 -65 -33 -100s-14.666 -69.833 -18.999 -104.5
s-6.5 -66.334 -6.5 -95.001c0 -40 4 -78.667 12 -116s21 -70.333 39 -99s41.667 -51.667 71 -69s65.666 -26 108.999 -26c26.667 0 52.334 2.66699 77.001 8s48.167 12.666 70.5 21.999s44.166 20 65.499 32s42 25 62 39h38l-15 -109c-28 -24 -57.333 -46 -88 -66
s-62.667 -37.167 -96 -51.5s-68.333 -25.333 -105 -33s-75 -11.5 -115 -11.5z" />
    <glyph glyph-name="d" unicode="d" horiz-adv-x="1246" 
d="M371 -19c-51.333 0 -96.5029 9.66602 -135.503 28.999s-72 46.333 -99 81s-47.333 75.667 -61 123s-20.5 99 -20.5 155c0 55.333 5.66699 110.166 17 164.499s28 106.333 50 156s49 95.834 81 138.501s68.5 79.5 109.5 110.5s86 55.5 135 73.5s101.5 27 157.5 27
c28.667 0 56.167 -3.16699 82.5 -9.5s50.666 -14.666 72.999 -24.999s41.833 -21.833 58.5 -34.5s30 -25.334 40 -38.001l9 52l67 309c3.33301 16 1.83301 29.333 -4.5 40s-18.166 19.334 -35.499 26.001l-101 43l-1 62l475 61l-247 -1135
c-4.66699 -20 -9 -39.833 -13 -59.5s-7.5 -38.167 -10.5 -55.5s-5.33301 -33 -7 -47s-2.5 -25.333 -2.5 -34c0 -8 1.5 -16.667 4.5 -26s8 -18.333 15 -27s16.333 -15.667 28 -21s26.167 -8 43.5 -8c4.66699 0 10.834 0.666992 18.501 2s15.834 3.16602 24.501 5.49902
s17.834 5.16602 27.501 8.49902s19.167 7 28.5 11h30v-82c-20 -12 -41.5 -22.333 -64.5 -31s-47.5 -16 -73.5 -22s-53.167 -10.667 -81.5 -14s-57.5 -5 -87.5 -5c-29.333 0 -56.333 4 -81 12s-46 19.333 -64 34s-32.333 32.334 -43 53.001s-16.667 43.334 -18 68.001h-5
c-32.667 -37.333 -63 -67.333 -91 -90s-54.833 -40 -80.5 -52s-50.5 -19.833 -74.5 -23.5s-48.333 -5.5 -73 -5.5zM531.997 152.999c16.667 0 33.165 1.99902 49.498 5.99902s31.833 9.66699 46.5 17s28.334 16.333 41.001 27s24.334 22.334 35.001 35.001l136 616
c-24 14 -51.5 24.667 -82.5 32s-62.833 11 -95.5 11c-37.333 0 -70.833 -8.16699 -100.5 -24.5s-55.5 -38 -77.5 -65s-41 -58 -57 -93s-28.833 -71 -38.5 -108s-16.667 -73.667 -21 -110s-6.5 -69.5 -6.5 -99.5c0 -28 2.33301 -56.5 7 -85.5s13.5 -55.167 26.5 -78.5
s30.5 -42.5 52.5 -57.5s50.333 -22.5 85 -22.5z" />
    <glyph glyph-name="e" unicode="e" horiz-adv-x="1029" 
d="M467 -21c-35.333 0 -69.9961 3.99902 -103.996 11.999s-66.167 20.167 -96.5 36.5s-58.333 36.333 -84 60s-47.834 51 -66.501 82s-33.167 65.833 -43.5 104.5s-15.5 80.667 -15.5 126c0 58 7.16699 114.167 21.5 168.5s34.666 105.166 60.999 152.499
s58.5 90.5 96.5 129.5s80.5 72.5 127.5 100.5s98.167 49.833 153.5 65.5s113.666 23.5 174.999 23.5c35.333 0 71.833 -3.66699 109.5 -11s72.167 -19.666 103.5 -36.999s57 -40 77 -68s30 -63 30 -105c0 -41.333 -7.5 -78.666 -22.5 -111.999s-35.333 -62.5 -61 -87.5
s-55.334 -46.167 -89.001 -63.5s-69.5 -31.666 -107.5 -42.999s-77 -19.5 -117 -24.5s-78.333 -7.5 -115 -7.5c-26 0 -51.167 0.833008 -75.5 2.5s-47.5 4.16699 -69.5 7.5c-1.33301 -10.667 -2.5 -21 -3.5 -31s-1.5 -20.333 -1.5 -31
c-0.666992 -40.667 3.66602 -78 12.999 -112s23.666 -63.5 42.999 -88.5s44.333 -44.5 75 -58.5s67.334 -21 110.001 -21c33.333 0 65.5 2.66699 96.5 8s60.833 12.666 89.5 21.999s55.834 20.333 81.501 33s49.5 26 71.5 40h39l-14 -106
c-36.667 -26.667 -72.667 -50.334 -108 -71.001s-72.333 -38.167 -111 -52.5s-80 -25.166 -124 -32.499s-92.333 -11 -145 -11zM452.004 578.999c39.333 0 75.832 3.83105 109.499 11.498s62.834 20.834 87.501 39.501s44.167 42.834 58.5 72.501s21.5 66.5 21.5 110.5
c0 34.667 -9.83301 62.167 -29.5 82.5s-46.5 30.5 -80.5 30.5c-13.333 0 -26.5 -2.83301 -39.5 -8.5s-25.167 -12.5 -36.5 -20.5c-22.667 -15.333 -43.334 -34.833 -62.001 -58.5s-35.167 -49.5 -49.5 -77.5s-26.666 -57.5 -36.999 -88.5s-18.5 -61.5 -24.5 -91.5
c13.333 -1.33301 27 -2 41 -2h41z" />
    <glyph glyph-name="f" unicode="f" horiz-adv-x="762" 
d="M-215 -480c-12 0 -25.6631 0.666016 -40.9961 1.99902s-31.5 3.16602 -48.5 5.49902s-34.167 5.5 -51.5 9.5s-34.333 8.33301 -51 13l57 236h41c20 -7.33301 41.833 -14.5 65.5 -21.5s47.334 -13.333 71.001 -19s46.334 -10 68.001 -13s40.5 -4.5 56.5 -4.5
s31.167 2 45.5 6s27.833 12.333 40.5 25c4.66699 4.66699 10.334 16.334 17.001 35.001s13.5 41.167 20.5 67.5s14.167 55.166 21.5 86.499s14 62 20 92l162 823h-171l17 125h183c12.667 44.667 26.167 86 40.5 124s30.666 73.167 48.999 105.5s38.833 62.333 61.5 90
s48.667 53.167 78 76.5c31.333 26 62.166 48.833 92.499 68.5s61.166 36 92.499 49s63.833 22.833 97.5 29.5s69.5 10 107.5 10c12.667 0 26.667 -0.833008 42 -2.5s31.333 -3.66699 48 -6s33.167 -5.16602 49.5 -8.49902s31.5 -7 45.5 -11l-56 -236h-42
c-20.667 8 -42.334 15.167 -65.001 21.5s-45.334 12.166 -68.001 17.499s-44.334 9.5 -65.001 12.5s-39 4.5 -55 4.5c-16.667 0 -32.167 -2 -46.5 -6s-27.5 -12.333 -39.5 -25c-4.66699 -5.33301 -10.5 -18.166 -17.5 -38.499s-14.5 -45.166 -22.5 -74.499
s-15.833 -61.5 -23.5 -96.5s-14.834 -69.833 -21.501 -104.5h263l-20 -125h-269l-157 -803c-13.333 -72 -36.833 -138.167 -70.5 -198.5s-77.5 -114.833 -131.5 -163.5c-33.333 -30 -66.166 -56.167 -98.499 -78.5s-65.5 -41 -99.5 -56s-69.333 -26 -106 -33
s-75.334 -10.5 -116.001 -10.5z" />
    <glyph glyph-name="g" unicode="g" horiz-adv-x="1204" 
d="M287 -480c-49.333 0 -93.999 3.16895 -133.999 9.50195s-76.333 13.5 -109 21.5l58 241h33c20.667 -8 45 -15.833 73 -23.5s56.5 -14.334 85.5 -20.001s57.5 -10.167 85.5 -13.5s53 -5 75 -5c16 0 31.167 0.5 45.5 1.5s27.333 3 39 6s22.167 7 31.5 12
s17.666 11.167 24.999 18.5c6.66699 6.66699 13.667 20.5 21 41.5s14.666 45.833 21.999 74.5s14.5 59 21.5 91l20.5 92l20 96c-28 -31.333 -54.833 -57.5 -80.5 -78.5s-51.5 -37.667 -77.5 -50s-52.667 -21.166 -80 -26.499s-56.333 -8 -87 -8c-54 0 -101 10.167 -141 30.5
s-73.333 47.833 -100 82.5s-46.5 75 -59.5 121s-19.5 94.333 -19.5 145c0 52.667 5.5 105.5 16.5 158.5s27.5 104 49.5 153s48.667 94.667 80 137s67.5 79.166 108.5 110.499s86.333 56 136 74s102.834 27 159.501 27c24 0 46.833 -2.33301 68.5 -7
s42.334 -11.167 62.001 -19.5s37.834 -18.5 54.501 -30.5s32 -25 46 -39l52 88h298c-15.333 -34.667 -29 -69.334 -41 -104.001s-22.667 -70.334 -32 -107.001l-144 -748c-8 -40 -18.167 -76.833 -30.5 -110.5s-27.333 -65.167 -45 -94.5s-37.834 -57.166 -60.501 -83.499
s-48 -51.166 -76 -74.499c-36 -31.333 -71.667 -58.833 -107 -82.5s-71.833 -43.334 -109.5 -59.001s-77.334 -27.5 -119.001 -35.5s-86.5 -12 -134.5 -12zM533.001 170.002c16.667 0 33.334 1.83301 50.001 5.5s32.667 8.83398 48 15.501s30 14.667 44 24
s26.667 20.666 38 33.999l123 605c-24.667 14 -51.667 24.667 -81 32s-60.333 11 -93 11c-36.667 0 -69.834 -8 -99.501 -24s-55.667 -37.167 -78 -63.5s-41.333 -56.5 -57 -90.5s-28.5 -69.167 -38.5 -105.5s-17.167 -72.333 -21.5 -108s-6.5 -68.167 -6.5 -97.5
c0 -28.667 2.5 -57 7.5 -85s13.833 -53.5 26.5 -76.5s30.167 -41.5 52.5 -55.5s50.833 -21 85.5 -21z" />
    <glyph glyph-name="h" unicode="h" horiz-adv-x="1246" 
d="M914 -15c-29.333 0 -56.3311 4.00195 -80.998 12.002s-45.834 19.167 -63.501 33.5s-31.667 31.5 -42 51.5s-15.5 42.333 -15.5 67c0 26 1.83301 50.833 5.5 74.5s8.16699 46.834 13.5 69.501l73 310c2.66699 10.667 5.16699 22.167 7.5 34.5s4.33301 24.666 6 36.999
s3.16699 24.166 4.5 35.499s2 21.666 2 30.999c0 17.333 -2.16699 33.333 -6.5 48s-11.666 27.5 -21.999 38.5s-23.666 19.667 -39.999 26s-36.5 9.5 -60.5 9.5c-14.667 0 -30.334 -1.33301 -47.001 -4s-33.334 -7 -50.001 -13s-33.334 -14.5 -50.001 -25.5
s-32 -24.833 -46 -41.5l-130 -585c-2 -16 -3.66699 -32.833 -5 -50.5s-2.16602 -35.167 -2.49902 -52.5s-0.5 -33.833 -0.5 -49.5v-41.5h-318l288 1293c3.33301 16 1.66602 29.167 -5.00098 39.5s-18.334 19.166 -35.001 26.499l-89 43l-1 62l464 61l-133 -601l-12 -52
c25.333 26.667 50.5 50.334 75.5 71.001s51.5 38.167 79.5 52.5s58 25.166 90 32.499s67.667 11 107 11c34.667 0 67.167 -4.66699 97.5 -14s56.5 -23.833 78.5 -43.5s39.333 -44.167 52 -73.5s19 -63.666 19 -102.999c0 -16.667 -1.33301 -34.5 -4 -53.5
s-5.66699 -36.833 -9 -53.5l-72 -303c-4.66699 -19.333 -8.83398 -39 -12.501 -59l-10 -56.5c-3 -17.667 -5.33301 -33.5 -7 -47.5s-2.5 -24.667 -2.5 -32c0 -8 1.33301 -16.833 4 -26.5s7.5 -19 14.5 -28s16.333 -16.333 28 -22s26.167 -8.5 43.5 -8.5
c5.33301 0 11.833 0.5 19.5 1.5s16 2.66699 25 5s18.167 5 27.5 8s18.333 6.16699 27 9.5h29v-82c-19.333 -12 -40.666 -22.333 -63.999 -31s-48.166 -16 -74.499 -22s-53.833 -10.667 -82.5 -14s-58 -5 -88 -5z" />
    <glyph glyph-name="i" unicode="i" horiz-adv-x="687" 
d="M331 -15c-29.333 0 -56.333 3.99805 -81 11.998s-46 19.167 -64 33.5s-32.167 31.5 -42.5 51.5s-15.5 42.333 -15.5 67c0 26 1.83301 50.667 5.5 74s8.16699 46.666 13.5 69.999l109 492c3.33301 16.667 1.83301 30 -4.5 40s-18.166 18.333 -35.499 25l-103 45l-1 61
l480 72l-140 -638c-4.66699 -19.333 -8.83398 -39.166 -12.501 -59.499l-10 -57c-3 -17.667 -5.33301 -33.5 -7 -47.5s-2.5 -24.667 -2.5 -32c0 -8 1.33301 -16.667 4 -26s7.5 -18.333 14.5 -27s16.333 -15.667 28 -21s26.5 -8 44.5 -8c4.66699 0 11.5 0.833008 20.5 2.5
s19 3.83398 30 6.50098s22 5.83398 33 9.50098s21.167 7.83398 30.5 12.501h30v-82c-20 -12 -42.5 -22.5 -67.5 -31.5s-51.333 -16.833 -79 -23.5s-56.667 -11.834 -87 -15.501s-60.5 -5.5 -90.5 -5.5zM488 1202c-24 0 -46.6641 4.16895 -67.9971 12.502
s-40.166 20 -56.499 35s-29.333 32.5 -39 52.5s-14.5 41.667 -14.5 65s4.66699 44.666 14 63.999s22.166 36.166 38.499 50.499s35.166 25.5 56.499 33.5s44.333 12 69 12c25.333 0 49.166 -4 71.499 -12s41.833 -18.833 58.5 -32.5s29.5 -30 38.5 -49
s13.5 -39.833 13.5 -62.5c0 -24 -4.83301 -46.333 -14.5 -67s-22.834 -38.5 -39.501 -53.5s-36.167 -26.833 -58.5 -35.5s-45.5 -13 -69.5 -13z" />
    <glyph glyph-name="j" unicode="j" horiz-adv-x="696" 
d="M-168 -480c-12.667 0 -26.666 0.668945 -41.999 2.00195s-31.333 3.16602 -48 5.49902s-33.667 5.5 -51 9.5s-34.333 8.33301 -51 13l56 236h42c20 -7.33301 41.667 -14.5 65 -21.5s46.833 -13.333 70.5 -19s46.334 -10 68.001 -13s40.5 -4.5 56.5 -4.5s31.167 2 45.5 6
s27.833 12.333 40.5 25c4.66699 4.66699 10.5 16.334 17.5 35.001s14 41.167 21 67.5s14.167 55.166 21.5 86.499s13.666 62 18.999 92l141 745c2.66699 16 1 29.667 -5 41s-18 19.666 -36 24.999l-125 44v61l498 72l-182 -968c-13.333 -72 -37 -138.167 -71 -198.5
s-78 -114.833 -132 -163.5c-32.667 -30 -65.334 -56.167 -98.001 -78.5s-66 -41 -100 -56s-69.167 -26 -105.5 -33s-74.833 -10.5 -115.5 -10.5zM509.001 1202c-24 0 -46.6641 4.16895 -67.9971 12.502s-40.166 20 -56.499 35s-29.333 32.5 -39 52.5s-14.5 41.667 -14.5 65
s4.66699 44.666 14 63.999s22 36.166 38 50.499s34.667 25.5 56 33.5s44.666 12 69.999 12s49.166 -4 71.499 -12s41.666 -18.833 57.999 -32.5s29.166 -30 38.499 -49s14 -39.833 14 -62.5c0 -24 -4.83301 -46.333 -14.5 -67s-23 -38.5 -40 -53.5
s-36.5 -26.833 -58.5 -35.5s-45 -13 -69 -13z" />
    <glyph glyph-name="k" unicode="k" horiz-adv-x="1173" 
d="M835 -15c-31.333 0 -58.168 3.33301 -80.501 10s-41.5 16.5 -57.5 29.5s-29.333 29 -40 48s-20.334 40.5 -29.001 64.5l-109 318l-111 -93l-36 -168c-2 -16.667 -3.66699 -33.834 -5 -51.501s-2.16602 -35 -2.49902 -52s-0.5 -33.333 -0.5 -49v-41.5h-318l288 1293
c3.33301 16 1.66602 29.167 -5.00098 39.5s-18.334 19.166 -35.001 26.499l-89 43l-1 62l464 61l-230 -1035l136.5 149l113 125l90 98.5c26.333 28.333 49.5 51.5 69.5 69.5c18.667 16.667 35.667 31 51 43s30.666 22 45.999 30s31.333 14 48 18s35.667 6 57 6
c18.667 0 38.834 -1.16699 60.501 -3.5s42.834 -5.16602 63.501 -8.49902l-43 -266h-38c-24.667 4.66699 -49.167 8.66699 -73.5 12s-45.833 5 -64.5 5c-14 0 -29.333 -0.333008 -46 -1s-34.5 -4 -53.5 -10s-39.167 -15.5 -60.5 -28.5s-43.666 -31.5 -66.999 -55.5l162 -448
c4.66699 -12 10.667 -24.667 18 -38s16.166 -25.333 26.499 -36s22.666 -19.5 36.999 -26.5s30.833 -10.5 49.5 -10.5c12.667 0 28.334 2.5 47.001 7.5s37.334 11.5 56.001 19.5h29v-82c-19.333 -12 -41.166 -22.5 -65.499 -31.5s-50 -16.667 -77 -23
s-55.333 -11.166 -85 -14.499s-59.5 -5 -89.5 -5z" />
    <glyph glyph-name="l" unicode="l" horiz-adv-x="670" 
d="M314 -15c-29.333 0 -56.3271 3.99707 -80.9941 11.9971s-46 19.167 -64 33.5s-32.167 31.5 -42.5 51.5s-15.5 42.333 -15.5 67c0 26 1.66699 50.667 5 74s7.66602 46.666 12.999 69.999l222 1000c3.33301 16 1.66602 29.333 -5.00098 40s-18.334 19.334 -35.001 26.001
l-100 43v62l474 61l-252 -1135c-4 -19.333 -7.83301 -39.166 -11.5 -59.499s-6.83398 -39.333 -9.50098 -57s-4.83398 -33.5 -6.50098 -47.5s-2.5 -24.667 -2.5 -32c0 -8 1.33301 -16.667 4 -26s7.5 -18.333 14.5 -27s16.5 -15.667 28.5 -21s26.667 -8 44 -8
c4.66699 0 11.667 0.833008 21 2.5s19.333 3.83398 30 6.50098s21.667 5.83398 33 9.50098s21.666 7.83398 30.999 12.501h29v-82c-19.333 -12 -41.5 -22.5 -66.5 -31.5s-51.5 -16.833 -79.5 -23.5s-57.167 -11.834 -87.5 -15.501s-60.5 -5.5 -90.5 -5.5z" />
    <glyph glyph-name="m" unicode="m" horiz-adv-x="1867" 
d="M1535 -15c-29.333 0 -56.166 4 -80.499 12s-45.5 19.167 -63.5 33.5s-32 31.5 -42 51.5s-15 42.333 -15 67c0 26 1.83301 50.833 5.5 74.5s8.16699 46.834 13.5 69.501l73 313c5.33301 21.333 10 44.5 14 69.5s6 46.167 6 63.5c0 38 -8.66699 68.167 -26 90.5
s-49 33.5 -95 33.5c-14.667 0 -29.834 -1.33301 -45.501 -4s-31.667 -7 -48 -13s-32.5 -14.5 -48.5 -25.5s-31 -24.5 -45 -40.5l-130 -586c-2.66699 -15.333 -4.5 -31.833 -5.5 -49.5s-1.66699 -35.334 -2 -53.001s-0.5 -34.5 -0.5 -50.5v-41h-318l136 606l6.5 34.5
c2.33301 12.333 4.5 24.833 6.5 37.5s3.5 24.5 4.5 35.5s1.5 21.167 1.5 30.5c0 17.333 -2 33.166 -6 47.499s-10.667 26.833 -20 37.5s-21.666 19 -36.999 25s-34.666 9 -57.999 9c-14.667 0 -29.834 -1.33301 -45.501 -4s-31.667 -7 -48 -13s-32.5 -14.5 -48.5 -25.5
s-31 -24.5 -45 -40.5l-130 -586c-2.66699 -15.333 -4.5 -31.833 -5.5 -49.5s-1.66699 -35.334 -2 -53.001s-0.5 -34.5 -0.5 -50.5v-41h-318l177 792c3.33301 16.667 1.66602 30.167 -5.00098 40.5s-18.667 18.833 -36 25.5l-93 40l-1 61l455 72l-30 -166h5
c35.333 36.667 68.5 66.334 99.5 89.001s60.667 40.334 89 53.001s55.166 21.167 80.499 25.5s50.333 6.5 75 6.5c30.667 0 60.167 -3.5 88.5 -10.5s53.666 -17.833 75.999 -32.5s40.833 -34.167 55.5 -58.5s24.334 -53.166 29.001 -86.499c40.667 44 78 78.667 112 104
s65.5 44.166 94.5 56.499s55.833 20 80.5 23s48.334 4.5 71.001 4.5c35.333 0 68.166 -4.66699 98.499 -14s56.5 -23.833 78.5 -43.5s39.167 -44.167 51.5 -73.5s18.5 -63.666 18.5 -102.999c0 -16.667 -1.16699 -34.5 -3.5 -53.5s-5.5 -36.833 -9.5 -53.5l-72 -308
c-4.66699 -19.333 -9 -39.166 -13 -59.499s-7.5 -39.333 -10.5 -57s-5.33301 -33.5 -7 -47.5s-2.5 -24.667 -2.5 -32c0 -8 1.5 -16.667 4.5 -26s8 -18.333 15 -27s16.333 -15.667 28 -21s26.5 -8 44.5 -8c4.66699 0 10.667 0.666992 18 2s15.333 3.16602 24 5.49902
s17.834 5.16602 27.501 8.49902s19.167 7 28.5 11h30v-82c-20 -12 -41.667 -22.333 -65 -31s-48 -16 -74 -22s-53.5 -10.667 -82.5 -14s-58.5 -5 -88.5 -5z" />
    <glyph glyph-name="n" unicode="n" horiz-adv-x="1273" 
d="M941 -15c-29.333 0 -56.332 3.99902 -80.999 11.999s-45.834 19.167 -63.501 33.5s-31.667 31.5 -42 51.5s-15.5 42.333 -15.5 67c0 26 1.83301 50.833 5.5 74.5s8.16699 46.834 13.5 69.501l73 310c5.33301 22 9.83301 44.333 13.5 67s5.5 47 5.5 73
c0 16.667 -2.16699 32.167 -6.5 46.5s-11.333 27 -21 38s-22.834 19.667 -39.501 26s-37 9.5 -61 9.5c-14.667 0 -30.334 -1.33301 -47.001 -4s-33.334 -7 -50.001 -13s-33.167 -14.5 -49.5 -25.5s-31.833 -24.833 -46.5 -41.5l-130 -585c-2 -16 -3.66699 -32.833 -5 -50.5
s-2.16602 -35.167 -2.49902 -52.5s-0.5 -33.833 -0.5 -49.5v-41.5h-318l175 792c3.33301 16.667 1.83301 30.167 -4.5 40.5s-18.166 18.833 -35.499 25.5l-94 40v61l459 72l-30 -166h5c36 40 70.5 71.667 103.5 95s64.333 40.833 94 52.5s57.5 19 83.5 22s50.333 4.5 73 4.5
c34.667 0 67.167 -4.66699 97.5 -14s56.5 -23.833 78.5 -43.5s39.333 -44.167 52 -73.5s19 -63.666 19 -102.999c0 -16.667 -1.33301 -34.5 -4 -53.5s-5.66699 -36.833 -9 -53.5l-73 -308c-4.66699 -19.333 -8.83398 -39.166 -12.501 -59.499l-10 -57
c-3 -17.667 -5.33301 -33.5 -7 -47.5s-2.5 -24.667 -2.5 -32c0 -8 1.33301 -16.667 4 -26s7.5 -18.333 14.5 -27s16.5 -15.667 28.5 -21s26.667 -8 44 -8c4.66699 0 10.667 0.666992 18 2s15.5 3.16602 24.5 5.49902s18.333 5.16602 28 8.49902s19.167 7 28.5 11h29v-82
c-19.333 -12 -40.666 -22.333 -63.999 -31s-48.166 -16 -74.499 -22s-53.833 -10.667 -82.5 -14s-58 -5 -88 -5z" />
    <glyph glyph-name="o" unicode="o" horiz-adv-x="1158" 
d="M521 89c33.333 0 63.502 10.167 90.502 30.5s50.667 46.5 71 78.5s37.666 68.167 51.999 108.5s26 80.833 35 121.5s15.5 79.5 19.5 116.5s6 67.833 6 92.5c0 18.667 -0.5 38.834 -1.5 60.501s-3.16699 43 -6.5 64s-8.5 41.333 -15.5 61s-16.5 36.834 -28.5 51.501
s-26.833 26.5 -44.5 35.5s-39.167 13.5 -64.5 13.5c-34.667 0 -65.667 -10.333 -93 -31s-51.166 -47.834 -71.499 -81.501s-37.5 -71.5 -51.5 -113.5s-25.333 -84 -34 -126s-15 -82 -19 -120s-6 -69.667 -6 -95c0 -27.333 1.83301 -56.5 5.5 -87.5
s11.167 -59.833 22.5 -86.5s27.666 -48.834 48.999 -66.501s49.666 -26.5 84.999 -26.5zM506.002 -27c-65.333 0 -125.334 9.33203 -180.001 27.999s-101.667 46 -141 82s-70.166 80 -92.499 132s-33.5 111.667 -33.5 179c0 56.667 6.5 111.834 19.5 165.501
s31.667 104.334 56 152.001s54 91.667 89 132s74.5 75 118.5 104s92 51.667 144 68s107.667 24.5 167 24.5c66.667 0 127.5 -9.5 182.5 -28.5s102 -46.667 141 -83s69.167 -80.833 90.5 -133.5s32 -113 32 -181c0 -56 -6.66699 -110.5 -20 -163.5s-32.333 -103.333 -57 -151
s-54.5 -91.334 -89.5 -131.001s-74.333 -74 -118 -103s-91.5 -51.667 -143.5 -68s-107 -24.5 -165 -24.5z" />
    <glyph glyph-name="p" unicode="p" horiz-adv-x="1232" 
d="M-175 -411l123.998 39c15.333 4.66699 27.5 11.167 36.5 19.5s15.167 19.5 18.5 33.5l242 1111c3.33301 16.667 1.83301 30.167 -4.5 40.5s-18.166 18.833 -35.499 25.5l-94 40l-1 61l455 72l-29 -163h5c36 42.667 69.667 75.667 101 99s60.5 40.333 87.5 51
s51.333 16.834 73 18.501s40.834 2.5 57.501 2.5c51.333 0 96.666 -9.66699 135.999 -29s72.333 -46.333 99 -81s47 -75.667 61 -123s21 -99 21 -155c0 -55.333 -5.83301 -110.166 -17.5 -164.499s-28.5 -106.333 -50.5 -156s-49 -95.834 -81 -138.501
s-68.5 -79.5 -109.5 -110.5s-86 -55.5 -135 -73.5s-101.5 -27 -157.5 -27c-28.667 0 -56.167 3.16699 -82.5 9.5s-50.666 14.666 -72.999 24.999s-42 22 -59 35s-30.5 25.5 -40.5 37.5l-84 -404c-3.33301 -14 -2 -25.5 4 -34.5s14.667 -15.167 26 -18.5l134 -41l-15 -70
h-627zM569.998 123c38 0 71.667 8.16797 101 24.501s55.166 38 77.499 65s41.333 58 57 93s28.334 71 38.001 108s16.667 73.667 21 110s6.5 69.5 6.5 99.5c0 28 -2.33301 56.5 -7 85.5s-13.5 55.167 -26.5 78.5s-30.667 42.5 -53 57.5s-50.5 22.5 -84.5 22.5
c-16.667 0 -33 -2 -49 -6s-31.333 -9.66699 -46 -17s-28.5 -16.333 -41.5 -27s-24.5 -22.334 -34.5 -35.001l-137 -616c24 -14 51.5 -24.667 82.5 -32s62.833 -11 95.5 -11z" />
    <glyph glyph-name="q" unicode="q" horiz-adv-x="1201" 
d="M690 146c-34.667 -41.333 -67.833 -72.999 -99.5 -94.999s-61 -38.333 -88 -49s-51.667 -16.834 -74 -18.501s-41.5 -2.5 -57.5 -2.5c-51.333 0 -96.5 9.66699 -135.5 29s-72 46.333 -99 81s-47.333 75.667 -61 123s-20.5 99 -20.5 155
c0 55.333 5.66699 110.166 17 164.499s28 106.333 50 156s49 95.834 81 138.501s68.5 79.5 109.5 110.5s86 55.5 135 73.5s101.5 27 157.5 27c26.667 0 51.667 -2.83301 75 -8.5s45 -13 65 -22s38 -19.333 54 -31s29.667 -23.167 41 -34.5l51 88h296
c-10.667 -25.333 -22.5 -55 -35.5 -89s-25.5 -74.667 -37.5 -122l-247 -1136c-2.66699 -14 -1.16699 -25.5 4.5 -34.5s14.5 -15.167 26.5 -18.5l131 -41l-8 -70h-475zM532.001 153.001c33.333 0 64.833 7.16699 94.5 21.5s55.167 33.5 76.5 57.5l137 622
c-24 14 -51.5 24.667 -82.5 32s-62.833 11 -95.5 11c-37.333 0 -70.833 -8.16699 -100.5 -24.5s-55.5 -38 -77.5 -65s-41 -58 -57 -93s-28.833 -71 -38.5 -108s-16.667 -73.667 -21 -110s-6.5 -69.5 -6.5 -99.5c0 -28 2.33301 -56.5 7 -85.5s13.5 -55.167 26.5 -78.5
s30.5 -42.5 52.5 -57.5s50.333 -22.5 85 -22.5z" />
    <glyph glyph-name="r" unicode="r" horiz-adv-x="988" 
d="M225 694l9.00098 43.5c3.33301 16.333 5 32.5 5 48.5s-2.66699 30.667 -8 44s-15.666 22.666 -30.999 27.999l-97 41v62l454 70l-37 -224h4c26 34 52.167 65.333 78.5 94s53.333 53.167 81 73.5s56.5 36.166 86.5 47.499s61.667 17 95 17
c18 0 34.167 -0.833008 48.5 -2.5s27.666 -4.16699 39.999 -7.5s24.166 -7.33301 35.499 -12s23 -10 35 -16l-47 -311h-127l-26 74c-2.66699 6.66699 -7.16699 12.834 -13.5 18.501s-13.833 10.834 -22.5 15.501s-18 8.16699 -28 10.5s-20.333 3.5 -31 3.5
c-18 0 -36 -1.33301 -54 -4s-35.833 -7.5 -53.5 -14.5s-35.5 -16.333 -53.5 -28s-36.333 -26.834 -55 -45.501l-111 -526c-2 -13.333 -3.5 -28.666 -4.5 -45.999s-1.66699 -35 -2 -53s-0.333008 -35.333 0 -52s0.5 -31 0.5 -43h-319z" />
    <glyph glyph-name="s" unicode="s" horiz-adv-x="998" 
d="M398 -27c-42.667 0 -82.9971 2.16797 -120.997 6.50098s-73.5 9.66602 -106.5 15.999s-63.333 13.666 -91 21.999s-52.5 16.166 -74.5 23.499l43 291h108l15 -106c2 -14.667 8 -27.334 18 -38.001s20 -19.334 30 -26.001c11.333 -7.33301 24.666 -15 39.999 -23
s32.166 -15.167 50.499 -21.5s38.166 -11.5 59.499 -15.5s43.666 -6 66.999 -6c28 0 53.833 3 77.5 9s44.167 15 61.5 27s30.833 26.833 40.5 44.5s14.5 38.5 14.5 62.5c0 18.667 -3.5 34.834 -10.5 48.501s-16.667 25.667 -29 36s-27 19.5 -44 27.5s-35.5 16 -55.5 24
c-13.333 4.66699 -27 9.83398 -41 15.501s-28 11 -42 16s-27.667 10.167 -41 15.5s-26 10.666 -38 15.999c-26.667 10.667 -51.834 23.834 -75.501 39.501s-44.334 34 -62.001 55s-31.5 45 -41.5 72s-15 57.833 -15 92.5c0 40 7 76.167 21 108.5s32.667 61.166 56 86.499
s50.833 47.333 82.5 66s65.5 34 101.5 46s73.167 21 111.5 27s75.833 9 112.5 9c32 0 63.833 -1.33301 95.5 -4s62.334 -6 92.001 -10s58 -8.66699 85 -14s52.167 -11 75.5 -17l-45 -291h-110l-8 106c-0.666992 12.667 -5.5 24 -14.5 34s-18.833 18.333 -29.5 25
c-10 6.66699 -21.5 13 -34.5 19s-27.167 11.333 -42.5 16s-31.833 8.33398 -49.5 11.001s-35.834 4 -54.501 4c-20 0 -39.833 -2.83301 -59.5 -8.5s-37.5 -14 -53.5 -25s-29 -25 -39 -42s-15 -36.833 -15 -59.5c0 -20 3.33301 -37.333 10 -52s15.5 -27.5 26.5 -38.5
s23.667 -20.5 38 -28.5s29.5 -15 45.5 -21l78 -32l76 -31c32.667 -13.333 62.667 -28 90 -44s50.833 -34.167 70.5 -54.5s34.834 -43.333 45.501 -69s16 -55.167 16 -88.5c0 -46.667 -7.5 -87.667 -22.5 -123s-35.167 -66.166 -60.5 -92.499
s-55.166 -48.166 -89.499 -65.499s-70.333 -31.333 -108 -42s-76.167 -18.167 -115.5 -22.5s-77.666 -6.5 -114.999 -6.5z" />
    <glyph glyph-name="t" unicode="t" horiz-adv-x="845" 
d="M380 -18c-36.667 0 -70.832 4.00195 -102.499 12.002s-59.167 19.5 -82.5 34.5s-41.5 32.833 -54.5 53.5s-19.5 44 -19.5 70c0 10 1 21.833 3 35.5l6.5 43c2.33301 15 5 30.167 8 45.5s6.16699 29.666 9.5 42.999l119 562h-157v98c32.667 4 61.5 8.5 86.5 13.5
s46.667 13 65 24s34 26 47 45s23.5 44.5 31.5 76.5l35 130l266 32l-63 -293h329l-22 -126h-334l-106 -497c-2.66699 -12 -5.33398 -25 -8.00098 -39s-5 -27.833 -7 -41.5s-3.66699 -26.834 -5 -39.501s-2 -23.667 -2 -33c0 -15.333 4.33301 -29 13 -41
s19.667 -22.333 33 -31s28.333 -15.167 45 -19.5s33.334 -6.5 50.001 -6.5c8.66699 0 19.5 0.833008 32.5 2.5s26.5 3.83398 40.5 6.50098s27.833 5.66699 41.5 9s25.167 6.66602 34.5 9.99902h31v-82c-16.667 -9.33301 -39 -19.666 -67 -30.999s-58.5 -21.833 -91.5 -31.5
s-67.333 -17.834 -103 -24.501s-69.834 -10 -102.501 -10z" />
    <glyph glyph-name="u" unicode="u" horiz-adv-x="1275" 
d="M362 -19c-35.333 0 -68.0029 4.6709 -98.0029 14.0039s-56 23.666 -78 42.999s-39.167 43.666 -51.5 72.999s-18.5 64 -18.5 104c0 16 1.16699 33.667 3.5 53s5.5 37 9.5 53l108 471c3.33301 16.667 1.66602 30.167 -5.00098 40.5s-18.334 18.833 -35.001 25.5l-94 40
l-1 61l470 72l-138 -614l-6.5 -31.5c-2.33301 -11 -4.33301 -22 -6 -33s-3 -21.5 -4 -31.5s-1.83301 -19 -2.5 -27c-0.666992 -21.333 1 -40.333 5 -57s10.833 -31 20.5 -43s22.834 -21.167 39.501 -27.5s37 -9.5 61 -9.5c15.333 0 31.166 1.33301 47.499 4s33 7 50 13
s33.833 14.333 50.5 25s32 24.667 46 42l127 578c2.66699 16 4.5 32.833 5.5 50.5s1.83301 35.167 2.5 52.5s1 33.833 1 49.5v41.5h318l-138 -623l-12 -58.5c-4 -19.667 -7.5 -38.334 -10.5 -56.001s-5.33301 -33.5 -7 -47.5s-2.5 -25.333 -2.5 -34
c0 -8 1.33301 -16.667 4 -26s7.5 -18.333 14.5 -27s16.5 -15.667 28.5 -21s26.667 -8 44 -8c4.66699 0 10.834 0.666992 18.501 2s15.834 3.16602 24.501 5.49902s17.834 5.16602 27.501 8.49902s19.167 7 28.5 11h29v-82c-19.333 -12 -40.5 -22.333 -63.5 -31
s-47.5 -16 -73.5 -22s-53.167 -10.667 -81.5 -14s-57.5 -5 -87.5 -5c-29.333 0 -56.333 4.16699 -81 12.5s-46 20 -64 35s-32.333 33 -43 54s-16.667 43.833 -18 68.5h-5c-37.333 -40.667 -72.666 -72.667 -105.999 -96s-65.166 -40.666 -95.499 -51.999
s-58.5 -18.5 -84.5 -21.5s-50.333 -4.5 -73 -4.5z" />
    <glyph glyph-name="v" unicode="v" horiz-adv-x="1101" 
d="M201 792c-2 8.66699 -3.66699 16.334 -5 23.001s-3.33301 12.667 -6 18s-6.5 10 -11.5 14s-11.833 7.33301 -20.5 10l-118 41l-1 61l404 72l97 -609l19 -131h6l187 316c26 44.667 46 86.834 60 126.501s23.833 75.667 29.5 108s9 60.666 10 84.999s1.5 43.833 1.5 58.5
v28h321v-42l-42.5 -50l-53.5 -65.5l-55.5 -72.5c-18.333 -24.667 -34.5 -48.334 -48.5 -71.001l-319 -515l-149 -206h-166z" />
    <glyph glyph-name="w" unicode="w" horiz-adv-x="1705" 
d="M207 792c-0.666992 8.66699 -1.83301 16.333 -3.5 23s-3.83398 12.667 -6.50098 18s-6.5 10 -11.5 14s-11.833 7.33301 -20.5 10l-119 41v61l407 72l72 -539l17 -176h5l243 491l116 206h181l85 -519l20 -191h6l162 311c22.667 44 39.834 85.167 51.501 123.5
s20 73.166 25 104.499s7.5 58.833 7.5 82.5s-0.333008 42.834 -1 57.501l-1 31h327v-42l-40 -50l-50.5 -66l-53.5 -72.5c-18 -25 -34 -48.5 -48 -70.5l-286 -514l-135 -206h-177l-86 533l-18 158h-5l-241 -485l-132 -206h-179z" />
    <glyph glyph-name="x" unicode="x" horiz-adv-x="1140" 
d="M75 -15c-15.333 0 -31.999 1.00098 -49.999 3.00098s-35 4.66699 -51 8l43 273h36c9.33301 -2.66699 19.166 -4.83398 29.499 -6.50098s20.5 -3 30.5 -4s19.5 -1.83301 28.5 -2.5s16.833 -1 23.5 -1c18 0 36.333 2.66699 55 8s37.334 13.5 56.001 24.5
s37.334 25.167 56.001 42.5s37.334 38.666 56.001 63.999l11.5 16.5l11.5 16l13.5 19c5 7 11.167 15.167 18.5 24.5l-135 322c-6 15.333 -12.833 29.333 -20.5 42s-19.834 21.334 -36.501 26.001l-117 38l1 61l370 72l106 -282l30 -103h4l66 102l48 71l39.5 54.5l40.5 51.5
c17.333 20 33.833 36.667 49.5 50s32 23.833 49 31.5s34.833 13.167 53.5 16.5s39.334 5 62.001 5c14.667 0 31 -0.666992 49 -2s35.333 -3.66602 52 -6.99902l-43 -275h-36c-10 2 -20.167 3.83301 -30.5 5.5s-20.5 3 -30.5 4s-19.833 1.83301 -29.5 2.5s-18.167 1 -25.5 1
c-15.333 0 -31.833 -2.33301 -49.5 -7s-36 -12.334 -55 -23.001s-38.167 -25 -57.5 -43s-38.666 -40.333 -57.999 -67c-5.33301 -6.66699 -11.333 -14.834 -18 -24.501l-25 -35.5l137 -332c4.66699 -12 10.5 -24.333 17.5 -37s15.667 -24.5 26 -35.5
s22.5 -20.167 36.5 -27.5s29.667 -11 47 -11c12.667 0 28.167 2.5 46.5 7.5s37.166 11.5 56.499 19.5h29v-82c-20 -12 -41.833 -22.5 -65.5 -31.5s-48.667 -16.667 -75 -23s-53.833 -11.166 -82.5 -14.499s-58 -5 -88 -5c-31.333 0 -57.833 3.16699 -79.5 9.5
s-40.334 16 -56.001 29s-28.834 29 -39.501 48s-20.667 40.833 -30 65.5l-54 144l-28 97h-3l-63.5 -100.5l-51.5 -76.5l-44.5 -61c-13.667 -18 -27.834 -35.333 -42.501 -52c-16.667 -20.667 -33.167 -37.667 -49.5 -51s-33 -23.833 -50 -31.5s-34.667 -13 -53 -16
s-38.833 -4.5 -61.5 -4.5z" />
    <glyph glyph-name="y" unicode="y" horiz-adv-x="1238" 
d="M315 -480c-24.667 0 -48.333 1.00098 -71 3.00098s-44.667 4.33301 -66 7s-41.333 6 -60 10l-52 11l58 241h33c19.333 -7.33301 42.833 -14.833 70.5 -22.5s56.5 -14.5 86.5 -20.5s59.667 -10.667 89 -14s55.666 -5 78.999 -5c16 0 31.167 0.5 45.5 1.5s27.333 3 39 6
s22.167 7 31.5 12s17.666 11.167 24.999 18.5c6.66699 6.66699 13.834 20.5 21.501 41.5s15.334 45.833 23.001 74.5s15.167 59 22.5 91l21 92l24 108h-5c-36.667 -41.333 -72.167 -73.833 -106.5 -97.5s-66.833 -41.167 -97.5 -52.5s-59.5 -18.333 -86.5 -21
s-51.833 -4 -74.5 -4c-35.333 0 -68 4.66699 -98 14s-56 23.666 -78 42.999s-39.167 43.666 -51.5 72.999s-18.5 64 -18.5 104c0 16 1.33301 33.667 4 53s5.66699 37 9 53l102 452c3.33301 16.667 1.83301 30.167 -4.5 40.5s-18.166 18.833 -35.499 25.5l-94 40v61l469 72
l-131 -595c-2.66699 -10 -5.16699 -20.5 -7.5 -31.5s-4.33301 -22.333 -6 -34s-3.16699 -23.334 -4.5 -35.001s-2 -23.167 -2 -34.5c0 -18.667 2.16699 -35.5 6.5 -50.5s11.333 -28.167 21 -39.5s22.667 -20 39 -26s36.5 -9 60.5 -9c14.667 0 30.5 1.33301 47.5 4
s34.5 7.16699 52.5 13.5s35.667 14.833 53 25.5s33 24.334 47 41.001l115 559c2 16 3.66699 32.833 5 50.5s2.16602 35.167 2.49902 52.5s0.5 33.833 0.5 49.5v41.5h314l-183 -941c-8 -40 -18.333 -76.833 -31 -110.5s-27.834 -65.167 -45.501 -94.5
s-38.167 -57.166 -61.5 -83.499s-48.666 -51.166 -75.999 -74.499c-36 -31.333 -71.833 -58.833 -107.5 -82.5s-72.167 -43.334 -109.5 -59.001s-76.833 -27.5 -118.5 -35.5s-86.5 -12 -134.5 -12z" />
    <glyph glyph-name="z" unicode="z" horiz-adv-x="1054" 
d="M-17 92l653 710l83 80v6h-301c-20.667 0 -37 -4.66699 -49 -14s-21 -19.666 -27 -30.999l-75 -146h-106l47 315h881v-77l-666 -725l-83 -80v-6h354c16 0 30.833 4.16699 44.5 12.5s23.5 19.166 29.5 32.499l78 167h108l-51 -336h-919z" />
    <glyph glyph-name="braceleft" unicode="{" horiz-adv-x="1043" 
d="M757 -345c-38 0 -76.3359 2.00684 -115.003 6.00684s-75.834 10.333 -111.501 19s-69.167 20.5 -100.5 35.5s-58.5 33.167 -81.5 54.5s-41.167 46.666 -54.5 75.999s-20 63 -20 101c0 16 1.33301 32.167 4 48.5s6 33.166 10 50.499l47 212c3.33301 14.667 6 29 8 43
s3 27.333 3 40c0 34 -6.5 62.167 -19.5 84.5s-31.333 40.5 -55 54.5s-51.334 24.5 -83.001 31.5s-65.5 11.5 -101.5 13.5l26 115c48 4 92 10.667 132 20s75.333 23.666 106 42.999s56.667 44.666 78 75.999s37.333 70.333 48 117l52 236c10 46 26.5 87.167 49.5 123.5
s50.333 68.166 82 95.499s67.334 50.666 107.001 69.999s81.334 35 125.001 47s88.834 20.833 135.501 26.5s93 8.5 139 8.5l-25 -109c-31.333 -2 -64.166 -6 -98.499 -12s-67 -17.167 -98 -33.5s-58.667 -39 -83 -68s-41.833 -67.833 -52.5 -116.5l-41 -183
c-15.333 -69.333 -36 -126.5 -62 -171.5s-56.5 -81.667 -91.5 -110s-74 -50 -117 -65s-88.833 -27.167 -137.5 -36.5l-6 -31c36.667 -7.33301 70.5 -16.666 101.5 -27.999s57.833 -26.666 80.5 -45.999s40.334 -43.333 53.001 -72s19 -64.334 19 -107.001
c0 -19.333 -1.5 -39.833 -4.5 -61.5s-7.16699 -44.834 -12.5 -69.501l-38 -176c-3.33301 -13.333 -5.83301 -26.5 -7.5 -39.5s-2.5 -25.5 -2.5 -37.5c0 -34 7.5 -61.333 22.5 -82s34 -36.834 57 -48.501s48.5 -20 76.5 -25s55 -8.16699 81 -9.5l-24 -110v0z" />
    <glyph glyph-name="bar" unicode="|" horiz-adv-x="982" 
d="M438 1512h166v-1932h-166v1932z" />
    <glyph glyph-name="braceright" unicode="}" horiz-adv-x="1043" 
d="M-73 -235c31.333 2 64.1709 6.00391 98.5039 12.0039s67.166 17.167 98.499 33.5s59 39.166 83 68.499s41.333 68.333 52 117l41 182c15.333 69.333 36.166 126.5 62.499 171.5s56.833 81.5 91.5 109.5s73.5 49.667 116.5 65s88.833 27.666 137.5 36.999l7 31
c-37.333 7.33301 -71.5 16.666 -102.5 27.999s-57.833 26.666 -80.5 45.999s-40.334 43.333 -53.001 72s-19 64.334 -19 107.001c0 20 1.5 40.833 4.5 62.5s7.16699 44.167 12.5 67.5l39 180c2.66699 12 4.83398 24 6.50098 36s2.5 24 2.5 36
c0 34.667 -7.33301 62.5 -22 83.5s-33.5 37.333 -56.5 49s-48.667 19.834 -77 24.501s-55.5 8 -81.5 10l24 109c38 0 76.333 -2.16699 115 -6.5s75.834 -10.833 111.501 -19.5s69.167 -20.5 100.5 -35.5s58.5 -33.333 81.5 -55s41.167 -47 54.5 -76s20 -62.167 20 -99.5
c0 -16 -1.33301 -32.167 -4 -48.5s-6 -32.5 -10 -48.5l-47 -214c-3.33301 -14.667 -6 -29.167 -8 -43.5s-3 -27.833 -3 -40.5c0 -34 6.66699 -62.167 20 -84.5s31.666 -40.166 54.999 -53.499s50.666 -23.333 81.999 -30s65.333 -11.334 102 -14.001l-26 -115
c-47.333 -3.33301 -91 -9.83301 -131 -19.5s-75.5 -24.334 -106.5 -44.001s-57.167 -45 -78.5 -76s-37.333 -70.167 -48 -117.5l-51 -234c-10.667 -47.333 -27.334 -89.5 -50.001 -126.5s-50 -69.333 -82 -97s-68 -50.834 -108 -69.501s-81.833 -34 -125.5 -46
s-88.667 -20.667 -135 -26s-92.5 -8 -138.5 -8z" />
    <glyph glyph-name="asciitilde" unicode="~" horiz-adv-x="1423" 
d="M170 411c8.66699 24 19.6689 48.8311 33.002 74.498s28.666 50.834 45.999 75.501s36.666 48.167 57.999 70.5s44.166 42 68.499 59s50.333 30.5 78 40.5s56.834 15 87.501 15c33.333 0 63.833 -3.66699 91.5 -11s53.5 -16.833 77.5 -28.5s46.833 -24.167 68.5 -37.5
l64.5 -38c21.333 -12 43.166 -21.667 65.499 -29s46.5 -11 72.5 -11c22.667 0 42.5 4.83301 59.5 14.5s32.833 23.5 47.5 41.5s28.667 39.167 42 63.5l44 80.5l122 -47c-9.33301 -24 -21 -49 -35 -75s-29.667 -51.5 -47 -76.5s-36.666 -48.833 -57.999 -71.5
s-44.166 -42.334 -68.499 -59.001s-50.166 -30 -77.499 -40s-56.333 -15 -87 -15c-33.333 0 -63.833 3.83301 -91.5 11.5s-53.5 17.334 -77.5 29.001s-47 24.167 -69 37.5s-43.667 25.833 -65 37.5s-43.333 21.334 -66 29.001s-46.667 11.5 -72 11.5
c-22.667 0 -42.334 -5 -59.001 -15s-32.334 -23.833 -47.001 -41.5s-28.667 -38.667 -42 -63l-43 -79.5z" />
    <glyph glyph-name="exclamdown" unicode="&#xa1;" horiz-adv-x="790" 
d="M96 -365l324 920h131l-96 -920l-8 -34h-358zM526 687c-24.667 0 -47.667 4.50098 -69 13.501s-40.166 21.5 -56.499 37.5s-29 34.333 -38 55s-13.5 43.334 -13.5 68.001c0 24 4.5 46.5 13.5 67.5s21.667 39.167 38 54.5s35.166 27.5 56.499 36.5s44.333 13.5 69 13.5
c25.333 0 48.833 -4.5 70.5 -13.5s40.5 -21.333 56.5 -37s28.5 -33.834 37.5 -54.501s13.5 -43 13.5 -67c0 -24.667 -4.5 -47.334 -13.5 -68.001s-21.5 -39 -37.5 -55s-34.833 -28.5 -56.5 -37.5s-45.167 -13.5 -70.5 -13.5z" />
    <glyph glyph-name="cent" unicode="&#xa2;" horiz-adv-x="1293" 
d="M547 -2c-64.667 7.33301 -121.665 24.999 -170.998 52.999s-89.833 63.333 -121.5 106s-54.667 91.334 -69 146.001s-18.833 112 -13.5 172c4.66699 60.667 16.5 116.5 35.5 167.5s43.167 97.167 72.5 138.5s63.166 78 101.499 110s79.166 59.167 122.499 81.5
s88.5 40 135.5 53s93.833 21.5 140.5 25.5l51 230h108l-51 -231c36 -2.66699 68.167 -7.5 96.5 -14.5s53.333 -14.5 75 -22.5s40.334 -16 56.001 -24s29.167 -14.333 40.5 -19l-75 -203h-43l-40.5 34c-13.667 12 -28 23.667 -43 35s-30.833 22 -47.5 32
s-34.667 18.667 -54 26l-164 -735c12.667 -2 25.334 -3.66699 38.001 -5s25.667 -2 39 -2c28.667 0 57 4.33301 85 13s54.667 19 80 31s48.666 24.833 69.999 38.5s39.333 25.834 54 36.501h33l-30 -115c-30 -23.333 -61 -44.333 -93 -63s-64.833 -34.834 -98.5 -48.501
s-68.334 -24.667 -104.001 -33s-72.167 -13.5 -109.5 -15.5l-55 -251h-107zM750.002 915.999c-4.66699 0.666992 -9.16699 1 -13.5 1h-13.5c-28 -2.66699 -52.5 -10 -73.5 -22s-38.167 -24.333 -51.5 -37c-14.667 -13.333 -29.167 -31.333 -43.5 -54
s-27.666 -48 -39.999 -76s-22.666 -58.167 -30.999 -90.5s-13.833 -65.166 -16.5 -98.499c-2.66699 -34 -3.33398 -68 -2.00098 -102s6.16602 -66.167 14.499 -96.5s21.333 -58.333 39 -84s41.5 -46.834 71.5 -63.501z" />
    <glyph glyph-name="sterling" unicode="&#xa3;" horiz-adv-x="1334" 
d="M91 148c40 16.667 72.835 35.5049 98.502 56.5049s46.5 43.667 62.5 68s28.333 50.666 37 78.999s16.667 59.166 24 92.499l19 88h-148l37 101h132l29 132c10.667 48 33.167 93.167 67.5 135.5s78.666 79.166 132.999 110.499s117.833 56.166 190.5 74.499
s152.334 27.5 239.001 27.5c33.333 0 64.166 -2 92.499 -6s54 -8.66699 77 -14s44 -11.166 63 -17.499l51.5 -17.5l-84 -232h-47l-51 39.5c-19.333 15 -41 29.167 -65 42.5s-50.667 24.666 -80 33.999s-61.333 14 -96 14c-18.667 0 -39.834 -3.83301 -63.501 -11.5
s-45.5 -21.167 -65.5 -40.5c-11.333 -11.333 -21 -22.833 -29 -34.5s-14.833 -24.167 -20.5 -37.5s-10.667 -27.833 -15 -43.5s-8.5 -33.167 -12.5 -52.5l-23 -103h381l-36 -101h-366l-13 -61c-5.33301 -25.333 -14.5 -49 -27.5 -71s-29.333 -42.667 -49 -62
s-42.167 -37.333 -67.5 -54s-53 -32.334 -83 -47.001l-2 -6l135 7h467c19.333 0 33.833 4 43.5 12s19.5 20.333 29.5 37l75 138h83l-110 -425h-1045z" />
    <glyph glyph-name="currency" unicode="&#xa4;" horiz-adv-x="1130" 
d="M69 276l154.001 154c-56.667 74.667 -85 162.667 -85 264c0 102 28 189.667 84 263l-153 154l79 79l154 -154c74.667 54.667 162 82 262 82c102.667 0 190.667 -27.667 264 -83l155 155l79 -79l-155 -155c56 -77.333 84 -164.666 84 -261.999
c0 -96.667 -28.333 -184.334 -85 -263.001l156 -155l-79 -79l-156 156c-78.667 -54.667 -166.334 -82 -263.001 -82c-101.333 0 -188.333 27 -261 81l-155 -155zM564.001 371c47.333 0 90.166 8.50195 128.499 25.502s70.833 40.333 97.5 70s47.167 64 61.5 103
s21.5 80.5 21.5 124.5c0 46.667 -7.66699 89.667 -23 129s-36.666 73.5 -63.999 102.5s-60 51.667 -98 68s-79.333 24.5 -124 24.5c-48.667 0 -92 -8.83301 -130 -26.5s-70.167 -41.5 -96.5 -71.5s-46.5 -64.5 -60.5 -103.5s-21 -79.833 -21 -122.5
c0 -47.333 7.83301 -90.833 23.5 -130.5s37.167 -73.834 64.5 -102.501s59.833 -50.834 97.5 -66.501s78.5 -23.5 122.5 -23.5z" />
    <glyph glyph-name="yen" unicode="&#xa5;" horiz-adv-x="1371" 
d="M223 71l155.999 41.999c14 3.33301 25.833 9.5 35.5 18.5s16.167 20.5 19.5 34.5l26 125h-396l21 101h397l7 32l-35 72h-347l22 101h281l-159 336c-4 8.66699 -10 16.834 -18 24.501s-18 13.167 -30 16.5l-86 29l16 73h596l-15 -73l-170 -47l144 -323l34 -111h6l383 431
l-131 50l15 73h423l-15 -69l-93 -30c-13.333 -4 -25.5 -9.5 -36.5 -16.5s-21.167 -15.167 -30.5 -24.5l-317 -339h284l-21 -101h-348l-67 -68l-8 -36h401l-22 -101h-400l-27 -125c-3.33301 -14 -1.66602 -25.5 5.00098 -34.5s16 -15.167 28 -18.5l139 -42l-15 -71h-667z" />
    <glyph glyph-name="brokenbar" unicode="&#xa6;" horiz-adv-x="982" 
d="M438 386h166v-806h-166v806zM438 1512h166v-806h-166v806z" />
    <glyph glyph-name="section" unicode="&#xa7;" horiz-adv-x="1347" 
d="M435 -329c-28 0 -58.0039 1.00293 -90.0039 3.00293s-64.167 5.66699 -96.5 11s-63.833 12.333 -94.5 21s-58.667 19.334 -84 32.001l78 222h45c27.333 -18.667 55.333 -36.334 84 -53.001s58 -31.334 88 -44.001s61 -22.834 93 -30.501s64.333 -11.5 97 -11.5
c19.333 0 39 4 59 12s38.333 19.333 55 34s30.167 32.167 40.5 52.5s15.5 42.833 15.5 67.5c0 25.333 -8.33301 48.166 -25 68.499s-38.5 39.166 -65.5 56.499s-57.333 33.833 -91 49.5l-103.5 49.5c-32 16 -63.333 33.333 -94 52s-57.834 40 -81.501 64s-43 51 -58 81
s-22.5 64 -22.5 102c0 48.667 9.16699 90.334 27.5 125.001s42.833 67.334 73.5 98.001l199 95c-36 24.667 -64.333 55 -85 91s-31 76.667 -31 122c0 42.667 9 81.667 27 117s42 67 72 95s64.333 52.5 103 73.5s78.834 38.5 120.501 52.5s83.334 24.5 125.001 31.5
s80.167 10.5 115.5 10.5c28.667 0 58.834 -1.33301 90.501 -4s63.5 -6.5 95.5 -11.5s63.167 -11.667 93.5 -20s58.833 -18.833 85.5 -31.5l-80 -222h-45c-26.667 17.333 -54.667 34.5 -84 51.5s-59.166 31.833 -89.499 44.5s-61.333 22.834 -93 30.501
s-63.167 11.5 -94.5 11.5c-20 0 -40.167 -3.83301 -60.5 -11.5s-38.5 -18.667 -54.5 -33s-29 -31.666 -39 -51.999s-15 -43.166 -15 -68.499c0 -26.667 8.5 -50.334 25.5 -71.001s39.5 -39.834 67.5 -57.501s59.5 -34.667 94.5 -51l106.5 -51.5
c30.667 -15.333 60.667 -32.333 90 -51s55.5 -39.834 78.5 -63.501s41.5 -50.167 55.5 -79.5s21 -63 21 -101c0 -24.667 -2.5 -47.167 -7.5 -67.5s-12 -39.5 -21 -57.5s-19.833 -35 -32.5 -51s-26.667 -32.333 -42 -49l-195 -91c36.667 -24 65.334 -53.833 86.001 -89.5
s31 -75.834 31 -120.501c0 -43.333 -9 -82.833 -27 -118.5s-42 -67.667 -72 -96s-64.333 -53 -103 -74s-79 -38.333 -121 -52s-83.833 -24 -125.5 -31s-80.167 -10.5 -115.5 -10.5zM792.996 313.003c12.667 11.333 25.334 24.1689 38.001 38.502s24.167 29.666 34.5 45.999
s18.666 33.333 24.999 51s9.5 35.5 9.5 53.5c0 27.333 -7.5 52.333 -22.5 75s-34 43.667 -57 63s-48.5 36.833 -76.5 52.5s-55.333 29.834 -82 42.501c-17.333 9.33301 -34.333 17.666 -51 24.999s-31.334 14.666 -44.001 21.999c-14 -11.333 -27.333 -24 -40 -38
s-24 -29.167 -34 -45.5s-18.167 -33.333 -24.5 -51s-9.5 -35.5 -9.5 -53.5c0 -25.333 6.5 -49 19.5 -71s29.833 -42.167 50.5 -60.5s43.834 -35 69.501 -50s51.5 -29.167 77.5 -42.5l62.5 -30c20.333 -9.33301 38.5 -18.333 54.5 -27z" />
    <glyph glyph-name="dieresis" unicode="&#xa8;" horiz-adv-x="1024" 
d="M451 1167c-18.667 0 -36.5 3.33594 -53.5 10.0029s-31.833 16 -44.5 28s-22.5 26.333 -29.5 43s-10.5 35 -10.5 55s3.5 38.333 10.5 55s16.833 31.167 29.5 43.5s27.5 21.833 44.5 28.5s34.833 10 53.5 10c20.667 0 39.667 -3.33301 57 -10s32.5 -15.834 45.5 -27.501
s23 -25.834 30 -42.501s10.5 -34.667 10.5 -54c0 -20.667 -3.66699 -39.334 -11 -56.001s-17.5 -31.167 -30.5 -43.5s-28.167 -22 -45.5 -29s-36 -10.5 -56 -10.5zM907 1167c-19.333 0 -37.333 3.33594 -54 10.0029s-31.334 16 -44.001 28s-22.667 26.333 -30 43
s-11 35 -11 55s3.66699 38.333 11 55s17.333 31.167 30 43.5s27.334 21.833 44.001 28.5s34.667 10 54 10c20 0 38.667 -3.33301 56 -10s32.5 -15.834 45.5 -27.501s23.167 -25.834 30.5 -42.501s11 -34.667 11 -54c0 -20.667 -3.66699 -39.334 -11 -56.001
s-17.5 -31.167 -30.5 -43.5s-28.167 -22 -45.5 -29s-36 -10.5 -56 -10.5z" />
    <glyph glyph-name="copyright" unicode="&#xa9;" horiz-adv-x="1885" 
d="M1003 143c-70 0 -133.665 10.4971 -190.998 31.4971s-106.333 51.5 -147 91.5s-72.334 88.5 -95.001 145.5s-34 121.833 -34 194.5c0 70 11.667 133.667 35 191s55.666 106.5 96.999 147.5s90.833 72.667 148.5 95s120.5 33.5 188.5 33.5c24 0 50.333 -2 79 -6
s57.5 -8.83301 86.5 -14.5s57.333 -11.667 85 -18l73.5 -16.5v-256h-110l-27 135c-1.33301 3.33301 -4 7.33301 -8 12s-7.66699 7.66699 -11 9c-28 12.667 -54.333 23.167 -79 31.5s-54.334 12.5 -89.001 12.5c-43.333 0 -81.666 -7.33301 -114.999 -22
s-61.5 -36.167 -84.5 -64.5s-40.333 -62.666 -52 -102.999s-17.5 -86.5 -17.5 -138.5c0 -56 6 -106.333 18 -151s30.833 -82.667 56.5 -114s57.834 -55.166 96.501 -71.499s84.667 -24.5 138 -24.5c28.667 0 55.5 4.5 80.5 13.5s47.667 19.667 68 32s38.666 25 54.999 38
l41.5 32.5h56v-107c-20 -16 -42.667 -32.167 -68 -48.5s-52.833 -31.166 -82.5 -44.499s-60.667 -24.333 -93 -33s-65.5 -13 -99.5 -13zM972.002 -110.003c66 0 129.333 8.50098 190 25.501s117 41 169 72s99.167 68.5 141.5 112.5s78.666 92.667 108.999 146
s53.666 110.666 69.999 171.999s24.5 125.333 24.5 192c0 66 -8.16699 129.333 -24.5 190s-39.666 117.5 -69.999 170.5s-66.666 101.333 -108.999 145s-89.5 81 -141.5 112s-108.333 55 -169 72s-124 25.5 -190 25.5s-129.5 -8.5 -190.5 -25.5s-117.667 -41 -170 -72
s-99.833 -68.333 -142.5 -112s-79 -92 -109 -145s-53.333 -109.833 -70 -170.5s-25 -124 -25 -190s8.33301 -129.833 25 -191.5s40 -119.167 70 -172.5s66.333 -102 109 -146s90.167 -81.5 142.5 -112.5s109 -55 170 -72s124.5 -25.5 190.5 -25.5zM972.002 -209.002
c-75.333 0 -148.001 9.83203 -218.001 29.499s-135.333 47.334 -196 83.001s-116 78.334 -166 128.001s-92.833 104.834 -128.5 165.501s-63.334 125.834 -83.001 195.501s-29.5 142.167 -29.5 217.5c0 74.667 9.83301 146.667 29.5 216s47.334 134.333 83.001 195
s78.5 115.834 128.5 165.501s105.333 92.167 166 127.5s126 63 196 83s142.667 30 218 30s147.5 -10 216.5 -30s133.667 -47.667 194 -83s115.5 -77.833 165.5 -127.5s92.833 -104.834 128.5 -165.501s63.334 -125.667 83.001 -195s29.5 -141.333 29.5 -216
s-9.83301 -147 -29.5 -217s-47.334 -135.333 -83.001 -196s-78.5 -115.834 -128.5 -165.501s-105.167 -92.334 -165.5 -128.001s-125.166 -63.334 -194.499 -83.001s-141.333 -29.5 -216 -29.5z" />
    <glyph glyph-name="ordfeminine" unicode="&#xaa;" horiz-adv-x="1037" 
d="M374 616c-31.333 0 -59.5029 5.16895 -84.5029 15.502s-46.333 24.5 -64 42.5s-31.167 39.333 -40.5 64s-14 51.667 -14 81c0 37.333 5.83301 70.666 17.5 99.999s27.5 54.833 47.5 76.5s43.167 40.167 69.5 55.5s54.166 27.666 83.499 36.999s59.5 16.166 90.5 20.499
s60.833 6.5 89.5 6.5c8 0 16.833 -0.5 26.5 -1.5s19.834 -2 30.501 -3l32 -3c10.667 -1 20.334 -2.16699 29.001 -3.5c4.66699 22.667 8.16699 41.667 10.5 57s3.5 30.333 3.5 45c0 35.333 -9.16699 61.666 -27.5 78.999s-44.833 26 -79.5 26
c-18.667 0 -40.167 -4.33301 -64.5 -13s-48.833 -19.334 -73.5 -32.001s-48.5 -26.167 -71.5 -40.5s-42.167 -26.833 -57.5 -37.5h-46l26 177c28.667 9.33301 55.834 17.5 81.501 24.5s51.5 13 77.5 18s52.667 8.66699 80 11s56.333 3.5 87 3.5s63.334 -2.83301 98.001 -8.5
s66.667 -15.667 96 -30s53.5 -33.666 72.5 -57.999s28.5 -55.166 28.5 -92.499c0 -14 -0.833008 -28.5 -2.5 -43.5s-3.83398 -29.833 -6.50098 -44.5s-5.5 -29.334 -8.5 -44.001s-7 -32.5 -12 -53.5l-13.5 -59l-12.5 -59.5l-12 -61
c-3.66699 -19.333 -6.83398 -36.666 -9.50098 -51.999s-4 -26.333 -4 -33c0 -8 1.33301 -15.333 4 -22s6.66699 -12.5 12 -17.5s11.833 -9 19.5 -12s16.834 -4.5 27.501 -4.5c9.33301 0 20.666 2 33.999 6s26.333 9 39 15h29v-72
c-18.667 -11.333 -38.167 -20.666 -58.5 -27.999s-40.666 -13 -60.999 -17s-40.333 -6.83301 -60 -8.5s-38.167 -2.5 -55.5 -2.5c-21.333 0 -41 2.66699 -59 8s-33.667 13 -47 23s-24.5 22.5 -33.5 37.5s-14.833 31.5 -17.5 49.5c-20 -22.667 -39.5 -41.667 -58.5 -57
s-38.5 -27.833 -58.5 -37.5s-40.667 -16.667 -62 -21s-43.666 -6.5 -66.999 -6.5zM486.997 750.002c25.333 0 49.668 5.50098 73.001 16.501s44.666 27.5 63.999 49.5l46 202c-36 0 -70 -2 -102 -6s-60.167 -12.167 -84.5 -24.5s-43.5 -29.833 -57.5 -52.5
s-21.333 -53 -22 -91c0 -14.667 1.83301 -27.834 5.5 -39.501s9.16699 -21.5 16.5 -29.5s16 -14.167 26 -18.5s21.667 -6.5 35 -6.5z" />
    <glyph glyph-name="guillemotleft" unicode="&#xab;" horiz-adv-x="1356" 
d="M201 505l22 96l437 365h154l-347 -420l164 -408h-152zM643 505l21 96l437 365h155l-347 -420l163 -408h-152z" />
    <glyph glyph-name="logicalnot" unicode="&#xac;" horiz-adv-x="1423" 
d="M1064 522h-857v164h1030v-620h-173v456z" />
    <glyph glyph-name="registered" unicode="&#xae;" horiz-adv-x="1901" 
d="M576 243l110.003 36.001c4 1.33301 7 3 9 5s3 5 3 9v648c0 4 -1.33301 6.66699 -4 8l-8 4l-110 36v64h397c73.333 0 132.833 -6.83301 178.5 -20.5s81 -31.334 106 -53.001s42 -46.167 51 -73.5s13.5 -54.666 13.5 -81.999c0 -33.333 -5.83301 -63.5 -17.5 -90.5
s-26.834 -50.5 -45.501 -70.5s-39.334 -36.667 -62.001 -50s-45.667 -23.666 -69 -30.999l222 -273c3.33301 -4.66699 8.66602 -10.667 15.999 -18s15 -12.333 23 -15l108 -33v-63h-181c-23.333 0 -41.5 1 -54.5 3s-24 6.16699 -33 12.5s-17.5 14.666 -25.5 24.999l-31 40.5
l-214 280l-91 20v-268c0 -4.66699 1.33301 -7.83398 4 -9.50098s5.66699 -3.16699 9 -4.5l111 -36v-63h-415v63zM959.003 641.001c31.333 0 58.167 4.5 80.5 13.5s40.833 21 55.5 36s25.5 32 32.5 51s10.5 38.5 10.5 58.5c0 55.333 -15.833 95.5 -47.5 120.5
s-80.167 37.5 -145.5 37.5h-78v-312c12.667 -1.33301 28.167 -2.5 46.5 -3.5s33.5 -1.5 45.5 -1.5zM972.004 -109.999c65.333 0 128.166 8.50098 188.499 25.501s116.666 41.167 168.999 72.5s99.833 68.833 142.5 112.5s79 92.167 109 145.5s53.333 110.666 70 171.999
s25 125.333 25 192c0 66 -8.33301 129.333 -25 190s-40 117.5 -70 170.5s-66.333 101.333 -109 145s-90.167 81.167 -142.5 112.5s-108.666 55.5 -168.999 72.5s-123.166 25.5 -188.499 25.5c-66.667 0 -130.334 -8.5 -191.001 -25.5s-117.167 -41.167 -169.5 -72.5
s-99.833 -68.833 -142.5 -112.5s-79.167 -92 -109.5 -145s-53.833 -109.833 -70.5 -170.5s-25 -124 -25 -190s8.33301 -129.833 25 -191.5s40.167 -119.167 70.5 -172.5s66.833 -101.833 109.5 -145.5s90.167 -81.167 142.5 -112.5s108.833 -55.5 169.5 -72.5
s124.334 -25.5 191.001 -25.5zM971.004 -208.998c-75.333 0 -147.833 9.83301 -217.5 29.5s-134.834 47.334 -195.501 83.001s-116.167 78.334 -166.5 128.001s-93.333 105 -129 166s-63.334 126.333 -83.001 196s-29.5 142.167 -29.5 217.5c0 74 9.83301 145.667 29.5 215
s47.334 134.333 83.001 195s78.667 115.834 129 165.501s105.833 92.167 166.5 127.5s125.834 63 195.501 83s142.167 30 217.5 30c74.667 0 146.834 -10 216.501 -30s134.667 -47.667 195 -83s115.5 -77.833 165.5 -127.5s92.667 -104.834 128 -165.501
s62.833 -125.667 82.5 -195s29.5 -141 29.5 -215c0 -75.333 -9.83301 -147.833 -29.5 -217.5s-47.167 -134.834 -82.5 -195.501s-78 -116 -128 -166s-105.167 -92.833 -165.5 -128.5s-125.333 -63.334 -195 -83.001s-141.834 -29.5 -216.501 -29.5z" />
    <glyph glyph-name="macron" unicode="&#xaf;" horiz-adv-x="1024" 
d="M353 1376h660l-38 -158h-660z" />
    <glyph glyph-name="macron" unicode="&#x2c9;" horiz-adv-x="1024" 
d="M353 1376h660l-38 -158h-660z" />
    <glyph glyph-name="degree" unicode="&#xb0;" horiz-adv-x="976" 
d="M553 918c35.333 0 65.335 10 90.002 30s44.667 45 60 75s26.666 62 33.999 96s11 65 11 93c0 21.333 -2.16699 42.166 -6.5 62.499s-11.333 38.333 -21 54s-22.667 28 -39 37s-36.833 13.5 -61.5 13.5c-36.667 0 -67.334 -10 -92.001 -30s-44.667 -45 -60 -75
s-26.333 -62.333 -33 -97s-10 -66.667 -10 -96c0 -22 2 -42.667 6 -62s11 -36.666 21 -51.999s23.167 -27.333 39.5 -36s36.833 -13 61.5 -13zM533.002 798c-45.333 0 -86.835 6.66602 -124.502 19.999s-70.167 32.5 -97.5 57.5s-48.666 55.667 -63.999 92
s-23 77.833 -23 124.5c0 58.667 10.667 113 32 163s50.5 93 87.5 129s80.833 64.167 131.5 84.5s105.334 30.5 164.001 30.5c44.667 0 86.167 -6.5 124.5 -19.5s71.166 -31.833 98.499 -56.5s48.833 -55.167 64.5 -91.5s23.5 -77.833 23.5 -124.5
c0 -60 -10.667 -114.833 -32 -164.5s-50.666 -92.667 -87.999 -129s-81.5 -64.666 -132.5 -84.999s-105.833 -30.5 -164.5 -30.5z" />
    <glyph glyph-name="plusminus" unicode="&#xb1;" horiz-adv-x="1423" 
d="M212 181h436v376h-436v164h436v437h168v-437h435v-164h-435v-376h435v-166h-1039v166z" />
    <glyph glyph-name="uni00B2" unicode="&#xb2;" horiz-adv-x="854" 
d="M130 917l131.499 92.5039c45 31.667 88.833 64.167 131.5 97.5s83.334 67.666 122.001 102.999s72.167 72 100.5 110s50.833 77.167 67.5 117.5s25 82.5 25 126.5c0 16.667 -1.83301 33 -5.5 49s-9.66699 30 -18 42s-19.833 21.667 -34.5 29s-32.334 11 -53.001 11
c-16 0 -32.667 -2.33301 -50 -7s-34.666 -11 -51.999 -19s-34.833 -16.833 -52.5 -26.5s-34.5 -19.667 -50.5 -30l-45 -30c-14 -9.66699 -27 -18.167 -39 -25.5h-31l13 161c21.333 11.333 44.166 22.166 68.499 32.499s50.333 19.666 78 27.999s57 15 88 20
s63.167 7.5 96.5 7.5c42 0 82.667 -4.33301 122 -13s74 -22.5 104 -41.5s54 -43 72 -72s27 -63.5 27 -103.5c0 -42 -8.66699 -82 -26 -120s-40.666 -74.667 -69.999 -110s-63.333 -69 -102 -101s-79.5 -63 -122.5 -93s-87 -58.833 -132 -86.5l-128.5 -81.5v-5l84 6h283
c13.333 0 23.833 2.66699 31.5 8s14.5 12.666 20.5 21.999l53 85h69l-77 -289h-710z" />
    <glyph glyph-name="uni00B3" unicode="&#xb3;" horiz-adv-x="842" 
d="M411 791c-30.667 0 -59.6582 1.82812 -86.9912 5.49512s-53.333 8.66699 -78 15s-47.834 13.833 -69.501 22.5s-42.167 18.334 -61.5 29.001l54 158h33c14.667 -12.667 31.667 -26.167 51 -40.5s40.166 -27.833 62.499 -40.5s45.166 -23.167 68.499 -31.5
s46.666 -12.5 69.999 -12.5c34.667 0 65.334 6.33301 92.001 19s49.167 29.334 67.5 50.001s32 44.834 41 72.501s13.5 56.5 13.5 86.5c0 26.667 -4.83301 48.834 -14.5 66.501s-22.834 31.834 -39.501 42.501s-36.334 18.334 -59.001 23.001s-47.667 7 -75 7h-93l25 123h73
c35.333 0 67.5 4.83301 96.5 14.5s53.833 23.5 74.5 41.5s36.5 40.333 47.5 67s16.5 57.334 16.5 92.001c0 29.333 -8.16699 53.333 -24.5 72s-42.5 28 -78.5 28c-20.667 0 -43.834 -4.83301 -69.501 -14.5s-51.834 -21 -78.501 -34s-51.834 -26.667 -75.501 -41
l-58.5 -35.5h-32l13 160c20.667 8.66699 42.334 17.167 65.001 25.5s46.5 15.833 71.5 22.5s51.333 12 79 16s56.834 6 87.501 6c37.333 0 76 -3.5 116 -10.5s76.333 -18.333 109 -34s59.5 -36 80.5 -61s31.5 -55.5 31.5 -91.5s-7.83301 -68.833 -23.5 -98.5
s-37.334 -56.167 -65.001 -79.5s-59.834 -43.166 -96.501 -59.499s-76 -29.166 -118 -38.499v-3c31.333 -2 62.166 -7 92.499 -15s57.333 -20.333 81 -37s42.667 -37.334 57 -62.001s21.5 -54.334 21.5 -89.001c0 -38 -7.16699 -72.833 -21.5 -104.5
s-34 -59.834 -59 -84.501s-54 -46.334 -87 -65.001s-67.833 -34 -104.5 -46s-74.167 -21 -112.5 -27s-74.833 -9 -109.5 -9z" />
    <glyph glyph-name="acute" unicode="&#xb4;" horiz-adv-x="1024" 
d="M469 1162l106.499 145.998l108.5 145c12 14.667 23.833 27.667 35.5 39s23.834 20.5 36.501 27.5s26.667 12.333 42 16s33 5.5 53 5.5c13.333 0 26.333 -2 39 -6s24 -9.83301 34 -17.5s18.167 -17 24.5 -28s9.5 -23.833 9.5 -38.5c0 -15.333 -2.5 -29 -7.5 -41
s-11.667 -22.667 -20 -32s-17.833 -18.166 -28.5 -26.499s-21.667 -16.166 -33 -23.499l-171 -106l-171 -103z" />
    <glyph glyph-name="uni00B5" unicode="&#xb5;" horiz-adv-x="1284" 
d="M-73 -453l171.001 660.002l132 613c2 14.667 3.66699 30.834 5 48.501s2.16602 35.334 2.49902 53.001l1 50.5c0.333008 16 0.5 29.667 0.5 41h318l-130 -594c-4.66699 -24 -8.66699 -47 -12 -69s-5 -41.667 -5 -59c-0.666992 -42.667 9 -75.167 29 -97.5
s55.333 -33.5 106 -33.5c16 0 32.5 1 49.5 3s33.833 5.5 50.5 10.5s33 11.5 49 19.5s31 18 45 30l133 600c2 15.333 3.66699 31.833 5 49.5s2.16602 35 2.49902 52s0.5 33.167 0.5 48.5v40h318l-138 -623l-12.5 -58.5c-4.33301 -19.667 -7.83301 -38.334 -10.5 -56.001
l-7 -47.5c-2 -14 -3 -25.333 -3 -34c0 -8 1.5 -16.667 4.5 -26s8 -18.333 15 -27s16.333 -15.667 28 -21s26.5 -8 44.5 -8c4.66699 0 10.667 0.666992 18 2s15.5 3.16602 24.5 5.49902s18.167 5.16602 27.5 8.49902s19 7 29 11h29v-82c-20 -12 -41.5 -22.333 -64.5 -31
s-47.5 -16 -73.5 -22s-53.167 -10.667 -81.5 -14s-57.5 -5 -87.5 -5c-29.333 0 -55.5 3.83301 -78.5 11.5s-43 18.5 -60 32.5s-30.333 31 -40 51s-16.167 43 -19.5 69l-16 -14c-26 -34 -50.833 -61.167 -74.5 -81.5s-46.5 -35.833 -68.5 -46.5s-43 -17.667 -63 -21
s-39 -5 -57 -5c-12.667 0 -26 1.16699 -40 3.5s-28 6.16602 -42 11.499s-27 11.666 -39 18.999s-22 16 -30 26h-4l-53 -328c-1.33301 -14.667 -2.66602 -30.667 -3.99902 -48s-2.33301 -34.833 -3 -52.5s-1.16699 -34.667 -1.5 -51s-0.5 -30.166 -0.5 -41.499h-319v27z" />
    <glyph glyph-name="uni00B5" unicode="&#x3bc;" horiz-adv-x="1284" 
d="M-73 -453l171.001 660.002l132 613c2 14.667 3.66699 30.834 5 48.501s2.16602 35.334 2.49902 53.001l1 50.5c0.333008 16 0.5 29.667 0.5 41h318l-130 -594c-4.66699 -24 -8.66699 -47 -12 -69s-5 -41.667 -5 -59c-0.666992 -42.667 9 -75.167 29 -97.5
s55.333 -33.5 106 -33.5c16 0 32.5 1 49.5 3s33.833 5.5 50.5 10.5s33 11.5 49 19.5s31 18 45 30l133 600c2 15.333 3.66699 31.833 5 49.5s2.16602 35 2.49902 52s0.5 33.167 0.5 48.5v40h318l-138 -623l-12.5 -58.5c-4.33301 -19.667 -7.83301 -38.334 -10.5 -56.001
l-7 -47.5c-2 -14 -3 -25.333 -3 -34c0 -8 1.5 -16.667 4.5 -26s8 -18.333 15 -27s16.333 -15.667 28 -21s26.5 -8 44.5 -8c4.66699 0 10.667 0.666992 18 2s15.5 3.16602 24.5 5.49902s18.167 5.16602 27.5 8.49902s19 7 29 11h29v-82c-20 -12 -41.5 -22.333 -64.5 -31
s-47.5 -16 -73.5 -22s-53.167 -10.667 -81.5 -14s-57.5 -5 -87.5 -5c-29.333 0 -55.5 3.83301 -78.5 11.5s-43 18.5 -60 32.5s-30.333 31 -40 51s-16.167 43 -19.5 69l-16 -14c-26 -34 -50.833 -61.167 -74.5 -81.5s-46.5 -35.833 -68.5 -46.5s-43 -17.667 -63 -21
s-39 -5 -57 -5c-12.667 0 -26 1.16699 -40 3.5s-28 6.16602 -42 11.499s-27 11.666 -39 18.999s-22 16 -30 26h-4l-53 -328c-1.33301 -14.667 -2.66602 -30.667 -3.99902 -48s-2.33301 -34.833 -3 -52.5s-1.16699 -34.667 -1.5 -51s-0.5 -30.166 -0.5 -41.499h-319v27z" />
    <glyph glyph-name="paragraph" unicode="&#xb6;" horiz-adv-x="1382" 
d="M679 598l-39.001 -0.000976562c-62.667 0 -120.167 7 -172.5 21s-97.166 34.833 -134.499 62.5s-66.5 62.334 -87.5 104.001s-31.5 90.167 -31.5 145.5c0 67.333 12.667 129.5 38 186.5s60.333 106.5 105 148.5s97 74.833 157 98.5s124.667 35.5 194 35.5h744l-15 -70
l-143 -46c-14.667 -4.66699 -27 -11 -37 -19s-16.667 -20 -20 -36l-345 -1555h-120l359 1621h-177l-359 -1621h-121z" />
    <glyph glyph-name="periodcentered" unicode="&#xb7;" horiz-adv-x="647" 
d="M335 382c-25.333 0 -48.833 4.66797 -70.5 14.001s-40.5 22 -56.5 38s-28.833 34.667 -38.5 56s-14.5 44.333 -14.5 69s4.83301 48 14.5 70s22.5 41 38.5 57s34.833 28.667 56.5 38s45.167 14 70.5 14c24 0 47 -4.66699 69 -14s41 -22 57 -38s28.667 -35 38 -57
s14 -45.333 14 -70s-4.66699 -47.834 -14 -69.501s-22 -40.5 -38 -56.5s-35 -28.5 -57 -37.5s-45 -13.5 -69 -13.5z" />
    <glyph glyph-name="periodcentered" unicode="&#x2219;" horiz-adv-x="647" 
d="M335 382c-25.333 0 -48.833 4.66797 -70.5 14.001s-40.5 22 -56.5 38s-28.833 34.667 -38.5 56s-14.5 44.333 -14.5 69s4.83301 48 14.5 70s22.5 41 38.5 57s34.833 28.667 56.5 38s45.167 14 70.5 14c24 0 47 -4.66699 69 -14s41 -22 57 -38s28.667 -35 38 -57
s14 -45.333 14 -70s-4.66699 -47.834 -14 -69.501s-22 -40.5 -38 -56.5s-35 -28.5 -57 -37.5s-45 -13.5 -69 -13.5z" />
    <glyph glyph-name="cedilla" unicode="&#xb8;" horiz-adv-x="1024" 
d="M431 -464c-34.667 0 -68.834 4.33203 -102.501 12.999s-65.834 21.667 -96.501 39l25 99h29c22 -16 46.333 -28.667 73 -38s53.667 -14 81 -14c14.667 0 29.167 1.66699 43.5 5s27.166 8.66602 38.499 15.999s20.333 17 27 29s10 27 10 45c0 16 -5.16699 28.5 -15.5 37.5
s-22.666 15.5 -36.999 19.5s-29.666 6.5 -45.999 7.5s-29.833 1.5 -40.5 1.5l55 217h94l-28 -107c22 0 44.5 -2.66699 67.5 -8s43.833 -13.666 62.5 -24.999s34 -26.166 46 -44.499s18 -40.5 18 -66.5c0 -41.333 -9.16699 -76.333 -27.5 -105s-42.166 -52 -71.499 -70
s-62 -31 -98 -39s-71.667 -12 -107 -12z" />
    <glyph glyph-name="uni00B9" unicode="&#xb9;" horiz-adv-x="704" 
d="M171 859l133 33c10 2.66699 18.167 7.16699 24.5 13.5s10.833 14.5 13.5 24.5l140 630l25 96h-4l-200 -39l12 56l316 129h132l-13.5 -50.5l-15 -58.5c-5 -20 -9.66699 -40 -14 -60s-8.5 -38 -12.5 -54l-144 -649c-3.33301 -11.333 -3 -20 1 -26s10.333 -10 19 -12
l125 -33l-10 -48h-538z" />
    <glyph glyph-name="ordmasculine" unicode="&#xba;" horiz-adv-x="1035" 
d="M552 704c25.333 0 48.166 7.49902 68.499 22.499s38.166 34.667 53.499 59s28.333 51.5 39 81.5s19.334 60.333 26.001 91s11.667 59.667 15 87s5 50.333 5 69c0 20 -1.16699 42.5 -3.5 67.5s-7.5 48.333 -15.5 70s-20.167 39.667 -36.5 54s-38.5 21.5 -66.5 21.5
c-26 0 -49.333 -7.66699 -70 -23s-38.667 -35.5 -54 -60.5s-28.166 -53.167 -38.499 -84.5s-18.833 -62.666 -25.5 -93.999s-11.5 -61.333 -14.5 -90s-4.5 -52.667 -4.5 -72c0 -20.667 1.5 -42.667 4.5 -66s8.66699 -44.833 17 -64.5s20.5 -36 36.5 -49
s37.333 -19.5 64 -19.5zM539 609.999c-49.333 0 -95.166 6.83203 -137.499 20.499s-78.833 34 -109.5 61s-54.667 60.5 -72 100.5s-26 86.667 -26 140c0 64.667 11.167 126.667 33.5 186s53.666 111.333 93.999 156s88.333 80.5 144 107.5s117.167 40.5 184.5 40.5
c50.667 0 97.167 -7.16699 139.5 -21.5s78.5 -35.166 108.5 -62.499s53.5 -61.166 70.5 -101.499s25.5 -87.166 25.5 -140.499c0 -64.667 -11.167 -126.334 -33.5 -185.001s-53.666 -110.334 -93.999 -155.001s-88.333 -80.167 -144 -106.5s-116.834 -39.5 -183.501 -39.5z
" />
    <glyph glyph-name="guillemotright" unicode="&#xbb;" horiz-adv-x="1356" 
d="M447 560l-163 406h152l277 -365l-21 -96l-437 -367h-155zM889 560l-164 406h152l278 -365l-22 -96l-437 -367h-155z" />
    <glyph glyph-name="onequarter" unicode="&#xbc;" horiz-adv-x="1863" 
d="M1531 1475h147l-1254 -1575h-148zM1226 -50l82.998 31.999c10.667 3.33301 18.834 8 24.501 14s9.83398 13.667 12.501 23l33 143h-442l27 125l626 603h170l-136 -602h165l-26 -126h-164l-33 -143c-2.66699 -10.667 -2 -18.667 2 -24s10.333 -9.66602 19 -12.999l74 -32
l-10 -48h-436zM1092 281.999l85 6h227l60 259l30 118h-4l-398 -378v-5zM81.998 560.999l133 33c10 2.66699 18.167 7.16699 24.5 13.5s10.833 14.5 13.5 24.5l140 630l25 96h-4l-200 -39l12 56l316 129h132l-13.5 -50.5l-15 -58.5c-5 -20 -9.66699 -40 -14 -60
s-8.5 -38 -12.5 -54l-144 -649c-3.33301 -11.333 -3 -20 1 -26s10.333 -10 19 -12l125 -33l-10 -48h-538z" />
    <glyph glyph-name="onehalf" unicode="&#xbd;" horiz-adv-x="2011" 
d="M1531 1475h147l-1254 -1575h-148zM1107 8l131.499 92.5039c45 31.667 88.833 64.167 131.5 97.5s83.334 67.666 122.001 102.999s72.167 72 100.5 110s50.833 77.167 67.5 117.5s25 82.5 25 126.5c0 16.667 -1.83301 33 -5.5 49s-9.66699 30 -18 42
s-19.833 21.667 -34.5 29s-32.334 11 -53.001 11c-16 0 -32.667 -2.33301 -50 -7s-34.666 -11 -51.999 -19s-34.833 -16.833 -52.5 -26.5s-34.5 -19.667 -50.5 -30l-45 -30c-14 -9.66699 -27 -18.167 -39 -25.5h-31l13 161c21.333 11.333 44.166 22.166 68.499 32.499
s50.333 19.666 78 27.999s57 15 88 20s63.167 7.5 96.5 7.5c42 0 82.667 -4.33301 122 -13s74 -22.5 104 -41.5s54 -43 72 -72s27 -63.5 27 -103.5c0 -42 -8.66699 -82 -26 -120s-40.666 -74.667 -69.999 -110s-63.333 -69 -102 -101s-79.5 -63 -122.5 -93
s-87 -58.833 -132 -86.5l-128.5 -81.5v-5l84 6h283c13.333 0 23.833 2.66699 31.5 8s14.5 12.666 20.5 21.999l53 85h69l-77 -289h-710zM81.999 561.004l133 33c10 2.66699 18.167 7.16699 24.5 13.5s10.833 14.5 13.5 24.5l140 630l25 96h-4l-200 -39l12 56l316 129h132
l-13.5 -50.5l-15 -58.5c-5 -20 -9.66699 -40 -14 -60s-8.5 -38 -12.5 -54l-144 -649c-3.33301 -11.333 -3 -20 1 -26s10.333 -10 19 -12l125 -33l-10 -48h-538z" />
    <glyph glyph-name="threequarters" unicode="&#xbe;" horiz-adv-x="1989" 
d="M1352 -50l82.998 31.999c10.667 3.33301 18.834 8 24.501 14s9.83398 13.667 12.501 23l33 143h-442l27 125l626 603h170l-136 -602h165l-26 -126h-164l-33 -143c-2.66699 -10.667 -2 -18.667 2 -24s10.333 -9.66602 19 -12.999l74 -32l-10 -48h-436zM1218 281.999l85 6
h227l60 259l30 118h-4l-398 -378v-5zM1630 1475h147l-1254 -1575h-148zM321.998 492.999c-30.667 0 -59.6582 1.82812 -86.9912 5.49512s-53.333 8.66699 -78 15s-47.834 13.833 -69.501 22.5s-42.167 18.334 -61.5 29.001l54 158h33
c14.667 -12.667 31.667 -26.167 51 -40.5s40.166 -27.833 62.499 -40.5s45.166 -23.167 68.499 -31.5s46.666 -12.5 69.999 -12.5c34.667 0 65.334 6.33301 92.001 19s49.167 29.334 67.5 50.001s32 44.834 41 72.501s13.5 56.5 13.5 86.5
c0 26.667 -4.83301 48.834 -14.5 66.501s-22.834 31.834 -39.501 42.501s-36.334 18.334 -59.001 23.001s-47.667 7 -75 7h-93l25 123h73c35.333 0 67.5 4.83301 96.5 14.5s53.833 23.5 74.5 41.5s36.5 40.333 47.5 67s16.5 57.334 16.5 92.001
c0 29.333 -8.16699 53.333 -24.5 72s-42.5 28 -78.5 28c-20.667 0 -43.834 -4.83301 -69.501 -14.5s-51.834 -21 -78.501 -34s-51.834 -26.667 -75.501 -41l-58.5 -35.5h-32l13 160c20.667 8.66699 42.334 17.167 65.001 25.5s46.5 15.833 71.5 22.5s51.333 12 79 16
s56.834 6 87.501 6c37.333 0 76 -3.5 116 -10.5s76.333 -18.333 109 -34s59.5 -36 80.5 -61s31.5 -55.5 31.5 -91.5s-7.83301 -68.833 -23.5 -98.5s-37.334 -56.167 -65.001 -79.5s-59.834 -43.166 -96.501 -59.499s-76 -29.166 -118 -38.499v-3
c31.333 -2 62.166 -7 92.499 -15s57.333 -20.333 81 -37s42.667 -37.334 57 -62.001s21.5 -54.334 21.5 -89.001c0 -38 -7.16699 -72.833 -21.5 -104.5s-34 -59.834 -59 -84.501s-54 -46.334 -87 -65.001s-67.833 -34 -104.5 -46s-74.167 -21 -112.5 -27
s-74.833 -9 -109.5 -9z" />
    <glyph glyph-name="questiondown" unicode="&#xbf;" horiz-adv-x="1130" 
d="M492 -433c-50.667 0 -101.5 5.83105 -152.5 17.498s-97.167 30.667 -138.5 57s-74.833 60.166 -100.5 101.499s-38.5 91.666 -38.5 150.999c0 52.667 7.83301 101.334 23.5 146.001s37.334 85.5 65.001 122.5s60 70.167 97 99.5s76.833 54.833 119.5 76.5
s87 39.667 133 54s92 24.833 138 31.5l54 156h137l-47 -332c-38 -3.33301 -75 -9.16602 -111 -17.499s-70 -19.666 -102 -33.999s-61.5 -31.666 -88.5 -51.999s-50.333 -44 -70 -71s-34.834 -57.667 -45.501 -92s-16 -72.5 -16 -114.5c0 -24 2.66699 -45.667 8 -65
s13.833 -36 25.5 -50s26.5 -25 44.5 -33s40 -12 66 -12c30.667 0 62.334 6 95.001 18s65.167 26.667 97.5 44s63.666 36 93.999 56l82.5 54h44l-16 -221c-64 -26 -129 -47.667 -195 -65s-133.667 -26 -203 -26zM795 685.998c-24.667 0 -47.666 4.49805 -68.999 13.498
s-40.166 21.333 -56.499 37s-29 34 -38 55s-13.5 43.833 -13.5 68.5c0 23.333 4.5 45.5 13.5 66.5s21.667 39.333 38 55s35.166 28 56.499 37s44.333 13.5 69 13.5c24 0 47 -4.5 69 -13.5s41 -21.167 57 -36.5s28.667 -33.666 38 -54.999s14 -43.666 14 -66.999
c0 -24.667 -4.5 -47.5 -13.5 -68.5s-21.667 -39.333 -38 -55s-35.333 -28 -57 -37s-44.834 -13.5 -69.501 -13.5z" />
    <glyph glyph-name="Agrave" unicode="&#xc0;" horiz-adv-x="1391" 
d="M-138 71l109 47c11.333 4.66699 22.5 12.5 33.5 23.5s20.167 22.167 27.5 33.5l615 1013l171 233h171l210 -1250c2.66699 -14 8 -26.5 16 -37.5s19 -18.833 33 -23.5l105 -39l-16 -71h-605l15 71l163 54l-60 361h-466l-212 -360l162 -55l-16 -71h-472zM827 614l-57 332
l-20 145h-6l-283 -477h366zM986 1512l-94.999 59.001l-83 51.5l-74.5 47.5c-23.667 15.333 -46.834 31.333 -69.501 48c-24 17.333 -43.5 34.666 -58.5 51.999s-22.5 39.333 -22.5 66c0 14.667 3.16699 28 9.5 40s15 22.333 26 31s23.5 15.334 37.5 20.001s28.667 7 44 7
c18 0 34 -1.33301 48 -4s26.833 -7.33398 38.5 -14.001s23 -15.5 34 -26.5s22.167 -24.833 33.5 -41.5l42 -64.5l44 -68l49 -75l57 -85.5l-60 -43v0z" />
    <glyph glyph-name="Aacute" unicode="&#xc1;" horiz-adv-x="1391" 
d="M-138 71l109 47c11.333 4.66699 22.5 12.5 33.5 23.5s20.167 22.167 27.5 33.5l615 1013l171 233h171l210 -1250c2.66699 -14 8 -26.5 16 -37.5s19 -18.833 33 -23.5l105 -39l-16 -71h-605l15 71l163 54l-60 361h-466l-212 -360l162 -55l-16 -71h-472zM827 614l-57 332
l-20 145h-6l-283 -477h366zM714 1555l106.499 145.001l108.5 145c12 15.333 23.833 28.666 35.5 39.999s23.834 20.5 36.501 27.5s26.667 12.333 42 16s33 5.5 53 5.5c13.333 0 26.333 -2 39 -6s24 -9.83301 34 -17.5s18.167 -17.167 24.5 -28.5s9.5 -24.333 9.5 -39
s-2.5 -28 -7.5 -40s-11.667 -22.833 -20 -32.5s-17.833 -18.5 -28.5 -26.5s-21.667 -15.667 -33 -23l-171 -106l-171 -103z" />
    <glyph glyph-name="Acircumflex" unicode="&#xc2;" horiz-adv-x="1391" 
d="M-138 71l109 47c11.333 4.66699 22.5 12.5 33.5 23.5s20.167 22.167 27.5 33.5l615 1013l171 233h171l210 -1250c2.66699 -14 8 -26.5 16 -37.5s19 -18.833 33 -23.5l105 -39l-16 -71h-605l15 71l163 54l-60 361h-466l-212 -360l162 -55l-16 -71h-472zM827 614l-57 332
l-20 145h-6l-283 -477h366zM525 1550l251 293c24 27.333 48.833 48 74.5 62s54.167 21 85.5 21s58 -6.83301 80 -20.5s40 -34.5 54 -62.5l148 -292l-61 -40l-243 231l-334 -233z" />
    <glyph glyph-name="Atilde" unicode="&#xc3;" horiz-adv-x="1391" 
d="M-138 71l109 47c11.333 4.66699 22.5 12.5 33.5 23.5s20.167 22.167 27.5 33.5l615 1013l171 233h171l210 -1250c2.66699 -14 8 -26.5 16 -37.5s19 -18.833 33 -23.5l105 -39l-16 -71h-605l15 71l163 54l-60 361h-466l-212 -360l162 -55l-16 -71h-472zM827 614l-57 332
l-20 145h-6l-283 -477h366zM516 1560c11.333 42 26.5 80.332 45.5 114.999s40.833 64.667 65.5 90s51.667 44.833 81 58.5s60 20.5 92 20.5c22 0 45 -4.66699 69 -14s51 -22.666 81 -39.999c29.333 -16.667 53.5 -28.167 72.5 -34.5s34.167 -9.5 45.5 -9.5
c34.667 0 61 10.167 79 30.5s33.333 47.833 46 82.5h87c-10.667 -41.333 -25.167 -79.5 -43.5 -114.5s-39.5 -65 -63.5 -90s-50.5 -44.5 -79.5 -58.5s-59.833 -21 -92.5 -21c-12 0 -22.833 0.833008 -32.5 2.5s-20 4.66699 -31 9s-23.167 10.166 -36.5 17.499l-47 27
c-28 17.333 -52 29.333 -72 36s-36 10 -48 10c-34.667 0 -62 -10.667 -82 -32s-36 -49.666 -48 -84.999h-88v0z" />
    <glyph glyph-name="Adieresis" unicode="&#xc4;" horiz-adv-x="1391" 
d="M-138 71l109 47c11.333 4.66699 22.5 12.5 33.5 23.5s20.167 22.167 27.5 33.5l615 1013l171 233h171l210 -1250c2.66699 -14 8 -26.5 16 -37.5s19 -18.833 33 -23.5l105 -39l-16 -71h-605l15 71l163 54l-60 361h-466l-212 -360l162 -55l-16 -71h-472zM827 614l-57 332
l-20 145h-6l-283 -477h366zM664 1560c-18.667 0 -36.5 3.33398 -53.5 10.001s-31.833 16 -44.5 28s-22.5 26.333 -29.5 43s-10.5 34.667 -10.5 54c0 20.667 3.5 39.334 10.5 56.001s16.833 31.167 29.5 43.5s27.5 21.833 44.5 28.5s34.833 10 53.5 10
c20.667 0 39.667 -3.33301 57 -10s32.5 -15.834 45.5 -27.501s23 -25.834 30 -42.501s10.5 -35 10.5 -55s-3.66699 -38.5 -11 -55.5s-17.5 -31.667 -30.5 -44s-28.167 -21.833 -45.5 -28.5s-36 -10 -56 -10zM1120 1560c-19.333 0 -37.333 3.33398 -54 10.001
s-31.334 16 -44.001 28s-22.667 26.333 -30 43s-11 34.667 -11 54c0 20.667 3.66699 39.334 11 56.001s17.333 31.167 30 43.5s27.334 21.833 44.001 28.5s34.667 10 54 10c20 0 38.667 -3.33301 56 -10s32.5 -15.834 45.5 -27.501s23.167 -25.834 30.5 -42.501
s11 -35 11 -55s-3.66699 -38.5 -11 -55.5s-17.5 -31.667 -30.5 -44s-28.167 -21.833 -45.5 -28.5s-36 -10 -56 -10z" />
    <glyph glyph-name="Aring" unicode="&#xc5;" horiz-adv-x="1391" 
d="M-138 71l109 47c11.333 4.66699 22.5 12.5 33.5 23.5s20.167 22.167 27.5 33.5l615 1013l171 233h171l210 -1250c2.66699 -14 8 -26.5 16 -37.5s19 -18.833 33 -23.5l105 -39l-16 -71h-605l15 71l163 54l-60 361h-466l-212 -360l162 -55l-16 -71h-472zM827 614l-57 332
l-20 145h-6l-283 -477h366zM933 1580c22.667 0 41.667 5.83203 57 17.499s27.833 26.167 37.5 43.5s16.5 36.666 20.5 57.999s6 41 6 59c0 14 -1.33301 28 -4 42s-7.66699 26.833 -15 38.5s-16.333 21.167 -27 28.5s-24.334 11 -41.001 11
c-23.333 0 -43.166 -5.83301 -59.499 -17.5s-29.333 -26.167 -39 -43.5s-16.667 -36.666 -21 -57.999s-6.5 -41.666 -6.5 -60.999c0 -14.667 1.66699 -29 5 -43s8.66602 -26.667 15.999 -38s16.833 -20.333 28.5 -27s25.834 -10 42.501 -10zM907 1509
c-28.667 0 -56 3.33496 -82 10.002s-49 17.334 -69 32.001s-35.667 33.167 -47 55.5s-17 49.166 -17 80.499c0 41.333 8.16699 78.166 24.5 110.499s38.333 59.833 66 82.5s59.667 39.834 96 51.501s74.5 17.5 114.5 17.5c28.667 0 55.667 -3.5 81 -10.5
s47.5 -17.667 66.5 -32s34 -32.833 45 -55.5s16.5 -49 16.5 -79c0 -40.667 -8 -77.334 -24 -110.001s-37.5 -60.334 -64.5 -83.001s-58.333 -40 -94 -52s-73.167 -18 -112.5 -18z" />
    <glyph glyph-name="AE" unicode="&#xc6;" horiz-adv-x="2132" 
d="M-147 71l109.001 41.998c12 4.66699 26 12.334 42 23.001s29.333 22.334 40 35.001l839 1006c4 4 8.33301 9 13 15s9 12.5 13 19.5s7.5 13.833 10.5 20.5s4.5 13.334 4.5 20.001c0 4 -1.33301 7.83301 -4 11.5s-6 6.66699 -10 9s-8.33301 4.5 -13 6.5s-9 3.66699 -13 5
l-135 46l15 70h1410l-83 -374h-95l-26 206c-1.33301 11.333 -4.5 20.166 -9.5 26.499s-12.833 9.5 -23.5 9.5h-448l-119 -514h275c13.333 0 23.666 2.83301 30.999 8.5s14.333 13.834 21 24.501l98 162h82l-115 -518h-82l-26 160c-2 11.333 -5.16699 20.166 -9.5 26.499
s-12.833 9.5 -25.5 9.5h-276l-111 -495h556c11.333 0 21 3.5 29 10.5s14.667 15.5 20 25.5l121 233h95l-89 -401h-1232l15 71l140 45c13.333 4.66699 25 11.5 35 20.5s16.667 20.833 20 35.5l103 453h-447l-404 -497l156 -57l-16 -71h-497zM1073 751.998l118 523h-52
l-435 -523h369z" />
    <glyph glyph-name="Ccedilla" unicode="&#xc7;" horiz-adv-x="1294" 
d="M565 -464c-34.667 0 -69 4.50586 -103 13.5059s-66.667 21.833 -98 38.5l25 99h29c10.667 -8 22.5 -15.167 35.5 -21.5s26.333 -11.666 40 -15.999s27.334 -7.83301 41.001 -10.5s26.834 -4 39.501 -4c14.667 0 29.334 1.66699 44.001 5s27.667 8.66602 39 15.999
s20.5 17 27.5 29s10.5 27 10.5 45c0 16 -5.16699 28.5 -15.5 37.5s-23 15.5 -38 19.5s-30.5 6.5 -46.5 7.5s-29.667 1.5 -41 1.5l48 178c-82 6 -155 24.167 -219 54.5s-118.167 71.166 -162.5 122.499s-78 112.166 -101 182.499s-34.5 148.166 -34.5 233.499
c0 79.333 8.83301 155.666 26.5 228.999s43.334 142 77.001 206s74.5 122.333 122.5 175s102 97.667 162 135s125.5 66.333 196.5 87s146.5 31 226.5 31c37.333 0 76.833 -2.66699 118.5 -8s82.667 -12 123 -20s78.166 -16.833 113.499 -26.5s65.666 -18.834 90.999 -27.501
l-71 -357l-92 -1l-32 185c-2 10.667 -5.83301 19.5 -11.5 26.5s-12.5 12.5 -20.5 16.5c-17.333 10 -37.333 19.667 -60 29s-46.834 17.666 -72.501 24.999s-51.5 13.166 -77.5 17.499s-50.333 6.5 -73 6.5c-58 0 -112.667 -18.167 -164 -54.5s-96.333 -86 -135 -149
s-69.334 -136.667 -92.001 -221s-34 -174.5 -34 -270.5c0 -71.333 6.83301 -135.333 20.5 -192s35.167 -104.834 64.5 -144.501s67.5 -70 114.5 -91s103.833 -31.5 170.5 -31.5c38.667 0 77.334 5.83301 116.001 17.5s75.667 26.167 111 43.5s68.5 36 99.5 56
s57.833 38.333 80.5 55h54l-29 -128c-30.667 -22.667 -64 -46 -100 -70s-75 -46.333 -117 -67s-87.667 -38.167 -137 -52.5s-102.666 -22.5 -159.999 -24.5l-20 -66c22 0 44.667 -2.66699 68 -8s44.666 -13.666 63.999 -24.999s35.166 -26.166 47.499 -44.499
s18.5 -40.5 18.5 -66.5c0 -41.333 -9.5 -76.333 -28.5 -105s-43.333 -52 -73 -70s-62.5 -31 -98.5 -39s-72 -12 -108 -12z" />
    <glyph glyph-name="Egrave" unicode="&#xc8;" horiz-adv-x="1345" 
d="M-37 71l139 45.002c14 4.66699 25.833 11.5 35.5 20.5s16.167 20.833 19.5 35.5l235 1057c3.33301 14.667 1.83301 26.667 -4.5 36s-15.5 15.666 -27.5 18.999l-140 46l16 70h1151l-83 -374h-95l-26 206c-1.33301 11.333 -4.33301 20.166 -9 26.499s-13 9.5 -25 9.5h-450
l-106 -475h275c14 0 24.667 3 32 9s14 14.333 20 25l98 161h82l-115 -520h-82l-28 160c-1.33301 11.333 -4 20.166 -8 26.499s-13 9.5 -27 9.5h-275l-118 -532h554c11.333 0 21 3.33301 29 10s14.667 15.334 20 26.001l121 233h95l-90 -401h-1229zM1005 1512l-94.999 59.001
l-83 51.5l-74.5 47.5c-23.667 15.333 -46.834 31.333 -69.501 48c-24 17.333 -43.5 34.666 -58.5 51.999s-22.5 39.333 -22.5 66c0 14.667 3.16699 28 9.5 40s15 22.333 26 31s23.5 15.334 37.5 20.001s28.667 7 44 7c18 0 34 -1.33301 48 -4s26.833 -7.33398 38.5 -14.001
s23 -15.5 34 -26.5s22.167 -24.833 33.5 -41.5l42 -64.5l44 -68l49 -75l57 -85.5l-60 -43v0z" />
    <glyph glyph-name="Eacute" unicode="&#xc9;" horiz-adv-x="1345" 
d="M-37 71l139 45.002c14 4.66699 25.833 11.5 35.5 20.5s16.167 20.833 19.5 35.5l235 1057c3.33301 14.667 1.83301 26.667 -4.5 36s-15.5 15.666 -27.5 18.999l-140 46l16 70h1151l-83 -374h-95l-26 206c-1.33301 11.333 -4.33301 20.166 -9 26.499s-13 9.5 -25 9.5h-450
l-106 -475h275c14 0 24.667 3 32 9s14 14.333 20 25l98 161h82l-115 -520h-82l-28 160c-1.33301 11.333 -4 20.166 -8 26.499s-13 9.5 -27 9.5h-275l-118 -532h554c11.333 0 21 3.33301 29 10s14.667 15.334 20 26.001l121 233h95l-90 -401h-1229zM726 1555l106.499 145.001
l108.5 145c12 15.333 23.833 28.666 35.5 39.999s23.834 20.5 36.501 27.5s26.667 12.333 42 16s33 5.5 53 5.5c13.333 0 26.333 -2 39 -6s24 -9.83301 34 -17.5s18.167 -17.167 24.5 -28.5s9.5 -24.333 9.5 -39s-2.5 -28 -7.5 -40s-11.667 -22.833 -20 -32.5
s-17.833 -18.5 -28.5 -26.5s-21.667 -15.667 -33 -23l-171 -106l-171 -103z" />
    <glyph glyph-name="Ecircumflex" unicode="&#xca;" horiz-adv-x="1345" 
d="M-37 71l139 45.002c14 4.66699 25.833 11.5 35.5 20.5s16.167 20.833 19.5 35.5l235 1057c3.33301 14.667 1.83301 26.667 -4.5 36s-15.5 15.666 -27.5 18.999l-140 46l16 70h1151l-83 -374h-95l-26 206c-1.33301 11.333 -4.33301 20.166 -9 26.499s-13 9.5 -25 9.5h-450
l-106 -475h275c14 0 24.667 3 32 9s14 14.333 20 25l98 161h82l-115 -520h-82l-28 160c-1.33301 11.333 -4 20.166 -8 26.499s-13 9.5 -27 9.5h-275l-118 -532h554c11.333 0 21 3.33301 29 10s14.667 15.334 20 26.001l121 233h95l-90 -401h-1229zM514 1550l251 293
c24 27.333 48.833 48 74.5 62s54.167 21 85.5 21s58 -6.83301 80 -20.5s40 -34.5 54 -62.5l148 -292l-61 -40l-243 231l-334 -233z" />
    <glyph glyph-name="Edieresis" unicode="&#xcb;" horiz-adv-x="1345" 
d="M-37 71l139 45.002c14 4.66699 25.833 11.5 35.5 20.5s16.167 20.833 19.5 35.5l235 1057c3.33301 14.667 1.83301 26.667 -4.5 36s-15.5 15.666 -27.5 18.999l-140 46l16 70h1151l-83 -374h-95l-26 206c-1.33301 11.333 -4.33301 20.166 -9 26.499s-13 9.5 -25 9.5h-450
l-106 -475h275c14 0 24.667 3 32 9s14 14.333 20 25l98 161h82l-115 -520h-82l-28 160c-1.33301 11.333 -4 20.166 -8 26.499s-13 9.5 -27 9.5h-275l-118 -532h554c11.333 0 21 3.33301 29 10s14.667 15.334 20 26.001l121 233h95l-90 -401h-1229zM657 1560
c-18.667 0 -36.5 3.33398 -53.5 10.001s-31.833 16 -44.5 28s-22.5 26.333 -29.5 43s-10.5 34.667 -10.5 54c0 20.667 3.5 39.334 10.5 56.001s16.833 31.167 29.5 43.5s27.5 21.833 44.5 28.5s34.833 10 53.5 10c20.667 0 39.667 -3.33301 57 -10
s32.5 -15.834 45.5 -27.501s23 -25.834 30 -42.501s10.5 -35 10.5 -55s-3.66699 -38.5 -11 -55.5s-17.5 -31.667 -30.5 -44s-28.167 -21.833 -45.5 -28.5s-36 -10 -56 -10zM1113 1560c-19.333 0 -37.333 3.33398 -54 10.001s-31.334 16 -44.001 28s-22.667 26.333 -30 43
s-11 34.667 -11 54c0 20.667 3.66699 39.334 11 56.001s17.333 31.167 30 43.5s27.334 21.833 44.001 28.5s34.667 10 54 10c20 0 38.667 -3.33301 56 -10s32.5 -15.834 45.5 -27.501s23.167 -25.834 30.5 -42.501s11 -35 11 -55s-3.66699 -38.5 -11 -55.5
s-17.5 -31.667 -30.5 -44s-28.167 -21.833 -45.5 -28.5s-36 -10 -56 -10z" />
    <glyph glyph-name="Igrave" unicode="&#xcc;" horiz-adv-x="795" 
d="M-32 71l140 45.001c14 4.66699 25.833 11.5 35.5 20.5s16.167 20.833 19.5 35.5l235 1057c3.33301 14.667 1.5 26.667 -5.5 36s-15.833 15.666 -26.5 18.999l-141 46l16 70h666l-15 -70l-140 -46c-12.667 -4 -24.334 -10.667 -35.001 -20s-17.667 -21 -21 -35l-235 -1057
c-3.33301 -15.333 -1.66602 -27.5 5.00098 -36.5s16 -15.5 28 -19.5l140 -45l-16 -71h-667zM762 1512l-94.999 59.001l-83 51.5l-74.5 47.5c-23.667 15.333 -46.834 31.333 -69.501 48c-24 17.333 -43.5 34.666 -58.5 51.999s-22.5 39.333 -22.5 66
c0 14.667 3.16699 28 9.5 40s15 22.333 26 31s23.5 15.334 37.5 20.001s28.667 7 44 7c18 0 34 -1.33301 48 -4s26.833 -7.33398 38.5 -14.001s23 -15.5 34 -26.5s22.167 -24.833 33.5 -41.5l42 -64.5l44 -68l49 -75l57 -85.5l-60 -43v0z" />
    <glyph glyph-name="Iacute" unicode="&#xcd;" horiz-adv-x="795" 
d="M-32 71l140 45.001c14 4.66699 25.833 11.5 35.5 20.5s16.167 20.833 19.5 35.5l235 1057c3.33301 14.667 1.5 26.667 -5.5 36s-15.833 15.666 -26.5 18.999l-141 46l16 70h666l-15 -70l-140 -46c-12.667 -4 -24.334 -10.667 -35.001 -20s-17.667 -21 -21 -35l-235 -1057
c-3.33301 -15.333 -1.66602 -27.5 5.00098 -36.5s16 -15.5 28 -19.5l140 -45l-16 -71h-667zM405 1555l106.499 145.001l108.5 145c12 15.333 23.833 28.666 35.5 39.999s23.834 20.5 36.501 27.5s26.667 12.333 42 16s33 5.5 53 5.5c13.333 0 26.333 -2 39 -6
s24 -9.83301 34 -17.5s18.167 -17.167 24.5 -28.5s9.5 -24.333 9.5 -39s-2.5 -28 -7.5 -40s-11.667 -22.833 -20 -32.5s-17.833 -18.5 -28.5 -26.5s-21.667 -15.667 -33 -23l-171 -106l-171 -103z" />
    <glyph glyph-name="Icircumflex" unicode="&#xce;" horiz-adv-x="795" 
d="M-32 71l140 45.001c14 4.66699 25.833 11.5 35.5 20.5s16.167 20.833 19.5 35.5l235 1057c3.33301 14.667 1.5 26.667 -5.5 36s-15.833 15.666 -26.5 18.999l-141 46l16 70h666l-15 -70l-140 -46c-12.667 -4 -24.334 -10.667 -35.001 -20s-17.667 -21 -21 -35l-235 -1057
c-3.33301 -15.333 -1.66602 -27.5 5.00098 -36.5s16 -15.5 28 -19.5l140 -45l-16 -71h-667zM254 1550l251 293c24 27.333 48.833 48 74.5 62s54.167 21 85.5 21s58 -6.83301 80 -20.5s40 -34.5 54 -62.5l148 -292l-61 -40l-243 231l-334 -233z" />
    <glyph glyph-name="Idieresis" unicode="&#xcf;" horiz-adv-x="795" 
d="M-32 71l140 45.001c14 4.66699 25.833 11.5 35.5 20.5s16.167 20.833 19.5 35.5l235 1057c3.33301 14.667 1.5 26.667 -5.5 36s-15.833 15.666 -26.5 18.999l-141 46l16 70h666l-15 -70l-140 -46c-12.667 -4 -24.334 -10.667 -35.001 -20s-17.667 -21 -21 -35l-235 -1057
c-3.33301 -15.333 -1.66602 -27.5 5.00098 -36.5s16 -15.5 28 -19.5l140 -45l-16 -71h-667zM390 1560c-18.667 0 -36.5 3.33398 -53.5 10.001s-31.833 16 -44.5 28s-22.5 26.333 -29.5 43s-10.5 34.667 -10.5 54c0 20.667 3.5 39.334 10.5 56.001s16.833 31.167 29.5 43.5
s27.5 21.833 44.5 28.5s34.833 10 53.5 10c20.667 0 39.667 -3.33301 57 -10s32.5 -15.834 45.5 -27.501s23 -25.834 30 -42.501s10.5 -35 10.5 -55s-3.66699 -38.5 -11 -55.5s-17.5 -31.667 -30.5 -44s-28.167 -21.833 -45.5 -28.5s-36 -10 -56 -10zM846 1560
c-19.333 0 -37.333 3.33398 -54 10.001s-31.334 16 -44.001 28s-22.667 26.333 -30 43s-11 34.667 -11 54c0 20.667 3.66699 39.334 11 56.001s17.333 31.167 30 43.5s27.334 21.833 44.001 28.5s34.667 10 54 10c20 0 38.667 -3.33301 56 -10s32.5 -15.834 45.5 -27.501
s23.167 -25.834 30.5 -42.501s11 -35 11 -55s-3.66699 -38.5 -11 -55.5s-17.5 -31.667 -30.5 -44s-28.167 -21.833 -45.5 -28.5s-36 -10 -56 -10z" />
    <glyph glyph-name="Eth" unicode="&#xd0;" horiz-adv-x="1514" 
d="M-37 71l138.001 45.002c14 4.66699 26 11.5 36 20.5s16.667 20.833 20 35.5l110 492h-171l28 128h171l97 437c3.33301 14.667 2 26.667 -4 36s-15.333 15.666 -28 18.999l-138 46l16 70h647c42 0 86.333 -3.66699 133 -11s92.667 -19.5 138 -36.5
s88.666 -39.333 129.999 -67s77.5 -62.167 108.5 -103.5s55.833 -89.833 74.5 -145.5s28 -119.834 28 -192.501c0 -94 -10.5 -180 -31.5 -258s-50.5 -148.333 -88.5 -211s-83.167 -117.5 -135.5 -164.5s-109.833 -86 -172.5 -117s-129.5 -54.333 -200.5 -70
s-143.833 -23.5 -218.5 -23.5h-702zM663.001 130.002c52.667 0 102.167 8.16699 148.5 24.5s88.333 39.333 126 69s71 65.5 100 107.5s53.667 88.333 74 139s35.5 105 45.5 163s15 118.667 15 182c0 68 -7.66699 129.833 -23 185.5s-38.333 103.5 -69 143.5
s-68.667 71 -114 93s-98 33 -158 33h-109l-106 -478h321l-28 -128h-322l-118 -534h217z" />
    <glyph glyph-name="Ntilde" unicode="&#xd1;" horiz-adv-x="1580" 
d="M585 941l-63.0029 145.002h-6l-201 -908c-3.33301 -14.667 -2.16602 -26.334 3.50098 -35.001s14.834 -15.334 27.501 -20.001l137 -52l-16 -71h-517l15 71l138 52c14 5.33301 26 12.333 36 21s16.667 20 20 34l232 1048c3.33301 14.667 1.66602 26.5 -5.00098 35.5
s-15.667 15.5 -27 19.5l-145 49l16 70h457l410 -872l58 -133h6l183 828c3.33301 14.667 2 26.334 -4 35.001s-15.333 15 -28 19l-141 53l16 70h519l-15 -70l-135 -53c-13.333 -4.66699 -25.166 -11.334 -35.499 -20.001s-17.166 -20 -20.499 -34l-221 -997l-82 -236h-163z
M636.997 1560c11.333 42 26.5 80.332 45.5 114.999s40.833 64.667 65.5 90s51.667 44.833 81 58.5s60 20.5 92 20.5c22 0 45 -4.66699 69 -14s51 -22.666 81 -39.999c29.333 -16.667 53.5 -28.167 72.5 -34.5s34.167 -9.5 45.5 -9.5c34.667 0 61 10.167 79 30.5
s33.333 47.833 46 82.5h87c-10.667 -41.333 -25.167 -79.5 -43.5 -114.5s-39.5 -65 -63.5 -90s-50.5 -44.5 -79.5 -58.5s-59.833 -21 -92.5 -21c-12 0 -22.833 0.833008 -32.5 2.5s-20 4.66699 -31 9s-23.167 10.166 -36.5 17.499l-47 27c-28 17.333 -52 29.333 -72 36
s-36 10 -48 10c-34.667 0 -62 -10.667 -82 -32s-36 -49.666 -48 -84.999h-88v0z" />
    <glyph glyph-name="Ograve" unicode="&#xd2;" horiz-adv-x="1508" 
d="M697 96c53.333 0 102.17 12.001 146.503 36.001s83.833 56.5 118.5 97.5s65 88.333 91 142s47.5 110.667 64.5 171s29.667 121.666 38 183.999s12.5 122.833 12.5 181.5c0 59.333 -5.5 113.5 -16.5 162.5s-28.333 90.833 -52 125.5s-53.834 61.334 -90.501 80.001
s-80.667 28 -132 28c-54.667 0 -104.167 -12.5 -148.5 -37.5s-83.833 -58.167 -118.5 -99.5s-64.834 -89.166 -90.501 -143.499s-46.834 -111.166 -63.501 -170.499s-29 -119 -37 -179s-12 -116.333 -12 -169c0 -58.667 5.16699 -112.834 15.5 -162.501
s26.833 -92.834 49.5 -129.501s52.5 -65.334 89.5 -86.001s82.167 -31 135.5 -31zM667.004 -30.999c-92.667 0 -174.999 12.667 -246.999 38s-132.833 62 -182.5 110s-87.5 106.5 -113.5 175.5s-39.333 147.167 -40 234.5c-0.666992 75.333 7.33301 150 24 224
s41.167 144.333 73.5 211s72.166 128.667 119.499 186s101.5 106.833 162.5 148.5s128.5 74.5 202.5 98.5s154 36 240 36c95.333 0 179.333 -13.167 252 -39.5s133.5 -63.833 182.5 -112.5s86.167 -107.167 111.5 -175.5s38 -144.5 38 -228.5
c0.666992 -69.333 -6.66602 -140 -21.999 -212s-38.5 -141.667 -69.5 -209s-69.667 -130.5 -116 -189.5s-100 -110.333 -161 -154s-129.333 -78.167 -205 -103.5s-158.834 -38 -249.501 -38zM1029 1512l-94.999 59.001l-83 51.5l-74.5 47.5
c-23.667 15.333 -46.834 31.333 -69.501 48c-24 17.333 -43.5 34.666 -58.5 51.999s-22.5 39.333 -22.5 66c0 14.667 3.16699 28 9.5 40s15 22.333 26 31s23.5 15.334 37.5 20.001s28.667 7 44 7c18 0 34 -1.33301 48 -4s26.833 -7.33398 38.5 -14.001s23 -15.5 34 -26.5
s22.167 -24.833 33.5 -41.5l42 -64.5l44 -68l49 -75l57 -85.5l-60 -43v0z" />
    <glyph glyph-name="Oacute" unicode="&#xd3;" horiz-adv-x="1508" 
d="M697 96c53.333 0 102.17 12.001 146.503 36.001s83.833 56.5 118.5 97.5s65 88.333 91 142s47.5 110.667 64.5 171s29.667 121.666 38 183.999s12.5 122.833 12.5 181.5c0 59.333 -5.5 113.5 -16.5 162.5s-28.333 90.833 -52 125.5s-53.834 61.334 -90.501 80.001
s-80.667 28 -132 28c-54.667 0 -104.167 -12.5 -148.5 -37.5s-83.833 -58.167 -118.5 -99.5s-64.834 -89.166 -90.501 -143.499s-46.834 -111.166 -63.501 -170.499s-29 -119 -37 -179s-12 -116.333 -12 -169c0 -58.667 5.16699 -112.834 15.5 -162.501
s26.833 -92.834 49.5 -129.501s52.5 -65.334 89.5 -86.001s82.167 -31 135.5 -31zM667.004 -30.999c-92.667 0 -174.999 12.667 -246.999 38s-132.833 62 -182.5 110s-87.5 106.5 -113.5 175.5s-39.333 147.167 -40 234.5c-0.666992 75.333 7.33301 150 24 224
s41.167 144.333 73.5 211s72.166 128.667 119.499 186s101.5 106.833 162.5 148.5s128.5 74.5 202.5 98.5s154 36 240 36c95.333 0 179.333 -13.167 252 -39.5s133.5 -63.833 182.5 -112.5s86.167 -107.167 111.5 -175.5s38 -144.5 38 -228.5
c0.666992 -69.333 -6.66602 -140 -21.999 -212s-38.5 -141.667 -69.5 -209s-69.667 -130.5 -116 -189.5s-100 -110.333 -161 -154s-129.333 -78.167 -205 -103.5s-158.834 -38 -249.501 -38zM709.005 1555l106.499 145.001l108.5 145c12 15.333 23.833 28.666 35.5 39.999
s23.834 20.5 36.501 27.5s26.667 12.333 42 16s33 5.5 53 5.5c13.333 0 26.333 -2 39 -6s24 -9.83301 34 -17.5s18.167 -17.167 24.5 -28.5s9.5 -24.333 9.5 -39s-2.5 -28 -7.5 -40s-11.667 -22.833 -20 -32.5s-17.833 -18.5 -28.5 -26.5s-21.667 -15.667 -33 -23l-171 -106
l-171 -103z" />
    <glyph glyph-name="Ocircumflex" unicode="&#xd4;" horiz-adv-x="1508" 
d="M697 96c53.333 0 102.17 12.001 146.503 36.001s83.833 56.5 118.5 97.5s65 88.333 91 142s47.5 110.667 64.5 171s29.667 121.666 38 183.999s12.5 122.833 12.5 181.5c0 59.333 -5.5 113.5 -16.5 162.5s-28.333 90.833 -52 125.5s-53.834 61.334 -90.501 80.001
s-80.667 28 -132 28c-54.667 0 -104.167 -12.5 -148.5 -37.5s-83.833 -58.167 -118.5 -99.5s-64.834 -89.166 -90.501 -143.499s-46.834 -111.166 -63.501 -170.499s-29 -119 -37 -179s-12 -116.333 -12 -169c0 -58.667 5.16699 -112.834 15.5 -162.501
s26.833 -92.834 49.5 -129.501s52.5 -65.334 89.5 -86.001s82.167 -31 135.5 -31zM667.004 -30.999c-92.667 0 -174.999 12.667 -246.999 38s-132.833 62 -182.5 110s-87.5 106.5 -113.5 175.5s-39.333 147.167 -40 234.5c-0.666992 75.333 7.33301 150 24 224
s41.167 144.333 73.5 211s72.166 128.667 119.499 186s101.5 106.833 162.5 148.5s128.5 74.5 202.5 98.5s154 36 240 36c95.333 0 179.333 -13.167 252 -39.5s133.5 -63.833 182.5 -112.5s86.167 -107.167 111.5 -175.5s38 -144.5 38 -228.5
c0.666992 -69.333 -6.66602 -140 -21.999 -212s-38.5 -141.667 -69.5 -209s-69.667 -130.5 -116 -189.5s-100 -110.333 -161 -154s-129.333 -78.167 -205 -103.5s-158.834 -38 -249.501 -38zM566.005 1550l251 293c24 27.333 48.833 48 74.5 62s54.167 21 85.5 21
s58 -6.83301 80 -20.5s40 -34.5 54 -62.5l148 -292l-61 -40l-243 231l-334 -233z" />
    <glyph glyph-name="Otilde" unicode="&#xd5;" horiz-adv-x="1508" 
d="M697 96c53.333 0 102.17 12.001 146.503 36.001s83.833 56.5 118.5 97.5s65 88.333 91 142s47.5 110.667 64.5 171s29.667 121.666 38 183.999s12.5 122.833 12.5 181.5c0 59.333 -5.5 113.5 -16.5 162.5s-28.333 90.833 -52 125.5s-53.834 61.334 -90.501 80.001
s-80.667 28 -132 28c-54.667 0 -104.167 -12.5 -148.5 -37.5s-83.833 -58.167 -118.5 -99.5s-64.834 -89.166 -90.501 -143.499s-46.834 -111.166 -63.501 -170.499s-29 -119 -37 -179s-12 -116.333 -12 -169c0 -58.667 5.16699 -112.834 15.5 -162.501
s26.833 -92.834 49.5 -129.501s52.5 -65.334 89.5 -86.001s82.167 -31 135.5 -31zM667.004 -30.999c-92.667 0 -174.999 12.667 -246.999 38s-132.833 62 -182.5 110s-87.5 106.5 -113.5 175.5s-39.333 147.167 -40 234.5c-0.666992 75.333 7.33301 150 24 224
s41.167 144.333 73.5 211s72.166 128.667 119.499 186s101.5 106.833 162.5 148.5s128.5 74.5 202.5 98.5s154 36 240 36c95.333 0 179.333 -13.167 252 -39.5s133.5 -63.833 182.5 -112.5s86.167 -107.167 111.5 -175.5s38 -144.5 38 -228.5
c0.666992 -69.333 -6.66602 -140 -21.999 -212s-38.5 -141.667 -69.5 -209s-69.667 -130.5 -116 -189.5s-100 -110.333 -161 -154s-129.333 -78.167 -205 -103.5s-158.834 -38 -249.501 -38zM542.005 1560c11.333 42 26.5 80.332 45.5 114.999s40.833 64.667 65.5 90
s51.667 44.833 81 58.5s60 20.5 92 20.5c22 0 45 -4.66699 69 -14s51 -22.666 81 -39.999c29.333 -16.667 53.5 -28.167 72.5 -34.5s34.167 -9.5 45.5 -9.5c34.667 0 61 10.167 79 30.5s33.333 47.833 46 82.5h87c-10.667 -41.333 -25.167 -79.5 -43.5 -114.5
s-39.5 -65 -63.5 -90s-50.5 -44.5 -79.5 -58.5s-59.833 -21 -92.5 -21c-12 0 -22.833 0.833008 -32.5 2.5s-20 4.66699 -31 9s-23.167 10.166 -36.5 17.499l-47 27c-28 17.333 -52 29.333 -72 36s-36 10 -48 10c-34.667 0 -62 -10.667 -82 -32s-36 -49.666 -48 -84.999h-88
v0z" />
    <glyph glyph-name="Odieresis" unicode="&#xd6;" horiz-adv-x="1508" 
d="M697 96c53.333 0 102.17 12.001 146.503 36.001s83.833 56.5 118.5 97.5s65 88.333 91 142s47.5 110.667 64.5 171s29.667 121.666 38 183.999s12.5 122.833 12.5 181.5c0 59.333 -5.5 113.5 -16.5 162.5s-28.333 90.833 -52 125.5s-53.834 61.334 -90.501 80.001
s-80.667 28 -132 28c-54.667 0 -104.167 -12.5 -148.5 -37.5s-83.833 -58.167 -118.5 -99.5s-64.834 -89.166 -90.501 -143.499s-46.834 -111.166 -63.501 -170.499s-29 -119 -37 -179s-12 -116.333 -12 -169c0 -58.667 5.16699 -112.834 15.5 -162.501
s26.833 -92.834 49.5 -129.501s52.5 -65.334 89.5 -86.001s82.167 -31 135.5 -31zM667.004 -30.999c-92.667 0 -174.999 12.667 -246.999 38s-132.833 62 -182.5 110s-87.5 106.5 -113.5 175.5s-39.333 147.167 -40 234.5c-0.666992 75.333 7.33301 150 24 224
s41.167 144.333 73.5 211s72.166 128.667 119.499 186s101.5 106.833 162.5 148.5s128.5 74.5 202.5 98.5s154 36 240 36c95.333 0 179.333 -13.167 252 -39.5s133.5 -63.833 182.5 -112.5s86.167 -107.167 111.5 -175.5s38 -144.5 38 -228.5
c0.666992 -69.333 -6.66602 -140 -21.999 -212s-38.5 -141.667 -69.5 -209s-69.667 -130.5 -116 -189.5s-100 -110.333 -161 -154s-129.333 -78.167 -205 -103.5s-158.834 -38 -249.501 -38zM699.005 1560c-18.667 0 -36.5 3.33398 -53.5 10.001s-31.833 16 -44.5 28
s-22.5 26.333 -29.5 43s-10.5 34.667 -10.5 54c0 20.667 3.5 39.334 10.5 56.001s16.833 31.167 29.5 43.5s27.5 21.833 44.5 28.5s34.833 10 53.5 10c20.667 0 39.667 -3.33301 57 -10s32.5 -15.834 45.5 -27.501s23 -25.834 30 -42.501s10.5 -35 10.5 -55
s-3.66699 -38.5 -11 -55.5s-17.5 -31.667 -30.5 -44s-28.167 -21.833 -45.5 -28.5s-36 -10 -56 -10zM1155 1560c-19.333 0 -37.333 3.33398 -54 10.001s-31.334 16 -44.001 28s-22.667 26.333 -30 43s-11 34.667 -11 54c0 20.667 3.66699 39.334 11 56.001
s17.333 31.167 30 43.5s27.334 21.833 44.001 28.5s34.667 10 54 10c20 0 38.667 -3.33301 56 -10s32.5 -15.834 45.5 -27.501s23.167 -25.834 30.5 -42.501s11 -35 11 -55s-3.66699 -38.5 -11 -55.5s-17.5 -31.667 -30.5 -44s-28.167 -21.833 -45.5 -28.5s-36 -10 -56 -10z
" />
    <glyph glyph-name="multiply" unicode="&#xd7;" horiz-adv-x="1423" 
d="M251 210l368 364l-368 365l115 119l367 -371l365 369l115 -117l-369 -365l368 -364l-115 -117l-366 368l-365 -369z" />
    <glyph glyph-name="Oslash" unicode="&#xd8;" horiz-adv-x="1508" 
d="M240 123c-50 48.667 -88.332 106.834 -114.999 174.501s-40.334 144.167 -41.001 229.5c-0.666992 75.333 7.33301 150 24 224s41 144.333 73 211s71.667 128.667 119 186s101.666 106.833 162.999 148.5s129 74.5 203 98.5s154 36 240 36
c72.667 0 138.334 -8.16699 197.001 -24.5s111.667 -40.166 159 -71.499l119 142h122l-168 -201c50.667 -48.667 89.167 -106.834 115.5 -174.501s39.5 -143.167 39.5 -226.5c0.666992 -69.333 -6.66602 -140 -21.999 -212s-38.5 -141.667 -69.5 -209
s-69.667 -130.5 -116 -189.5s-100 -110.333 -161 -154s-129.333 -78.167 -205 -103.5s-158.834 -38 -249.501 -38c-71.333 0 -136.5 8.16699 -195.5 24.5s-112.5 40.166 -160.5 71.499l-148 -177h-122zM696.001 96c53.333 0 102.334 11.665 147.001 34.998s84.5 55 119.5 95
s65.667 86.333 92 139s48.166 108.334 65.499 167.001s30.5 118.5 39.5 179.5s13.5 119.833 13.5 176.5c1.33301 34.667 0.5 67.167 -2.5 97.5s-7.5 58.833 -13.5 85.5l-702 -837c22 -43.333 52.667 -77.166 92 -101.499s89 -36.5 149 -36.5zM1120 1167
c-24 45.333 -55.667 79.5029 -95 102.503s-88.333 34.5 -147 34.5c-54.667 0 -104.334 -12.167 -149.001 -36.5s-84.667 -56.833 -120 -97.5s-66 -87.834 -92 -141.501s-47.5 -109.834 -64.5 -168.501s-29.667 -117.834 -38 -177.501s-12.5 -116.167 -12.5 -169.5
c-0.666992 -33.333 0.333008 -65.333 3 -96s7.33398 -59.667 14.001 -87z" />
    <glyph glyph-name="Ugrave" unicode="&#xd9;" horiz-adv-x="1530" 
d="M662 -32c-81.333 0 -152.165 9.83691 -212.498 29.5039s-110.833 46 -151.5 79s-71 71.167 -91 114.5s-30 88.666 -30 135.999c0 8 0.5 18 1.5 30s2.33301 24.5 4 37.5s3.5 25.667 5.5 38s4.33301 22.833 7 31.5l169 765c3.33301 14.667 1.83301 26.667 -4.5 36
s-15.5 15.666 -27.5 18.999l-137 46l15 70h660l-14 -70l-137 -46c-12.667 -4 -24.334 -10.333 -35.001 -19s-17.667 -20.667 -21 -36l-161 -735c-2 -8.66699 -3.83301 -18.834 -5.5 -30.501l-5 -35.5c-1.66699 -12 -3 -23.5 -4 -34.5s-1.5 -20.5 -1.5 -28.5
c0 -28.667 3.66699 -57 11 -85s21 -53.333 41 -76s47.167 -41.167 81.5 -55.5s78.166 -21.5 131.499 -21.5c66 0 122.167 11.5 168.5 34.5s84.833 51.833 115.5 86.5s54.5 72.667 71.5 114s29.5 80.666 37.5 117.999l165 743c2.66699 14 1.16699 25.333 -4.5 34
s-14.834 15.334 -27.501 20.001l-136 53l16 70h517l-15 -70l-138 -53c-14 -4.66699 -26.167 -11.334 -36.5 -20.001s-17.166 -20 -20.499 -34l-171 -771c-14 -62.667 -34 -118 -60 -166s-56.333 -90 -91 -126s-72 -66.333 -112 -91s-81.167 -44.5 -123.5 -59.5
s-84.333 -25.667 -126 -32s-81.167 -9.5 -118.5 -9.5zM1066 1512l-94.999 59.001l-83 51.5l-74.5 47.5c-23.667 15.333 -46.834 31.333 -69.501 48c-24 17.333 -43.5 34.666 -58.5 51.999s-22.5 39.333 -22.5 66c0 14.667 3.16699 28 9.5 40s15 22.333 26 31
s23.5 15.334 37.5 20.001s28.667 7 44 7c18 0 34 -1.33301 48 -4s26.833 -7.33398 38.5 -14.001s23 -15.5 34 -26.5s22.167 -24.833 33.5 -41.5l42 -64.5l44 -68l49 -75l57 -85.5l-60 -43v0z" />
    <glyph glyph-name="Uacute" unicode="&#xda;" horiz-adv-x="1530" 
d="M662 -32c-81.333 0 -152.165 9.83691 -212.498 29.5039s-110.833 46 -151.5 79s-71 71.167 -91 114.5s-30 88.666 -30 135.999c0 8 0.5 18 1.5 30s2.33301 24.5 4 37.5s3.5 25.667 5.5 38s4.33301 22.833 7 31.5l169 765c3.33301 14.667 1.83301 26.667 -4.5 36
s-15.5 15.666 -27.5 18.999l-137 46l15 70h660l-14 -70l-137 -46c-12.667 -4 -24.334 -10.333 -35.001 -19s-17.667 -20.667 -21 -36l-161 -735c-2 -8.66699 -3.83301 -18.834 -5.5 -30.501l-5 -35.5c-1.66699 -12 -3 -23.5 -4 -34.5s-1.5 -20.5 -1.5 -28.5
c0 -28.667 3.66699 -57 11 -85s21 -53.333 41 -76s47.167 -41.167 81.5 -55.5s78.166 -21.5 131.499 -21.5c66 0 122.167 11.5 168.5 34.5s84.833 51.833 115.5 86.5s54.5 72.667 71.5 114s29.5 80.666 37.5 117.999l165 743c2.66699 14 1.16699 25.333 -4.5 34
s-14.834 15.334 -27.501 20.001l-136 53l16 70h517l-15 -70l-138 -53c-14 -4.66699 -26.167 -11.334 -36.5 -20.001s-17.166 -20 -20.499 -34l-171 -771c-14 -62.667 -34 -118 -60 -166s-56.333 -90 -91 -126s-72 -66.333 -112 -91s-81.167 -44.5 -123.5 -59.5
s-84.333 -25.667 -126 -32s-81.167 -9.5 -118.5 -9.5zM766.001 1555l106.499 145.001l108.5 145c12 15.333 23.833 28.666 35.5 39.999s23.834 20.5 36.501 27.5s26.667 12.333 42 16s33 5.5 53 5.5c13.333 0 26.333 -2 39 -6s24 -9.83301 34 -17.5
s18.167 -17.167 24.5 -28.5s9.5 -24.333 9.5 -39s-2.5 -28 -7.5 -40s-11.667 -22.833 -20 -32.5s-17.833 -18.5 -28.5 -26.5s-21.667 -15.667 -33 -23l-171 -106l-171 -103z" />
    <glyph glyph-name="Ucircumflex" unicode="&#xdb;" horiz-adv-x="1530" 
d="M662 -32c-81.333 0 -152.165 9.83691 -212.498 29.5039s-110.833 46 -151.5 79s-71 71.167 -91 114.5s-30 88.666 -30 135.999c0 8 0.5 18 1.5 30s2.33301 24.5 4 37.5s3.5 25.667 5.5 38s4.33301 22.833 7 31.5l169 765c3.33301 14.667 1.83301 26.667 -4.5 36
s-15.5 15.666 -27.5 18.999l-137 46l15 70h660l-14 -70l-137 -46c-12.667 -4 -24.334 -10.333 -35.001 -19s-17.667 -20.667 -21 -36l-161 -735c-2 -8.66699 -3.83301 -18.834 -5.5 -30.501l-5 -35.5c-1.66699 -12 -3 -23.5 -4 -34.5s-1.5 -20.5 -1.5 -28.5
c0 -28.667 3.66699 -57 11 -85s21 -53.333 41 -76s47.167 -41.167 81.5 -55.5s78.166 -21.5 131.499 -21.5c66 0 122.167 11.5 168.5 34.5s84.833 51.833 115.5 86.5s54.5 72.667 71.5 114s29.5 80.666 37.5 117.999l165 743c2.66699 14 1.16699 25.333 -4.5 34
s-14.834 15.334 -27.501 20.001l-136 53l16 70h517l-15 -70l-138 -53c-14 -4.66699 -26.167 -11.334 -36.5 -20.001s-17.166 -20 -20.499 -34l-171 -771c-14 -62.667 -34 -118 -60 -166s-56.333 -90 -91 -126s-72 -66.333 -112 -91s-81.167 -44.5 -123.5 -59.5
s-84.333 -25.667 -126 -32s-81.167 -9.5 -118.5 -9.5zM640.001 1550l251 293c24 27.333 48.833 48 74.5 62s54.167 21 85.5 21s58 -6.83301 80 -20.5s40 -34.5 54 -62.5l148 -292l-61 -40l-243 231l-334 -233z" />
    <glyph glyph-name="Udieresis" unicode="&#xdc;" horiz-adv-x="1530" 
d="M662 -32c-81.333 0 -152.165 9.83691 -212.498 29.5039s-110.833 46 -151.5 79s-71 71.167 -91 114.5s-30 88.666 -30 135.999c0 8 0.5 18 1.5 30s2.33301 24.5 4 37.5s3.5 25.667 5.5 38s4.33301 22.833 7 31.5l169 765c3.33301 14.667 1.83301 26.667 -4.5 36
s-15.5 15.666 -27.5 18.999l-137 46l15 70h660l-14 -70l-137 -46c-12.667 -4 -24.334 -10.333 -35.001 -19s-17.667 -20.667 -21 -36l-161 -735c-2 -8.66699 -3.83301 -18.834 -5.5 -30.501l-5 -35.5c-1.66699 -12 -3 -23.5 -4 -34.5s-1.5 -20.5 -1.5 -28.5
c0 -28.667 3.66699 -57 11 -85s21 -53.333 41 -76s47.167 -41.167 81.5 -55.5s78.166 -21.5 131.499 -21.5c66 0 122.167 11.5 168.5 34.5s84.833 51.833 115.5 86.5s54.5 72.667 71.5 114s29.5 80.666 37.5 117.999l165 743c2.66699 14 1.16699 25.333 -4.5 34
s-14.834 15.334 -27.501 20.001l-136 53l16 70h517l-15 -70l-138 -53c-14 -4.66699 -26.167 -11.334 -36.5 -20.001s-17.166 -20 -20.499 -34l-171 -771c-14 -62.667 -34 -118 -60 -166s-56.333 -90 -91 -126s-72 -66.333 -112 -91s-81.167 -44.5 -123.5 -59.5
s-84.333 -25.667 -126 -32s-81.167 -9.5 -118.5 -9.5zM767.001 1560c-18.667 0 -36.5 3.33398 -53.5 10.001s-31.833 16 -44.5 28s-22.5 26.333 -29.5 43s-10.5 34.667 -10.5 54c0 20.667 3.5 39.334 10.5 56.001s16.833 31.167 29.5 43.5s27.5 21.833 44.5 28.5
s34.833 10 53.5 10c20.667 0 39.667 -3.33301 57 -10s32.5 -15.834 45.5 -27.501s23 -25.834 30 -42.501s10.5 -35 10.5 -55s-3.66699 -38.5 -11 -55.5s-17.5 -31.667 -30.5 -44s-28.167 -21.833 -45.5 -28.5s-36 -10 -56 -10zM1223 1560
c-19.333 0 -37.333 3.33398 -54 10.001s-31.334 16 -44.001 28s-22.667 26.333 -30 43s-11 34.667 -11 54c0 20.667 3.66699 39.334 11 56.001s17.333 31.167 30 43.5s27.334 21.833 44.001 28.5s34.667 10 54 10c20 0 38.667 -3.33301 56 -10s32.5 -15.834 45.5 -27.501
s23.167 -25.834 30.5 -42.501s11 -35 11 -55s-3.66699 -38.5 -11 -55.5s-17.5 -31.667 -30.5 -44s-28.167 -21.833 -45.5 -28.5s-36 -10 -56 -10z" />
    <glyph glyph-name="Yacute" unicode="&#xdd;" horiz-adv-x="1354" 
d="M240 70l153 45.999c14 4 26 10.5 36 19.5s16.667 20.833 20 35.5l85 383l-231 676c-4.66699 13.333 -10.667 25.5 -18 36.5s-18 18.833 -32 23.5l-113 40l16 70h610l-15 -70l-155 -54l150 -437l39 -127h6l436 562l-154 56l16 70h468l-16 -70l-117 -48
c-11.333 -4.66699 -22.166 -12.5 -32.499 -23.5s-19.833 -21.833 -28.5 -32.5l-528 -663l-87 -392c-3.33301 -14.667 -1.83301 -26.667 4.5 -36s15.166 -15.666 26.499 -18.999l155 -46l-16 -70h-694zM714 1555l106.499 145.001l108.5 145
c12 15.333 23.833 28.666 35.5 39.999s23.834 20.5 36.501 27.5s26.667 12.333 42 16s33 5.5 53 5.5c13.333 0 26.333 -2 39 -6s24 -9.83301 34 -17.5s18.167 -17.167 24.5 -28.5s9.5 -24.333 9.5 -39s-2.5 -28 -7.5 -40s-11.667 -22.833 -20 -32.5
s-17.833 -18.5 -28.5 -26.5s-21.667 -15.667 -33 -23l-171 -106l-171 -103z" />
    <glyph glyph-name="Thorn" unicode="&#xde;" horiz-adv-x="1289" 
d="M-35 71l135.999 44.999c12.667 4 24.334 10.667 35.001 20s17.667 21.333 21 36l235 1057c3.33301 14.667 1.83301 26.667 -4.5 36s-15.166 15.666 -26.499 18.999l-139 46l16 70h661l-15 -71l-137 -45c-14.667 -4 -27 -10.667 -37 -20s-16.667 -21.333 -20 -36l-19 -85
h145c68 0 130.333 -7.16699 187 -21.5s105.334 -35.833 146.001 -64.5s72.5 -64.667 95.5 -108s34.5 -94.333 34.5 -153c0 -76 -14 -145.333 -42 -208s-66.167 -116.5 -114.5 -161.5s-104.833 -80 -169.5 -105s-133.334 -37.5 -206.001 -37.5c-20 0 -41 1.83301 -63 5.5
s-44 8.5 -66 14.5s-43.333 13.167 -64 21.5s-40.334 17.5 -59.001 27.5l-39 -181c-3.33301 -15.333 -1.83301 -27.666 4.5 -36.999s15.5 -15.666 27.5 -18.999l151 -45l-16 -71h-674zM644.999 423.999c54 0 100.501 10.332 139.501 30.999s71.167 47.667 96.5 81
s44 70.833 56 112.5s18 83.5 18 125.5c0 34.667 -4.5 66.834 -13.5 96.501s-23.833 55.167 -44.5 76.5s-47.834 37.833 -81.501 49.5s-75.167 17.5 -124.5 17.5h-48l-127 -573c20.667 -6 42.167 -10.333 64.5 -13s43.833 -4 64.5 -4z" />
    <glyph glyph-name="germandbls" unicode="&#xdf;" horiz-adv-x="1377" 
d="M-254 -480c-15.333 0 -31.002 0.666016 -47.002 1.99902s-32.5 3.33301 -49.5 6s-33.667 5.83398 -50 9.50098s-31.5 7.83398 -45.5 12.501l56 236h42l57 -18.5c21.333 -7 43.5 -13.333 66.5 -19s46 -10.5 69 -14.5s45.5 -6 67.5 -6c18 0 33.5 2 46.5 6
s25.833 12.333 38.5 25c5.33301 4.66699 10.833 14.834 16.5 30.501s12 35.834 19 60.501s14.167 53 21.5 85l23 105l37 179l37 188.5l36 186l33.5 171l28 144l20.5 105.5c12 56 30.5 107.667 55.5 155s54.833 90.5 89.5 129.5s73.334 73.667 116.001 104
s87.667 55.833 135 76.5s96.5 36.167 147.5 46.5s102.167 15.5 153.5 15.5c45.333 0 90.666 -5.16699 135.999 -15.5s86 -26.166 122 -47.499s65.167 -48.333 87.5 -81s33.5 -70.667 33.5 -114c0 -22 -2 -42.833 -6 -62.5s-9.16699 -38.5 -15.5 -56.5s-13.833 -35 -22.5 -51
s-17.667 -31.333 -27 -46c-27.333 -11.333 -59.5 -23.5 -96.5 -36.5s-72.167 -28.833 -105.5 -47.5c-38 -21.333 -69.167 -45.5 -93.5 -72.5s-36.5 -59.167 -36.5 -96.5c0 -26.667 7.16699 -49.834 21.5 -69.501s32.5 -38.167 54.5 -55.5
c8.66699 -6.66699 18.167 -13.5 28.5 -20.5l33.5 -22.5l37 -23.5c12.667 -7.66699 25.334 -15.834 38.001 -24.501c21.333 -14.667 41.333 -30.167 60 -46.5s34.667 -34.166 48 -53.499s23.833 -40.5 31.5 -63.5s11.5 -49.167 11.5 -78.5c0 -42.667 -7 -81.5 -21 -116.5
s-32.833 -66.833 -56.5 -95.5s-51.334 -53.5 -83.001 -74.5s-65.5 -38.667 -101.5 -53s-73.167 -25 -111.5 -32s-75.833 -10.5 -112.5 -10.5c-30.667 0 -59.667 1.33301 -87 4s-54 6.83398 -80 12.501s-51.5 12.667 -76.5 21s-49.833 17.833 -74.5 28.5l44 284h101l6 -53
c2 -17.333 4.33301 -35 7 -53c1.33301 -14 7 -27.833 17 -41.5s21.333 -25.167 34 -34.5c11.333 -8.66699 23.333 -16 36 -22s25 -10.833 37 -14.5s23.833 -6.5 35.5 -8.5s22.834 -3 33.501 -3c22.667 0 44.834 4.66699 66.501 14s40.667 22 57 38s29.5 34.5 39.5 55.5
s15 42.833 15 65.5c0 16 -2.83301 31 -8.5 45s-13.667 27.667 -24 41s-22.666 26.166 -36.999 38.499s-30.166 24.166 -47.499 35.499c-24.667 16.667 -50.167 32.5 -76.5 47.5s-49.166 28.833 -68.499 41.5c-16 11.333 -31.167 23.666 -45.5 36.999
s-26.833 28.166 -37.5 44.499s-19.334 34.333 -26.001 54s-10 41.167 -10 64.5c0 38 7.33301 72 22 102s33.834 56.833 57.501 80.5s49.667 44.834 78 63.501s56.5 35.667 84.5 51c12 7.33301 26.167 15.333 42.5 24l48.5 27c16 9.33301 31.167 18.833 45.5 28.5
s26.166 20.167 35.499 31.5c2 12 3.66699 23.833 5 35.5s2 23.834 2 36.501c0 67.333 -19 117.666 -57 150.999s-92.667 50 -164 50c-13.333 0 -27.166 -1.33301 -41.499 -4s-28.333 -6 -42 -10s-26.334 -8.83301 -38.001 -14.5s-20.834 -11.834 -27.501 -18.501
c-22 -18.667 -41.167 -43 -57.5 -73s-31 -63.333 -44 -100s-24.5 -75.667 -34.5 -117s-19 -82.333 -27 -123l-170 -877c-14.667 -74.667 -39.167 -142 -73.5 -202s-77.5 -113.667 -129.5 -161c-30.667 -28 -61.834 -53 -93.501 -75s-64.5 -40.5 -98.5 -55.5
s-69.833 -26.5 -107.5 -34.5s-77.5 -12 -119.5 -12z" />
    <glyph glyph-name="agrave" unicode="&#xe0;" horiz-adv-x="1156" 
d="M287 -19c-40 0 -76.3311 6.67188 -108.998 20.0049s-60.334 31.666 -83.001 54.999s-40 51 -52 83s-18 66.667 -18 104c0 48 7.66699 91 23 129s35.833 71.333 61.5 100s55.834 53 90.501 73s71.334 36.167 110.001 48.5s78.334 21.333 119.001 27s80 8.5 118 8.5
c10.667 0 23.334 -0.5 38.001 -1.5s29.667 -2.33301 45 -4l44.5 -5l37.5 -4.5c2 8 4.16699 18.167 6.5 30.5s4.5 25.166 6.5 38.499s3.83301 26.666 5.5 39.999s2.5 25.666 2.5 36.999c0 48 -13 84.5 -39 109.5s-63.333 37.5 -112 37.5c-26 0 -55 -6.16699 -87 -18.5
s-64.333 -27.166 -97 -44.499s-64.167 -35.666 -94.5 -54.999l-76.5 -50h-52l34 226c35.333 12 69.666 22.5 102.999 31.5s67.166 16.667 101.499 23s69.666 11.166 105.999 14.499s74.833 5 115.5 5s83.667 -3.66699 129 -11s87 -20.333 125 -39s69.5 -43.667 94.5 -75
s37.5 -71.333 37.5 -120c0 -12 -0.5 -24.667 -1.5 -38s-2.33301 -26.833 -4 -40.5s-3.66699 -26.834 -6 -39.501s-4.83301 -25 -7.5 -37l-57 -249c-4 -16.667 -7.83301 -33.667 -11.5 -51l-10.5 -51.5c-3.33301 -17 -6 -33.5 -8 -49.5s-3 -30.667 -3 -44
c0 -11.333 2.16699 -21.833 6.5 -31.5s10.5 -18.334 18.5 -26.001s17.667 -13.667 29 -18s24 -6.5 38 -6.5c6.66699 0 14 0.833008 22 2.5s16.333 3.66699 25 6s17.5 5.16602 26.5 8.49902s17.5 6.66602 25.5 9.99902h29v-82c-24 -14 -49 -25.5 -75 -34.5
s-52.167 -16.333 -78.5 -22s-52.5 -9.66699 -78.5 -12s-51 -3.5 -75 -3.5c-28 0 -53.833 3.83301 -77.5 11.5s-44.334 18.334 -62.001 32.001s-32 30.667 -43 51s-17.5 43.5 -19.5 69.5h-5c-26 -30.667 -51.833 -56.667 -77.5 -78s-51.834 -38.666 -78.501 -51.999
s-54.5 -23 -83.5 -29s-59.5 -9 -91.5 -9zM440.002 144.005c36 0 70.167 7.66699 102.5 23s61.166 38.333 86.499 69l64 280c-48.667 0 -95.167 -2.5 -139.5 -7.5s-83.5 -16.167 -117.5 -33.5s-61.167 -41.833 -81.5 -73.5s-30.833 -74.167 -31.5 -127.5
c0 -20 2.5 -38.167 7.5 -54.5s12.5 -30 22.5 -41s22.333 -19.5 37 -25.5s31.334 -9 50.001 -9zM783.002 1119l-95 59l-83 51.5l-74.5 47.5c-23.667 15.333 -46.834 31.666 -69.501 48.999c-24 16.667 -43.5 33.667 -58.5 51s-22.5 39.333 -22.5 66
c0 14.667 3.16699 28 9.5 40s15 22.333 26 31s23.5 15.334 37.5 20.001s28.667 7 44 7c18 0 33.833 -1.5 47.5 -4.5s26.334 -7.83301 38.001 -14.5s23 -15.5 34 -26.5s22.5 -24.5 34.5 -40.5l43.5 -64l44.5 -69l48.5 -75.5l55.5 -84.5l-60 -43v0z" />
    <glyph glyph-name="aacute" unicode="&#xe1;" horiz-adv-x="1156" 
d="M287 -19c-40 0 -76.3311 6.67188 -108.998 20.0049s-60.334 31.666 -83.001 54.999s-40 51 -52 83s-18 66.667 -18 104c0 48 7.66699 91 23 129s35.833 71.333 61.5 100s55.834 53 90.501 73s71.334 36.167 110.001 48.5s78.334 21.333 119.001 27s80 8.5 118 8.5
c10.667 0 23.334 -0.5 38.001 -1.5s29.667 -2.33301 45 -4l44.5 -5l37.5 -4.5c2 8 4.16699 18.167 6.5 30.5s4.5 25.166 6.5 38.499s3.83301 26.666 5.5 39.999s2.5 25.666 2.5 36.999c0 48 -13 84.5 -39 109.5s-63.333 37.5 -112 37.5c-26 0 -55 -6.16699 -87 -18.5
s-64.333 -27.166 -97 -44.499s-64.167 -35.666 -94.5 -54.999l-76.5 -50h-52l34 226c35.333 12 69.666 22.5 102.999 31.5s67.166 16.667 101.499 23s69.666 11.166 105.999 14.499s74.833 5 115.5 5s83.667 -3.66699 129 -11s87 -20.333 125 -39s69.5 -43.667 94.5 -75
s37.5 -71.333 37.5 -120c0 -12 -0.5 -24.667 -1.5 -38s-2.33301 -26.833 -4 -40.5s-3.66699 -26.834 -6 -39.501s-4.83301 -25 -7.5 -37l-57 -249c-4 -16.667 -7.83301 -33.667 -11.5 -51l-10.5 -51.5c-3.33301 -17 -6 -33.5 -8 -49.5s-3 -30.667 -3 -44
c0 -11.333 2.16699 -21.833 6.5 -31.5s10.5 -18.334 18.5 -26.001s17.667 -13.667 29 -18s24 -6.5 38 -6.5c6.66699 0 14 0.833008 22 2.5s16.333 3.66699 25 6s17.5 5.16602 26.5 8.49902s17.5 6.66602 25.5 9.99902h29v-82c-24 -14 -49 -25.5 -75 -34.5
s-52.167 -16.333 -78.5 -22s-52.5 -9.66699 -78.5 -12s-51 -3.5 -75 -3.5c-28 0 -53.833 3.83301 -77.5 11.5s-44.334 18.334 -62.001 32.001s-32 30.667 -43 51s-17.5 43.5 -19.5 69.5h-5c-26 -30.667 -51.833 -56.667 -77.5 -78s-51.834 -38.666 -78.501 -51.999
s-54.5 -23 -83.5 -29s-59.5 -9 -91.5 -9zM440.002 144.005c36 0 70.167 7.66699 102.5 23s61.166 38.333 86.499 69l64 280c-48.667 0 -95.167 -2.5 -139.5 -7.5s-83.5 -16.167 -117.5 -33.5s-61.167 -41.833 -81.5 -73.5s-30.833 -74.167 -31.5 -127.5
c0 -20 2.5 -38.167 7.5 -54.5s12.5 -30 22.5 -41s22.333 -19.5 37 -25.5s31.334 -9 50.001 -9zM461.002 1162l106.499 145.998l108.5 145c12 14.667 23.833 27.667 35.5 39s23.834 20.5 36.501 27.5s26.667 12.333 42 16s33 5.5 53 5.5c13.333 0 26.333 -2 39 -6
s24 -9.83301 34 -17.5s18.167 -17 24.5 -28s9.5 -23.833 9.5 -38.5c0 -15.333 -2.5 -29 -7.5 -41s-11.667 -22.667 -20 -32s-17.833 -18.166 -28.5 -26.499s-21.667 -16.166 -33 -23.499l-171 -106l-171 -103z" />
    <glyph glyph-name="acircumflex" unicode="&#xe2;" horiz-adv-x="1156" 
d="M287 -19c-40 0 -76.3311 6.67188 -108.998 20.0049s-60.334 31.666 -83.001 54.999s-40 51 -52 83s-18 66.667 -18 104c0 48 7.66699 91 23 129s35.833 71.333 61.5 100s55.834 53 90.501 73s71.334 36.167 110.001 48.5s78.334 21.333 119.001 27s80 8.5 118 8.5
c10.667 0 23.334 -0.5 38.001 -1.5s29.667 -2.33301 45 -4l44.5 -5l37.5 -4.5c2 8 4.16699 18.167 6.5 30.5s4.5 25.166 6.5 38.499s3.83301 26.666 5.5 39.999s2.5 25.666 2.5 36.999c0 48 -13 84.5 -39 109.5s-63.333 37.5 -112 37.5c-26 0 -55 -6.16699 -87 -18.5
s-64.333 -27.166 -97 -44.499s-64.167 -35.666 -94.5 -54.999l-76.5 -50h-52l34 226c35.333 12 69.666 22.5 102.999 31.5s67.166 16.667 101.499 23s69.666 11.166 105.999 14.499s74.833 5 115.5 5s83.667 -3.66699 129 -11s87 -20.333 125 -39s69.5 -43.667 94.5 -75
s37.5 -71.333 37.5 -120c0 -12 -0.5 -24.667 -1.5 -38s-2.33301 -26.833 -4 -40.5s-3.66699 -26.834 -6 -39.501s-4.83301 -25 -7.5 -37l-57 -249c-4 -16.667 -7.83301 -33.667 -11.5 -51l-10.5 -51.5c-3.33301 -17 -6 -33.5 -8 -49.5s-3 -30.667 -3 -44
c0 -11.333 2.16699 -21.833 6.5 -31.5s10.5 -18.334 18.5 -26.001s17.667 -13.667 29 -18s24 -6.5 38 -6.5c6.66699 0 14 0.833008 22 2.5s16.333 3.66699 25 6s17.5 5.16602 26.5 8.49902s17.5 6.66602 25.5 9.99902h29v-82c-24 -14 -49 -25.5 -75 -34.5
s-52.167 -16.333 -78.5 -22s-52.5 -9.66699 -78.5 -12s-51 -3.5 -75 -3.5c-28 0 -53.833 3.83301 -77.5 11.5s-44.334 18.334 -62.001 32.001s-32 30.667 -43 51s-17.5 43.5 -19.5 69.5h-5c-26 -30.667 -51.833 -56.667 -77.5 -78s-51.834 -38.666 -78.501 -51.999
s-54.5 -23 -83.5 -29s-59.5 -9 -91.5 -9zM440.002 144.005c36 0 70.167 7.66699 102.5 23s61.166 38.333 86.499 69l64 280c-48.667 0 -95.167 -2.5 -139.5 -7.5s-83.5 -16.167 -117.5 -33.5s-61.167 -41.833 -81.5 -73.5s-30.833 -74.167 -31.5 -127.5
c0 -20 2.5 -38.167 7.5 -54.5s12.5 -30 22.5 -41s22.333 -19.5 37 -25.5s31.334 -9 50.001 -9zM282.002 1158l251 292c24 28 48.833 48.833 74.5 62.5s54.167 20.5 85.5 20.5s58 -6.83301 80 -20.5s40 -34.5 54 -62.5l148 -292l-61 -40l-243 231l-334 -233z" />
    <glyph glyph-name="atilde" unicode="&#xe3;" horiz-adv-x="1156" 
d="M287 -19c-40 0 -76.3311 6.67188 -108.998 20.0049s-60.334 31.666 -83.001 54.999s-40 51 -52 83s-18 66.667 -18 104c0 48 7.66699 91 23 129s35.833 71.333 61.5 100s55.834 53 90.501 73s71.334 36.167 110.001 48.5s78.334 21.333 119.001 27s80 8.5 118 8.5
c10.667 0 23.334 -0.5 38.001 -1.5s29.667 -2.33301 45 -4l44.5 -5l37.5 -4.5c2 8 4.16699 18.167 6.5 30.5s4.5 25.166 6.5 38.499s3.83301 26.666 5.5 39.999s2.5 25.666 2.5 36.999c0 48 -13 84.5 -39 109.5s-63.333 37.5 -112 37.5c-26 0 -55 -6.16699 -87 -18.5
s-64.333 -27.166 -97 -44.499s-64.167 -35.666 -94.5 -54.999l-76.5 -50h-52l34 226c35.333 12 69.666 22.5 102.999 31.5s67.166 16.667 101.499 23s69.666 11.166 105.999 14.499s74.833 5 115.5 5s83.667 -3.66699 129 -11s87 -20.333 125 -39s69.5 -43.667 94.5 -75
s37.5 -71.333 37.5 -120c0 -12 -0.5 -24.667 -1.5 -38s-2.33301 -26.833 -4 -40.5s-3.66699 -26.834 -6 -39.501s-4.83301 -25 -7.5 -37l-57 -249c-4 -16.667 -7.83301 -33.667 -11.5 -51l-10.5 -51.5c-3.33301 -17 -6 -33.5 -8 -49.5s-3 -30.667 -3 -44
c0 -11.333 2.16699 -21.833 6.5 -31.5s10.5 -18.334 18.5 -26.001s17.667 -13.667 29 -18s24 -6.5 38 -6.5c6.66699 0 14 0.833008 22 2.5s16.333 3.66699 25 6s17.5 5.16602 26.5 8.49902s17.5 6.66602 25.5 9.99902h29v-82c-24 -14 -49 -25.5 -75 -34.5
s-52.167 -16.333 -78.5 -22s-52.5 -9.66699 -78.5 -12s-51 -3.5 -75 -3.5c-28 0 -53.833 3.83301 -77.5 11.5s-44.334 18.334 -62.001 32.001s-32 30.667 -43 51s-17.5 43.5 -19.5 69.5h-5c-26 -30.667 -51.833 -56.667 -77.5 -78s-51.834 -38.666 -78.501 -51.999
s-54.5 -23 -83.5 -29s-59.5 -9 -91.5 -9zM440.002 144.005c36 0 70.167 7.66699 102.5 23s61.166 38.333 86.499 69l64 280c-48.667 0 -95.167 -2.5 -139.5 -7.5s-83.5 -16.167 -117.5 -33.5s-61.167 -41.833 -81.5 -73.5s-30.833 -74.167 -31.5 -127.5
c0 -20 2.5 -38.167 7.5 -54.5s12.5 -30 22.5 -41s22.333 -19.5 37 -25.5s31.334 -9 50.001 -9zM270.002 1167c11.333 42 26.5 80.4971 45.5 115.497s40.833 65 65.5 90s51.667 44.333 81 58s60 20.5 92 20.5c22 0 45 -4.66699 69 -14s51 -22.333 81 -39
c29.333 -17.333 53.5 -29.166 72.5 -35.499s34.167 -9.5 45.5 -9.5c34.667 0 61 10.167 79 30.5s33.333 47.833 46 82.5h87c-10.667 -41.333 -25.167 -79.5 -43.5 -114.5s-39.5 -65 -63.5 -90s-50.5 -44.5 -79.5 -58.5s-59.833 -21 -92.5 -21
c-12 0 -22.833 0.833008 -32.5 2.5s-20 4.83398 -31 9.50098s-23.167 10.5 -36.5 17.5s-29 15.833 -47 26.5c-28 17.333 -52 29.333 -72 36s-36 10 -48 10c-34.667 0 -62 -10.667 -82 -32s-36 -49.666 -48 -84.999h-88v0z" />
    <glyph glyph-name="adieresis" unicode="&#xe4;" horiz-adv-x="1156" 
d="M287 -19c-40 0 -76.3311 6.67188 -108.998 20.0049s-60.334 31.666 -83.001 54.999s-40 51 -52 83s-18 66.667 -18 104c0 48 7.66699 91 23 129s35.833 71.333 61.5 100s55.834 53 90.501 73s71.334 36.167 110.001 48.5s78.334 21.333 119.001 27s80 8.5 118 8.5
c10.667 0 23.334 -0.5 38.001 -1.5s29.667 -2.33301 45 -4l44.5 -5l37.5 -4.5c2 8 4.16699 18.167 6.5 30.5s4.5 25.166 6.5 38.499s3.83301 26.666 5.5 39.999s2.5 25.666 2.5 36.999c0 48 -13 84.5 -39 109.5s-63.333 37.5 -112 37.5c-26 0 -55 -6.16699 -87 -18.5
s-64.333 -27.166 -97 -44.499s-64.167 -35.666 -94.5 -54.999l-76.5 -50h-52l34 226c35.333 12 69.666 22.5 102.999 31.5s67.166 16.667 101.499 23s69.666 11.166 105.999 14.499s74.833 5 115.5 5s83.667 -3.66699 129 -11s87 -20.333 125 -39s69.5 -43.667 94.5 -75
s37.5 -71.333 37.5 -120c0 -12 -0.5 -24.667 -1.5 -38s-2.33301 -26.833 -4 -40.5s-3.66699 -26.834 -6 -39.501s-4.83301 -25 -7.5 -37l-57 -249c-4 -16.667 -7.83301 -33.667 -11.5 -51l-10.5 -51.5c-3.33301 -17 -6 -33.5 -8 -49.5s-3 -30.667 -3 -44
c0 -11.333 2.16699 -21.833 6.5 -31.5s10.5 -18.334 18.5 -26.001s17.667 -13.667 29 -18s24 -6.5 38 -6.5c6.66699 0 14 0.833008 22 2.5s16.333 3.66699 25 6s17.5 5.16602 26.5 8.49902s17.5 6.66602 25.5 9.99902h29v-82c-24 -14 -49 -25.5 -75 -34.5
s-52.167 -16.333 -78.5 -22s-52.5 -9.66699 -78.5 -12s-51 -3.5 -75 -3.5c-28 0 -53.833 3.83301 -77.5 11.5s-44.334 18.334 -62.001 32.001s-32 30.667 -43 51s-17.5 43.5 -19.5 69.5h-5c-26 -30.667 -51.833 -56.667 -77.5 -78s-51.834 -38.666 -78.501 -51.999
s-54.5 -23 -83.5 -29s-59.5 -9 -91.5 -9zM440.002 144.005c36 0 70.167 7.66699 102.5 23s61.166 38.333 86.499 69l64 280c-48.667 0 -95.167 -2.5 -139.5 -7.5s-83.5 -16.167 -117.5 -33.5s-61.167 -41.833 -81.5 -73.5s-30.833 -74.167 -31.5 -127.5
c0 -20 2.5 -38.167 7.5 -54.5s12.5 -30 22.5 -41s22.333 -19.5 37 -25.5s31.334 -9 50.001 -9zM419.002 1167c-18.667 0 -36.5 3.33594 -53.5 10.0029s-31.833 16 -44.5 28s-22.5 26.333 -29.5 43s-10.5 35 -10.5 55s3.5 38.333 10.5 55s16.833 31.167 29.5 43.5
s27.5 21.833 44.5 28.5s34.833 10 53.5 10c20.667 0 39.667 -3.33301 57 -10s32.5 -15.834 45.5 -27.501s23 -25.834 30 -42.501s10.5 -34.667 10.5 -54c0 -20.667 -3.66699 -39.334 -11 -56.001s-17.5 -31.167 -30.5 -43.5s-28.167 -22 -45.5 -29s-36 -10.5 -56 -10.5z
M875.002 1167.01c-19.333 0 -37.333 3.33594 -54 10.0029s-31.334 16 -44.001 28s-22.667 26.333 -30 43s-11 35 -11 55s3.66699 38.333 11 55s17.333 31.167 30 43.5s27.334 21.833 44.001 28.5s34.667 10 54 10c20 0 38.667 -3.33301 56 -10s32.5 -15.834 45.5 -27.501
s23.167 -25.834 30.5 -42.501s11 -34.667 11 -54c0 -20.667 -3.66699 -39.334 -11 -56.001s-17.5 -31.167 -30.5 -43.5s-28.167 -22 -45.5 -29s-36 -10.5 -56 -10.5z" />
    </font>
</defs>
</svg>
