<?xml version="1.0" standalone="no"?>
<!DOCTYPE svg PUBLIC "-//W3C//DTD SVG 1.1//EN" "http://www.w3.org/Graphics/SVG/1.1/DTD/svg11.dtd" >
<svg>
<metadata>
Created by FontForge 20090914 at Fri Jun 24 09:45:52 2016
 By www-data
&#194;&#169; 2013 Microsoft Corporation. All Rights Reserved.
</metadata>
<defs>
<font id="SitkaHeading-Italic" horiz-adv-x="0" >
  <font-face 
    font-family="Sitka Heading"
    font-weight="400"
    font-style="italic"
    font-stretch="normal"
    units-per-em="2250"
    panose-1="2 0 5 5 0 0 0 9 0 4"
    ascent="1703"
    descent="-547"
    x-height="1013"
    cap-height="1400"
    bbox="-886.002 -638 2906 2345"
    underline-thickness="102"
    underline-position="-103"
    slope="-12"
    unicode-range="U+0020-U+FB04"
  />
<missing-glyph horiz-adv-x="932" 
d="M0 1334h932v-1334h-932v1334zM76 73h781v1189h-781v-1189z" />
    <glyph glyph-name="uniFB00" unicode="ff" horiz-adv-x="1385" 
d="M-216 -480c-11.333 0 -23.5 0.831055 -36.5 2.49805s-26.167 4 -39.5 7s-26.5 6.66699 -39.5 11s-25.167 9.5 -36.5 15.5l46 166h26l40.5 -25.5c13.667 -8.33301 28.167 -15.666 43.5 -21.999s32.166 -11.5 50.499 -15.5s38.833 -6 61.5 -6c30 0 54.833 4.33301 74.5 13
s36.167 22.334 49.5 41.001c8.66699 12.667 17.834 30.834 27.501 54.501s19.667 51.834 30 84.501s20.5 69.667 30.5 111s20 86.666 30 135.999l158 804h-174l13 91h182c23.333 96.667 52.5 179.834 87.5 249.501s75.167 127 120.5 172s94.5 78.167 147.5 99.5
s108.833 32 167.5 32c11.333 0 23.666 -0.833008 36.999 -2.5s26.833 -4 40.5 -7s27.334 -6.83301 41.001 -11.5s25.834 -9.66699 36.501 -15l-45 -165h-26l-41 25.5c-14 8.33301 -29 15.833 -45 22.5s-33.333 12 -52 16s-39.334 6 -62.001 6
c-19.333 0 -36.166 -1.5 -50.499 -4.5s-26.833 -7 -37.5 -12s-19.5 -11.333 -26.5 -19s-13.167 -16.5 -18.5 -26.5c-8 -16 -15.833 -35.833 -23.5 -59.5s-15.5 -50.834 -23.5 -81.501s-16.333 -64.334 -25 -101.001l-28 -118h268l-16 -91h-269l-159 -812
c-19.333 -95.333 -46.833 -178.5 -82.5 -249.5s-77.334 -129.833 -125.001 -176.5s-99.5 -81.5 -155.5 -104.5s-113.333 -34.5 -172 -34.5zM481 -480.002c-11.333 0 -23.5 0.831055 -36.5 2.49805s-26.167 4 -39.5 7s-26.5 6.66699 -39.5 11s-25.167 9.5 -36.5 15.5l46 166
h26l40.5 -25.5c13.667 -8.33301 28.167 -15.666 43.5 -21.999s32.166 -11.5 50.499 -15.5s38.833 -6 61.5 -6c30 0 54.833 4.33301 74.5 13s36.167 22.334 49.5 41.001c8.66699 12.667 17.834 30.834 27.501 54.501s19.667 51.834 30 84.501s20.5 69.667 30.5 111
s20 86.666 30 135.999l158 804h-174l13 91h182c23.333 96.667 52.5 179.834 87.5 249.501s75.167 127 120.5 172s94.5 78.167 147.5 99.5s108.833 32 167.5 32c11.333 0 23.666 -0.833008 36.999 -2.5s26.833 -4 40.5 -7s27.334 -6.83301 41.001 -11.5
s25.834 -9.66699 36.501 -15l-45 -165h-26l-41 25.5c-14 8.33301 -29 15.833 -45 22.5s-33.333 12 -52 16s-39.334 6 -62.001 6c-19.333 0 -36.166 -1.5 -50.499 -4.5s-26.833 -7 -37.5 -12s-19.5 -11.333 -26.5 -19s-13.167 -16.5 -18.5 -26.5
c-8 -16 -15.833 -35.833 -23.5 -59.5s-15.5 -50.834 -23.5 -81.501s-16.333 -64.334 -25 -101.001l-28 -118h268l-16 -91h-269l-159 -812c-19.333 -95.333 -46.833 -178.5 -82.5 -249.5s-77.334 -129.833 -125.001 -176.5s-99.5 -81.5 -155.5 -104.5
s-113.333 -34.5 -172 -34.5z" />
    <glyph glyph-name="uniFB01" unicode="fi" horiz-adv-x="1330" 
d="M-216 -480c-11.333 0 -23.5029 0.833984 -36.5029 2.50098s-26.167 4 -39.5 7s-26.5 6.66699 -39.5 11s-25.167 9.5 -36.5 15.5l46 166h26c14.667 -9.33301 29 -18 43 -26s28.5 -15.167 43.5 -21.5s31.333 -11.5 49 -15.5s37.834 -6 60.501 -6c30 0 55 4.5 75 13.5
s36.333 22.5 49 40.5c8.66699 12.667 17.834 30.834 27.501 54.501s19.667 51.834 30 84.501s20.5 69.667 30.5 111s20 86.666 30 135.999l158 804h-174l13 91h182c23.333 96.667 52.5 179.834 87.5 249.501s75.167 127 120.5 172s94.5 78.167 147.5 99.5
s108.833 32 167.5 32c11.333 0 23.666 -0.833008 36.999 -2.5s26.833 -4 40.5 -7s27.334 -6.83301 41.001 -11.5s25.834 -9.66699 36.501 -15l-45 -164h-26l-43.5 26.5c-14.333 8.33301 -29.333 15.833 -45 22.5s-32.667 11.834 -51 15.501s-38.5 5.5 -60.5 5.5
c-19.333 0 -36.166 -1.33301 -50.499 -4s-26.833 -6.83398 -37.5 -12.501s-19.5 -12.334 -26.5 -20.001s-13.167 -16.5 -18.5 -26.5c-8 -16 -15.833 -35.833 -23.5 -59.5s-15.5 -50.834 -23.5 -81.501s-16.333 -64.334 -25 -101.001l-28 -118h268l-16 -91h-269l-159 -812
c-19.333 -95.333 -46.833 -178.5 -82.5 -249.5s-77.334 -129.833 -125.001 -176.5s-99.5 -81.5 -155.5 -104.5s-113.333 -34.5 -172 -34.5zM1016 -14.999c-26.667 0 -49.8359 4.33105 -69.5029 12.998s-36.334 19.667 -50.001 33s-23.834 28 -30.501 44s-10 31.667 -10 47
c0 21.333 2.16699 43.833 6.5 67.5l14.5 77.5l119 543c0 0.666992 0.166992 1.33398 0.5 2.00098s0.5 1.33398 0.5 2.00098c2.66699 14.667 0.833984 27.5 -5.49902 38.5s-18.166 19.833 -35.499 26.5l-105 44v43l371 65l-148 -675l-12 -57
c-4 -19.333 -7.5 -37.5 -10.5 -54.5s-5.33301 -32 -7 -45s-2.5 -22.5 -2.5 -28.5c0 -8 1.83301 -16.5 5.5 -25.5s9.5 -17.333 17.5 -25s18.167 -14.167 30.5 -19.5s27.5 -8 45.5 -8c4.66699 0 11.834 0.666992 21.501 2s20.334 3.5 32.001 6.5s23.334 6.16699 35.001 9.5
s22.167 7 31.5 11h23v-62c-20 -12 -42 -22.5 -66 -31.5s-48.333 -16.833 -73 -23.5s-48.167 -11.667 -70.5 -15s-41.833 -5 -58.5 -5zM1190 1253c-16.667 0 -32.666 3 -47.999 9s-28.666 14.333 -39.999 25s-20.333 23.5 -27 38.5s-10 31.5 -10 49.5s3.33301 34.5 10 49.5
s15.667 28 27 39s24.666 19.333 39.999 25s31.333 8.5 48 8.5c18.667 0 35.834 -2.83301 51.501 -8.5s29.167 -13.667 40.5 -24s20.333 -22.833 27 -37.5s10 -31 10 -49s-3.33301 -34.667 -10 -50s-15.834 -28.5 -27.501 -39.5s-25.334 -19.667 -41.001 -26
s-32.5 -9.5 -50.5 -9.5z" />
    <glyph glyph-name="uniFB02" unicode="fl" horiz-adv-x="1324" 
d="M1014 -15c-27.333 0 -51.3311 4.3291 -71.998 12.9961s-38 19.667 -52 33s-24.667 28 -32 44s-11 31.667 -11 47c0 20 2.16699 42.167 6.5 66.5s9.5 49.5 15.5 75.5l233 1055v3c6.66699 29.333 -6.66602 50 -39.999 62l-87 35l-21 -78h-26l-43.5 26.5
c-14.333 8.33301 -29.333 15.833 -45 22.5s-32.667 11.834 -51 15.501s-38.5 5.5 -60.5 5.5c-39.333 0 -68.5 -5.33301 -87.5 -16s-34.167 -26.334 -45.5 -47.001c-16 -32 -31.667 -78.833 -47 -140.5l-53 -219.5h268l-16 -91h-269l-159 -812
c-19.333 -95.333 -47 -178.5 -83 -249.5s-77.667 -129.833 -125 -176.5s-98.833 -81.5 -154.5 -104.5s-113.167 -34.5 -172.5 -34.5c-22.667 0 -48 3 -76 9s-53.333 15 -76 27l46 166h26l42.5 -26.5c13.667 -8.33301 28.167 -15.666 43.5 -21.999s32 -11.333 50 -15
s38 -5.5 60 -5.5c30 0 54.833 4.33301 74.5 13s36.167 22.334 49.5 41.001c17.333 26 36.333 72.167 57 138.5s41 148.833 61 247.5l158 804h-174l13 91h182c23.333 96.667 52.666 179.834 87.999 249.501s75.5 127 120.5 172s94 78.167 147 99.5s108.833 32 167.5 32
c22.667 0 48.5 -3.16699 77.5 -9.5s54.833 -15.166 77.5 -26.499l-8 -29l334 49l-262 -1178c-8 -34.667 -15 -68.5 -21 -101.5s-9 -57.833 -9 -74.5c0 -8 2 -16.5 6 -25.5s10.167 -17.333 18.5 -25s19 -14.167 32 -19.5s28.167 -8 45.5 -8
c4.66699 0 12.167 0.833008 22.5 2.5s21.666 3.66699 33.999 6s24.833 5.33301 37.5 9s23.667 7.5 33 11.5h22v-62c-20 -12 -42.5 -22.5 -67.5 -31.5s-50 -16.833 -75 -23.5s-48.833 -11.667 -71.5 -15s-41.334 -5 -56.001 -5z" />
    <glyph glyph-name="uniFB03" unicode="ffi" horiz-adv-x="2028" 
d="M-216 -480c-11.333 0 -23.5 0.831055 -36.5 2.49805s-26.167 4 -39.5 7s-26.5 6.66699 -39.5 11s-25.167 9.5 -36.5 15.5l46 166h26l40.5 -25.5c13.667 -8.33301 28.167 -15.666 43.5 -21.999s32.166 -11.5 50.499 -15.5s38.833 -6 61.5 -6c30 0 54.833 4.33301 74.5 13
s36.167 22.334 49.5 41.001c8.66699 12.667 17.834 30.834 27.501 54.501s19.667 51.834 30 84.501s20.5 69.667 30.5 111s20 86.666 30 135.999l158 804h-174l13 91h182c23.333 96.667 52.5 179.834 87.5 249.501s75.167 127 120.5 172s94.5 78.167 147.5 99.5
s108.833 32 167.5 32c11.333 0 23.666 -0.833008 36.999 -2.5s26.833 -4 40.5 -7s27.334 -6.83301 41.001 -11.5s25.834 -9.66699 36.501 -15l-45 -165h-26l-41 25.5c-14 8.33301 -29 15.833 -45 22.5s-33.333 12 -52 16s-39.334 6 -62.001 6
c-19.333 0 -36.166 -1.5 -50.499 -4.5s-26.833 -7 -37.5 -12s-19.5 -11.333 -26.5 -19s-13.167 -16.5 -18.5 -26.5c-8 -16 -15.833 -35.833 -23.5 -59.5s-15.5 -50.834 -23.5 -81.501s-16.333 -64.334 -25 -101.001l-28 -118h268l-16 -91h-269l-159 -812
c-19.333 -95.333 -46.833 -178.5 -82.5 -249.5s-77.334 -129.833 -125.001 -176.5s-99.5 -81.5 -155.5 -104.5s-113.333 -34.5 -172 -34.5zM481 -480.002c-11.333 0 -23.5 0.831055 -36.5 2.49805s-26.167 4 -39.5 7s-26.5 6.66699 -39.5 11s-25.167 9.5 -36.5 15.5l46 166
h26l40.5 -25.5c13.667 -8.33301 28.167 -15.666 43.5 -21.999s32.166 -11.5 50.499 -15.5s38.833 -6 61.5 -6c30 0 54.833 4.33301 74.5 13s36.167 22.334 49.5 41.001c8.66699 12.667 17.834 30.834 27.501 54.501s19.667 51.834 30 84.501s20.5 69.667 30.5 111
s20 86.666 30 135.999l158 804h-174l13 91h182c23.333 96.667 52.5 179.834 87.5 249.501s75.167 127 120.5 172s94.5 78.167 147.5 99.5s108.833 32 167.5 32c11.333 0 23.666 -0.833008 36.999 -2.5s26.833 -4 40.5 -7s27.334 -6.83301 41.001 -11.5
s25.834 -9.66699 36.501 -15l-45 -165h-26l-41 25.5c-14 8.33301 -29 15.833 -45 22.5s-33.333 12 -52 16s-39.334 6 -62.001 6c-19.333 0 -36.166 -1.5 -50.499 -4.5s-26.833 -7 -37.5 -12s-19.5 -11.333 -26.5 -19s-13.167 -16.5 -18.5 -26.5
c-8 -16 -15.833 -35.833 -23.5 -59.5s-15.5 -50.834 -23.5 -81.501s-16.333 -64.334 -25 -101.001l-28 -118h268l-16 -91h-269l-159 -812c-19.333 -95.333 -46.833 -178.5 -82.5 -249.5s-77.334 -129.833 -125.001 -176.5s-99.5 -81.5 -155.5 -104.5
s-113.333 -34.5 -172 -34.5zM1882 1255c-17.333 0 -33.667 3.00195 -49 9.00195s-28.666 14.167 -39.999 24.5s-20.166 23 -26.499 38s-9.5 31.5 -9.5 49.5s3.16699 34.667 9.5 50s15.166 28.333 26.499 39s24.666 19 39.999 25s31.666 9 48.999 9
c18 0 34.833 -2.83301 50.5 -8.5s29.334 -13.834 41.001 -24.501s20.667 -23.334 27 -38.001s9.5 -30.667 9.5 -48c0 -18.667 -3.33301 -35.667 -10 -51s-15.667 -28.5 -27 -39.5s-24.833 -19.5 -40.5 -25.5s-32.5 -9 -50.5 -9zM1714 -15.002
c-26 0 -49.0029 4.33301 -69.0029 13s-36.667 19.667 -50 33s-23.5 28 -30.5 44s-10.5 31.667 -10.5 47c0 21.333 2.16699 43.833 6.5 67.5s9.5 49.5 15.5 77.5l118 543c4 16.667 2.83301 30.5 -3.5 41.5s-18.166 20.167 -35.499 27.5l-106 44v43l371 65l-137 -624
c-1.33301 -10.667 -3.5 -23 -6.5 -37l-9.5 -45l-10 -48c-3.33301 -16 -6.16602 -31 -8.49902 -45l-6 -37c-1.66699 -10.667 -2.5 -18.667 -2.5 -24c0 -8 1.83301 -16.5 5.5 -25.5s9.5 -17.333 17.5 -25s18.333 -14.167 31 -19.5s27.667 -8 45 -8
c4.66699 0 11.834 0.666992 21.501 2s20.334 3.5 32.001 6.5l35.5 9.5c12 3.33301 22.667 7 32 11h22v-62c-20 -12 -42 -22.5 -66 -31.5s-48.167 -16.833 -72.5 -23.5s-47.833 -11.667 -70.5 -15s-42.334 -5 -59.001 -5z" />
    <glyph glyph-name="uniFB04" unicode="ffl" horiz-adv-x="2020" 
d="M-216 -480c-11.333 0 -23.5 0.831055 -36.5 2.49805s-26.167 4 -39.5 7s-26.5 6.66699 -39.5 11s-25.167 9.5 -36.5 15.5l46 166h26l40.5 -25.5c13.667 -8.33301 28.167 -15.666 43.5 -21.999s32.166 -11.5 50.499 -15.5s38.833 -6 61.5 -6c30 0 54.833 4.33301 74.5 13
s36.167 22.334 49.5 41.001c8.66699 12.667 17.834 30.834 27.501 54.501s19.667 51.834 30 84.501s20.5 69.667 30.5 111s20 86.666 30 135.999l158 804h-174l13 91h182c23.333 96.667 52.5 179.834 87.5 249.501s75.167 127 120.5 172s94.5 78.167 147.5 99.5
s108.833 32 167.5 32c11.333 0 23.666 -0.833008 36.999 -2.5s26.833 -4 40.5 -7s27.334 -6.83301 41.001 -11.5s25.834 -9.66699 36.501 -15l-45 -165h-26l-41 25.5c-14 8.33301 -29 15.833 -45 22.5s-33.333 12 -52 16s-39.334 6 -62.001 6
c-19.333 0 -36.166 -1.5 -50.499 -4.5s-26.833 -7 -37.5 -12s-19.5 -11.333 -26.5 -19s-13.167 -16.5 -18.5 -26.5c-8 -16 -15.833 -35.833 -23.5 -59.5s-15.5 -50.834 -23.5 -81.501s-16.333 -64.334 -25 -101.001l-28 -118h268l-16 -91h-269l-159 -812
c-19.333 -95.333 -46.833 -178.5 -82.5 -249.5s-77.334 -129.833 -125.001 -176.5s-99.5 -81.5 -155.5 -104.5s-113.333 -34.5 -172 -34.5zM1712 -15.002c-27.333 0 -51.3311 4.3291 -71.998 12.9961s-38 19.667 -52 33s-24.667 28 -32 44s-11 31.667 -11 47
c0 20 2.16699 42.167 6.5 66.5s9.5 49.5 15.5 75.5l233 1055v3c6.66699 29.333 -6.66602 50 -39.999 62l-87 35l-21 -78h-26l-43.5 26.5c-14.333 8.33301 -29.333 15.833 -45 22.5s-32.667 11.834 -51 15.501s-38.5 5.5 -60.5 5.5c-39.333 0 -68.5 -5.33301 -87.5 -16
s-34.167 -26.334 -45.5 -47.001c-16 -32 -31.667 -78.833 -47 -140.5l-53 -219.5h268l-16 -91h-269l-159 -812c-19.333 -95.333 -47 -178.5 -83 -249.5s-77.667 -129.833 -125 -176.5s-98.833 -81.5 -154.5 -104.5s-113.167 -34.5 -172.5 -34.5c-22.667 0 -48 3 -76 9
s-53.333 15 -76 27l46 166h26l42.5 -26.5c13.667 -8.33301 28.167 -15.666 43.5 -21.999s32 -11.333 50 -15s38 -5.5 60 -5.5c30 0 54.833 4.33301 74.5 13s36.167 22.334 49.5 41.001c17.333 26 36.333 72.167 57 138.5s41 148.833 61 247.5l158 804h-174l13 91h182
c23.333 96.667 52.666 179.834 87.999 249.501s75.5 127 120.5 172s94 78.167 147 99.5s108.833 32 167.5 32c22.667 0 48.5 -3.16699 77.5 -9.5s54.833 -15.166 77.5 -26.499l-8 -29l334 49l-262 -1178c-8 -34.667 -15 -68.5 -21 -101.5s-9 -57.833 -9 -74.5
c0 -8 2 -16.5 6 -25.5s10.167 -17.333 18.5 -25s19 -14.167 32 -19.5s28.167 -8 45.5 -8c4.66699 0 12.167 0.833008 22.5 2.5s21.666 3.66699 33.999 6s24.833 5.33301 37.5 9s23.667 7.5 33 11.5h22v-62c-20 -12 -42.5 -22.5 -67.5 -31.5s-50 -16.833 -75 -23.5
s-48.833 -11.667 -71.5 -15s-41.334 -5 -56.001 -5z" />
    <glyph glyph-name="f_b.liga" unicode="fb" horiz-adv-x="1879" 
d="M1258 -19c-28.667 0 -55.1641 2.83008 -79.4971 8.49707s-46.333 13 -66 22s-36.834 19.5 -51.501 31.5s-26.667 24.333 -36 37l-52 -93h-191c12 28 24.667 60 38 96s25 74 35 114l241 1122c7.33301 29.333 -5.66699 51 -39 65l-81 36l-22 -80h-26l-41 25.5
c-14 8.33301 -29 15.833 -45 22.5s-33.333 12 -52 16s-39.334 6 -62.001 6c-39.333 0 -68.666 -5.5 -87.999 -16.5s-34.333 -26.167 -45 -45.5c-16 -32 -31.667 -78.833 -47 -140.5l-53 -219.5h268l-16 -91h-269l-159 -812c-19.333 -95.333 -47 -178.5 -83 -249.5
s-77.667 -129.833 -125 -176.5s-98.833 -81.5 -154.5 -104.5s-113.167 -34.5 -172.5 -34.5c-22.667 0 -48 3 -76 9s-53.333 15 -76 27l46 166h26l40.5 -25.5c13.667 -8.33301 28.167 -15.666 43.5 -21.999s32.166 -11.5 50.499 -15.5s38.833 -6 61.5 -6
c30 0 54.833 4.33301 74.5 13s36.167 22.334 49.5 41.001c17.333 26 36.333 72.167 57 138.5s41 148.833 61 247.5l158 804h-174l13 91h182c23.333 96.667 52.666 179.834 87.999 249.501s75.5 127 120.5 172s94 78.167 147 99.5s108.833 32 167.5 32
c22.667 0 48.5 -3.16699 77.5 -9.5s54.833 -15.166 77.5 -26.499l-8 -30l327 50l-55.5 -252.5l-54.5 -252.5l-35 -153c36.667 41.333 70.667 73.666 102 96.999s60.333 40.5 87 51.5s50.834 17.667 72.501 20s41.5 3.5 59.5 3.5c52 0 97.833 -9.66699 137.5 -29
s73.167 -46.166 100.5 -80.499s48 -75.166 62 -122.499s21 -99 21 -155s-6 -111.333 -18 -166s-29.333 -106.834 -52 -156.501s-50.334 -95.834 -83.001 -138.501s-69.667 -79.5 -111 -110.5s-86.5 -55.333 -135.5 -73s-101.5 -26.5 -157.5 -26.5zM1246 95.9971
c62.667 0 117.498 15.6689 164.498 47.002s86 72.166 117 122.499s54.167 107 69.5 170s23 125.833 23 188.5c0 42 -4.66699 80.833 -14 116.5s-23.666 66.5 -42.999 92.5s-43.666 46.333 -72.999 61s-64.333 22 -105 22c-16 0 -33.333 -2 -52 -6s-37.5 -10.5 -56.5 -19.5
s-38.167 -20.333 -57.5 -34s-37.333 -29.834 -54 -48.501l-149 -669c14.667 -8 31.834 -14.667 51.501 -20s40.167 -9.83301 61.5 -13.5s42.166 -6.16699 62.499 -7.5s38.5 -2 54.5 -2z" />
    <glyph glyph-name="f_f_b.liga" unicode="ffb" horiz-adv-x="2576" 
d="M-216 -480c-11.333 0 -23.5 0.831055 -36.5 2.49805s-26.167 4 -39.5 7s-26.5 6.66699 -39.5 11s-25.167 9.5 -36.5 15.5l46 166h26l40.5 -25.5c13.667 -8.33301 28.167 -15.666 43.5 -21.999s32.166 -11.5 50.499 -15.5s38.833 -6 61.5 -6c30 0 54.833 4.33301 74.5 13
s36.167 22.334 49.5 41.001c8.66699 12.667 17.834 30.834 27.501 54.501s19.667 51.834 30 84.501s20.5 69.667 30.5 111s20 86.666 30 135.999l158 804h-174l13 91h182c23.333 96.667 52.5 179.834 87.5 249.501s75.167 127 120.5 172s94.5 78.167 147.5 99.5
s108.833 32 167.5 32c11.333 0 23.666 -0.833008 36.999 -2.5s26.833 -4 40.5 -7s27.334 -6.83301 41.001 -11.5s25.834 -9.66699 36.501 -15l-45 -165h-26l-41 25.5c-14 8.33301 -29 15.833 -45 22.5s-33.333 12 -52 16s-39.334 6 -62.001 6
c-19.333 0 -36.166 -1.5 -50.499 -4.5s-26.833 -7 -37.5 -12s-19.5 -11.333 -26.5 -19s-13.167 -16.5 -18.5 -26.5c-8 -16 -15.833 -35.833 -23.5 -59.5s-15.5 -50.834 -23.5 -81.501s-16.333 -64.334 -25 -101.001l-28 -118h268l-16 -91h-269l-159 -812
c-19.333 -95.333 -46.833 -178.5 -82.5 -249.5s-77.334 -129.833 -125.001 -176.5s-99.5 -81.5 -155.5 -104.5s-113.333 -34.5 -172 -34.5zM1956 -19.002c-28.667 0 -55.1641 2.83008 -79.4971 8.49707s-46.333 13 -66 22s-36.834 19.5 -51.501 31.5s-26.667 24.333 -36 37
l-52 -93h-191c12 28 24.667 60 38 96s25 74 35 114l241 1122c7.33301 29.333 -5.66699 51 -39 65l-81 36l-22 -80h-26l-41 25.5c-14 8.33301 -29 15.833 -45 22.5s-33.333 12 -52 16s-39.334 6 -62.001 6c-39.333 0 -68.666 -5.5 -87.999 -16.5s-34.333 -26.167 -45 -45.5
c-16 -32 -31.667 -78.833 -47 -140.5l-53 -219.5h268l-16 -91h-269l-159 -812c-19.333 -95.333 -47 -178.5 -83 -249.5s-77.667 -129.833 -125 -176.5s-98.833 -81.5 -154.5 -104.5s-113.167 -34.5 -172.5 -34.5c-22.667 0 -48 3 -76 9s-53.333 15 -76 27l46 166h26
l40.5 -25.5c13.667 -8.33301 28.167 -15.666 43.5 -21.999s32.166 -11.5 50.499 -15.5s38.833 -6 61.5 -6c30 0 54.833 4.33301 74.5 13s36.167 22.334 49.5 41.001c17.333 26 36.333 72.167 57 138.5s41 148.833 61 247.5l158 804h-174l13 91h182
c23.333 96.667 52.666 179.834 87.999 249.501s75.5 127 120.5 172s94 78.167 147 99.5s108.833 32 167.5 32c22.667 0 48.5 -3.16699 77.5 -9.5s54.833 -15.166 77.5 -26.499l-8 -30l327 50l-55.5 -252.5l-54.5 -252.5l-35 -153c36.667 41.333 70.667 73.666 102 96.999
s60.333 40.5 87 51.5s50.834 17.667 72.5 20c21.667 2.33301 41.5 3.5 59.5 3.5c52 0 97.833 -9.66699 137.5 -29s73.167 -46.166 100.5 -80.499s48 -75.166 62 -122.499s21 -99 21 -155s-6 -111.333 -18 -166s-29.333 -106.834 -52 -156.501s-50.334 -95.834 -83 -138.501
c-32.667 -42.667 -69.667 -79.5 -111 -110.5s-86.5 -55.333 -135.5 -73s-101.5 -26.5 -157.5 -26.5zM1944 95.9951c62.667 0 117.499 15.6689 164.499 47.002s86 72.166 117 122.499s54.167 107 69.5 170s23 125.833 23 188.5c0 42 -4.66699 80.833 -14 116.5
s-23.666 66.5 -43 92.5c-19.333 26 -43.666 46.333 -72.999 61s-64.333 22 -105 22c-16 0 -33.333 -2 -52 -6s-37.5 -10.5 -56.5 -19.5s-38.167 -20.333 -57.5 -34s-37.333 -29.834 -54 -48.501l-149 -669c14.667 -8 31.834 -14.667 51.501 -20s40.167 -9.83301 61.5 -13.5
s42.166 -6.16699 62.499 -7.5s38.5 -2 54.5 -2z" />
    <glyph glyph-name="f_h.liga" unicode="fh" horiz-adv-x="1883" 
d="M1595 -15c-25.333 0 -47.8311 4.33105 -67.498 12.998s-36.167 19.667 -49.5 33s-23.333 28 -30 44s-10 31.667 -10 47c0 8 0.5 17.5 1.5 28.5s2.5 23 4.5 36s4.33301 26.333 7 40l8 39.5l87 372c6 25.333 10.833 49.666 14.5 72.999s5.5 43.333 5.5 60
c0 45.333 -13.667 79.833 -41 103.5s-72 35.5 -134 35.5c-20 0 -40.833 -1.66699 -62.5 -5s-43.5 -8.83301 -65.5 -16.5s-43.5 -17.834 -64.5 -30.501s-40.5 -28.334 -58.5 -47.001l-137 -617c-2.66699 -16.667 -4.66699 -34 -6 -52s-2.16602 -35.5 -2.49902 -52.5
s-0.333008 -33.167 0 -48.5s0.5 -29 0.5 -41h-212l293 1319c4 16.667 2.83301 30 -3.5 40s-18.166 18.333 -35.499 25l-64 28l-19 -72h-26l-41 25.5c-14 8.33301 -29 15.833 -45 22.5s-33.333 12 -52 16s-39.334 6 -62.001 6c-39.333 0 -68.666 -5.5 -87.999 -16.5
s-34.333 -26.167 -45 -45.5c-16 -32 -31.667 -78.833 -47 -140.5l-53 -219.5h268l-16 -91h-269l-159 -812c-19.333 -95.333 -47 -178.5 -83 -249.5s-77.667 -129.833 -125 -176.5s-98.833 -81.5 -154.5 -104.5s-113.167 -34.5 -172.5 -34.5c-22.667 0 -48 3 -76 9
s-53.333 15 -76 27l46 166h26l40.5 -25.5c13.667 -8.33301 28.167 -15.666 43.5 -21.999s32.166 -11.5 50.499 -15.5s38.833 -6 61.5 -6c30 0 54.833 4.33301 74.5 13s36.167 22.334 49.5 41.001c17.333 26 36.333 72.167 57 138.5s41 148.833 61 247.5l158 804h-174l13 91
h182c23.333 96.667 52.666 179.834 87.999 249.501s75.5 127 120.5 172s94 78.167 147 99.5s108.833 32 167.5 32c22.667 0 48.5 -3.16699 77.5 -9.5s54.833 -15.166 77.5 -26.499l-8 -27l307 47l-121 -546l-23 -107c35.333 36.667 68.666 66 99.999 88
s61.166 38.833 89.499 50.5s55.5 19.334 81.5 23.001s51.667 5.5 77 5.5c30.667 0 60.834 -4 90.501 -12s56.167 -21.167 79.5 -39.5s42.166 -42.5 56.499 -72.5s21.833 -66.667 22.5 -110c0 -16 -1.66699 -34 -5 -54s-8 -45 -14 -75l-78 -335
c-4 -18 -7.83301 -36.167 -11.5 -54.5s-6.66699 -35.166 -9 -50.499l-6 -40.5c-1.66699 -11.667 -2.5 -20.167 -2.5 -25.5c0 -7.33301 1.83301 -15.666 5.5 -24.999s9.33398 -18 17.001 -26s17.667 -14.667 30 -20s27.5 -8 45.5 -8c4.66699 0 11.167 0.666992 19.5 2
s17.333 3.16602 27 5.49902s19.667 5.16602 30 8.49902s20.166 7.33301 29.499 12h23v-62c-19.333 -12 -41 -22.5 -65 -31.5s-47.833 -16.5 -71.5 -22.5s-46.167 -10.5 -67.5 -13.5s-39 -4.5 -53 -4.5z" />
    <glyph glyph-name="f_f_h.liga" unicode="ffh" horiz-adv-x="2580" 
d="M-216 -480c-11.333 0 -23.5 0.831055 -36.5 2.49805s-26.167 4 -39.5 7s-26.5 6.66699 -39.5 11s-25.167 9.5 -36.5 15.5l46 166h26l40.5 -25.5c13.667 -8.33301 28.167 -15.666 43.5 -21.999s32.166 -11.5 50.499 -15.5s38.833 -6 61.5 -6c30 0 54.833 4.33301 74.5 13
s36.167 22.334 49.5 41.001c8.66699 12.667 17.834 30.834 27.501 54.501s19.667 51.834 30 84.501s20.5 69.667 30.5 111s20 86.666 30 135.999l158 804h-174l13 91h182c23.333 96.667 52.5 179.834 87.5 249.501s75.167 127 120.5 172s94.5 78.167 147.5 99.5
s108.833 32 167.5 32c11.333 0 23.666 -0.833008 36.999 -2.5s26.833 -4 40.5 -7s27.334 -6.83301 41.001 -11.5s25.834 -9.66699 36.501 -15l-45 -165h-26l-41 25.5c-14 8.33301 -29 15.833 -45 22.5s-33.333 12 -52 16s-39.334 6 -62.001 6
c-19.333 0 -36.166 -1.5 -50.499 -4.5s-26.833 -7 -37.5 -12s-19.5 -11.333 -26.5 -19s-13.167 -16.5 -18.5 -26.5c-8 -16 -15.833 -35.833 -23.5 -59.5s-15.5 -50.834 -23.5 -81.501s-16.333 -64.334 -25 -101.001l-28 -118h268l-16 -91h-269l-159 -812
c-19.333 -95.333 -46.833 -178.5 -82.5 -249.5s-77.334 -129.833 -125.001 -176.5s-99.5 -81.5 -155.5 -104.5s-113.333 -34.5 -172 -34.5zM2293 -15.002c-25.333 0 -47.8311 4.33105 -67.498 12.998s-36.167 19.667 -49.5 33s-23.333 28 -30 44s-10 31.667 -10 47
c0 8 0.5 17.5 1.5 28.5s2.5 23 4.5 36s4.33301 26.333 7 40l8 39.5l87 372c6 25.333 10.833 49.666 14.5 72.999s5.5 43.333 5.5 60c0 45.333 -13.667 79.833 -41 103.5s-72 35.5 -134 35.5c-20 0 -40.833 -1.66699 -62.5 -5s-43.5 -8.83301 -65.5 -16.5
s-43.5 -17.834 -64.5 -30.501s-40.5 -28.334 -58.5 -47.001l-137 -617c-2.66699 -16.667 -4.66699 -34 -6 -52s-2.16602 -35.5 -2.49902 -52.5s-0.333008 -33.167 0 -48.5s0.5 -29 0.5 -41h-212l293 1319c4 16.667 2.83301 30 -3.5 40s-18.166 18.333 -35.499 25l-64 28
l-19 -72h-26l-41 25.5c-14 8.33301 -29 15.833 -45 22.5s-33.333 12 -52 16s-39.334 6 -62.001 6c-39.333 0 -68.666 -5.5 -87.999 -16.5s-34.333 -26.167 -45 -45.5c-16 -32 -31.667 -78.833 -47 -140.5l-53 -219.5h268l-16 -91h-269l-159 -812
c-19.333 -95.333 -47 -178.5 -83 -249.5s-77.667 -129.833 -125 -176.5s-98.833 -81.5 -154.5 -104.5s-113.167 -34.5 -172.5 -34.5c-22.667 0 -48 3 -76 9s-53.333 15 -76 27l46 166h26l40.5 -25.5c13.667 -8.33301 28.167 -15.666 43.5 -21.999s32.166 -11.5 50.499 -15.5
s38.833 -6 61.5 -6c30 0 54.833 4.33301 74.5 13s36.167 22.334 49.5 41.001c17.333 26 36.333 72.167 57 138.5s41 148.833 61 247.5l158 804h-174l13 91h182c23.333 96.667 52.666 179.834 87.999 249.501s75.5 127 120.5 172s94 78.167 147 99.5s108.833 32 167.5 32
c22.667 0 48.5 -3.16699 77.5 -9.5s54.833 -15.166 77.5 -26.499l-8 -27l307 47l-121 -546l-23 -107c35.333 36.667 68.666 66 99.999 88s61.166 38.833 89.499 50.5s55.5 19.334 81.5 23.001s51.667 5.5 77 5.5c30.667 0 60.834 -4 90.5 -12
c29.667 -8 56.167 -21.167 79.5 -39.5s42.166 -42.5 56.5 -72.5c14.333 -30 21.833 -66.667 22.5 -110c0 -16 -1.66699 -34 -5 -54s-8 -45 -14 -75l-78 -335c-4 -18 -7.83301 -36.167 -11.5 -54.5s-6.66699 -35.166 -9 -50.499l-6 -40.5
c-1.66699 -11.667 -2.5 -20.167 -2.5 -25.5c0 -7.33301 1.83301 -15.666 5.5 -24.999s9.33398 -18 17 -26c7.66699 -8 17.667 -14.667 30 -20s27.5 -8 45.5 -8c4.66699 0 11.167 0.666992 19.5 2s17.333 3.16602 27 5.49902s19.667 5.16602 30 8.49902
s20.166 7.33301 29.5 12h23v-62c-19.333 -12 -41 -22.5 -65 -31.5s-47.833 -16.5 -71.5 -22.5s-46.167 -10.5 -67.5 -13.5s-39 -4.5 -53 -4.5z" />
    <glyph glyph-name="f_j.liga" unicode="fj" horiz-adv-x="1347" 
d="M-216 -480c-11.333 0 -23.5 0.831055 -36.5 2.49805s-26.167 4 -39.5 7s-26.5 6.66699 -39.5 11s-25.167 9.5 -36.5 15.5l46 166h26l40.5 -25.5c13.667 -8.33301 28.167 -15.666 43.5 -21.999s32.166 -11.5 50.499 -15.5s38.833 -6 61.5 -6c30 0 54.833 4.33301 74.5 13
s36.167 22.334 49.5 41.001c8.66699 12.667 17.834 30.834 27.501 54.501s19.667 51.834 30 84.501s20.5 69.667 30.5 111s20 86.666 30 135.999l158 804h-174l13 91h182c23.333 96.667 52.5 179.834 87.5 249.501s75.167 127 120.5 172s94.5 78.167 147.5 99.5
s108.833 32 167.5 32c11.333 0 23.666 -0.833008 36.999 -2.5s26.833 -4 40.5 -7s27.334 -6.83301 41.001 -11.5s25.834 -9.66699 36.501 -15l-45 -165h-26l-41 25.5c-14 8.33301 -29 15.833 -45 22.5s-33.333 12 -52 16s-39.334 6 -62.001 6
c-19.333 0 -36.166 -1.5 -50.499 -4.5s-26.833 -7 -37.5 -12s-19.5 -11.333 -26.5 -19s-13.167 -16.5 -18.5 -26.5c-8 -16 -15.833 -35.833 -23.5 -59.5s-15.5 -50.834 -23.5 -81.501s-16.333 -64.334 -25 -101.001l-28 -118h268l-16 -91h-269l-159 -812
c-19.333 -95.333 -46.833 -178.5 -82.5 -249.5s-77.334 -129.833 -125.001 -176.5s-99.5 -81.5 -155.5 -104.5s-113.333 -34.5 -172 -34.5zM562 -480.002c-10.667 0 -22.498 0.833984 -35.498 2.50098s-26.5 4.16699 -40.5 7.5s-27.833 7.33301 -41.5 12
s-26.167 9.66699 -37.5 15l45 167h27l41 -25c14 -8.66699 29 -16.167 45 -22.5s33 -11.5 51 -15.5s37.333 -6 58 -6c34.667 0 62.5 5 83.5 15s37.5 24 49.5 42c21.333 34.667 41.166 85.5 59.499 152.5s37.166 152.5 56.499 256.5l129 685c2.66699 12.667 1 25.667 -5 39
s-18 23.333 -36 30l-129 48v43l393 65l-179 -936c-20 -104 -47.833 -192.333 -83.5 -265s-77 -131.834 -124 -177.501s-98.333 -79.167 -154 -100.5s-113.167 -32 -172.5 -32zM1220 1255c-16.667 0 -32.666 3.00195 -47.999 9.00195s-28.666 14.167 -39.999 24.5
s-20.333 23 -27 38s-10 31.5 -10 49.5s3.33301 34.667 10 50s15.667 28.333 27 39s24.666 19 39.999 25s31.333 9 48 9c18.667 0 35.834 -2.83301 51.501 -8.5s29.167 -13.834 40.5 -24.501s20.333 -23.334 27 -38.001s10 -30.667 10 -48
c0 -18.667 -3.33301 -35.667 -10 -51s-15.834 -28.5 -27.501 -39.5s-25.334 -19.5 -41.001 -25.5s-32.5 -9 -50.5 -9z" />
    <glyph glyph-name="f_f_j.liga" unicode="ffj" horiz-adv-x="2044" 
d="M-216 -480c-11.333 0 -23.5 0.831055 -36.5 2.49805s-26.167 4 -39.5 7s-26.5 6.66699 -39.5 11s-25.167 9.5 -36.5 15.5l46 166h26l40.5 -25.5c13.667 -8.33301 28.167 -15.666 43.5 -21.999s32.166 -11.5 50.499 -15.5s38.833 -6 61.5 -6c30 0 54.833 4.33301 74.5 13
s36.167 22.334 49.5 41.001c8.66699 12.667 17.834 30.834 27.501 54.501s19.667 51.834 30 84.501s20.5 69.667 30.5 111s20 86.666 30 135.999l158 804h-174l13 91h182c23.333 96.667 52.5 179.834 87.5 249.501s75.167 127 120.5 172s94.5 78.167 147.5 99.5
s108.833 32 167.5 32c11.333 0 23.666 -0.833008 36.999 -2.5s26.833 -4 40.5 -7s27.334 -6.83301 41.001 -11.5s25.834 -9.66699 36.501 -15l-45 -165h-26l-41 25.5c-14 8.33301 -29 15.833 -45 22.5s-33.333 12 -52 16s-39.334 6 -62.001 6
c-19.333 0 -36.166 -1.5 -50.499 -4.5s-26.833 -7 -37.5 -12s-19.5 -11.333 -26.5 -19s-13.167 -16.5 -18.5 -26.5c-8 -16 -15.833 -35.833 -23.5 -59.5s-15.5 -50.834 -23.5 -81.501s-16.333 -64.334 -25 -101.001l-28 -118h268l-16 -91h-269l-159 -812
c-19.333 -95.333 -46.833 -178.5 -82.5 -249.5s-77.334 -129.833 -125.001 -176.5s-99.5 -81.5 -155.5 -104.5s-113.333 -34.5 -172 -34.5zM481 -480.002c-11.333 0 -23.5 0.831055 -36.5 2.49805s-26.167 4 -39.5 7s-26.5 6.66699 -39.5 11s-25.167 9.5 -36.5 15.5l46 166
h26l40.5 -25.5c13.667 -8.33301 28.167 -15.666 43.5 -21.999s32.166 -11.5 50.499 -15.5s38.833 -6 61.5 -6c30 0 54.833 4.33301 74.5 13s36.167 22.334 49.5 41.001c8.66699 12.667 17.834 30.834 27.501 54.501s19.667 51.834 30 84.501s20.5 69.667 30.5 111
s20 86.666 30 135.999l158 804h-174l13 91h182c23.333 96.667 52.5 179.834 87.5 249.501s75.167 127 120.5 172s94.5 78.167 147.5 99.5s108.833 32 167.5 32c11.333 0 23.666 -0.833008 36.999 -2.5s26.833 -4 40.5 -7s27.334 -6.83301 41.001 -11.5
s25.834 -9.66699 36.501 -15l-45 -165h-26l-41 25.5c-14 8.33301 -29 15.833 -45 22.5s-33.333 12 -52 16s-39.334 6 -62.001 6c-19.333 0 -36.166 -1.5 -50.499 -4.5s-26.833 -7 -37.5 -12s-19.5 -11.333 -26.5 -19s-13.167 -16.5 -18.5 -26.5
c-8 -16 -15.833 -35.833 -23.5 -59.5s-15.5 -50.834 -23.5 -81.501s-16.333 -64.334 -25 -101.001l-28 -118h268l-16 -91h-269l-159 -812c-19.333 -95.333 -46.833 -178.5 -82.5 -249.5s-77.334 -129.833 -125.001 -176.5s-99.5 -81.5 -155.5 -104.5
s-113.333 -34.5 -172 -34.5zM1260 -480.004c-10.667 0 -22.498 0.833984 -35.498 2.50098s-26.5 4.16699 -40.5 7.5s-27.833 7.33301 -41.5 12s-26.167 9.66699 -37.5 15l45 167h27l41 -25c14 -8.66699 29 -16.167 45 -22.5s33 -11.5 51 -15.5s37.333 -6 58 -6
c34.667 0 62.5 5 83.5 15s37.5 24 49.5 42c21.333 34.667 41.166 85.5 59.499 152.5s37.166 152.5 56.499 256.5l129 685c2.66699 12.667 1 25.667 -5 39s-18 23.333 -36 30l-129 48v43l393 65l-179 -936c-20 -104 -47.833 -192.333 -83.5 -265s-77 -131.834 -124 -177.501
s-98.333 -79.167 -154 -100.5s-113.167 -32 -172.5 -32zM1918 1255c-16.667 0 -32.666 3.00195 -47.999 9.00195s-28.666 14.167 -39.999 24.5s-20.333 23 -27 38s-10 31.5 -10 49.5s3.33301 34.667 10 50s15.667 28.333 27 39s24.666 19 39.999 25s31.333 9 48 9
c18.667 0 35.834 -2.83301 51.501 -8.5s29.167 -13.834 40.5 -24.501s20.333 -23.334 27 -38.001s10 -30.667 10 -48c0 -18.667 -3.33301 -35.667 -10 -51s-15.834 -28.5 -27.501 -39.5s-25.334 -19.5 -41.001 -25.5s-32.5 -9 -50.5 -9z" />
    <glyph glyph-name="f_k.liga" unicode="fk" horiz-adv-x="1809" 
d="M1529 -15c-24 0 -44.1641 3.3291 -60.4971 9.99609s-30.5 16.167 -42.5 28.5s-22.5 27.5 -31.5 45.5s-18.5 38.333 -28.5 61l-167 379l-157 -133l-39 -182c-5.33301 -33.333 -8 -67.833 -8 -103.5v-90.5h-212l293 1319c3.33301 15.333 2 28.333 -4 39
s-17.667 19.334 -35 26.001l-64 28l-19 -72h-26l-41 25.5c-14 8.33301 -29 15.833 -45 22.5s-33.333 12 -52 16s-39.334 6 -62.001 6c-39.333 0 -68.666 -5.5 -87.999 -16.5s-34.333 -26.167 -45 -45.5c-16 -32 -31.667 -78.833 -47 -140.5l-53 -219.5h268l-16 -91h-269
l-159 -812c-19.333 -95.333 -47 -178.5 -83 -249.5s-77.667 -129.833 -125 -176.5s-98.833 -81.5 -154.5 -104.5s-113.167 -34.5 -172.5 -34.5c-22.667 0 -48 3 -76 9s-53.333 15 -76 27l46 166h26l40.5 -25.5c13.667 -8.33301 28.167 -15.666 43.5 -21.999
s32.166 -11.5 50.499 -15.5s38.833 -6 61.5 -6c30 0 54.833 4.33301 74.5 13s36.167 22.334 49.5 41.001c17.333 26 36.333 72.167 57 138.5s41 148.833 61 247.5l158 804h-174l13 91h182c23.333 96.667 52.666 179.834 87.999 249.501s75.5 127 120.5 172
s94 78.167 147 99.5s108.833 32 167.5 32c22.667 0 48.5 -3.16699 77.5 -9.5s54.833 -15.166 77.5 -26.499l-8 -27l307 47l-233 -1052l141 154l121.5 130.5l99.5 103c29.333 29.667 54 53.5 74 71.5c18.667 16.667 35.5 31 50.5 43s30 22 45 30s30.667 14 47 18
s35.166 6 56.499 6c17.333 0 34 -0.666992 50 -2s33.333 -3.66602 52 -6.99902l-26 -182h-34c-15.333 4 -34.5 7.33301 -57.5 10s-45.5 4 -67.5 4c-15.333 0 -33.666 -4.83301 -54.999 -14.5s-44.5 -23.667 -69.5 -42s-51 -40.333 -78 -66s-54.167 -54.5 -81.5 -86.5
l205 -475c8 -19.333 21.5 -37 40.5 -53s43.5 -24 73.5 -24c4.66699 0 11.167 0.666992 19.5 2s17.5 3.16602 27.5 5.49902s20.167 5.16602 30.5 8.49902s20.166 7.33301 29.499 12h22v-62c-19.333 -12 -40.5 -22.5 -63.5 -31.5s-46.167 -16.5 -69.5 -22.5
s-45.5 -10.5 -66.5 -13.5s-38.5 -4.5 -52.5 -4.5z" />
    <glyph glyph-name="f_f_k.liga" unicode="ffk" horiz-adv-x="2507" 
d="M-216 -480c-11.333 0 -23.5 0.831055 -36.5 2.49805s-26.167 4 -39.5 7s-26.5 6.66699 -39.5 11s-25.167 9.5 -36.5 15.5l46 166h26l40.5 -25.5c13.667 -8.33301 28.167 -15.666 43.5 -21.999s32.166 -11.5 50.499 -15.5s38.833 -6 61.5 -6c30 0 54.833 4.33301 74.5 13
s36.167 22.334 49.5 41.001c8.66699 12.667 17.834 30.834 27.501 54.501s19.667 51.834 30 84.501s20.5 69.667 30.5 111s20 86.666 30 135.999l158 804h-174l13 91h182c23.333 96.667 52.5 179.834 87.5 249.501s75.167 127 120.5 172s94.5 78.167 147.5 99.5
s108.833 32 167.5 32c11.333 0 23.666 -0.833008 36.999 -2.5s26.833 -4 40.5 -7s27.334 -6.83301 41.001 -11.5s25.834 -9.66699 36.501 -15l-45 -165h-26l-41 25.5c-14 8.33301 -29 15.833 -45 22.5s-33.333 12 -52 16s-39.334 6 -62.001 6
c-19.333 0 -36.166 -1.5 -50.499 -4.5s-26.833 -7 -37.5 -12s-19.5 -11.333 -26.5 -19s-13.167 -16.5 -18.5 -26.5c-8 -16 -15.833 -35.833 -23.5 -59.5s-15.5 -50.834 -23.5 -81.501s-16.333 -64.334 -25 -101.001l-28 -118h268l-16 -91h-269l-159 -812
c-19.333 -95.333 -46.833 -178.5 -82.5 -249.5s-77.334 -129.833 -125.001 -176.5s-99.5 -81.5 -155.5 -104.5s-113.333 -34.5 -172 -34.5zM2227 -15.002c-24 0 -44.165 3.3291 -60.498 9.99609s-30.5 16.167 -42.5 28.5s-22.5 27.5 -31.5 45.5s-18.5 38.333 -28.5 61
l-167 379l-157 -133l-39 -182c-5.33301 -33.333 -8 -67.833 -8 -103.5v-90.5h-212l293 1319c3.33301 15.333 2 28.333 -4 39s-17.667 19.334 -35 26.001l-64 28l-19 -72h-26l-41 25.5c-14 8.33301 -29 15.833 -45 22.5s-33.333 12 -52 16s-39.334 6 -62.001 6
c-39.333 0 -68.666 -5.5 -87.999 -16.5s-34.333 -26.167 -45 -45.5c-16 -32 -31.667 -78.833 -47 -140.5l-53 -219.5h268l-16 -91h-269l-159 -812c-19.333 -95.333 -47 -178.5 -83 -249.5s-77.667 -129.833 -125 -176.5s-98.833 -81.5 -154.5 -104.5
s-113.167 -34.5 -172.5 -34.5c-22.667 0 -48 3 -76 9s-53.333 15 -76 27l46 166h26l40.5 -25.5c13.667 -8.33301 28.167 -15.666 43.5 -21.999s32.166 -11.5 50.499 -15.5s38.833 -6 61.5 -6c30 0 54.833 4.33301 74.5 13s36.167 22.334 49.5 41.001
c17.333 26 36.333 72.167 57 138.5s41 148.833 61 247.5l158 804h-174l13 91h182c23.333 96.667 52.666 179.834 87.999 249.501s75.5 127 120.5 172s94 78.167 147 99.5s108.833 32 167.5 32c22.667 0 48.5 -3.16699 77.5 -9.5s54.833 -15.166 77.5 -26.499l-8 -27l307 47
l-233 -1052l141 154l121.5 130.5l99.5 103c29.333 29.667 54 53.5 74 71.5c18.667 16.667 35.5 31 50.5 43s30 22 45 30s30.667 14 47 18s35.166 6 56.5 6c17.333 0 34 -0.666992 50 -2s33.333 -3.66602 52 -6.99902l-26 -182h-34c-15.333 4 -34.5 7.33301 -57.5 10
s-45.5 4 -67.5 4c-15.333 0 -33.666 -4.83301 -55 -14.5c-21.333 -9.66699 -44.5 -23.667 -69.5 -42s-51 -40.333 -78 -66s-54.167 -54.5 -81.5 -86.5l205 -475c8 -19.333 21.5 -37 40.5 -53s43.5 -24 73.5 -24c4.66699 0 11.167 0.666992 19.5 2s17.5 3.16602 27.5 5.49902
s20.167 5.16602 30.5 8.49902s20.166 7.33301 29.5 12h22v-62c-19.333 -12 -40.5 -22.5 -63.5 -31.5s-46.167 -16.5 -69.5 -22.5s-45.5 -10.5 -66.5 -13.5s-38.5 -4.5 -52.5 -4.5z" />
    <glyph glyph-name=".notdef" horiz-adv-x="932" 
d="M0 1334h932v-1334h-932v1334zM76 73h781v1189h-781v-1189z" />
    <glyph glyph-name="space" unicode=" " horiz-adv-x="562" 
 />
    <glyph glyph-name="space" unicode="&#xa0;" horiz-adv-x="562" 
 />
    <glyph glyph-name="exclam" unicode="!" horiz-adv-x="711" 
d="M275 -24c-18 0 -35 3.5 -51 10.5s-30 16.333 -42 28s-21.333 25.5 -28 41.5s-10 33 -10 51c0 18.667 3.33301 36 10 52s16 30 28 42s26 21.333 42 28s33 10 51 10c18.667 0 36.167 -3.33301 52.5 -10s30.333 -16 42 -28s21.167 -26 28.5 -42s11 -33.333 11 -52
c0 -18 -3.66699 -35 -11 -51s-16.833 -29.833 -28.5 -41.5s-25.667 -21 -42 -28s-33.833 -10.5 -52.5 -10.5zM361 423h-72l65 478c21.333 158.667 44.333 317.667 69 477l4 22h229l-3 -22z" />
    <glyph glyph-name="quotedbl" unicode="&#x22;" horiz-adv-x="940" 
d="M364 916h-70l66 556l3 21h220l-2 -21zM763 916h-69l65 556l4 21h219l-2 -21z" />
    <glyph glyph-name="numbersign" unicode="#" horiz-adv-x="1414" 
d="M634 764l-87 -266h280l86 266h-279zM393 10h-89l120 371h-212v119h251l85 262h-274v120h311l119 362h88l-117 -362h273l117 362h87l-116 -362h212v-120h-251l-84 -262h274v-119h-313l-120 -371h-88l121 371h-275z" />
    <glyph glyph-name="dollar" unicode="$" horiz-adv-x="1238" 
d="M568 90c56 1.33301 104.002 8.16699 144.002 20.5s72.667 28.666 98 48.999s44 43.666 56 69.999s18 54.833 18 85.5c0 20.667 -5.33301 39.334 -16 56.001s-25.334 31.334 -44.001 44.001s-40.334 23.5 -65.001 32.5s-51 16.833 -79 23.5zM759.002 1010
c-4 0.666992 -8.33105 1.00098 -12.998 1.00098h-14c-42.667 0 -81.334 -4.33301 -116.001 -13s-64 -21.334 -88 -38.001s-42.5 -37.667 -55.5 -63s-19.5 -54.333 -19.5 -87c0 -24 5.16699 -45 15.5 -63s24.5 -33.667 42.5 -47s38.667 -24.5 62 -33.5
s48.666 -16.167 75.999 -21.5zM481.004 -254.998l-75 -0.00585938l64 241h-21c-44 0.666992 -84.5 4.5 -121.5 11.5s-70.5 15.333 -100.5 25s-56.333 19.834 -79 30.501s-41.667 20.334 -57 29.001l65 182h32c11.333 -11.333 27.166 -25.666 47.499 -42.999
s44 -34.333 71 -51s56.5 -32.167 88.5 -46.5s65.333 -24.5 100 -30.5l115 394c-18 3.33301 -37 7.83301 -57 13.5s-43 12.834 -69 21.501c-34 12 -64.167 26.167 -90.5 42.5s-48.5 34.5 -66.5 54.5s-31.5 41.667 -40.5 65s-13.5 48.333 -13.5 75
c0 47.333 12.667 91.833 38 133.5s60.833 78.334 106.5 110.001s99.667 57.334 162 77.001s130.833 31.167 205.5 34.5l40 135h74l-40 -136c36 -2 69.667 -6.83301 101 -14.5s59.833 -16.667 85.5 -27s48.5 -20.5 68.5 -30.5l50 -25l-62 -177h-32l-39.5 34.5
c-16.333 14.333 -35 29 -56 44s-43.833 29.667 -68.5 44s-50 25.833 -76 34.5l-110 -367c62 -13.333 115 -29.166 159 -47.499s79.833 -38.666 107.5 -60.999s47.834 -46.833 60.501 -73.5s19 -54.667 19 -84c0 -48 -13.167 -93.167 -39.5 -135.5
s-62.666 -79.833 -108.999 -112.5s-101.333 -59.834 -165 -81.501s-132.834 -35.834 -207.501 -42.501z" />
    <glyph glyph-name="percent" unicode="%" horiz-adv-x="2054" 
d="M391 492c-46.667 0 -87.832 8.99902 -123.499 26.999s-65.5 42.833 -89.5 74.5s-42.167 69.5 -54.5 113.5s-18.5 92 -18.5 144c0 55.333 5.66699 109.833 17 163.5s27.5 104.834 48.5 153.501s46.167 93.834 75.5 135.501s62.666 77.667 99.999 108s77.833 54 121.5 71
s90.167 25.5 139.5 25.5c50 0 93.167 -9.5 129.5 -28.5s66.333 -45 90 -78s41.167 -71.333 52.5 -115s17 -89.834 17 -138.501c0 -94 -13.5 -181 -40.5 -261s-63.667 -149.333 -110 -208s-100 -104.5 -161 -137.5s-125.5 -49.5 -193.5 -49.5zM405.002 559.999
c31.333 0 61.4971 7.49805 90.4971 22.498s55.833 36.167 80.5 63.5s46.834 60.333 66.501 99s36.5 81.667 50.5 129s24.667 98.333 32 153s11 112 11 172c0 35.333 -2.66699 67.833 -8 97.5s-13.666 55.167 -24.999 76.5s-26 38 -44 50s-39.333 18 -64 18
c-29.333 0 -57.666 -8 -84.999 -24s-53.333 -38.5 -78 -67.5s-47.167 -63.167 -67.5 -102.5s-37.833 -82.166 -52.5 -128.499s-26.167 -95.333 -34.5 -147s-12.5 -104.5 -12.5 -158.5c0 -37.333 2.5 -71.5 7.5 -102.5s13.167 -57.667 24.5 -80s26 -39.666 44 -51.999
s39.333 -18.5 64 -18.5zM493.999 -100.003h-117l1240 1575h116zM1493 -119.003c-46.667 0 -87.832 8.99902 -123.499 26.999s-65.5 42.833 -89.5 74.5s-42.167 69.5 -54.5 113.5s-18.5 92 -18.5 144c0 55.333 5.66699 109.833 17 163.5s27.5 104.834 48.5 153.501
s46.167 93.834 75.5 135.501s62.666 77.667 99.999 108s77.833 54 121.5 71s90.167 25.5 139.5 25.5c50 0 93.167 -9.5 129.5 -28.5s66.333 -45 90 -78s41.167 -71.333 52.5 -115s17 -89.834 17 -138.501c0 -94 -13.5 -181 -40.5 -261s-63.667 -149.333 -110 -208
s-100 -104.5 -161 -137.5s-125.5 -49.5 -193.5 -49.5zM1507 -51.0039c31.333 0 61.4971 7.49805 90.4971 22.498s55.833 36.167 80.5 63.5s46.834 60.333 66.501 99s36.5 81.667 50.5 129s24.667 98.333 32 153s11 112 11 172c0 35.333 -2.66699 67.833 -8 97.5
s-13.666 55.167 -24.999 76.5s-26 38 -44 50s-39.333 18 -64 18c-29.333 0 -57.666 -8 -84.999 -24s-53.333 -38.5 -78 -67.5s-47.167 -63.167 -67.5 -102.5s-37.833 -82.166 -52.5 -128.499s-26.167 -95.333 -34.5 -147s-12.5 -104.5 -12.5 -158.5
c0 -37.333 2.5 -71.5 7.5 -102.5s13.167 -57.667 24.5 -80s26 -39.666 44 -51.999s39.333 -18.5 64 -18.5z" />
    <glyph glyph-name="ampersand" unicode="&#x26;" horiz-adv-x="1481" 
d="M496 112c40.667 0 77.334 3.33301 110.001 10s63.667 16.5 93 29.5s57.166 28.833 83.499 47.5s52.833 40.334 79.5 65.001l-349 434c-36 -20.667 -69.5 -42.667 -100.5 -66s-57.667 -49.5 -80 -78.5s-39.833 -61.167 -52.5 -96.5s-19 -75 -19 -119
c0 -34 6 -64.833 18 -92.5s28.5 -51.334 49.5 -71.001s45.833 -35 74.5 -46s59.667 -16.5 93 -16.5zM630 826c46 23.333 85.0029 48.334 117.003 75.001s57.667 55 77 85s33.333 61.167 42 93.5s13 65.833 13 100.5c0 52.667 -14.333 93.167 -43 121.5
s-68.334 42.5 -119.001 42.5c-30 0 -58.5 -6 -85.5 -18s-50.5 -28.833 -70.5 -50.5s-36 -47.5 -48 -77.5s-18 -62.667 -18 -98c0 -22 2.33301 -43.333 7 -64s12.167 -41.834 22.5 -63.501s24.166 -44.5 41.499 -68.5s38.666 -50 63.999 -78zM426.003 -31.999
c-50.667 0 -97.8359 7.49902 -141.503 22.499s-81.834 36.667 -114.501 65s-58.334 62.5 -77.001 102.5s-28 85.333 -28 136c0 26.667 3.33301 54.667 10 84s16.334 58 29.001 86s27.834 55.333 45.501 82s37.5 50.667 59.5 72l257 141
c-30.667 34 -55.834 65.167 -75.501 93.5s-35 54.833 -46 79.5s-18.5 47.834 -22.5 69.501s-6 42.834 -6 63.501c0 60 13.167 112.667 39.5 158s59.833 83.5 100.5 114.5s85.334 54.333 134.001 70s95.667 23.5 141 23.5c48.667 0 92.834 -6.5 132.501 -19.5
s73.5 -31 101.5 -54s49.5 -50 64.5 -81s22.5 -64.5 22.5 -100.5c0 -28 -2.83301 -54.833 -8.5 -80.5s-13.667 -49.834 -24 -72.501s-22.166 -43.834 -35.499 -63.501s-27.333 -37.5 -42 -53.5l-266 -141l308 -383c23.333 26.667 46 55.167 68 85.5s41.333 59.5 58 87.5
s30.167 53.333 40.5 76s15.833 40 16.5 52c-2.66699 4 -6.33398 7 -11.001 9s-9.66699 4 -15 6l-145 39l14 57h497l-13 -57l-122 -32c-14.667 -4 -28 -11.333 -40 -22s-23.667 -24 -35 -40c-13.333 -19.333 -27.5 -38.833 -42.5 -58.5l-46.5 -59l-48.5 -58l-48 -54
l-44 -48.5l-36.5 -41l136 -156l20.5 -22.5c7.66699 -8.33301 15.667 -16.5 24 -24.5s16.833 -14.833 25.5 -20.5s17.334 -9.5 26.001 -11.5l142 -31l-15 -58h-208c-28 0 -50.667 1.5 -68 4.5s-32.5 8.33301 -45.5 16s-25.333 18.334 -37 32.001s-25.5 30.834 -41.5 51.501
l-12 15l-14.5 18.5c-5 6.33301 -10 13 -15 20s-10 13.5 -15 19.5l-14 17c-4.33301 5.33301 -7.5 9.66602 -9.5 12.999c-36.667 -36.667 -74.167 -69.667 -112.5 -99s-77.333 -54.333 -117 -75s-80.667 -36.667 -123 -48s-86.166 -17 -131.499 -17z" />
    <glyph glyph-name="quotesingle" unicode="'" horiz-adv-x="540" 
d="M364 916h-70l66 556l3 21h219l-1 -21z" />
    <glyph glyph-name="parenleft" unicode="(" horiz-adv-x="826" 
d="M547 -267l-16.998 -77.999c-66 9.33301 -124.167 29.833 -174.5 61.5s-92.333 72.834 -126 123.501s-59.167 110.667 -76.5 180s-26 146.333 -26 231c0 104.667 8.83301 206.667 26.5 306s43 193.5 76 282.5s73.5 171.5 121.5 247.5s102.167 142.833 162.5 200.5
s126.333 105 198 142s147.834 61.5 228.501 73.5l-17 -81c-69.333 -14 -132.833 -41.667 -190.5 -83s-109.834 -92.833 -156.501 -154.5s-87.5 -131.834 -122.5 -210.501s-64.333 -161.834 -88 -249.501s-41.334 -178.167 -53.001 -271.5s-17.5 -185.666 -17.5 -276.999
c0 -60.667 4.66699 -116.167 14 -166.5s24.166 -94.5 44.499 -132.5s46.5 -69.333 78.5 -94s70.333 -41.334 115 -50.001z" />
    <glyph glyph-name="parenright" unicode=")" horiz-adv-x="826" 
d="M-104 -345l17.998 82.001c68.667 13.333 131.834 40.666 189.501 81.999s109.834 92.833 156.501 154.5s87.5 131.834 122.5 210.501s64.333 161.834 88 249.501s41.5 178.167 53.5 271.5s18 185.666 18 276.999c0 60.667 -4.83301 116 -14.5 166s-24.667 94 -45 132
s-46.5 69.5 -78.5 94.5s-70 41.833 -114 50.5l16 78c66.667 -9.33301 125 -29.833 175 -61.5s91.833 -72.834 125.5 -123.501s59.167 -110.667 76.5 -180s26 -146.333 26 -231c0 -104.667 -8.83301 -206.667 -26.5 -306s-43 -193.5 -76 -282.5s-73.5 -171.5 -121.5 -247.5
s-102 -143 -162 -201s-126 -105.5 -198 -142.5s-148.333 -61.167 -229 -72.5z" />
    <glyph glyph-name="asterisk" unicode="*" horiz-adv-x="1111" 
d="M639 998l-155.002 -279.002l-18 -30l-122 88c0 1.33301 0.333008 2.33301 1 3s1.33398 1.66699 2.00098 3l239 255l-10 26l-340 66c-0.666992 0 -1.5 0.166992 -2.5 0.5s-1.83301 0.833008 -2.5 1.5l47 143c0.666992 -0.666992 1.5 -1 2.5 -1s2.16699 -0.333008 3.5 -1
l314 -148l26 20l-39 311l-5 37v0h151v0l-4 -37l-37 -309l24 -22l316 148c0.666992 0.666992 1.33398 1 2.00098 1s1.66699 0.333008 3 1l46 -142l-5 -3l-340 -66l-12 -29l218 -231l11.5 -13.5l11.5 -13.5l-124 -87c-0.666992 0.666992 -1.16699 1.33398 -1.5 2.00098
s-0.833008 1.33398 -1.5 2.00098l-166 304h-33z" />
    <glyph glyph-name="plus" unicode="+" horiz-adv-x="1414" 
d="M790 62h-120v454h-453v117h453v453h120v-453h454v-117h-454v-454z" />
    <glyph glyph-name="comma" unicode="," horiz-adv-x="563" 
d="M-16 -372l-37.001 57.0029c29.333 18.667 58.5 39.334 87.5 62.001s55.833 46.167 80.5 70.5s46.334 49.166 65.001 74.499s32.667 50.333 42 75l-61 36.5c-16.667 10.333 -30.167 20.666 -40.5 30.999s-18 21.166 -23 32.499s-7.5 24.666 -7.5 39.999
c0 18.667 3.5 36 10.5 52s16.5 30 28.5 42s26 21.333 42 28s33.333 10 52 10c24 0 44.667 -3.83301 62 -11.5s31.5 -18 42.5 -31s19 -28.667 24 -47s7.5 -38.5 7.5 -60.5c0 -39.333 -6.33301 -76.333 -19 -111s-29.5 -67 -50.5 -97s-44.667 -57.833 -71 -83.5
s-53.5 -49 -81.5 -70s-55.333 -39.833 -82 -56.5z" />
    <glyph glyph-name="hyphen" unicode="-" horiz-adv-x="778" 
d="M660 480h-572l35 146h572z" />
    <glyph glyph-name="hyphen" unicode="&#x2010;" horiz-adv-x="778" 
d="M660 480h-572l35 146h572z" />
    <glyph glyph-name="hyphen" unicode="&#xad;" horiz-adv-x="778" 
d="M660 480h-572l35 146h572z" />
    <glyph glyph-name="period" unicode="." horiz-adv-x="563" 
d="M224 -24c-18 0 -35.167 3.5 -51.5 10.5s-30.5 16.5 -42.5 28.5s-21.5 25.833 -28.5 41.5s-10.5 32.834 -10.5 51.501c0 18 3.5 35 10.5 51s16.5 30 28.5 42s26.167 21.5 42.5 28.5s33.5 10.5 51.5 10.5s35.167 -3.5 51.5 -10.5s30.5 -16.5 42.5 -28.5s21.5 -26 28.5 -42
s10.5 -33 10.5 -51c0 -18.667 -3.5 -35.834 -10.5 -51.501s-16.5 -29.5 -28.5 -41.5s-26.167 -21.5 -42.5 -28.5s-33.5 -10.5 -51.5 -10.5z" />
    <glyph glyph-name="slash" unicode="/" horiz-adv-x="958" 
d="M-72 -420h-129l1112 1931h135z" />
    <glyph glyph-name="zero" unicode="0" horiz-adv-x="1250" 
d="M566 54c45.333 0 86.502 9.5 123.502 28.5s69.667 44 98 75s52.666 67 72.999 108s37.166 84 50.499 129s23 90.167 29 135.5s9 88.333 9 129c0 46.667 -4.5 91.334 -13.5 134.001s-23.5 80 -43.5 112s-46.167 57.5 -78.5 76.5s-71.833 28.5 -118.5 28.5
c-46 0 -87.5 -9.33301 -124.5 -28s-69.833 -43.834 -98.5 -75.501s-53.5 -68 -74.5 -109s-38 -84 -51 -129s-22.833 -90.167 -29.5 -135.5s-10 -88 -10 -128c0 -44 4.33301 -87 13 -129s23.167 -79.333 43.5 -112s46.833 -59.167 79.5 -79.5s73.667 -30.5 123 -30.5v0z
M543.002 -28c-68 0 -129.164 10.5 -183.497 31.5s-100.166 50.833 -137.499 89.5s-66 85 -86 139s-30 114.333 -30 181c0 57.333 6.5 114 19.5 170s31.5 109.167 55.5 159.5s53.667 96.833 89 139.5s75.666 79.5 120.999 110.5s95.166 55.333 149.499 73
s112.5 26.5 174.5 26.5c75.333 0 140.5 -11.833 195.5 -35.5s100.167 -55.667 135.5 -96s61.5 -87.333 78.5 -141s25.5 -110.167 25.5 -169.5c0 -58.667 -6.33301 -116.167 -19 -172.5s-31.334 -109.5 -56.001 -159.5s-54.834 -96.167 -90.501 -138.5s-76 -79 -121 -110
s-94.333 -55 -148 -72s-111.167 -25.5 -172.5 -25.5v0z" />
    <glyph glyph-name="one" unicode="1" horiz-adv-x="876" 
d="M692 0l-646.999 -0.00292969l13 58c32.667 6.66699 65.5 13 98.5 19s65.833 12.667 98.5 20c14 2.66699 25.667 8.83398 35 18.501s15.666 21.834 18.999 36.501l136 614l38 139h-7l-287 -65l15 66l429 180h69l-19.5 -74.5l-21 -83.5l-20.5 -86l-19 -80l-135 -610
c-3.33301 -15.333 -2.33301 -27.666 3 -36.999s14.333 -15.333 27 -18l187 -39z" />
    <glyph glyph-name="two" unicode="2" horiz-adv-x="1138" 
d="M930 0l-926.003 0.00292969l24 103l236.5 144.5c71.667 44.333 136.5 86.166 194.5 125.499s108.833 77.166 152.5 113.499s80.334 73 110.001 110s51.834 75.167 66.501 114.5s22 81.333 22 126c0 26.667 -3 50.5 -9 71.5s-15.5 38.833 -28.5 53.5s-29.667 26 -50 34
s-44.833 12 -73.5 12c-38.667 0 -78 -7.33301 -118 -22s-78.833 -32.5 -116.5 -53.5s-72.167 -42.833 -103.5 -65.5l-78 -57h-34l14 181l71.5 35c29 14 61.667 27.5 98 40.5s75.5 24 117.5 33s85.667 13.5 131 13.5c55.333 0 106.333 -6 153 -18
s86.834 -29.833 120.501 -53.5s59.667 -52.834 78 -87.501s27.5 -75 27.5 -121c0 -48.667 -8.33301 -93.667 -25 -135s-40.667 -80.5 -72 -117.5s-69.333 -72.667 -114 -107s-95.334 -68.5 -152.001 -102.5s-118.667 -68.667 -186 -104l-214 -112l-1 -6l213 9h344
c20 0 36.333 4.66699 49 14s22.334 21.333 29.001 36l54 119h69z" />
    <glyph glyph-name="three" unicode="3" horiz-adv-x="1126" 
d="M309 -389c-48 0 -92.3418 3.50488 -133.009 10.5049s-77.167 15.5 -109.5 25.5s-60.833 20.667 -85.5 32s-45.334 21.333 -62.001 30l61 184h32c14 -14.667 34.5 -31.834 61.5 -51.501s57.833 -38.334 92.5 -56.001s72 -32.834 112 -45.501s80.333 -19 121 -19
c58.667 0 108.834 8.66699 150.501 26s75.834 42.166 102.501 74.499s46.334 71.166 59.001 116.499s19 96 19 152c0 34.667 -4.83301 67 -14.5 97s-25.167 56 -46.5 78s-49.333 39.333 -84 52s-77 19 -127 19h-137l23 108h108c52.667 0 101 8 145 24
s81.5 39.833 112.5 71.5s55.167 70.834 72.5 117.501s26 101 26 163c0 24.667 -2.83301 47 -8.5 67s-15 37 -28 51s-30 25 -51 33s-46.833 12 -77.5 12c-36.667 0 -74.834 -6.16699 -114.501 -18.5s-78.167 -27.166 -115.5 -44.499s-72.166 -35.5 -104.499 -54.5
l-80.5 -48.5h-30l14 179l61 26.5c24.667 11 53.334 21.667 86.001 32s68.834 19.166 108.501 26.499s82.834 11 129.501 11c56 0 108.833 -6.5 158.5 -19.5s93 -31.667 130 -56s66.167 -54.333 87.5 -90s32 -75.834 32 -120.501c0 -36.667 -6.66699 -74.167 -20 -112.5
s-35.666 -75.5 -66.999 -111.5s-73.166 -69.5 -125.499 -100.5s-118.166 -57.5 -197.499 -79.5l-1 -4c40.667 -4.66699 81.167 -13.5 121.5 -26.5s76.333 -31.5 108 -55.5s57.5 -54 77.5 -90s30 -79 30 -129s-8.33301 -96.833 -25 -140.5s-39.5 -83.5 -68.5 -119.5
s-63.333 -68 -103 -96s-82.5 -51.667 -128.5 -71s-94.167 -34 -144.5 -44s-101.166 -15 -152.499 -15z" />
    <glyph glyph-name="four" unicode="4" horiz-adv-x="1192" 
d="M101 191l-2 -6l125 6h404l107 481l37 134l1 33zM843 -366h-490.003l13 56l116 32c14.667 4 26.334 10.333 35.001 19s14.667 20.667 18 36l68 301h-648l24 109l929 896h94l-198 -892h246l-25 -113h-246l-68 -301c-3.33301 -15.333 -2.16602 -27.5 3.50098 -36.5
s14.834 -15.167 27.501 -18.5l114 -32z" />
    <glyph glyph-name="five" unicode="5" horiz-adv-x="1087" 
d="M299 -389c-51.333 0 -97.333 3.6709 -138 11.0039s-76.5 16.333 -107.5 27s-57.5 21.5 -79.5 32.5l-55 27.5l64 184h31c14.667 -12.667 34.334 -28.834 59.001 -48.501s53.5 -38.667 86.5 -57s68.833 -34 107.5 -47s78.667 -19.5 120 -19.5
c55.333 0 103.666 10.167 144.999 30.5s75.666 48.166 102.999 83.499s47.833 76.833 61.5 124.5s20.5 98.834 20.5 153.501c0 49.333 -9.16699 91.666 -27.5 126.999s-43.166 63.833 -74.499 85.5s-68 37.667 -110 48s-87 15.5 -135 15.5c-24 0 -47 -1.66699 -69 -5
s-42.5 -7.33301 -61.5 -12s-36.167 -9.83398 -51.5 -15.501l-41 -15.5l-22 6l224 711h708l-36 -164h-635l-125 -390c39.333 14.667 75 24.167 107 28.5s62 6.5 90 6.5c64 0 123.333 -7.66699 178 -23s102.167 -38.166 142.5 -68.499s72 -68.333 95 -114
s34.5 -98.834 34.5 -159.501c0 -50.667 -7.5 -100 -22.5 -148s-36 -92.833 -63 -134.5s-59.333 -79.667 -97 -114s-79 -63.833 -124 -88.5s-93.167 -43.834 -144.5 -57.501s-104 -20.5 -158 -20.5z" />
    <glyph glyph-name="six" unicode="6" horiz-adv-x="1177" 
d="M552 55c52.667 0 99.3369 11.335 140.004 34.002s75.167 54.167 103.5 94.5s50 87.833 65 142.5s22.5 114.334 22.5 179.001c0 87.333 -21.333 154.833 -64 202.5s-105.667 71.5 -189 71.5c-24 0 -48.833 -2.33301 -74.5 -7s-51.334 -11.834 -77.001 -21.501
s-50.834 -21.834 -75.501 -36.501s-48 -32.334 -70 -53.001c-4.66699 -20.667 -8.83398 -41 -12.501 -61s-7 -40.333 -10 -61s-5.33301 -42.334 -7 -65.001s-2.5 -47.667 -2.5 -75c0 -58 6.5 -108.667 19.5 -152s30.833 -79.166 53.5 -107.499s49.167 -49.5 79.5 -63.5
s63.166 -21 98.499 -21zM515.003 -29.998c-66.667 0 -124.836 11.001 -174.503 33.001s-91 53 -124 93s-57.5 88.5 -73.5 145.5s-24 120.833 -24 191.5c0.666992 95.333 10.5 185.333 29.5 270s45.333 163.167 79 235.5s73.5 137.833 119.5 196.5
s96.333 109.334 151 152.001c28 22.667 57.333 43.5 88 62.5s62.667 35.667 96 50s67.833 25.5 103.5 33.5s72.834 12 111.501 12c32.667 0 62.167 -1.66699 88.5 -5s50.333 -7.5 72 -12.5s41 -10.667 58 -17l46.5 -17.5l-62 -175h-33l-54 31.5
c-20.667 11.667 -44 22.834 -70 33.501s-55 19.667 -87 27s-67.333 11 -106 11c-19.333 0 -37 -2 -53 -6s-30.667 -9.33301 -44 -16s-26 -14.667 -38 -24s-23.333 -19 -34 -29c-12 -11.333 -27 -28.833 -45 -52.5s-37.333 -55 -58 -94s-42 -85.833 -64 -140.5
s-42.333 -119 -61 -193l-15 -46l3 -2c34 40 68 72.167 102 96.5s67.333 43.166 100 56.499s64.334 22.166 95.001 26.499s59.667 6.5 87 6.5c50 0 96.5 -8.83301 139.5 -26.5s80.333 -42.5 112 -74.5s56.667 -70.5 75 -115.5s27.5 -94.833 27.5 -149.5
c0 -74.667 -14.167 -146.334 -42.5 -215.001s-67.666 -129.167 -117.999 -181.5s-109.833 -94 -178.5 -125s-143.667 -46.5 -225 -46.5z" />
    <glyph glyph-name="seven" unicode="7" horiz-adv-x="1081" 
d="M156 -402h-155.001l912 1228l56 81l-20 -3l-102 -4h-505c-16 0 -30.167 -4.16699 -42.5 -12.5s-22.166 -20.5 -29.499 -36.5l-81 -191h-69l91 398h941l-6 -60z" />
    <glyph glyph-name="eight" unicode="8" horiz-adv-x="1241" 
d="M565 53c52.667 0 100.666 8.83301 143.999 26.5s80.166 41.5 110.499 71.5s53.666 65.167 69.999 105.5s24.5 83.166 24.5 128.499c0 37.333 -7.33301 70 -22 98s-37.5 53.833 -68.5 77.5s-69.833 46.667 -116.5 69s-102 46.166 -166 71.499
c-38 -24 -72.333 -48.667 -103 -74s-57 -52.666 -79 -81.999s-38.833 -61.666 -50.5 -96.999s-17.5 -75.333 -17.5 -120c0 -41.333 6.33301 -78.833 19 -112.5s30.834 -62.667 54.501 -87s52.334 -43 86.001 -56s71.834 -19.5 114.501 -19.5zM807.999 762
c28 24.667 53.3311 49.668 75.998 75.001s42 52.666 58 81.999s28.333 61.166 37 95.499s13 72.833 13 115.5c0 32.667 -4.5 63.167 -13.5 91.5s-23.167 53 -42.5 74s-43.166 37.5 -71.499 49.5s-61.833 18 -100.5 18c-44 0 -84.167 -8.16699 -120.5 -24.5
s-67.666 -38.166 -93.999 -65.499s-46.666 -59.5 -60.999 -96.5s-21.5 -75.5 -21.5 -115.5c0 -32.667 5.83301 -62 17.5 -88s31 -50.333 58 -73s62.167 -45 105.5 -67s96.666 -45.667 159.999 -71zM522.997 -31.999c-68 0 -128.163 8.49707 -180.496 25.4971
s-96.333 40.667 -132 71s-62.5 65.833 -80.5 106.5s-27 84.667 -27 132c0 50 9 96.333 27 139s43.833 81.5 77.5 116.5s74.667 66 123 93s103.166 50.167 164.499 69.5c-76 40.667 -131 85.167 -165 133.5s-51 102.5 -51 162.5c0 56 13.167 110.167 39.5 162.5
s63 98.5 110 138.5s102.167 72 165.5 96s131.666 36 204.999 36c59.333 0 112.166 -8.16699 158.499 -24.5s85.666 -38.5 117.999 -66.5s57 -61.333 74 -100s25.5 -80 25.5 -124c0 -41.333 -7 -80.833 -21 -118.5s-34.5 -73.167 -61.5 -106.5s-60.667 -64.166 -101 -92.499
s-86.5 -53.166 -138.5 -74.499c86 -37.333 149 -81.166 189 -131.499s60 -109.833 60 -178.5c0 -59.333 -14 -117 -42 -173s-67.333 -105.667 -118 -149s-111.667 -78 -183 -104s-150 -39 -236 -39z" />
    <glyph glyph-name="nine" unicode="9" horiz-adv-x="1177" 
d="M558 280c24.667 0 49.6709 2.50098 75.0039 7.50098s50.666 12.167 75.999 21.5s50.333 21.5 75 36.5s48.334 32.5 71.001 52.5l12 61c4 20 7.5 40.333 10.5 61s5.33301 42.5 7 65.5s2.5 48.5 2.5 76.5c0 58.667 -6.33301 109.667 -19 153
s-29.834 79.166 -51.501 107.499s-47.5 49.5 -77.5 63.5s-62.667 21 -98 21c-52.667 0 -99.834 -12 -141.501 -36s-76.834 -56.333 -105.501 -97s-50.834 -88.334 -66.501 -143.001s-23.5 -113 -23.5 -175c0 -87.333 21.333 -155.166 64 -203.499s106 -72.5 190 -72.5z
M285.004 -388.999c-32 0 -61.3311 1.83105 -87.998 5.49805s-51.167 8.33398 -73.5 14.001s-42.333 11.667 -60 18s-33.167 12.166 -46.5 17.499l62 172h33l52.5 -32c20.333 -12 43.5 -23.167 69.5 -33.5s54.833 -19 86.5 -26s66.834 -10.5 105.501 -10.5
c19.333 0 37.5 1.83301 54.5 5.5s32.833 8.66699 47.5 15s28.334 14.166 41.001 23.499s24.667 19.333 36 30c11.333 12 26.5 30.5 45.5 55.5s39.167 57.5 60.5 97.5s43 87.333 65 142s42 117.334 60 188.001l15 46l-3 2c-35.333 -40 -70 -72.167 -104 -96.5
s-67.333 -43.166 -100 -56.499s-64.167 -22.333 -94.5 -27s-59.166 -7 -86.499 -7c-50.667 0 -97.5 8.83301 -140.5 26.5s-80.333 42.5 -112 74.5s-56.5 70.833 -74.5 116.5s-27 95.834 -27 150.501c0 50 6.66699 99 20 147s32.166 93 56.499 135s53.833 80.667 88.5 116
s73 65.666 115 90.999s87.5 45.166 136.5 59.499s100.167 21.5 153.5 21.5c65.333 0 122.333 -10.5 171 -31.5s89.167 -50.833 121.5 -89.5s56.5 -85.5 72.5 -140.5s24 -115.833 24 -182.5c0 -95.333 -9.33301 -186.5 -28 -273.5s-44.5 -167.833 -77.5 -242.5
s-72.833 -142.5 -119.5 -203.5s-98.334 -113.833 -155.001 -158.5c-32 -26 -63.833 -48.667 -95.5 -68s-63.834 -35.666 -96.501 -48.999s-66.334 -23.666 -101.001 -30.999s-71.334 -11 -110.001 -11z" />
    <glyph glyph-name="colon" unicode=":" horiz-adv-x="671" 
d="M248 -24c-18 0 -35.167 3.5 -51.5 10.5s-30.5 16.5 -42.5 28.5s-21.333 25.833 -28 41.5s-10 32.834 -10 51.501s3.33301 36 10 52s16 30 28 42s26.167 21.333 42.5 28s33.5 10 51.5 10s35.333 -3.33301 52 -10s31 -16 43 -28s21.5 -26 28.5 -42s10.5 -33.333 10.5 -52
s-3.5 -35.834 -10.5 -51.501s-16.5 -29.5 -28.5 -41.5s-26.333 -21.5 -43 -28.5s-34 -10.5 -52 -10.5zM409 752c-18 0 -35 3.33301 -51 10s-30 16 -42 28s-21.5 26 -28.5 42s-10.5 33.667 -10.5 53c0 18 3.5 35 10.5 51s16.5 29.833 28.5 41.5s26 21 42 28s33 10.5 51 10.5
c18.667 0 36.167 -3.5 52.5 -10.5s30.666 -16.333 42.999 -28s21.833 -25.5 28.5 -41.5s10 -33 10 -51c0 -19.333 -3.33301 -37 -10 -53s-16.167 -30 -28.5 -42s-26.666 -21.333 -42.999 -28s-33.833 -10 -52.5 -10z" />
    <glyph glyph-name="semicolon" unicode=";" horiz-adv-x="671" 
d="M-28 -315c29.333 18.667 58.502 39.3369 87.502 62.0039s55.833 46.167 80.5 70.5s46.334 49.166 65.001 74.499s32.667 50.333 42 75l-61 36.5c-16.667 10.333 -30.167 20.666 -40.5 30.999s-18 21.166 -23 32.499s-7.5 24.666 -7.5 39.999c0 18.667 3.5 36 10.5 52
s16.5 30 28.5 42s26 21.333 42 28s33 10 51 10c24.667 0 45.667 -3.83301 63 -11.5s31.333 -18 42 -31s18.667 -28.667 24 -47s8 -38.5 8 -60.5c0 -39.333 -6.5 -76.333 -19.5 -111s-29.833 -67 -50.5 -97s-44.334 -57.833 -71.001 -83.5s-53.834 -49 -81.501 -70
s-54.834 -39.833 -81.501 -56.5s-50.667 -31 -72 -43zM409.002 752.003c-18 0 -35 3.33301 -51 10s-30 16 -42 28s-21.5 26 -28.5 42s-10.5 33.667 -10.5 53c0 18 3.5 35 10.5 51s16.5 29.833 28.5 41.5s26 21 42 28s33 10.5 51 10.5c18.667 0 36.167 -3.5 52.5 -10.5
s30.666 -16.333 42.999 -28s21.833 -25.5 28.5 -41.5s10 -33 10 -51c0 -19.333 -3.33301 -37 -10 -53s-16.167 -30 -28.5 -42s-26.666 -21.333 -42.999 -28s-33.833 -10 -52.5 -10z" />
    <glyph glyph-name="less" unicode="&#x3c;" horiz-adv-x="1414" 
d="M1186 171v-133l-919 478v115l919 479v-134l-776 -401z" />
    <glyph glyph-name="equal" unicode="=" horiz-adv-x="1414" 
d="M1223 325h-987v118h987v-118zM1223 705h-987v117h987v-117z" />
    <glyph glyph-name="greater" unicode="&#x3e;" horiz-adv-x="1414" 
d="M1193 516l-919 -478v133l777 404l-777 401v134l919 -479v-115z" />
    <glyph glyph-name="question" unicode="?" horiz-adv-x="1029" 
d="M330 -24c-18.667 0 -36.167 3.5 -52.5 10.5s-30.5 16.333 -42.5 28s-21.333 25.5 -28 41.5s-10 33 -10 51c0 18.667 3.33301 36 10 52s16 30 28 42s26.167 21.333 42.5 28s33.833 10 52.5 10c18 0 35 -3.33301 51 -10s29.833 -16 41.5 -28s21 -26 28 -42
s10.5 -33.333 10.5 -52c0 -18 -3.5 -35 -10.5 -51s-16.333 -29.833 -28 -41.5s-25.5 -21 -41.5 -28s-33 -10.5 -51 -10.5zM414 387l-89.0039 -0.000976562l77 358c33.333 2.66699 68 7.5 104 14.5s71.167 16.833 105.5 29.5s66.833 28.834 97.5 48.501
s57.667 43.334 81 71.001s41.666 59.834 54.999 96.501s20 78.667 20 126c0 30 -3 57.5 -9 82.5s-15.667 46.667 -29 65s-30.166 32.666 -50.499 42.999s-44.166 15.5 -71.499 15.5c-34 0 -67.833 -5 -101.5 -15s-66 -22.5 -97 -37.5s-60.833 -31.333 -89.5 -49l-80 -49.5
h-31l14 173c14.667 7.33301 33.334 15.833 56.001 25.5s48.167 19 76.5 28s59.333 16.5 93 22.5s69.167 9 106.5 9c56 0 107.5 -8 154.5 -24s87.5 -39 121.5 -69s60.5 -66 79.5 -108s28.5 -89.333 28.5 -142c0 -46.667 -6.66699 -90.334 -20 -131.001s-32 -78.5 -56 -113.5
s-52.833 -66.833 -86.5 -95.5s-71.167 -54.167 -112.5 -76.5s-85.666 -41 -132.999 -56s-96.666 -26.5 -147.999 -34.5z" />
    <glyph glyph-name="at" unicode="@" horiz-adv-x="2096" 
d="M1001 147c26.667 0 57.0029 8.16797 91.0029 24.501s66 41.166 96 74.499l152 568c-12.667 5.33301 -28.167 10.333 -46.5 15s-37 8.66699 -56 12s-37 6 -54 8s-30.5 3 -40.5 3c-56 0 -105 -14 -147 -42s-76.833 -64 -104.5 -108s-48.334 -93.5 -62.001 -148.5
s-20.5 -109.5 -20.5 -163.5c0 -36 3.33301 -68.833 10 -98.5s17.667 -55.167 33 -76.5s35.166 -38 59.499 -50s54.166 -18 89.499 -18zM952.003 -407.999c-74 0 -143.83 8.32812 -209.497 24.9951s-126.167 40.834 -181.5 72.501s-105 70.167 -149 115.5
s-81.5 96.333 -112.5 153s-54.833 118.667 -71.5 186s-25 138.666 -25 213.999c0 100 12.167 195.167 36.5 285.5s58.666 174.166 102.999 251.499s97.5 147 159.5 209s130.833 114.833 206.5 158.5s156.834 77.334 243.501 101.001s177 35.5 271 35.5
c104.667 0 199.667 -15.5 285 -46.5s158.333 -75.333 219 -133s107.5 -127.5 140.5 -209.5s49.5 -174 49.5 -276c0 -72 -8.83301 -139.333 -26.5 -202s-39.834 -119.334 -66.501 -170.001s-56.167 -94.667 -88.5 -132s-63.166 -67 -92.499 -89
c-28.667 -21.333 -57.5 -39.166 -86.5 -53.499s-57.333 -25.666 -85 -33.999s-54.5 -14 -80.5 -17s-50.667 -4.5 -74 -4.5s-43 4.33301 -59 13s-29 20 -39 34s-17.167 29.667 -21.5 47s-6.5 35 -6.5 53h-11c-32 -36 -62.5 -64 -91.5 -84s-55.667 -34.5 -80 -43.5
s-46.5 -14.333 -66.5 -16s-37.333 -2.5 -52 -2.5c-42 0 -78.833 7.66699 -110.5 23s-58 37 -79 65s-36.833 61.167 -47.5 99.5s-16 80.5 -16 126.5c0 50.667 5.66699 101 17 151s27.333 97.667 48 143s46 87.5 76 126.5s63.667 72.833 101 101.5s78 51.167 122 67.5
s90.667 24.5 140 24.5c46 0 84.833 -8.33301 116.5 -25s58.834 -38.334 81.501 -65.001l43 82h149l-150 -563c-3.33301 -12.667 -7 -27.5 -11 -44.5s-7.5 -33.833 -10.5 -50.5l-8 -46c-2.33301 -14 -3.5 -23.667 -3.5 -29c0 -8.66699 0.833008 -18 2.5 -28
s5.66699 -19 12 -27s15.166 -14.667 26.499 -20s26.333 -8 45 -8c51.333 0 98.166 16.333 140.499 49s79 75.334 110 128.001s55.167 112.334 72.5 179.001s26 134.334 26 203.001c0 105.333 -15.833 196.166 -47.5 272.499s-75.5 139.333 -131.5 189
s-122.5 86.334 -199.5 110.001s-160.167 35.5 -249.5 35.5c-66.667 0 -132.834 -10.167 -198.501 -30.5s-127.834 -49.666 -186.501 -87.999s-113 -84.5 -163 -138.5s-93.167 -114.5 -129.5 -181.5s-64.833 -140 -85.5 -219s-31 -162.167 -31 -249.5
c0 -120.667 17.333 -225.834 52 -315.501s81.334 -163.667 140.001 -222s127.167 -102 205.5 -131s161.5 -43.5 249.5 -43.5c51.333 0 104.833 4.33301 160.5 13s111.5 22.334 167.5 41.001s110.667 43 164 73s103.333 66.333 150 109l52 -85
c-45.333 -36.667 -95.5 -70 -150.5 -100s-114.167 -55.667 -177.5 -77s-130.333 -37.666 -201 -48.999s-144.334 -17 -221.001 -17z" />
    <glyph glyph-name="A" unicode="A" horiz-adv-x="1312" 
d="M748 1165l-334 -562h433l-72 423l-16 107zM277 0l-420.999 -0.000976562l12 58l88 33c13.333 4.66699 26.333 12.334 39 23.001s22.667 22 30 34l631 1040l171 233h67l213 -1274c2 -12.667 6.66699 -24.5 14 -35.5s16.666 -18.167 27.999 -21.5l103 -32l-13 -58h-491
l12 58l171 42l-68 408h-506l-239 -403l171 -47z" />
    <glyph glyph-name="B" unicode="B" horiz-adv-x="1297" 
d="M470 676l-129.001 -584h275c124.667 0 218.334 28.833 281.001 86.5s94 146.834 94 267.501c0 42 -6.83301 77.5 -20.5 106.5s-34.5 52.667 -62.5 71s-63.167 31.666 -105.5 39.999s-92.833 12.5 -151.5 12.5h-181zM610.999 1309l-121 -547h107
c79.333 0 145.5 8.16699 198.5 24.5s95.833 38.666 128.5 66.999s55.667 61.833 69 100.5s20 80.334 20 125.001c0 79.333 -24 137.5 -72 174.5s-121.333 55.5 -220 55.5h-110zM-36.001 0l13.002 58.002l133 35c13.333 4 25.166 10.667 35.499 20s17.166 21.333 20.499 36
l244 1103c3.33301 14.667 2.16602 26.667 -3.50098 36s-14.5 15.666 -26.5 18.999l-143 36l14 57h512c90.667 0 165.667 -7.33301 225 -22s106.333 -34.334 141 -59.001s59 -53.167 73 -85.5s21 -65.833 21 -100.5c0 -50 -9.33301 -96.167 -28 -138.5
s-44.667 -79.833 -78 -112.5s-72.666 -60.834 -117.999 -84.501s-94.333 -42.167 -147 -55.5v-3c52 -3.33301 99.667 -12.166 143 -26.499s80.5 -33.833 111.5 -58.5s55.167 -54.334 72.5 -89.001s26 -73.334 26 -116.001c0 -57.333 -9 -108.166 -27 -152.499
s-42.167 -83 -72.5 -116s-66 -61 -107 -84s-85 -41.667 -132 -56s-95.5 -24.666 -145.5 -30.999s-99.333 -9.5 -148 -9.5h-609z" />
    <glyph glyph-name="C" unicode="C" horiz-adv-x="1275" 
d="M680 -29c-90.667 0 -172.002 14.001 -244.002 42.001s-133.167 67.667 -183.5 119s-89 113.5 -116 186.5s-40.5 154.833 -40.5 245.5c0 77.333 9.16699 152.5 27.5 225.5s44 141.5 77 205.5s73 122.667 120 176s98.833 99.166 155.5 137.499
s117.834 68.166 183.501 89.499s133.834 32 204.501 32c38.667 0 79 -2.5 121 -7.5s83 -11.5 123 -19.5s77.833 -16.833 113.5 -26.5s65.834 -19.167 90.501 -28.5l-67 -337h-78l-11 187c-1.33301 5.33301 -3 10.166 -5 14.499s-4.66699 8.33301 -8 12s-7 7 -11 10
s-8 5.5 -12 7.5c-18.667 12.667 -39 24.334 -61 35.001s-45.5 20.167 -70.5 28.5s-51.5 14.833 -79.5 19.5s-57.667 7 -89 7c-51.333 0 -99.833 -8.83301 -145.5 -26.5s-87.834 -42.5 -126.501 -74.5s-73 -70.5 -103 -115.5s-55.667 -95 -77 -150s-37.666 -114 -48.999 -177
s-17 -128.833 -17 -197.5c0 -160 36.667 -282 110 -366s184 -126 332 -126c48.667 0 94.167 6.66699 136.5 20s81.333 29.833 117 49.5s68 40.5 97 62.5l75.5 58h31l-26 -106c-29.333 -25.333 -62.5 -50.666 -99.5 -75.999s-76.667 -48 -119 -68s-86.833 -36.333 -133.5 -49
s-94.334 -19 -143.001 -19z" />
    <glyph glyph-name="D" unicode="D" horiz-adv-x="1454" 
d="M611 1309l-269.998 -1217h286c92.667 0 175.5 17.833 248.5 53.5s134.667 85.5 185 149.5s88.833 140.333 115.5 229s40 186 40 292c0 76 -10.167 144.5 -30.5 205.5s-49.833 112.833 -88.5 155.5s-85.834 75.334 -141.501 98.001s-118.834 34 -189.501 34h-155z
M-38.998 -0.000976562l12.999 58.001l136 35c12.667 3.33301 24.334 9.83301 35.001 19.5s17.667 21.834 21 36.501l244 1103c3.33301 14.667 2 26.667 -4 36s-14.667 15.666 -26 18.999l-143 36l14 57h578c42 0 85.833 -3.66699 131.5 -11s90.5 -19.5 134.5 -36.5
s85.833 -39.167 125.5 -66.5s74.667 -61.5 105 -102.5s54.333 -89.333 72 -145s26.5 -119.834 26.5 -192.501c0 -94 -10.167 -180 -30.5 -258s-48.833 -148.5 -85.5 -211.5s-80.5 -118 -131.5 -165s-107.167 -86.167 -168.5 -117.5s-126.833 -54.833 -196.5 -70.5
s-141.167 -23.5 -214.5 -23.5h-636z" />
    <glyph glyph-name="E" unicode="E" horiz-adv-x="1278" 
d="M1086 0h-1123l14 58l132 35c14 4 26.167 10.667 36.5 20s17.166 21.333 20.499 36l244 1103c3.33301 14.667 2 26.667 -4 36s-14.667 15.666 -26 18.999l-143 36l14 57h1046l-75 -336h-80l-14 207c0 10.667 -2.66699 19.334 -8 26.001s-13.666 10 -24.999 10h-485
l-117 -531h313c14 0 24.5 3 31.5 9s13.167 14.333 18.5 25l86 161h67l-108 -485h-67l-15 160c-0.666992 11.333 -3.16699 20.166 -7.5 26.499s-13.5 9.5 -27.5 9.5h-313l-130 -588h588c11.333 0 21.166 3.33301 29.499 10s15.166 15.334 20.499 26.001l108 233h80z" />
    <glyph glyph-name="F" unicode="F" horiz-adv-x="1165" 
d="M528 0l-563.994 0.000976562l13 58l133 35c13.333 4 25.166 10.667 35.499 20s17.166 21.333 20.499 36l244 1103c3.33301 14.667 2 26.667 -4 36s-15 15.666 -27 18.999l-141 36l12 57h1049l-74 -335h-79l-13 206c-0.666992 10.667 -3.5 19.334 -8.5 26.001
s-13.167 10 -24.5 10h-489l-122 -547h326c13.333 0 23.666 3.16699 30.999 9.5s13.666 14.5 18.999 24.5l86 166h66l-110 -494h-66l-12 164c-0.666992 11.333 -3.33398 20.166 -8.00098 26.499s-13.667 9.5 -27 9.5h-326l-115 -517
c-2.66699 -14 -0.833984 -26.167 5.49902 -36.5s15.5 -16.833 27.5 -19.5l155 -35z" />
    <glyph glyph-name="G" unicode="G" horiz-adv-x="1469" 
d="M648 -31c-79.333 0 -152.667 12.4971 -220 37.4971s-125.666 61.833 -174.999 110.5s-87.833 108.834 -115.5 180.501s-41.5 153.5 -41.5 245.5c0 78.667 9.33301 155.167 28 229.5s45.167 144.333 79.5 210s75.833 126 124.5 181s103.334 102.167 164.001 141.5
s126.167 70 196.5 92s144.5 33 222.5 33c48.667 0 93.5 -1.66699 134.5 -5s78.833 -7.83301 113.5 -13.5s66.667 -12.167 96 -19.5s56.333 -15 81 -23l58 -18l-69 -337h-80l-6 190c-1.33301 10.667 -8.33301 21.334 -21 32.001s-29.334 20.667 -50.001 30
s-44.167 18.166 -70.5 26.499s-53.666 15.333 -81.999 21s-56.666 10.167 -84.999 13.5s-54.5 5 -78.5 5c-50 0 -98.333 -8.66699 -145 -26s-90.334 -42.333 -131.001 -75s-77.834 -72 -111.501 -118s-62.5 -97.667 -86.5 -155s-42.5 -119.666 -55.5 -186.999
s-19.5 -138 -19.5 -212s8.33301 -141.667 25 -203s41.167 -114 73.5 -158s72.833 -78.333 121.5 -103s104.667 -37 168 -37c32.667 0 63.667 3 93 9s56.5 13.333 81.5 22s47.667 17.667 68 27l52.5 25l76 341c3.33301 14.667 1.66602 26.667 -5.00098 36
s-15.667 15.666 -27 18.999l-159 36l14 57h562l-14 -57l-130 -36c-12 -3.33301 -23.5 -9.66602 -34.5 -18.999s-18.167 -21.333 -21.5 -36l-36 -158c-6.66699 -26 -12.667 -51.667 -18 -77l-15 -71.5c-4.66699 -22.333 -8.66699 -42.666 -12 -60.999
s-6.33301 -33.833 -9 -46.5c-36.667 -14 -75 -27 -115 -39s-81.333 -22.333 -124 -31s-86.5 -15.667 -131.5 -21s-91.167 -8 -138.5 -8z" />
    <glyph glyph-name="H" unicode="H" horiz-adv-x="1571" 
d="M513 0l-550 0.00195312l14 58l132 35c13.333 3.33301 25.333 9.83301 36 19.5s17.667 21.834 21 36.501l244 1103c3.33301 14.667 2 26.667 -4 36s-14.667 15.666 -26 18.999l-143 36l13 57h550l-13 -57l-131 -36c-14 -4 -26.333 -10.667 -37 -20s-17.667 -21 -21 -35
l-106 -476h687l106 476c2.66699 14.667 1 26.667 -5 36s-14.667 15.666 -26 18.999l-142 36l12 57h551l-13 -57l-132 -36c-13.333 -4 -25.5 -10.667 -36.5 -20s-18.167 -21 -21.5 -35l-244 -1103c-3.33301 -14.667 -2.16602 -26.834 3.50098 -36.501
s14.834 -16.167 27.501 -19.5l142 -35l-14 -58h-550l14 58l132 35c13.333 4 25.333 10.667 36 20s17.667 21.333 21 36l118 531h-687l-118 -531c-2.66699 -14 -1.33398 -25.833 3.99902 -35.5s14.666 -16.5 27.999 -20.5l141 -35z" />
    <glyph glyph-name="I" unicode="I" horiz-adv-x="710" 
d="M521 0l-554.998 0.00195312l13 58l136 35c13.333 4 25.166 10.667 35.499 20s17.166 21.333 20.499 36l244 1103c3.33301 14.667 2.16602 26.667 -3.50098 36s-14.5 15.666 -26.5 18.999l-145 36l13 57h555l-13 -57l-117 -30c-8.66699 -2.66699 -17 -5.66699 -25 -9
s-15.167 -7.5 -21.5 -12.5s-12.166 -10.833 -17.499 -17.5s-9 -14 -11 -22l-244 -1103c-3.33301 -14.667 -2 -26.834 4 -36.501s15 -16.167 27 -19.5l145 -35z" />
    <glyph glyph-name="J" unicode="J" horiz-adv-x="698" 
d="M-170 -392c-12 0 -25.6699 0.999023 -41.0029 2.99902s-31.166 4.66699 -47.499 8s-32.333 7.33301 -48 12s-29.5 9.66699 -41.5 15l62 181h31c14 -8.66699 29.333 -17.5 46 -26.5s34.334 -17.167 53.001 -24.5s37.334 -13.166 56.001 -17.499s37 -6.5 55 -6.5
c37.333 0 66.833 5 88.5 15s38.5 24.667 50.5 44c8.66699 14.667 17.334 35.167 26.001 61.5s17.334 56.333 26.001 90s17.5 70.667 26.5 111l27.5 124.5l215 1054c3.33301 12.667 2.16602 24.167 -3.50098 34.5s-15.167 17.166 -28.5 20.499l-162 36l13 57h567l-13 -57
l-131 -36c-12.667 -3.33301 -24 -9.83301 -34 -19.5s-16.667 -21.5 -20 -35.5l-208 -1024c-20 -100.667 -47.667 -189.667 -83 -267s-77.333 -142.166 -126 -194.499s-102.834 -91.833 -162.501 -118.5s-124.167 -40 -193.5 -40z" />
    <glyph glyph-name="K" unicode="K" horiz-adv-x="1370" 
d="M513 0l-550.002 0.000976562l14 58l132 35c14 4 26.167 10.667 36.5 20s17.166 21.333 20.499 36l244 1103c3.33301 14 2.33301 25.833 -3 35.5s-14.666 16.167 -27.999 19.5l-143 36l14 57h550l-14 -57l-131 -36c-13.333 -4 -25.333 -10.667 -36 -20
s-17.667 -21 -21 -35l-129 -577l718 629l-125 39l13 57h431l-13 -57c-28 -8.66699 -55.167 -16.667 -81.5 -24s-53.166 -18 -80.499 -32c-11.333 -5.33301 -23 -11.833 -35 -19.5s-23.667 -16.5 -35 -26.5l-513 -440l350 -638c4 -7.33301 8.5 -15 13.5 -23
s10.5 -15.667 16.5 -23s12.167 -13.5 18.5 -18.5s12.5 -8.16699 18.5 -9.5l114 -33l-13 -56h-476l13 56l123 36l-323 591l-156 -109l-94 -425c-2.66699 -14.667 -1.16699 -26.834 4.5 -36.501s14.834 -16.167 27.501 -19.5l141 -35z" />
    <glyph glyph-name="L" unicode="L" horiz-adv-x="1173" 
d="M1030 0l-1067 -0.000976562l13 58l133 35c13.333 3.33301 25.333 9.83301 36 19.5s17.667 21.834 21 36.501l244 1103c3.33301 14 2 25.833 -4 35.5s-15 16.167 -27 19.5l-142 36l13 57h554l-12 -57l-137 -36c-14 -3.33301 -26.167 -9.83301 -36.5 -19.5
s-17.166 -21.5 -20.499 -35.5l-257 -1158h524c6 0 11.833 1.5 17.5 4.5s10.834 7 15.501 12s8.83398 10.333 12.501 16s6.5 11.167 8.5 16.5l125 275h79z" />
    <glyph glyph-name="M" unicode="M" horiz-adv-x="1829" 
d="M428 0l-463.999 0.00195312l13 58l135 42c12.667 3.33301 24.334 9.83301 35.001 19.5s17.667 21.5 21 35.5l242 1097c3.33301 14.667 2 26.667 -4 36s-15 15.666 -27 18.999l-141 36l13 57h448l127 -915l22 -195h7l639 1110h436l-12 -57l-134 -36
c-13.333 -3.33301 -25.333 -9.83301 -36 -19.5s-17.667 -21.5 -21 -35.5l-244 -1103c-3.33301 -14.667 -2.16602 -26.834 3.50098 -36.501s15.167 -16.167 28.5 -19.5l141 -35l-13 -58h-549l12 58l133 35c13.333 4 25.166 10.667 35.499 20s17.166 21.333 20.499 36
l257 1156h-7l-89 -157l-536 -922l-144 -226h-63l-160 1147l-20 165h-7l-256 -1157c-2.66699 -14 -1.33398 -25.667 3.99902 -35s14.333 -16 27 -20l139 -42z" />
    <glyph glyph-name="N" unicode="N" horiz-adv-x="1531" 
d="M1144 -10h-74.999l-496 1060l-65 151h-6l-232 -1046c-2 -8 -2.5 -15 -1.5 -21s3 -11.167 6 -15.5s6.83301 -8 11.5 -11s9.66699 -5.5 15 -7.5l139 -42l-13 -58h-464l14 58l135 42c13.333 4 25 10.667 35 20s16.667 21 20 35l243 1094c3.33301 14.667 2 26.5 -4 35.5
s-15.333 15.5 -28 19.5l-149 39l12 57h366l458 -982l60 -138h6l216 966c3.33301 13.333 1.83301 24.833 -4.5 34.5s-15.5 16.167 -27.5 19.5l-140 43l12 57h466l-12 -57l-135 -43c-12.667 -4 -24.334 -10.5 -35.001 -19.5s-17.667 -20.5 -21 -34.5l-225 -1020z" />
    <glyph glyph-name="O" unicode="O" horiz-adv-x="1476" 
d="M653 -31c-90.667 0 -170.666 12.998 -239.999 38.998s-127.333 63.167 -174 111.5s-82 106.666 -106 174.999s-36 144.833 -36 229.5c0 74.667 8 149 24 223s39.5 144.5 70.5 211.5s69.167 129.333 114.5 187s97.333 107.667 156 150s123.667 75.5 195 99.5
s148.666 36 231.999 36c96 0 179 -14 249 -42s127.833 -66.833 173.5 -116.5s79.5 -108 101.5 -175s33 -140.167 33 -219.5c0 -66 -7 -134.333 -21 -205s-35.5 -139.667 -64.5 -207s-65.167 -131.166 -108.5 -191.499s-94.333 -113.166 -153 -158.499
s-125.167 -81.166 -199.5 -107.499s-156.5 -39.5 -246.5 -39.5zM677.001 57.998c62 0 118.998 11.8311 170.998 35.498s98.833 56 140.5 97s78.167 88.667 109.5 143s57.333 112.5 78 174.5s36.334 126.167 47.001 192.5s16 131.166 16 194.499
c0 71.333 -8.16699 134.833 -24.5 190.5s-40.5 102.5 -72.5 140.5s-71.5 66.833 -118.5 86.5s-101.167 29.5 -162.5 29.5c-64.667 0 -123.5 -12.5 -176.5 -37.5s-100 -58.667 -141 -101s-76.667 -91.5 -107 -147.5s-55.166 -115 -74.499 -177s-33.833 -125 -43.5 -189
s-14.5 -125 -14.5 -183c0 -67.333 7.5 -128.666 22.5 -183.999s37.833 -102.666 68.5 -141.999s69.5 -69.666 116.5 -90.999s102.167 -32 165.5 -32z" />
    <glyph glyph-name="P" unicode="P" horiz-adv-x="1185" 
d="M684 672c58 0 108.166 11.333 150.499 34s77.5 52 105.5 88s48.833 76.333 62.5 121s20.5 89 20.5 133c0 35.333 -5 68.833 -15 100.5s-26.667 59.334 -50 83.001s-54.166 42.5 -92.499 56.5s-85.833 21 -142.5 21h-112l-138 -619c10 -2.66699 23.833 -5.16699 41.5 -7.5
s36.5 -4.33301 56.5 -6s40.167 -2.83398 60.5 -3.50098s37.833 -1 52.5 -1zM526.999 0h-563.998l14 58l132 35c13.333 3.33301 25.333 9.83301 36 19.5s17.667 21.834 21 36.501l244 1103c3.33301 14.667 2 26.667 -4 36s-14.667 15.666 -26 18.999l-143 36l13 57h521
c64.667 0 125 -6.5 181 -19.5s104.667 -33 146 -60s74 -61 98 -102s36 -88.833 36 -143.5c0 -74.667 -14.167 -142.834 -42.5 -204.501s-66.833 -114.667 -115.5 -159s-105.334 -78.666 -170.001 -102.999s-133.667 -36.5 -207 -36.5c-17.333 0 -37 1.83301 -59 5.5
s-44 8.66699 -66 15s-42.833 13.5 -62.5 21.5s-35.834 16.333 -48.501 25l-108 -490c-2.66699 -14.667 -1 -27 5 -37s15 -16.333 27 -19l156 -35z" />
    <glyph glyph-name="Q" unicode="Q" horiz-adv-x="1484" 
d="M679 58c62 0 118.997 11.8311 170.997 35.498s98.833 56 140.5 97s78.167 88.667 109.5 143s57.333 112.5 78 174.5s36.334 126.167 47.001 192.5s16 131.166 16 194.499c0 71.333 -8.16699 134.833 -24.5 190.5s-40.5 102.5 -72.5 140.5s-71.5 66.833 -118.5 86.5
s-100.833 29.5 -161.5 29.5c-65.333 0 -124.333 -12.5 -177 -37.5s-99.667 -58.667 -141 -101s-77.166 -91.5 -107.499 -147.5s-55.166 -115 -74.499 -177s-33.833 -125 -43.5 -189s-14.5 -125 -14.5 -183c0 -67.333 7.5 -128.666 22.5 -183.999
s37.833 -102.666 68.5 -141.999s69.5 -69.666 116.5 -90.999s102.167 -32 165.5 -32zM1190 -438.002l-229.999 0.00488281c-28 0 -50.333 2 -67 6s-30.834 10.667 -42.501 20s-22.167 22.166 -31.5 38.499s-20.333 37.166 -33 62.499l-147 280
c-89.333 1.33301 -167.666 15.5 -234.999 42.5s-123.5 64.667 -168.5 113s-79 106.166 -102 173.499s-34.5 142.666 -34.5 225.999c0 74.667 8 149 24 223s39.5 144.5 70.5 211.5s69.167 129.333 114.5 187s97.333 107.667 156 150s123.667 75.5 195 99.5
s148.666 36 231.999 36c96 0 179 -14 249 -42s127.833 -66.833 173.5 -116.5s79.5 -108 101.5 -175s33 -140.167 33 -219.5c0 -58.667 -5.66699 -118.834 -17 -180.501s-28.166 -122.667 -50.499 -183s-50.5 -118.5 -84.5 -174.5s-73.833 -107 -119.5 -153
s-97.334 -86 -155.001 -120s-121.5 -59.333 -191.5 -76l144 -263c9.33301 -16 21.5 -31.667 36.5 -47s30.5 -25 46.5 -29l146 -32z" />
    <glyph glyph-name="R" unicode="R" horiz-adv-x="1353" 
d="M667 715c58.667 0 110.834 9.83008 156.501 29.4971s84 46 115 79s54.5 71 70.5 114s24 87.833 24 134.5c0 39.333 -6.16699 73.833 -18.5 103.5s-30.666 54.334 -54.999 74.001s-54.833 34.5 -91.5 44.5s-79.334 15 -128.001 15h-129l-129 -582
c6.66699 -2 18.167 -3.66699 34.5 -5s34.166 -2.66602 53.499 -3.99902s37.833 -2.16602 55.5 -2.49902s31.5 -0.5 41.5 -0.5zM525 -0.00292969l-562.002 0.000976562l13 58l133 35c14 4 26.167 10.667 36.5 20s17.166 21.333 20.499 36l244 1103
c3.33301 14.667 1.83301 26.667 -4.5 36s-15.166 15.666 -26.499 18.999l-142 36l13 57h527c92.667 0 168.834 -8.5 228.501 -25.5s106.834 -39.5 141.501 -67.5s58.667 -60 72 -96s20 -73 20 -111c0 -43.333 -6.16699 -83.5 -18.5 -120.5s-28.833 -70.667 -49.5 -101
s-44.834 -57.666 -72.501 -81.999s-57 -45.5 -88 -63.5s-62.5 -33 -94.5 -45s-62.667 -21.333 -92 -28l272 -493c8.66699 -16 19.667 -31.833 33 -47.5s27.666 -25.167 42.999 -28.5l131 -33l-13 -58h-209c-30 0 -53.5 2 -70.5 6s-31.167 10.667 -42.5 20
s-21.166 21.5 -29.499 36.5l-30.5 54.5l-43.5 81.5l-48 89.5l-49 92l-47.5 89.5l-43.5 81l-35.5 65.5l-177 34l-111 -501c-2.66699 -14.667 -1.66699 -26.834 3 -36.501s13.334 -16.167 26.001 -19.5l155 -35z" />
    <glyph glyph-name="S" unicode="S" horiz-adv-x="1166" 
d="M460 -32c-32.667 0 -68.002 2.83105 -106.002 8.49805s-76.667 13.5 -116 23.5s-78.333 21 -117 33s-75 24.333 -109 37l75 365h78l6 -207c2 -13.333 9.66699 -26.666 23 -39.999s30.5 -26 51.5 -38s44.167 -23.333 69.5 -34s50.666 -19.667 75.999 -27
s49.333 -13.166 72 -17.499s41.334 -6.5 56.001 -6.5c50.667 0 97.667 6.83301 141 20.5s80.666 33.334 111.999 59.001s56 56.834 74 93.501s27 79 27 127c0 48.667 -13.333 89.5 -40 122.5s-63.667 61.167 -111 84.5l-73.5 33.5l-70.5 30.5l-69.5 30l-70.5 32
c-32 15.333 -61.167 33 -87.5 53s-49.166 42.5 -68.499 67.5s-34.333 52.167 -45 81.5s-16 60.666 -16 93.999c0 61.333 14.333 118.5 43 171.5s67 99.333 115 139s103.667 70.834 167 93.501s130.333 34 201 34c36.667 0 73.5 -2.5 110.5 -7.5s73.333 -11.333 109 -19
s69.5 -16.167 101.5 -25.5s61.667 -19 89 -29l-70 -340h-78l-13 193c-0.666992 9.33301 -5.66699 19.166 -15 29.499s-21.5 20.333 -36.5 30s-32.333 18.667 -52 27s-40 15.666 -61 21.999s-42.167 11.333 -63.5 15s-41.333 5.5 -60 5.5
c-47.333 0 -89.5 -6.66699 -126.5 -20s-68.5 -32 -94.5 -56s-46 -52.5 -60 -85.5s-21 -68.833 -21 -107.5c0 -22.667 2.66699 -44.667 8 -66s14.333 -41.333 27 -60s29.334 -36.5 50.001 -53.5s46.334 -32.167 77.001 -45.5l136.5 -59c45 -18.667 92.833 -40.667 143.5 -66
c26 -14 52 -29.333 78 -46s49.333 -36.5 70 -59.5s37.5 -49.5 50.5 -79.5s19.5 -64.667 19.5 -104c0 -58.667 -12.833 -115.5 -38.5 -170.5s-64 -103.833 -115 -146.5s-114.333 -76.667 -190 -102s-163.167 -38 -262.5 -38z" />
    <glyph glyph-name="T" unicode="T" horiz-adv-x="1298" 
d="M830 0h-583.001l11 58l151 35c14 3.33301 25.833 9.83301 35.5 19.5s16.167 21.834 19.5 36.501l257 1158h-325c-12.667 0 -23 -3.5 -31 -10.5s-14.667 -15.5 -20 -25.5l-108 -219h-78l78 348h1201l-78 -348h-78l-10 219c-0.666992 11.333 -3.66699 20.166 -9 26.499
s-13.666 9.5 -24.999 9.5h-329l-257 -1158c-3.33301 -14.667 -1.83301 -27 4.5 -37s15.833 -16.333 28.5 -19l157 -35z" />
    <glyph glyph-name="U" unicode="U" horiz-adv-x="1490" 
d="M643 -32c-76.667 0 -143.666 9.16992 -200.999 27.5029s-105.166 43.166 -143.499 74.499s-67 67.666 -86 108.999s-28.5 84.666 -28.5 129.999c0 14.667 0.833008 29.834 2.5 45.501s4 31.334 7 47.001s6.33301 31.167 10 46.5l10.5 44l168 760
c3.33301 14.667 2 26.667 -4 36s-15.333 15.666 -28 18.999l-142 36l14 57h550l-13 -57l-133 -36c-12.667 -3.33301 -24.334 -9.83301 -35.001 -19.5s-17.667 -21.5 -21 -35.5l-77 -346.5l-77 -345.5l-9 -43l-10 -48c-3.33301 -16.667 -6 -34.167 -8 -52.5
s-3 -37.166 -3 -56.499c0 -32.667 4.5 -65.334 13.5 -98.001s25 -61.834 48 -87.501s54.167 -46.667 93.5 -63s89.666 -24.5 150.999 -24.5c51.333 0 97.166 5.83301 137.499 17.5s76.166 27.5 107.499 47.5s58.666 43 81.999 69s43 53.333 59 82s29.333 57.667 40 87
s18.667 57 24 83l172 773c2.66699 12.667 1 24 -5 34s-14.667 16.667 -26 20l-144 43l13 57h464l-13 -57l-130 -43c-13.333 -4 -25.166 -10.5 -35.499 -19.5s-17.166 -20.5 -20.499 -34.5l-180 -811c-12.667 -57.333 -31.167 -108.5 -55.5 -153.5
s-52.833 -84.833 -85.5 -119.5s-68 -64.167 -106 -88.5s-76.833 -44.333 -116.5 -60s-79.167 -27.167 -118.5 -34.5s-76.666 -11 -111.999 -11z" />
    <glyph glyph-name="V" unicode="V" horiz-adv-x="1326" 
d="M563 -20l-69.002 0.00195312l-217 1274c-2 11.333 -6.5 22.666 -13.5 33.999s-16.833 19 -29.5 23l-102 32l13 57h492l-13 -57l-169 -44l158 -929l19 -135h7l627 1060l-170 48l13 57h421l-13 -57l-88 -33c-13.333 -4.66699 -26.166 -12.334 -38.499 -23.001
s-22.166 -22 -29.499 -34l-633 -1042z" />
    <glyph glyph-name="W" unicode="W" horiz-adv-x="1994" 
d="M471 -14l-86 0.000976562l-105 1269c-1.33301 13.333 -5.5 25 -12.5 35s-16.5 17 -28.5 21l-93 32l13 57h482l-13 -57l-169 -44l71 -857l12 -174h7l463 870l166 253h83l101 -981l13 -144h6l549 1029l-173 48l12 57h421l-13 -57l-82 -33
c-13.333 -5.33301 -26.5 -13.333 -39.5 -24s-23.167 -22.334 -30.5 -35.001l-552 -1014l-169 -251h-83l-100 986l-7 138h-6l-466 -873z" />
    <glyph glyph-name="X" unicode="X" horiz-adv-x="1327" 
d="M330 0l-428 -0.00195312l14 58l91 30c15.333 4.66699 31.333 13.334 48 26.001s31 25.334 43 38.001l514 543l-251 558l-9 17.5c-3.33301 6.33301 -7.16602 12.333 -11.499 18s-9 10.5 -14 14.5s-9.83301 6.66699 -14.5 8l-104 32l14 57h488l-14 -57l-154 -44l167 -377
l45 -117h3l436 490l-153 48l14 57h424l-13 -57l-88 -30c-6.66699 -2 -14 -5.33301 -22 -10s-16 -10 -24 -16s-15.667 -12.333 -23 -19s-14 -13 -20 -19l-491 -525l258 -578c5.33301 -11.333 12.666 -23 21.999 -35s19 -19.333 29 -22l103 -31l-13 -58h-490l13 58l155 43
l-175 398l-46 113h-3l-458 -507l151 -47z" />
    <glyph glyph-name="Y" unicode="Y" horiz-adv-x="1277" 
d="M823 0h-584l14 58l149 35c14 4 26 10.667 36 20s16.667 21.333 20 36l89 400l-240 705c-4 12 -9.33301 23.5 -16 34.5s-15.667 18.5 -27 22.5l-105 32l13 57h492l-12 -57l-166 -43l176 -519l39 -126h6l495 640l-165 48l12 57h416l-12 -57l-89 -33
c-14 -5.33301 -27 -13.333 -39 -24s-22.667 -21.667 -32 -33l-557 -696l-90 -408c-3.33301 -14 -2 -26.167 4 -36.5s15 -16.833 27 -19.5l159 -35z" />
    <glyph glyph-name="Z" unicode="Z" horiz-adv-x="1195" 
d="M1031 0h-1104l7 65l1035 1145l89 90l2 7h-603c-12 0 -22 -3.16699 -30 -9.5s-15 -15.166 -21 -26.499l-107 -219h-79l78 348h1019l-7 -60l-1039 -1149l-88 -90l-2 -7h690c12 0 22 3.16699 30 9.5s14.667 15.166 20 26.499l114 241h79z" />
    <glyph glyph-name="bracketleft" unicode="[" horiz-adv-x="874" 
d="M576 -345h-533l410 1848h534l-19 -85h-371l-373 -1676h371z" />
    <glyph glyph-name="backslash" unicode="\" horiz-adv-x="958" 
d="M747 -420h-118l-312 1931h123z" />
    <glyph glyph-name="bracketright" unicode="]" horiz-adv-x="874" 
d="M438 -345h-540l19 87h378l373 1676h-378l18 85h541z" />
    <glyph glyph-name="asciicircum" unicode="^" horiz-adv-x="1414" 
d="M436 738h-144l429 677h88l426 -677h-144l-324 530z" />
    <glyph glyph-name="underscore" unicode="_" horiz-adv-x="1115" 
d="M979 -246h-1123l17 75h1123z" />
    <glyph glyph-name="grave" unicode="`" horiz-adv-x="1024" 
d="M867 1153l-46.001 -34l-282 231l-28 27c-8.66699 8.66699 -16 17.167 -22 25.5s-10.667 16.833 -14 25.5s-5 17.334 -5 26.001c0 13.333 2.5 25.166 7.5 35.499s11.167 18.833 18.5 25.5s15.833 11.667 25.5 15s19.167 5 28.5 5c12.667 0 24 -1.16699 34 -3.5
s19.833 -6.66602 29.5 -12.999s19.334 -14.833 29.001 -25.5s20.167 -24.334 31.5 -41.001z" />
    <glyph glyph-name="a" unicode="a" horiz-adv-x="1076" 
d="M386 104c18.667 0 39.166 2.33301 61.499 7s45 11.334 68 20.001s45.5 19.834 67.5 33.501s42 29.834 60 48.501l69 319c-67.333 0 -130.666 -2.83301 -189.999 -8.5s-111 -17.334 -155 -35.001s-78.5 -43.5 -103.5 -77.5s-37.5 -79.333 -37.5 -136
c0 -30.667 4.33301 -56.834 13 -78.501s20.167 -39.334 34.5 -53.001s31 -23.667 50 -30s39.833 -9.5 62.5 -9.5zM297.999 -19c-46 0 -85.4922 7.17285 -118.492 21.5059s-60.333 33.333 -82 57s-37.667 51.167 -48 82.5s-15.5 63.666 -15.5 96.999
c-0.666992 49.333 6.83301 93 22.5 131s37 71 64 99s58 51.667 93 71s71.667 35 110 47s77 20.5 116 25.5s75.5 7.5 109.5 7.5c9.33301 0 21.666 -0.5 36.999 -1.5s31.666 -2.33301 48.999 -4s34.166 -3.5 50.499 -5.5s30.166 -3.33301 41.499 -4l16 76c2 8 3.66699 17 5 27
s2.33301 20.167 3 30.5s1.16699 20 1.5 29s0.5 16.5 0.5 22.5c0 26.667 -4.5 49.334 -13.5 68.001s-21.5 34 -37.5 46s-34.667 20.833 -56 26.5s-44 8.5 -68 8.5c-31.333 0 -63.333 -5.66699 -96 -17s-64.167 -24.833 -94.5 -40.5s-58.833 -31.834 -85.5 -48.501
s-49.334 -30 -68.001 -40h-36l24 169l54 17l70 23c23.333 7.33301 48.166 13.666 74.499 18.999s54.666 9.66602 84.999 12.999s64.166 5 101.499 5c40 0 79.5 -3.83301 118.5 -11.5s74 -20.667 105 -39s55.833 -42.833 74.5 -73.5s28 -69 28 -115
c0 -10.667 -0.5 -23 -1.5 -37s-2.5 -28 -4.5 -42s-4.16699 -27.833 -6.5 -41.5s-4.5 -25.5 -6.5 -35.5l-53 -236c-4.66699 -19.333 -9.33398 -40.833 -14.001 -64.5l-13 -68c-4 -21.667 -7.33301 -41.667 -10 -60s-4 -31.833 -4 -40.5c0 -8 1.83301 -16.833 5.5 -26.5
s9.33398 -18.834 17.001 -27.501s17.667 -15.834 30 -21.501s27.5 -8.5 45.5 -8.5c4.66699 0 11.5 0.666992 20.5 2s18.833 3.16602 29.5 5.49902s21.5 5.16602 32.5 8.49902s21.167 7.33301 30.5 12h22v-62c-19.333 -12 -40 -22.333 -62 -31s-44.333 -16.167 -67 -22.5
s-45.167 -11 -67.5 -14s-43.833 -4.5 -64.5 -4.5c-30 0 -54.333 5.33301 -73 16s-33.5 24 -44.5 40s-19 34 -24 54s-8.83301 39 -11.5 57h-4c-29.333 -34.667 -58.5 -63.167 -87.5 -85.5s-58 -39.666 -87 -51.999s-57.167 -21 -84.5 -26s-53.333 -7.5 -78 -7.5z" />
    <glyph glyph-name="b" unicode="b" horiz-adv-x="1132" 
d="M499 96c42 0 80.4971 7.33398 115.497 22.001s66.333 34.5 94 59.5s51.667 54.5 72 88.5s37.333 70.5 51 109.5s24 79.667 31 122s10.5 84.5 10.5 126.5s-4.66699 80.833 -14 116.5s-23.666 66.5 -42.999 92.5s-43.666 46.333 -72.999 61s-64.333 22 -105 22
c-16 0 -33.333 -2 -52 -6s-37.5 -10.5 -56.5 -19.5s-38.167 -20.333 -57.5 -34s-37.333 -29.834 -54 -48.501l-149 -669c14.667 -8 31.834 -14.667 51.501 -20s40.167 -9.83301 61.5 -13.5s42.333 -6.16699 63 -7.5s38.667 -2 54 -2zM510.997 -18.999
c-28.667 0 -55.168 2.83301 -79.501 8.5s-46.333 13 -66 22s-36.834 19.5 -51.501 31.5s-26.667 24.333 -36 37l-52 -93h-191c12 27.333 24.667 59.333 38 96s25 74.667 35 114l241 1122c4 15.333 2.5 28.333 -4.5 39s-18.5 19.334 -34.5 26.001l-96 43v44l357 54
l-55.5 -252.5l-54.5 -252.5l-35 -153c36.667 41.333 70.667 73.666 102 96.999s60.333 40.5 87 51.5s50.834 17.667 72.501 20s41.5 3.5 59.5 3.5c52 0 97.833 -9.66699 137.5 -29s73.167 -46.166 100.5 -80.499s48 -75.166 62 -122.499s21 -99 21 -155
s-6 -111.333 -18 -166s-29.333 -106.834 -52 -156.501s-50.167 -95.834 -82.5 -138.501s-69.333 -79.5 -111 -110.5s-87.167 -55.333 -136.5 -73s-101.666 -26.5 -156.999 -26.5z" />
    <glyph glyph-name="c" unicode="c" horiz-adv-x="911" 
d="M466 -21c-60 0 -114.5 9.83301 -163.5 29.5s-91 47.5 -126 83.5s-62 79.833 -81 131.5s-28.5 109.167 -28.5 172.5c0 66 7.5 127.5 22.5 184.5s35.833 109.333 62.5 157s58.167 90 94.5 127s75.666 68.333 117.999 94s86.833 45.334 133.5 59.001s93.667 20.5 141 20.5
c30.667 0 59.5 -2.33301 86.5 -7s52 -11 75 -19s44.167 -17.333 63.5 -28s35.666 -22 48.999 -34l-45 -172h-28c-20 20.667 -43.333 40.167 -70 58.5s-54.667 34.5 -84 48.5s-58.666 25 -87.999 33s-56.333 12 -81 12c-27.333 0 -52.666 -7.66699 -75.999 -23
s-44.666 -35.833 -63.999 -61.5s-36.166 -55 -50.499 -88s-26.5 -67.333 -36.5 -103s-17.5 -71.5 -22.5 -107.5s-7.5 -69.333 -7.5 -100c0 -52 5.33301 -99 16 -141s27.167 -77.833 49.5 -107.5s50.5 -52.5 84.5 -68.5s74 -24 120 -24c47.333 0 92.166 8.83301 134.499 26.5
s80.166 40.834 113.499 69.501l50 45h29l-19 -105l-79.5 -63.5c-25.667 -19.667 -52.834 -36.834 -81.501 -51.501s-60.167 -26.334 -94.5 -35.001s-73.166 -13 -116.499 -13z" />
    <glyph glyph-name="d" unicode="d" horiz-adv-x="1167" 
d="M497 104c15.333 0 32.3369 2 51.0039 6s37.667 10.5 57 19.5s38.333 20.167 57 33.5s36 29 52 47l149 671c-14.667 8 -31.834 14.833 -51.501 20.5s-40 10.167 -61 13.5s-41.5 5.66602 -61.5 6.99902s-38 2 -54 2c-42 0 -80.5 -7.33301 -115.5 -22
s-66.333 -34.667 -94 -60s-51.834 -55 -72.501 -89s-37.834 -70.833 -51.501 -110.5s-23.834 -80.667 -30.501 -123s-10 -84.5 -10 -126.5c0 -41.333 4.66699 -79.666 14 -114.999s23.5 -66 42.5 -92s43.333 -46.167 73 -60.5s65.167 -21.5 106.5 -21.5zM386.004 -19
c-51.333 0 -97.0068 9.49805 -137.007 28.498s-73.667 45.667 -101 80s-48 75 -62 122s-21 98.5 -21 154.5c0 54.667 5.83301 109.334 17.5 164.001s28.834 107 51.501 157s50.334 96.333 83.001 139s69.667 79.834 111 111.501s86.833 56.5 136.5 74.5
s102.834 27 159.501 27c28 0 55.167 -2.83301 81.5 -8.5s50.333 -13.167 72 -22.5s40.834 -20 57.501 -32s30 -24 40 -36l82 379c3.33301 17.333 1.83301 30.833 -4.5 40.5s-18.166 17.834 -35.499 24.501l-104 43v44l366 54l-241 -1101l-15 -71
c-5.33301 -24.667 -10.166 -48.667 -14.499 -72s-8 -44.333 -11 -63s-4.5 -33 -4.5 -43c0 -8 1.66699 -16.833 5 -26.5s9 -18.834 17 -27.501s18 -15.834 30 -21.501s26.667 -8.5 44 -8.5c5.33301 0 12.333 0.833008 21 2.5l28.5 5.5c10.333 2 20.833 4.66699 31.5 8
s20.667 7.33301 30 12h22v-62c-20 -12 -40.833 -22.333 -62.5 -31s-43.667 -16 -66 -22s-44.5 -10.667 -66.5 -14s-43.333 -5 -64 -5c-27.333 0 -50.166 5.33301 -68.499 16s-33.333 24.167 -45 40.5s-20.334 34.333 -26.001 54s-9.5 38.5 -11.5 56.5h-5
c-32.667 -36.667 -63 -66.167 -91 -88.5s-54.833 -39.666 -80.5 -51.999s-50.667 -20.5 -75 -24.5s-49.166 -6 -74.499 -6z" />
    <glyph glyph-name="e" unicode="e" horiz-adv-x="947" 
d="M389 575c59.333 -0.666992 110.999 4.33594 154.999 15.0029s80.333 26.667 109 48s49.834 48.166 63.501 80.499s20.5 70.166 20.5 113.499c0 18 -3.5 34.333 -10.5 49s-17.5 27.334 -31.5 38.001s-31 19 -51 25s-43.333 9 -70 9c-26 0 -53.833 -8.5 -83.5 -25.5
s-58.667 -41.333 -87 -73s-54.333 -70.834 -78 -117.501s-42.167 -99.334 -55.5 -158.001l34.5 -2c11 -0.666992 21.5 -1.16699 31.5 -1.5s19.5 -0.5 28.5 -0.5h24.5zM429.999 -20.9971c-20 0 -43 2.50391 -69 7.50391s-52.5 13.333 -79.5 25s-53.5 27.5 -79.5 47.5
s-49 45.167 -69 75.5s-36.167 66.5 -48.5 108.5s-18.5 91 -18.5 147c0 52 5.83301 104.167 17.5 156.5s29 102.5 52 150.5s51.167 93 84.5 135s71.333 78.167 114 108.5s89.667 54.333 141 72s107.333 26.5 168 26.5c32 0 64.667 -3.66699 98 -11s63.5 -19.333 90.5 -36
s49 -38.667 66 -66s25.5 -60.333 25.5 -99c0 -40.667 -7.16699 -77 -21.5 -109s-33.833 -60.333 -58.5 -85s-53.5 -45.834 -86.5 -63.501s-68.333 -32.167 -106 -43.5s-76.834 -19.666 -117.501 -24.999s-80.667 -8 -120 -8c-12 0 -25.5 0.5 -40.5 1.5
s-29.833 2.33301 -44.5 4l-42 5c-13.333 1.66699 -23.666 3.16699 -30.999 4.5c-1.33301 -6.66699 -2.33301 -13.834 -3 -21.501s-1.16699 -15.334 -1.5 -23.001s-0.666016 -14.834 -0.999023 -21.501s-0.5 -12.667 -0.5 -18c0 -44.667 4.66699 -86.334 14 -125.001
s24.833 -72.5 46.5 -101.5s49.834 -52 84.501 -69s77 -25.5 127 -25.5c32.667 0 63.167 4 91.5 12s55.666 18.833 81.999 32.5s52.5 29.334 78.5 47.001l80 54.5h27l-19 -105l-94.5 -65c-30.333 -20 -62 -37.333 -95 -52s-68.833 -26.334 -107.5 -35.001
s-83.334 -13 -134.001 -13z" />
    <glyph glyph-name="f" unicode="f" horiz-adv-x="687" 
d="M-216 -480c-11.333 0 -23.5 0.831055 -36.5 2.49805s-26.167 4 -39.5 7s-26.5 6.66699 -39.5 11s-25.167 9.5 -36.5 15.5l46 166h26l40.5 -25.5c13.667 -8.33301 28.167 -15.666 43.5 -21.999s32.166 -11.5 50.499 -15.5s38.833 -6 61.5 -6c30 0 54.833 4.33301 74.5 13
s36.167 22.334 49.5 41.001c8.66699 12.667 17.834 30.834 27.501 54.501s19.667 51.834 30 84.501s20.5 69.667 30.5 111s20 86.666 30 135.999l158 804h-174l13 91h182c23.333 96.667 52.5 179.834 87.5 249.501s75.167 127 120.5 172s94.5 78.167 147.5 99.5
s108.833 32 167.5 32c11.333 0 23.666 -0.833008 36.999 -2.5s26.833 -4 40.5 -7s27.334 -6.83301 41.001 -11.5s25.834 -9.66699 36.501 -15l-45 -165h-26l-41 25.5c-14 8.33301 -29 15.833 -45 22.5s-33.333 12 -52 16s-39.334 6 -62.001 6
c-19.333 0 -36.166 -1.5 -50.499 -4.5s-26.833 -7 -37.5 -12s-19.5 -11.333 -26.5 -19s-13.167 -16.5 -18.5 -26.5c-8 -16 -15.833 -35.833 -23.5 -59.5s-15.5 -50.834 -23.5 -81.501s-16.333 -64.334 -25 -101.001l-28 -118h268l-16 -91h-269l-159 -812
c-19.333 -95.333 -46.833 -178.5 -82.5 -249.5s-77.334 -129.833 -125.001 -176.5s-99.5 -81.5 -155.5 -104.5s-113.333 -34.5 -172 -34.5z" />
    <glyph glyph-name="g" unicode="g" horiz-adv-x="1126" 
d="M496 124c15.333 0 32.667 1.83301 52 5.5s39.333 10 60 19s41.167 20.333 61.5 34s39.5 30.5 57.5 50.5l130 648c-13.333 7.33301 -30.333 13.666 -51 18.999s-41.834 9.83301 -63.501 13.5s-42.667 6.33398 -63 8.00098s-36.5 2.5 -48.5 2.5
c-41.333 0 -79.333 -7.16699 -114 -21.5s-65.667 -33.833 -93 -58.5s-51.166 -53.334 -71.499 -86.001s-37.333 -67.5 -51 -104.5s-23.834 -75.167 -30.501 -114.5s-10 -77.666 -10 -114.999c0 -42 4.33301 -81.333 13 -118s22.334 -68.5 41.001 -95.5s43 -48.167 73 -63.5
s66 -23 108 -23zM300.001 -480c-34.667 0 -65.166 1.33203 -91.499 3.99902s-49.5 6 -69.5 10s-37.5 8.5 -52.5 13.5s-27.833 9.83301 -38.5 14.5l46 171h27c13.333 -7.33301 28.166 -15 44.499 -23s33.833 -15.333 52.5 -22s38.334 -12 59.001 -16s41.667 -5.66699 63 -5
c36.667 0.666992 68.334 2.33398 95.001 5.00098s50.5 6.83398 71.5 12.501s39 13.167 54 22.5s28.833 21 41.5 35c10 10 18.833 24.833 26.5 44.5s14.834 42.667 21.501 69s13.167 54.833 19.5 85.5l20.5 95l29 136l-4 -5c-35.333 -39.333 -69.333 -70.333 -102 -93
s-63.5 -39.334 -92.5 -50.001s-55 -17.334 -78 -20.001s-42.5 -4 -58.5 -4c-52 0 -97.833 9.83301 -137.5 29.5s-72.834 46.834 -99.501 81.501s-46.834 75.667 -60.501 123s-20.5 99 -20.5 155c0 54 5.83301 107.5 17.5 160.5s28.834 103.5 51.501 151.5
s50.334 92.667 83.001 134s69.667 77.166 111 107.499s86.5 54 135.5 71s101.5 25.5 157.5 25.5c28 0 53.833 -2.83301 77.5 -8.5s45 -13 64 -22s35.833 -19.5 50.5 -31.5s27 -24.333 37 -37l53 91h192l-17 -42l-20.5 -53c-7 -18.667 -13.5 -38 -19.5 -58
s-11.333 -39.333 -16 -58l-150 -781c-8 -42.667 -18.333 -81.667 -31 -117s-27.334 -67.5 -44.001 -96.5s-35.167 -55.333 -55.5 -79s-42.833 -45.5 -67.5 -65.5c-28.667 -24.667 -57.5 -46.667 -86.5 -66s-58.833 -36.166 -89.5 -50.499s-62.334 -25.333 -95.001 -33
s-67.334 -11.5 -104.001 -11.5z" />
    <glyph glyph-name="h" unicode="h" horiz-adv-x="1159" 
d="M872 -15c-26 0 -48.6641 4.33398 -67.9971 13.001s-35.5 19.667 -48.5 33s-23 28 -30 44s-10.5 31.667 -10.5 47c0 8 0.5 17.5 1.5 28.5s2.5 23 4.5 36s4.33301 26.333 7 40l8 39.5l87 372c6 25.333 10.833 49.666 14.5 72.999s5.5 43.333 5.5 60
c0 22.667 -3.33301 42.667 -10 60s-17 31.833 -31 43.5s-32 20.5 -54 26.5s-48.667 9 -80 9c-20 0 -40.833 -1.66699 -62.5 -5s-43.5 -8.83301 -65.5 -16.5s-43.5 -17.834 -64.5 -30.501s-40.5 -28.334 -58.5 -47.001l-137 -617c-2.66699 -16.667 -4.5 -34 -5.5 -52
s-1.66699 -35.5 -2 -52.5s-0.5 -33.167 -0.5 -48.5v-41h-212l293 1319c4 16.667 2.83301 30 -3.5 40s-18.166 18.333 -35.499 25l-96 43v44l357 54l-121 -546l-23 -107c35.333 36.667 68.666 66 99.999 88s61.166 38.833 89.499 50.5s55.666 19.334 81.999 23.001
s51.833 5.5 76.5 5.5c30.667 0 60.834 -4 90.501 -12s56.167 -21.167 79.5 -39.5s42.166 -42.5 56.499 -72.5s21.833 -66.667 22.5 -110c0 -16 -1.66699 -34.167 -5 -54.5s-8 -45.166 -14 -74.499l-78 -335c-4 -18 -7.83301 -36.167 -11.5 -54.5
s-6.66699 -35.166 -9 -50.499l-6 -40.5c-1.66699 -11.667 -2.5 -20.167 -2.5 -25.5c0 -7.33301 1.83301 -15.666 5.5 -24.999s9.33398 -18 17.001 -26s17.667 -14.667 30 -20s27.5 -8 45.5 -8c4.66699 0 11.167 0.666992 19.5 2s17.333 3.16602 27 5.49902
s19.667 5.16602 30 8.49902s20.166 7.33301 29.499 12h23v-62c-20 -12 -41.833 -22.333 -65.5 -31s-47.334 -16 -71.001 -22s-46.167 -10.667 -67.5 -14s-39 -5 -53 -5z" />
    <glyph glyph-name="i" unicode="i" horiz-adv-x="613" 
d="M467 1255c-17.333 0 -33.667 3.00195 -49 9.00195s-28.666 14.167 -39.999 24.5s-20.166 23 -26.499 38s-9.5 31.5 -9.5 49.5s3.16699 34.667 9.5 50s15.166 28.333 26.499 39s24.666 19 39.999 25s31.666 9 48.999 9c18 0 34.833 -2.83301 50.5 -8.5
s29.334 -13.834 41.001 -24.501s20.667 -23.334 27 -38.001s9.5 -30.667 9.5 -48c0 -18.667 -3.33301 -35.667 -10 -51s-15.667 -28.5 -27 -39.5s-24.833 -19.5 -40.5 -25.5s-32.5 -9 -50.5 -9zM298.999 -14.998c-26 0 -49.0029 4.33301 -69.0029 13s-36.667 19.667 -50 33
s-23.5 28 -30.5 44s-10.5 31.667 -10.5 47c0 21.333 2.16699 43.833 6.5 67.5s9.5 49.5 15.5 77.5l118 543c4 16.667 2.83301 30.5 -3.5 41.5s-18.166 20.167 -35.499 27.5l-106 44v43l371 65l-137 -624c-1.33301 -10.667 -3.5 -23 -6.5 -37l-9.5 -45l-10 -48
c-3.33301 -16 -6.16602 -31 -8.49902 -45l-6 -37c-1.66699 -10.667 -2.5 -18.667 -2.5 -24c0 -8 1.83301 -16.5 5.5 -25.5s9.5 -17.333 17.5 -25s18.333 -14.167 31 -19.5s27.667 -8 45 -8c4.66699 0 11.834 0.666992 21.501 2s20.334 3.5 32.001 6.5l35.5 9.5
c12 3.33301 22.667 7 32 11h22v-62c-20 -12 -42 -22.5 -66 -31.5s-48.167 -16.833 -72.5 -23.5s-47.833 -11.667 -70.5 -15s-42.334 -5 -59.001 -5z" />
    <glyph glyph-name="j" unicode="j" horiz-adv-x="634" 
d="M-151 -480c-10.667 0 -22.498 0.833984 -35.498 2.50098s-26.5 4.16699 -40.5 7.5s-27.833 7.33301 -41.5 12s-26.167 9.66699 -37.5 15l45 167h27l41 -25c14 -8.66699 29 -16.167 45 -22.5s33 -11.5 51 -15.5s37.333 -6 58 -6c34.667 0 62.5 5 83.5 15s37.5 24 49.5 42
c21.333 34.667 41.166 85.5 59.499 152.5s37.166 152.5 56.499 256.5l129 685c2.66699 12.667 1 25.667 -5 39s-18 23.333 -36 30l-129 48v43l393 65l-179 -936c-20 -104 -47.833 -192.333 -83.5 -265s-77 -131.834 -124 -177.501s-98.333 -79.167 -154 -100.5
s-113.167 -32 -172.5 -32zM507.002 1255c-16.667 0 -32.666 3.00195 -47.999 9.00195s-28.666 14.167 -39.999 24.5s-20.333 23 -27 38s-10 31.5 -10 49.5s3.33301 34.667 10 50s15.667 28.333 27 39s24.666 19 39.999 25s31.333 9 48 9
c18.667 0 35.834 -2.83301 51.501 -8.5s29.167 -13.834 40.5 -24.501s20.333 -23.334 27 -38.001s10 -30.667 10 -48c0 -18.667 -3.33301 -35.667 -10 -51s-15.834 -28.5 -27.501 -39.5s-25.334 -19.5 -41.001 -25.5s-32.5 -9 -50.5 -9z" />
    <glyph glyph-name="k" unicode="k" horiz-adv-x="1085" 
d="M806 -15c-24 0 -44.165 3.32812 -60.498 9.99512s-30.5 16.334 -42.5 29.001s-22.5 27.834 -31.5 45.501s-18.5 37.834 -28.5 60.501l-167 379l-157 -133l-39 -182c-2.66699 -16.667 -4.5 -33.834 -5.5 -51.501s-1.66699 -35 -2 -52s-0.5 -33.333 -0.5 -49v-41.5h-212
l293 1319c3.33301 15.333 2 28.333 -4 39s-17.667 19.334 -35 26.001l-96 43v44l357 54l-233 -1052l141.5 153.5l121.5 130.5l99 103.5c29.333 29.667 54 53.5 74 71.5c18.667 16.667 35.5 31 50.5 43s30 22 45 30s30.667 14 47 18s35.166 6 56.499 6
c9.33301 0 18 -0.166992 26 -0.5s16 -0.833008 24 -1.5s16.667 -1.66699 26 -3s18 -2.66602 26 -3.99902l-26 -182h-34c-8 2 -16.833 3.83301 -26.5 5.5s-20 3.16699 -31 4.5s-22.333 2.33301 -34 3s-22.834 1 -33.501 1c-15.333 0 -33.666 -4.83301 -54.999 -14.5
s-44.5 -23.667 -69.5 -42s-51 -40.333 -78 -66s-54.167 -54.5 -81.5 -86.5l205 -475c4 -9.33301 9.5 -18.666 16.5 -27.999s15.167 -17.666 24.5 -24.999s20 -13.166 32 -17.499s25.667 -6.5 41 -6.5c4.66699 0 11.167 0.666992 19.5 2s17.5 3.16602 27.5 5.49902
s20.167 5.16602 30.5 8.49902s20.166 7.33301 29.499 12h22v-62c-19.333 -12 -40.666 -22.333 -63.999 -31s-46.5 -16 -69.5 -22s-44.833 -10.667 -65.5 -14s-38.334 -5 -53.001 -5z" />
    <glyph glyph-name="l" unicode="l" horiz-adv-x="600" 
d="M291 -15c-27.333 0 -51.333 4.33594 -72 13.0029s-38 19.667 -52 33s-24.667 28 -32 44s-11 31.667 -11 47c0 20 2.16699 42.167 6.5 66.5s9.16602 49.5 14.499 75.5l234 1055c3.33301 16.667 1.83301 30 -4.5 40s-18.166 18.333 -35.499 25l-106 43v44l368 54
l-261 -1178c-4 -16.667 -7.83301 -33.834 -11.5 -51.501l-10 -50c-3 -15.667 -5.33301 -29.834 -7 -42.501s-2.5 -23.334 -2.5 -32.001c0 -8 2.16699 -16.5 6.5 -25.5s10.666 -17.333 18.999 -25s19 -14.167 32 -19.5s28.167 -8 45.5 -8c4.66699 0 12.167 0.666992 22.5 2
s21.5 3.5 33.5 6.5l37 9.5c12.667 3.33301 23.667 7 33 11h23v-62c-20 -12 -42.5 -22.5 -67.5 -31.5s-50.167 -16.833 -75.5 -23.5s-49.166 -11.667 -71.499 -15s-40.833 -5 -55.5 -5z" />
    <glyph glyph-name="m" unicode="m" horiz-adv-x="1774" 
d="M1488 -15c-26 0 -48.6787 4.33789 -68.0117 13.0049s-35.5 19.667 -48.5 33s-22.833 28 -29.5 44s-10 31.667 -10 47c-0.666992 15.333 1 36.333 5 63s9.33301 53.667 16 81l87 371c5.33301 24.667 9.83301 48.334 13.5 71.001s5.5 43.667 5.5 63
c0 22 -3.16699 41.667 -9.5 59s-16 32.166 -29 44.499s-30.167 21.833 -51.5 28.5s-47 10 -77 10c-18 0 -37.167 -1.83301 -57.5 -5.5s-41.166 -9.66699 -62.499 -18s-42.5 -19.166 -63.5 -32.499s-40.5 -29.333 -58.5 -48l-137 -615
c-2.66699 -15.333 -4.5 -31.833 -5.5 -49.5s-1.83301 -35.334 -2.5 -53.001s-1 -34.5 -1 -50.5v-41h-211l142 637c5.33301 24 9.83301 48.167 13.5 72.5s5.5 46.166 5.5 65.499c0 21.333 -3 40.666 -9 57.999s-15.5 31.833 -28.5 43.5s-30 20.667 -51 27
s-46.5 9.5 -76.5 9.5c-19.333 0 -39.666 -1.83301 -60.999 -5.5s-42.666 -9.66699 -63.999 -18s-42.333 -18.833 -63 -31.5s-39.667 -28.334 -57 -47.001l-137 -617c-2.66699 -15.333 -4.5 -31.833 -5.5 -49.5s-1.83301 -35.334 -2.5 -53.001s-1 -34.5 -1 -50.5v-41h-211
l182 818c3.33301 16 1.33301 29.167 -6 39.5s-20 19.166 -38 26.499l-96 39v43l351 65l-31 -161h4c35.333 36.667 68.833 66 100.5 88s61.5 39 89.5 51s54.833 20 80.5 24s50.5 6 74.5 6c31.333 0 60.833 -3.5 88.5 -10.5s52.334 -18 74.001 -33s39.834 -34.5 54.501 -58.5
s24 -53.333 28 -88c40.667 44.667 77.834 79.667 111.501 105s64.834 44.333 93.501 57s55.334 20.5 80.001 23.5s48.334 4.5 71.001 4.5c34.667 0 67 -4.66699 97 -14s56 -23.5 78 -42.5s39.333 -43.167 52 -72.5s19 -64 19 -104c0 -16 -1.16699 -33 -3.5 -51
s-5.83301 -36 -10.5 -54l-67 -288c-5.33301 -21.333 -10.666 -44.666 -15.999 -69.999s-10.166 -49.333 -14.499 -72s-7.83301 -43.167 -10.5 -61.5s-4 -31.5 -4 -39.5c0 -7.33301 1.66699 -15.666 5 -24.999s8.83301 -18 16.5 -26s17.834 -14.667 30.501 -20
s27.667 -8 45 -8c4.66699 0 11.167 0.666992 19.5 2s17.333 3.16602 27 5.49902s19.667 5.16602 30 8.49902s20.166 7.33301 29.499 12h23v-62c-20 -12 -41.833 -22.333 -65.5 -31s-47.167 -16 -70.5 -22s-45.666 -10.667 -66.999 -14s-39.333 -5 -54 -5z" />
    <glyph glyph-name="n" unicode="n" horiz-adv-x="1184" 
d="M898 -15c-25.333 0 -47.8369 4.33496 -67.5039 13.002s-36 19.667 -49 33s-22.833 28 -29.5 44s-10 31.667 -10 47s1.83301 36.5 5.5 63.5s8.83398 53.833 15.501 80.5l77 329c4 14 7.66699 28.667 11 44s6.5 30.666 9.5 45.999s5.33301 30.333 7 45
s2.5 28.334 2.5 41.001c0 22.667 -3.33301 42.667 -10 60s-17 32 -31 44s-32 21.333 -54 28s-48.667 10 -80 10c-19.333 0 -40 -1.83301 -62 -5.5s-44 -9.66699 -66 -18s-43.667 -18.833 -65 -31.5s-40.666 -28.334 -57.999 -47.001l-137 -617
c-2 -16 -3.66699 -32.833 -5 -50.5s-2.16602 -35.167 -2.49902 -52.5s-0.5 -33.833 -0.5 -49.5v-41.5h-212l181 818c2.66699 16 0.5 29.167 -6.5 39.5s-19.5 19.166 -37.5 26.499l-96 39v43l350 65l-32 -161h4c36 40 70 71.333 102 94s62.5 39.5 91.5 50.5
s57 17.833 84 20.5s53.5 4 79.5 4c34.667 0 67.167 -4.5 97.5 -13.5s56.5 -22.833 78.5 -41.5s39.5 -42.5 52.5 -71.5s19.5 -63.167 19.5 -102.5c0 -16.667 -1.16699 -34.667 -3.5 -54s-5.83301 -37.666 -10.5 -54.999l-79 -335
c-4.66699 -19.333 -8.83398 -39.333 -12.501 -60l-10.5 -58c-3.33301 -18 -5.83301 -34 -7.5 -48s-2.5 -24 -2.5 -30c0 -7.33301 1.66699 -15.666 5 -24.999s8.83301 -18 16.5 -26s17.834 -14.667 30.501 -20s27.667 -8 45 -8c4.66699 0 11.167 0.666992 19.5 2
s17.333 3.16602 27 5.49902s19.667 5.16602 30 8.49902s20.5 7.33301 30.5 12h22v-62c-20 -12 -41.833 -22.333 -65.5 -31s-47.167 -16 -70.5 -22s-45.666 -10.667 -66.999 -14s-39.333 -5 -54 -5z" />
    <glyph glyph-name="o" unicode="o" horiz-adv-x="1093" 
d="M474 -26c-63.333 0 -120.168 9.83301 -170.501 29.5s-92.833 47.667 -127.5 84s-61.167 80.166 -79.5 131.499s-27.5 109 -27.5 173c0 58 6.33301 114.167 19 168.5s30.667 105.5 54 153.5s51.5 91.833 84.5 131.5s69.833 73.834 110.5 102.501s84.834 51 132.501 67
s97.834 24 150.501 24c71.333 0 132.5 -11.167 183.5 -33.5s92.667 -52.833 125 -91.5s56.166 -83.667 71.499 -135s23 -105.666 23 -162.999c0 -56.667 -6.5 -111.834 -19.5 -165.501s-31 -104.5 -54 -152.5s-51 -91.833 -84 -131.5s-69.833 -73.667 -110.5 -102
s-84.667 -50.5 -132 -66.5s-97 -24 -149 -24zM485.998 55c37.333 0 71.8311 8.66602 103.498 25.999s60.167 40.5 85.5 69.5s47.666 62.833 66.999 101.5s35.333 79.667 48 123s22.334 87.5 29.001 132.5s10 88.833 10 131.5c0 43.333 -3.66699 84.333 -11 123
s-19.5 72.5 -36.5 101.5s-40 51.833 -69 68.5s-64.833 25 -107.5 25c-39.333 0 -75.166 -9.16699 -107.499 -27.5s-61.166 -42.833 -86.499 -73.5s-47.333 -66 -66 -106s-34.167 -81.667 -46.5 -125s-21.5 -86.833 -27.5 -130.5s-9 -84.5 -9 -122.5
c0 -40.667 3.5 -80.167 10.5 -118.5s19 -72.166 36 -101.499s40 -52.833 69 -70.5s65.167 -26.5 108.5 -26.5z" />
    <glyph glyph-name="p" unicode="p" horiz-adv-x="1156" 
d="M522 99c42 0 80.4971 7.16797 115.497 21.501s66.333 34.166 94 59.499s51.834 55 72.501 89s37.834 70.5 51.501 109.5s24 79.5 31 121.5s10.5 84 10.5 126c0 41.333 -4.66699 79.833 -14 115.5s-23.833 66.5 -43.5 92.5s-44.167 46.167 -73.5 60.5
s-64.333 21.5 -105 21.5c-16 0 -33.167 -2 -51.5 -6s-37.166 -10.5 -56.499 -19.5s-38.5 -20.333 -57.5 -34s-36.833 -29.834 -53.5 -48.501l-148 -666c14 -8 30.833 -14.833 50.5 -20.5s40 -10.167 61 -13.5s41.833 -5.66602 62.5 -6.99902s38.667 -2 54 -2z
M344.997 -479.999l-521.002 0.000976562l12 56l123 31c13.333 4 24.833 10.333 34.5 19s16.167 20 19.5 34l253 1158c3.33301 17.333 1.16602 30.833 -6.50098 40.5s-20.167 18.167 -37.5 25.5l-96 39v43l351 65l-32 -164h5c34.667 41.333 67.5 73.666 98.5 96.999
s59.833 40.5 86.5 51.5s51.334 17.667 74.001 20s43 3.5 61 3.5c52 0 97.833 -9.5 137.5 -28.5s73.167 -45.5 100.5 -79.5s48.166 -74.667 62.499 -122s21.5 -98.666 21.5 -153.999c0 -56 -6 -111.5 -18 -166.5s-29.5 -107.5 -52.5 -157.5s-50.667 -96 -83 -138
s-69.166 -78.5 -110.499 -109.5s-86.666 -55.333 -135.999 -73s-102 -26.5 -158 -26.5c-28 0 -55.167 3.16699 -81.5 9.5s-50.666 14.5 -72.999 24.5s-42 21.5 -59 34.5s-29.833 25.833 -38.5 38.5l-90 -425c-3.33301 -12.667 -2 -24.334 4 -35.001s15 -17.667 27 -21
l135 -33z" />
    <glyph glyph-name="q" unicode="q" horiz-adv-x="1126" 
d="M497 104c15.333 0 32.333 1.99707 51 5.99707s37.5 10.5 56.5 19.5s38 20.333 57 34s36.833 29.834 53.5 48.501l148 669c-14 7.33301 -30.833 13.833 -50.5 19.5s-40 10.334 -61 14.001s-41.667 6.16699 -62 7.5s-38.166 2 -53.499 2
c-42.667 0 -81.5 -7.33301 -116.5 -22s-66.333 -34.667 -94 -60s-51.834 -55.166 -72.501 -89.499s-37.667 -71 -51 -110s-23.5 -79.667 -30.5 -122s-10.5 -83.833 -10.5 -124.5c0 -42 4.66699 -80.833 14 -116.5s23.5 -66.5 42.5 -92.5s43.333 -46.333 73 -61
s65.167 -22 106.5 -22zM929 -480.003h-366l127 578l14 53c-35.333 -40.667 -68.5 -72.334 -99.5 -95.001s-59.667 -39.667 -86 -51s-50.333 -18.166 -72 -20.499s-41.5 -3.5 -59.5 -3.5c-51.333 0 -97 9.66699 -137 29s-73.667 46.166 -101 80.499s-48 75.166 -62 122.499
s-21 99 -21 155c0 54.667 5.83301 109.334 17.5 164.001s28.834 106.834 51.501 156.501s50.167 95.834 82.5 138.501s69.166 79.667 110.499 111s86.833 56 136.5 74s102.834 27 159.501 27c28 0 54 -2.83301 78 -8.5s45.833 -13 65.5 -22s36.667 -19.5 51 -31.5
s26.166 -24.333 35.499 -37l54 91h190l-35 -89c-13.333 -34 -26 -74.667 -38 -122l-251 -1154c-3.33301 -12.667 -2 -24.334 4 -35.001s15 -17.667 27 -21l131 -33z" />
    <glyph glyph-name="r" unicode="r" horiz-adv-x="903" 
d="M306 0l-213.004 0.00195312l154 730c3.33301 15.333 5.83301 31.333 7.5 48s2.83398 30 3.50098 40c0.666992 17.333 -2.33301 30.833 -9 40.5s-18.667 18.167 -36 25.5l-96 39v44l354 64l-43 -225h4c27.333 31.333 55 61 83 89s56.667 52.833 86 74.5
s59.166 38.667 89.499 51s61.5 18.5 93.5 18.5c18 0 33.833 -0.666992 47.5 -2s26.167 -3.5 37.5 -6.5s22 -6.83301 32 -11.5s20.667 -10 32 -16l-37 -240h-82l-15 81c-1.33301 6.66699 -5.66602 12.667 -12.999 18s-16.166 9.66602 -26.499 12.999
s-21.166 5.83301 -32.499 7.5s-21.666 2.5 -30.999 2.5c-25.333 0 -49.833 -3.83301 -73.5 -11.5s-46.667 -18 -69 -31s-44 -28.667 -65 -47s-41.833 -38.166 -62.5 -59.499l-115 -542c-1.33301 -13.333 -2.33301 -28.833 -3 -46.5s-1.16699 -35.334 -1.5 -53.001
s-0.5 -34.834 -0.5 -51.501v-43z" />
    <glyph glyph-name="s" unicode="s" horiz-adv-x="943" 
d="M363 -26c-52 0 -100.836 5.00586 -146.503 15.0059s-88.167 21.333 -127.5 34l-70 24l42 260h77l17 -110c2 -16 8.5 -29.167 19.5 -39.5s21.5 -18.833 31.5 -25.5c11.333 -6.66699 25.5 -13.667 42.5 -21s35.167 -14 54.5 -20s39 -10.833 59 -14.5s39.333 -5.5 58 -5.5
c32 0 63 3.33301 93 10s56.5 17.5 79.5 32.5s41.167 34.5 54.5 58.5s20 53.333 20 88c0 19.333 -3.83301 36.166 -11.5 50.499s-18.334 27.166 -32.001 38.499s-29.667 21.5 -48 30.5s-38.5 17.5 -60.5 25.5l-94 35.5l-87 33.5c-28.667 11.333 -54.167 25.166 -76.5 41.499
s-41.166 34.666 -56.499 54.999s-27 42.333 -35 66s-12 49.167 -12 76.5c0 48.667 12.167 93.167 36.5 133.5s56.833 74.666 97.5 102.999s87.834 50.333 141.501 66s110.167 23.5 169.5 23.5c28.667 0 56.334 -1.33301 83.001 -4s52.334 -6.16699 77.001 -10.5
s48.667 -9.66602 72 -15.999l69 -18.5l-41 -263h-79l-15 113c-2.66699 15.333 -11 29.333 -25 42s-31.333 23.667 -52 33s-43.5 16.333 -68.5 21s-49.833 7 -74.5 7c-30.667 0 -59.334 -3.33301 -86.001 -10s-50 -17.167 -70 -31.5s-35.833 -32.666 -47.5 -54.999
s-17.5 -49.5 -17.5 -81.5c0 -16.667 3 -31.834 9 -45.501s14.167 -26.334 24.5 -38.001s22.5 -22.5 36.5 -32.5s29.333 -18.667 46 -26c30.667 -14.667 62 -27.834 94 -39.501l87 -32.5c34.667 -14 65.5 -28.5 92.5 -43.5s49.833 -31.5 68.5 -49.5s32.834 -38 42.501 -60
s14.5 -47 14.5 -75c0 -40.667 -6.66699 -77.5 -20 -110.5s-31.333 -62.5 -54 -88.5s-49.334 -48.333 -80.001 -67s-63.5 -34.167 -98.5 -46.5s-71.667 -21.5 -110 -27.5s-76.166 -9 -113.499 -9z" />
    <glyph glyph-name="t" unicode="t" horiz-adv-x="766" 
d="M350 -18c-31.333 0 -60.3271 3.83594 -86.9941 11.5029s-50 18.5 -70 32.5s-35.5 31 -46.5 51s-16.5 42.667 -16.5 68c0 9.33301 1.16699 21.5 3.5 36.5s5.16602 31.167 8.49902 48.5s7 34.666 11 51.999s7.33301 32.333 10 45l126 589h-166v63
c33.333 4 62.5 8.5 87.5 13.5s46.667 13 65 24s34 26 47 45s23.5 44.5 31.5 76.5l35 130l160 32l-63 -293h333l-16 -91h-337l-112 -525c-2 -10.667 -4.83301 -24.5 -8.5 -41.5l-11 -52c-3.66699 -17.667 -6.83398 -34.334 -9.50098 -50.001s-4 -27.834 -4 -36.501
c0 -18.667 5.5 -34.5 16.5 -47.5s24.167 -23.667 39.5 -32s31.5 -14.5 48.5 -18.5s32.5 -6 46.5 -6c9.33301 0 21.666 1.33301 36.999 4s31.166 6 47.499 10s31.666 8.33301 45.999 13s25.166 8.66699 32.499 12h22v-59c-10 -6 -26.333 -14.833 -49 -26.5
s-48.5 -23.5 -77.5 -35.5s-59.333 -22.167 -91 -30.5s-61.5 -12.5 -89.5 -12.5z" />
    <glyph glyph-name="u" unicode="u" horiz-adv-x="1198" 
d="M381 -19c-35.333 0 -68.333 4.33887 -99 13.0059s-57 22.5 -79 41.5s-39.333 42.833 -52 71.5s-19 63 -19 103c0 16 1 33.167 3 51.5s5 37.166 9 56.499l109 499c3.33301 16.667 2 30.167 -4 40.5s-18 19.166 -36 26.499l-95 39v43l362 65l-144 -649
c-5.33301 -23.333 -9.66602 -46.833 -12.999 -70.5s-5 -44.834 -5 -63.501c0 -23.333 3.16699 -43.5 9.5 -60.5s16.333 -31.5 30 -43.5s31.5 -21.167 53.5 -27.5s48.333 -9.5 79 -9.5c20 0 41.167 1.83301 63.5 5.5s44.5 9.5 66.5 17.5s43.667 18.5 65 31.5s41 28.5 59 46.5
l136 613c2 14.667 3.5 30.667 4.5 48s1.83301 34.833 2.5 52.5s1 34.5 1 50.5v41h211l-142 -647l-12 -56c-4 -19.333 -7.66699 -37.833 -11 -55.5s-5.83301 -33.5 -7.5 -47.5s-2.5 -24.667 -2.5 -32c0 -8 1.66699 -16.833 5 -26.5s9 -18.834 17 -27.501
s18 -15.834 30 -21.501s26.667 -8.5 44 -8.5c5.33301 0 12.333 0.833008 21 2.5l28.5 5.5c10.333 2 20.833 4.66699 31.5 8s20.667 7.33301 30 12h22v-62c-20 -12 -40.833 -22.333 -62.5 -31s-43.667 -16 -66 -22s-44.5 -10.667 -66.5 -14s-43.333 -5 -64 -5
c-27.333 0 -50.333 5.33301 -69 16s-33.667 24 -45 40s-20 33.833 -26 53.5s-10 38.5 -12 56.5h-4c-36.667 -40.667 -71.667 -72.334 -105 -95.001s-64.833 -39.5 -94.5 -50.5s-57.834 -17.833 -84.501 -20.5s-51 -4 -73 -4z" />
    <glyph glyph-name="v" unicode="v" horiz-adv-x="1064" 
d="M455 -9l-100.997 0.00292969l-143 824c-2 11.333 -4.33301 20.666 -7 27.999s-6.33398 13.166 -11.001 17.499s-10.334 8.16602 -17.001 11.499l-23 11l-100 40v43l292 65l120 -661l21 -183h6l279 461c23.333 38 41.666 74.667 54.999 110s23.5 67.833 30.5 97.5
s11.333 56 13 79s2.5 41.167 2.5 54.5v24h251v-26l-41 -52.5l-51 -67.5l-55 -76l-53 -79l-319 -515z" />
    <glyph glyph-name="w" unicode="w" horiz-adv-x="1663" 
d="M439 -9l-107.002 0.00195312l-115 824c-1.33301 11.333 -3.33301 20.666 -6 27.999s-6.33398 13.166 -11.001 17.499s-10.167 8.16602 -16.5 11.499s-14.166 7 -23.499 11l-100 40v43l303 65l88 -656l15 -173h6l302 605l123 206h106l103 -632l17 -188h6l246 456
c20.667 39.333 36.834 76.5 48.501 111.5s20.334 67.167 26.001 96.5s9.16699 55.333 10.5 78s2 40.334 2 53.001v25h251v-27l-93.5 -124.5c-33 -45.667 -65.5 -95.167 -97.5 -148.5l-287 -516l-134 -206h-105l-104 646l-16 155h-4l-301 -595z" />
    <glyph glyph-name="x" unicode="x" horiz-adv-x="1075" 
d="M71 -15c-12 0 -25.998 0.830078 -41.998 2.49707s-30.333 3.83398 -43 6.50098l26 186h33c11.333 -3.33301 23.666 -6 36.999 -8s24.333 -3 33 -3c12 0 23.833 0.833008 35.5 2.5s21.834 4.5 30.501 8.5c15.333 8 33.666 21.833 54.999 41.5s44.166 43.667 68.499 72
s49.333 59.5 75 93.5l76.5 106l-144 322c-6 13.333 -11.5 24 -16.5 32s-10.5 14.5 -16.5 19.5s-12.5 9 -19.5 12l-25.5 10.5l-44 16.5l-44 17.5v43l261 65l138 -317l32 -102h4l41 55.5l42 56.5l41 55l38 51l33 44l26 35c18.667 24 35.5 43.833 50.5 59.5
s30.167 27.834 45.5 36.501s31.166 14.667 47.499 18s34.5 5 54.5 5c12 0 26 -0.666992 42 -2s30.333 -3.66602 43 -6.99902l-26 -185h-33c-11.333 2.66699 -23.666 5.16699 -36.999 7.5s-24.333 3.5 -33 3.5c-6 0 -12 -0.333008 -18 -1s-11.833 -1.5 -17.5 -2.5
s-11.167 -2.16699 -16.5 -3.5s-10 -3 -14 -5c-15.333 -7.33301 -33.333 -20.166 -54 -38.499s-42.5 -40.666 -65.5 -66.999s-46.833 -55.833 -71.5 -88.5l-74 -103l146 -331l16 -35.5c6 -13 13.5 -25.333 22.5 -37s20.5 -21.5 34.5 -29.5s31.333 -12 52 -12
c4.66699 0 11.167 0.666992 19.5 2s17.333 3.16602 27 5.49902s19.667 5.16602 30 8.49902s20.166 7.33301 29.499 12h22v-62c-20 -12 -41.167 -22.333 -63.5 -31s-44.666 -16 -66.999 -22s-43.5 -10.667 -63.5 -14s-37.667 -5 -53 -5c-24 0 -44 3.33301 -60 10
s-30 16 -42 28s-22.5 27 -31.5 45s-18.5 38.333 -28.5 61l-80 189l-33 96h-3l-37.5 -51.5l-42 -56l-43 -57.5l-41.5 -55.5l-37 -49.5l-29 -39c-18.667 -24.667 -35.667 -44.667 -51 -60s-30.5 -27.5 -45.5 -36.5s-30.667 -15.167 -47 -18.5s-34.5 -5 -54.5 -5z" />
    <glyph glyph-name="y" unicode="y" horiz-adv-x="1158" 
d="M328 -480c-34.667 0 -65.167 1.33008 -91.5 3.99707s-49.666 6 -69.999 10s-37.833 8.5 -52.5 13.5s-27.334 9.83301 -38.001 14.5l45 171h28c13.333 -7.33301 28.166 -15 44.499 -23s33.833 -15.333 52.5 -22s38.334 -12 59.001 -16s41.334 -5.66699 62.001 -5
c36.667 0.666992 68.5 2.33398 95.5 5.00098s50.833 6.83398 71.5 12.501s38.5 13.167 53.5 22.5s29.167 21 42.5 35c6 6.66699 12 16.5 18 29.5s11.833 28.167 17.5 45.5s11 36.333 16 57l15.5 66l20 88l10 39c3.33301 13.333 6.33301 26.166 9 38.499
s5.33398 24 8.00098 35s4.66699 20.833 6 29.5h-4c-35.333 -40 -69.833 -71.333 -103.5 -94s-65.834 -39.667 -96.501 -51s-59.5 -18.333 -86.5 -21s-51.833 -4 -74.5 -4c-35.333 0 -68.333 4.33301 -99 13s-57 22.5 -79 41.5s-39.5 42.833 -52.5 71.5s-19.5 63 -19.5 103
c0 16.667 1 34.334 3 53.001s5.33301 37 10 55l107 478c4 17.333 3 31.333 -3 42s-18 19.667 -36 27l-96 39v43l361 65l-141 -629c-5.33301 -24.667 -10 -48.667 -14 -72s-6 -44.333 -6 -63c0 -22.667 3.33301 -42.834 10 -60.501s17 -32.667 31 -45
s31.833 -21.833 53.5 -28.5s48.167 -10 79.5 -10c19.333 0 40.5 2.33301 63.5 7s46.333 11.5 70 20.5s46.667 20.333 69 34s42.5 29.834 60.5 48.501l119 587c2 14.667 3.66699 30.667 5 48s2.16602 34.833 2.49902 52.5s0.5 34.5 0.5 50.5v42h210l-191 -974
c-16 -81.333 -41.333 -151.333 -76 -210s-76 -108 -124 -148c-29.333 -24.667 -58.5 -46.667 -87.5 -66s-58.667 -36.166 -89 -50.499s-62 -25.333 -95 -33s-67.5 -11.5 -103.5 -11.5z" />
    <glyph glyph-name="z" unicode="z" horiz-adv-x="1007" 
d="M840 0h-839v57l696 777l86 87v6h-344h-25c-20 0 -36 -4.5 -48 -13.5s-21 -19.833 -27 -32.5l-77 -149h-77l44 281h800v-43l-709 -791l-84 -86v-7h396h23c16 0 30.667 4 44 12s23.333 19 30 33l79 170h79z" />
    <glyph glyph-name="braceleft" unicode="{" horiz-adv-x="955" 
d="M675 -267l-17.002 -78.0029c-58.667 0 -111.167 5.33301 -157.5 16s-85.5 27.5 -117.5 50.5s-56.667 52.167 -74 87.5s-26 77.333 -26 126c0 18 1.16699 37.333 3.5 58s5.83301 41 10.5 61l52 237c2.66699 12 4.66699 24.333 6 37s2 24.334 2 35.001
c0 32.667 -6.16699 60.167 -18.5 82.5s-29.666 40.5 -51.999 54.5s-49.5 24.667 -81.5 32s-67.667 12.666 -107 15.999l18 82c48.667 4 93 10.833 133 20.5s75.5 24.167 106.5 43.5s57.167 44.5 78.5 75.5s37.333 70.167 48 117.5l52 236c14.667 68.667 38 127.167 70 175.5
s70.833 87.666 116.5 117.999s97.834 52.333 156.501 66s122.334 20.5 191.001 20.5l-17 -77c-30.667 -2 -63.167 -5.66699 -97.5 -11s-67 -15.666 -98 -30.999s-58.5 -37.333 -82.5 -66s-41.667 -67 -53 -115l-48 -215c-15.333 -69.333 -35.5 -126.5 -60.5 -171.5
s-54.5 -81.667 -88.5 -110s-71.833 -50 -113.5 -65s-86.834 -27.167 -135.501 -36.5l-7 -31c36 -7.33301 69.167 -16.666 99.5 -27.999s56.166 -26.166 77.499 -44.499s38.166 -41.333 50.499 -69s18.5 -62.167 18.5 -103.5c0 -19.333 -1.66699 -41.333 -5 -66
s-7.66602 -48.667 -12.999 -72l-48 -217c-2.66699 -10 -4.5 -20.667 -5.5 -32s-1.5 -21.666 -1.5 -30.999c0 -35.333 7.16699 -64 21.5 -86s33 -39.5 56 -52.5s48.333 -22.333 76 -28s54.834 -9.5 81.501 -11.5z" />
    <glyph glyph-name="bar" unicode="|" horiz-adv-x="958" 
d="M568 -420h-117v1932h117v-1932z" />
    <glyph glyph-name="braceright" unicode="}" horiz-adv-x="955" 
d="M-103 -345l16.9971 77.002c31.333 2 64 5.66699 98 11s66.5 15.666 97.5 30.999s58.667 37.333 83 66s41.833 67.334 52.5 116.001l49 215c15.333 68.667 35.5 125.5 60.5 170.5s54.333 81.667 88 110s71.334 50 113.001 65s87.167 27.5 136.5 37.5l6 30
c-36 7.33301 -69 16.5 -99 27.5s-55.833 25.833 -77.5 44.5s-38.5 41.834 -50.5 69.501s-18 62.167 -18 103.5c0 19.333 1.5 41.5 4.5 66.5s7.16699 48.833 12.5 71.5l49 217c2 10 3.66699 20.667 5 32s2 21.666 2 30.999c0 35.333 -7.16699 64 -21.5 86s-33 39.5 -56 52.5
s-48.5 22.333 -76.5 28s-55 9.5 -81 11.5l17 78c58 0 110.167 -5.5 156.5 -16.5s85.666 -27.833 117.999 -50.5s57.166 -51.667 74.499 -87s26 -77.333 26 -126c0 -18 -1.16699 -37.333 -3.5 -58s-5.83301 -41 -10.5 -61l-52 -237
c-3.33301 -12 -5.66602 -24.333 -6.99902 -37s-2 -24.334 -2 -35.001c0 -32.667 6.16699 -60.167 18.5 -82.5s29.833 -40.5 52.5 -54.5s49.834 -24.833 81.501 -32.5s67.5 -12.834 107.5 -15.501l-19 -82c-48 -4 -92 -10.833 -132 -20.5s-75.667 -24.167 -107 -43.5
s-57.666 -44.5 -78.999 -75.5s-37 -70.167 -47 -117.5l-52 -236c-14.667 -69.333 -38 -128 -70 -176s-71 -87 -117 -117s-98.167 -52 -156.5 -66s-122.166 -21 -191.499 -21z" />
    <glyph glyph-name="asciitilde" unicode="~" horiz-adv-x="1414" 
d="M276 400l-71.998 27.998c11.333 28 27.166 59 47.499 93s44.666 65.5 72.999 94.5s60.5 53.167 96.5 72.5s75.333 29 118 29c50 0 94.667 -7.66699 134 -23s75.833 -32.166 109.5 -50.499s66.334 -35.166 98.001 -50.499s64.834 -23 99.501 -23
c24.667 0 46.5 4.66699 65.5 14s36.333 22.166 52 38.499s30.334 35.666 44.001 57.999s27.834 46.833 42.501 73.5l73 -28c-11.333 -28.667 -27.333 -59.834 -48 -93.501s-45.334 -65 -74.001 -94s-60.834 -53.333 -96.501 -73s-74.5 -29.5 -116.5 -29.5
c-33.333 0 -64.166 3.66699 -92.499 11s-55 16.5 -80 27.5s-48.667 22.833 -71 35.5s-44.333 24.334 -66 35.001s-43.5 19.667 -65.5 27s-44.667 11 -68 11c-24.667 0 -46.334 -4.66699 -65.001 -14s-35.834 -22.166 -51.501 -38.499s-30.334 -35.666 -44.001 -57.999z" />
    <glyph glyph-name="exclamdown" unicode="&#xa1;" horiz-adv-x="711" 
d="M346 -417h-229l3 22l292 955h72l-133 -955zM498 753c-18 0 -35.167 3.33301 -51.5 10s-30.5 16 -42.5 28s-21.5 26 -28.5 42s-10.5 33.333 -10.5 52c0 18 3.5 35 10.5 51s16.5 29.833 28.5 41.5s26.167 21 42.5 28s33.5 10.5 51.5 10.5s35 -3.5 51 -10.5
s30 -16.333 42 -28s21.5 -25.5 28.5 -41.5s10.5 -33 10.5 -51c0 -18.667 -3.5 -36 -10.5 -52s-16.5 -30 -28.5 -42s-26 -21.333 -42 -28s-33 -10 -51 -10z" />
    <glyph glyph-name="cent" unicode="&#xa2;" horiz-adv-x="1204" 
d="M732 936c-26.667 6 -57 9.00195 -91 9.00195c-27.333 0 -52.833 -7.5 -76.5 -22.5s-45.5 -34.833 -65.5 -59.5s-38 -53.334 -54 -86.001s-29.5 -67 -40.5 -103s-19.333 -72.333 -25 -109s-8.5 -71.334 -8.5 -104.001c0 -90.667 15 -163 45 -217s75.667 -91.333 137 -112z
M542 -254.998l-75.0029 0.000976562l56 254c-52 6.66699 -99.167 21.167 -141.5 43.5s-78.333 51.166 -108 86.499s-52.667 76.833 -69 124.5s-24.5 99.834 -24.5 156.501c0 63.333 7.5 123.166 22.5 179.499s35.667 108.166 62 155.499s57.666 89.666 93.999 126.999
s75.833 69.166 118.5 95.499s87.834 46.666 135.501 60.999s95.834 22.166 144.501 23.499l51 229h75l-52 -233c24.667 -3.33301 48 -7.66602 70 -12.999s42.667 -11.666 62 -18.999s36.833 -15.333 52.5 -24s29.167 -17.334 40.5 -26.001l-60 -165h-28
c-9.33301 10.667 -20 21.334 -32 32.001s-25.167 21 -39.5 31s-29.5 19.333 -45.5 28s-32.333 16.334 -49 23.001l-177 -796c5.33301 -0.666992 10.833 -1 16.5 -1h17.5c30.667 0.666992 60.167 4.83398 88.5 12.501s55.333 17.834 81 30.501s49.834 27.5 72.501 44.5
s43.334 35.167 62.001 54.5h30l-31 -113c-27.333 -21.333 -54.5 -41.166 -81.5 -59.499s-55 -34.333 -84 -48s-59.833 -24.334 -92.5 -32.001s-68 -11.5 -106 -11.5z" />
    <glyph glyph-name="sterling" unicode="&#xa3;" horiz-adv-x="1333" 
d="M1012 0l-944.997 0.000976562l20 88c38.667 17.333 72 38 100 62s51.833 50.167 71.5 78.5s35.667 57.666 48 87.999s22.5 60.5 30.5 90.5l32 119h-141l20 80h138l37 139c12.667 49.333 35.834 96.5 69.501 141.5s76.167 84.167 127.5 117.5s110.666 59.833 177.999 79.5
s141 29.5 221 29.5c26 0 50.833 -1.83301 74.5 -5.5s45.667 -8.16699 66 -13.5s39 -11.166 56 -17.499l45.5 -17.5l-61 -172h-33c-16 10.667 -34 22 -54 34s-42.667 22.833 -68 32.5s-53.333 17.834 -84 24.501s-64.334 10 -101.001 10c-13.333 0 -27 -1.33301 -41 -4
s-28 -6.5 -42 -11.5s-27.333 -11.333 -40 -19s-24 -16.167 -34 -25.5c-12.667 -12 -23.334 -24 -32.001 -36s-16.334 -24.833 -23.001 -38.5s-12.5 -28.334 -17.5 -44.001s-10.167 -33.834 -15.5 -54.501l-38 -149h376l-20 -80h-373
c-11.333 -44.667 -20.333 -77.667 -27 -99s-10 -33 -10 -35c-5.33301 -18.667 -15 -38.5 -29 -59.5s-31.5 -41.833 -52.5 -62.5s-45.167 -40.667 -72.5 -60s-56.333 -36.333 -87 -51l-2 -6l135 5h488c19.333 0 34.5 5.5 45.5 16.5s19.833 22.5 26.5 34.5l62 137h69z" />
    <glyph glyph-name="currency" unicode="&#xa4;" horiz-adv-x="1130" 
d="M148 1190l154.001 -154c74.667 54.667 162 82 262 82c102.667 0 190.667 -27.667 264 -83l155 155l79 -79l-155 -155c56 -77.333 84 -164.666 84 -261.999c0 -96.667 -28.333 -184.334 -85 -263.001l156 -155l-79 -79l-156 156
c-78.667 -54.667 -166.334 -82 -263.001 -82c-101.333 0 -188.333 27 -261 81l-155 -155l-79 79l154 154c-56.667 74.667 -85 162.667 -85 264c0 102 28 189.667 84 263l-153 154zM256.001 694c0 -44 7.16504 -85.5 21.498 -124.5s34.666 -73.333 60.999 -103
s58.5 -53 96.5 -70s81 -25.5 129 -25.5c44 0 84.833 7.83301 122.5 23.5s70.334 37.834 98.001 66.501s49.334 62.834 65.001 102.501s23.5 83.167 23.5 130.5c0 44 -7.16699 85.667 -21.5 125s-34.833 73.666 -61.5 102.999s-59.167 52.666 -97.5 69.999
s-81.166 26 -128.499 26c-44 0 -84.833 -8 -122.5 -24s-70.167 -38.167 -97.5 -66.5s-48.833 -62.333 -64.5 -102s-23.5 -83.5 -23.5 -131.5z" />
    <glyph glyph-name="yen" unicode="&#xa5;" horiz-adv-x="1463" 
d="M893 0h-553.003l13 58l143 35c14 3.33301 25.833 9.33301 35.5 18s16.167 18.334 19.5 29.001l37 153h-368l19 80h364l12 53l-26 80h-308l20 79h258l-136 377c-3.33301 9.33301 -6.66602 18.166 -9.99902 26.499s-10.666 13.833 -21.999 16.5l-96 24l12 54h466l-13 -54
l-155 -38l124 -352l31 -117h7l411 471l-131 36l12 54h381l-13 -54l-83 -25c-13.333 -4.66699 -26 -10.667 -38 -18s-22.667 -15.666 -32 -24.999l-341 -376h282l-19 -79h-335l-73 -74l-14 -59h379l-20 -80h-374l-36 -153c-2.66699 -11.333 -1.16699 -21.333 4.5 -30
s14.834 -14.334 27.501 -17.001l151 -35z" />
    <glyph glyph-name="brokenbar" unicode="&#xa6;" horiz-adv-x="958" 
d="M568 -420h-117v799h117v-799zM568 713h-117v799h117v-799z" />
    <glyph glyph-name="section" unicode="&#xa7;" horiz-adv-x="1261" 
d="M736 279c23.333 12.667 45.5 27.332 66.5 43.999s39.333 34.834 55 54.501s28.167 40.5 37.5 62.5s14 44.667 14 68c0 27.333 -6.83301 53 -20.5 77s-32.5 46.5 -56.5 67.5s-52.5 40.833 -85.5 59.5s-69.167 36.667 -108.5 54c-18.667 8 -35.667 16.333 -51 25l-45 26
c-26.667 -13.333 -50.667 -28.666 -72 -45.999s-39.5 -35.833 -54.5 -55.5s-26.5 -40.167 -34.5 -61.5s-12 -42.666 -12 -63.999c0 -38.667 9.33301 -70.834 28 -96.501s44.834 -49.334 78.501 -71.001s72.667 -43.5 117 -65.5s92.166 -48 143.499 -78zM396 -326.002
c-39.333 0 -75.501 2.16895 -108.501 6.50195s-62.833 9.66602 -89.5 15.999s-49.834 13.333 -69.501 21s-35.834 15.167 -48.501 22.5l61 170h26c10 -7.33301 25.333 -17.333 46 -30s46 -25.167 76 -37.5s64.333 -23 103 -32s81.667 -13.5 129 -13.5
c30.667 0 58.5 4.83301 83.5 14.5s46.5 23.667 64.5 42s31.833 40.333 41.5 66s14.5 54.834 14.5 87.501c0 25.333 -6.16699 48 -18.5 68s-29.166 38.5 -50.499 55.5s-47.166 33.5 -77.499 49.5s-63.5 32.333 -99.5 49c-52 24 -96 48.333 -132 73s-65 49.667 -87 75
s-37.667 50.666 -47 75.999s-14 51 -14 77c0 40 8.33301 76.667 25 110s39.667 67 69 101l195 114c-38.667 31.333 -66.5 63.333 -83.5 96s-25.5 66 -25.5 100c0 36.667 7.83301 71.334 23.5 104.001s36.5 62.667 62.5 90s56 52 90 74s69.5 40.667 106.5 56
s74.333 27 112 35s72.834 12 105.501 12c40 0 76.333 -2 109 -6s62 -9.33301 88 -16s48.667 -13.834 68 -21.501s35.666 -14.834 48.999 -21.501l-61 -170h-28c-9.33301 7.33301 -24.166 17.5 -44.499 30.5s-45.166 25.5 -74.499 37.5s-63.333 22.5 -102 31.5
s-81.334 13.5 -128.001 13.5c-31.333 0 -59.333 -4.83301 -84 -14.5s-45.834 -23.5 -63.501 -41.5s-31.167 -39.833 -40.5 -65.5s-14 -54.167 -14 -85.5c0 -26 6.16699 -49.167 18.5 -69.5s29.333 -39.166 51 -56.499s47.5 -33.833 77.5 -49.5l98 -50.5
c51.333 -26 94.833 -51.333 130.5 -76s64.5 -49.5 86.5 -74.5s38 -50 48 -75s15 -50.833 15 -77.5c0 -20.667 -2.33301 -40.167 -7 -58.5s-11.167 -36 -19.5 -53s-18.5 -33.5 -30.5 -49.5s-25.333 -32.333 -40 -49l-191 -111c38 -31.333 65.667 -63.333 83 -96
s26 -65.667 26 -99c0 -38.667 -7.83301 -74.5 -23.5 -107.5s-36.667 -63.5 -63 -91.5s-56.666 -52.833 -90.999 -74.5s-70 -39.834 -107 -54.501s-74.5 -26 -112.5 -34s-73.333 -12 -106 -12z" />
    <glyph glyph-name="dieresis" unicode="&#xa8;" horiz-adv-x="1024" 
d="M472 1181c-15.333 0 -29.834 2.66406 -43.501 7.99707s-25.5 12.833 -35.5 22.5s-18 21.167 -24 34.5s-9 28.333 -9 45s2.83301 31.834 8.5 45.501s13.667 25.334 24 35.001s22.333 17.167 36 22.5s28.167 8 43.5 8c16.667 0 32.167 -2.66699 46.5 -8
s26.833 -12.666 37.5 -21.999s18.834 -20.666 24.501 -33.999s8.5 -28 8.5 -44c0 -16.667 -3 -32 -9 -46s-14.333 -25.833 -25 -35.5s-23 -17.334 -37 -23.001s-29.333 -8.5 -46 -8.5zM885.999 1181c-15.333 0 -29.8311 2.66406 -43.498 7.99707s-25.667 12.833 -36 22.5
s-18.5 21.167 -24.5 34.5s-9 28.333 -9 45s3 31.834 9 45.501s14.167 25.334 24.5 35.001s22.166 17.167 35.499 22.5s28 8 44 8c16.667 0 32.167 -2.66699 46.5 -8s26.666 -12.666 36.999 -21.999s18.5 -20.666 24.5 -33.999s9 -28 9 -44c0 -16.667 -3 -32 -9 -46
s-14.333 -25.833 -25 -35.5s-23.167 -17.334 -37.5 -23.001s-29.5 -8.5 -45.5 -8.5z" />
    <glyph glyph-name="copyright" unicode="&#xa9;" horiz-adv-x="1901" 
d="M1006 160c-68 0 -129.998 10.0049 -185.998 30.0049s-103.833 49.167 -143.5 87.5s-70.334 85.166 -92.001 140.499s-32.5 118.333 -32.5 189c0 68 11.333 129.667 34 185s54.167 102.666 94.5 141.999s88.333 69.5 144 90.5s116.834 31.5 183.501 31.5
c23.333 0 48.5 -1.66699 75.5 -5s54.167 -7.33301 81.5 -12s53.5 -9.83398 78.5 -15.501s47.5 -10.5 67.5 -14.5v-224h-73l-20 123c-1.33301 5.33301 -5.33301 10.5 -12 15.5s-12.667 8.83301 -18 11.5c-28.667 14 -57.334 24.5 -86.001 31.5s-61.667 10.5 -99 10.5
c-45.333 0 -86.5 -7 -123.5 -21s-68.5 -35.167 -94.5 -63.5s-46.167 -63.833 -60.5 -106.5s-21.5 -93 -21.5 -151c0 -126 28.5 -220.833 85.5 -284.5s142.167 -95.5 255.5 -95.5c29.333 0 56.666 4 81.999 12s48.333 17.667 69 29s39.334 23.333 56.001 36s31 24 43 34h35
v-83c-18.667 -14.667 -39.667 -29.334 -63 -44.001s-48.833 -27.834 -76.5 -39.501s-56.834 -21.167 -87.501 -28.5s-62.667 -11 -96 -11zM975.002 -131.995c68 0 133.167 8.83203 195.5 26.499s120.666 42.5 174.999 74.5s103.333 70.5 147 115.5
s81.167 95.167 112.5 150.5s55.666 114.5 72.999 177.5s26 129.167 26 198.5c0 68 -8.66699 133.333 -26 196s-41.666 121.334 -72.999 176.001s-68.833 104.334 -112.5 149.001s-92.667 83 -147 115s-112.666 56.833 -174.999 74.5s-127.5 26.5 -195.5 26.5
c-68.667 0 -134.5 -8.83301 -197.5 -26.5s-121.5 -42.5 -175.5 -74.5s-103.167 -70.333 -147.5 -115s-82 -94.334 -113 -149.001s-55.167 -113.334 -72.5 -176.001s-26 -128 -26 -196c0 -68.667 8.66699 -134.667 26 -198s41.5 -122.666 72.5 -177.999
s68.667 -105.5 113 -150.5s93.5 -83.5 147.5 -115.5s112.5 -56.833 175.5 -74.5s128.833 -26.5 197.5 -26.5zM975.002 -208.996c-76 0 -148.833 9.83301 -218.5 29.5s-134.834 47.334 -195.501 83.001s-116 78.334 -166 128.001s-92.833 105 -128.5 166
s-63.334 126.333 -83.001 196s-29.5 142.167 -29.5 217.5c0 74 9.83301 145.667 29.5 215s47.334 134.333 83.001 195s78.5 115.834 128.5 165.501s105.333 92.167 166 127.5s125.834 63 195.501 83s142.5 30 218.5 30c74.667 0 146.667 -10 216 -30
s134.166 -47.667 194.499 -83s115.666 -77.833 165.999 -127.5s93.166 -104.834 128.499 -165.501s62.833 -125.667 82.5 -195s29.5 -141 29.5 -215c0 -75.333 -9.83301 -147.833 -29.5 -217.5s-47.167 -134.834 -82.5 -195.501s-78.166 -116 -128.499 -166
s-105.666 -92.833 -165.999 -128.5s-125.166 -63.334 -194.499 -83.001s-141.333 -29.5 -216 -29.5z" />
    <glyph glyph-name="ordfeminine" unicode="&#xaa;" horiz-adv-x="1010" 
d="M455 715c16.667 0 33.499 1.50195 50.499 4.50195s33.833 7.66699 50.5 14s32.834 14.5 48.501 24.5s30.167 21.667 43.5 35l52 241c-51.333 0 -98.5 -2.16699 -141.5 -6.5s-80.333 -13.333 -112 -27s-56.5 -33 -74.5 -58s-27 -57.833 -27 -98.5
c0 -24.667 3.16699 -45.334 9.5 -62.001s14.5 -29.834 24.5 -39.501s21.667 -16.667 35 -21s27 -6.5 41 -6.5zM385.999 616.002c-34 0 -63.4961 5.66797 -88.4961 17.001s-46 26 -63 44s-29.667 39 -38 63s-12.5 48.667 -12.5 74c0 37.333 6.16699 70.666 18.5 99.999
s28.833 55 49.5 77s44.5 40.667 71.5 56s55.167 27.666 84.5 36.999s59 16.166 89 20.499s58 6.5 84 6.5c4.66699 0 13 -0.5 25 -1.5s25 -2 39 -3s27.5 -2.16699 40.5 -3.5l29.5 -3l9 43c1.33301 6.66699 2.66602 14.5 3.99902 23.5s2.5 18.167 3.5 27.5s1.66699 18 2 26
s0.5 14.667 0.5 20c0 18 -3.33301 33.167 -10 45.5s-16 22.166 -28 29.499s-25.833 12.833 -41.5 16.5s-32.167 5.5 -49.5 5.5c-22.667 0 -46.5 -4 -71.5 -12s-49.333 -17.5 -73 -28.5s-45.834 -22.667 -66.501 -35l-52 -31.5h-34l16 134l67 20.5c22 7 45 13.333 69 19
s49.667 10.167 77 13.5s57.333 5 90 5c31.333 0 62.166 -3 92.499 -9s57.833 -16.167 82.5 -30.5s44.667 -33.166 60 -56.499s23 -52.666 23 -87.999c0 -8 -0.333008 -17.333 -1 -28s-1.66699 -21.667 -3 -33s-2.83301 -22.166 -4.5 -32.499s-3.16699 -19.166 -4.5 -26.499
l-43 -191c-3.33301 -12.667 -6.5 -27.334 -9.5 -44.001l-8.5 -48c-2.66699 -15.333 -4.83398 -29.333 -6.50098 -42s-2.5 -21.334 -2.5 -26.001c0 -6.66699 0.833008 -13.167 2.5 -19.5s4.83398 -12 9.50098 -17s11.167 -9.16699 19.5 -12.5s18.833 -5 31.5 -5
c10 0 21.5 1.33301 34.5 4s27.833 7.33398 44.5 14.001h26v-60c-20.667 -11.333 -40.334 -20.5 -59.001 -27.5s-36.5 -12.167 -53.5 -15.5s-32.833 -5.66602 -47.5 -6.99902s-28.667 -2 -42 -2c-21.333 0 -39.5 4 -54.5 12s-26.833 17.833 -35.5 29.5s-15 24.834 -19 39.501
s-6.33301 28.667 -7 42h-6c-26 -28 -50.667 -50.333 -74 -67s-45.666 -29.334 -66.999 -38.001s-41.833 -14.334 -61.5 -17.001s-38.834 -4 -57.501 -4z" />
    <glyph glyph-name="guillemotleft" unicode="&#xab;" horiz-adv-x="1285" 
d="M587 138h-98l-279 369l22 96l443 363h99l-383 -421zM1010 138h-99l-279 369l23 96l442 363h99l-382 -421z" />
    <glyph glyph-name="logicalnot" unicode="&#xac;" horiz-adv-x="1414" 
d="M1223 92h-123v454h-885v116h1008v-570z" />
    <glyph glyph-name="registered" unicode="&#xae;" horiz-adv-x="1901" 
d="M962 630c34.667 0 64.667 4.66699 90 14s46.5 22 63.5 38s29.667 34.333 38 55s12.5 42.334 12.5 65.001c0 60.667 -18.333 104.5 -55 131.5s-91 40.5 -163 40.5h-100v-336c6.66699 -0.666992 15.5 -1.5 26.5 -2.5s22.167 -1.83301 33.5 -2.5s22 -1.33398 32 -2.00098
s17.333 -1 22 -1zM974 193l-382.002 -0.000976562v44l100 32c6.66699 2.66699 12.334 6.16699 17.001 10.5s7 11.166 7 20.499v636c0 8 -2.5 14.333 -7.5 19s-10.5 8 -16.5 10l-100 32v44h381c70 0 126.833 -6.33301 170.5 -19s77.834 -29.167 102.501 -49.5
s41.334 -43.333 50.001 -69s13 -51.5 13 -77.5c0 -33.333 -6.16699 -63.166 -18.5 -89.499s-28.333 -49.166 -48 -68.499s-41.667 -35.333 -66 -48s-48.833 -22 -73.5 -28l232 -288c4 -5.33301 10.333 -12.333 19 -21s17.667 -14.334 27 -17.001l105 -29v-44h-157
c-20.667 0 -37.167 1 -49.5 3s-22.833 5.83301 -31.5 11.5s-16.834 13.334 -24.501 23.001l-28.5 37.5l-220 282l-127 26v-276c0 -9.33301 2.66699 -16.333 8 -21s11 -7.66699 17 -9l101 -33v-44zM974.998 -132.001c68 0 133.167 8.83203 195.5 26.499
s120.666 42.5 174.999 74.5s103.333 70.5 147 115.5s81.167 95.167 112.5 150.5s55.666 114.5 72.999 177.5s26 129.167 26 198.5c0 68 -8.66699 133.333 -26 196s-41.666 121.334 -72.999 176.001s-68.833 104.334 -112.5 149.001s-92.667 83 -147 115
s-112.666 56.833 -174.999 74.5s-127.5 26.5 -195.5 26.5c-68.667 0 -134.5 -8.83301 -197.5 -26.5s-121.5 -42.5 -175.5 -74.5s-103.167 -70.333 -147.5 -115s-82 -94.334 -113 -149.001s-55.167 -113.334 -72.5 -176.001s-26 -128 -26 -196
c0 -68.667 8.66699 -134.667 26 -198s41.5 -122.666 72.5 -177.999s68.667 -105.5 113 -150.5s93.5 -83.5 147.5 -115.5s112.5 -56.833 175.5 -74.5s128.833 -26.5 197.5 -26.5zM974.998 -209.002c-76 0 -148.833 9.83301 -218.5 29.5s-134.834 47.334 -195.501 83.001
s-116 78.334 -166 128.001s-92.833 105 -128.5 166s-63.334 126.333 -83.001 196s-29.5 142.167 -29.5 217.5c0 74 9.83301 145.667 29.5 215s47.334 134.333 83.001 195s78.5 115.834 128.5 165.501s105.333 92.167 166 127.5s125.834 63 195.501 83s142.5 30 218.5 30
c74.667 0 146.667 -10 216 -30s134.166 -47.667 194.499 -83s115.666 -77.833 165.999 -127.5s93.166 -104.834 128.499 -165.501s62.833 -125.667 82.5 -195s29.5 -141 29.5 -215c0 -75.333 -9.83301 -147.833 -29.5 -217.5s-47.167 -134.834 -82.5 -195.501
s-78.166 -116 -128.499 -166s-105.666 -92.833 -165.999 -128.5s-125.166 -63.334 -194.499 -83.001s-141.333 -29.5 -216 -29.5z" />
    <glyph glyph-name="macron" unicode="&#xaf;" horiz-adv-x="1024" 
d="M977 1238h-652l27 117h651z" />
    <glyph glyph-name="macron" unicode="&#x2c9;" horiz-adv-x="1024" 
d="M977 1238h-652l27 117h651z" />
    <glyph glyph-name="degree" unicode="&#xb0;" horiz-adv-x="928" 
d="M531 852c-44.667 0 -84.834 6.33398 -120.501 19.001s-65.667 30.5 -90 53.5s-43 50.833 -56 83.5s-19.5 69 -19.5 109c0 54 9.5 104.333 28.5 151s45 87.167 78 121.5s72.167 61.166 117.5 80.499s94.666 29 147.999 29c44 0 83.833 -6.16699 119.5 -18.5
s65.834 -29.833 90.501 -52.5s43.834 -50 57.501 -82s20.5 -67.333 20.5 -106c0 -52.667 -9 -102.667 -27 -150s-43.167 -88.5 -75.5 -123.5s-71.5 -62.833 -117.5 -83.5s-97.333 -31 -154 -31v0zM539 929.001c30 0 58.333 7.50098 85 22.501s50 36.333 70 64
s35.833 60.667 47.5 99s17.5 81.166 17.5 128.499c0 60 -13.5 104.667 -40.5 134s-63.833 44 -110.5 44c-32 0 -61.5 -8.5 -88.5 -25.5s-50 -39.667 -69 -68s-33.833 -61.5 -44.5 -99.5s-16 -78 -16 -120c0 -57.333 12.5 -101.5 37.5 -132.5s62.167 -46.5 111.5 -46.5v0z
" />
    <glyph glyph-name="plusminus" unicode="&#xb1;" horiz-adv-x="1414" 
d="M1237 15h-1015v117h448v420h-448v116h448v454h120v-454h447v-116h-447v-420h447v-117z" />
    <glyph glyph-name="uni00B2" unicode="&#xb2;" horiz-adv-x="827" 
d="M155 901l247.002 183.499c74 56.333 137.333 111.5 190 165.5s93.167 108.667 121.5 164s42.5 114.666 42.5 177.999c0 19.333 -1.83301 36.833 -5.5 52.5s-9.66699 29 -18 40s-19 19.5 -32 25.5s-29.167 9 -48.5 9c-25.333 0 -50.666 -4.16699 -75.999 -12.5
s-50.333 -18.666 -75 -30.999s-48.334 -26 -71.001 -41l-63 -42.5h-28l12 133l48.5 23.5c20.333 9.66699 43.333 18.834 69 27.501s53.667 15.834 84 21.501s61.5 8.5 93.5 8.5c40 0 76.667 -5 110 -15s62.166 -24.667 86.499 -44s43.5 -42.833 57.5 -70.5
s21 -59.167 21 -94.5c0 -40 -7.33301 -77.833 -22 -113.5s-35.167 -70.834 -61.5 -105.501s-57.833 -68.667 -94.5 -102s-77.334 -67 -122.001 -101l-143 -104.5l-159 -111.5l-2 -6l85 6h289c14.667 0 26.667 3.66699 36 11s16.333 15.333 21 24l45 93h57l-69 -261h-645z
" />
    <glyph glyph-name="uni00B3" unicode="&#xb3;" horiz-adv-x="802" 
d="M158 997l30.0068 -0.000976562c8.66699 -9.33301 21.667 -20.833 39 -34.5s37.166 -26.834 59.499 -39.501s46.666 -23.5 72.999 -32.5s53.5 -13.5 81.5 -13.5c39.333 0 73.666 6.83301 102.999 20.5s53.5 32.167 72.5 55.5s33.167 50.333 42.5 81s14 62.667 14 96
c0 21.333 -3 41 -9 59s-15.667 33.667 -29 47s-31 23.666 -53 30.999s-49 11 -81 11h-91l20 94h75c42 0 78 5.83301 108 17.5s54.667 28.334 74 50.001s33.5 47.834 42.5 78.501s13.5 65 13.5 103c0 15.333 -1.83301 29.166 -5.5 41.499s-9.5 22.833 -17.5 31.5
s-18.833 15.334 -32.5 20.001s-30.167 7 -49.5 7c-24.667 0 -50 -3.83301 -76 -11.5s-51 -17.167 -75 -28.5s-46.5 -23.166 -67.5 -35.499s-38.833 -23.5 -53.5 -33.5h-27l12 130l43 18c17.333 7.33301 37.666 14.5 60.999 21.5s49.333 12.833 78 17.5s60 7 94 7
c38 0 73.833 -4.16699 107.5 -12.5s63.167 -20.333 88.5 -36s45.5 -35.5 60.5 -59.5s22.5 -51.667 22.5 -83c0 -22.667 -4.33301 -47 -13 -73s-23.834 -51.833 -45.501 -77.5s-51.334 -49.834 -89.001 -72.501s-85.834 -41.667 -144.501 -57v-5
c24 -2.66699 49.167 -8.16699 75.5 -16.5s50.166 -20.666 71.499 -36.999s39.166 -36.666 53.499 -60.999s21.5 -53.5 21.5 -87.5c0 -36.667 -6.16699 -70.5 -18.5 -101.5s-29.166 -59 -50.499 -84s-46.333 -47 -75 -66s-60 -34.833 -94 -47.5s-69.667 -22.334 -107 -29.001
s-74.666 -10 -111.999 -10c-33.333 0 -63.833 2.5 -91.5 7.5s-52.5 10.833 -74.5 17.5s-41 14 -57 22l-40 20z" />
    <glyph glyph-name="acute" unicode="&#xb4;" horiz-adv-x="1024" 
d="M539 1119l-41.999 34.0029l93.5 130l71.5 99.5c20.667 28.333 39 52.166 55 71.499s31.167 35 45.5 47s28.166 20.667 41.499 26s27.666 8 42.999 8c11.333 0 21.5 -2 30.5 -6s16.833 -9.33301 23.5 -16s11.667 -14.167 15 -22.5s5 -16.833 5 -25.5
c0 -12.667 -1.66699 -23.834 -5 -33.501s-8.16602 -18.834 -14.499 -27.501s-14.333 -17.167 -24 -25.5l-33.5 -28.5z" />
    <glyph glyph-name="uni00B5" unicode="&#xb5;" horiz-adv-x="1200" 
d="M-59 -453l170 659.998l133 613c2 15.333 3.5 31.666 4.5 48.999l3 52c1 17.333 1.5 34 1.5 50v42h212l-133 -610c-6 -28 -10.833 -53.833 -14.5 -77.5s-5.5 -45.834 -5.5 -66.501c0 -23.333 2.83301 -44.333 8.5 -63s15.5 -34.5 29.5 -47.5s32.167 -23 54.5 -30
s50.166 -10.5 83.499 -10.5c20 0 41 1.83301 63 5.5s44.333 9.5 67 17.5s45 18.667 67 32s42.667 30 62 50l135 607c2 14.667 3.5 30.834 4.5 48.501s1.83301 35.167 2.5 52.5s1 34 1 50v42h212l-143 -647c-4.66699 -20 -9 -39.667 -13 -59s-7.5 -37.666 -10.5 -54.999
s-5.33301 -32.666 -7 -45.999s-2.5 -23.666 -2.5 -30.999c0 -8 1.66699 -16.833 5 -26.5s9 -18.834 17 -27.501s18 -15.834 30 -21.501s26.667 -8.5 44 -8.5c5.33301 0 12.333 0.833008 21 2.5l28.5 5.5c10.333 2 20.833 4.66699 31.5 8s20.667 7.33301 30 12h22v-62
c-20 -12 -40.833 -22.333 -62.5 -31s-43.667 -16 -66 -22s-44.5 -10.667 -66.5 -14s-43.333 -5 -64 -5c-27.333 0 -50.333 5.33301 -69 16s-33.667 24 -45 40s-20 33.833 -26 53.5s-10 38.5 -12 56.5l-19 -16c-33.333 -36 -64.833 -64.167 -94.5 -84.5
s-58 -35.666 -85 -45.999s-52.833 -16.833 -77.5 -19.5s-48.667 -4 -72 -4c-14.667 0 -30 1.16699 -46 3.5s-31.833 5.83301 -47.5 10.5s-30.5 10.834 -44.5 18.501s-26 16.834 -36 27.501h-5l-54 -328c-1.33301 -14.667 -2.66602 -30.834 -3.99902 -48.501
s-2.33301 -35.167 -3 -52.5s-1.16699 -34 -1.5 -50s-0.5 -30 -0.5 -42h-213v27z" />
    <glyph glyph-name="uni00B5" unicode="&#x3bc;" horiz-adv-x="1200" 
d="M-59 -453l170 659.998l133 613c2 15.333 3.5 31.666 4.5 48.999l3 52c1 17.333 1.5 34 1.5 50v42h212l-133 -610c-6 -28 -10.833 -53.833 -14.5 -77.5s-5.5 -45.834 -5.5 -66.501c0 -23.333 2.83301 -44.333 8.5 -63s15.5 -34.5 29.5 -47.5s32.167 -23 54.5 -30
s50.166 -10.5 83.499 -10.5c20 0 41 1.83301 63 5.5s44.333 9.5 67 17.5s45 18.667 67 32s42.667 30 62 50l135 607c2 14.667 3.5 30.834 4.5 48.501s1.83301 35.167 2.5 52.5s1 34 1 50v42h212l-143 -647c-4.66699 -20 -9 -39.667 -13 -59s-7.5 -37.666 -10.5 -54.999
s-5.33301 -32.666 -7 -45.999s-2.5 -23.666 -2.5 -30.999c0 -8 1.66699 -16.833 5 -26.5s9 -18.834 17 -27.501s18 -15.834 30 -21.501s26.667 -8.5 44 -8.5c5.33301 0 12.333 0.833008 21 2.5l28.5 5.5c10.333 2 20.833 4.66699 31.5 8s20.667 7.33301 30 12h22v-62
c-20 -12 -40.833 -22.333 -62.5 -31s-43.667 -16 -66 -22s-44.5 -10.667 -66.5 -14s-43.333 -5 -64 -5c-27.333 0 -50.333 5.33301 -69 16s-33.667 24 -45 40s-20 33.833 -26 53.5s-10 38.5 -12 56.5l-19 -16c-33.333 -36 -64.833 -64.167 -94.5 -84.5
s-58 -35.666 -85 -45.999s-52.833 -16.833 -77.5 -19.5s-48.667 -4 -72 -4c-14.667 0 -30 1.16699 -46 3.5s-31.833 5.83301 -47.5 10.5s-30.5 10.834 -44.5 18.501s-26 16.834 -36 27.501h-5l-54 -328c-1.33301 -14.667 -2.66602 -30.834 -3.99902 -48.501
s-2.33301 -35.167 -3 -52.5s-1.16699 -34 -1.5 -50s-0.5 -30 -0.5 -42h-213v27z" />
    <glyph glyph-name="paragraph" unicode="&#xb6;" horiz-adv-x="1285" 
d="M518 -326h-83.999l226 1019h-51c-66.667 0 -123.834 7.66699 -171.501 23s-86.834 36.333 -117.501 63s-53.167 58.167 -67.5 94.5s-21.5 75.833 -21.5 118.5c0 30.667 4.16699 62.167 12.5 94.5s20.333 63.5 36 93.5s35.5 58.5 59.5 85.5s51.667 50.5 83 70.5
s66.5 35.667 105.5 47s81.833 17 128.5 17h691l-12 -57l-145 -36c-14 -3.33301 -26.167 -9.83301 -36.5 -19.5s-17.166 -21.5 -20.499 -35.5l-350 -1578h-84l368 1665h-181z" />
    <glyph glyph-name="periodcentered" unicode="&#xb7;" horiz-adv-x="583" 
d="M315 428c-18 0 -35.167 3.5 -51.5 10.5s-30.5 16.333 -42.5 28s-21.5 25.5 -28.5 41.5s-10.5 33.333 -10.5 52c0 18 3.5 35 10.5 51s16.5 30 28.5 42s26.167 21.5 42.5 28.5s33.5 10.5 51.5 10.5c18.667 0 36 -3.5 52 -10.5s30 -16.5 42 -28.5s21.5 -26 28.5 -42
s10.5 -33 10.5 -51c0 -18.667 -3.5 -36 -10.5 -52s-16.5 -29.833 -28.5 -41.5s-26 -21 -42 -28s-33.333 -10.5 -52 -10.5z" />
    <glyph glyph-name="periodcentered" unicode="&#x2219;" horiz-adv-x="583" 
d="M315 428c-18 0 -35.167 3.5 -51.5 10.5s-30.5 16.333 -42.5 28s-21.5 25.5 -28.5 41.5s-10.5 33.333 -10.5 52c0 18 3.5 35 10.5 51s16.5 30 28.5 42s26.167 21.5 42.5 28.5s33.5 10.5 51.5 10.5c18.667 0 36 -3.5 52 -10.5s30 -16.5 42 -28.5s21.5 -26 28.5 -42
s10.5 -33 10.5 -51c0 -18.667 -3.5 -36 -10.5 -52s-16.5 -29.833 -28.5 -41.5s-26 -21 -42 -28s-33.333 -10.5 -52 -10.5z" />
    <glyph glyph-name="cedilla" unicode="&#xb8;" horiz-adv-x="1024" 
d="M443 -463c-40.667 0 -76.668 4.99805 -108.001 14.998s-58.666 20.667 -81.999 32l18 80h20c17.333 -11.333 39.166 -22.5 65.499 -33.5s56.5 -16.5 90.5 -16.5c22 0 41.333 3 58 9s30.667 14.333 42 25s19.833 22.834 25.5 36.501s8.5 28.167 8.5 43.5
c0 26.667 -11.667 45.167 -35 55.5s-62 15.833 -116 16.5l55 205h67l-30 -120c25.333 0 49.666 -2.5 72.999 -7.5s43.833 -12.667 61.5 -23s31.834 -24 42.501 -41s16 -37.5 16 -61.5c0 -33.333 -7 -63.166 -21 -89.499s-33.333 -48.833 -58 -67.5s-53.667 -33 -87 -43
s-68.666 -15 -105.999 -15z" />
    <glyph glyph-name="uni00B9" unicode="&#xb9;" horiz-adv-x="639" 
d="M179 868l138.999 25c9.33301 1.33301 17.333 5.5 24 12.5s11 15.5 13 25.5l132 620l26 96h-6l-194 -44l13 61l295 127h76l-13 -51l-14 -58l-13.5 -59.5l-12.5 -54.5l-134 -637c-2.66699 -10.667 -2.16699 -19.167 1.5 -25.5s9.83398 -10.5 18.501 -12.5l120 -25l-13 -57
h-470z" />
    <glyph glyph-name="ordmasculine" unicode="&#xba;" horiz-adv-x="1024" 
d="M547 685c27.333 0 52.502 6.33008 75.502 18.9971s43.833 29.667 62.5 51s35 46 49 74s25.5 57.833 34.5 89.5s15.833 63.834 20.5 96.501s7 64.334 7 95.001c0 32 -2.83301 62.333 -8.5 91s-15.334 53.834 -29.001 75.501s-31.334 38.667 -53.001 51
s-47.834 18.5 -78.501 18.5c-29.333 0 -56 -6.5 -80 -19.5s-45.167 -30.667 -63.5 -53s-34.166 -48 -47.499 -77s-24.333 -59.167 -33 -90.5s-15.167 -62.833 -19.5 -94.5s-6.5 -61.5 -6.5 -89.5c0 -30.667 3 -60.167 9 -88.5s15.5 -53.5 28.5 -75.5s30.333 -39.667 52 -53
s48.5 -20 80.5 -20zM538.002 609.997c-49.333 0 -94.1689 7.66602 -134.502 22.999s-74.666 37.333 -102.999 66s-50.166 63 -65.499 103s-23 85 -23 135c0 65.333 10.667 127.333 32 186s50.833 110.167 88.5 154.5s82.334 79.5 134.001 105.5s108.167 39 169.5 39
c56 0 104.5 -8.66699 145.5 -26s74.667 -40.833 101 -70.5s46 -64.334 59 -104.001s19.5 -82.167 19.5 -127.5c0 -64.667 -10.5 -126.167 -31.5 -184.5s-50.333 -109.666 -88 -153.999s-82.334 -79.666 -134.001 -105.999s-108.167 -39.5 -169.5 -39.5z" />
    <glyph glyph-name="guillemotright" unicode="&#xbb;" horiz-adv-x="1285" 
d="M190 138h-99l383 424l-196 404h99l279 -366l-23 -96zM612 138h-98l382 424l-195 404h98l280 -366l-23 -96z" />
    <glyph glyph-name="onequarter" unicode="&#xbc;" horiz-adv-x="1709" 
d="M65 570l138.999 25c9.33301 1.33301 17.333 5.5 24 12.5s11 15.5 13 25.5l132 620l26 96h-6l-194 -44l13 61l295 127h76l-13 -51l-14 -58l-13.5 -59.5l-12.5 -54.5l-134 -637c-2.66699 -10.667 -2.16699 -19.167 1.5 -25.5s9.83398 -10.5 18.501 -12.5l120 -25l-13 -57
h-470zM309.999 -100h-117l1240 1575h116zM853.999 278l623 617h102l-129 -611h163l-22 -102h-163l-36 -171c-2.66699 -10 -2 -18.167 2 -24.5s10.333 -10.5 19 -12.5l73 -22l-11 -50h-374l10 50l90 22c10 2.66699 18 7 24 13s10.333 14 13 24l36 171h-441zM1032 284h264
l66 313l29 113h-5l-439 -427l-1 -5z" />
    <glyph glyph-name="onehalf" unicode="&#xbd;" horiz-adv-x="1873" 
d="M65 570l138.999 25c9.33301 1.33301 17.333 5.5 24 12.5s11 15.5 13 25.5l132 620l26 96h-6l-194 -44l13 61l295 127h76l-13 -51l-14 -58l-13.5 -59.5l-12.5 -54.5l-134 -637c-2.66699 -10.667 -2.16699 -19.167 1.5 -25.5s9.83398 -10.5 18.501 -12.5l120 -25l-13 -57
h-470zM309.999 -100h-117l1240 1575h116zM1018 -8l247.002 183.499c74 56.333 137.333 111.5 190 165.5s93.167 108.667 121.5 164s42.5 114.666 42.5 177.999c0 19.333 -1.83301 36.833 -5.5 52.5s-9.66699 29 -18 40s-19 19.5 -32 25.5s-29.167 9 -48.5 9
c-25.333 0 -50.666 -4.16699 -75.999 -12.5s-50.333 -18.666 -75 -30.999s-48.334 -26 -71.001 -41l-63 -42.5h-28l12 133l48.5 23.5c20.333 9.66699 43.333 18.834 69 27.501s53.667 15.834 84 21.501s61.5 8.5 93.5 8.5c40 0 76.667 -5 110 -15s62.166 -24.667 86.499 -44
s43.5 -42.833 57.5 -70.5s21 -59.167 21 -94.5c0 -40 -7.33301 -77.833 -22 -113.5s-35.167 -70.834 -61.5 -105.501s-57.833 -68.667 -94.5 -102s-77.334 -67 -122.001 -101l-143 -104.5l-159 -111.5l-2 -6l85 6h289c14.667 0 26.667 3.66699 36 11s16.333 15.333 21 24
l45 93h57l-69 -261h-645z" />
    <glyph glyph-name="threequarters" unicode="&#xbe;" horiz-adv-x="1833" 
d="M44 699l30.0068 -0.000976562c8.66699 -9.33301 21.667 -20.833 39 -34.5s37.166 -26.834 59.499 -39.501s46.666 -23.5 72.999 -32.5s53.5 -13.5 81.5 -13.5c39.333 0 73.666 6.83301 102.999 20.5s53.5 32.167 72.5 55.5s33.167 50.333 42.5 81s14 62.667 14 96
c0 21.333 -3 41 -9 59s-15.667 33.667 -29 47s-31 23.666 -53 30.999s-49 11 -81 11h-91l20 94h75c42 0 78 5.83301 108 17.5s54.667 28.334 74 50.001s33.5 47.834 42.5 78.501s13.5 65 13.5 103c0 15.333 -1.83301 29.166 -5.5 41.499s-9.5 22.833 -17.5 31.5
s-18.833 15.334 -32.5 20.001s-30.167 7 -49.5 7c-24.667 0 -50 -3.83301 -76 -11.5s-51 -17.167 -75 -28.5s-46.5 -23.166 -67.5 -35.499s-38.833 -23.5 -53.5 -33.5h-27l12 130l43 18c17.333 7.33301 37.666 14.5 60.999 21.5s49.333 12.833 78 17.5s60 7 94 7
c38 0 73.833 -4.16699 107.5 -12.5s63.167 -20.333 88.5 -36s45.5 -35.5 60.5 -59.5s22.5 -51.667 22.5 -83c0 -22.667 -4.33301 -47 -13 -73s-23.834 -51.833 -45.501 -77.5s-51.334 -49.834 -89.001 -72.501s-85.834 -41.667 -144.501 -57v-5
c24 -2.66699 49.167 -8.16699 75.5 -16.5s50.166 -20.666 71.499 -36.999s39.166 -36.666 53.499 -60.999s21.5 -53.5 21.5 -87.5c0 -36.667 -6.16699 -70.5 -18.5 -101.5s-29.166 -59 -50.499 -84s-46.333 -47 -75 -66s-60 -34.833 -94 -47.5s-69.667 -22.334 -107 -29.001
s-74.666 -10 -111.999 -10c-33.333 0 -63.833 2.5 -91.5 7.5s-52.5 10.833 -74.5 17.5s-41 14 -57 22l-40 20zM419.007 -100.001h-117l1240 1575h116zM978.007 277.999l623 617h102l-129 -611h163l-22 -102h-163l-36 -171c-2.66699 -10 -2 -18.167 2 -24.5
s10.333 -10.5 19 -12.5l73 -22l-11 -50h-374l10 50l90 22c10 2.66699 18 7 24 13s10.333 14 13 24l36 171h-441zM1156.01 283.999h264l66 313l29 113h-5l-439 -427l-1 -5z" />
    <glyph glyph-name="questiondown" unicode="&#xbf;" horiz-adv-x="1029" 
d="M451 -447c-56 0 -107.497 7.99902 -154.497 23.999s-87.5 39 -121.5 69s-60.5 66 -79.5 108s-28.5 89.333 -28.5 142c0 46.667 6.66699 90.5 20 131.5s32 78.833 56 113.5s52.833 66.5 86.5 95.5s71.167 54.5 112.5 76.5s85.666 40.5 132.999 55.5
s96.666 26.5 147.999 34.5l66 208h89l-77 -358c-33.333 -3.33301 -68 -8.5 -104 -15.5s-71.167 -16.833 -105.5 -29.5s-66.833 -28.667 -97.5 -48s-57.667 -42.833 -81 -70.5s-41.666 -60 -54.999 -97s-20 -79.167 -20 -126.5c0 -29.333 3 -56.5 9 -81.5
s15.667 -46.833 29 -65.5s30.166 -33 50.499 -43s44.166 -15 71.499 -15c34 0 67.667 4.83301 101 14.5s65.666 22 96.999 37s61.333 31.333 90 49l80 49.5h31l-14 -173l-44 -20c-16.667 -7.33301 -35.5 -14.666 -56.5 -21.999s-43.667 -14.333 -68 -21
s-50.166 -12 -77.499 -16s-56 -6 -86 -6zM773.003 752.999c-18 0 -35 3.33301 -51 10s-29.833 16 -41.5 28s-21 26 -28 42s-10.5 33.333 -10.5 52c0 18 3.5 35 10.5 51s16.333 29.833 28 41.5s25.5 21 41.5 28s33 10.5 51 10.5c18.667 0 36.167 -3.5 52.5 -10.5
s30.5 -16.333 42.5 -28s21.333 -25.5 28 -41.5s10 -33 10 -51c0 -18.667 -3.33301 -36 -10 -52s-16 -30 -28 -42s-26.167 -21.333 -42.5 -28s-33.833 -10 -52.5 -10z" />
    <glyph glyph-name="Agrave" unicode="&#xc0;" horiz-adv-x="1312" 
d="M748 1165l-334 -562h433l-72 423l-16 107zM277 0l-420.999 -0.000976562l12 58l88 33c13.333 4.66699 26.333 12.334 39 23.001s22.667 22 30 34l631 1040l171 233h67l213 -1274c2 -12.667 6.66699 -24.5 14 -35.5s16.666 -18.167 27.999 -21.5l103 -32l-13 -58h-491
l12 58l171 42l-68 408h-506l-239 -403l171 -47zM1019 1546l-46.0029 -34.001l-282 231c-10 8.66699 -18.667 16.5 -26 23.5s-13.666 13.833 -18.999 20.5s-9.33301 13.667 -12 21s-4.66699 16 -6 26c-2 7.33301 -2.83301 14.5 -2.5 21.5s1.83301 14.167 4.5 21.5
c2 6.66699 5.33301 13.167 10 19.5s10.167 11.833 16.5 16.5s13.333 8.33398 21 11.001s15.834 4 24.501 4c12.667 0 24 -1.33301 34 -4s19.833 -7 29.5 -13s19.334 -14.333 29.001 -25s20.167 -24.667 31.5 -42z" />
    <glyph glyph-name="Aacute" unicode="&#xc1;" horiz-adv-x="1312" 
d="M748 1165l-334 -562h433l-72 423l-16 107zM277 0l-420.999 -0.000976562l12 58l88 33c13.333 4.66699 26.333 12.334 39 23.001s22.667 22 30 34l631 1040l171 233h67l213 -1274c2 -12.667 6.66699 -24.5 14 -35.5s16.666 -18.167 27.999 -21.5l103 -32l-13 -58h-491
l12 58l171 42l-68 408h-506l-239 -403l171 -47zM703.001 1512l-39.999 34.002l93.5 130l71.5 99c20.667 28 39 51.667 55 71s31.167 35.166 45.5 47.499s28.166 21.166 41.499 26.499s27.666 8 42.999 8c22.667 0 40.667 -7.16699 54 -21.5s20 -30.833 20 -49.5
c0 -12.667 -1.66699 -23.667 -5 -33s-8.16602 -18.333 -14.499 -27s-14.333 -17.167 -24 -25.5l-33.5 -28.5z" />
    <glyph glyph-name="Acircumflex" unicode="&#xc2;" horiz-adv-x="1312" 
d="M748 1165l-334 -562h433l-72 423l-16 107zM277 0l-420.999 -0.000976562l12 58l88 33c13.333 4.66699 26.333 12.334 39 23.001s22.667 22 30 34l631 1040l171 233h67l213 -1274c2 -12.667 6.66699 -24.5 14 -35.5s16.666 -18.167 27.999 -21.5l103 -32l-13 -58h-491
l12 58l171 42l-68 408h-506l-239 -403l171 -47zM881.001 1769l-311.999 -252.999l-39 28l248 297c10 12.667 19.667 24.167 29 34.5s19 19.166 29 26.499s20.167 13.166 30.5 17.499s21.833 6.5 34.5 6.5c25.333 0 45.166 -7.66699 59.499 -23s27.5 -35.666 39.5 -60.999
l143 -298l-49 -28z" />
    <glyph glyph-name="Atilde" unicode="&#xc3;" horiz-adv-x="1312" 
d="M748 1165l-334 -562h433l-72 423l-16 107zM277 0l-420.999 -0.000976562l12 58l88 33c13.333 4.66699 26.333 12.334 39 23.001s22.667 22 30 34l631 1040l171 233h67l213 -1274c2 -12.667 6.66699 -24.5 14 -35.5s16.666 -18.167 27.999 -21.5l103 -32l-13 -58h-491
l12 58l171 42l-68 408h-506l-239 -403l171 -47zM585.001 1568l-67.998 -0.000976562c8.66699 31.333 21 60.833 37 88.5s34.667 52 56 73s44.666 37.833 69.999 50.5s51 19 77 19c24 0 46.667 -4.83301 68 -14.5s42.166 -20.167 62.499 -31.5s40.5 -21.666 60.5 -30.999
s41 -14 63 -14c14 0 27.167 2.66699 39.5 8s23.166 12.666 32.499 21.999s17.5 20.333 24.5 33s13.167 26.667 18.5 42h69c-8.66699 -30.667 -20.667 -59.834 -36 -87.501s-33.333 -52.167 -54 -73.5s-43.167 -38.166 -67.5 -50.499s-50.166 -18.5 -77.499 -18.5
c-24 0 -46.333 4.83301 -67 14.5s-41 20.334 -61 32.001s-40.167 22.334 -60.5 32.001s-41.833 14.5 -64.5 14.5c-28.667 0 -53.667 -10.333 -75 -31s-37 -46.334 -47 -77.001z" />
    <glyph glyph-name="Adieresis" unicode="&#xc4;" horiz-adv-x="1312" 
d="M748 1165l-334 -562h433l-72 423l-16 107zM277 0l-420.999 -0.000976562l12 58l88 33c13.333 4.66699 26.333 12.334 39 23.001s22.667 22 30 34l631 1040l171 233h67l213 -1274c2 -12.667 6.66699 -24.5 14 -35.5s16.666 -18.167 27.999 -21.5l103 -32l-13 -58h-491
l12 58l171 42l-68 408h-506l-239 -403l171 -47zM647.001 1573c-15.333 0 -29.834 2.83008 -43.501 8.49707s-25.5 13.334 -35.5 23.001s-18 21.167 -24 34.5s-9 28.333 -9 45c0 16 2.83301 30.833 8.5 44.5s13.667 25.5 24 35.5s22.333 17.667 36 23s28.167 8 43.5 8
c16.667 0 32.167 -2.66699 46.5 -8s26.833 -12.666 37.5 -21.999s18.834 -20.666 24.501 -33.999s8.5 -28 8.5 -44c0 -16.667 -3 -32 -9 -46s-14.333 -26 -25 -36s-23 -17.833 -37 -23.5s-29.333 -8.5 -46 -8.5zM1061 1573c-15.333 0 -29.8311 2.83008 -43.498 8.49707
s-25.667 13.334 -36 23.001s-18.5 21.167 -24.5 34.5s-9 28.333 -9 45c0 16 3 30.833 9 44.5s14.167 25.5 24.5 35.5s22.166 17.667 35.499 23s28 8 44 8c16.667 0 32.167 -2.66699 46.5 -8s26.666 -12.666 36.999 -21.999s18.5 -20.666 24.5 -33.999s9 -28 9 -44
c0 -16.667 -3 -32 -9 -46s-14.333 -26 -25 -36s-23.167 -17.833 -37.5 -23.5s-29.5 -8.5 -45.5 -8.5z" />
    <glyph glyph-name="Aring" unicode="&#xc5;" horiz-adv-x="1312" 
d="M748 1165l-334 -562h433l-72 423l-16 107zM277 0l-420.999 -0.000976562l12 58l88 33c13.333 4.66699 26.333 12.334 39 23.001s22.667 22 30 34l631 1040l171 233h67l213 -1274c2 -12.667 6.66699 -24.5 14 -35.5s16.666 -18.167 27.999 -21.5l103 -32l-13 -58h-491
l12 58l171 42l-68 408h-506l-239 -403l171 -47zM910.001 1578c20 0 38.332 4.50195 54.999 13.502s31 21.5 43 37.5s21.333 34.833 28 56.5s10 45.167 10 70.5c0 37.333 -8.66699 67.333 -26 90s-41.666 34 -72.999 34c-23.333 0 -43.833 -4.83301 -61.5 -14.5
s-32.5 -22.834 -44.5 -39.501s-21 -35.834 -27 -57.501s-9 -44.167 -9 -67.5c0 -38 9.5 -68 28.5 -90s44.5 -33 76.5 -33zM886 1517c-29.333 0 -55.8359 3.83105 -79.5029 11.498s-44 18.667 -61 33s-30.167 31.833 -39.5 52.5s-14 44.667 -14 72
c0 36.667 6.83301 70.5 20.5 101.5s32.5 57.833 56.5 80.5s53 40.334 87 53.001s71.333 19 112 19c28.667 0 54.667 -3.66699 78 -11s43.333 -18 60 -32s29.5 -31.5 38.5 -52.5s13.5 -44.5 13.5 -70.5c0 -37.333 -6.66699 -71.666 -20 -102.999s-32.166 -58.333 -56.499 -81
s-53.166 -40.5 -86.499 -53.5s-69.666 -19.5 -108.999 -19.5z" />
    <glyph glyph-name="AE" unicode="&#xc6;" horiz-adv-x="2053" 
d="M1146 1313l-493 -580h418l129 580h-54zM278 0l-435.002 -0.00390625l13 58l96 33c14 4.66699 28.5 12.334 43.5 23.001s27.833 22 38.5 34l842 991c6.66699 8.66699 15.334 19.334 26.001 32.001s20.834 25.334 30.501 38.001s18 25 25 37s10.5 21.667 10.5 29
c0 10 -3.33301 17.167 -10 21.5s-15.334 7.83301 -26.001 10.5l-141 36l12 57h1269l-75 -336h-80l-8 157c-0.666992 8.66699 -1.5 18.167 -2.5 28.5s-3 19.666 -6 27.999s-6.83301 15.333 -11.5 21s-10.667 8.5 -18 8.5h-485l-128 -574h258
c16.667 0 30.834 0.333008 42.501 1s21.667 2.33398 30 5.00098s15.666 6.83398 21.999 12.501s11.833 13.167 16.5 22.5l81 154h67l-105 -469h-67l-16 147c-1.33301 11.333 -4.16602 20.166 -8.49902 26.499s-13.166 9.5 -26.499 9.5h-315l-120 -548h588
c11.333 0 21.166 3.33301 29.499 10s14.833 15.334 19.5 26.001l109 233h80l-82 -363h-1122l13 58l134 35c14 4 25.833 10.667 35.5 20s16.167 21.333 19.5 36l110 493h-476l-446 -537l162 -47z" />
    <glyph glyph-name="Ccedilla" unicode="&#xc7;" horiz-adv-x="1275" 
d="M577 -463c-40.667 0 -76.6689 4.99902 -108.002 14.999s-58.666 20.667 -81.999 32l18 80h21c16.667 -11.333 38.167 -22.5 64.5 -33.5s56.5 -16.5 90.5 -16.5c22 0 41.5 3 58.5 9s31.167 14.333 42.5 25s19.666 22.834 24.999 36.501s8 28.167 8 43.5
c0 26.667 -11.667 45.167 -35 55.5s-62 15.833 -116 16.5l51 173c-80.667 6.66699 -153.167 25.334 -217.5 56.001s-118.833 71.5 -163.5 122.5s-78.834 111.333 -102.501 181s-35.5 146.834 -35.5 231.501c0 77.333 9.16699 152.5 27.5 225.5s44 141.5 77 205.5
s73 122.667 120 176s98.833 99.166 155.5 137.499s117.834 68.166 183.501 89.499s133.834 32 204.501 32c38.667 0 79 -2.5 121 -7.5s83 -11.5 123 -19.5s77.833 -16.833 113.5 -26.5s65.834 -19.167 90.501 -28.5l-67 -337h-78l-11 187
c-1.33301 5.33301 -3 10.166 -5 14.499s-4.66699 8.33301 -8 12s-7 7 -11 10s-8 5.5 -12 7.5c-18.667 12.667 -39 24.334 -61 35.001s-45.5 20.167 -70.5 28.5s-51.5 14.833 -79.5 19.5s-57.667 7 -89 7c-51.333 0 -99.833 -8.83301 -145.5 -26.5
s-87.834 -42.5 -126.501 -74.5s-73 -70.5 -103 -115.5s-55.667 -95 -77 -150s-37.666 -114 -48.999 -177s-17 -128.833 -17 -197.5c0 -160 36.667 -282 110 -366s184 -126 332 -126c48.667 0 94.167 6.66699 136.5 20s81.333 29.833 117 49.5s68 40.5 97 62.5l75.5 58h31
l-26 -106c-28.667 -24.667 -61 -49.334 -97 -74.001s-74.833 -47 -116.5 -67s-85.167 -36.5 -130.5 -49.5s-91.666 -19.833 -138.999 -20.5c-2 -0.666992 -3.83301 -1 -5.5 -1h-5.5l-25 -86c25.333 0 49.666 -2.5 72.999 -7.5s44 -12.667 62 -23s32.167 -24 42.5 -41
s15.5 -37.5 15.5 -61.5c0 -33.333 -7 -63.166 -21 -89.499s-33.333 -48.833 -58 -67.5s-53.5 -33 -86.5 -43s-68.5 -15 -106.5 -15z" />
    <glyph glyph-name="Egrave" unicode="&#xc8;" horiz-adv-x="1278" 
d="M1086 0h-1123l14 58l132 35c14 4 26.167 10.667 36.5 20s17.166 21.333 20.499 36l244 1103c3.33301 14.667 2 26.667 -4 36s-14.667 15.666 -26 18.999l-143 36l14 57h1046l-75 -336h-80l-14 207c0 10.667 -2.66699 19.334 -8 26.001s-13.666 10 -24.999 10h-485
l-117 -531h313c14 0 24.5 3 31.5 9s13.167 14.333 18.5 25l86 161h67l-108 -485h-67l-15 160c-0.666992 11.333 -3.16699 20.166 -7.5 26.499s-13.5 9.5 -27.5 9.5h-313l-130 -588h588c11.333 0 21.166 3.33301 29.499 10s15.166 15.334 20.499 26.001l108 233h80z
M998.002 1546l-46.0029 -34.001l-282 231c-10 8.66699 -18.667 16.5 -26 23.5s-13.666 13.833 -18.999 20.5s-9.33301 13.667 -12 21s-4.66699 16 -6 26c-2 7.33301 -2.83301 14.5 -2.5 21.5s1.83301 14.167 4.5 21.5c2 6.66699 5.33301 13.167 10 19.5
s10.167 11.833 16.5 16.5s13.333 8.33398 21 11.001s15.834 4 24.501 4c12.667 0 24 -1.33301 34 -4s19.833 -7 29.5 -13s19.334 -14.333 29.001 -25s20.167 -24.667 31.5 -42z" />
    <glyph glyph-name="Eacute" unicode="&#xc9;" horiz-adv-x="1278" 
d="M1086 0h-1123l14 58l132 35c14 4 26.167 10.667 36.5 20s17.166 21.333 20.499 36l244 1103c3.33301 14.667 2 26.667 -4 36s-14.667 15.666 -26 18.999l-143 36l14 57h1046l-75 -336h-80l-14 207c0 10.667 -2.66699 19.334 -8 26.001s-13.666 10 -24.999 10h-485
l-117 -531h313c14 0 24.5 3 31.5 9s13.167 14.333 18.5 25l86 161h67l-108 -485h-67l-15 160c-0.666992 11.333 -3.16699 20.166 -7.5 26.499s-13.5 9.5 -27.5 9.5h-313l-130 -588h588c11.333 0 21.166 3.33301 29.499 10s15.166 15.334 20.499 26.001l108 233h80z
M752.002 1512l-39.999 34.002l93.5 130l71.5 99c20.667 28 39 51.667 55 71s31.167 35.166 45.5 47.499s28.166 21.166 41.499 26.499s27.666 8 42.999 8c22.667 0 40.667 -7.16699 54 -21.5s20 -30.833 20 -49.5c0 -12.667 -1.66699 -23.667 -5 -33
s-8.16602 -18.333 -14.499 -27s-14.333 -17.167 -24 -25.5l-33.5 -28.5z" />
    <glyph glyph-name="Ecircumflex" unicode="&#xca;" horiz-adv-x="1278" 
d="M1086 0h-1123l14 58l132 35c14 4 26.167 10.667 36.5 20s17.166 21.333 20.499 36l244 1103c3.33301 14.667 2 26.667 -4 36s-14.667 15.666 -26 18.999l-143 36l14 57h1046l-75 -336h-80l-14 207c0 10.667 -2.66699 19.334 -8 26.001s-13.666 10 -24.999 10h-485
l-117 -531h313c14 0 24.5 3 31.5 9s13.167 14.333 18.5 25l86 161h67l-108 -485h-67l-15 160c-0.666992 11.333 -3.16699 20.166 -7.5 26.499s-13.5 9.5 -27.5 9.5h-313l-130 -588h588c11.333 0 21.166 3.33301 29.499 10s15.166 15.334 20.499 26.001l108 233h80z
M874.002 1769l-311.999 -252.999l-39 28l248 297c10 12.667 19.667 24.167 29 34.5s19 19.166 29 26.499s20.167 13.166 30.5 17.499s21.833 6.5 34.5 6.5c25.333 0 45.166 -7.66699 59.499 -23s27.5 -35.666 39.5 -60.999l143 -298l-49 -28z" />
    <glyph glyph-name="Edieresis" unicode="&#xcb;" horiz-adv-x="1278" 
d="M1086 0h-1123l14 58l132 35c14 4 26.167 10.667 36.5 20s17.166 21.333 20.499 36l244 1103c3.33301 14.667 2 26.667 -4 36s-14.667 15.666 -26 18.999l-143 36l14 57h1046l-75 -336h-80l-14 207c0 10.667 -2.66699 19.334 -8 26.001s-13.666 10 -24.999 10h-485
l-117 -531h313c14 0 24.5 3 31.5 9s13.167 14.333 18.5 25l86 161h67l-108 -485h-67l-15 160c-0.666992 11.333 -3.16699 20.166 -7.5 26.499s-13.5 9.5 -27.5 9.5h-313l-130 -588h588c11.333 0 21.166 3.33301 29.499 10s15.166 15.334 20.499 26.001l108 233h80z
M632.002 1573c-15.333 0 -29.834 2.83008 -43.501 8.49707s-25.5 13.334 -35.5 23.001s-18 21.167 -24 34.5s-9 28.333 -9 45c0 16 2.83301 30.833 8.5 44.5s13.667 25.5 24 35.5s22.333 17.667 36 23s28.167 8 43.5 8c16.667 0 32.167 -2.66699 46.5 -8
s26.833 -12.666 37.5 -21.999s18.834 -20.666 24.501 -33.999s8.5 -28 8.5 -44c0 -16.667 -3 -32 -9 -46s-14.333 -26 -25 -36s-23 -17.833 -37 -23.5s-29.333 -8.5 -46 -8.5zM1046 1573c-15.333 0 -29.8311 2.83008 -43.498 8.49707s-25.667 13.334 -36 23.001
s-18.5 21.167 -24.5 34.5s-9 28.333 -9 45c0 16 3 30.833 9 44.5s14.167 25.5 24.5 35.5s22.166 17.667 35.499 23s28 8 44 8c16.667 0 32.167 -2.66699 46.5 -8s26.666 -12.666 36.999 -21.999s18.5 -20.666 24.5 -33.999s9 -28 9 -44c0 -16.667 -3 -32 -9 -46
s-14.333 -26 -25 -36s-23.167 -17.833 -37.5 -23.5s-29.5 -8.5 -45.5 -8.5z" />
    <glyph glyph-name="Igrave" unicode="&#xcc;" horiz-adv-x="710" 
d="M521 0l-554.998 0.00195312l13 58l136 35c13.333 4 25.166 10.667 35.499 20s17.166 21.333 20.499 36l244 1103c3.33301 14.667 2.16602 26.667 -3.50098 36s-14.5 15.666 -26.5 18.999l-145 36l13 57h555l-13 -57l-117 -30c-8.66699 -2.66699 -17 -5.66699 -25 -9
s-15.167 -7.5 -21.5 -12.5s-12.166 -10.833 -17.499 -17.5s-9 -14 -11 -22l-244 -1103c-3.33301 -14.667 -2 -26.834 4 -36.501s15 -16.167 27 -19.5l145 -35zM743.002 1546l-46.0029 -34.001l-282 231c-10 8.66699 -18.667 16.5 -26 23.5s-13.666 13.833 -18.999 20.5
s-9.33301 13.667 -12 21s-4.66699 16 -6 26c-2 7.33301 -2.83301 14.5 -2.5 21.5s1.83301 14.167 4.5 21.5c2 6.66699 5.33301 13.167 10 19.5s10.167 11.833 16.5 16.5s13.333 8.33398 21 11.001s15.834 4 24.501 4c12.667 0 24 -1.33301 34 -4s19.833 -7 29.5 -13
s19.334 -14.333 29.001 -25s20.167 -24.667 31.5 -42z" />
    <glyph glyph-name="Iacute" unicode="&#xcd;" horiz-adv-x="710" 
d="M521 0l-554.998 0.00195312l13 58l136 35c13.333 4 25.166 10.667 35.499 20s17.166 21.333 20.499 36l244 1103c3.33301 14.667 2.16602 26.667 -3.50098 36s-14.5 15.666 -26.5 18.999l-145 36l13 57h555l-13 -57l-117 -30c-8.66699 -2.66699 -17 -5.66699 -25 -9
s-15.167 -7.5 -21.5 -12.5s-12.166 -10.833 -17.499 -17.5s-9 -14 -11 -22l-244 -1103c-3.33301 -14.667 -2 -26.834 4 -36.501s15 -16.167 27 -19.5l145 -35zM413.002 1512l-39.999 34.002l93.5 130l71.5 99c20.667 28 39 51.667 55 71s31.167 35.166 45.5 47.499
s28.166 21.166 41.499 26.499s27.666 8 42.999 8c22.667 0 40.667 -7.16699 54 -21.5s20 -30.833 20 -49.5c0 -12.667 -1.66699 -23.667 -5 -33s-8.16602 -18.333 -14.499 -27s-14.333 -17.167 -24 -25.5l-33.5 -28.5z" />
    <glyph glyph-name="Icircumflex" unicode="&#xce;" horiz-adv-x="710" 
d="M521 0l-554.998 0.00195312l13 58l136 35c13.333 4 25.166 10.667 35.499 20s17.166 21.333 20.499 36l244 1103c3.33301 14.667 2.16602 26.667 -3.50098 36s-14.5 15.666 -26.5 18.999l-145 36l13 57h555l-13 -57l-117 -30c-8.66699 -2.66699 -17 -5.66699 -25 -9
s-15.167 -7.5 -21.5 -12.5s-12.166 -10.833 -17.499 -17.5s-9 -14 -11 -22l-244 -1103c-3.33301 -14.667 -2 -26.834 4 -36.501s15 -16.167 27 -19.5l145 -35zM585.002 1769l-311.999 -252.999l-39 28l248 297c10 12.667 19.667 24.167 29 34.5s19 19.166 29 26.499
s20.167 13.166 30.5 17.499s21.833 6.5 34.5 6.5c25.333 0 45.166 -7.66699 59.499 -23s27.5 -35.666 39.5 -60.999l143 -298l-49 -28z" />
    <glyph glyph-name="Idieresis" unicode="&#xcf;" horiz-adv-x="710" 
d="M521 0l-554.998 0.00195312l13 58l136 35c13.333 4 25.166 10.667 35.499 20s17.166 21.333 20.499 36l244 1103c3.33301 14.667 2.16602 26.667 -3.50098 36s-14.5 15.666 -26.5 18.999l-145 36l13 57h555l-13 -57l-117 -30c-8.66699 -2.66699 -17 -5.66699 -25 -9
s-15.167 -7.5 -21.5 -12.5s-12.166 -10.833 -17.499 -17.5s-9 -14 -11 -22l-244 -1103c-3.33301 -14.667 -2 -26.834 4 -36.501s15 -16.167 27 -19.5l145 -35zM361.002 1573c-15.333 0 -29.834 2.83008 -43.501 8.49707s-25.5 13.334 -35.5 23.001s-18 21.167 -24 34.5
s-9 28.333 -9 45c0 16 2.83301 30.833 8.5 44.5s13.667 25.5 24 35.5s22.333 17.667 36 23s28.167 8 43.5 8c16.667 0 32.167 -2.66699 46.5 -8s26.833 -12.666 37.5 -21.999s18.834 -20.666 24.501 -33.999s8.5 -28 8.5 -44c0 -16.667 -3 -32 -9 -46s-14.333 -26 -25 -36
s-23 -17.833 -37 -23.5s-29.333 -8.5 -46 -8.5zM775.001 1573c-15.333 0 -29.8311 2.83008 -43.498 8.49707s-25.667 13.334 -36 23.001s-18.5 21.167 -24.5 34.5s-9 28.333 -9 45c0 16 3 30.833 9 44.5s14.167 25.5 24.5 35.5s22.166 17.667 35.499 23s28 8 44 8
c16.667 0 32.167 -2.66699 46.5 -8s26.666 -12.666 36.999 -21.999s18.5 -20.666 24.5 -33.999s9 -28 9 -44c0 -16.667 -3 -32 -9 -46s-14.333 -26 -25 -36s-23.167 -17.833 -37.5 -23.5s-29.5 -8.5 -45.5 -8.5z" />
    <glyph glyph-name="Eth" unicode="&#xd0;" horiz-adv-x="1454" 
d="M-39 0l12.999 58.001l136 35c12.667 3.33301 24.334 9.83301 35.001 19.5s17.667 21.834 21 36.501l118 533h-170l20 93h170l106 477c3.33301 14.667 2 26.667 -4 36s-14.667 15.666 -26 18.999l-143 36l14 57h578c42 0 85.833 -3.66699 131.5 -11
s90.5 -19.5 134.5 -36.5s85.833 -39.167 125.5 -66.5s74.667 -61.5 105 -102.5s54.333 -89.333 72 -145s26.5 -119.834 26.5 -192.501c0 -94 -10.167 -180 -30.5 -258s-48.833 -148.5 -85.5 -211.5s-80.5 -118 -131.5 -165s-107.167 -86.167 -168.5 -117.5
s-126.833 -54.833 -196.5 -70.5s-141.167 -23.5 -214.5 -23.5h-636zM610.999 1309l-118.998 -534.001h327l-20 -93h-328l-130 -590h286c92.667 0 175.5 17.833 248.5 53.5s134.667 85.5 185 149.5s88.833 140.333 115.5 229s40 186 40 292c0 76 -10.167 144.5 -30.5 205.5
s-49.833 112.833 -88.5 155.5s-85.834 75.334 -141.501 98.001s-118.834 34 -189.501 34h-155z" />
    <glyph glyph-name="Ntilde" unicode="&#xd1;" horiz-adv-x="1531" 
d="M1144 -10h-74.999l-496 1060l-65 151h-6l-232 -1046c-2 -8 -2.5 -15 -1.5 -21s3 -11.167 6 -15.5s6.83301 -8 11.5 -11s9.66699 -5.5 15 -7.5l139 -42l-13 -58h-464l14 58l135 42c13.333 4 25 10.667 35 20s16.667 21 20 35l243 1094c3.33301 14.667 2 26.5 -4 35.5
s-15.333 15.5 -28 19.5l-149 39l12 57h366l458 -982l60 -138h6l216 966c3.33301 13.333 1.83301 24.833 -4.5 34.5s-15.5 16.167 -27.5 19.5l-140 43l12 57h466l-12 -57l-135 -43c-12.667 -4 -24.334 -10.5 -35.001 -19.5s-17.667 -20.5 -21 -34.5l-225 -1020zM743.001 1568
l-67.998 -0.000976562c8.66699 31.333 21 60.833 37 88.5s34.667 52 56 73s44.666 37.833 69.999 50.5s51 19 77 19c24 0 46.667 -4.83301 68 -14.5s42.166 -20.167 62.499 -31.5s40.5 -21.666 60.5 -30.999s41 -14 63 -14c14 0 27.167 2.66699 39.5 8
s23.166 12.666 32.499 21.999s17.5 20.333 24.5 33s13.167 26.667 18.5 42h69c-8.66699 -30.667 -20.667 -59.834 -36 -87.501s-33.333 -52.167 -54 -73.5s-43.167 -38.166 -67.5 -50.499s-50.166 -18.5 -77.499 -18.5c-24 0 -46.333 4.83301 -67 14.5
s-41 20.334 -61 32.001s-40.167 22.334 -60.5 32.001s-41.833 14.5 -64.5 14.5c-28.667 0 -53.667 -10.333 -75 -31s-37 -46.334 -47 -77.001z" />
    <glyph glyph-name="Ograve" unicode="&#xd2;" horiz-adv-x="1476" 
d="M653 -31c-90.667 0 -170.666 12.998 -239.999 38.998s-127.333 63.167 -174 111.5s-82 106.666 -106 174.999s-36 144.833 -36 229.5c0 74.667 8 149 24 223s39.5 144.5 70.5 211.5s69.167 129.333 114.5 187s97.333 107.667 156 150s123.667 75.5 195 99.5
s148.666 36 231.999 36c96 0 179 -14 249 -42s127.833 -66.833 173.5 -116.5s79.5 -108 101.5 -175s33 -140.167 33 -219.5c0 -66 -7 -134.333 -21 -205s-35.5 -139.667 -64.5 -207s-65.167 -131.166 -108.5 -191.499s-94.333 -113.166 -153 -158.499
s-125.167 -81.166 -199.5 -107.499s-156.5 -39.5 -246.5 -39.5zM677.001 57.998c62 0 118.998 11.8311 170.998 35.498s98.833 56 140.5 97s78.167 88.667 109.5 143s57.333 112.5 78 174.5s36.334 126.167 47.001 192.5s16 131.166 16 194.499
c0 71.333 -8.16699 134.833 -24.5 190.5s-40.5 102.5 -72.5 140.5s-71.5 66.833 -118.5 86.5s-101.167 29.5 -162.5 29.5c-64.667 0 -123.5 -12.5 -176.5 -37.5s-100 -58.667 -141 -101s-76.667 -91.5 -107 -147.5s-55.166 -115 -74.499 -177s-33.833 -125 -43.5 -189
s-14.5 -125 -14.5 -183c0 -67.333 7.5 -128.666 22.5 -183.999s37.833 -102.666 68.5 -141.999s69.5 -69.666 116.5 -90.999s102.167 -32 165.5 -32zM1098 1546l-46.0029 -34.001l-282 231c-10 8.66699 -18.667 16.5 -26 23.5s-13.666 13.833 -18.999 20.5
s-9.33301 13.667 -12 21s-4.66699 16 -6 26c-2 7.33301 -2.83301 14.5 -2.5 21.5s1.83301 14.167 4.5 21.5c2 6.66699 5.33301 13.167 10 19.5s10.167 11.833 16.5 16.5s13.333 8.33398 21 11.001s15.834 4 24.501 4c12.667 0 24 -1.33301 34 -4s19.833 -7 29.5 -13
s19.334 -14.333 29.001 -25s20.167 -24.667 31.5 -42z" />
    <glyph glyph-name="Oacute" unicode="&#xd3;" horiz-adv-x="1476" 
d="M653 -31c-90.667 0 -170.666 12.998 -239.999 38.998s-127.333 63.167 -174 111.5s-82 106.666 -106 174.999s-36 144.833 -36 229.5c0 74.667 8 149 24 223s39.5 144.5 70.5 211.5s69.167 129.333 114.5 187s97.333 107.667 156 150s123.667 75.5 195 99.5
s148.666 36 231.999 36c96 0 179 -14 249 -42s127.833 -66.833 173.5 -116.5s79.5 -108 101.5 -175s33 -140.167 33 -219.5c0 -66 -7 -134.333 -21 -205s-35.5 -139.667 -64.5 -207s-65.167 -131.166 -108.5 -191.499s-94.333 -113.166 -153 -158.499
s-125.167 -81.166 -199.5 -107.499s-156.5 -39.5 -246.5 -39.5zM677.001 57.998c62 0 118.998 11.8311 170.998 35.498s98.833 56 140.5 97s78.167 88.667 109.5 143s57.333 112.5 78 174.5s36.334 126.167 47.001 192.5s16 131.166 16 194.499
c0 71.333 -8.16699 134.833 -24.5 190.5s-40.5 102.5 -72.5 140.5s-71.5 66.833 -118.5 86.5s-101.167 29.5 -162.5 29.5c-64.667 0 -123.5 -12.5 -176.5 -37.5s-100 -58.667 -141 -101s-76.667 -91.5 -107 -147.5s-55.166 -115 -74.499 -177s-33.833 -125 -43.5 -189
s-14.5 -125 -14.5 -183c0 -67.333 7.5 -128.666 22.5 -183.999s37.833 -102.666 68.5 -141.999s69.5 -69.666 116.5 -90.999s102.167 -32 165.5 -32zM776.999 1512l-39.999 34.002l93.5 130l71.5 99c20.667 28 39 51.667 55 71s31.167 35.166 45.5 47.499
s28.166 21.166 41.499 26.499s27.666 8 42.999 8c22.667 0 40.667 -7.16699 54 -21.5s20 -30.833 20 -49.5c0 -12.667 -1.66699 -23.667 -5 -33s-8.16602 -18.333 -14.499 -27s-14.333 -17.167 -24 -25.5l-33.5 -28.5z" />
    <glyph glyph-name="Ocircumflex" unicode="&#xd4;" horiz-adv-x="1476" 
d="M653 -31c-90.667 0 -170.666 12.998 -239.999 38.998s-127.333 63.167 -174 111.5s-82 106.666 -106 174.999s-36 144.833 -36 229.5c0 74.667 8 149 24 223s39.5 144.5 70.5 211.5s69.167 129.333 114.5 187s97.333 107.667 156 150s123.667 75.5 195 99.5
s148.666 36 231.999 36c96 0 179 -14 249 -42s127.833 -66.833 173.5 -116.5s79.5 -108 101.5 -175s33 -140.167 33 -219.5c0 -66 -7 -134.333 -21 -205s-35.5 -139.667 -64.5 -207s-65.167 -131.166 -108.5 -191.499s-94.333 -113.166 -153 -158.499
s-125.167 -81.166 -199.5 -107.499s-156.5 -39.5 -246.5 -39.5zM677.001 57.998c62 0 118.998 11.8311 170.998 35.498s98.833 56 140.5 97s78.167 88.667 109.5 143s57.333 112.5 78 174.5s36.334 126.167 47.001 192.5s16 131.166 16 194.499
c0 71.333 -8.16699 134.833 -24.5 190.5s-40.5 102.5 -72.5 140.5s-71.5 66.833 -118.5 86.5s-101.167 29.5 -162.5 29.5c-64.667 0 -123.5 -12.5 -176.5 -37.5s-100 -58.667 -141 -101s-76.667 -91.5 -107 -147.5s-55.166 -115 -74.499 -177s-33.833 -125 -43.5 -189
s-14.5 -125 -14.5 -183c0 -67.333 7.5 -128.666 22.5 -183.999s37.833 -102.666 68.5 -141.999s69.5 -69.666 116.5 -90.999s102.167 -32 165.5 -32zM946.999 1769l-311.999 -252.999l-39 28l248 297c10 12.667 19.667 24.167 29 34.5s19 19.166 29 26.499
s20.167 13.166 30.5 17.499s21.833 6.5 34.5 6.5c25.333 0 45.166 -7.66699 59.499 -23s27.5 -35.666 39.5 -60.999l143 -298l-49 -28z" />
    <glyph glyph-name="Otilde" unicode="&#xd5;" horiz-adv-x="1476" 
d="M653 -31c-90.667 0 -170.666 12.998 -239.999 38.998s-127.333 63.167 -174 111.5s-82 106.666 -106 174.999s-36 144.833 -36 229.5c0 74.667 8 149 24 223s39.5 144.5 70.5 211.5s69.167 129.333 114.5 187s97.333 107.667 156 150s123.667 75.5 195 99.5
s148.666 36 231.999 36c96 0 179 -14 249 -42s127.833 -66.833 173.5 -116.5s79.5 -108 101.5 -175s33 -140.167 33 -219.5c0 -66 -7 -134.333 -21 -205s-35.5 -139.667 -64.5 -207s-65.167 -131.166 -108.5 -191.499s-94.333 -113.166 -153 -158.499
s-125.167 -81.166 -199.5 -107.499s-156.5 -39.5 -246.5 -39.5zM677.001 57.998c62 0 118.998 11.8311 170.998 35.498s98.833 56 140.5 97s78.167 88.667 109.5 143s57.333 112.5 78 174.5s36.334 126.167 47.001 192.5s16 131.166 16 194.499
c0 71.333 -8.16699 134.833 -24.5 190.5s-40.5 102.5 -72.5 140.5s-71.5 66.833 -118.5 86.5s-101.167 29.5 -162.5 29.5c-64.667 0 -123.5 -12.5 -176.5 -37.5s-100 -58.667 -141 -101s-76.667 -91.5 -107 -147.5s-55.166 -115 -74.499 -177s-33.833 -125 -43.5 -189
s-14.5 -125 -14.5 -183c0 -67.333 7.5 -128.666 22.5 -183.999s37.833 -102.666 68.5 -141.999s69.5 -69.666 116.5 -90.999s102.167 -32 165.5 -32zM661.999 1568l-67.998 -0.000976562c8.66699 31.333 21 60.833 37 88.5s34.667 52 56 73s44.666 37.833 69.999 50.5
s51 19 77 19c24 0 46.667 -4.83301 68 -14.5s42.166 -20.167 62.499 -31.5s40.5 -21.666 60.5 -30.999s41 -14 63 -14c14 0 27.167 2.66699 39.5 8s23.166 12.666 32.499 21.999s17.5 20.333 24.5 33s13.167 26.667 18.5 42h69
c-8.66699 -30.667 -20.667 -59.834 -36 -87.501s-33.333 -52.167 -54 -73.5s-43.167 -38.166 -67.5 -50.499s-50.166 -18.5 -77.499 -18.5c-24 0 -46.333 4.83301 -67 14.5s-41 20.334 -61 32.001s-40.167 22.334 -60.5 32.001s-41.833 14.5 -64.5 14.5
c-28.667 0 -53.667 -10.333 -75 -31s-37 -46.334 -47 -77.001z" />
    <glyph glyph-name="Odieresis" unicode="&#xd6;" horiz-adv-x="1476" 
d="M653 -31c-90.667 0 -170.666 12.998 -239.999 38.998s-127.333 63.167 -174 111.5s-82 106.666 -106 174.999s-36 144.833 -36 229.5c0 74.667 8 149 24 223s39.5 144.5 70.5 211.5s69.167 129.333 114.5 187s97.333 107.667 156 150s123.667 75.5 195 99.5
s148.666 36 231.999 36c96 0 179 -14 249 -42s127.833 -66.833 173.5 -116.5s79.5 -108 101.5 -175s33 -140.167 33 -219.5c0 -66 -7 -134.333 -21 -205s-35.5 -139.667 -64.5 -207s-65.167 -131.166 -108.5 -191.499s-94.333 -113.166 -153 -158.499
s-125.167 -81.166 -199.5 -107.499s-156.5 -39.5 -246.5 -39.5zM677.001 57.998c62 0 118.998 11.8311 170.998 35.498s98.833 56 140.5 97s78.167 88.667 109.5 143s57.333 112.5 78 174.5s36.334 126.167 47.001 192.5s16 131.166 16 194.499
c0 71.333 -8.16699 134.833 -24.5 190.5s-40.5 102.5 -72.5 140.5s-71.5 66.833 -118.5 86.5s-101.167 29.5 -162.5 29.5c-64.667 0 -123.5 -12.5 -176.5 -37.5s-100 -58.667 -141 -101s-76.667 -91.5 -107 -147.5s-55.166 -115 -74.499 -177s-33.833 -125 -43.5 -189
s-14.5 -125 -14.5 -183c0 -67.333 7.5 -128.666 22.5 -183.999s37.833 -102.666 68.5 -141.999s69.5 -69.666 116.5 -90.999s102.167 -32 165.5 -32zM725.999 1573c-15.333 0 -29.834 2.83008 -43.501 8.49707s-25.5 13.334 -35.5 23.001s-18 21.167 -24 34.5
s-9 28.333 -9 45c0 16 2.83301 30.833 8.5 44.5s13.667 25.5 24 35.5s22.333 17.667 36 23s28.167 8 43.5 8c16.667 0 32.167 -2.66699 46.5 -8s26.833 -12.666 37.5 -21.999s18.834 -20.666 24.501 -33.999s8.5 -28 8.5 -44c0 -16.667 -3 -32 -9 -46s-14.333 -26 -25 -36
s-23 -17.833 -37 -23.5s-29.333 -8.5 -46 -8.5zM1140 1572.99c-15.333 0 -29.8311 2.83008 -43.498 8.49707s-25.667 13.334 -36 23.001s-18.5 21.167 -24.5 34.5s-9 28.333 -9 45c0 16 3 30.833 9 44.5s14.167 25.5 24.5 35.5s22.166 17.667 35.499 23s28 8 44 8
c16.667 0 32.167 -2.66699 46.5 -8s26.666 -12.666 36.999 -21.999s18.5 -20.666 24.5 -33.999s9 -28 9 -44c0 -16.667 -3 -32 -9 -46s-14.333 -26 -25 -36s-23.167 -17.833 -37.5 -23.5s-29.5 -8.5 -45.5 -8.5z" />
    <glyph glyph-name="multiply" unicode="&#xd7;" horiz-adv-x="1414" 
d="M730 493l-372 -374l-82 84l373 371l-373 370l82 85l373 -374l370 373l82 -84l-373 -370l372 -371l-82 -83z" />
    <glyph glyph-name="Oslash" unicode="&#xd8;" horiz-adv-x="1476" 
d="M677 58c62.667 0 119.998 11.5 171.998 34.5s99 54.5 141 94.5s78.833 86.833 110.5 140.5s58 111.5 79 173.5s36.833 126.5 47.5 193.5s16 133.833 16 200.5c0 50.667 -3.83301 97 -11.5 139s-19.167 80.333 -34.5 115l-809 -963c30.667 -41.333 69.834 -73 117.501 -95
s104.834 -33 171.501 -33zM1154 1215c-32.667 42.667 -73.166 74.5 -121.499 95.5s-105.5 31.5 -171.5 31.5c-64.667 0 -123.5 -12.167 -176.5 -36.5s-100.333 -57.166 -142 -98.499s-77.667 -89.5 -108 -144.5s-55.5 -113.5 -75.5 -175.5s-34.833 -125.5 -44.5 -190.5
s-14.5 -128.167 -14.5 -189.5c0 -49.333 3.66699 -95.333 11 -138s18.666 -81.334 33.999 -116.001zM134.999 -114l-103.998 -0.00292969l206 243c-46.667 49.333 -81.667 107.5 -105 174.5s-35 140.5 -35 220.5c0 74.667 8 149 24 223s39.5 144.5 70.5 211.5
s69.167 129.333 114.5 187s97.333 107.667 156 150s123.667 75.5 195 99.5s148.666 36 231.999 36c76.667 0 144 -9.33301 202 -28s109.667 -44.667 155 -78l127 152h104l-172 -204c47.333 -50.667 82.666 -109.667 105.999 -177s35 -140 35 -218
c0 -66 -7 -134.333 -21 -205s-35.5 -139.667 -64.5 -207s-65.167 -131.166 -108.5 -191.499s-94.333 -113.166 -153 -158.499s-125.167 -81.166 -199.5 -107.499s-156.5 -39.5 -246.5 -39.5c-74 0 -140.5 9.16699 -199.5 27.5s-111.5 45.5 -157.5 81.5z" />
    <glyph glyph-name="Ugrave" unicode="&#xd9;" horiz-adv-x="1490" 
d="M643 -32c-76.667 0 -143.666 9.16992 -200.999 27.5029s-105.166 43.166 -143.499 74.499s-67 67.666 -86 108.999s-28.5 84.666 -28.5 129.999c0 14.667 0.833008 29.834 2.5 45.501s4 31.334 7 47.001s6.33301 31.167 10 46.5l10.5 44l168 760
c3.33301 14.667 2 26.667 -4 36s-15.333 15.666 -28 18.999l-142 36l14 57h550l-13 -57l-133 -36c-12.667 -3.33301 -24.334 -9.83301 -35.001 -19.5s-17.667 -21.5 -21 -35.5l-77 -346.5l-77 -345.5l-9 -43l-10 -48c-3.33301 -16.667 -6 -34.167 -8 -52.5
s-3 -37.166 -3 -56.499c0 -32.667 4.5 -65.334 13.5 -98.001s25 -61.834 48 -87.501s54.167 -46.667 93.5 -63s89.666 -24.5 150.999 -24.5c51.333 0 97.166 5.83301 137.499 17.5s76.166 27.5 107.499 47.5s58.666 43 81.999 69s43 53.333 59 82s29.333 57.667 40 87
s18.667 57 24 83l172 773c2.66699 12.667 1 24 -5 34s-14.667 16.667 -26 20l-144 43l13 57h464l-13 -57l-130 -43c-13.333 -4 -25.166 -10.5 -35.499 -19.5s-17.166 -20.5 -20.499 -34.5l-180 -811c-12.667 -57.333 -31.167 -108.5 -55.5 -153.5
s-52.833 -84.833 -85.5 -119.5s-68 -64.167 -106 -88.5s-76.833 -44.333 -116.5 -60s-79.167 -27.167 -118.5 -34.5s-76.666 -11 -111.999 -11zM1089 1546l-46.0029 -34.001l-282 231c-10 8.66699 -18.667 16.5 -26 23.5s-13.666 13.833 -18.999 20.5
s-9.33301 13.667 -12 21s-4.66699 16 -6 26c-2 7.33301 -2.83301 14.5 -2.5 21.5s1.83301 14.167 4.5 21.5c2 6.66699 5.33301 13.167 10 19.5s10.167 11.833 16.5 16.5s13.333 8.33398 21 11.001s15.834 4 24.501 4c12.667 0 24 -1.33301 34 -4s19.833 -7 29.5 -13
s19.334 -14.333 29.001 -25s20.167 -24.667 31.5 -42z" />
    <glyph glyph-name="Uacute" unicode="&#xda;" horiz-adv-x="1490" 
d="M643 -32c-76.667 0 -143.666 9.16992 -200.999 27.5029s-105.166 43.166 -143.499 74.499s-67 67.666 -86 108.999s-28.5 84.666 -28.5 129.999c0 14.667 0.833008 29.834 2.5 45.501s4 31.334 7 47.001s6.33301 31.167 10 46.5l10.5 44l168 760
c3.33301 14.667 2 26.667 -4 36s-15.333 15.666 -28 18.999l-142 36l14 57h550l-13 -57l-133 -36c-12.667 -3.33301 -24.334 -9.83301 -35.001 -19.5s-17.667 -21.5 -21 -35.5l-77 -346.5l-77 -345.5l-9 -43l-10 -48c-3.33301 -16.667 -6 -34.167 -8 -52.5
s-3 -37.166 -3 -56.499c0 -32.667 4.5 -65.334 13.5 -98.001s25 -61.834 48 -87.501s54.167 -46.667 93.5 -63s89.666 -24.5 150.999 -24.5c51.333 0 97.166 5.83301 137.499 17.5s76.166 27.5 107.499 47.5s58.666 43 81.999 69s43 53.333 59 82s29.333 57.667 40 87
s18.667 57 24 83l172 773c2.66699 12.667 1 24 -5 34s-14.667 16.667 -26 20l-144 43l13 57h464l-13 -57l-130 -43c-13.333 -4 -25.166 -10.5 -35.499 -19.5s-17.166 -20.5 -20.499 -34.5l-180 -811c-12.667 -57.333 -31.167 -108.5 -55.5 -153.5
s-52.833 -84.833 -85.5 -119.5s-68 -64.167 -106 -88.5s-76.833 -44.333 -116.5 -60s-79.167 -27.167 -118.5 -34.5s-76.666 -11 -111.999 -11zM826.001 1512l-39.999 34.002l93.5 130l71.5 99c20.667 28 39 51.667 55 71s31.167 35.166 45.5 47.499
s28.166 21.166 41.499 26.499s27.666 8 42.999 8c22.667 0 40.667 -7.16699 54 -21.5s20 -30.833 20 -49.5c0 -12.667 -1.66699 -23.667 -5 -33s-8.16602 -18.333 -14.499 -27s-14.333 -17.167 -24 -25.5l-33.5 -28.5z" />
    <glyph glyph-name="Ucircumflex" unicode="&#xdb;" horiz-adv-x="1490" 
d="M643 -32c-76.667 0 -143.666 9.16992 -200.999 27.5029s-105.166 43.166 -143.499 74.499s-67 67.666 -86 108.999s-28.5 84.666 -28.5 129.999c0 14.667 0.833008 29.834 2.5 45.501s4 31.334 7 47.001s6.33301 31.167 10 46.5l10.5 44l168 760
c3.33301 14.667 2 26.667 -4 36s-15.333 15.666 -28 18.999l-142 36l14 57h550l-13 -57l-133 -36c-12.667 -3.33301 -24.334 -9.83301 -35.001 -19.5s-17.667 -21.5 -21 -35.5l-77 -346.5l-77 -345.5l-9 -43l-10 -48c-3.33301 -16.667 -6 -34.167 -8 -52.5
s-3 -37.166 -3 -56.499c0 -32.667 4.5 -65.334 13.5 -98.001s25 -61.834 48 -87.501s54.167 -46.667 93.5 -63s89.666 -24.5 150.999 -24.5c51.333 0 97.166 5.83301 137.499 17.5s76.166 27.5 107.499 47.5s58.666 43 81.999 69s43 53.333 59 82s29.333 57.667 40 87
s18.667 57 24 83l172 773c2.66699 12.667 1 24 -5 34s-14.667 16.667 -26 20l-144 43l13 57h464l-13 -57l-130 -43c-13.333 -4 -25.166 -10.5 -35.499 -19.5s-17.166 -20.5 -20.499 -34.5l-180 -811c-12.667 -57.333 -31.167 -108.5 -55.5 -153.5
s-52.833 -84.833 -85.5 -119.5s-68 -64.167 -106 -88.5s-76.833 -44.333 -116.5 -60s-79.167 -27.167 -118.5 -34.5s-76.666 -11 -111.999 -11zM990.001 1769l-311.999 -252.999l-39 28l248 297c10 12.667 19.667 24.167 29 34.5s19 19.166 29 26.499
s20.167 13.166 30.5 17.499s21.833 6.5 34.5 6.5c25.333 0 45.166 -7.66699 59.499 -23s27.5 -35.666 39.5 -60.999l143 -298l-49 -28z" />
    <glyph glyph-name="Udieresis" unicode="&#xdc;" horiz-adv-x="1490" 
d="M643 -32c-76.667 0 -143.666 9.16992 -200.999 27.5029s-105.166 43.166 -143.499 74.499s-67 67.666 -86 108.999s-28.5 84.666 -28.5 129.999c0 14.667 0.833008 29.834 2.5 45.501s4 31.334 7 47.001s6.33301 31.167 10 46.5l10.5 44l168 760
c3.33301 14.667 2 26.667 -4 36s-15.333 15.666 -28 18.999l-142 36l14 57h550l-13 -57l-133 -36c-12.667 -3.33301 -24.334 -9.83301 -35.001 -19.5s-17.667 -21.5 -21 -35.5l-77 -346.5l-77 -345.5l-9 -43l-10 -48c-3.33301 -16.667 -6 -34.167 -8 -52.5
s-3 -37.166 -3 -56.499c0 -32.667 4.5 -65.334 13.5 -98.001s25 -61.834 48 -87.501s54.167 -46.667 93.5 -63s89.666 -24.5 150.999 -24.5c51.333 0 97.166 5.83301 137.499 17.5s76.166 27.5 107.499 47.5s58.666 43 81.999 69s43 53.333 59 82s29.333 57.667 40 87
s18.667 57 24 83l172 773c2.66699 12.667 1 24 -5 34s-14.667 16.667 -26 20l-144 43l13 57h464l-13 -57l-130 -43c-13.333 -4 -25.166 -10.5 -35.499 -19.5s-17.166 -20.5 -20.499 -34.5l-180 -811c-12.667 -57.333 -31.167 -108.5 -55.5 -153.5
s-52.833 -84.833 -85.5 -119.5s-68 -64.167 -106 -88.5s-76.833 -44.333 -116.5 -60s-79.167 -27.167 -118.5 -34.5s-76.666 -11 -111.999 -11zM752.001 1573c-15.333 0 -29.834 2.83008 -43.501 8.49707s-25.5 13.334 -35.5 23.001s-18 21.167 -24 34.5s-9 28.333 -9 45
c0 16 2.83301 30.833 8.5 44.5s13.667 25.5 24 35.5s22.333 17.667 36 23s28.167 8 43.5 8c16.667 0 32.167 -2.66699 46.5 -8s26.833 -12.666 37.5 -21.999s18.834 -20.666 24.501 -33.999s8.5 -28 8.5 -44c0 -16.667 -3 -32 -9 -46s-14.333 -26 -25 -36
s-23 -17.833 -37 -23.5s-29.333 -8.5 -46 -8.5zM1166 1573c-15.333 0 -29.8311 2.83008 -43.498 8.49707s-25.667 13.334 -36 23.001s-18.5 21.167 -24.5 34.5s-9 28.333 -9 45c0 16 3 30.833 9 44.5s14.167 25.5 24.5 35.5s22.166 17.667 35.499 23s28 8 44 8
c16.667 0 32.167 -2.66699 46.5 -8s26.666 -12.666 36.999 -21.999s18.5 -20.666 24.5 -33.999s9 -28 9 -44c0 -16.667 -3 -32 -9 -46s-14.333 -26 -25 -36s-23.167 -17.833 -37.5 -23.5s-29.5 -8.5 -45.5 -8.5z" />
    <glyph glyph-name="Yacute" unicode="&#xdd;" horiz-adv-x="1277" 
d="M823 0h-584l14 58l149 35c14 4 26 10.667 36 20s16.667 21.333 20 36l89 400l-240 705c-4 12 -9.33301 23.5 -16 34.5s-15.667 18.5 -27 22.5l-105 32l13 57h492l-12 -57l-166 -43l176 -519l39 -126h6l495 640l-165 48l12 57h416l-12 -57l-89 -33
c-14 -5.33301 -27 -13.333 -39 -24s-22.667 -21.667 -32 -33l-557 -696l-90 -408c-3.33301 -14 -2 -26.167 4 -36.5s15 -16.833 27 -19.5l159 -35zM744 1512l-39.999 34.002l93.5 130l71.5 99c20.667 28 39 51.667 55 71s31.167 35.166 45.5 47.499
s28.166 21.166 41.499 26.499s27.666 8 42.999 8c22.667 0 40.667 -7.16699 54 -21.5s20 -30.833 20 -49.5c0 -12.667 -1.66699 -23.667 -5 -33s-8.16602 -18.333 -14.499 -27s-14.333 -17.167 -24 -25.5l-33.5 -28.5z" />
    <glyph glyph-name="Thorn" unicode="&#xde;" horiz-adv-x="1197" 
d="M625 403c57.333 0 107.333 11.168 150 33.501s78 51.5 106 87.5s48.833 76.333 62.5 121s20.5 89 20.5 133c0 35.333 -5.16699 69 -15.5 101s-27 59.667 -50 83s-53.833 42 -92.5 56s-86 21 -142 21h-113l-138 -619c10 -2.66699 23.833 -5 41.5 -7
s36.667 -3.83301 57 -5.5s40.5 -2.83398 60.5 -3.50098s37.667 -1 53 -1zM527 0.000976562h-564.004l14 58l66 17.5l66 17.5c13.333 3.33301 25.333 9.83301 36 19.5s17.667 21.834 21 36.501l244 1103c3.33301 14.667 1.83301 26.834 -4.5 36.501
s-14.833 15.834 -25.5 18.501l-143 36l13 57h550l-13 -58l-133 -36c-13.333 -3.33301 -25.166 -9.83301 -35.499 -19.5s-17.166 -21.834 -20.499 -36.501l-26 -120h140c64.667 0 125 -6.5 181 -19.5s104.667 -33 146 -60s73.833 -60.833 97.5 -101.5s35.5 -88.667 35.5 -144
c0 -74.667 -14.167 -142.834 -42.5 -204.501s-66.666 -114.5 -114.999 -158.5s-105 -78.167 -170 -102.5s-133.833 -36.5 -206.5 -36.5c-17.333 0 -37.166 1.83301 -59.499 5.5s-44.5 8.5 -66.5 14.5s-42.833 13 -62.5 21s-35.834 16.667 -48.501 26l-48 -221
c-3.33301 -15.333 -1.66602 -27.833 5.00098 -37.5s15.667 -15.834 27 -18.501l156 -35z" />
    <glyph glyph-name="germandbls" unicode="&#xdf;" horiz-adv-x="1302" 
d="M-263 -480c-10.667 0 -22.498 0.833008 -35.498 2.5s-26.167 4 -39.5 7s-26.666 6.66699 -39.999 11s-25.333 9.5 -36 15.5l45 165h27c13.333 -8.66699 26.833 -17 40.5 -25s28.167 -15.167 43.5 -21.5s32.166 -11.5 50.499 -15.5s38.833 -6 61.5 -6
c30 0 54.833 4.33301 74.5 13s36.167 22.334 49.5 41.001c8.66699 12.667 17.667 31 27 55s19.166 52.333 29.499 85s20.5 69.5 30.5 110.5s20 86.167 30 135.5l182 921c12 62 31.333 118.167 58 168.5s58 95 94 134s75.333 72.667 118 101s86.167 51.666 130.5 69.999
s88.833 31.833 133.5 40.5s86.334 13 125.001 13c41.333 0 80.333 -6.33301 117 -19s68.334 -30 95.001 -52s47.667 -48 63 -78s23 -62.333 23 -97c0 -21.333 -2.16699 -43.166 -6.5 -65.499s-9.83301 -43.666 -16.5 -63.999s-13.834 -39.333 -21.501 -57
s-14.834 -32.834 -21.501 -45.501l-131 -52c-42 -17.333 -79.333 -36.333 -112 -57s-58.667 -43.834 -78 -69.501s-28.333 -56.167 -27 -91.5c0 -14 2.16699 -27 6.5 -39s10.5 -23 18.5 -33s17.333 -19.5 28 -28.5s22.667 -18.167 36 -27.5
c5.33301 -4 14.166 -9.83301 26.499 -17.5l41.5 -27l49 -32.5l52 -33c40 -26 71 -55.5 93 -88.5s33.333 -71.5 34 -115.5c0.666992 -39.333 -4.83301 -75.833 -16.5 -109.5s-28.167 -64.667 -49.5 -93s-46.5 -53.333 -75.5 -75s-60.667 -39.834 -95 -54.501
s-70.5 -25.834 -108.5 -33.501s-76.333 -11.5 -115 -11.5c-34 0 -64.833 2 -92.5 6s-53.167 9.33301 -76.5 16s-45.5 14 -66.5 22l-63.5 24l40 261h76l15 -113c2.66699 -15.333 11.167 -30 25.5 -44s31.833 -26.667 52.5 -38s43.5 -20.166 68.5 -26.499
s49.833 -9.5 74.5 -9.5c32.667 0 63.334 4.66699 92.001 14s53.667 23.333 75 42s38 42.334 50 71.001s17.667 62 17 100c-0.666992 18.667 -4 35.167 -10 49.5s-14.833 27.833 -26.5 40.5s-26.167 25.167 -43.5 37.5s-37.666 25.5 -60.999 39.5
c-26 16 -51.167 30.667 -75.5 44s-47.166 27 -68.499 41c-12 8 -24.333 18.167 -37 30.5s-24.334 26.5 -35.001 42.5s-19.5 33.833 -26.5 53.5s-10.833 41.167 -11.5 64.5c0 36 7.66699 68.333 23 97s34.666 54 57.999 76s48.5 41.333 75.5 58s51.833 31.334 74.5 44.001
c6.66699 4 15 8.66699 25 14l32.5 17.5l36 20c12.333 7 24.333 14.167 36 21.5s22.167 14.333 31.5 21s16.666 13 21.999 19c8.66699 35.333 13 65.333 13 90c0 37.333 -7 68.833 -21 94.5s-33.333 46.167 -58 61.5s-53.667 26.333 -87 33s-69.333 10 -108 10
c-14 0 -29.833 -2 -47.5 -6s-34.667 -9 -51 -15s-31.166 -12.5 -44.499 -19.5s-23 -13.167 -29 -18.5c-16.667 -15.333 -33 -35 -49 -59s-31.667 -53.167 -47 -87.5s-30 -74.5 -44 -120.5s-26.667 -98 -38 -156l-167 -852c-18.667 -96 -45.834 -179.333 -81.501 -250
s-77.334 -129.334 -125.001 -176.001s-99.667 -81.5 -156 -104.5s-114.166 -34.5 -173.499 -34.5z" />
    <glyph glyph-name="agrave" unicode="&#xe0;" horiz-adv-x="1076" 
d="M386 104c18.667 0 39.166 2.33301 61.499 7s45 11.334 68 20.001s45.5 19.834 67.5 33.501s42 29.834 60 48.501l69 319c-67.333 0 -130.666 -2.83301 -189.999 -8.5s-111 -17.334 -155 -35.001s-78.5 -43.5 -103.5 -77.5s-37.5 -79.333 -37.5 -136
c0 -30.667 4.33301 -56.834 13 -78.501s20.167 -39.334 34.5 -53.001s31 -23.667 50 -30s39.833 -9.5 62.5 -9.5zM297.999 -19c-46 0 -85.4922 7.17285 -118.492 21.5059s-60.333 33.333 -82 57s-37.667 51.167 -48 82.5s-15.5 63.666 -15.5 96.999
c-0.666992 49.333 6.83301 93 22.5 131s37 71 64 99s58 51.667 93 71s71.667 35 110 47s77 20.5 116 25.5s75.5 7.5 109.5 7.5c9.33301 0 21.666 -0.5 36.999 -1.5s31.666 -2.33301 48.999 -4s34.166 -3.5 50.499 -5.5s30.166 -3.33301 41.499 -4l16 76c2 8 3.66699 17 5 27
s2.33301 20.167 3 30.5s1.16699 20 1.5 29s0.5 16.5 0.5 22.5c0 26.667 -4.5 49.334 -13.5 68.001s-21.5 34 -37.5 46s-34.667 20.833 -56 26.5s-44 8.5 -68 8.5c-31.333 0 -63.333 -5.66699 -96 -17s-64.167 -24.833 -94.5 -40.5s-58.833 -31.834 -85.5 -48.501
s-49.334 -30 -68.001 -40h-36l24 169l54 17l70 23c23.333 7.33301 48.166 13.666 74.499 18.999s54.666 9.66602 84.999 12.999s64.166 5 101.499 5c40 0 79.5 -3.83301 118.5 -11.5s74 -20.667 105 -39s55.833 -42.833 74.5 -73.5s28 -69 28 -115
c0 -10.667 -0.5 -23 -1.5 -37s-2.5 -28 -4.5 -42s-4.16699 -27.833 -6.5 -41.5s-4.5 -25.5 -6.5 -35.5l-53 -236c-4.66699 -19.333 -9.33398 -40.833 -14.001 -64.5l-13 -68c-4 -21.667 -7.33301 -41.667 -10 -60s-4 -31.833 -4 -40.5c0 -8 1.83301 -16.833 5.5 -26.5
s9.33398 -18.834 17.001 -27.501s17.667 -15.834 30 -21.501s27.5 -8.5 45.5 -8.5c4.66699 0 11.5 0.666992 20.5 2s18.833 3.16602 29.5 5.49902s21.5 5.16602 32.5 8.49902s21.167 7.33301 30.5 12h22v-62c-19.333 -12 -40 -22.333 -62 -31s-44.333 -16.167 -67 -22.5
s-45.167 -11 -67.5 -14s-43.833 -4.5 -64.5 -4.5c-30 0 -54.333 5.33301 -73 16s-33.5 24 -44.5 40s-19 34 -24 54s-8.83301 39 -11.5 57h-4c-29.333 -34.667 -58.5 -63.167 -87.5 -85.5s-58 -39.666 -87 -51.999s-57.167 -21 -84.5 -26s-53.333 -7.5 -78 -7.5z
M801.007 1153.01l-46.001 -34l-282 231l-28 27c-8.66699 8.66699 -16 17.167 -22 25.5s-10.667 16.833 -14 25.5s-5 17.334 -5 26.001c0 13.333 2.5 25.166 7.5 35.499s11.167 18.833 18.5 25.5s15.833 11.667 25.5 15s19.167 5 28.5 5c12.667 0 24 -1.16699 34 -3.5
s19.833 -6.66602 29.5 -12.999s19.334 -14.833 29.001 -25.5s20.167 -24.334 31.5 -41.001z" />
    <glyph glyph-name="aacute" unicode="&#xe1;" horiz-adv-x="1076" 
d="M386 104c18.667 0 39.166 2.33301 61.499 7s45 11.334 68 20.001s45.5 19.834 67.5 33.501s42 29.834 60 48.501l69 319c-67.333 0 -130.666 -2.83301 -189.999 -8.5s-111 -17.334 -155 -35.001s-78.5 -43.5 -103.5 -77.5s-37.5 -79.333 -37.5 -136
c0 -30.667 4.33301 -56.834 13 -78.501s20.167 -39.334 34.5 -53.001s31 -23.667 50 -30s39.833 -9.5 62.5 -9.5zM297.999 -19c-46 0 -85.4922 7.17285 -118.492 21.5059s-60.333 33.333 -82 57s-37.667 51.167 -48 82.5s-15.5 63.666 -15.5 96.999
c-0.666992 49.333 6.83301 93 22.5 131s37 71 64 99s58 51.667 93 71s71.667 35 110 47s77 20.5 116 25.5s75.5 7.5 109.5 7.5c9.33301 0 21.666 -0.5 36.999 -1.5s31.666 -2.33301 48.999 -4s34.166 -3.5 50.499 -5.5s30.166 -3.33301 41.499 -4l16 76c2 8 3.66699 17 5 27
s2.33301 20.167 3 30.5s1.16699 20 1.5 29s0.5 16.5 0.5 22.5c0 26.667 -4.5 49.334 -13.5 68.001s-21.5 34 -37.5 46s-34.667 20.833 -56 26.5s-44 8.5 -68 8.5c-31.333 0 -63.333 -5.66699 -96 -17s-64.167 -24.833 -94.5 -40.5s-58.833 -31.834 -85.5 -48.501
s-49.334 -30 -68.001 -40h-36l24 169l54 17l70 23c23.333 7.33301 48.166 13.666 74.499 18.999s54.666 9.66602 84.999 12.999s64.166 5 101.499 5c40 0 79.5 -3.83301 118.5 -11.5s74 -20.667 105 -39s55.833 -42.833 74.5 -73.5s28 -69 28 -115
c0 -10.667 -0.5 -23 -1.5 -37s-2.5 -28 -4.5 -42s-4.16699 -27.833 -6.5 -41.5s-4.5 -25.5 -6.5 -35.5l-53 -236c-4.66699 -19.333 -9.33398 -40.833 -14.001 -64.5l-13 -68c-4 -21.667 -7.33301 -41.667 -10 -60s-4 -31.833 -4 -40.5c0 -8 1.83301 -16.833 5.5 -26.5
s9.33398 -18.834 17.001 -27.501s17.667 -15.834 30 -21.501s27.5 -8.5 45.5 -8.5c4.66699 0 11.5 0.666992 20.5 2s18.833 3.16602 29.5 5.49902s21.5 5.16602 32.5 8.49902s21.167 7.33301 30.5 12h22v-62c-19.333 -12 -40 -22.333 -62 -31s-44.333 -16.167 -67 -22.5
s-45.167 -11 -67.5 -14s-43.833 -4.5 -64.5 -4.5c-30 0 -54.333 5.33301 -73 16s-33.5 24 -44.5 40s-19 34 -24 54s-8.83301 39 -11.5 57h-4c-29.333 -34.667 -58.5 -63.167 -87.5 -85.5s-58 -39.666 -87 -51.999s-57.167 -21 -84.5 -26s-53.333 -7.5 -78 -7.5z
M498.007 1119.01l-41.999 34.0029l93.5 130l71.5 99.5c20.667 28.333 39 52.166 55 71.499s31.167 35 45.5 47s28.166 20.667 41.499 26s27.666 8 42.999 8c11.333 0 21.5 -2 30.5 -6s16.833 -9.33301 23.5 -16s11.667 -14.167 15 -22.5s5 -16.833 5 -25.5
c0 -12.667 -1.66699 -23.834 -5 -33.501s-8.16602 -18.834 -14.499 -27.501s-14.333 -17.167 -24 -25.5l-33.5 -28.5z" />
    <glyph glyph-name="acircumflex" unicode="&#xe2;" horiz-adv-x="1076" 
d="M386 104c18.667 0 39.166 2.33301 61.499 7s45 11.334 68 20.001s45.5 19.834 67.5 33.501s42 29.834 60 48.501l69 319c-67.333 0 -130.666 -2.83301 -189.999 -8.5s-111 -17.334 -155 -35.001s-78.5 -43.5 -103.5 -77.5s-37.5 -79.333 -37.5 -136
c0 -30.667 4.33301 -56.834 13 -78.501s20.167 -39.334 34.5 -53.001s31 -23.667 50 -30s39.833 -9.5 62.5 -9.5zM297.999 -19c-46 0 -85.4922 7.17285 -118.492 21.5059s-60.333 33.333 -82 57s-37.667 51.167 -48 82.5s-15.5 63.666 -15.5 96.999
c-0.666992 49.333 6.83301 93 22.5 131s37 71 64 99s58 51.667 93 71s71.667 35 110 47s77 20.5 116 25.5s75.5 7.5 109.5 7.5c9.33301 0 21.666 -0.5 36.999 -1.5s31.666 -2.33301 48.999 -4s34.166 -3.5 50.499 -5.5s30.166 -3.33301 41.499 -4l16 76c2 8 3.66699 17 5 27
s2.33301 20.167 3 30.5s1.16699 20 1.5 29s0.5 16.5 0.5 22.5c0 26.667 -4.5 49.334 -13.5 68.001s-21.5 34 -37.5 46s-34.667 20.833 -56 26.5s-44 8.5 -68 8.5c-31.333 0 -63.333 -5.66699 -96 -17s-64.167 -24.833 -94.5 -40.5s-58.833 -31.834 -85.5 -48.501
s-49.334 -30 -68.001 -40h-36l24 169l54 17l70 23c23.333 7.33301 48.166 13.666 74.499 18.999s54.666 9.66602 84.999 12.999s64.166 5 101.499 5c40 0 79.5 -3.83301 118.5 -11.5s74 -20.667 105 -39s55.833 -42.833 74.5 -73.5s28 -69 28 -115
c0 -10.667 -0.5 -23 -1.5 -37s-2.5 -28 -4.5 -42s-4.16699 -27.833 -6.5 -41.5s-4.5 -25.5 -6.5 -35.5l-53 -236c-4.66699 -19.333 -9.33398 -40.833 -14.001 -64.5l-13 -68c-4 -21.667 -7.33301 -41.667 -10 -60s-4 -31.833 -4 -40.5c0 -8 1.83301 -16.833 5.5 -26.5
s9.33398 -18.834 17.001 -27.501s17.667 -15.834 30 -21.501s27.5 -8.5 45.5 -8.5c4.66699 0 11.5 0.666992 20.5 2s18.833 3.16602 29.5 5.49902s21.5 5.16602 32.5 8.49902s21.167 7.33301 30.5 12h22v-62c-19.333 -12 -40 -22.333 -62 -31s-44.333 -16.167 -67 -22.5
s-45.167 -11 -67.5 -14s-43.833 -4.5 -64.5 -4.5c-30 0 -54.333 5.33301 -73 16s-33.5 24 -44.5 40s-19 34 -24 54s-8.83301 39 -11.5 57h-4c-29.333 -34.667 -58.5 -63.167 -87.5 -85.5s-58 -39.666 -87 -51.999s-57.167 -21 -84.5 -26s-53.333 -7.5 -78 -7.5z
M638.007 1377.01l-311.999 -258.001l-39 32l248 297c10 12.667 19.667 24.167 29 34.5s19 19.333 29 27s20.167 13.5 30.5 17.5s21.833 6 34.5 6c25.333 0 45.166 -7.66699 59.499 -23s27.5 -35.666 39.5 -60.999l143 -298l-49 -32z" />
    <glyph glyph-name="atilde" unicode="&#xe3;" horiz-adv-x="1076" 
d="M386 104c18.667 0 39.166 2.33301 61.499 7s45 11.334 68 20.001s45.5 19.834 67.5 33.501s42 29.834 60 48.501l69 319c-67.333 0 -130.666 -2.83301 -189.999 -8.5s-111 -17.334 -155 -35.001s-78.5 -43.5 -103.5 -77.5s-37.5 -79.333 -37.5 -136
c0 -30.667 4.33301 -56.834 13 -78.501s20.167 -39.334 34.5 -53.001s31 -23.667 50 -30s39.833 -9.5 62.5 -9.5zM297.999 -19c-46 0 -85.4922 7.17285 -118.492 21.5059s-60.333 33.333 -82 57s-37.667 51.167 -48 82.5s-15.5 63.666 -15.5 96.999
c-0.666992 49.333 6.83301 93 22.5 131s37 71 64 99s58 51.667 93 71s71.667 35 110 47s77 20.5 116 25.5s75.5 7.5 109.5 7.5c9.33301 0 21.666 -0.5 36.999 -1.5s31.666 -2.33301 48.999 -4s34.166 -3.5 50.499 -5.5s30.166 -3.33301 41.499 -4l16 76c2 8 3.66699 17 5 27
s2.33301 20.167 3 30.5s1.16699 20 1.5 29s0.5 16.5 0.5 22.5c0 26.667 -4.5 49.334 -13.5 68.001s-21.5 34 -37.5 46s-34.667 20.833 -56 26.5s-44 8.5 -68 8.5c-31.333 0 -63.333 -5.66699 -96 -17s-64.167 -24.833 -94.5 -40.5s-58.833 -31.834 -85.5 -48.501
s-49.334 -30 -68.001 -40h-36l24 169l54 17l70 23c23.333 7.33301 48.166 13.666 74.499 18.999s54.666 9.66602 84.999 12.999s64.166 5 101.499 5c40 0 79.5 -3.83301 118.5 -11.5s74 -20.667 105 -39s55.833 -42.833 74.5 -73.5s28 -69 28 -115
c0 -10.667 -0.5 -23 -1.5 -37s-2.5 -28 -4.5 -42s-4.16699 -27.833 -6.5 -41.5s-4.5 -25.5 -6.5 -35.5l-53 -236c-4.66699 -19.333 -9.33398 -40.833 -14.001 -64.5l-13 -68c-4 -21.667 -7.33301 -41.667 -10 -60s-4 -31.833 -4 -40.5c0 -8 1.83301 -16.833 5.5 -26.5
s9.33398 -18.834 17.001 -27.501s17.667 -15.834 30 -21.501s27.5 -8.5 45.5 -8.5c4.66699 0 11.5 0.666992 20.5 2s18.833 3.16602 29.5 5.49902s21.5 5.16602 32.5 8.49902s21.167 7.33301 30.5 12h22v-62c-19.333 -12 -40 -22.333 -62 -31s-44.333 -16.167 -67 -22.5
s-45.167 -11 -67.5 -14s-43.833 -4.5 -64.5 -4.5c-30 0 -54.333 5.33301 -73 16s-33.5 24 -44.5 40s-19 34 -24 54s-8.83301 39 -11.5 57h-4c-29.333 -34.667 -58.5 -63.167 -87.5 -85.5s-58 -39.666 -87 -51.999s-57.167 -21 -84.5 -26s-53.333 -7.5 -78 -7.5z
M342.007 1175.01l-68.0039 -0.00390625c8.66699 31.333 21 60.833 37 88.5s34.667 52.167 56 73.5s44.666 38.166 69.999 50.499s51 18.5 77 18.5c24.667 0 48.334 -4.83301 71.001 -14.5s44.334 -20.167 65.001 -31.5s40.834 -21.666 60.501 -30.999s39.167 -14 58.5 -14
c14 0 26.833 2.66699 38.5 8s22.334 12.833 32.001 22.5s18.167 20.834 25.5 33.501s13.333 26.334 18 41.001h69c-8.66699 -30.667 -20.667 -59.834 -36 -87.501s-33.333 -52.167 -54 -73.5s-43.167 -38.166 -67.5 -50.499s-50.166 -18.5 -77.499 -18.5
c-24.667 0 -48 4.83301 -70 14.5s-43.333 20.334 -64 32.001s-40.834 22.334 -60.501 32.001s-39.5 14.5 -59.5 14.5c-13.333 0 -26.333 -2.66699 -39 -8s-24.167 -13 -34.5 -23s-19.666 -21.5 -27.999 -34.5s-14.833 -27.167 -19.5 -42.5z" />
    <glyph glyph-name="adieresis" unicode="&#xe4;" horiz-adv-x="1076" 
d="M386 104c18.667 0 39.166 2.33301 61.499 7s45 11.334 68 20.001s45.5 19.834 67.5 33.501s42 29.834 60 48.501l69 319c-67.333 0 -130.666 -2.83301 -189.999 -8.5s-111 -17.334 -155 -35.001s-78.5 -43.5 -103.5 -77.5s-37.5 -79.333 -37.5 -136
c0 -30.667 4.33301 -56.834 13 -78.501s20.167 -39.334 34.5 -53.001s31 -23.667 50 -30s39.833 -9.5 62.5 -9.5zM297.999 -19c-46 0 -85.4922 7.17285 -118.492 21.5059s-60.333 33.333 -82 57s-37.667 51.167 -48 82.5s-15.5 63.666 -15.5 96.999
c-0.666992 49.333 6.83301 93 22.5 131s37 71 64 99s58 51.667 93 71s71.667 35 110 47s77 20.5 116 25.5s75.5 7.5 109.5 7.5c9.33301 0 21.666 -0.5 36.999 -1.5s31.666 -2.33301 48.999 -4s34.166 -3.5 50.499 -5.5s30.166 -3.33301 41.499 -4l16 76c2 8 3.66699 17 5 27
s2.33301 20.167 3 30.5s1.16699 20 1.5 29s0.5 16.5 0.5 22.5c0 26.667 -4.5 49.334 -13.5 68.001s-21.5 34 -37.5 46s-34.667 20.833 -56 26.5s-44 8.5 -68 8.5c-31.333 0 -63.333 -5.66699 -96 -17s-64.167 -24.833 -94.5 -40.5s-58.833 -31.834 -85.5 -48.501
s-49.334 -30 -68.001 -40h-36l24 169l54 17l70 23c23.333 7.33301 48.166 13.666 74.499 18.999s54.666 9.66602 84.999 12.999s64.166 5 101.499 5c40 0 79.5 -3.83301 118.5 -11.5s74 -20.667 105 -39s55.833 -42.833 74.5 -73.5s28 -69 28 -115
c0 -10.667 -0.5 -23 -1.5 -37s-2.5 -28 -4.5 -42s-4.16699 -27.833 -6.5 -41.5s-4.5 -25.5 -6.5 -35.5l-53 -236c-4.66699 -19.333 -9.33398 -40.833 -14.001 -64.5l-13 -68c-4 -21.667 -7.33301 -41.667 -10 -60s-4 -31.833 -4 -40.5c0 -8 1.83301 -16.833 5.5 -26.5
s9.33398 -18.834 17.001 -27.501s17.667 -15.834 30 -21.501s27.5 -8.5 45.5 -8.5c4.66699 0 11.5 0.666992 20.5 2s18.833 3.16602 29.5 5.49902s21.5 5.16602 32.5 8.49902s21.167 7.33301 30.5 12h22v-62c-19.333 -12 -40 -22.333 -62 -31s-44.333 -16.167 -67 -22.5
s-45.167 -11 -67.5 -14s-43.833 -4.5 -64.5 -4.5c-30 0 -54.333 5.33301 -73 16s-33.5 24 -44.5 40s-19 34 -24 54s-8.83301 39 -11.5 57h-4c-29.333 -34.667 -58.5 -63.167 -87.5 -85.5s-58 -39.666 -87 -51.999s-57.167 -21 -84.5 -26s-53.333 -7.5 -78 -7.5z
M403.007 1181.01c-15.333 0 -29.834 2.66406 -43.501 7.99707s-25.5 12.833 -35.5 22.5s-18 21.167 -24 34.5s-9 28.333 -9 45s2.83301 31.834 8.5 45.501s13.667 25.334 24 35.001s22.333 17.167 36 22.5s28.167 8 43.5 8c16.667 0 32.167 -2.66699 46.5 -8
s26.833 -12.666 37.5 -21.999s18.834 -20.666 24.501 -33.999s8.5 -28 8.5 -44c0 -16.667 -3 -32 -9 -46s-14.333 -25.833 -25 -35.5s-23 -17.334 -37 -23.001s-29.333 -8.5 -46 -8.5zM817.006 1181c-15.333 0 -29.8311 2.66406 -43.498 7.99707s-25.667 12.833 -36 22.5
s-18.5 21.167 -24.5 34.5s-9 28.333 -9 45s3 31.834 9 45.501s14.167 25.334 24.5 35.001s22.166 17.167 35.499 22.5s28 8 44 8c16.667 0 32.167 -2.66699 46.5 -8s26.666 -12.666 36.999 -21.999s18.5 -20.666 24.5 -33.999s9 -28 9 -44c0 -16.667 -3 -32 -9 -46
s-14.333 -25.833 -25 -35.5s-23.167 -17.334 -37.5 -23.001s-29.5 -8.5 -45.5 -8.5z" />
    <glyph glyph-name="aring" unicode="&#xe5;" horiz-adv-x="1076" 
d="M386 104c18.667 0 39.166 2.33301 61.499 7s45 11.334 68 20.001s45.5 19.834 67.5 33.501s42 29.834 60 48.501l69 319c-67.333 0 -130.666 -2.83301 -189.999 -8.5s-111 -17.334 -155 -35.001s-78.5 -43.5 -103.5 -77.5s-37.5 -79.333 -37.5 -136
c0 -30.667 4.33301 -56.834 13 -78.501s20.167 -39.334 34.5 -53.001s31 -23.667 50 -30s39.833 -9.5 62.5 -9.5zM297.999 -19c-46 0 -85.4922 7.17285 -118.492 21.5059s-60.333 33.333 -82 57s-37.667 51.167 -48 82.5s-15.5 63.666 -15.5 96.999
c-0.666992 49.333 6.83301 93 22.5 131s37 71 64 99s58 51.667 93 71s71.667 35 110 47s77 20.5 116 25.5s75.5 7.5 109.5 7.5c9.33301 0 21.666 -0.5 36.999 -1.5s31.666 -2.33301 48.999 -4s34.166 -3.5 50.499 -5.5s30.166 -3.33301 41.499 -4l16 76c2 8 3.66699 17 5 27
s2.33301 20.167 3 30.5s1.16699 20 1.5 29s0.5 16.5 0.5 22.5c0 26.667 -4.5 49.334 -13.5 68.001s-21.5 34 -37.5 46s-34.667 20.833 -56 26.5s-44 8.5 -68 8.5c-31.333 0 -63.333 -5.66699 -96 -17s-64.167 -24.833 -94.5 -40.5s-58.833 -31.834 -85.5 -48.501
s-49.334 -30 -68.001 -40h-36l24 169l54 17l70 23c23.333 7.33301 48.166 13.666 74.499 18.999s54.666 9.66602 84.999 12.999s64.166 5 101.499 5c40 0 79.5 -3.83301 118.5 -11.5s74 -20.667 105 -39s55.833 -42.833 74.5 -73.5s28 -69 28 -115
c0 -10.667 -0.5 -23 -1.5 -37s-2.5 -28 -4.5 -42s-4.16699 -27.833 -6.5 -41.5s-4.5 -25.5 -6.5 -35.5l-53 -236c-4.66699 -19.333 -9.33398 -40.833 -14.001 -64.5l-13 -68c-4 -21.667 -7.33301 -41.667 -10 -60s-4 -31.833 -4 -40.5c0 -8 1.83301 -16.833 5.5 -26.5
s9.33398 -18.834 17.001 -27.501s17.667 -15.834 30 -21.501s27.5 -8.5 45.5 -8.5c4.66699 0 11.5 0.666992 20.5 2s18.833 3.16602 29.5 5.49902s21.5 5.16602 32.5 8.49902s21.167 7.33301 30.5 12h22v-62c-19.333 -12 -40 -22.333 -62 -31s-44.333 -16.167 -67 -22.5
s-45.167 -11 -67.5 -14s-43.833 -4.5 -64.5 -4.5c-30 0 -54.333 5.33301 -73 16s-33.5 24 -44.5 40s-19 34 -24 54s-8.83301 39 -11.5 57h-4c-29.333 -34.667 -58.5 -63.167 -87.5 -85.5s-58 -39.666 -87 -51.999s-57.167 -21 -84.5 -26s-53.333 -7.5 -78 -7.5z
M608.007 1185.01c20 0 38.332 4.5 54.999 13.5s31 21.5 43 37.5s21.333 35 28 57s10 45.333 10 70c0 37.333 -8.66699 67.333 -26 90s-41.666 34 -72.999 34c-23.333 0 -43.833 -4.83301 -61.5 -14.5s-32.5 -22.667 -44.5 -39s-21 -35.333 -27 -57s-9 -44.5 -9 -68.5
c0 -38 9.5 -68 28.5 -90s44.5 -33 76.5 -33zM584.006 1125.01c-29.333 0 -55.8359 3.66992 -79.5029 11.0029s-44 18.166 -61 32.499s-30.167 31.833 -39.5 52.5s-14 44.667 -14 72c0 36.667 6.83301 70.5 20.5 101.5s32.5 57.833 56.5 80.5s53 40.5 87 53.5
s71.333 19.5 112 19.5c28.667 0 54.667 -3.83301 78 -11.5s43.333 -18.5 60 -32.5s29.5 -31.333 38.5 -52s13.5 -44 13.5 -70c0 -37.333 -6.66699 -71.833 -20 -103.5s-32.166 -58.834 -56.499 -81.501s-53.166 -40.334 -86.499 -53.001s-69.666 -19 -108.999 -19z" />
    </font>
</defs>
</svg>
